<?xml version="1.0" encoding="utf-8"?>
<!-- Generator: Adobe Illustrator 23.0.1, SVG Export Plug-In . SVG Version: 6.00 Build 0)  -->
<svg version="1.1" id="Layer_1" xmlns="http://www.w3.org/2000/svg" xmlns:xlink="http://www.w3.org/1999/xlink" x="0px" y="0px"
	 viewBox="0 0 300 300" style="enable-background:new 0 0 300 300;" xml:space="preserve">
<style type="text/css">
	.st0{fill:#89361D;}
	.st1{fill:#722915;}
	.st2{fill:#9F592C;}
	.st3{fill:#9E582B;}
	.st4{fill:#C4D842;}
	.st5{fill:#BCCE37;}
	.st6{fill:#F3E3C4;}
	.st7{fill:#EFDBBA;}
	.st8{fill:#E7CCAB;}
	.st9{fill:#752C17;}
	.st10{fill:#929C39;}
	.st11{fill:#AEAC35;}
	.st12{fill:#B6C235;}
	.st13{fill:#918E35;}
	.st14{fill:#97B83D;}
</style>
<g id="wKx6i5.tif">
	<g>
		<path class="st0" d="M67.5,216.9C43.6,202.5,36,168,51.2,143c1.1-1.8,2.3-3.6,3.5-5.4c-0.1,1.3-0.3,2.6-0.2,3.9
			c0.1,2.3,1.6,3.7,3.8,3.8c2.5,0,4.1-1.7,4-4.1c-0.1-2.1-1.4-3.5-3.8-3.8c-1.3-0.1-2.4,1.2-3.8,0.3c2.5-1.9,3.6-5.4,6.9-6.3
			c1.1,2.3,2.7,2.9,4.7,1.2c2.2-1.9,0.5-3.5-0.7-5.1c10.6-8.1,22.6-11.6,35.9-10.9c-0.4,1.6-1.7,3.3,0.2,4.9
			c0.9,0.8,1.9,1.2,3.1,0.6c2-1,1.9-2.8,1.7-4.6c13,1.5,23.8,7,32.2,17.1c0.3,0.3,0.7,0.6,1,0.9l0,0c0.4,4-0.6,7.9-1,11.8
			c-1.6,15.1-12.7,34.7-31.3,38.1c-3.2,0.6-6.4,1.4-9.7,2.1c-9.7,1.5-13.6,4.7-15.3,13.6c-1.4,7.5-5.5,12.1-12.6,14.2
			C68.8,215.6,67.8,215.8,67.5,216.9z M115.6,129.4c-0.2-2.3-1.3-3.8-3.6-4c-2.6-0.2-4.2,1.3-4.3,3.8c-0.1,2.5,1.6,4.1,4,4
			C114,133.2,115.4,131.7,115.6,129.4z M70.5,156.3c2.4-0.4,4.1-1.7,4-4.2c-0.1-2.2-1.5-3.6-3.9-3.6c-2.4-0.1-3.7,1.3-3.9,3.5
			C66.5,154.6,68.1,155.8,70.5,156.3z M88.8,130.8c-0.1-2.5-1.5-4-3.6-4.1c-2.4-0.1-4.2,1.5-4.1,4c0,2.4,1.6,4,4.2,3.8
			C87.6,134.4,88.7,133,88.8,130.8z M86.4,147.6c1.4-0.3,2.4-1.1,2.3-3c-0.1-1.8-1.2-2.8-2.8-2.8c-1.9,0-3.1,1.4-2.9,3.3
			C83.1,146.8,84.3,147.7,86.4,147.6z"/>
		<path class="st0" d="M214.6,116.5c9.1-0.3,18.2,0.2,27,3c0.8,1.9-1.5,4.9,1.8,5.9c2.5,0.8,3.6-0.8,4.2-2.9c2.6,1.3,5.5,2,6.9,4.9
			c-0.7,0-1.4,0-2,0.2c-2.2,0.6-3.5,2-3.3,4.3c0.2,2,1.4,3.4,3.5,3.5c2.4,0.2,3.7-1.1,4.2-3.4c0.1-0.6,0.5-1.2,0.7-1.8
			c1.5-1.2,2,0.4,2.7,1c20.9,18.1,23.5,53,5.6,74.3c-9.8,0.7-17.1-2.2-20.6-12.4c-1.8-5.1-6.5-6.6-11.6-6.9
			c-6.8-0.4-13.5,1.3-20.3,1.2c-0.6-0.2-1.1-0.4-1.7-0.6c-1.8-1.9-4.1-3.2-6.5-4.2c0-0.3-0.1-0.4-0.4-0.5c-1.4-0.9-2.8-1.9-4.2-2.8
			c-1.5-1.2-3-2.5-4.9-3c-6.1-3.4-12-7.2-18.8-9.1c0.9-5.2,2.2-10.4,2.1-15.7c0.1-0.7,0.1-1.5,0.2-2.2c1-4.3-0.5-8.6-0.3-12.9
			c2.4-0.3,3.5-2.4,5-3.8c4.8-4.8,10.3-8.6,16.6-11.2c-0.1,1.9,0.1,3.7,2.4,4.2c1.2,0.2,2.2-0.2,3-1.3c1.5-2.2-0.4-3.2-1.5-4.6
			c2.3-2.2,5.9-0.4,8.2-2.6C213.4,117.4,214.1,117.2,214.6,116.5z M198.3,130.5c-2.3,0.5-3.9,1.8-3.7,4.4c0.1,2.4,1.8,3.5,4,3.5
			c2.6,0,3.9-1.9,3.8-4.2C202.3,132,200.6,130.8,198.3,130.5z M248.5,145.3c-0.5-2-1.5-3.9-4.1-3.8c-2.3,0-3.7,1.4-3.8,3.7
			c-0.1,2.6,1.5,4,3.9,4.1C246.9,149.4,247.9,147.7,248.5,145.3z M228.6,128.6c-0.4-2.4-1.8-4.1-4.2-4c-2.1,0.1-3.7,1.5-3.7,3.9
			c0.1,2.6,1.6,4,4.1,3.9C227.1,132.4,228.2,130.8,228.6,128.6z M227.7,139.4c-1.7,0.1-2.9,0.9-3.1,2.6c-0.2,1.9,0.8,3.2,2.7,3.3
			c1.7,0.1,2.9-1,3.1-2.5C230.7,140.9,229.5,139.9,227.7,139.4z"/>
		<path class="st1" d="M212.6,117.2c-2.3,2.2-5.9,0.4-8.2,2.6c0,0,0,0,0,0c-1.4-2-2.3-1.5-2.9,0.5c-0.4,0.4-0.7,0.8-1.1,1.2
			c-6.4,2.5-11.8,6.4-16.6,11.2c-1.5,1.5-2.6,3.5-5,3.8c-1-12-3.6-23.7-6.6-35.3c-0.4-1.7-0.1-4.2-2.7-4.8c-0.5-0.2-1-0.5-1.5-0.7
			c-1.8-0.6-3.6-2.7-5.6-0.2c-1.1,1-1.1,2,0,3c1.2,1.3,2.4,2.2,4.3,1.4c-8.4,12.5-17.4,24.7-23.3,38.7c-2-0.1-2.2-2.6-3.9-3.1
			c0,0,0,0,0,0c-0.3-0.3-0.7-0.6-1-0.9c-8.4-10-19.2-15.6-32.2-17.1c-0.1-0.4-0.3-0.7-0.4-1.1c2.4-9.8,6.3-18.8,13-26.4
			c5.2-5.9,11.8-10,18.5-13.8c1.2,1.9,0.9,5.6,4.1,5c3.3-0.6,2-3.9,2-6.2c0-0.2,0-0.3,0-0.5c4.8,0.1,9.2-1.8,13.7-3
			c2.3-0.6,4.9-0.1,7.3,0c0.6,1.5,2,0.7,3,0.9c2.1-0.5,4,0.9,6,1c0.7,1.3,1.8,1.2,3,0.7c1.2-0.2,1.9,0.2,2.2,1.4
			c-0.3,1.8-0.9,3.9,1.2,4.7c2,0.8,4,0.1,5.5-1.6c1.8,1.7,6-0.2,6.2,4c-2.6,0.2-4.9,0.9-4.9,4.2c0,1.9,0.9,3.3,2.7,3.6
			c2.1,0.3,4-0.1,4.3-2.8c2-0.3,1.6-2,1.8-3.4c9.4,7.5,15.6,16.9,18,28.7C213.4,114.2,213,115.7,212.6,117.2z M183.6,96.3
			c-1-1.1-2-1.1-3,0.1c-0.3,0.4-0.6,0.8-1,1.2c-3.1,3.4-0.8,5.2,2,6.9c0,2.1,0.4,4.6,3.1,3.6c2.2-0.7,6.5,0.7,6.1-3.2
			c-0.4-4.7-4.2-0.7-6.2-1.4c0.1-0.2,0.1-0.5,0.1-0.7C187.5,100,184.9,98.3,183.6,96.3z M132.6,87.4c-1.2,0.9-1.2,1.9-0.2,3
			c0.6,2.2,2,3,4.2,2.6c2.4-0.4,4-1.7,3.5-4.2c-0.4-2.2-1.8-3.8-4.5-3.2C134.1,85.4,133.5,86.6,132.6,87.4z M164.9,86.1
			c2.1-2.5,1.8-5.1-1.1-6.3c-2.9-1.2-5.3,0.1-6,3.5C159.4,86.3,161,89,164.9,86.1z M150.1,101.5c-1.3,0.2-2.2,0.8-2.3,2.2
			c-0.1,1.6,0.8,2.5,2.3,2.6c1.3,0,2.2-0.8,2.3-2.1C152.6,102.6,151.6,101.8,150.1,101.5z M142.4,104.4c0.2-1.4-0.4-2.3-1.6-2.7
			c-1.5-0.5-2.7,0.2-3,1.8c-0.3,1.6,0.5,2.6,2,2.8C141.2,106.4,142,105.7,142.4,104.4z M152.3,91.2c-0.5-0.8-1.5-0.8-2.5-0.8
			c-0.9,0-1.8,0.2-1.7,1.2c0.1,1.1,1.1,1.7,2.1,1.6C151.3,93.2,152.1,92.7,152.3,91.2z M193.6,94.7c-0.8,0.2-1.6,0.5-1.4,1.5
			c0.2,1.2,0.9,2.1,2.1,2.4c1.2,0.3,1.2-0.7,1.2-1.5C195.5,95.9,195,95,193.6,94.7z M189.3,116.6c2-0.6,3.7-0.6,3.8-2.6
			c0-0.3-0.6-1-0.9-0.9C190.4,113.2,189.3,114.1,189.3,116.6z M183.3,119.4c-0.1-0.9-0.6-1.5-1.5-1.6c-0.8-0.1-1.1,0.6-1.1,1.3
			c0,0.8-0.1,1.8,1,1.9C182.6,121,183.1,120.4,183.3,119.4z M182.2,110.6c-2.5-1.4-3.9-1.7-5.5-0.1
			C178.4,111.3,179.8,111.1,182.2,110.6z M176.3,91.7c-0.1-0.8-0.6-1.2-1.3-1.1c-0.4,0.1-0.9,0.5-1,0.8c-0.2,0.7,0.2,1.3,1,1.4
			C175.7,92.9,176.1,92.3,176.3,91.7z M187.5,117.2c-0.8,0.6-1.1,0.8-1.4,1.1c0.2,0.3,0.4,0.8,0.8,0.9c0.6,0.2,1.3,0.1,1.3-0.8
			C188.1,118,187.7,117.6,187.5,117.2z"/>
		<path class="st2" d="M139.6,135.4c1.7,0.5,1.8,3,3.9,3.1c2.3,4.9,4.1,10.1,8.1,14.1c0.9,4.3,0.2,8.8,2,12.9
			c-0.1,4.6-0.2,9.2-0.3,13.8c-1.2,4.3-2.4,8.7-3.5,13c-8.3,18.4-22.2,29.9-42.2,33.7c-1.6,0.3-3.3,0.2-4.9,0.4
			c-1.9-5.3,4.2-8.4,3.5-13.5c-0.2-1.4-1.4-4.5,2.4-4.7c1,0,0.3-1.3-0.2-2c-0.9-1.2-0.9-2.5,0.2-3.6c1.4-1.3,0.4-3.3-0.4-3.3
			c-6-0.5-3.5-5.1-4.3-8.6c-5.5,5.3-4.8-0.7-6.2-3.1c3.2-0.7,6.4-1.5,9.7-2.1c18.7-3.5,29.7-23,31.3-38.1
			C139,143.3,140,139.4,139.6,135.4z"/>
		<path class="st3" d="M213.4,187.6c6.8,0.1,13.5-1.6,20.3-1.2c5.2,0.3,9.9,1.7,11.6,6.9c3.5,10.2,10.9,13.1,20.6,12.4
			c-23,30.7-72,27.3-90.7-6.4c5.4-1.3,11,0,16.3-1.9c1.8,0,3.6,0.3,5.3-0.8c0.9-0.1,1.8-0.2,2.7-0.3c0.8,0.1,1.5,0,2.1-0.7
			c2.3-0.5,4.6-1,6.9-1.4c2.5,0,4.8-0.6,7-1.8c1.3-0.1,2.5-0.3,1-1.9C215.5,189.5,214.5,188.5,213.4,187.6z"/>
		<path class="st3" d="M97.6,187.5c1.4,2.3,0.7,8.3,6.2,3.1c0.8,3.5-1.7,8.2,4.3,8.6c0.8,0.1,1.8,2,0.4,3.3
			c-1.1,1.1-1.1,2.4-0.2,3.6c0.5,0.7,1.2,1.9,0.2,2c-3.8,0.2-2.6,3.3-2.4,4.7c0.7,5.1-5.4,8.3-3.5,13.5c-12.9,1.2-24.7-1.7-35.2-9.5
			c0.4-1.1,1.3-1.3,2.3-1.6c7.1-2.1,11.2-6.7,12.6-14.2C84,192.1,87.9,189,97.6,187.5z M99.7,195.5c-1.1,0.6-2.4,1.5-1.7,2.5
			c1,1.5,1.1,4,3.5,4.1c1,0.1,1.3-1.6,0.9-1.7C99.9,199.5,102.7,196,99.7,195.5z M100.3,207c0.3,1.9-0.2,4.3,3,5.3
			C102.9,209.9,103,207.8,100.3,207z M91.9,194.9c-0.8,0.4-2.1,0.6-1.8,1.8c0.2,0.6,1.2,1.1,1.9,1.2c1.4,0.3,1.5-0.9,1.4-1.9
			C93.5,195.2,93,194.6,91.9,194.9z"/>
		<path class="st4" d="M149.7,192.3c1.2-4.3,2.4-8.7,3.5-13c3.1,2.2,5.7,0,8.4-0.9c0.6,0,1.3,0,1.9,0c3.4-2.8,4.7,1.4,7,2.1
			c-0.5,2.8,2.1,5.8,0,8.3c-1.6,2-2.4,4.2-3,6.6l0,0c-1.6,0.1-3,0.7-4,2C158.4,197.4,154.1,194.6,149.7,192.3z M161.5,189.4
			c2.9,1.4,4-0.8,5.4-2.6C164.1,185.7,163.2,188.4,161.5,189.4z M159.2,185.1c2,0.4,3.2,0.3,3.9-1.1c0.1-0.3-0.1-1.1-0.4-1.2
			C160.8,182.1,160.4,183.9,159.2,185.1z"/>
		<path class="st5" d="M191.6,197.4c-5.3,1.9-11,0.5-16.3,1.9c-1.2-0.3-2.4-0.6-3.7-0.8c0.7-1.3,1.3-2.7,2-4c0,0,0,0,0,0
			c4.3,0.4,8.7,0.6,13,0C188,195.9,191.2,194.3,191.6,197.4z"/>
		<path class="st6" d="M54.7,137.7c1.3,0.9,2.5-0.4,3.8-0.3c2.4,0.2,3.7,1.7,3.8,3.8c0.1,2.4-1.5,4.1-4,4.1c-2.2,0-3.7-1.4-3.8-3.8
			C54.4,140.2,54.6,138.9,54.7,137.7C54.7,137.6,54.7,137.7,54.7,137.7z"/>
		<path class="st6" d="M257.7,130.3c-0.2,0.6-0.6,1.2-0.7,1.8c-0.5,2.3-1.9,3.5-4.2,3.4c-2.1-0.1-3.3-1.5-3.5-3.5
			c-0.2-2.3,1.1-3.7,3.3-4.3c0.6-0.2,1.3-0.1,2-0.2c0.4,0.4,0.7,0.8,1.1,1.2c0.6,0.7,0.7,2,2,1.8L257.7,130.3z"/>
		<path class="st7" d="M193.9,87.4c-0.3,2.7-2.3,3.1-4.3,2.8c-1.8-0.3-2.7-1.7-2.7-3.6c0-3.3,2.2-4,4.9-4.2c0.6,0.3,1.3,0.7,1.9,1
			C193.7,84.8,192.6,86.2,193.9,87.4z"/>
		<path class="st8" d="M143.6,74.4c0,0.2,0,0.3,0,0.5c0,2.3,1.3,5.6-2,6.2c-3.2,0.6-2.9-3.1-4.1-5C139.6,75.4,141,72.9,143.6,74.4z"
			/>
		<path class="st6" d="M185.6,78.5c-1.5,1.8-3.5,2.5-5.5,1.6c-2.1-0.9-1.6-3-1.2-4.7C182.1,74.3,184.9,74,185.6,78.5z"/>
		<path class="st6" d="M106,116.3c0.1,0.4,0.3,0.7,0.4,1.1c0.2,1.8,0.3,3.6-1.7,4.6c-1.2,0.6-2.2,0.1-3.1-0.6
			c-1.9-1.6-0.6-3.2-0.2-4.9C103,116.4,104.5,116.4,106,116.3z"/>
		<path class="st6" d="M247.6,122.5c-0.6,2.1-1.8,3.7-4.2,2.9c-3.3-1.1-1-4-1.8-5.9C244.3,119.2,246.4,119.9,247.6,122.5z"/>
		<path class="st6" d="M65.6,127.4c1.2,1.6,2.8,3.2,0.7,5.1c-1.9,1.7-3.6,1.2-4.7-1.2C61.4,128.5,62.8,127.3,65.6,127.4z"/>
		<path class="st4" d="M173.6,194.4c-0.7,1.3-1.3,2.7-2,4c-1.7-0.1-3.4-0.2-5-0.3c0.3-0.9,0.7-1.8,1-2.7c0,0,0,0,0,0
			C169.7,195.8,171.6,194.7,173.6,194.4z"/>
		<path class="st7" d="M167.6,72.3c-1-0.2-2.4,0.6-3-0.9c0-1.4,0.9-2.3,2-2.1C168.4,69.5,167.2,71.3,167.6,72.3z"/>
		<path class="st9" d="M193.9,87.4c-1.3-1.2-0.3-2.6-0.2-3.9c0.8-0.1,1.6-0.4,2.1,0.6C195.5,85.4,196,87.1,193.9,87.4z"/>
		<path class="st5" d="M167.6,195.4c-0.3,0.9-0.7,1.8-1,2.7c-1.1,0.2-2.1,0-3-0.7C164.6,196.1,166,195.6,167.6,195.4z"/>
		<path class="st9" d="M212.6,117.2c0.4-1.5,0.8-2.9,1.2-4.4c1.1,1.1,0.8,2.4,0.8,3.7C214.1,117.2,213.4,117.4,212.6,117.2z"/>
		<path class="st6" d="M176.6,74c-1.2,0.4-2.2,0.6-3-0.7C175.1,71.7,176,72.2,176.6,74z"/>
		<path class="st0" d="M257.7,130.4c-1.4,0.2-1.4-1.1-2-1.8C257.1,128.3,258.2,128.5,257.7,130.4z"/>
		<path class="st6" d="M115.6,129.4c-0.3,2.3-1.6,3.8-3.8,3.8c-2.5,0-4.1-1.5-4-4c0.1-2.5,1.7-4,4.3-3.8
			C114.3,125.6,115.5,127.1,115.6,129.4z"/>
		<path class="st6" d="M70.5,156.3c-2.4-0.5-4-1.7-3.8-4.3c0.2-2.3,1.5-3.6,3.9-3.5c2.4,0.1,3.8,1.4,3.9,3.6
			C74.6,154.6,72.9,155.9,70.5,156.3z"/>
		<path class="st6" d="M88.8,130.8c-0.1,2.1-1.2,3.6-3.6,3.7c-2.6,0.1-4.1-1.4-4.2-3.8c0-2.5,1.8-4,4.1-4
			C87.3,126.8,88.8,128.3,88.8,130.8z"/>
		<path class="st7" d="M86.4,147.6c-2.1,0.1-3.3-0.9-3.5-2.5c-0.2-1.9,1.1-3.2,2.9-3.3c1.6,0,2.8,1,2.8,2.8
			C88.8,146.5,87.8,147.4,86.4,147.6z"/>
		<path class="st2" d="M138.6,134.5c0.3,0.3,0.7,0.6,1,0.9C139.3,135.1,139,134.8,138.6,134.5z"/>
		<path class="st10" d="M153.6,165.5c-1.8-4.1-1.1-8.6-2-12.9c-0.2-1.7,0.7-3.2,1.3-4.7c4.1-9.8,9.3-19.1,11.8-29.5
			c1.6-6.6,4.5-12.9,3.5-20c0.1-0.3,0.3-0.6,0.4-1c0.3-0.4,0.6-0.7,0.9-1.1c2.6,0.6,2.3,3.1,2.7,4.8c3.1,11.6,5.6,23.3,6.6,35.3
			c-0.2,4.3,1.3,8.6,0.3,12.9c-1.7,0-2.9-3.7-5.4-0.3c2.4,0,2.9,2.7,5.2,2.5c0.1,5.4-1.2,10.5-2.1,15.7c-0.8-0.3-1.5-0.5-2.3-0.8
			c-1.3-0.3-2.6-0.7-3.9-1c-2.1-4.6-3.3-4.8-7-1.1c-2,0.4-4.3-0.7-6,1C156.3,165.4,154.9,165.4,153.6,165.5z M177.4,153
			c-3.1-1.1-4.3,0.7-5.3,2.3c-0.3,0.4,0.4,1.4,0.7,2.2c1.2-1,2.4-2,3.5-3C176.7,154.2,176.9,153.8,177.4,153z M166.5,157.1
			c-2.3-0.9-0.4-3.9-3.2-3.6c-1,0.1-1.6,0.6-1.5,1.6C162.1,157.2,163.6,157.6,166.5,157.1z M164.9,146.8c-0.9,0.6-2.5,0.7-1.8,2.4
			c0.2,0.4,0.9,2.2,1.2,1c0.6-2.4,3.3,1.6,2.9-1.3C167,147.9,166.6,146.5,164.9,146.8z"/>
		<path class="st11" d="M174.6,166.5c0.8,0.3,1.5,0.5,2.3,0.8c6.8,1.9,12.7,5.8,18.8,9.1c-1,1.2-0.7,3.7-3.7,3.2
			c-1.5-0.2-3.2,0.7-3.4,2.8c-0.7-0.4-1.3-0.7-2-1.1c2.8-7.5-6.1-2.5-7.3-6.6c-0.2-0.8-1.8,2.9-2.8,4.5c-1.6-0.3-3.3-0.6-4.9-0.9
			c-0.4-0.2-1.1-0.2-1.3-0.5c-0.6-0.8-0.1-1.3,0.7-1.1c1.6,0.3,3.6,1.2,3.4-1.6c-0.2-2.9-2.3-1.2-3.8-1.1c-4.4,0.3-7.3-0.9-6.1-6.2
			c0.1-0.5,0-1,0-1.5c1.4,1,3.4,1.1,4.3,2.6c0,1.8-3,0.7-2.5,3.6C169.6,170.8,172.5,169.2,174.6,166.5z"/>
		<path class="st6" d="M198.3,130.5c2.3,0.3,4,1.5,4.1,3.7c0.1,2.3-1.2,4.2-3.8,4.2c-2.2,0-3.9-1.1-4-3.5
			C194.4,132.3,196.1,131.1,198.3,130.5z"/>
		<path class="st6" d="M248.5,145.3c-0.6,2.3-1.6,4-4,3.9c-2.5-0.1-4.1-1.4-3.9-4.1c0.1-2.3,1.5-3.7,3.8-3.7
			C247,141.5,248,143.3,248.5,145.3z"/>
		<path class="st6" d="M228.6,128.6c-0.4,2.2-1.4,3.8-3.8,3.8c-2.6,0.1-4.1-1.3-4.1-3.9c0-2.4,1.5-3.8,3.7-3.9
			C226.8,124.5,228.2,126.2,228.6,128.6z"/>
		<path class="st12" d="M201.7,195.6c-0.6,0.6-1.3,0.8-2.1,0.7c0-3.3,1.7-6.6,0-9.8c0.6-2.8,3.9-2.3,5.2-4.1
			c0.3,0.1,0.4,0.3,0.4,0.5c-0.1,2-3.1,4.8,1.4,5.7c-0.5,0.8-1.1,2.2-1.6,2.2C201.1,190.5,201.7,193.2,201.7,195.6z"/>
		<path class="st11" d="M204.8,182.3c-1.3,1.9-4.6,1.3-5.2,4.1c-2.6-2.1-5.8-2.5-9-3c0.6-2.3,1.5-3.1,4.2-2c2,0.8,4.7,1.2,5.8-2
			C202,180.4,203.4,181.3,204.8,182.3z"/>
		<path class="st12" d="M200.6,179.4c-1.1,3.2-3.8,2.8-5.8,2c-2.6-1.1-3.6-0.2-4.2,2c-0.7,0-1.3,0-2,0c0-0.3,0-0.7,0-1
			c0.2-2.1,1.9-3.1,3.4-2.8c3,0.5,2.6-2,3.7-3.2C197.6,176.9,199.1,178.2,200.6,179.4z"/>
		<path class="st11" d="M206.6,188.4c-4.5-0.9-1.5-3.6-1.4-5.7c2.5,0.9,4.7,2.2,6.5,4.2c0,0.8-0.1,1.7-0.1,2.5c-1,0-2,0-3,0
			C207.9,189.1,207.3,188.8,206.6,188.4z"/>
		<path class="st7" d="M227.7,139.4c1.8,0.4,3,1.5,2.7,3.4c-0.2,1.6-1.3,2.7-3.1,2.5c-2-0.2-2.9-1.4-2.7-3.3
			C224.8,140.4,226,139.5,227.7,139.4z"/>
		<path class="st7" d="M200.6,121.4c0.4-0.4,0.7-0.8,1.1-1.2c1-0.2,1.9-0.3,2.9-0.5c0,0,0,0,0,0c1.1,1.3,3,2.3,1.5,4.6
			c-0.7,1.1-1.8,1.5-3,1.3C200.6,125.1,200.4,123.4,200.6,121.4z"/>
		<path class="st12" d="M211.6,189.4c0-0.8,0.1-1.7,0.1-2.5c0.6,0.2,1.1,0.4,1.7,0.6c1,1,2.1,1.9,3.1,2.9c1.5,1.5,0.3,1.7-1,1.9
			C214.5,191,212.1,191.5,211.6,189.4z"/>
		<path class="st13" d="M179,151.5c-2.3,0.1-2.8-2.6-5.2-2.5c2.5-3.4,3.7,0.3,5.4,0.3C179.1,150.1,179,150.8,179,151.5z"/>
		<path class="st14" d="M168.2,98.4c1,7-1.9,13.4-3.5,20c-2.6,10.4-7.7,19.7-11.8,29.5c-0.6,1.5-1.5,3-1.3,4.7
			c-4-3.9-5.7-9.2-8.1-14.1c5.9-14,14.9-26.2,23.2-38.7C167.2,99.3,167.7,98.8,168.2,98.4z"/>
		<path class="st9" d="M184.6,103.4c2.1,0.8,5.8-3.3,6.2,1.4c0.3,3.9-4,2.5-6.1,3.2c-2.7,0.9-3.1-1.5-3.1-3.6
			C182.6,104.1,183.6,103.8,184.6,103.4z"/>
		<path class="st6" d="M157.8,83.4c0.6-3.5,3-4.7,6-3.5c3,1.2,3.3,3.7,1.1,6.3C163.2,83.4,160.4,83.6,157.8,83.4z"/>
		<path class="st8" d="M184.6,103.4c-1,0.3-2,0.7-3,1c-2.8-1.7-5-3.5-2-6.9c0.9,2.5,5.4,1.5,5.1,5.2
			C184.7,103,184.7,103.2,184.6,103.4z"/>
		<path class="st8" d="M168.2,98.4c-0.5,0.5-1,0.9-1.5,1.4c-1.8,0.8-3.1-0.1-4.3-1.4c0-1,0-2,0-3c1.9-2.5,3.7-0.4,5.6,0.2
			c0.2,0.6,0.4,1.2,0.6,1.8C168.5,97.7,168.4,98.1,168.2,98.4z"/>
		<path class="st8" d="M135.6,85.6c2.7-0.6,4.1,0.9,4.5,3.2c0.5,2.5-1.1,3.9-3.5,4.2C135.6,90.6,135.5,88.1,135.6,85.6z"/>
		<path class="st7" d="M135.6,85.6c-0.1,2.5,0,5,1,7.4c-2.2,0.4-3.6-0.4-4.2-2.6c0.1-1,0.1-2,0.2-3
			C133.5,86.6,134.1,85.4,135.6,85.6z"/>
		<path class="st9" d="M150.1,101.5c1.5,0.2,2.4,1,2.3,2.6c-0.1,1.3-1,2.1-2.3,2.1c-1.5-0.1-2.5-1-2.3-2.6
			C147.9,102.3,148.8,101.7,150.1,101.5z"/>
		<path class="st9" d="M142.4,104.4c-0.4,1.2-1.2,2-2.6,1.8c-1.5-0.2-2.4-1.2-2-2.8c0.3-1.5,1.5-2.2,3-1.8
			C142,102.1,142.7,103.1,142.4,104.4z"/>
		<path class="st7" d="M184.7,102.7c0.3-3.7-4.2-2.7-5.1-5.2c0.3-0.4,0.6-0.8,1-1.2c1,0,2,0,3-0.1C184.9,98.3,187.5,100,184.7,102.7
			z"/>
		<path class="st8" d="M157.8,83.4c2.6,0.2,5.4,0,7.1,2.7C161,89,159.4,86.3,157.8,83.4z"/>
		<path class="st9" d="M152.3,91.2c-0.2,1.5-1,2-2,2.1c-1.1,0.1-2-0.5-2.1-1.6c-0.1-1.1,0.9-1.2,1.7-1.2
			C150.8,90.4,151.7,90.4,152.3,91.2z"/>
		<path class="st9" d="M193.6,94.7c1.4,0.3,1.9,1.2,1.9,2.5c0,0.8,0,1.7-1.2,1.5c-1.2-0.3-1.9-1.2-2.1-2.4
			C192.1,95.2,192.8,94.9,193.6,94.7z"/>
		<path class="st9" d="M189.3,116.6c0-2.4,1-3.4,2.9-3.5c0.3,0,1,0.6,0.9,0.9C193.1,116,191.4,115.9,189.3,116.6z"/>
		<path class="st9" d="M183.3,119.4c-0.2,1-0.7,1.6-1.6,1.6c-1.1-0.1-1-1.1-1-1.9c0-0.7,0.4-1.4,1.1-1.3
			C182.7,117.9,183.2,118.6,183.3,119.4z"/>
		<path class="st9" d="M182.2,110.6c-2.5,0.5-3.8,0.6-5.5-0.1C178.3,109,179.7,109.2,182.2,110.6z"/>
		<path class="st9" d="M176.3,91.7c-0.2,0.7-0.6,1.2-1.3,1.1c-0.7-0.1-1.1-0.7-1-1.4c0.1-0.3,0.6-0.7,1-0.8
			C175.7,90.5,176.2,90.9,176.3,91.7z"/>
		<path class="st9" d="M187.5,117.2c0.2,0.4,0.6,0.8,0.6,1.2c0,0.9-0.7,1-1.3,0.8c-0.3-0.1-0.5-0.6-0.8-0.9
			C186.4,118,186.7,117.7,187.5,117.2z"/>
		<path class="st9" d="M204.5,119.7c-1,0.2-1.9,0.3-2.9,0.5C202.2,118.2,203.1,117.7,204.5,119.7z"/>
		<path class="st9" d="M132.6,87.4c-0.1,1-0.1,2-0.2,3C131.4,89.3,131.4,88.3,132.6,87.4z"/>
		<path class="st9" d="M162.5,95.4c0,1,0,2,0,3C161.3,97.4,161.4,96.4,162.5,95.4z"/>
		<path class="st9" d="M183.6,96.3c-1,0-2,0-3,0.1C181.6,95.2,182.6,95.2,183.6,96.3z"/>
		<path class="st9" d="M168.6,97.4c-0.2-0.6-0.4-1.2-0.6-1.8c0.5,0.2,1,0.5,1.5,0.7C169.3,96.7,168.9,97,168.6,97.4z"/>
		<path class="st12" d="M164.6,166.4c0,0.5,0.1,1,0,1.5c-1.2,5.3,1.7,6.5,6.1,6.2c1.4-0.1,3.5-1.7,3.8,1.1c0.2,2.8-1.8,1.9-3.4,1.6
			c-0.8-0.2-1.3,0.3-0.7,1.1c0.2,0.3,0.9,0.4,1.3,0.5c-0.1,0.8-0.3,1.5-1,2c-2.4-0.6-3.7-4.9-7-2.1c-1.7-2.2,0.2-5.9-3.8-7.8
			c0.7,3,1.3,5.4,1.9,7.8c-2.7,0.9-5.3,3.1-8.4,0.9c0.1-4.6,0.2-9.2,0.3-13.8c1.3,0,2.7,0,4-0.1
			C159.9,166.2,161.8,169.4,164.6,166.4L164.6,166.4z"/>
		<path class="st12" d="M191.6,197.4c-0.4-3.1-3.6-1.5-5-3c-0.4-0.8-1.2-1-2-1c0.3-0.3,0.7-0.7,1-1c2.7-1.6,2.6-4.4,3-7l0,0
			c1.3,1.7,2.7,3.3,5.1,3.3c0.6,0,1.6,2.1,1.7-0.3c0.1-0.9-0.6-2.2,1.2-1.7c1,0.2,0.9,1.2,1,2c0.3,2.1-1.3,3.2-2.4,4.6
			c-1.7,2.2-0.9,3.2,1.6,3.2C195.3,197.7,193.4,197.4,191.6,197.4z"/>
		<path class="st4" d="M196.9,196.6c-2.6,0-3.3-1-1.6-3.2c1.1-1.4,2.6-2.6,2.4-4.6c-0.1-0.8,0-1.8-1-2c-1.8-0.4-1.1,0.8-1.2,1.7
			c-0.2,2.4-1.1,0.3-1.7,0.3c-2.4,0-3.8-1.6-5.1-3.3c0-0.7,0-1.3,0-2c0.7,0,1.3,0,2,0c3.2,0.5,6.3,0.9,9,3c1.7,3.3,0,6.6,0,9.8
			C198.7,196.3,197.8,196.5,196.9,196.6z"/>
		<path class="st4" d="M206.6,188.4c0.7,0.3,1.3,0.7,2,1c0,1.5,0,3.1,0,4.6c-2.3,0.5-4.6,1-6.9,1.4c0-2.4-0.6-5.1,3.3-4.9
			C205.5,190.7,206.1,189.2,206.6,188.4z"/>
		<path class="st5" d="M208.6,194.1c0-1.5,0-3.1,0-4.6c1,0,2,0,3,0c0.5,2.1,2.9,1.6,4,2.9C213.4,193.5,211.1,194.2,208.6,194.1z"/>
		<path class="st2" d="M99.7,195.5c3,0.5,0.3,4,2.6,4.9c0.4,0.2,0.1,1.8-0.9,1.7c-2.4-0.1-2.5-2.6-3.5-4.1
			C97.2,197,98.6,196.1,99.7,195.5z"/>
		<path class="st2" d="M100.3,207c2.6,0.8,2.6,2.9,3,5.3C100.1,211.3,100.6,208.9,100.3,207z"/>
		<path class="st2" d="M91.9,194.9c1.1-0.3,1.5,0.3,1.6,1.2c0.1,1,0,2.1-1.4,1.9c-0.7-0.1-1.8-0.7-1.9-1.2
			C89.8,195.5,91.1,195.3,91.9,194.9z"/>
		<path class="st5" d="M188.6,183.5c0,0.7,0,1.3,0,2c0,0,0,0,0,0c-3.7,1.2-2.9,4.3-3,7c-0.3,0.3-0.7,0.7-1,1
			c-3.1-2.3-7,0.7-10.2-1.5c-0.5-0.3-0.7,1.5-0.8,2.5c0,0,0,0,0,0c-2,0.3-3.9,1.4-6,1c0.5-2.4,1.3-4.6,3-6.6c2.1-2.5-0.5-5.5,0-8.3
			c0.8-0.4,1-1.2,1-2c1.6,0.3,3.3,0.6,4.9,0.9c0.8,0.2,2.1,0.1,2.3,0.5c1.6,4.5,4,5.4,7.5,1.9c0.1-0.1,0.2-0.3,0.3-0.4
			c0.7,0.4,1.3,0.7,2,1.1C188.6,182.8,188.6,183.1,188.6,183.5z"/>
		<path class="st11" d="M161.7,178.4c-0.6-2.4-1.2-4.9-1.9-7.8c3.9,1.9,2,5.7,3.8,7.8C162.9,178.4,162.3,178.4,161.7,178.4z"/>
		<path class="st5" d="M161.5,189.4c1.7-0.9,2.6-3.6,5.4-2.6C165.4,188.6,164.4,190.7,161.5,189.4z"/>
		<path class="st5" d="M159.2,185.1c1.2-1.2,1.6-3,3.5-2.3c0.2,0.1,0.5,0.9,0.4,1.2C162.5,185.4,161.2,185.6,159.2,185.1z"/>
		<path class="st4" d="M173.6,194.4c0.1-0.9,0.3-2.8,0.8-2.5c3.2,2.2,7.1-0.9,10.2,1.5c0.8,0,1.6,0.2,2,1
			C182.3,195,177.9,194.8,173.6,194.4z"/>
		<path class="st12" d="M174.6,166.5c-2.1,2.7-5,4.3-8.3,6.2c-0.4-2.9,2.5-1.8,2.5-3.6c-0.9-1.5-2.9-1.6-4.3-2.6c0,0,0,0,0,0
			c0-0.3,0-0.7,0-1c2,0,4,0.1,6.1,0.1C172,165.8,173.3,166.1,174.6,166.5z"/>
		<path class="st13" d="M170.7,165.5c-2,0-4-0.1-6.1-0.1c-0.3-0.3-0.6-0.7-1-1C167.4,160.7,168.6,160.8,170.7,165.5z"/>
		<path class="st13" d="M177.4,153c-0.6,0.8-0.8,1.2-1.1,1.5c-1.2,1-2.3,2-3.5,3c-0.3-0.7-1-1.8-0.7-2.2
			C173.2,153.7,174.4,151.9,177.4,153z"/>
		<path class="st11" d="M163.6,164.4c0.3,0.3,0.6,0.7,1,1c0,0.3,0,0.7,0,1c-2.8,3-4.8-0.2-7-1C159.4,163.7,161.6,164.7,163.6,164.4z
			"/>
		<path class="st13" d="M166.5,157.1c-2.9,0.4-4.4,0.1-4.7-2.1c-0.1-0.9,0.5-1.5,1.5-1.6C166.1,153.2,164.2,156.3,166.5,157.1z"/>
		<path class="st13" d="M164.9,146.8c1.7-0.3,2.1,1.1,2.2,2.1c0.4,2.9-2.3-1.1-2.9,1.3c-0.3,1.2-1-0.6-1.2-1
			C162.5,147.5,164,147.4,164.9,146.8z"/>
		<path class="st12" d="M186.6,181.4c-0.1,0.1-0.2,0.3-0.3,0.4c-3.6,3.4-5.9,2.6-7.5-1.9c-0.1-0.4-1.5-0.3-2.3-0.5
			c0.9-1.6,2.6-5.3,2.8-4.5C180.5,178.9,189.5,173.8,186.6,181.4z"/>
		<path class="st4" d="M185.6,192.4c0.2-2.7-0.7-5.8,3-7C188.2,188,188.3,190.8,185.6,192.4z"/>
	</g>
</g>
</svg>
