<?xml version="1.0" encoding="utf-8"?>
<!-- Generator: Adobe Illustrator 23.0.1, SVG Export Plug-In . SVG Version: 6.00 Build 0)  -->
<svg version="1.1" id="Layer_1" xmlns="http://www.w3.org/2000/svg" xmlns:xlink="http://www.w3.org/1999/xlink" x="0px" y="0px"
	 viewBox="0 0 264.9 243.5" style="enable-background:new 0 0 264.9 243.5;" xml:space="preserve">
<style type="text/css">
	.st0{fill:#A86301;}
	.st1{fill:#663504;}
	.st2{fill:#E5E2E0;}
	.st3{fill:#CF7657;}
	.st4{fill:#B1A9A4;}
	.st5{fill:#B97101;}
	.st6{fill:#955704;}
	.st7{fill:#7C4A01;}
	.st8{fill:#CF9934;}
	.st9{fill:#CACAC9;}
	.st10{fill:#C37301;}
	.st11{fill:#53556B;}
	.st12{fill:#FADFAC;}
	.st13{fill:#B92A2B;}
	.st14{fill:#F8BF4D;}
</style>
<g>
	<path class="st0" d="M213.7,84.2c1.7-2,1.7-4.2,0.8-6.5c-0.5-1.3-1.2-2.6-0.9-4.1c0.2,0.1,0.5,0.1,0.7,0.2c0.2,0.3,0.4,0.6,0.7,0.9
		l0,0c1.4,5.6,1.5,5.8,4.7,4c0.1,0,0.2-0.1,0.2-0.1c0-0.2-0.1-0.3-0.1-0.5c0-0.5,0-1,0.1-1.4c0.7,0.1,1.4,0.2,2,0.3
		c0.6,0.5,0.9,0.3,1.2-0.3c0.6-0.5,1.3-0.6,2.1-0.4c1.1,2.2,2.9,2.8,5.4,2.6c4.2-0.2,8.5-0.1,12.7-0.1c-0.1,2.3-0.4,4.7-0.2,7
		c0.5,6.6,0.5,6.6-5.4,9.2c-0.6,0.3-1.2,0.7-1.8,0.9c-4.4,1.7-8.4,4.8-13.5,4.5c-3.8-2.5-7.4-5.2-8-10.4c-1.2,2.4-1,4.8,0.4,6.7
		c1.3,1.8,1.7,3.8,2.4,5.8c-6.2,1.9-12.4,4-19.1,3.1c0.3-1.3,1.4-2,2.3-2.8C206.1,97.5,210.9,91.6,213.7,84.2z M241.7,90.8
		c-2.1-1.3-3.7-1.2-5.5-0.9c-2.8,0.5-4.5,2.8-6.9,3.9c-2,0.9-3.9,1.9-4.2-1.6c-0.1-0.9-0.7-1.4-1.6-1.4c-1.9,0-3.8,0-5.7,0
		c-0.8,0-1.2,0.4-0.9,1.3c0.7,2.1,4.9,5.3,7.1,5.4C230.8,98,235.6,93.2,241.7,90.8z M224,83.7c2.5,1.7,4.8,2.4,7.3,0.7
		c1-0.7,1.2-1.5,1-2.6c-0.2-0.8-0.9-1-1.6-0.8C228.5,81.6,226,81.4,224,83.7z"/>
	<path class="st1" d="M222.4,100.3c5.1,0.3,9-2.8,13.5-4.5c0.6-0.2,1.2-0.6,1.8-0.9c5.9-2.6,5.8-2.6,5.4-9.2c-0.2-2.3,0.1-4.6,0.2-7
		c0,0,0-0.2,0-0.2c0.7-0.6,0.6-1.5,0.7-2.3c1-0.8,2.1-1.5,3.5-0.9c-0.2,1.1-0.3,2.1-0.5,3.2c-0.9,2-1,4.1-0.9,6.3
		c0,1.6-0.5,3.2,0.6,4.7l0,0.1c-0.1,2.2,0,4.4,0.7,6.6c-0.3,0.7-0.7,0.9-1.3,0.4c-1-1.1-1-3.7-3.5-2.5c-4.7,2.2-9.4,4.6-14.1,6.9
		c-0.4,0-0.9,0-1.3,0.2c-3.4,1.8-6.4,4.7-10.7,3.4c-0.1,0.3-0.1,0.6-0.2,0.9c-7.9,1.2-15.7,3.9-23.9,2.9c-1.1-0.6-2.4-0.3-3.6-0.5
		c-6.3-0.8-12.8-1.8-18.2-5.1c-5.2-3.1-10-7.2-13.5-12.4c0.3-0.3,0.6-0.6,0.8-0.9c7.3,8.5,16.1,14.4,27.4,15.8
		c3.6,0.5,7.2,1.2,10.9,0.4c0.6-0.1,1.3-0.1,1.9-0.2c6.7,0.9,12.9-1.2,19.1-3.1C218.9,101.7,220.6,101,222.4,100.3z"/>
	<path class="st0" d="M246,84.8c-0.1-2.2-0.1-4.3,0.9-6.3c1.1-0.8,1.7-1.9,1.7-3.3c0.4,0,0.8,0,1.3,0c0.7,0.4,1.4,0.8,2.2,1.2
		c-0.3,2.3,0.6,3.3,3,3c0.9-0.1,1.8,0,2.6-0.1c3.4,4.1,3.2,6.1-0.9,9.4c-0.2-0.8-0.6-1.1-1.4-0.9c-2.9,0.6-5.8,0.2-8.7,0.3
		C246.5,87,246.9,85.8,246,84.8z"/>
	<path class="st2" d="M124.8,10.1c0.9,2.1,1.2,4-1.6,4.8c-3.1,0.4-6-2.1-9.2-0.8c-2.8-0.3-4.5,1.5-6.1,3.3c-0.9,0-1.3-0.8-1.9-1.4
		c-0.1-2.6-0.6-5.2,2.4-6.6c4.7-1.9,9.4-3,14.5-1.6c0.7,0.2,0.9-0.4,0.9-1c0.9,0.4,0.9,1.1,0.8,1.9c-3,0-6-0.5-8.5,1.8
		C119,9.9,121.9,10.1,124.8,10.1z"/>
	<path class="st3" d="M114,14.1c3.2-1.4,6.1,1.2,9.2,0.8c0,3.4-2.2,6.2-2.7,9.4c-3.2,3-4.4,2.3-8.2-4.4c-0.7,0.6-1,1.8-2.3,1.6
		c-0.7-0.2-1.3-0.6-1.4-1.4c1.3-0.5,0.2-2.9,1.4-2.6C113.6,18.7,112.5,15,114,14.1z"/>
	<path class="st1" d="M234.4,109.1c-3.2,4.3-6.2,8.6-10.5,11.9c-3.9,3-8.1,4.5-12.9,4.7c-0.3-0.3-0.6-0.6-0.8-0.9
		c0.3-0.1,0.6-0.3,0.8-0.4c10.5-1.1,16.6-8.1,21.6-16.4c2-2.9,4.6-5.5,5.4-9.1l-0.1,0.1c0.6,0.6,0.9-0.1,1.3-0.3
		c0.2,0.4,0.4,0.8,0.5,1.2C237.9,103,236.1,106,234.4,109.1z"/>
	<path class="st4" d="M123.8,6.8c0,0.6-0.2,1.2-0.9,1c-5-1.4-9.8-0.3-14.5,1.6C110.3,3.1,118.1,1.7,123.8,6.8z"/>
	<path class="st5" d="M243.2,78.8c-4.2,0-8.5-0.2-12.7,0.1c-2.5,0.1-4.2-0.4-5.4-2.6c3.2-1.2,6.4-0.3,9.5,0.1
		c2.2,0.3,4.4,0.5,6.6,0.5c1,0.2,2,0.5,1.9,1.8L243.2,78.8z"/>
	<path class="st6" d="M239.6,99.9c-0.2-0.4-0.4-0.8-0.5-1.2c-0.5-0.5-1-0.5-1.3,0.3c0,0,0.1-0.1,0.1-0.1c-1.6,0.9-3.2,1.8-4.8,2.7
		c-0.9,0-1.8,0-2.6,0.1c-0.5-0.7-1.3-0.7-2.1-0.8c4.7-2.3,9.4-4.7,14.1-6.9c2.5-1.2,2.5,1.4,3.5,2.5C243,96.1,241.1,97.6,239.6,99.9
		z"/>
	<path class="st0" d="M256.2,89.5c0.5,4.5-2.8,4.8-5.9,5.5c-3.1-1-1.2-3.6-1.7-5.5C251.2,89.5,253.7,89.5,256.2,89.5z"/>
	<path class="st1" d="M110,22.8c0-0.4,0-0.9,0-1.3c1.3,0.2,1.6-1,2.3-1.6c3.8,6.7,5,7.4,8.2,4.4c-0.2,1-0.3,2-0.5,3
		c-0.7,0.5-1.5,1-2.2,1.5C114,28.4,112.2,25.4,110,22.8z"/>
	<path class="st1" d="M219.6,78.7c-3.1,1.7-3.2,1.6-4.7-4c0.6-0.1,1.1-0.2,1.7-0.3c1.1,0.7,2.1,1.5,3.2,2.2c0,0.5,0,1-0.1,1.4
		C219.7,78.3,219.6,78.5,219.6,78.7z"/>
	<path class="st7" d="M256.2,89.5c-2.5,0-5.1,0-7.6,0c-0.7,0-1.3,0-2,0c0,0,0-0.1,0-0.1c0-0.5,0-0.9,0.1-1.4c2.9,0,5.8,0.3,8.7-0.3
		c0.9-0.2,1.2,0.2,1.4,0.9C256.6,89,256.4,89.3,256.2,89.5z"/>
	<path class="st6" d="M246.6,89.6c0.7,0,1.3,0,2,0c0.5,1.8-1.4,4.4,1.7,5.5c-1,0.4-2,0.8-3.1,1.2C246.6,94,246.5,91.8,246.6,89.6z"
		/>
	<path class="st8" d="M252,76.4c-0.7-0.4-1.4-0.8-2.2-1.2c3-0.2,5.3,1,6.9,3.5C254.7,78.9,253.2,78,252,76.4z"/>
	<path class="st9" d="M124.8,10.1c-2.9,0-5.8-0.2-8.6,0.4c2.5-2.3,5.5-1.8,8.5-1.8C124.7,9.2,124.8,9.6,124.8,10.1z"/>
	<path class="st7" d="M252,76.4c1.2,1.6,2.7,2.5,4.7,2.3c0.3,0.2,0.6,0.5,0.9,0.7c-0.9,0-1.8,0-2.6,0.1
		C252.6,79.7,251.7,78.7,252,76.4z"/>
	<path class="st8" d="M248.6,75.2c0,1.4-0.6,2.5-1.7,3.3c0.2-1.1,0.3-2.1,0.5-3.2C247.8,74.9,248.1,74.8,248.6,75.2z"/>
	<path class="st8" d="M243.2,78.6c0-1.3-0.9-1.6-1.9-1.8c0.8-0.7,1.7-0.7,2.7-0.5C243.8,77.1,243.8,77.9,243.2,78.6z"/>
	<path class="st5" d="M223,76.6c-0.3,0.6-0.7,0.8-1.2,0.3C222.1,76.5,222.6,76.4,223,76.6z"/>
	<path class="st0" d="M216.6,74.4c-0.6,0.1-1.1,0.2-1.7,0.3c0,0,0,0,0,0c0-0.3-0.1-0.5-0.1-0.8C215.5,73.8,216.1,73.9,216.6,74.4z"
		/>
	<path class="st1" d="M214.9,73.9c0,0.3,0.1,0.5,0.1,0.8c-0.2-0.3-0.4-0.6-0.7-0.9C214.5,73.7,214.7,73.8,214.9,73.9z"/>
	<path class="st0" d="M192.3,108.3c8.2,1,15.9-1.7,23.9-2.9c0.5,2-0.8,3.6-1.5,5.2c-0.8,1.7-0.5,2.7,1.2,3.2c-1.3,3-2.7,6.1-4.8,8.6
		c-3.6,0.8-5.4,4.2-8.3,6c-2.9,1.9-5,5-8.1,6.4c-9.2,4.2-18.4,4.5-27.2-1.4c-2.5-1.7-3.7-3.8-3.7-6.7c0-1.4-0.1-2.7-0.7-3.9
		c-0.2-0.5-0.5-1-1.2-0.8c-0.5,0.2-0.5,0.6-0.4,1.1c1.1,5.8-0.4,11.3-1.7,16.8c0,0.2,0,0.4,0,0.6c-1,0-1.9,0.1-2,1.4
		c-0.5,0.9-1,1.8-1.5,2.7c-0.6-0.7-0.8-1.5-0.3-2.2c1.6-2.6,1.8-5.7,2.7-8.6c0.8-2.7,0.5-5.5,0.1-8.8c-2.2,2.3-1.5,4.6-2.3,6.6
		c-2.3,5.8-5.6,11-9.2,16.1c-5.7,8.1-11.2,16.5-14.9,25.8c-0.3,0.8-1.3,1.4-0.4,2.4c1.1,0.2,1.6-0.7,2.2-1.3
		c2.7-3.1,5.6-6.1,7.3-9.9c0.7-1.6,1.6-2.6,3.5-2.5c-0.1,1.2-1,2.3-0.6,3.6c-2.7,3.3-5.2,6.8-6.2,11.1c-1.3,0.6-1.8,1.9-2.4,3.1
		c-2.5,5.1-4.7,10.3-5.8,15.9c-2.8,1.2-3.1,3.7-3.3,6.3c-0.1,2.1,0.3,4.5-2,5.9c-0.2-4.7,0.7-9.3,1.5-13.9c0.7-4.2,1-4.2-3.5-5
		c-0.2-0.9-0.5-1.8-0.7-2.7c-0.5-4.2,2.6-7.2,3.5-10.9c2.2-1.3,1.5-3.8,1.4-5.4c-0.8-10.5,0.4-20.7,2.5-31c0.3-1.3,1.6-3.3,0.1-4
		c-1.6-0.7-1.6,2-2.8,2.8c-0.7,0-1.5-0.1-1.8,0.6c-2.6,7.2-8.7,7.7-15,8.1c-6,0.4-11.5-1.4-16.8-3.6c-7.1-2.9-13.1-7.1-15.7-14.9
		c-0.3-1-1.1-1.3-1.8-1.8c0-2.5,1-4.9-0.2-7.4c-0.1-0.9,0.1-2.1-1-2.2c-1.4-0.2-0.9,1.2-1.1,1.9c-0.3,1.1-0.3,2.2-0.7,3.2
		c-0.8,2.5-1.3,5.1-4,6.5c-0.2-0.7,0.3-1.6-0.7-2.2c-2.6,4.2-4.9,8.4-8,12.3c-3,3.9-6.2,7.6-9.5,11.3c-3.3,3.6-6.5,7.3-10.4,10.4
		c-3.7,3-7.1,6.3-10.7,9.4c9-3,23.2-14.7,28-21.8c1.5-2.1,2.8-4.5,5.2-5.9c-1.2,4.6-3.6,8.6-7,11.9c-7.8,7.5-16.2,14.4-25.1,20.8
		c-1.4,1-3.4,2.1-2.8,4.5c-1.6,1.3-3.2,2.6-4.9,3.9c-0.2,0.3-0.4,0.6-0.6,0.9c0,0.2,0,0.3,0,0.4c-2.3,0.4-3.8,2.2-3.9,4.1
		c-0.6,8.4,0.4,16.7,1.8,24.9c0,1.8-0.1,3.6,0.1,5.4c0.4,3.7,1.4,7.2,5.4,8.7l0,0c0.1,2.5-2.5,2.7-3.7,4.1c0.5,0.9,1.3,0.6,1.9,0.7
		c1.4,0.2,3.2-0.6,4,1.6c0.6,1.6,3.2,2.4,2.8,3.9c-0.7,2.6-3.5,0.5-5.2,1.5c-0.2,0.1-0.4,0.2-0.5,0.4c-1.4,0-2.8,0.1-4.1-0.6
		c1.8-3.1-2.3-6.7,0.6-9.8c0,0-0.5-0.6-0.9-0.9c-3.8-2.8-4.3-6.9-4.4-11.1c-0.2-8.3-2.1-16.3-2.4-24.6c-0.1-4.3,0.8-9-2-13
		c-0.2-0.3-0.2-1.2,0.1-1.6c1.2-1.7,1.1-3.8,1.6-5.7c2.9-3.6,5.8-7.2,8.7-10.8c1.5,1.2,1.9-0.3,2.6-1.1c5.6-6.2,11.3-12.4,16.9-18.7
		c0.5-0.6,1.8-1.2,0.8-2.1c-0.8-0.7-1.6,0.3-2.2,0.9c-3.2,2.4-6.2,5.2-10.6,4.8c0.3-1.8,0.6-3.5,0.9-5.3c2.2,0.1,3.8-0.9,5.3-2.4
		c9.2-9.5,15.9-20.4,18-33.5c1.1-6.8,2.1-13.7,2.2-20.6c6.4-0.7,11.3-3.7,14.1-9.6c-0.2,4-2.5,7.6-2.7,11.6
		c-0.1,1.2-1.6,2.9,0.1,3.4c1.4,0.4,1.3-1.7,1.7-2.8c1.7-3.6,3.1-7.6,7.5-8.8c2.3-0.6,3.1-1.9,2.8-4.1c1,0.3,2.1,0.6,3.1,0.9
		c-0.1,1.7,1.3,2.3,2.4,3.2c-0.9,0.1-1.5,0.4-1.7,1.4c-1.1,1.6-1.2,3.5-1.3,5.4c-1.4,3.2-0.5,6.5-0.5,9.8c0,0.6,0.7,0.8,1.2,0.9
		c2.6,7.8,7.3,14.1,14.6,17.6c11.3,5.5,23.6,5.4,35.8,4.1c1.4,0.9,1.5,2.4,1.8,3.8c0.4,2.1,0.6,4.2,0.9,6.2c0.2,1.1,0.7,2.2,1.9,1.8
		c2.4-0.7,5.1-0.9,6.3-3.7c0.7-0.1,1.4-0.2,1.9-0.9c2.6-1.3,5.5-2.2,5.4-6c0-0.8-0.5-1.5-1.2-1.2c-2,0.8-3.9-0.2-5.8-0.1
		c-1.9-0.4-2.1-2-2.4-3.5c0.9-1.2,1.4-2.5,1.1-4l0.1-0.1c0.4-0.4,1.1-0.9,1-1.2c-0.6-3.4,1.4-7.1-1.8-10.4c-1.5-1.5-2.2-4.2-2.7-6.6
		c-0.6-2.8-1.8-6.1-5.4-7c-0.2-0.2-0.4-0.4-0.6-0.5c-0.1-1.2-0.9-1.5-2-1.4c-0.2-0.1-0.4-0.2-0.6-0.3c-0.2-2.2-2.1-2-3.4-2.4
		c-1.9-0.6-3.4-1.4-3.9-3.4c3.2-3,6.6-2.5,10.1-0.8c1.7,5.4,3.8,10.4,10.9,10c0.5,0,1,0,1.5,0c4.8,2.1,8.4,5.5,11.1,9.9
		c5.2,8.4,13.4,12.1,22.5,14.5C184.4,110.3,188.2,108.3,192.3,108.3z M144.3,86.8c-0.2-0.1-0.3-0.3-0.5-0.4
		c-0.1,0.1-0.1,0.2-0.2,0.3C143.8,86.8,144.1,86.8,144.3,86.8c3.2,8.6,11.2,16,18.2,16.1c-4.3-2.8-6.2-6.6-8.5-10
		C151.5,89.4,148.7,87,144.3,86.8z M184,126.5c3.5,1,6.8-0.6,9.8-2.2c4.9-2.7,9.2-6.3,11.3-11.8c0.5-1.3,0.2-2.2-1.1-2
		c-5.1,0.6-10.2-1.5-15.3-0.2c-5.1,1.3-10.1,0.9-15-1.3c-5.5-2.5-5.5-2.3-5.1,3.6c0.2,2.2,0.5,4.4,0.7,6.6c0.1,1.3,0.8,2.3,1.9,3
		C175,124.7,178.9,127.3,184,126.5z M113.6,135.3c1.1,0,2.2,0.1,3.4,0c4.6-0.4,9.1-1.2,12.2-5.3c1-1.3,1.9-2.6,1.2-4.3
		c-0.7-1.6-2.2-1.8-3.7-1.8c-2.8,0.1-5.6-0.1-8.3,0.6c-9.9,2.5-19.4,1.7-28.4-3.6c-2.8-1.6-5.3-3.6-8.2-5.1c-0.5-0.3-1-0.7-1.4-0.2
		c-0.2,0.3-0.1,0.8,0,1.2c1.5,6.2,4.7,11.2,10.7,13.8C98.1,133.9,105.8,134.9,113.6,135.3z M130.8,188c0.9-2.2,1.6-3.8,2.2-5.4
		c0.4-0.9,0.1-1.6-0.7-1.9c-1-0.4-2-0.5-2.9,0.1c-0.7,0.5-0.6,1.2-0.1,1.8C130.6,183.9,129.7,185.8,130.8,188z M18.7,175.7
		c-1.8,0-3.4,0.5-4,2.3c-0.2,0.6,0.8,1.2,1.4,0.9c1.6-0.5,3.9-0.1,4.4-2.2C20.9,175.4,19.4,175.9,18.7,175.7z"/>
	<path class="st10" d="M56.1,83.5c-0.1,6.9-1.1,13.8-2.2,20.6c-2.1,13.2-8.8,24.1-18,33.5c-1.5,1.5-3.1,2.6-5.3,2.4
		c1.1-6.6-0.4-13.1-1.3-19.6c2.4-2.8,2.3-7.7-0.1-10.1c0-0.2-0.1-0.4,0-0.6c0-3,0.4-5.9,1.5-8.7c0.7-1.8,2-3.5,1.9-5.6
		c0,0,0,0.1,0,0.1c0.2-0.2,0.5-0.5,0.7-0.7c0,0-0.1,0-0.1,0c0.1-0.1,0.3-0.1,0.2-0.2c0-0.2-0.1-0.3-0.2-0.5
		C39,86.8,46.9,83.9,56.1,83.5z"/>
	<path class="st11" d="M88.5,50.4c-2-2.9-1.3-5.6,0.5-8.3c0.5-0.8,1.1-1.7,1-2.8c2.5-2.9,4.1-6.4,6.8-9.1c1.3-0.2,2.2-1.1,3-2
		c0.6,0.1,1.1-0.1,1.5-0.6c0.4,0,0.8-0.1,1.2-0.1c0.7-0.1,1.3-0.2,2-0.3c0.9,0.1,1.8,0.1,2.7,0.2c2.9,1.3,5.5,3.5,9,3.2
		c1.2,1.6,2.1,3.6,4,4.7c0.5,0.8,0.8,1.6,0.7,2.6c-1.6,1.1,0.3,2.1,0,3.2c0,0,0.1,0.2,0.1,0.2c-0.1,0-0.2,0.1-0.3,0.2
		c0.1,0,0.2,0,0.3,0.1c-0.1,0.5-0.3,1-0.4,1.5c-1.4,1.6-1.9-0.3-2.8-0.7c-1.2-2.8-3.1-5.2-5.1-7.4c-5.4-5.9-9.4-5.5-13.7,1.4
		c-1.4,1.2-2.1,2.9-2.7,4.6c-1.1,0.9-1.5,2.2-2,3.4c-1.3,3.2-2.4,6.4-3.6,9.6c-0.2-0.1-0.4-0.1-0.6-0.1c-0.1-0.4-0.3-0.9-0.4-1.3
		C89.4,51.7,89.2,50.9,88.5,50.4z"/>
	<path class="st5" d="M21.1,124.5c0.1-9.7,3.4-18.3,8.5-26.3c0.6-1.2,1.4-2.3,2.8-2.7c0.1,2.1-1.2,3.7-1.9,5.6
		c-1.1,2.9-1.5,5.7-1.5,8.7c-2.3,2.7-2.3,6-2.7,9.3c-0.2,0.3-0.3,0.5-0.5,0.8c-0.1,1.6-0.2,3.1-0.3,4.7c-2,5.3-3.8,10.6-4.5,16.2
		c0,0,0,0,0,0c-0.7,0.2-0.7,0.8-0.7,1.4c0,0.2,0,0.4,0.1,0.7c0,0,0,0,0,0c-1.7-0.3-2,1.9-3.5,2C19.3,138.2,21.8,131.7,21.1,124.5z"
		/>
	<path class="st10" d="M79.6,72c0,0.2,0,0.4,0,0.6c-0.1,0.1-0.2,0.2-0.2,0.2c0,0.2,0.2,0.3,0.2,0.5c0,0,0-0.1,0-0.1
		c0.2,2.2-0.5,3.5-2.8,4.1c-4.4,1.2-5.8,5.2-7.5,8.8c-0.5,1-0.4,3.2-1.7,2.8c-1.7-0.5-0.2-2.3-0.1-3.4c0.2-4,2.5-7.6,2.7-11.6
		C72.9,71.1,75.9,70.1,79.6,72z"/>
	<path class="st0" d="M17,144.7c1.5,0,1.8-2.3,3.5-2c-1.8,3.9-1.7,8.3-3.3,12.2c-0.3-0.3-0.6-0.6-0.8-0.9c-0.1-1.9,2-4.3-1.2-5.6
		C15.8,147.3,16.4,146,17,144.7z"/>
	<path class="st7" d="M21.1,140.7c0.7-5.6,2.5-11,4.5-16.2c0.3,0,0.5,0,0.8,0c-0.5,4.4-2,8.6-3.3,12.8
		C22.2,138.3,22.3,139.9,21.1,140.7z"/>
	<path class="st6" d="M16.3,154.1c0.3,0.3,0.6,0.6,0.8,0.9c-0.8,2.1-1.9,3.8-4.1,4.6c0,0-0.1-0.1-0.1-0.1
		C13.1,157.2,15.6,156.2,16.3,154.1z"/>
	<path class="st6" d="M10.9,160.2c0-0.2,0.1-0.4,0.1-0.6c0.7,0,1.3,0,2,0c0,0,0.1,0.1,0.1,0.1c-0.1,0.7-0.6,1.2-1.3,1.4
		C11.5,160.7,11.2,160.5,10.9,160.2z"/>
	<path class="st5" d="M10.9,160.2c0.3,0.3,0.6,0.6,0.9,0.9c-0.5,0.6-1.1,0.8-1.8,0.6C10.3,161.1,10.6,160.7,10.9,160.2z"/>
	<path class="st7" d="M20.3,142.1c0-0.6,0.1-1.1,0.7-1.4c-0.1,0.4-0.1,0.9-0.2,1.3C20.7,142,20.5,142.1,20.3,142.1z"/>
	<path class="st8" d="M4.2,165c-0.1,0.1-0.1,0.1-0.2,0.2C4.1,165.1,4.1,165,4.2,165C4.2,164.9,4.2,165,4.2,165z"/>
	<path class="st5" d="M33.1,94.9c-0.2,0.2-0.5,0.5-0.7,0.7C32.7,95.3,32.9,95.1,33.1,94.9z"/>
	<path class="st0" d="M20.3,142.1c0.2,0,0.4-0.1,0.6-0.1c-0.2,0.3-0.3,0.5-0.5,0.8C20.4,142.5,20.4,142.3,20.3,142.1z"/>
	<path class="st5" d="M33.1,94.2c0.1,0.2,0.1,0.3,0.2,0.5c0,0-0.2,0.1-0.2,0.2C33,94.6,33,94.4,33.1,94.2z"/>
	<path class="st7" d="M178.6,239c-1.8,0-3.6,0-5.4,0.1c-4.8,0-4.8,0-4.7-4.7c0.1-0.4,0.1-0.9,0.3-1.3c3.2-4.3,3.3-6,0-10
		c-1.3-1.6-1.8-3.5-2.1-5.5c-1.4-9.7-2.8-19.4-7.2-28.3c-0.4-0.9-0.5-1.9-0.8-2.9c1.8-2,1.7-4.1-0.1-5.8c-3.4-3.3-5.3-7.4-7.2-11.5
		c-1-2.1-3-4.9-1.3-6.9c3-3.6,3.1-8.3,5.7-12c0.7-1,2.3-2.8-0.1-4.1c0.2-0.4,0.4-0.9,0.6-1.3c0.5-0.9,1-1.8,1.5-2.7
		c0.9-0.1,1.6-0.5,2-1.4c0-0.2,0-0.4,0-0.6c0.6-0.4,1.2-0.5,1.9,0c0.1,2,0.2,3.9,0.3,5.9c-0.3,0.3-0.5,0.5-0.8,0.8
		c-1.6,0-1.9,1.3-2.6,2.3c-4.3,7.1-2.6,14.2-0.3,21.4c1.2,3.9,1.3,3.8,4.6,1.5c0.4-0.3,1-0.5,1.5-0.8c0.7,4.6,1.4,9.3,4,13.4
		c0.6,0.9,0.9,2.1,0.8,3.2c-0.7,10.2,3.2,19.5,5.1,29.2c0.4,2,1.1,4,1.6,6.1c-3.4,3.1-1.9,7.2-2.1,10.9c-0.1,2.9,1.8,4.4,4.8,3.9
		C178.6,238.1,178.6,238.6,178.6,239z"/>
	<path class="st6" d="M161.6,140.1c-0.6-0.5-1.2-0.4-1.9,0c1.3-5.5,2.8-11,1.7-16.8c-0.1-0.5-0.1-0.9,0.4-1.1c0.7-0.2,1,0.3,1.2,0.8
		c0.6,1.3,0.7,2.6,0.7,3.9c0,2.9,1.2,5,3.7,6.7c8.8,5.9,18,5.6,27.2,1.4c3-1.4,5.2-4.5,8.1-6.4c2.9-1.9,4.6-5.2,8.3-6
		c-0.2,0.6-0.7,1.2-0.1,1.9c-0.3,0.1-0.6,0.3-0.8,0.4c0.3,0.3,0.6,0.6,0.8,0.9c-2.3,0.1-2.9,2.4-4.4,3.6c-1,0.9-1.4,2.3-2.7,2.7
		c-2.2,0.1-3.5,1.9-5,3c-5.4,4-11.5,5.9-18.2,5.6c-4.7-0.3-9.1-1.9-13.2-4.3c-2-1.2-3.7-1.1-4.9,1.1
		C162.2,138.3,161.9,139.2,161.6,140.1z"/>
	<path class="st0" d="M164.3,171.1c-0.5,0.3-1,0.5-1.5,0.8c-3.2,2.4-3.4,2.4-4.6-1.5c-2.3-7.1-4-14.3,0.3-21.4c0.6-1,1-2.3,2.6-2.3
		c-0.4,6.8,1.8,13.4,1.4,20.2c0,1.4-0.4,3,1.5,3.6C164.1,170.8,164.2,171,164.3,171.1z"/>
	<path class="st7" d="M181.4,142.2c-5.2-0.4-10.1-1.6-14.7-4.2c-1.4-0.8-2.7-0.9-4.2-0.6c1.2-2.3,2.9-2.3,4.9-1.1
		c4.1,2.4,8.5,4,13.2,4.3c6.7,0.4,12.7-1.6,18.2-5.6c1.6-1.1,2.8-3,5-3C197.8,138.7,190.3,142.1,181.4,142.2z"/>
	<path class="st0" d="M178.6,237.7c-3,0.5-5-1-4.8-3.9c0.2-3.7-1.3-7.8,2.1-10.9c1.2,1.1,1,2.6,1.3,4c-1,1.8-0.5,3.3,0.6,4.9
		C178.9,233.6,180.1,235.5,178.6,237.7z"/>
	<path class="st6" d="M161.9,145.9c0.2,0.3,0.4,0.6,0.6,0.8c0.4,6.1,0.8,12.1,1.2,18.2c-0.2,0.3-0.4,0.7-0.5,1
		c0.6,0,0.5,0.4,0.4,0.8c-0.4,0.1-0.7,0.2-1.1,0.2c0.4-6.8-1.8-13.4-1.4-20.2C161.4,146.5,161.6,146.2,161.9,145.9z"/>
	<path class="st6" d="M178.6,237.7c1.5-2.2,0.4-4.1-0.8-5.8c-1.2-1.6-1.6-3.1-0.6-4.9c1,3.3,2.6,6.4,4.2,9.4c0.2,2-0.7,2.9-2.7,2.6
		C178.6,238.6,178.6,238.1,178.6,237.7z"/>
	<path class="st7" d="M162.5,167c0.4-0.1,0.7-0.2,1.1-0.2c0.1,0.4,0.2,0.9,0.3,1.3c0,0.8,0.1,1.5,0.1,2.3c0,0,0,0.2,0,0.2
		C162.1,170,162.5,168.4,162.5,167z"/>
	<path class="st6" d="M164,170.4c0-0.8-0.1-1.5-0.1-2.3C164.4,168.8,164.6,169.6,164,170.4z"/>
	<path class="st7" d="M163.2,166c0.2-0.3,0.4-0.7,0.5-1C163.7,165.4,163.7,165.9,163.2,166z"/>
	<path class="st6" d="M18.5,238.8c-0.8-3,0.9-5.7,1.1-8.5c0.2-2.7-3.5-3.9-4.1-7c-1.9-10.2-3.2-20.5-4.6-30.8
		c-0.5-3.9-0.9-7.8-1.4-11.6c-0.5-3.8,1.1-6.5,4.1-8.5c-0.4,1.9-0.3,4-1.6,5.7c-0.3,0.4-0.3,1.2-0.1,1.6c2.8,4,1.9,8.8,2,13
		c0.3,8.3,2.3,16.3,2.4,24.6c0.1,4.1,0.6,8.3,4.4,11.1c0.4,0.3,0.9,0.9,0.9,0.9c-2.9,3.1,1.2,6.7-0.6,9.8
		C20.2,238.9,19.4,238.9,18.5,238.8z"/>
	<path class="st3" d="M139.7,57.9c2.4-1.6,2.3,2.2,4,1.9c0,0.5-0.1,1.1,0,1.6c0.1,0.8,0,2,1.2,2c0.9,0,1-1,1.2-1.7
		c0.1-0.4,0.2-0.9,0.2-1.3c3,0.9,2.1,3.3,1.7,5.2c-0.4,1.8-1.3,3.6-1,5.5c-0.9,0.5-0.6,1.3-0.6,2.1c-1.3,0.1-2.5,0-3.7-0.5
		c-0.3-0.5-0.7-0.9-1-1.4c-1.3-1.4-2.4-3.1-4.5-3.5c-1.5-2.1-0.6-4,0.6-5.9c0.5-0.8,1.5-1.4,0.7-2.6C138.9,59,139.3,58.5,139.7,57.9
		z"/>
	<path class="st4" d="M139.7,57.9c-0.4,0.5-0.8,1-1.2,1.6c-5.8-3.2-12.1-5.4-17.5-9.2c-2.9-2.1-4.5-5.5-3.3-8
		c0.9,0.4,1.4,2.3,2.8,0.7c2.7,5.5,8,7.8,12.8,10.8C135.5,55.2,137.6,56.6,139.7,57.9z"/>
	<path class="st3" d="M116.2,30.7c-3.5,0.3-6.1-1.9-9-3.2c0.2-1.1,0.5-2.3,0.7-3.4c0.7-0.4,1.4-0.8,2.1-1.2c2.2,2.5,4,5.6,7.9,6
		c0,0.5,0,1,0.1,1.6C117.4,30.6,116.5,29.2,116.2,30.7z"/>
	<path class="st7" d="M146.4,73.3c0-0.8-0.3-1.6,0.6-2.1c2.9,6.5,6.4,12.6,10.8,18.3c-0.3,0.3-0.6,0.6-0.8,0.9
		C152.3,85.4,149.6,79.2,146.4,73.3z"/>
	<path class="st6" d="M146.4,60.4c-0.1,0.4-0.1,0.9-0.2,1.3c-0.2,0.7-0.3,1.8-1.2,1.7c-1.2,0-1.1-1.2-1.2-2c-0.1-0.5,0-1.1,0-1.6
		C145.4,56.8,145.6,60,146.4,60.4z"/>
	<path class="st1" d="M116.2,30.7c0.3-1.5,1.2-0.1,1.7-0.3c0,0,0.1,0,0.1,0c0.1,0.8,0.6,1.2,1.3,1.4c0.6,1.1,1.1,2.3,0.9,3.6
		C118.3,34.2,117.4,32.3,116.2,30.7z"/>
	<path class="st1" d="M120.9,41.2c0.2-1.1-1.7-2.1,0-3.2C121.4,39,121.6,40.1,120.9,41.2z"/>
	<path class="st3" d="M119.2,31.8c-0.6-0.3-1.2-0.7-1.3-1.4C118.8,30.5,119.3,30.9,119.2,31.8z"/>
	<path class="st1" d="M120.9,41.5c-0.1,0-0.2,0-0.3-0.1c0.1-0.1,0.2-0.1,0.3-0.2C121,41.3,120.9,41.5,120.9,41.5z"/>
	<path class="st10" d="M241.7,90.8c-6.1,2.4-10.8,7.2-17.7,6.8c-2.3-0.1-6.5-3.3-7.1-5.4c-0.3-0.9,0.2-1.3,0.9-1.3
		c1.9-0.1,3.8,0,5.7,0c0.9,0,1.5,0.4,1.6,1.4c0.3,3.5,2.2,2.5,4.2,1.6c2.4-1.1,4.1-3.4,6.9-3.9C238,89.6,239.6,89.5,241.7,90.8z"/>
	<path class="st7" d="M222.4,100.3c-1.8,0.7-3.5,1.4-5.2,2.1c-0.7-2-1.1-3.9-2.4-5.8c-1.3-1.8-1.5-4.3-0.4-6.7
		C214.9,95.1,218.5,97.8,222.4,100.3z"/>
	<path class="st1" d="M224,83.7c2-2.2,4.5-2,6.7-2.7c0.6-0.2,1.4,0,1.6,0.8c0.3,1.1,0.1,1.9-1,2.6C228.8,86,226.5,85.4,224,83.7z"/>
	<path class="st5" d="M219.6,78.7c0-0.2,0.1-0.4,0.1-0.6c0,0.2,0.1,0.3,0.1,0.5C219.8,78.6,219.7,78.7,219.6,78.7z"/>
	<path class="st7" d="M215.9,113.9c-1.7-0.6-2-1.5-1.2-3.2c0.8-1.6,2-3.2,1.5-5.2c0.1-0.3,0.1-0.6,0.2-0.9c4.3,1.3,7.3-1.6,10.7-3.4
		c0.4-0.2,0.9-0.1,1.3-0.2c0.8,0,1.6,0,2.1,0.8c-0.1,0.1-0.2,0.1-0.4,0c-0.3,0.2-0.6,0.3-1,0.5C223.3,104.5,219.2,108.8,215.9,113.9
		z"/>
	<path class="st6" d="M246.6,88.1c0,0.5,0,0.9-0.1,1.4c-1.1-1.5-0.5-3.1-0.6-4.7C246.9,85.8,246.5,87,246.6,88.1z"/>
	<path class="st1" d="M108.6,20.1c-0.3-0.9-0.5-1.7-0.8-2.6c1.6-1.9,3.3-3.6,6.1-3.3c-1.5,0.9-0.4,4.6-4,3.4
		C108.8,17.1,109.9,19.6,108.6,20.1z"/>
	<path class="st12" d="M232.5,108c0.2-2.1,0.4-4.2,0.6-6.3c1.6-0.9,3.2-1.8,4.8-2.7C237.1,102.5,234.5,105.1,232.5,108z"/>
	<path class="st12" d="M237.8,99c0.3-0.7,0.7-0.8,1.3-0.3C238.7,98.9,238.4,99.6,237.8,99z"/>
	<path class="st3" d="M104.5,27.3c-0.7,0.1-1.3,0.2-2,0.3C103.1,26.9,103.6,25.4,104.5,27.3z"/>
	<path class="st3" d="M101.3,27.7c-0.4,0.5-0.9,0.6-1.5,0.6C100.2,27.7,100.7,27.6,101.3,27.7z"/>
	<path class="st2" d="M133.9,83.1c0.2,0.2,0.4,0.4,0.6,0.5c2.5,2.9,4.2,6.2,5.1,10c0.7,3,1.2,6.2,2.2,9.1c0.7,2,2.5,3.7,1.6,6.1
		c0,0-0.1,0.1-0.1,0.1c-0.8,0.2-1.4,0.6-1.8,1.3c-2.2,1.6-4.5,3.1-6.7,4.7c-0.2,0.2-0.4,0.3-0.6,0.4c-3.1,0.8-4-0.6-3.6-3.5
		c1.9-2,4.8-2.9,6.2-5.5c0.2,0,0.4-0.1,0.6-0.1c-0.1-0.1-0.1-0.2-0.2-0.3c-0.1,0.1-0.3,0.3-0.4,0.4c-3.4,1.4-5,0.2-5.6-3.3
		c-0.5-2.5-1.8-4.8-2.8-7.2c-1-2.5-2.8-3.7-5.5-3.6c-1.2,0-2.5,0.1-3.7,0c-4.9-0.5-9.8-1.1-14-4.2c-2.6-2-2.5-2.6,0.4-4.1
		c1.6-0.8,3.3-1.4,4.3-3.1l0,0c0.8-0.1,1.3-0.5,1.4-1.4l0,0c0.6,0,1.1-0.2,1.5-0.7c2.3-0.3,3.4-2.5,5.3-3.5c0.8,0.1,1.6,0.2,2.4,0.3
		c-1.2,1.4-0.1,1.9,0.9,2.2c3.3,1.2,6.6,2.4,9.9,3.6c0.2,0.1,0.4,0.2,0.6,0.3C132.4,82.4,133,82.9,133.9,83.1z"/>
	<path class="st13" d="M83.6,78.8c0.2-0.9,0.8-1.3,1.7-1.4c1.3,0.8,2.6,1.5,4.2,1.5c0.8,2-0.4,4.8,2.6,5.8c3,2.3,6.3,4.2,9.4,6.3
		c6,4.2,13.1,5.5,20.2,6.4c1.7,0.2,3.1,0.5,3.6,2.3c0.6,2.4,1.1,4.8,1.6,7.2c0.4,2-0.4,2.8-2.5,2.9c-6.6,0.1-13.2-0.1-19.5-2.6
		c-4.3-1.7-8.8-3.2-12.5-6.1C85.2,95.3,83.9,87.2,83.6,78.8z"/>
	<path class="st1" d="M83.6,78.8c0.3,8.4,1.6,16.6,8.7,22.4c3.7,3,8.1,4.4,12.5,6.1c6.3,2.5,12.9,2.7,19.5,2.6
		c2.1,0,2.9-0.9,2.5-2.9c-0.5-2.4-1-4.8-1.6-7.2c-0.5-1.8-1.9-2.1-3.6-2.3c-7.1-0.9-14.2-2.2-20.2-6.4c-3.1-2.2-6.4-4-9.4-6.3
		c1,0,2.1-0.1,3.1-0.1c0.8,0.2,1.7,0.3,2.5,0.5c1.2,3.1,4.2,4.1,6.8,5.4c5.1,2.3,10.6,3.9,16.1,4.3c4.4,0.3,6.4,2.5,7.3,6.4
		c0.9,3.6,1.8,7.1,2.7,10.7c-0.5,2.9,0.5,4.2,3.6,3.5c-0.2,0.4-0.5,0.8-0.7,1.2c-12.2,1.3-24.5,1.4-35.8-4.1
		c-7.3-3.5-12-9.8-14.6-17.6c-0.4-3.6-1-7.1-0.7-10.7C82.4,82.3,82.5,80.4,83.6,78.8z"/>
	<path class="st10" d="M184,126.5c-5.1,0.8-9-1.8-12.9-4.2c-1.1-0.7-1.8-1.7-1.9-3c-0.2-2.2-0.5-4.4-0.7-6.6c-0.4-6-0.4-6.1,5.1-3.6
		c4.9,2.2,9.9,2.6,15,1.3c5.1-1.3,10.2,0.8,15.3,0.2c1.3-0.2,1.6,0.8,1.1,2c-2.1,5.6-6.4,9.1-11.3,11.8
		C190.8,125.9,187.5,127.5,184,126.5z"/>
	<path class="st10" d="M113.6,135.3c-7.8-0.4-15.5-1.5-22.8-4.7c-6-2.7-9.2-7.6-10.7-13.8c-0.1-0.4-0.2-1,0-1.2
		c0.5-0.6,0.9-0.1,1.4,0.2c2.9,1.5,5.4,3.4,8.2,5.1c9.1,5.3,18.5,6.2,28.4,3.6c2.8-0.7,5.6-0.5,8.3-0.6c1.5,0,3,0.2,3.7,1.8
		c0.7,1.6-0.2,3-1.2,4.3c-3,4.1-7.5,4.9-12.2,5.3C115.8,135.4,114.7,135.3,113.6,135.3z"/>
	<path class="st6" d="M112,152.7c-4.6,0-9-1.1-13.5-1.5c0.5-0.4,1.5-0.8,1.5-1.1c-0.1-0.9-1-0.7-1.6-0.5c-1.5,0.6-2.8-0.3-4.2-0.6
		c-3.9-0.9-7.2-3.5-11.3-3.7c-1.3-0.9-2.5-1.8-3.9-2.6c-3.7-2.3-5-5-4.3-9.4c0.3-2.3,0.6-4.6,0.9-6.9c0.7,0.5,1.5,0.9,1.8,1.8
		c2.5,7.8,8.6,12,15.7,14.9c5.3,2.2,10.8,4,16.8,3.6c6.3-0.4,12.4-0.9,15-8.1c0.3-0.7,1.1-0.6,1.8-0.6c-2.7,6.9-4.4,15-14.5,14.5
		C112.2,152.5,112.1,152.6,112,152.7z"/>
	<path class="st6" d="M30.5,178c-0.8,0.4-1.7,0.8-2.5,1.2c-0.6-2.4,1.4-3.5,2.8-4.5c8.8-6.4,17.2-13.3,25.1-20.8
		c3.4-3.3,5.8-7.3,7-11.9c0-0.2,0-0.4,0-0.6c1.5-0.3,1.8-1.5,2-2.7c0.2-0.7,0.5-1.3,0.7-2c1.2-0.2,1.4-1.1,1.3-2
		c-0.5-2.4,1.8-3.9,2.1-6c2.6-1.4,3.2-4,4-6.5c0.3-1,0.4-2.2,0.7-3.2c0.2-0.7-0.4-2.1,1.1-1.9c1.1,0.1,0.9,1.3,1,2.2
		c-0.7,1.5-1,3-1.1,4.7c-0.6,7.8-2.3,15-7.6,21.3c-6.1,7.3-13.2,13.6-20.2,20c-1,0.9-2.7,1.3-2.9,3.1c-1.2,0.2-2.3,0.5-2.6,2
		c-1.4,0-2.5,0.5-2.7,2.1C35.5,173.7,33,175.9,30.5,178z"/>
	<path class="st10" d="M156.3,144.7c-0.2,0.4-0.4,0.9-0.6,1.3c-0.4,0.5-0.9,0.9-1.3,1.4c-0.8,0.1-1.3,0.6-1.2,1.5l0,0
		c-2.1,0.6-2.3,2.4-2.7,4.1c0,0.2,0,0.3-0.1,0.5c-1.9,0.4-1.7,2.1-2,3.4l0,0c-2.6,0.9-3.2,3-3.4,5.4l0,0c-1.9-0.2-2.8,0.8-3.5,2.5
		c-1.7,3.8-4.6,6.8-7.3,9.9c-0.6,0.6-1.1,1.5-2.2,1.3c-0.8-1,0.1-1.6,0.4-2.4c3.7-9.3,9.2-17.7,14.9-25.8c3.6-5.1,6.9-10.3,9.2-16.1
		c0.8-2,0-4.3,2.3-6.6c0.4,3.3,0.7,6.1-0.1,8.8c-0.9,2.9-1.1,6-2.7,8.6C155.5,143.2,155.7,144.1,156.3,144.7z"/>
	<path class="st6" d="M116.7,231.8c2.8,0.1,3.7-0.7,2.6-3.8c-1.4-3.9,0.7-7.9,1.1-11.9c0.8-7.3,1.9-14.6,2.8-22
		c0.2-1.6-0.3-3.3-0.4-5c4.5,0.8,4.2,0.8,3.5,5c-0.8,4.6-1.7,9.2-1.5,13.9c0,2-0.1,4-0.1,6c-1.2,0.2-2.6,1-2.3,2
		c0.8,2.9-1,5.8,0,8.6c0.4,1.1,0,2.6,1.7,3c1,1.6,2.6,3-0.4,4.4c-1.6,0.7-3.8,1.8-3.4,4.1c0.5,2.3,2.9,1.9,4.7,2.3
		c0.4,0.1,0.8,0.2,1.2,0.8c-3.7,0.3-7.4,1.5-11,0c-1.8-0.7-1.5-2.5-0.4-3.6C115.8,234.4,116.3,233.1,116.7,231.8z"/>
	<path class="st5" d="M68.9,128.6c-0.2,2.2-2.5,3.6-2.1,6c-1.2,0.2-1.4,1-1.3,2c-0.2,0.7-0.5,1.3-0.7,2c-1.5,0.3-1.8,1.5-2,2.7
		c0,0.2,0,0.4,0,0.6c-2.3,1.4-3.7,3.8-5.2,5.9c-4.9,7.1-19.1,18.7-28,21.8c3.5-3.2,7-6.5,10.7-9.4c3.9-3.1,7.1-6.8,10.4-10.4
		c3.3-3.6,6.5-7.4,9.5-11.3c3-3.8,5.4-8.1,8-12.3C69.2,127,68.7,127.9,68.9,128.6z"/>
	<path class="st8" d="M115.6,61.8c3.2-0.8,4.5,2.5,7.1,3.4c3.1,1.1,5.9,3,9.2,3.7c3.2,0.7,3.6,2.2,2.1,5.8
		c-3.5-1.8-6.9-2.2-10.1,0.8c-1.2,0-2.3,0-3.5,0c-0.8-0.1-1.6-0.2-2.4-0.3c-1.4-4.1-2.7-8.3-2.8-12.7
		C115.4,62.3,115.5,62.1,115.6,61.8z"/>
	<path class="st1" d="M43.8,168.3c0.2-1.8,1.9-2.1,2.9-3.1c7-6.4,14-12.7,20.2-20c5.3-6.3,7-13.6,7.6-21.3c0.1-1.7,0.4-3.2,1.1-4.7
		c1.2,2.4,0.1,4.9,0.2,7.4c-0.3,2.3-0.6,4.6-0.9,6.9c-0.7,4.4,0.6,7.1,4.3,9.4c1.3,0.8,2.6,1.7,3.9,2.6c-0.5,0.2-1,0.5-1.5,0.7
		c-0.6-0.3-1.3-0.5-1.9-0.8c-1.8-0.8-3.7-1.6-5.5-2.3c-1.3-0.5-2.4-0.3-3.2,1c-4,6.8-10.3,11.4-15.9,16.6
		C51.8,163.7,48.3,166.8,43.8,168.3z"/>
	<path class="st1" d="M112,152.7c0.1-0.1,0.2-0.2,0.3-0.2c10.1,0.5,11.8-7.5,14.5-14.5c1.2-0.7,1.2-3.5,2.8-2.8
		c1.5,0.6,0.1,2.6-0.1,4c-2.1,10.2-3.2,20.5-2.5,31c0.1,1.6,0.8,4.1-1.4,5.4c0.1-6.5-0.3-12.9-1.8-19.2c-0.6-2.5-1.8-3.4-4-3.4
		C117.2,152.9,114.6,152.8,112,152.7z"/>
	<path class="st1" d="M154.3,147.4c0.4-0.5,0.9-0.9,1.3-1.4c2.4,1.3,0.8,3.2,0.1,4.1c-2.6,3.7-2.7,8.4-5.7,12
		c-1.7,2,0.3,4.9,1.3,6.9c2,4.1,3.9,8.2,7.2,11.5c1.8,1.7,1.9,3.9,0.1,5.8c-1.3-5.4-4.8-9.4-8.4-13.4c-2-2.4-3.9-4.8-5.9-7.2
		c-0.5-1.3,0.4-2.4,0.6-3.6c0,0,0,0,0,0c1.7-1.4,2.6-3.4,3.4-5.4c0,0,0,0,0,0c1.3-0.8,1.8-2,2-3.4c0.1-0.2,0.1-0.3,0.1-0.5
		c2-0.7,2.5-2.3,2.7-4.1c0,0,0,0,0,0C154,148.7,154.3,148.2,154.3,147.4z"/>
	<path class="st6" d="M22.4,161.5c3.1-5.1,5.4-10.6,7.4-16.2c4.5,0.4,7.5-2.4,10.6-4.8c0.7-0.5,1.4-1.6,2.2-0.9
		c1,0.9-0.3,1.5-0.8,2.1c-5.6,6.2-11.2,12.5-16.9,18.7C24.3,161.2,23.9,162.7,22.4,161.5z"/>
	<path class="st10" d="M22.4,184.5c-1.5,9.6-0.1,19.3-0.1,29c-0.7,0-1.3,0-2,0c-1.5-8.2-2.5-16.5-1.8-24.9
		C18.7,186.7,20.2,184.9,22.4,184.5z"/>
	<path class="st10" d="M144.3,86.8c4.4,0.1,7.2,2.6,9.6,6.1c2.3,3.4,4.2,7.3,8.5,10C155.5,102.9,147.5,95.4,144.3,86.8L144.3,86.8z"
		/>
	<path class="st3" d="M134.8,114.9c2.2-1.6,4.5-3.1,6.7-4.7c0.3,0.9-0.1,2,0.7,2.7c0.3,1.5,0.5,3.1,2.4,3.5
		c-0.3,4.7-1.2,5.7-6.4,7.3C136.9,120.8,137.5,117.2,134.8,114.9z"/>
	<path class="st1" d="M138.2,123.7c5.3-1.6,6.1-2.5,6.4-7.3c1.9-0.1,3.8,0.9,5.8,0.1c0.7-0.3,1.2,0.4,1.2,1.2c-1.8,2-4.5,3.2-5.4,6
		c-0.5,0.7-1.2,0.8-1.9,0.9c-1.2-0.3-2.1,0.5-3.1,0.9C139.6,126.2,138.1,126.2,138.2,123.7z"/>
	<path class="st13" d="M143.4,108.8c0.9-2.4-0.9-4.1-1.6-6.1c-1.1-2.9-1.5-6-2.2-9.1c-0.9-3.7-2.7-7-5.1-10c3.6,0.9,4.8,4.2,5.4,7
		c0.5,2.5,1.2,5.1,2.7,6.6c3.2,3.2,1.2,7,1.8,10.4C144.5,107.9,143.8,108.4,143.4,108.8z"/>
	<path class="st7" d="M138.2,123.7c-0.1,2.5,1.4,2.5,3.1,1.9c1-0.4,1.9-1.2,3.1-0.9c-1.2,2.8-3.9,3-6.3,3.7
		c-1.2,0.3-1.7-0.7-1.9-1.8c-0.3-2.1-0.5-4.2-0.9-6.2c-0.3-1.4-0.4-2.9-1.8-3.8c0.2-0.4,0.5-0.8,0.7-1.2c0.2-0.1,0.4-0.3,0.6-0.4
		C137.5,117.2,136.9,120.8,138.2,123.7z"/>
	<path class="st5" d="M20.4,213.4c0.7,0,1.3,0,2,0c-0.3,5,0.6,9.8,3.5,14.1c-4-1.5-5-5-5.4-8.7C20.2,217,20.4,215.2,20.4,213.4z"/>
	<path class="st13" d="M120.5,75.5c1.2,0,2.3,0,3.5,0c0.6,2,2,2.9,3.9,3.4c1.3,0.4,3.3,0.3,3.4,2.4c-3.3-1.2-6.6-2.4-9.9-3.6
		C120.3,77.4,119.3,76.9,120.5,75.5z"/>
	<path class="st5" d="M130.8,188c-1.1-2.2-0.3-4.1-1.5-5.5c-0.5-0.5-0.6-1.3,0.1-1.8c0.9-0.6,2-0.5,2.9-0.1c0.9,0.3,1.1,1,0.7,1.9
		C132.4,184.2,131.7,185.8,130.8,188z"/>
	<path class="st1" d="M145,84.8c-1-3.4-1.9-6.8-2.9-10.1c-0.3-1.1-0.5-2.1-0.4-3.2c0.3,0.5,0.7,0.9,1,1.4c0.7,4.2,2.6,7.9,3.8,12
		C146,84.8,145.5,84.8,145,84.8z"/>
	<path class="st5" d="M18.7,175.7c0.7,0.2,2.2-0.3,1.9,1c-0.5,2.1-2.8,1.7-4.4,2.2c-0.6,0.2-1.6-0.3-1.4-0.9
		C15.3,176.2,16.9,175.7,18.7,175.7z"/>
	<path class="st3" d="M89.4,78.9c-1.6,0-2.9-0.7-4.2-1.5c-1.1-0.9-2.5-1.5-2.4-3.2c2.2,1,4.3,2.2,6.7,2.5
		C89.5,77.5,89.5,78.2,89.4,78.9z"/>
	<path class="st7" d="M146.3,123.8c0.9-2.8,3.6-4,5.4-6C151.8,121.6,148.9,122.5,146.3,123.8z"/>
	<path class="st6" d="M82.3,84.1c-0.3,3.6,0.4,7.2,0.7,10.7c-0.6-0.1-1.3-0.3-1.2-0.9C81.8,90.7,80.9,87.3,82.3,84.1z"/>
	<path class="st13" d="M142.2,113c-0.8-0.7-0.4-1.8-0.7-2.7c0.4-0.7,1-1.1,1.8-1.3C143.6,110.4,143.1,111.7,142.2,113z"/>
	<path class="st13" d="M133.9,83.1c-0.8-0.2-1.5-0.7-2-1.4C133,81.6,133.7,81.9,133.9,83.1z"/>
	<path class="st6" d="M159.7,140.7c-0.4,0.9-1,1.3-2,1.4C157.9,140.8,158.8,140.7,159.7,140.7z"/>
	<path class="st10" d="M144.3,86.8c-0.2,0-0.4-0.1-0.6-0.1c0.1-0.1,0.1-0.2,0.2-0.3C144,86.5,144.1,86.7,144.3,86.8
		C144.3,86.8,144.3,86.8,144.3,86.8z"/>
	<path class="st10" d="M23.1,183.1c-0.2,0.3-0.4,0.6-0.6,0.9C22.7,183.7,22.9,183.4,23.1,183.1z"/>
	<path class="st1" d="M26.3,124.5c-0.3,0-0.5,0-0.8,0c0.1-1.6,0.2-3.1,0.3-4.7c0.2-0.3,0.3-0.5,0.5-0.8c0.4-3.2,0.4-6.6,2.7-9.3
		c0,0.2,0,0.4,0,0.6c0,2.7,0.2,5.4-0.8,8C27.7,120.4,27,122.5,26.3,124.5z"/>
	<path class="st5" d="M28.4,118.4c1-2.6,0.7-5.3,0.8-8c2.4,2.4,2.5,7.3,0.1,10.1C29.1,119.7,29.1,118.9,28.4,118.4z"/>
	<path class="st4" d="M89.4,78.9c0-0.7,0.1-1.5,0.1-2.2c0-1.2,0-2.3,0.1-3.5c1.2-4.6,0.9-9.3,0.2-14c0-1.4,0-2.8,0-4.1
		c0.2-0.4,0.5-0.9,0.7-1.3c1.2-3.2,2.3-6.4,3.6-9.6c0.5-1.2,1-2.5,2-3.4c0.3,1,0.2,2-0.1,3C94,49.9,93.9,56,95.9,62.1
		c1.9,5.7,1.6,11.1-1,16.6c-0.8,1.7-2.5,4.1,0.1,6c-1,0-2.1,0.1-3.1,0.1C89,83.8,90.2,80.9,89.4,78.9z"/>
	<path class="st3" d="M88.5,50.4c0.7,0.5,0.9,1.2,1.1,2C88.3,52.2,88.4,51.3,88.5,50.4z"/>
	<path class="st0" d="M79.7,73.3c-0.1-0.2-0.2-0.3-0.2-0.5c0,0,0.1-0.1,0.2-0.2C79.6,72.9,79.7,73.1,79.7,73.3z"/>
	<path class="st5" d="M13.7,148.8c0.5-0.1,1-0.2,1.5-0.3c3.2,1.3,1.1,3.7,1.2,5.6c-0.7,2-3.2,3-3.3,5.4c-0.7,0-1.3,0-2,0
		c0-3.6,0.4-7.1,2.6-10.1C13.7,149.2,13.7,149,13.7,148.8L13.7,148.8z"/>
	<path class="st14" d="M13.7,148.8c0,0.2,0,0.4-0.1,0.6c-0.2-0.1-0.5-0.2-0.7-0.4C13.2,149,13.4,148.9,13.7,148.8z"/>
	<path class="st9" d="M95.1,84.7c-2.6-1.9-1-4.3-0.1-6c2.6-5.5,2.8-10.9,1-16.6c-2-6.1-1.9-12.3,0.2-18.4c0.3-1,0.4-2,0.1-3
		c0.6-1.7,1.3-3.3,2.7-4.6c1.4,1.7,1.2,4,2.3,5.9c0,0.6,0.1,1.2,0.7,1.6l0,0c2.7,7.6,6.2,14.5,13.4,18.9c0.1,4.4,1.4,8.6,2.8,12.7
		c-1.9,1-3,3.1-5.3,3.5c-0.6,0-1.1,0.2-1.5,0.7c0,0,0,0,0,0c-0.8,0.1-1.3,0.5-1.4,1.4c0,0,0,0,0,0c-4.1,1.5-8.2,2.9-12.3,4.4
		C96.8,85,96,84.8,95.1,84.7z"/>
	<path class="st2" d="M101.2,42.1c-1-1.9-0.9-4.2-2.3-5.9c4.3-6.9,8.3-7.3,13.7-1.4c2,2.2,3.9,4.6,5.1,7.4c-1.2,2.5,0.3,6,3.3,8
		c5.5,3.8,11.7,6,17.5,9.2c0.8,1.2-0.2,1.8-0.7,2.6c-1.2,1.8-2.1,3.7-0.6,5.9c-1.8,0.4-3.3-0.5-4.7-1.4c-4.2-2.4-8.9-3.9-12.9-6.9
		c-1-0.7-2.2-1-3.5-0.9c-3.4-3.4-6.9-6.5-9.9-10.3c-1.3-1.7-2.1-3.9-4.4-4.7c0,0,0,0,0,0C102,43,101.6,42.6,101.2,42.1z"/>
	<path class="st7" d="M26.4,119.1c-0.2,0.3-0.3,0.5-0.5,0.8C26,119.6,26.2,119.3,26.4,119.1z"/>
	<path class="st7" d="M44.8,191.4c1,5.3,0.4,10.6,0.7,15.8c-1.3,1-1.5,2.1-0.8,3.7c2.7,6.2,6.9,11.5,10.7,17
		c1.1,1.6,2.9,1.9,4.8,0.9c0.6,0.7,1.3,1.4,1.9,2.1c-0.8,1.2-3.2,1.6-2.4,3.5c0.7,1.8,1.9,3.6,4.4,3.3c0,0.4,0,0.9,0,1.3
		c-2,0-4,0.2-5.9,0c-3.2-0.3-4.4-2.5-2.9-5.4c0.9-1.1,0.6-2-0.7-2.2c-2.6-0.3-3.3-2.3-4.4-4c-0.8-1.3-1.7-2.6-2.6-3.8
		c-0.3-0.5-0.7-0.9-1-1.4l0,0c-3.1-5.3-5.7-10.9-10.2-15.2c-1.1-2.6-2-5.3-0.9-8.2c1.6-0.3,3.1-1.5,2.5-2.9
		c-1.2-2.5,0.1-4.5,0.2-6.8c0.4-6.3,3.3-12.3,3-18.8c0.3-1.4,1.4-1.7,2.6-2c4.4-1.5,8-4.6,11.2-7.6c5.5-5.3,11.9-9.9,15.9-16.6
		c0.8-1.3,1.9-1.5,3.2-1c1.9,0.7,3.7,1.6,5.5,2.3c-2.5,1-2.8,3.6-4.2,5.4c-0.2,0.2-0.4,0.4-0.6,0.6c0,0,0,0,0,0
		c-0.2,0.3-0.3,0.6-0.5,0.8c0,0,0,0,0,0c-2.8-1.4-2.8,1.1-3.5,2.5c-0.2,0.2-0.5,0.4-0.7,0.7c0,0,0,0,0,0c-0.2,0.2-0.4,0.4-0.7,0.7
		l0,0c-0.2,0.2-0.4,0.4-0.7,0.7l0,0c-0.2,0.2-0.4,0.4-0.7,0.7c0,0,0,0,0,0c-7.5,2.6-13.1,8.3-19.9,12.2c-1,0.6-1.4,1.6-1.7,2.8
		c-1.6,5.6-2.5,11.3-3.8,17C42.3,191.6,43.4,191.5,44.8,191.4z M38.6,199.3c2.2-0.9,4.2-1,5.8,1.5c-0.3-1.8,1.3-3.9-1-4.8
		c-2-0.8-3.6,0.5-4.7,2.2C38.6,198.6,38.6,198.9,38.6,199.3c-0.2,0-0.2,0-0.3,0.1c0,0,0.1,0.1,0.1,0.1
		C38.5,199.5,38.5,199.4,38.6,199.3z"/>
	<path class="st0" d="M64.1,237.7c-2.5,0.3-3.7-1.5-4.4-3.3c-0.8-1.9,1.6-2.3,2.4-3.5c1,0.2,2,0.6,2.7,1.3c-0.4,0.3-1.2,0.7-0.6,1.1
		c0.8,0.6,1.8,0.4,2.6-0.4c0.8,0.1,1.3,0.5,1.3,1.3c-0.3,0.1-0.5,0.2-0.8,0.3c0.3,0.1,0.5,0.2,0.8,0.3c0,0,0,0,0,0
		C69.3,239.6,65.6,236.9,64.1,237.7z"/>
	<path class="st0" d="M124,227.6c-1.7-0.3-1.3-1.9-1.7-3c-1-2.8,0.8-5.7,0-8.6c-0.3-1,1.1-1.8,2.3-2
		C124.2,218.5,123.9,223.1,124,227.6z"/>
	<path class="st6" d="M64.1,237.7c1.4-0.8,5.2,1.9,4.1-2.7c1.6,0.3,2.8,1.2,2.5,2.9c-0.3,1.9-2.1,1.1-3.3,1.2c-1.1,0.1-2.2,0-3.3,0
		C64.1,238.5,64.1,238.1,64.1,237.7z"/>
	<path class="st6" d="M66.8,232.9c-0.8,0.8-1.8,1-2.6,0.4c-0.6-0.4,0.2-0.8,0.6-1.1c0.2,0,0.4,0,0.6,0.1
		C66,232.5,66.4,232.7,66.8,232.9z"/>
	<path class="st6" d="M68.2,235c-0.3-0.1-0.5-0.2-0.8-0.3c0.3-0.1,0.5-0.2,0.8-0.3C68.2,234.5,68.2,234.7,68.2,235z"/>
	<path class="st6" d="M230.1,101.7c-0.3,0.2-0.6,0.3-1,0.5C229.4,102.1,229.7,101.9,230.1,101.7z"/>
	<path class="st7" d="M81.5,146.1c0.5-0.2,1-0.5,1.5-0.7c4.1,0.2,7.4,2.8,11.3,3.7c1.4,0.3,2.6,1.2,4.2,0.6c0.6-0.2,1.5-0.4,1.6,0.5
		c0,0.3-1,0.7-1.5,1.1C92.7,149.9,86.9,149,81.5,146.1z"/>
	<path class="st6" d="M74.3,152.3c0.2-0.3,0.3-0.6,0.5-0.8c0,0.2,0,0.4,0,0.7C74.7,152.2,74.5,152.3,74.3,152.3z"/>
	<path class="st6" d="M74.9,151.4c0.2-0.2,0.4-0.4,0.6-0.6C75.3,151,75.1,151.2,74.9,151.4z"/>
	<path class="st4" d="M97.7,85.2c4.1-1.5,8.2-2.9,12.3-4.4c-0.9,1.7-2.7,2.3-4.3,3.1c-2.8,1.5-3,2.1-0.4,4.1c4.1,3.1,9,3.7,14,4.2
		c1.2,0.1,2.5,0.1,3.7,0c2.7,0,4.5,1.2,5.5,3.6c1,2.4,2.3,4.7,2.8,7.2c0.7,3.6,2.3,4.7,5.6,3.3l0,0c-1.4,2.6-4.3,3.5-6.2,5.5
		c-0.9-3.6-1.8-7.1-2.7-10.7c-0.9-3.9-2.9-6-7.3-6.4c-5.6-0.4-11-1.9-16.1-4.3C101.8,89.3,98.9,88.3,97.7,85.2z"/>
	<path class="st4" d="M109.9,80.8c0.1-0.9,0.5-1.3,1.4-1.4C111.3,80.3,110.8,80.7,109.9,80.8z"/>
	<path class="st4" d="M111.3,79.5c0.3-0.5,0.9-0.7,1.5-0.7C112.4,79.3,111.9,79.5,111.3,79.5z"/>
	<path class="st4" d="M136.9,106.4c0.1-0.1,0.3-0.3,0.4-0.4c0.1,0.1,0.1,0.2,0.2,0.3C137.3,106.3,137,106.3,136.9,106.4
		C136.8,106.3,136.9,106.4,136.9,106.4z"/>
	<path class="st1" d="M35.7,197c0.9-6.9,1.8-13.8,2.6-20.7c0.2-1.3,0.1-2.6,0.2-4c0.2-1.6,1.3-2.1,2.7-2.1c0.4,6.5-2.6,12.4-3,18.8
		c-0.1,2.2-1.4,4.3-0.2,6.8c0.7,1.4-0.8,2.6-2.5,2.9c-0.1-0.2-0.1-0.3,0.1-0.5C35.7,197.8,35.7,197.4,35.7,197z"/>
	<path class="st0" d="M62.8,141.4c0.2-1.2,0.5-2.4,2-2.7C64.6,139.9,64.3,141.1,62.8,141.4z"/>
	<path class="st0" d="M65.5,136.7c0-1,0.1-1.9,1.3-2C66.8,135.6,66.7,136.5,65.5,136.7z"/>
	<path class="st0" d="M148.3,156.9c-0.8,2-1.7,3.9-3.4,5.4C145.1,159.9,145.8,157.8,148.3,156.9z"/>
	<path class="st0" d="M153.1,148.9c-0.2,1.8-0.7,3.4-2.7,4.1C150.8,151.3,151.1,149.5,153.1,148.9z"/>
	<path class="st0" d="M150.4,153.5c-0.2,1.4-0.8,2.6-2,3.4C148.7,155.6,148.5,153.9,150.4,153.5z"/>
	<path class="st0" d="M154.3,147.4c0,0.8-0.4,1.3-1.2,1.5C153,148,153.5,147.5,154.3,147.4z"/>
	<path class="st4" d="M101.9,43.7c2.3,0.8,3.1,3,4.4,4.7c2.9,3.8,6.5,7,9.9,10.3c-0.1,1-1,1.9-0.6,3.1c-0.1,0.2-0.2,0.5-0.3,0.7
		C108,58.2,104.5,51.3,101.9,43.7z"/>
	<path class="st4" d="M101.2,42.1c0.5,0.4,0.8,0.9,0.7,1.6C101.3,43.4,101.2,42.8,101.2,42.1z"/>
	<path class="st0" d="M44.8,191.4c-1.4,0.2-2.5,0.2-2-1.9c1.3-5.7,2.2-11.4,3.8-17c0.3-1.1,0.7-2.2,1.7-2.8
		c6.7-3.9,12.4-9.6,19.9-12.2c0,0.9-0.4,1.8-1,2.4c-2.4,2-4.3,4.6-7.1,6.1c-4.3,2.4-6.9,6.4-9.9,10.1c-0.5,0.6-1.2,2-0.1,3
		C47.8,183,46.3,187.2,44.8,191.4z"/>
	<path class="st0" d="M60.2,228.9c-1.8,1.1-3.7,0.7-4.8-0.9c-3.8-5.5-8-10.8-10.7-17c-0.7-1.6-0.5-2.7,0.8-3.7
		C49.7,214.9,55.5,221.5,60.2,228.9z"/>
	<path class="st6" d="M50.1,179.1c-1.2-1-0.4-2.5,0.1-3c2.9-3.7,5.5-7.7,9.9-10.1c2.8-1.5,4.7-4.1,7.1-6.1c0.7-0.6,1-1.5,1-2.4
		c0,0,0,0,0,0c0.2-0.2,0.4-0.4,0.7-0.7c0,0,0,0,0,0c0.2-0.2,0.4-0.4,0.7-0.7c0,0,0,0,0,0c0.2-0.2,0.4-0.4,0.7-0.7c0,0,0,0,0,0
		c0.2-0.2,0.5-0.4,0.7-0.7c0.7-1.5,0.7-4,3.5-2.5c-3.2,6-7.6,11.1-13,15.2C57,170.8,53.1,174.5,50.1,179.1z"/>
	<path class="st0" d="M38.5,199.2c0.1-0.3,0.1-0.7,0.3-1c1.1-1.7,2.6-3,4.7-2.2c2.3,0.9,0.7,3,1,4.8
		C42.8,198.3,40.8,198.4,38.5,199.2L38.5,199.2z"/>
	<path class="st0" d="M70.9,154.8c-0.2,0.2-0.5,0.4-0.7,0.7C70.4,155.3,70.6,155.1,70.9,154.8z"/>
	<path class="st0" d="M38.6,199.3c-0.1,0.1-0.1,0.1-0.2,0.2c0,0-0.1-0.1-0.1-0.1C38.4,199.4,38.4,199.3,38.6,199.3
		C38.5,199.2,38.6,199.3,38.6,199.3z"/>
	<path class="st0" d="M69.5,156.2c-0.2,0.2-0.4,0.4-0.7,0.7C69.1,156.6,69.3,156.4,69.5,156.2z"/>
	<path class="st0" d="M68.8,156.9c-0.2,0.2-0.4,0.4-0.7,0.7C68.4,157.3,68.6,157.1,68.8,156.9z"/>
	<path class="st0" d="M70.2,155.5c-0.2,0.2-0.4,0.4-0.7,0.7C69.7,156,70,155.7,70.2,155.5z"/>
	<path class="st7" d="M35.7,197c0,0.4,0,0.8-0.1,1.2C35.3,197.8,35.3,197.4,35.7,197z"/>
</g>
</svg>
