<?xml version="1.0" encoding="utf-8"?>
<!-- Generator: Adobe Illustrator 23.0.1, SVG Export Plug-In . SVG Version: 6.00 Build 0)  -->
<svg version="1.1" id="Layer_1" xmlns="http://www.w3.org/2000/svg" xmlns:xlink="http://www.w3.org/1999/xlink" x="0px" y="0px"
	 viewBox="0 0 122.1 75.7" style="enable-background:new 0 0 122.1 75.7;" xml:space="preserve">
<style type="text/css">
	.st0{fill:#D1AE60;}
	.st1{fill:#17120C;}
	.st2{fill:#383838;}
	.st3{fill:#DABE85;}
	.st4{fill:#A8854A;}
	.st5{fill:#805F3F;}
	.st6{fill:#E2E2E3;}
	.st7{fill:#A5A5A9;}
	.st8{fill:#EAE9EA;}
	.st9{fill:#E0E0E1;}
	.st10{fill:#162735;}
</style>
<g id="sRBC4N_1_">
	<g>
		<path class="st0" d="M101.5,59.1c0.1,0,0.3,0,0.4-0.1c0.7,0.2,1.2-0.2,1.8-0.4c0.1,0,0.1,0,0.3,0c0.3,0.4,0.7,0.3,1.1,0.2l0,0
			c-0.1,0.5,0.5,0.5,0.6,0.6c0.6,0.3,0.9,0.5,0.7,1.2c0,0.3-0.1,0.5,0,0.7c0,0.3,0.1,0.5,0.4,0.6l0,0c0.1,0.4,0.1,0.8,0.8,0.7l0,0
			c0,0.1,0.2,0.1,0.3,0.1l0,0c0.2,0.5,1.1,0.9,1.9,0.8l0,0c0.2,0.2,0.4,0.6,0.7,0c0.1,0,0.3,0,0.4,0.1c0.2,0.1,0.3,0.1,0.4,0.1
			c0.3,0,0.4,0.1,0.6,0.2c-0.2,0.3-0.5,0.2-0.8,0.3l0,0c0-0.1-0.2-0.1-0.3-0.1c-0.1,0-0.3,0-0.2,0.2c0,0.1,0.2,0.1,0.2,0.2
			c0.2,0.1,0.5,0.1,0.7,0.3c-1.1,0.4-2.1,1-3.3,1.4c-0.5,0.2-0.9,0.3-1.5,0c-0.3-0.2-0.6-0.3-1-0.3c0-0.1-0.2-0.2-0.3-0.2
			c-0.8,0.1-1.7,0.3-2.5,0.4c-1.2,0.2-2.3,0.6-3.4,0.7c-0.1,0-0.3,0-0.3-0.1c0-0.1,0.1-0.3,0.1-0.3c0.4-0.2,0.6-0.5,1-0.7
			c1-0.7,2.1-1.3,3.1-1.8c0.1,0,0.2-0.2,0.2-0.3c0-0.1-0.2-0.1-0.3-0.1c-0.1,0-0.3,0-0.4,0.1c-1.9,0.4-3.7,1.1-5.7,1.5
			c-1,0.3-1.9,0.7-3,0.9c1.5-0.6,3.2-1.2,4.7-1.7c1.4-0.5,2.8-0.8,4.3-1.2c-1-0.3-1.9-0.1-3.1-0.1c1.1-0.7,2.2-1.3,3.2-1.8
			c0.5-0.2,0.9-0.4,1.2-0.7l0.1,0l0,0c-0.1,0-0.1,0-0.1,0.2c-0.5,0.1-0.9,0.4-1.4,0.6c-0.9,0.4-1.8,0.8-2.8,1.2
			c-2.8,1.2-5.7,2.2-8.8,2.3c-0.4,0.1-0.8,0-1.2,0c0,0,0,0,0,0.1c0.7,0.2,1.4,0.3,2.1,0.5c-0.8,0.7-1.7,1.2-2.7,1.8
			c-1.7,0.9-3.5,1.5-5.5,1.6c0.4-0.9,0.3-1.5-0.3-2.1c-0.2-0.1-0.2-0.4-0.1-0.5c0.3-1-0.1-1.7-0.9-2.3c0.1-0.2,0.2-0.2,0.4-0.2
			c-0.1,0-0.3,0-0.4-0.1c0.4-0.2,0.6-0.4,0.9-0.5c0.1-0.2,0.1-0.3,0.1-0.4c-0.2-0.1-0.3-0.1-0.4-0.1c-0.5,0.1-1,0.2-1.7,0.3
			c-0.7-0.2-1.1-0.8-1.6-1.1c-0.5-0.3-1.1-0.4-1.5,0c-0.7,0.5-1,1.4-1.7,2.1c0.5-0.1,0.9-0.1,1.3-0.2c0,0.3,0.1,0.7,0.1,0.9
			c-0.8,0.3-1.6,0.2-2.4,0.4c0.1-0.3,0.4-0.3,0.4-0.6c0.1-0.2,0.2-0.3,0.2-0.4c-0.2-0.2-0.3-0.1-0.4-0.1c-1.2,0.2-2.4,0.4-3.6,0.4
			c-1.6,0.1-3.2,0.1-4.9,0.2c-0.7,0-0.7,0.1-0.3,0.7c0.3,0.5,0.3,0.9-0.2,1.1l0,0c-0.2-0.5-0.4-0.2-0.7-0.2c0,0.1,0.2,0.1,0.2,0.1
			c0.1,0,0.4-0.1,0.4,0.1c0,0.3-0.2,0.2-0.4,0.2c-0.2,0.2-0.5-0.1-0.7,0.1c-1,0.6-2.2,0.6-3.2,1c-1.3,0.3-2.5,0.6-3.7,1
			c-1.2,0.3-2.4,0.8-3.7,0.7c-0.5-0.1-1.1,0-1.6,0.2c-1.7,0.5-3.4,0.8-5.1,0.8c-1.5,0.1-2.8,0-4.3,0.2c-0.4,0.1-0.6,0.4-0.9,0.3
			c-0.5,0.1-1,0.3-1.4,0.6c-0.3-0.1-0.5-0.1-0.7-0.2c-0.5-0.3-1.1-0.8-1.5-1.1c-0.2-0.1-0.2-0.4-0.4-0.1c-0.2,0.3-0.1,0.4,0.2,0.6
			c0.6,0.4,1.2,0.9,1.8,1.3c0.6,0.4,0.8,0.3,1-0.4c0.6-0.2,1.4-0.2,2.1-0.2c2-0.2,4.1-0.2,6.1-0.4l0.1,0C51,71,50.7,71,50.7,71.1
			c0.8,0.3,1.6-0.2,2.4-0.1c0.3,0,0.7,0,0.9,0c1.9,0.1,3.7,0.6,5.6,0.6c0.4-0.1,0.7,0,0.3-0.5c0.3,0,0.4-0.2,0.6-0.2l0,0
			c0,0.1,0.2,0.1,0.3,0c0.1,0,0.3,0,0.2-0.2c0-0.1-0.2-0.1-0.3-0.1s-0.3,0-0.4-0.1c0.6-0.4,1.2,0.1,1.9,0c0.3,0,0.5,0.1,0.7-0.1
			s-0.3-0.2-0.2-0.5c0.2-0.2,0.4,0.1,0.6,0.2c0.3,0.1,0.6,0.4,0.7,0.3c0.2-0.3-0.4-0.2-0.4-0.6c2.1-0.3,4.4-0.4,6.7-0.2
			c-0.8-0.6-1.4-0.6-2.1-0.8c1.1-0.6,3.5-0.9,6.4-1.1c0,0,0,0,0,0.1c-0.2,0.3-0.6,0.6-0.8,1.1c-0.6,0.8-0.1,1.8,0.8,2c0,0,0,0,0,0.1
			c-0.3,0-0.4,0.1-0.7,0.1c-1,0.3-1.9,0.6-3,0.9c-1.1,0-2,0.2-3,0.3c-2.9,0.4-5.8,0.6-8.7,0.8c-0.9,0-1.9,0.1-2.8,0.2
			c-0.8,0-1.6-0.2-2.4,0.1c-0.1,0-0.3-0.1-0.4-0.1c-1.5-0.3-3.1-0.3-4.7,0.2c-1,0.3-2.2,0.5-3.3,0.4c-1.2-0.2-2.5-0.6-3.6-0.9
			c-0.6-0.2-1.1-0.2-1.7-0.4c0-0.7-0.3-1.2-0.9-1.5c-0.2-0.1-0.3-0.1-0.4,0.1c-0.2,0.3-0.6,0.5-0.7,0.9c-0.1,0-0.1,0-0.3,0
			c-0.7-0.3-1.5-0.4-2.4-0.6c-0.1,0-0.3-0.1-0.4,0.1c-0.1,0.4-0.4,0.3-0.6,0.4c-2.8,0.3-5.5,0.7-8.3,1c-0.7,0.1-1.3,0.1-1.9-0.4
			c-0.4-0.2-0.3-0.5,0-0.7c0.9-0.4,1.8-0.7,2.5-1.1c1.4-0.6,2.8-1.2,4.4-1.1c0.1,0,0.3,0,0.2-0.2c-0.3-0.2-0.7,0-1-0.1
			c0.1,0,0.2-0.2,0.4-0.2c0.6-0.4,1.3-0.1,2,0c0.3,0,0.6,0.2,0.7,0c0.1-0.3-0.4-0.2-0.6-0.3c0.1-0.4,0.5-0.1,0.7-0.4
			c0.7,0,1.5,0,2.3-0.2c-0.7-0.2-1.5,0.1-2.2-0.1c0.4-0.2,0.8-0.3,1.2-0.3c2.3-0.6,4.7-0.8,6.9-1.3c-0.2,0.4-0.4,0.9-0.8,1.2
			C41.2,68,41,68.1,41,68.5c-0.3,0.5-0.2,0.7,0.5,0.9c0,0.1,0,0.1,0.2,0.2c0,0,0,0.1,0.1,0l-0.1,0c0-0.1,0-0.1-0.2-0.2
			c0-0.3-0.5-0.5-0.5-0.9c0.1,0,0.4-0.2,0.5-0.2c0.6-0.2,1.3-1.1,1.3-1.9l0.1,0c0.4,0.1,0.9-0.1,1.4,0.1l0,0l0,0
			c-0.2-0.1-0.2-0.2-0.2-0.4l0.1,0c0.8,0,1.6,0,2.3,0.1c0.5,0.1,1.1,0.1,1.5,0c1.1,0.1,2.2,0.2,3.4,0.2c0.1,0,0.4-0.1,0.4,0.1
			c0.3,0.4,0.6,0.2,1,0.1c0.4-0.1,0.6-0.4,0.9-0.5c1.1-0.8,1.7-0.9,3-0.7c-3,1.1-5.8,2.5-8.4,4.2c0.6,0.4,1.1,0.4,1.6,0
			c1.2-0.7,2.5-0.9,3.9-1c0.9,0,1.7,0,2.6-0.3c2.8-0.7,5.7-1.7,8.3-2.7c1.3-0.5,2.5-1.2,3.8-1.5c0.3,0,0.5,0.1,0.6-0.2
			c0-0.3-0.3-0.4-0.6-0.4c-0.3-0.1-0.5-0.1-0.8-0.1c-0.3,0-0.4-0.1-0.6-0.2s-0.3-0.2-0.3-0.4c0-0.3,0.2-0.2,0.4-0.2
			c0.9-0.3,1.7-0.3,2.5-0.2c0.3,0,0.5,0.1,0.9-0.1c0.1-0.8,0.4-0.9,0.8-0.9c0.7-0.1,1.3-0.1,2-0.2c0.1,0,0.4-0.2,0.5-0.1
			c0.3,0.4,0.8,0.1,1.1,0.1c0.8-0.3,1.5-0.5,2.3-0.8c0.4-0.2,0.9-0.3,1.3-0.2c0.3,0.1,0.5,0.1,0.9,0c0.1,0,0.5,0.1,0.5-0.2
			c0-0.3-0.3-0.1-0.4-0.1c-0.4,0.1-0.7,0.1-1.1,0c-0.1,0-0.3-0.2-0.2-0.4c0,0,0-0.3,0.1-0.2c0.8,0.1,1.7,0,2.6,0
			c2.7,0,5.2-0.4,7.7-1.3c1.8-0.7,3.6-1.3,5.4-1.4c0.1,0,0.3,0.1,0.4-0.3c-1.2-0.1-2.4,0.2-3.5,0.5c0.1-0.3,0.1-0.4,0.3-0.5
			c1.6-0.4,3.1-0.9,4.6-1.2c1-0.3,1.9-0.6,3-0.9c0,0,0,0.3,0.1,0c0.1-0.2,0.1-0.4,0.2-0.7l0,0c0.8-0.1,1,0.1,0.7,0.8
			c-0.3,0.7-0.6,1.4-1.5,1.7c-0.1,0-0.2,0.2-0.2,0.3l0,0c-0.6,0.2-1,0.7-0.9,1.3c0.1,0.4,0.3,0.9,0.8,1l0,0c0.2,0.4,0.5,0.5,0.9,0.5
			c0.4,0.1,0.9,0,1.3-0.1C100.7,59.3,101.2,59.5,101.5,59.1z M44,68.6c-0.1,0-0.1,0.2-0.1,0.3c-0.1,0-0.2,0.2-0.2,0.3
			c-0.6,0.6-1.4,0.5-2.1,0.5c0.3,0.4,0.6,0.3,0.8,0.3c0.3,0,0.5-0.1,0.7,0.2c-0.1,0.2-0.2,0.3-0.1,0.4c0.2,0.1,0.4,0.1,0.7-0.1
			c0.1,0,0.4-0.2,0.2-0.3c0-0.1-0.3,0-0.4-0.1c0.1-0.3,0.1-0.4,0.2-0.7c0.1,0,0.2-0.2,0.2-0.3C44,68.7,44,68.7,44,68.6
			c0.1,0,0.1,0,0.2-0.2c0.3,0,0.4-0.3,0.3-0.5l0.1-0.2c0.1,0,0.1-0.2,0.1-0.3l0,0c0,0.1,0,0.1,0,0.3L44.7,68
			c-0.1,0.2-0.2,0.3-0.3,0.5C44.1,68.5,44.1,68.5,44,68.6z M44.4,66.5c0,0,0-0.1-0.2-0.1c0,0,0,0-0.1,0
			C44.2,66.4,44.2,66.6,44.4,66.5c0,0.1,0.2,0.4-0.1,0.5c-0.3,0-0.5,0.1-0.8,0.1c-0.2-0.1-0.3-0.1-0.6-0.2c-0.4-0.1-0.7,0.1-0.9,0.5
			c-0.1,0.4,0.3,0.9,0.7,1c0.4,0.1,0.8-0.3,0.8-0.8c0.3,0,0.5-0.2,0.7-0.4c0.2,0.1,0.2,0.1,0.1,0C44.4,67.1,44.5,66.8,44.4,66.5z
			 M101.7,65.9c0.3,0,0.5-0.2,0.6-0.5c0-0.1-0.3-0.1-0.4-0.1c-0.3,0-0.7,0.1-0.6,0.4C101.2,66,101.6,65.9,101.7,65.9z M47,69
			c-0.2,0.2-0.7,0-0.6,0.4c0,0.3,0.3,0.1,0.4,0.2c0.3,0,0.5-0.2,0.5-0.5C47.4,68.9,47.2,69.1,47,69z M47.4,67.7
			c-0.1,0.2-0.7,0-0.6,0.5c0,0.3,0.3,0.1,0.4,0.2c0.3,0,0.5-0.2,0.6-0.5C47.9,67.6,47.6,67.7,47.4,67.7z M71.3,68.5
			c0.3,0,0.5-0.2,0.6-0.5c0-0.1-0.2-0.1-0.3-0.1c-0.2,0.2-0.7,0-0.7,0.4C70.7,68.6,71.1,68.4,71.3,68.5z M70.7,62.8
			c-0.3,0-0.7,0.1-0.6,0.4c0,0.3,0.3,0.1,0.4,0.1c0.3,0,0.7-0.1,0.6-0.4C71,62.8,70.8,62.9,70.7,62.8z M86,62.4
			c-0.3-0.1-0.4-0.1-0.7,0.1C85.5,62.6,85.8,62.5,86,62.4z M84.3,62.7c0.3,0.1,0.5,0.1,0.7-0.1C84.8,62.5,84.7,62.7,84.3,62.7z
			 M84,62.9l0.1,0c0,0,0,0,0.1,0C84.1,62.9,84.1,62.9,84,62.9L84,62.9z M104.9,59.9L104.9,59.9L104.9,59.9L104.9,59.9L104.9,59.9z"
			/>
		<path class="st1" d="M41.8,66.1c-2.3,0.5-4.7,0.6-6.9,1.3c-0.4,0.1-0.8,0.1-1.2,0.3c0.7,0.2,1.5,0,2.2,0.1
			c-0.7,0.4-1.4,0.4-2.3,0.2c-0.7,0-1.4-0.3-2.1,0.2c0.5-0.1,1,0.3,1.5,0.2c0.3,0.1,0.7,0,0.6,0.3c0,0.3-0.4,0.1-0.7,0
			c-0.7,0-1.3-0.3-2,0c-0.1,0-0.2,0.2-0.4,0.2c0.4,0.1,0.7-0.1,1,0.1c0,0.1-0.1,0.2-0.2,0.2c-1.6,0-3,0.6-4.4,1.1
			c-0.9,0.4-1.8,0.7-2.5,1.1c-0.4,0.2-0.5,0.3,0,0.7c0.6,0.4,1.3,0.5,1.9,0.4c2.8-0.3,5.5-0.7,8.3-1c0.3,0,0.5,0.1,0.6-0.4
			c0-0.1,0.3,0,0.4-0.1c0.8,0.1,1.5,0.3,2.4,0.6c-0.1,0.3-0.3,0.5-0.3,0.8c-4,0.3-7.8,1-11.7,1.5c-0.8,0.1-1.5,0.1-2-0.6
			c-0.2-0.1-0.2-0.1-0.3,0c-0.5,0.5-1,0.6-1.6,0.4c-1.4-0.5-2.7-0.1-4-0.1c-2.8,0.3-5.6,0.4-8.4,0.5c-0.1,0-0.4,0.1-0.5,0.1
			c0,0-0.1,0-0.3-0.1c-2,0-4-0.1-6.1-0.2c0.2-0.3,0.6-0.4,1-0.6c-0.8-0.1-1.5-0.3-2.3-0.9c1.9-0.7,3.7-1.1,5.5-1.6
			c3.2-0.9,6.6-1.5,9.9-2.3c1.6-0.4,3.1-1,4.5-1.9c0.7-0.1,1.2-0.3,1.8-0.3c2.2,0.2,4.5,0.1,6.5-0.3c0.1,0,0.4-0.1,0.7-0.1
			c-0.2-0.2-0.4-0.1-0.5-0.3c0.1-0.2,0.3,0,0.5-0.1c0.7,0.2,1.4,0.2,2,0c0.1,0,0.2-0.2,0.4-0.1c0,0.3-0.1,0.2-0.2,0.2
			c-0.9,0.1-1.8,0.3-2.7,0.6c-0.4-0.1-0.8,0.3-1.2,0.3c-2,0.3-3.8,0.4-5.7,0.5c-0.4,0.1-0.7,0-1,0.3c1.5-0.1,2.8-0.2,4.2,0.2
			c0.1,0,0.4-0.1,0.3,0.2c-0.1,0.3-0.3,0-0.4,0.1c-1.4-0.2-2.7-0.3-4.1-0.2c-0.3,0-0.4-0.1-0.6,0.2c0.8,0,1.6,0,2.3,0.3
			c-0.8,0.1-1.6,0.1-2.4,0.2c-0.4-0.1-0.9,0-1.3,0.1c0.5,0.1,1.1,0.2,1.7,0.3c0.3,0.1,0.6,0.2,0.8,0.3c-0.1,0.4-0.4,0.1-0.5,0.2
			c-0.6-0.3-1.3-0.3-1.9-0.4c-1-0.1-1.9,0.1-2.8,0.3c0-0.3,0.1-0.3,0.2-0.4c-0.4-0.1-0.9,0-1.3,0.1c-0.3,0-0.1,0.2,0,0.3
			c0.1,0.4,0.5,0.3,0.6,0.7c-1.7,0.1-3.3,0.4-4.9,0.7c-1.6,0.4-3.3,0.6-4.9,1.2c0.3,0.1,0.4,0.2,0.6,0.2c0.8,0.3,1.5,0.3,2.4,0.2
			c2.3-0.2,4.4-0.4,6.7-0.1c1.2,0.2,2.5,0.3,3.8,0.1c0.5-0.1,1-0.2,1.6-0.4c-0.3-0.4-0.7-0.3-1-0.5c3.5-0.9,7-1.9,10.4-2.8
			c-0.3-0.2-0.5-0.1-1-0.1c0.2-0.2,0.4-0.2,0.5-0.2c4.9-2.2,10-4.2,15.2-5.8c0.6-0.2,1.3-0.2,1.8-0.7c1.8-0.4,3.5-0.9,5.3-1.3
			c1.2-0.3,2.5-0.5,3.8-0.8c-0.6-0.3-1.1-0.4-1.6-0.6l0,0c0.6-0.2,1.2-0.2,1.9-0.1c1.7-0.1,3.6-0.1,5.3-0.1c0.4-0.1,0.4-0.3,0.4-0.6
			c0.1-0.3,0.1-0.4,0.5-0.3c2.4,0.4,4.5,0.1,6.6-0.7c0.1,0,0.3,0,0.4-0.2c-0.1,0.3-0.2,0.6-0.3,0.7c0.8,0,1.6,0,2.4-0.1
			c0.3,0,0.2-0.2,0.2-0.4c0-0.3-0.1-0.4,0.3-0.5c3.6-0.8,7.3-1.4,11-1.9c2-0.3,3.8-0.4,5.8,0.1s4,0.1,6-0.4c1.4-0.4,2.8-0.7,4.2-1.3
			c-0.1,0.3-0.3,0.5-0.6,0.6l0,0c-0.5-0.1-0.4,0.3-0.3,0.6c-1,0.3-1.9,0.6-3,0.9c-1.6,0.4-3.1,0.9-4.6,1.2c-0.3,0-0.4,0.2-0.3,0.5
			c1.2-0.3,2.3-0.6,3.5-0.5c-0.1,0.3-0.2,0.3-0.4,0.3c-1.9,0-3.7,0.7-5.4,1.4c-2.5,0.9-5,1.3-7.7,1.3c-0.8,0-1.7,0.1-2.6,0
			c-0.1,0-0.1,0.2-0.1,0.2c-0.1,0.2,0.1,0.4,0.2,0.4c-0.2,0.6,0.2,0.5,0.6,0.4c0.1,0,0.4-0.2,0.4,0.1c0,0.3-0.2,0.2-0.5,0.2
			s-0.7,0.1-0.9,0c-0.4-0.1-0.9,0-1.3,0.2c-0.8,0.3-1.5,0.5-2.3,0.8c-0.4,0.1-0.8,0.3-1.1-0.1c0-0.1-0.3,0-0.5,0.1
			c-0.7,0.1-1.3,0.1-2,0.2c-0.4,0.1-0.8,0.1-1,0.3c-0.2,0.2-0.5,0.2-0.9,0.1c-0.8,0-1.7,0-2.5,0.2c-0.1,0-0.4,0.1-0.4,0.2
			c0,0.1,0.2,0.2,0.3,0.4c0.2,0.1,0.4,0.2,0.6,0.2c0.3,0,0.5,0.1,0.8,0.1c0.3,0.1,0.7,0.2,0.6,0.4c0,0.3-0.4,0.2-0.6,0.2
			c-1.3,0.3-2.5,1.1-3.8,1.5c-2.7,1.1-5.5,2-8.3,2.7C55.3,68,54.5,68,53.6,68c-1.3,0.1-2.6,0.3-3.9,1c-0.5,0.3-1,0.4-1.6,0
			c2.5-1.9,5.4-3.2,8.4-4.2c-1.2-0.2-2,0-3,0.7c-0.2,0.2-0.6,0.5-0.9,0.5c-0.3,0-0.6,0.4-1-0.1c-0.2-0.1-0.3-0.1-0.4-0.1
			c-1,0.2-2.3-0.1-3.4-0.2c-0.4-0.2-1-0.1-1.5-0.4c1.1,0,2-0.2,3.1-0.2c-0.2-0.2-0.5-0.3-0.6-0.6c1.1,0,2.1,0.4,3.1,0.1
			c1-0.3,1.9-0.8,2.7-1.6c-0.9,0-1.9,0.1-2.8,0.4c0.3-0.5,0.3-0.7-0.1-0.9c-0.3-0.2-0.6-0.2-0.9-0.4c-0.3-0.2-0.5-0.1-0.8,0.3
			c-0.2,0.4-0.6,0.6-1.1,0.8c-1.5,0.5-3.2,1.2-4.7,1.7c-1.5,0.5-3.1,1-4.6,1.5c1.3-0.1,2.5-0.4,3.8-0.7c0.1,0,0.5-0.2,0.6,0.2
			l-0.1,0c-0.4,0.1-0.8,0.3-1.2,0.3l-0.1,0C42.2,66.1,42,66.1,41.8,66.1z M81.2,58c-0.9,0.4-1.8,0.4-2.7,0.9c4,0.1,7.9-0.1,11.5-1.9
			c-2.7,0.6-5.6,1.1-8.5,1.8c1-1.4,2.8-1.1,3.8-2.3c-1.4,0.2-2.7,0.6-4,0.9C80.9,57.6,80.7,57.7,81.2,58z"/>
		<path class="st1" d="M105.5,65.7c0.4-0.2,0.7,0,1,0.3c0.5,0.3,1,0.3,1.5,0c1.1-0.4,2.2-0.9,3.3-1.4c-0.2-0.2-0.4-0.2-0.7-0.3
			c-0.1,0-0.2-0.1-0.2-0.2c0-0.1,0.1-0.2,0.2-0.2c0,0.1,0.2,0.1,0.3,0.1l0,0c0.2,0.1,0.3,0.1,0.4,0.2c0.1,0,0.3,0.2,0.4-0.1
			c0.1-0.2,0.1-0.3-0.1-0.5s-0.3-0.2-0.6-0.2c-0.2-0.1-0.3-0.1-0.4-0.1c-0.2-0.1-0.3-0.1-0.4-0.1c-0.3,0-0.4-0.1-0.7,0l0,0
			c-0.6-0.3-1.1-0.5-1.9-0.8l0,0c0-0.1-0.2-0.1-0.3-0.1l0,0c-0.2-0.2-0.5-0.5-0.8-0.7l0,0c0-0.1,0-0.1,0-0.3c1,0.5,2.2,0.6,3.3,0.7
			c1.7,0.5,3.2,0.9,4.3,1.9c0.5,0.3,1,0.3,1.5,0.3c-0.3,0.5-0.2,0.6,0.2,0.6c0.1,0,0.4,0.1,0.5,0.3c-1,0.3-1.9,0.6-3,0.9
			c-3,0.9-6,1.7-9,2.4c-2.6,0.7-5,1.6-7.6,1.8c-1.4,0.2-2.9,0.2-4.4,0.4c-1.9,0.4-3.7,1.1-5.6,1.8c-3.3,1.3-6.9,1.7-10.4,1.4
			c-2.7-0.3-5.5,0.2-8,1c-0.1,0-0.3,0-0.4,0.1c0-0.1,0.1-0.4,0.1-0.5c-0.1-0.5,0-0.8,0.7-0.6c0.1,0,0.3,0,0.2-0.2
			c0-0.1-0.2-0.2-0.2-0.2c-0.2-0.1-0.3-0.1-0.4-0.1c0-0.3,0.2-0.2,0.5-0.3c0.4-0.3,0.6-0.4,0.8,0.1c0,0.1,0.2,0.1,0.3,0.1
			c0.2-0.4,0.5-0.2,0.8-0.1c0.4,0.1,0.9,0,0.9-0.1c0.1-0.5,0.2-0.3,0.5-0.2c0.2,0.1,0.3,0.1,0.5,0.1c0.6-0.2,1.3-0.3,1.9-0.6
			c0.4-0.2,0.9,0,1.1-0.4c0.1,0,0.2-0.2,0.4,0.1c0.2,0.4,0.5,0.5,0.8,0.7c0.1,0.4,0.3,0.4,0.6,0.2c0.3,0.1,0.5-0.1,0.9-0.3
			c0,0.1,0,0.1,0,0.3l0,0l0,0c1,0.1,2,0,2.9-0.4c0.8-0.1,1.5-0.6,2.3-1c0.4-0.2,0.5-0.3,0.6,0.2c0,0.1,0,0.3,0.3,0.2
			c1.4-0.4,2.8-0.7,4-1.8c0.5-0.3,0.9-0.5,1.4-0.4c0.6,0.2,1.1,0.2,1.6,0.2c1.8-0.3,3.6-0.8,5.6-1.3c2.2-0.6,4.3-1.2,6.3-1.8
			C104.1,66.7,105.1,66.8,105.5,65.7z"/>
		<path class="st0" d="M29.6,66c-2.2,0.5-4.4,0.4-6.5,0.3c-0.7,0-1.3,0.2-1.8,0.3c0.2-0.6,0.7-0.9,1-1.2c1.7-1.3,3.5-2.3,5.6-2.9
			c3.7-1.1,7.7-1.4,11.5-2c3.5-0.5,7-0.9,10.5-1.5c1.2-0.2,2.2,0.1,2.9,1.2c-1.8,0.5-3.5,1.1-5.3,1.3c-1-0.3-2-0.2-2.9,0
			c-1.4,0.4-2.8,0.8-4.3,1.1c-2.1,0.3-4.2,0.6-6.3,1c-3.2,0.3-6.3,1-9.4,2c-0.3,0-0.5-0.1-0.8,0.3c1.1,0.1,2.2,0.2,3.2,0l0.1-0.2
			c0.2,0.1,0.3,0.2,0.6,0.2c0.3,0,0.4-0.1,0.7,0c0,0,0,0.1,0.2,0.1c0,0,0,0,0-0.1c0.4-0.1,0.8-0.1,1.2,0C29.6,66,29.6,66,29.6,66z"
			/>
		<path class="st2" d="M116.5,65.2c0-0.3-0.3-0.4-0.5-0.3c-0.4-0.1-0.6-0.3-0.2-0.6c0.1,0,0.3,0,0.4-0.1c0.7,0.4,1,0.4,1.2-0.2
			c0.4-0.1,0.9-0.1,1.3-0.2c0,0.3,0.3,0.4,0.4,0.6c-0.1,0.2-0.4,0.2-0.5,0.3c0-0.3-0.2-0.2-0.3-0.4c-0.3,0-0.4,0.2-0.4,0.3
			c0,0.1,0.1,0,0.3,0.1C117.6,64.9,117,65,116.5,65.2z"/>
		<path class="st3" d="M99.2,53.8c0.2-0.2,0.5-0.3,0.6-0.6c0.6,0.7,0.4,2.4-0.4,2.9c-0.4,0.2-0.7,0.4-1.1,0.6c0-0.1,0.1-0.3,0.2-0.3
			c0.9-0.3,1.2-1,1.5-1.7C100,53.9,99.9,53.7,99.2,53.8z"/>
		<path class="st3" d="M106.7,61.8c0,0.1,0,0.1,0,0.3c-0.4-0.1-0.5-0.3-0.4-0.6c0-0.3,0.1-0.5,0-0.7c0-0.7-0.1-0.9-0.7-1.2
			c-0.3-0.1-0.7,0-0.6-0.6c1.2,0.2,1.9,1.3,1.7,2.2C106.7,61.2,106.6,61.5,106.7,61.8z"/>
		<path class="st3" d="M98.1,59c-0.6-0.2-0.8-0.6-0.8-1c-0.1-0.7,0.2-1.1,0.9-1.3c0,0.3-0.3,0.5-0.4,0.7C97.6,58,97.7,58.6,98.1,59z
			"/>
		<path class="st3" d="M101.5,59.1c-0.2,0.4-0.8,0.3-1.1,0.4c-0.4,0.2-0.8,0.1-1.3,0.1c-0.4,0.1-0.8,0-0.9-0.5
			C99.3,59.5,100.3,59.2,101.5,59.1z"/>
		<path class="st1" d="M119,64.3c0.1-0.3-0.3-0.4-0.4-0.6c0.3,0,0.7-0.1,0.9-0.1C119.4,64,119.2,64.2,119,64.3z"/>
		<path class="st1" d="M117.3,63.9c-0.2,0.6-0.6,0.6-1.2,0.2C116.5,64,116.9,64,117.3,63.9z"/>
		<path class="st3" d="M103.7,58.6c-0.5,0.2-1.1,0.4-1.8,0.4C102.5,58.6,103,58.6,103.7,58.6z"/>
		<path class="st1" d="M118.1,64.7c-0.1,0-0.3,0-0.3-0.1s0.1-0.4,0.4-0.3c0.1,0,0.3,0.1,0.3,0.4C118.3,64.7,118.2,64.7,118.1,64.7z"
			/>
		<path class="st3" d="M105,58.8c-0.4,0.1-0.8,0.1-1.1-0.2C104.2,58.5,104.7,58.6,105,58.8z"/>
		<path class="st1" d="M55,58.9L55,58.9L55,58.9z"/>
		<path class="st4" d="M75.8,71.8c-0.2,0.4-0.7,0.4-1.1,0.4c-0.6,0.2-1.3,0.3-1.9,0.6c-0.1,0-0.3,0-0.5-0.1
			c-0.2-0.1-0.3-0.4-0.5,0.2c-0.1,0.3-0.6,0.2-0.9,0.1c-0.3,0-0.6-0.3-0.8,0.1c0,0-0.3,0-0.3-0.1c-0.2-0.5-0.5-0.5-0.8-0.1
			c-0.1,0.2-0.4,0.1-0.5,0.3c-0.3,0-0.4-0.1-0.7,0c-0.3-0.1-0.6-0.3-1-0.1c0,0.3,0.3,0.2,0.5,0.3c-0.7,0.1-1.3,0.1-2,0.2
			c-0.2-0.1-0.2-0.1-0.3-0.1c-0.3,0-0.7,0-1-0.1c-0.2-0.1-0.3-0.2-0.5-0.3c-0.5-0.5-1-0.5-1.5,0c-0.1,0-0.1,0-0.3,0
			c0,0-0.1,0-0.1,0.2c-0.1,0-0.2,0.2-0.4,0.2c-0.1,0-0.1,0-0.2,0.2c0,0,0,0-0.1,0c-0.5,0.2-1.2,0.3-1.7,0.4c-2,0-4-0.6-5.8-1.1
			c0.8-0.3,1.6-0.1,2.4-0.1c0.9,0,1.9-0.1,2.8-0.2c2.9-0.2,5.8-0.5,8.7-0.8c1-0.2,2-0.3,3-0.3c-0.6,0.2-1.3,0.5-1.8,0.7
			c1.9-0.1,3.8-0.7,5.6-1c0.1,0,0.3,0,0.2-0.2c0,0,0,0,0,0.1C75.2,71.3,75.4,71.6,75.8,71.8z"/>
		<path class="st1" d="M53.7,72.9c2,0.6,3.8,1.2,5.8,1.1c0.5,0.1,1.2-0.2,1.7-0.4c0.1,0.4-0.1,0.5-0.5,0.5c-0.4-0.1-0.8,0.3-1.2,0.2
			c-0.2-0.1-0.1,0.4-0.4,0.3c-0.8-0.3-1.7-0.3-2.5-0.4c-1.7-0.3-3.3-0.6-4.9-0.6c-0.8,0-1.6,0.1-2.4,0.4c-1.9,0.4-3.8,0.3-5.7-0.3
			c-0.8-0.3-1.7-0.4-2.5-0.8c0.1-0.2,0.2-0.4,0.4-0.6c1.2,0.2,2.4,0.7,3.6,0.9c1.1,0.1,2.3,0.1,3.3-0.4c1.5-0.5,3-0.5,4.7-0.2
			C53.4,72.8,53.5,72.8,53.7,72.9z"/>
		<path class="st1" d="M62.3,73.2c0.5-0.5,1-0.4,1.5,0c0.2,0.1,0.3,0.2,0.5,0.3c-0.1,0.2-0.4,0.3-0.5,0.3c-0.2,0.2-0.4-0.1-0.3-0.2
			c0-0.1,0.2-0.3-0.1-0.4s-0.4-0.1-0.7,0.1C62.5,73.7,62.2,73.6,62.3,73.2z"/>
		<path class="st1" d="M67.4,73.5c-0.2-0.1-0.4-0.1-0.5-0.3c0.4-0.2,0.7,0,1,0.1C67.8,73.4,67.7,73.5,67.4,73.5z"/>
		<path class="st1" d="M61.3,73.8c0.1,0,0.1,0,0.2-0.2C61.4,73.7,61.4,73.7,61.3,73.8z"/>
		<path class="st1" d="M65.2,73.7c0.1,0,0.1,0,0.3,0.1C65.3,73.8,65.2,73.8,65.2,73.7z"/>
		<path class="st1" d="M61.9,73.4C61.9,73.4,62.1,73.4,61.9,73.4C62.1,73.4,61.9,73.4,61.9,73.4z"/>
		<path class="st1" d="M41.6,72.3c-0.2,0.2-0.2,0.3-0.4,0.6c-1.1-0.4-2.4-0.7-3.6-0.5c-0.2-0.4,0.2-0.6,0.3-0.8c0.1,0,0.1,0,0.3,0
			c0.2,0.1,0.3,0.2,0.4,0.2c0.3,0.1,0.4,0.2,0.8,0.1c0.2,0.1,0.4,0.1,0.5,0.1C40.5,72.1,41.1,72.1,41.6,72.3z"/>
		<path class="st4" d="M105.5,65.7c-0.4,1-1.3,1-2.1,1.3c-2.1,0.6-4.3,1.2-6.3,1.8c-1.8,0.4-3.6,1-5.6,1.3c-0.5,0.1-1.1,0-1.6-0.2
			c-0.6-0.2-1-0.1-1.4,0.4c-1.2,1-2.6,1.3-4,1.8c-0.3,0-0.3-0.1-0.3-0.2c-0.1-0.5-0.2-0.4-0.6-0.2c-0.7,0.4-1.5,0.9-2.3,1
			c0.1-0.4,0.3-0.7,0.6-1c0.6-0.8,1.1-1.4,1.6-2.1c1.7-0.4,3.5-0.5,5.2-1.3c0.9-0.4,1.8-0.4,2.7-1.1c0.7-0.5,1.7-0.9,2.6-1.2
			c1.1,0,1.9-0.6,3-0.9c1.9-0.6,3.7-1.2,5.7-1.5c0.1,0,0.3,0,0.4-0.1c0.1,0,0.3,0,0.3,0.1c0,0.1-0.1,0.3-0.2,0.3
			c-1,0.6-2.1,1.3-3.1,1.8c-0.4,0.2-0.6,0.4-1,0.7c-0.1,0-0.2,0.2-0.1,0.3c0,0.1,0.2,0.1,0.3,0.1c1.2,0,2.4-0.4,3.4-0.7
			c0.8-0.1,1.7-0.3,2.5-0.4C105.3,65.6,105.4,65.6,105.5,65.7z M92.5,67.1c-0.8,0.3-1.7,0.4-2.5,0.6C90.9,67.7,91.8,67.7,92.5,67.1z
			 M100.5,64.2c-0.2,0.2-0.5,0.1-0.6,0.5c0,0.3,0.3,0.1,0.4,0.1c0.3,0,0.7-0.1,0.6-0.5C100.9,64.1,100.7,64.3,100.5,64.2z
			 M100.8,66.8c-0.3-0.1-0.7,0.1-0.9,0.1c-0.1,0-0.1,0.2-0.1,0.3c0,0.1,0.2,0.1,0.3,0.1C100.3,67.3,100.6,67.3,100.8,66.8z
			 M104.2,66.2c-0.3-0.1-0.5,0.1-0.8,0.1c-0.1,0-0.2,0.2-0.2,0.3c0,0.1,0.2,0.1,0.3,0.1C103.7,66.6,104.1,66.5,104.2,66.2z
			 M94.2,68.4c-0.4-0.2-0.8-0.1-1.2-0.2c0,0-0.1,0-0.1,0.2s0,0.1,0.2,0.1C93.4,68.4,93.7,68.6,94.2,68.4z M90.7,69.2
			c0.1,0,0.3,0,0.2-0.2l0-0.1c-0.3-0.1-0.6-0.2-0.8-0.3L90,68.7C90,69,90.4,68.9,90.7,69.2L90.7,69.2z M91.6,69.3
			c0.1,0,0.6-0.6,0.4-0.7c0-0.1-0.2-0.1-0.2-0.1c-0.1,0-0.6,0.6-0.4,0.7C91.5,69.3,91.6,69.3,91.6,69.3z M96.5,66.8
			c-0.5-0.1-0.8,0-1,0.2l0,0.1c0.3,0.1,0.5-0.1,0.8-0.1C96.4,67,96.4,66.8,96.5,66.8z"/>
		<path class="st4" d="M52.6,70.7c-0.8-0.1-1.6,0.4-2.4,0.1c0.1-0.2,0.3,0,0.4-0.2c0,0,0,0-0.1,0c-2,0.2-4.1,0.2-6.1,0.4
			c-0.7,0.1-1.5,0-2.1,0.2l-0.1,0c0.4-0.3,0.9-0.5,1.4-0.6c0.4-0.1,0.6-0.2,0.9-0.3c1.4-0.2,2.8-0.2,4.3-0.2c1.7,0,3.5-0.3,5.1-0.8
			c0.5-0.2,1-0.3,1.6-0.2c1.4,0.1,2.5-0.4,3.7-0.7c1.3-0.3,2.5-0.6,3.7-1c1-0.3,2.2-0.3,3.2-1c0.1-0.2,0.4,0.1,0.7-0.1
			c0.1,0,0.4-0.1,0.4-0.2c0-0.3-0.3-0.1-0.4-0.1c0,0-0.1,0-0.2-0.1c0.3,0,0.5-0.3,0.7,0.2l0,0l0,0c0.4-0.2,0.4-0.6,0.2-1.1
			c-0.4-0.6-0.4-0.6,0.3-0.7c1.6-0.1,3.2-0.1,4.9-0.2c1.2,0,2.4-0.1,3.6-0.4c0.1,0,0.4-0.2,0.4,0.1c0,0.1-0.1,0.3-0.2,0.4
			c-0.1,0.3-0.4,0.3-0.4,0.6l-0.1,0c-2,0.2-4.1-0.2-6.1,0.3c0.5,0.5,0.9,0.7,1.3,0.7c0.4,0.1,1,0.1,1.4,0.2
			c-1.3,0.6-2.5,0.9-3.8,1.3c-2.4,0.8-4.9,1.4-7.4,1.9c-2.5,0.5-5,0.9-7.5,1.3C53.5,70.4,53,70.3,52.6,70.7z M55.2,69.2
			c-0.1,0.2-0.5,0.1-0.6,0.5c0,0.3,0.3,0.1,0.4,0.2c0.3,0,0.5-0.2,0.6-0.5C55.6,69,55.4,69.2,55.2,69.2z M69.6,65.8
			c0.4,0.2,0.6,0.3,1,0.4c0.1,0,0.1,0,0.2-0.2c0-0.1,0-0.1-0.2-0.1C70.4,65.8,70.1,65.6,69.6,65.8z M68.7,66.1
			c0.4-0.2,0.6-0.2,0.9-0.5l0-0.1C69.2,65.5,68.9,65.6,68.7,66.1z"/>
		<path class="st1" d="M52.6,70.7c0.5-0.2,1-0.3,1.4-0.4c2.5-0.4,5-0.8,7.5-1.3c2.5-0.5,4.9-1.2,7.4-1.9c1.3-0.5,2.6-0.7,3.8-1.3
			c-0.4-0.1-1-0.1-1.4-0.2c-0.4-0.1-1-0.3-1.3-0.7c2.1-0.5,4.1-0.1,6.1-0.3c-0.6,1-1.3,1.9-2.1,2.9c-2.8,0.2-5.3,0.5-6.4,1.1
			c0.7,0.2,1.5,0.2,2.1,0.8c-2.3-0.2-4.5-0.1-6.7,0.2c0.1,0.4,0.6,0.3,0.4,0.6c-0.1,0.2-0.4-0.2-0.7-0.3c-0.2-0.1-0.3-0.2-0.6-0.2
			c-0.1,0.3,0.3,0.4,0.2,0.5s-0.4,0.1-0.7,0.1c-0.7,0-1.3-0.5-1.9,0c0,0.1,0.2,0.1,0.4,0.1c0.1,0,0.3,0,0.3,0.1
			c0,0.1-0.1,0.2-0.2,0.2c-0.1,0-0.1,0-0.3,0l0,0c-0.1,0-0.3-0.1-0.4-0.1c-0.1,0-0.2-0.4-0.4-0.2c-0.1,0.2,0.1,0.4,0.1,0.5
			c0.2,0.5-0.1,0.4-0.3,0.5c-1.9,0-3.7-0.5-5.6-0.6C53.2,70.6,52.9,70.6,52.6,70.7z"/>
		<path class="st1" d="M94.1,65.7c-0.9,0.3-1.9,0.6-2.6,1.2c-0.8,0.7-1.8,0.7-2.7,1.1c-1.6,0.8-3.5,0.9-5.2,1.3
			c-0.4-0.1-0.6,0.2-0.9,0.3c-0.9,0-1.7,0.3-2.6,0.5c-1.2,0.3-2.4,0.4-3.6,0.8c-0.4,0.1-0.8,0.1-1,0.2c-0.1-0.4-0.5-0.3-0.6-0.6
			l0.1,0c1-0.3,2.2-0.5,3.2-0.8c0.1,0,0.3,0,0.4-0.1c0.1,0,0.1,0,0.3,0c0.9,0.4,1.7,0.3,2-0.3c0.1-0.2,0.5,0.1,0.5-0.2
			c0-0.3-0.4-0.2-0.6-0.6c0.4,0.1,0.7,0.2,1.1,0.1c0.6,0.2,1.2,0.1,1.9,0c0.3,0.1,0.5,0.1,0.9-0.1c2-0.2,3.8-0.7,5.5-1.6
			c0.9-0.4,1.9-1,2.7-1.8c-0.8-0.1-1.4-0.3-2.1-0.5c0,0,0,0,0-0.1c0.4-0.1,0.8,0,1.2,0c3.1-0.1,6-1,8.8-2.3c0.9-0.4,1.9-0.8,2.8-1.2
			l0.2,0.1c-1,0.6-2.1,1.1-3.2,1.8c1.1,0,2.1-0.2,3.1,0.1c-1.4,0.4-2.8,0.7-4.3,1.2C97.2,64.4,95.5,64.9,94.1,65.7z"/>
		<path class="st4" d="M44,65.7c-0.1-0.4-0.3-0.2-0.6-0.2c-1.3,0.3-2.5,0.5-3.8,0.7c1.5-0.5,3.1-1,4.6-1.5c1.5-0.5,3.2-1.2,4.7-1.7
			c0.4-0.2,0.7-0.4,1.1-0.8c0.2-0.3,0.5-0.5,0.8-0.3c0.3,0.2,0.6,0.2,0.9,0.4c0.4,0.2,0.5,0.5,0.1,0.9c1-0.3,1.8-0.4,2.8-0.4
			c-0.8,0.7-1.7,1.3-2.7,1.6c-1,0.3-2-0.1-3.1-0.1c0,0.3,0.3,0.4,0.6,0.6c-1.1,0-2,0.2-3.1,0.2c0.6,0.3,1.1,0.2,1.5,0.4
			c-0.5,0.1-1.1,0-1.5,0C45.5,65.7,44.8,65.7,44,65.7z"/>
		<path class="st1" d="M73.9,67.4c0.8-0.9,1.5-1.8,2.1-2.9l0.1,0c0.8-0.1,1.6-0.1,2.4-0.4c0,0,0,0,0,0.1c-0.4,0.6-0.8,1.2-1.4,1.7
			c-0.5,0.1-1.2,0-1.7,0.3c0.3,0.4,0.7,0.4,1.1,0.8c-0.1,0.4-0.4,0.6-0.8,0.8C75.1,67.6,74.6,67.5,73.9,67.4
			C74,67.4,74,67.4,73.9,67.4z"/>
		<path class="st4" d="M81.7,62.5c0.5-0.1,1-0.2,1.7-0.3c0.1,0,0.3,0,0.4,0.1s0,0.3-0.1,0.4c-0.2,0.3-0.5,0.3-0.9,0.5
			c0.1,0,0.3,0.1,0.4,0.1c-0.1,0.2-0.3,0-0.4,0.2c-0.3,0-0.5,0.1-0.8,0.3l0,0c-0.2-0.1-0.3-0.1-0.5-0.1c-1,0.2-2.1,0.5-3.1,0.6
			c0,0,0,0,0-0.1c0-0.3-0.1-0.7-0.1-0.9l0,0c0.9,0,1.7-0.3,2.6-0.5c0.3,0.1,0.6,0.3,0.7,0.4c0.3,0.2,0.6,0.3,1,0.1
			C82.2,63.1,81.9,62.8,81.7,62.5z"/>
		<path class="st0" d="M81.7,62.5c0.2,0.4,0.5,0.6,0.9,0.8c-0.4,0.2-0.6,0.2-1-0.1c-0.2-0.2-0.6-0.3-0.7-0.4
			c-0.2-0.4-0.6-0.6-0.9-0.8c-0.3-0.2-0.7-0.4-1.1-0.1c-0.6,0.5-1,0.8-0.6,1.4l0,0c-0.4,0.1-0.8,0.1-1.3,0.2c0.7-0.8,1-1.5,1.7-2.1
			c0.4-0.3,1-0.3,1.5,0C80.7,61.7,81.1,62.3,81.7,62.5z"/>
		<path class="st0" d="M82.2,63.6c0.2-0.2,0.5-0.2,0.8-0.3c0.9,0.5,1.2,1.2,0.9,2.3c-0.1,0.2,0.1,0.4,0.1,0.5
			c0.6,0.6,0.7,1.4,0.3,2.1c-0.2,0.2-0.5,0.1-0.9,0.1c0.8-0.7,0.8-1.2,0.1-1.9c-0.2-0.2-0.4-0.6-0.3-1
			C83.7,64.5,83.5,64.2,82.2,63.6z"/>
		<path class="st1" d="M74.6,70.9c-0.1,0-0.2,0.2-0.2,0.2c-1.8,0.3-3.8,0.7-5.6,1c0.6-0.2,1.3-0.5,1.8-0.7c1-0.3,1.9-0.6,3-0.9
			c0.3,0,0.4-0.1,0.7-0.1C74.3,70.7,74.4,70.8,74.6,70.9z"/>
		<path class="st0" d="M74,67.4c0.5,0.1,1.1,0.1,1.8,0.1l0.1,0c-0.4,0.2-0.9,0.1-1.3,0.3c-0.3,0-0.4,0.1-0.6,0.4
			c-0.7,0.9-0.6,1.3,0.4,1.8c0.1,0,0.2,0.1,0.3,0.2l-0.1,0c-0.1,0-0.3,0-0.4,0.1c-1-0.1-1.4-1.3-0.8-2C73.5,68.2,73.7,67.7,74,67.4z
			"/>
		<path class="st0" d="M42.1,71.1C42.2,71,42.2,71,42.1,71.1c0,0.8-0.3,0.8-0.9,0.5c-0.6-0.4-1.2-0.9-1.8-1.3
			c-0.2-0.1-0.5-0.3-0.2-0.6c0.2-0.3,0.4,0.1,0.4,0.1c0.5,0.3,1.1,0.8,1.5,1.1C41.6,71.1,42,70.9,42.1,71.1z"/>
		<path class="st0" d="M43.6,67.7c-0.1,0.5-0.4,0.9-0.8,0.8c-0.4-0.1-0.8-0.6-0.7-1c0.1-0.4,0.4-0.6,0.9-0.5c0.1,0,0.4,0.1,0.6,0.2
			c-0.1,0.2-0.2,0.2-0.2,0.3C43.2,67.8,43.5,67.6,43.6,67.7z"/>
		<path class="st0" d="M41.8,66.1c0.3,0,0.4-0.2,0.7-0.1c0,0.8-0.7,1.7-1.3,1.9c-0.1,0-0.4,0.2-0.5,0.2l0,0c0-0.3,0.2-0.6,0.4-0.7
			C41.4,67,41.6,66.7,41.8,66.1z"/>
		<path class="st0" d="M40,72c-0.1,0-0.4,0.1-0.5-0.1c0-0.3-0.1-0.5-0.4-0.6c-0.3-0.1-0.4,0.2-0.5,0.5c-0.1,0-0.4-0.1-0.4-0.2
			c0.1-0.4,0.4-0.6,0.7-0.9c0.1-0.2,0.3,0,0.4-0.1C39.7,70.9,40,71.4,40,72z"/>
		<path class="st4" d="M32.9,68.6c-0.5-0.1-0.8-0.3-1.5-0.2c0.7-0.5,1.4-0.2,2.1-0.2C33.5,68.5,33.1,68.1,32.9,68.6z"/>
		<path class="st0" d="M43.8,69c-0.1,0.3-0.1,0.4-0.2,0.7c-0.1,0-0.4,0.1-0.5,0.1c-0.2-0.2-0.4-0.2-0.7-0.2c-0.3,0-0.5,0.1-0.8-0.3
			C42.4,69.5,43.2,69.7,43.8,69C43.8,69.2,43.8,69,43.8,69z"/>
		<path class="st1" d="M101.7,65.9c-0.1,0-0.4,0.1-0.4-0.2c-0.1-0.4,0.4-0.3,0.6-0.4c0.1,0,0.4-0.1,0.4,0.1
			C102.2,65.7,102,65.8,101.7,65.9z"/>
		<path class="st1" d="M47,69c0.1,0,0.4-0.1,0.4,0.1c0,0.3-0.2,0.4-0.5,0.5c-0.1,0-0.5,0.2-0.4-0.2C46.4,69.1,46.8,69.1,47,69z"/>
		<path class="st2" d="M47.4,67.7c0.1,0,0.4-0.1,0.4,0.1c0,0.3-0.3,0.5-0.6,0.5c-0.1,0-0.4,0.1-0.4-0.2
			C46.8,67.6,47.3,67.9,47.4,67.7z"/>
		<path class="st1" d="M71.3,68.5c-0.1,0-0.4,0.1-0.4-0.2c0.1-0.4,0.5-0.2,0.7-0.4c0.1,0,0.4-0.1,0.3,0.1
			C71.8,68.3,71.5,68.5,71.3,68.5z"/>
		<path class="st2" d="M43.6,67.7c0-0.1-0.4,0.1-0.4-0.2c0-0.3,0.2-0.2,0.2-0.3c0.3,0,0.5-0.1,0.8-0.1c0,0.1,0,0.1,0,0.3
			C44.1,67.5,43.9,67.8,43.6,67.7z"/>
		<path class="st1" d="M70.7,62.8c0.1,0,0.4-0.1,0.4,0.1c-0.1,0.4-0.4,0.3-0.6,0.4c-0.1,0-0.4,0.1-0.4-0.1
			C70.1,62.9,70.4,63,70.7,62.8z"/>
		<path class="st3" d="M107.7,62.7c0.6,0.3,1.1,0.5,1.9,0.8C108.8,63.6,107.9,63.2,107.7,62.7z"/>
		<path class="st1" d="M43.1,70c0.1,0,0.4-0.1,0.5-0.1c0.2,0.1,0.4-0.1,0.4,0.1s-0.1,0.3-0.2,0.3c-0.2,0.2-0.5,0.2-0.7,0.1
			C42.9,70.3,43,70,43.1,70z"/>
		<path class="st2" d="M74.1,70.5c0.1,0,0.3,0,0.4-0.1c0.2,0.2,0.6,0.2,0.6,0.6c-0.1,0-0.4,0.2-0.5,0.2l0-0.1
			C74.4,70.8,74.3,70.7,74.1,70.5L74.1,70.5z"/>
		<path class="st3" d="M59.5,70.8c-0.2-0.1-0.3-0.4-0.1-0.5s0.3,0.1,0.4,0.2c0.1,0,0.3,0.1,0.4,0.1C59.9,70.6,59.8,70.8,59.5,70.8z"
			/>
		<path class="st3" d="M111.5,63.7c0.2,0.1,0.2,0.4,0.1,0.5s-0.3,0-0.4,0.1c-0.2-0.1-0.3-0.1-0.4-0.2
			C111,63.9,111.4,64.1,111.5,63.7z"/>
		<path class="st0" d="M42.5,66c0.4-0.1,0.8-0.3,1.2-0.3c0,0.1,0,0.3,0.2,0.4l0,0C43.5,65.9,43,66.1,42.5,66z"/>
		<path class="st5" d="M103.2,60.8C103.1,60.8,103.1,60.8,103.2,60.8c0.4-0.3,0.7-0.6,1.2-0.7l0,0C104.1,60.4,103.6,60.6,103.2,60.8
			z"/>
		<path class="st0" d="M40.6,68.1c-0.1,0.4,0.3,0.5,0.5,0.9l0,0C40.4,68.8,40.3,68.6,40.6,68.1C40.6,68.2,40.6,68.1,40.6,68.1z"/>
		<path class="st3" d="M98.9,54.4c0-0.3-0.4-0.6,0.3-0.6C99.1,53.9,99.1,54.2,98.9,54.4C98.9,54.6,98.9,54.4,98.9,54.4z"/>
		<path class="st3" d="M106.8,61.9c0.3,0.2,0.5,0.5,0.8,0.7C106.9,62.7,107,62.3,106.8,61.9z"/>
		<path class="st3" d="M109.6,63.5c0.3,0,0.4,0.1,0.7,0C109.9,64.1,109.7,63.6,109.6,63.5z"/>
		<path class="st0" d="M44.4,67.4c0-0.1,0-0.1,0-0.3c0.2-0.2,0.1-0.4,0.1-0.5l0,0c0.3,0.2,0.2,0.5,0.3,0.8
			C44.5,67.5,44.4,67.4,44.4,67.4z"/>
		<path class="st0" d="M44.6,68c0,0.3,0.1,0.4-0.3,0.5l0,0C44.2,68.3,44.3,68.2,44.6,68L44.6,68z"/>
		<path class="st4" d="M86,62.4c-0.2,0.2-0.4,0.2-0.7,0.1C85.5,62.4,85.8,62.4,86,62.4z"/>
		<path class="st4" d="M84.3,62.7c0.4-0.1,0.5-0.2,0.7-0.1C84.9,62.8,84.8,62.8,84.3,62.7z"/>
		<path class="st4" d="M84,62.9L84,62.9c0.1,0,0.3,0,0.3,0s0,0-0.1,0L84,62.9z"/>
		<path class="st0" d="M43.9,68.9c0,0.1-0.1,0.3-0.2,0.3l0,0C43.8,68.9,43.8,68.9,43.9,68.9C44.1,68.9,43.9,68.9,43.9,68.9z"/>
		<path class="st3" d="M44.4,66.5l-0.2-0.1c0,0,0,0,0.1,0C44.2,66.4,44.2,66.4,44.4,66.5L44.4,66.5z"/>
		<path class="st3" d="M44.6,67.9c0-0.1,0-0.1,0-0.3l0,0C44.7,67.7,44.7,67.8,44.6,67.9L44.6,67.9z"/>
		<path class="st3" d="M110.5,63.5c0.1,0,0.3,0,0.4,0.1C110.8,63.6,110.6,63.6,110.5,63.5z"/>
		<path class="st3" d="M110.7,64.1c-0.1,0-0.1,0-0.3-0.1C110.6,64,110.7,64,110.7,64.1z"/>
		<path class="st3" d="M60.2,70.6c0.1,0,0.1,0,0.3,0C60.3,70.7,60.2,70.7,60.2,70.6z"/>
		<path class="st3" d="M107.4,62.6c0.1,0,0.2,0.1,0.3,0.1C107.6,62.7,107.6,62.7,107.4,62.6z"/>
		<path class="st5" d="M104.5,60.1c0-0.1,0.1-0.2,0.1-0.2l0,0C104.6,60.1,104.5,60.1,104.5,60.1L104.5,60.1z"/>
		<path class="st5" d="M104.9,59.9L104.9,59.9L104.9,59.9L104.9,59.9L104.9,59.9z"/>
		<path class="st0" d="M44,68.6c0,0.1,0,0.1-0.1,0.3l0,0C44,68.7,44,68.7,44,68.6L44,68.6z"/>
		<path class="st3" d="M41.1,69.2l0.1,0C41.3,69.3,41.3,69.2,41.1,69.2L41.1,69.2z"/>
		<path class="st0" d="M41.1,68.9c0.1,0,0.2,0.1,0.2,0.2l0,0C41.1,69.2,41.1,69.1,41.1,68.9L41.1,68.9z"/>
		<path class="st0" d="M44,68.6c0-0.1,0.1-0.2,0.2-0.2l0,0C44.3,68.6,44.1,68.6,44,68.6L44,68.6z"/>
		<path class="st3" d="M44.6,67.9C44.6,67.9,44.6,68,44.6,67.9C44.6,68,44.6,68,44.6,67.9C44.6,68,44.6,67.9,44.6,67.9L44.6,67.9z"
			/>
		<path class="st3" d="M43.9,66.2L43.9,66.2L43.9,66.2L43.9,66.2z"/>
		<path class="st4" d="M24.6,65.7c3.1-1,6.2-1.6,9.4-2c2.1-0.2,4.2-0.5,6.3-1c1.4-0.2,2.9-0.6,4.3-1.1c1-0.3,2-0.3,2.9,0
			c-0.5,0.5-1.1,0.4-1.8,0.7c-5.1,1.6-10.2,3.6-15.2,5.8c-0.1,0-0.4,0.2-0.5,0.2c0.3,0.1,0.7-0.1,1,0.1c-3.5,0.9-7,1.9-10.4,2.8
			c0.2,0.4,0.7,0.3,1,0.5c-0.5,0.2-1,0.3-1.6,0.4c-0.1-0.5-0.4-1-0.9-1.2c-0.3-0.2-0.3-0.4,0.1-0.5c0.9-0.4,1.8-0.8,2.7-1.1
			c0.1,0,0.5,0.3,0.5-0.2c1.5-0.6,3.2-0.9,4.8-1.4c0.9-0.3,1.7-0.5,2.5-0.9c0.3,0,0.5-0.2,0.2-0.6c0.9-0.3,1.8-0.4,2.7-0.6
			c0.1,0,0.4-0.1,0.2-0.2c0-0.1-0.3-0.1-0.4,0.1c-0.6,0.2-1.3,0.1-2,0c-0.1,0-0.3-0.1-0.5,0.1c0,0.3,0.3,0.2,0.5,0.3
			c-0.3,0-0.5,0.2-0.8,0.1l0-0.1c0.1-0.2,0.2-0.3,0-0.3c-0.7,0-1.3,0.1-2,0.3l0,0.1c-0.2,0.2-0.4,0.1-0.6-0.2
			c-0.2-0.2-0.4-0.1-0.6-0.2C26,65.7,25.3,65.7,24.6,65.7z M36.5,64.1c0.1,0,0.4,0.1,0.4-0.2s-0.3,0-0.4-0.1l-0.1,0
			c-0.2,0.2-0.7-0.3-0.8,0.1C35.7,64.2,36.2,64.2,36.5,64.1C36.5,64.3,36.5,64.1,36.5,64.1z M38.6,63.9c0.1,0,0.5,0.1,0.5-0.2
			s-0.3-0.1-0.5-0.1c-0.1,0-0.5-0.1-0.5,0.2C38.2,64.1,38.5,63.8,38.6,63.9z M31,65.1c0,0,0.2,0.1,0.3,0.1c0.1-0.2,0.4-0.2,0.3-0.5
			c0-0.1-0.2-0.1-0.2-0.1C31.2,64.7,31.1,64.8,31,65.1z M32.9,64.3c-0.1,0-0.4,0.1-0.4,0.3c0,0.1,0.2,0.1,0.3,0.1
			c0.1,0,0.4-0.1,0.4-0.3C33.1,64.2,33,64.2,32.9,64.3z"/>
		<path class="st0" d="M21.7,69.5c-0.9,0.3-1.8,0.7-2.7,1.1c-0.4,0.2-0.4,0.3-0.1,0.5c0.5,0.3,0.8,0.7,0.9,1.2
			c-1.3,0.3-2.5,0.1-3.8-0.1c-2.2-0.3-4.5-0.3-6.7,0.1c-0.8,0.1-1.6,0.1-2.4-0.2C6.8,72,6.7,72,6.4,71.9c1.7-0.5,3.2-0.9,4.9-1.2
			c1.6-0.4,3.3-0.5,4.9-0.7c-0.2-0.2-0.6-0.3-0.6-0.7c0.4-0.1,0.8-0.3,1.1,0c0.9-0.1,1.8-0.3,2.8-0.3C20.5,69.1,21.1,69.1,21.7,69.5
			z M12.3,71C12.3,71.2,12.3,71.2,12.3,71c0.7,0.2,1.4,0.2,2.1,0.4c0.1,0,0.1,0,0.1-0.2s0-0.1-0.2-0.1c-0.7,0-1.2-0.2-1.9-0.2
			C12.3,70.9,12.3,70.9,12.3,71z"/>
		<path class="st0" d="M81.2,58c-0.3-0.4-0.2-0.5,0.2-0.6c1.3-0.3,2.6-0.7,4-0.9c-1,1.2-2.8,1-3.8,2.3c3-0.6,5.7-1.1,8.5-1.8
			c-3.6,1.8-7.5,1.9-11.5,1.9C79.4,58.4,80.3,58.4,81.2,58z"/>
		<path class="st0" d="M29.7,66.4c0.3,0.2,0.1,0.4-0.2,0.6c-0.9,0.4-1.6,0.7-2.5,0.9c-1.5,0.5-3.2,0.9-4.8,1.4
			c-0.3-0.1-0.6-0.2-0.8-0.3c-0.2-0.2-0.4-0.2-0.6-0.3c0.1,0,0.3,0,0.3,0c0.8-0.1,1.6-0.1,2.4-0.2c-0.7-0.3-1.5-0.3-2.3-0.3
			c0.2-0.3,0.5-0.2,0.6-0.2c1.3-0.1,2.7,0,4.1,0.2c0.1,0,0.3,0.2,0.4-0.1c0.1-0.3-0.2-0.2-0.3-0.2c-1.4-0.2-2.7-0.3-4.2-0.2
			c0.4-0.3,0.6-0.2,1-0.3c1.9,0,3.9-0.2,5.7-0.5C28.9,66.6,29.3,66.4,29.7,66.4z"/>
		<path class="st6" d="M17,69.2c-0.4-0.2-0.7,0-1.1,0c-0.2-0.1-0.3-0.2,0-0.3c0.5-0.1,0.9-0.1,1.3-0.1C17.1,69,17,69.1,17,69.2z"/>
		<path class="st3" d="M21.3,68.6c-0.1,0-0.1,0-0.3,0c0.2,0.2,0.4,0.2,0.6,0.3c-0.5-0.1-1.1-0.1-1.7-0.3
			C20.4,68.6,20.8,68.5,21.3,68.6z"/>
		<path class="st4" d="M82.5,69.5c0.4-0.1,0.6-0.4,0.9-0.3c-0.4,0.9-1,1.5-1.6,2.1c-0.2,0.3-0.4,0.6-0.6,1c-0.9,0.4-1.9,0.6-2.9,0.4
			l0,0l0,0c0.5-0.1,0.9-0.5,1.4-0.7c0.3,0.1,0.6,0.3,0.8,0C81.4,71.4,82,70.5,82.5,69.5z"/>
		<path class="st4" d="M74.7,71.1c0.1,0,0.4-0.2,0.5-0.2c0.4,0.1,0.8-0.1,1-0.2c-0.1,0-0.1,0-0.3,0c-0.1,0-0.3,0-0.4,0.2
			c0,0.1,0.2,0.2,0.3,0.4c0.3,0.2,0.5,0.3,0.7,0.4c-0.1,0.4,0.2,0.2,0.3,0.4c0.2,0.1,0.3,0.2,0.4,0.1c-0.1,0.3-0.4,0.3-0.6,0.4
			c-0.3-0.2-0.6-0.3-0.8-0.7c0-0.1-0.3-0.1-0.4-0.1C75.4,71.6,75.2,71.3,74.7,71.1z"/>
		<path class="st7" d="M78.5,72.6c-0.3,0-0.5,0.2-0.9,0.3c0-0.3,0.1-0.2,0.2-0.3c0.2-0.2,0.7-0.1,0.6-0.5c0.3,0,0.5-0.2,0.8-0.1
			C79.1,72.3,78.7,72.3,78.5,72.6z"/>
		<path class="st2" d="M78.5,72.1c-0.1,0.4-0.5,0.3-0.6,0.5c-0.1,0-0.3,0-0.2,0.3c-0.3,0-0.5,0.1-0.6-0.2c0.3,0,0.5-0.1,0.6-0.4
			C77.9,72.3,78.1,72,78.5,72.1z"/>
		<path class="st2" d="M78.5,72.6c0.2-0.3,0.6-0.4,0.9-0.5c0.1,0,0.5-0.3,0.6,0.2C79.4,72.4,79,73,78.5,73
			C78.5,72.8,78.5,72.6,78.5,72.6z"/>
		<path class="st1" d="M24.6,65.7c0.7,0,1.3-0.1,2,0c0.3,0,0.4-0.1,0.6,0.2L27.1,66c-1,0.2-2.1,0.1-3.2,0
			C24.1,65.7,24.4,65.7,24.6,65.7z"/>
		<path class="st1" d="M27.6,66l0-0.1c0.6-0.2,1.3-0.3,2-0.3c0.3,0,0.2,0.2,0,0.3c-0.4,0.1-0.8,0.1-1.2,0l-0.1,0
			C28,65.9,27.9,66,27.6,66z"/>
		<path class="st4" d="M28.3,65.9C28.3,65.9,28.4,65.9,28.3,65.9C28.4,66,28.4,66,28.3,65.9C28.3,66,28.3,66,28.3,65.9z"/>
		<path class="st0" d="M38.5,71.9c0.1-0.3,0.2-0.4,0.5-0.5c0.3,0.1,0.3,0.4,0.4,0.6C39,72.1,38.7,72,38.5,71.9z"/>
		<path class="st5" d="M92.5,67.1c-0.7,0.5-1.7,0.5-2.5,0.6C90.8,67.5,91.8,67.4,92.5,67.1z"/>
		<path class="st1" d="M100.5,64.2c0.1,0,0.4-0.2,0.4,0.1c0,0.3-0.3,0.5-0.6,0.5c-0.1,0-0.4,0.1-0.4-0.1
			C99.9,64.3,100.3,64.3,100.5,64.2z"/>
		<path class="st1" d="M100.8,66.8c-0.1,0.4-0.5,0.5-0.7,0.5c-0.1,0-0.3,0-0.3-0.1c0-0.1,0.1-0.3,0.1-0.3
			C100.1,66.9,100.5,66.7,100.8,66.8z"/>
		<path class="st1" d="M104.2,66.2c-0.2,0.4-0.5,0.5-0.7,0.5c-0.1,0-0.3,0-0.3-0.1c0-0.1,0.1-0.3,0.2-0.3
			C103.7,66.1,103.9,66.1,104.2,66.2z"/>
		<path class="st1" d="M94.2,68.4c-0.5,0.2-0.8,0.1-1.2,0c-0.1,0-0.2-0.1-0.2-0.1l0.1-0.2C93.3,68.1,93.8,68.2,94.2,68.4z"/>
		<path class="st1" d="M90.7,69.2L90.7,69.2c-0.3-0.1-0.7-0.2-0.9-0.4l0.1-0.2c0.3,0.1,0.6,0.2,0.8,0.3l0,0.1
			C91,69.1,90.8,69.1,90.7,69.2z"/>
		<path class="st1" d="M91.6,69.3c-0.1,0-0.1,0-0.2-0.1c0-0.1,0.3-0.7,0.4-0.7c0.1,0,0.1,0,0.2,0.1C92.2,68.7,91.8,69.3,91.6,69.3z"
			/>
		<path class="st1" d="M96.5,66.8C96.4,67,96.3,67,96.3,67c-0.3,0-0.5,0.3-0.8,0.1l0-0.1C95.7,66.8,96.1,66.7,96.5,66.8z"/>
		<path class="st1" d="M55.2,69.2c0.2,0.1,0.4-0.2,0.4,0.1c0,0.3-0.2,0.4-0.6,0.5c-0.1,0-0.4,0.1-0.4-0.2
			C54.7,69.3,55,69.4,55.2,69.2z"/>
		<path class="st1" d="M69.6,65.8c0.5-0.2,0.8,0,1.1,0.1l0.2,0.1c0,0.1-0.1,0.2-0.2,0.2C70.4,66.2,70.1,66,69.6,65.8z"/>
		<path class="st1" d="M68.7,66.1c0.2-0.4,0.4-0.6,0.7-0.6c0,0,0.2,0.1,0,0.1C69.4,65.8,69.1,65.9,68.7,66.1z"/>
		<path class="st0" d="M67.2,65.9L67.2,65.9L67.2,65.9L67.2,65.9z"/>
		<path class="st0" d="M81.6,68.4c-0.4,0.1-0.7,0-1.1-0.1c0.2,0.2,0.6,0.3,0.6,0.6c0,0.3-0.4,0.2-0.5,0.2c-0.7,0.1-1.3,0.2-2,0.3
			c-0.1,0-0.1,0-0.3,0c0,0-0.1,0-0.2-0.1c-0.4-0.6-0.7-1.2-0.8-1.9c0.1-0.2,0.2-0.2,0.3-0.5c-0.2-0.1-0.3-0.1-0.4-0.2
			c0.4-0.2,0.7-0.5,0.8-1.1c0.9-0.3,1.8-0.3,2.8-0.3c-0.1,0-0.2,0.2-0.4,0.2c0.5,0.7,1.1,1.2,1,2C81.5,67.9,81.5,68.1,81.6,68.4z"/>
		<path class="st0" d="M81.6,68.4c-0.2-0.2-0.2-0.5-0.1-0.8c0.1-0.8-0.6-1.3-1.1-1.7c0.1,0,0.2-0.2,0.4-0.2c0.4-0.1,0.9,0,1.4-0.2
			c-0.5-0.1-1-0.1-1.2-0.2c0.1-0.3,0.4-0.3,0.4-0.6c-0.3-0.2-0.7-0.2-1-0.4c0.6-0.2,1.3-0.5,1.8-0.7l0,0c1.3,0.5,1.5,0.9,1.1,1.8
			c-0.1,0.4,0.1,0.7,0.3,1c0.6,0.7,0.6,1.3-0.1,1.9C82.8,68.5,82.3,68.4,81.6,68.4z"/>
		<path class="st4" d="M79.9,72.2c-0.1-0.5-0.3-0.1-0.6-0.2c-0.3-0.1-0.5,0.1-0.8,0.1c-0.3-0.1-0.6,0.2-0.9,0.1
			c-0.1,0-0.4,0.1-0.4-0.1c0.1,0,0.4-0.1,0.5-0.3c-0.3-0.1-0.5,0.1-0.8,0.1c-0.3-0.1-0.5-0.3-0.7-0.4c-0.2-0.1-0.3-0.1-0.3-0.4
			c0.1-0.2,0.2-0.2,0.4-0.2c0.1,0,0.1,0,0.3,0c1.1-0.4,2.3-0.5,3.6-0.8c0.9-0.1,1.7-0.5,2.6-0.5c-0.4,1-1.1,1.8-1.9,2.6
			C80.4,72.3,80.1,72.2,79.9,72.2z"/>
		<path class="st0" d="M77.3,67.6c0.1,0.7,0.5,1.3,0.8,1.9c-0.1,0-0.1,0.2-0.2,0.2c-1,0.3-2.2,0.5-3.2,0.8c-0.2-0.1-0.2-0.1-0.3-0.2
			c-1-0.5-1.1-0.9-0.4-1.8c0.1-0.2,0.4-0.3,0.6-0.4c0.4-0.1,0.9,0,1.3-0.3C76.4,67.7,76.8,67.7,77.3,67.6z"/>
		<path class="st2" d="M78.7,69.5c0.6-0.2,1.3-0.3,2-0.3C80.2,69.8,79.5,69.9,78.7,69.5z"/>
		<path class="st2" d="M78,69.6c0.1,0,0.1-0.2,0.2-0.2c0,0,0.1,0,0.2,0.1C78.3,69.6,78.1,69.6,78,69.6z"/>
		<path class="st1" d="M82.2,63.6c-0.6,0.2-1.1,0.4-1.8,0.7c0.3,0.4,0.7,0.2,1,0.4C81.3,65,81.1,65,81,65.3c0.4,0.1,0.8,0.1,1.2,0.2
			c-0.5,0.2-0.9,0-1.4,0.2c-0.9,0-1.9,0-2.8,0.3c-0.3-0.1-0.5-0.1-0.9,0l0,0c0.5-0.5,0.9-1.2,1.4-1.7c1-0.2,2.1-0.5,3.1-0.6
			C81.8,63.5,82,63.5,82.2,63.6z"/>
		<path class="st1" d="M77.3,67.6c-0.5,0.1-0.9,0.1-1.5,0.1l-0.1,0c0.4-0.2,0.6-0.4,0.8-0.8c0.1,0,0.1,0,0.3,0
			c0.2,0.1,0.3,0.2,0.4,0.1c0.2,0.1,0.3,0.1,0.4,0.2C77.5,67.4,77.4,67.3,77.3,67.6z"/>
		<path class="st3" d="M76.8,66.9c-0.1,0-0.1,0-0.3,0c-0.3-0.2-0.8-0.3-1.1-0.8c0.6-0.2,1.2,0,1.7-0.3l0,0
			C77.1,66.3,76.7,66.5,76.8,66.9z"/>
		<path class="st0" d="M78.4,63.1c-0.4-0.6,0-0.9,0.6-1.4c0.4-0.3,0.8-0.1,1.1,0.1c0.3,0.2,0.7,0.4,0.9,0.8
			C80.1,62.9,79.2,63.1,78.4,63.1z"/>
		<path class="st2" d="M36.5,64.1C36.5,64.1,36.5,64.3,36.5,64.1c-0.4,0.1-0.9,0.1-0.8-0.1c-0.1-0.4,0.5-0.1,0.8-0.1l0.1,0
			c0.2,0.1,0.4-0.2,0.4,0.1C37,64.3,36.6,64.1,36.5,64.1z"/>
		<path class="st2" d="M38.6,63.9c-0.1,0-0.5,0.2-0.5-0.1s0.2-0.2,0.5-0.2c0.1,0,0.5-0.2,0.5,0.1C39.1,64,38.8,63.8,38.6,63.9z"/>
		<path class="st2" d="M31,65.1c0.1-0.3,0.2-0.3,0.3-0.5c0.1,0,0.1,0,0.2,0.1c0,0.3-0.2,0.3-0.3,0.5C31.1,65.2,31.1,65.1,31,65.1z"
			/>
		<path class="st2" d="M32.9,64.3c0.1,0,0.3,0,0.3,0.1c0,0.3-0.2,0.3-0.4,0.3c-0.1,0-0.3,0-0.3-0.1C32.6,64.3,32.7,64.3,32.9,64.3z"
			/>
		<path class="st1" d="M12.3,71c0-0.1,0-0.3,0.1-0.2c0.7,0,1.2,0.2,1.9,0.2c0.1,0,0.2,0.1,0.2,0.1c0,0.1-0.1,0.2-0.1,0.2
			C13.7,71.3,13,71.3,12.3,71C12.3,71.2,12.3,71.2,12.3,71z"/>
		<path class="st2" d="M76.7,71.8c0.3,0,0.5-0.2,0.8-0.1C77.4,72,77.2,72,77,72C76.9,72.2,76.7,72.2,76.7,71.8z"/>
		<path class="st0" d="M76.8,66.9c-0.1-0.4,0.3-0.6,0.4-0.9c0.3,0,0.5-0.1,0.9,0c-0.1,0.4-0.4,0.7-0.8,1.1
			C77.1,67.1,76.9,67,76.8,66.9z"/>
	</g>
</g>
<g id="cXZHSV_1_">
	<g>
		<path d="M103.7,41c0.7,2.9-0.3,5.7-0.9,8.4c-0.5,2-1,3.9-1.4,5.9c0,0-0.1,0.1-0.1,0.1c-0.2,0.4-0.5,0.8-0.7,1.3
			c-0.4,2.9-2.6,2.8-4.8,3.1c-7.7,0.9-15.5,1.9-23.2,2.9c-10.6,1.1-21.3,1.9-31.8,3.4C36,66.8,32,66,27.9,63.9
			c-3.4-1.8-7-3.2-10.5-4.7c-3.3-2.3-8-2.6-10-6.8C10.6,50.7,12,40.8,9.1,39c-1.2-0.7-2.3-0.5-2,1.4c-2-2.8-1.4-6-1-9.1
			c5.6-0.2,3.4,5.6,5.9,8c1-6.6-0.6-9.3-5.7-10c0.1-0.7,0.2-1.4,0.3-2.1c8.2-2.9,16.5-3,25-1.9c3.4,0.4,5.8,1.9,8,4.5
			c3.2,3.8,6.4,7.9,11.4,9.4c4.9,1.5,2.9,3.6-0.4,6.5c4.4-1.1,6.8-2.2,7.9-5.4c0.9-2.5-2.3-1.9-2.6-3.6c9.2-0.2,18.4,0.7,28.5-1
			c-12.6-1.5-24.7,1-35.8-3.8c1.9-0.3,3.7-0.3,5.5-0.4c1.1,0,2.9,0.5,3.2-0.6c0.4-1.3,0-3-0.5-4.4c-0.7-1.9-2.5-1.2-3.9-1.2
			c-6.4,0-12.9,1.2-18.1-4.1c-1.4-1.4-3.5-1-5.3-0.9c-7.2,0.6-14.3,1.3-21.5,2c0.3-1.8,0.6-3.5,2-4.8c1.5,3.5,4.5,1.7,6.8,1.9
			c2.4,0.2,1-1.9,1.2-2.9c0.4-2.6,2.2-3.1,4.4-3.1c2.1-0.1,4.4-0.2,2.5,3.1c-0.1,0.1,1.3,1.5,2.1,1.6c1.1,0.2,1.6-0.8,1.6-2
			c0-4.6-5.1-8.4-9.6-7.5C17.5,9.2,16,11.9,14,9.5c0.8-0.6,1.5-1.2,2.3-1.8c1.4-0.6,3.1-0.6,4-2.2c1.3-0.5,2.6,0.1,4-1.1
			c2.3-1.9,5.1-1.7,7.1,1.1c-4.2,3,0,5.9,0.2,8.8c0.2,2.9,2.6,2.4,4.6,2.4c13.3-0.5,26.7-1.3,40-0.3c1.8,0.1,3.8,0.9,5.9-0.5
			c-1.4-1.2-2.5-2.2-3.6-3.2c2.6-2.2,5.1-0.9,4.9,1.6c-0.3,3.7,1.8,2.9,3.7,3.4c4.1,1.2,9.2-0.2,11.7,4.8c-3.1,0.7-6.6,1.1-4,5.7
			c1.9,3.3,3.9-0.1,5.8,0c1.3,0.6,1.3,1.5,0.9,2.7c-3.3-0.1-5.9,1.9-10.2,3.1c5,1.3,7.9-1.6,11.3-1.5c0,1,0.1,2.1,0.1,3.1
			c-1.2,0.8-4.2-0.2-3.1,2.9C100.4,40.1,100.8,42.5,103.7,41z M72.6,46.9c-4.5-0.2-8.4,1.5-13.1,4c4-0.4,7.1,0.4,10.2-0.8
			c7.9,0.7,15.7-2.2,23.7-0.6c2.3,0.5,4.5-0.7,4.6-3.2c0.1-2.6-0.8-4.9-4.3-4.8c-9,0.2-18-0.5-27,0.4c-0.9,0-1.8,0-2.1,0.9
			c-0.5,1.4,1.1,1.2,1.5,1.8c2.4,2.9,5.6-1.9,7.8,1.1C73.4,46.1,73,46.5,72.6,46.9z M39.4,51.1c-0.3-2.3-0.6-4.3-1-6.2
			c-0.2-1.3-0.4-2.7-2.1-2.9c-1.6-0.2-2.6,0.9-3,2c-1.7,4.4-3.1,8.8-1.7,13.6c0.5,1.7,1.2,4,3.2,4c2.1,0.1,2.8-2.1,3.3-3.9
			C38.8,55.5,39.1,53.1,39.4,51.1z M91.3,26.9c0-0.5,0-1,0-1.4c-9.9,0-19.8,0-29.6,0c0,0.7,0,1.4,0,2.1
			C71.6,27.8,81.4,27.8,91.3,26.9z M63.2,31.6c9.5,1.4,18.9,0.8,28.2-1.2C81.9,29.1,72.6,31.1,63.2,31.6z M66.3,53.4
			c6.3,0.7,12.5,1.5,18.8,2.2c0.1-0.6,0.1-1.1,0.2-1.7C79.4,48.2,72.5,54.3,66.3,53.4z M26.5,52c1,0.2,2.2,1.7,2.8-0.3
			c0.3-1.1-0.7-2.1-1.7-2.8c-1-0.7-8.6,0.8-9.3,1.9c-0.8,1.4-0.5,2.3,1.3,2.1C21.9,52.7,24.3,52.3,26.5,52z M38.3,35.8
			c0.5-4.2-1.2-6.4-4.4-7.3c-2.6-0.7-4.4,0.9-5.9,2.8c-0.5,0.6-0.6,1.1,0,1.7c0.6,0.6,0.9,0.3,1.5-0.1
			C33.4,29.8,35.7,32.5,38.3,35.8z"/>
		<path class="st8" d="M78.5,12.6c1.1,1,2.2,2,3.6,3.2c-2.1,1.4-4.1,0.6-5.9,0.5c-13.3-1-26.7-0.2-40,0.3c-2,0.1-4.4,0.5-4.6-2.4
			c-0.2-2.9-4.4-5.8-0.2-8.8c3.5-1.8,7.9-0.3,11.2-3c1.7,4.1,5.1,1.2,7.7,1.8c4.1,0,8.2,0.1,12.3,0.1C68.5,6,73.8,8.7,78.5,12.6z"/>
		<path class="st9" d="M8.1,22.6c7.2-0.7,14.3-1.4,21.5-2c1.8-0.2,4-0.5,5.3,0.9c5.2,5.3,11.8,4.1,18.1,4.1c1.4,0,3.3-0.7,3.9,1.2
			c0.5,1.4,0.9,3.1,0.5,4.4c-0.3,1.1-2.1,0.5-3.2,0.6c-1.8,0.1-3.7,0-5.5,0.4c11.2,4.8,23.2,2.4,35.8,3.8c-10.1,1.6-19.3,0.8-28.5,1
			c0.3,1.7,3.4,1.1,2.6,3.6c-1.1,3.2-3.5,4.4-7.9,5.4c3.3-3,5.3-5,0.4-6.5c-4.9-1.6-8.2-5.6-11.4-9.4c-2.2-2.6-4.6-4.1-8-4.5
			c-8.5-1.1-16.9-1-25,1.9C5.9,25.3,6,23.6,8.1,22.6z"/>
		<path class="st9" d="M14,9.5c2,2.5,3.5-0.3,5.2-0.6c4.5-0.9,9.6,2.9,9.6,7.5c0,1.2-0.5,2.1-1.6,2c-0.8-0.1-2.2-1.5-2.1-1.6
			c1.9-3.3-0.4-3.2-2.5-3.1c-2.1,0.1-3.9,0.5-4.4,3.1c-0.2,1,1.2,3.1-1.2,2.9c-2.3-0.2-5.4,1.7-6.8-1.9C9.9,14.3,11,11.5,14,9.5z"/>
		<path class="st9" d="M7.4,52.4c-0.4-2.9-0.1-5.9-1.2-8.7c1.3-0.8,0.8-2.1,0.9-3.2c-0.3-1.9,0.9-2.2,2-1.4
			C12,40.8,10.6,50.7,7.4,52.4z"/>
		<path class="st9" d="M6.3,29.3c5.1,0.7,6.7,3.4,5.7,10c-2.5-2.4-0.3-8.2-5.9-8C6.2,30.7,6.2,30,6.3,29.3z"/>
		<path class="st9" d="M100.8,28.1c-1.9-0.1-3.9,3.3-5.8,0c-2.6-4.6,0.9-5,4-5.7C100.8,23.9,102.9,25.3,100.8,28.1z"/>
		<path class="st10" d="M62.6,4.4c-4.1,0-8.2-0.1-12.3-0.1c0.7-1.8,2.6-0.6,4-1.6c-1.2-0.3-2-0.6-3.8-1.1
			C55.2,2.2,59.4,1.1,62.6,4.4z"/>
		<path class="st9" d="M103.7,41c-2.9,1.5-3.3-0.9-3.9-2.6c-1.1-3.1,1.9-2,3.1-2.9C104.5,37.2,103.7,39.1,103.7,41z"/>
		<path class="st9" d="M102.8,32.4c-3.4-0.1-6.3,2.8-11.3,1.5c4.2-1.2,6.8-3.2,10.2-3.1C102,31.3,102.4,31.9,102.8,32.4z"/>
		<path class="st8" d="M66.6,42c9-1,18-0.2,27-0.4c3.5-0.1,4.4,2.2,4.3,4.8c-0.1,2.5-2.3,3.7-4.6,3.2c-8-1.6-15.8,1.3-23.7,0.6
			c0.2-1.8,3.2-1,3-3.2c0.4-0.4,0.8-0.8,1.2-1.2c3.4,0.5,5.6-2.4,8.7-2.6C77.2,42,71.8,43.6,66.6,42z"/>
		<path class="st9" d="M39.4,51.1c-0.4,2-0.6,4.4-1.2,6.6c-0.5,1.7-1.2,4-3.3,3.9c-2.1-0.1-2.7-2.3-3.2-4c-1.5-4.7,0-9.2,1.7-13.6
			c0.4-1.1,1.4-2.2,3-2c1.8,0.2,1.9,1.6,2.1,2.9C38.8,46.8,39.1,48.8,39.4,51.1z"/>
		<path class="st9" d="M91.3,26.9c-9.9,0.8-19.7,0.9-29.6,0.6c0-0.7,0-1.4,0-2.1c9.9,0,19.8,0,29.6,0C91.3,26,91.3,26.5,91.3,26.9z"
			/>
		<path class="st9" d="M63.2,31.6c9.4-0.5,18.7-2.5,28.2-1.2C82.1,32.3,72.7,33,63.2,31.6z"/>
		<path class="st9" d="M66.3,53.4c6.2,0.9,13.1-5.3,18.9,0.5c-0.1,0.6-0.1,1.1-0.2,1.7C78.8,54.9,72.5,54.2,66.3,53.4z"/>
		<path class="st9" d="M66.6,42c5.2,1.6,10.6,0,15.9,1.2c-3.1,0.1-5.3,3.1-8.7,2.6c-2.2-3-5.5,1.9-7.8-1.1c-0.5-0.6-2-0.4-1.5-1.8
			C64.8,42,65.8,41.9,66.6,42z"/>
		<path class="st9" d="M26.5,52c-2.3,0.3-4.6,0.7-6.9,0.9c-1.8,0.2-2.1-0.7-1.3-2.1c0.7-1.1,8.3-2.7,9.3-1.9c1,0.7,2,1.7,1.7,2.8
			C28.7,53.8,27.5,52.2,26.5,52z"/>
		<path class="st8" d="M38.3,35.8c-2.6-3.4-4.9-6-8.8-3.1c-0.6,0.5-0.9,0.7-1.5,0.1c-0.6-0.6-0.5-1.1,0-1.7c1.5-1.9,3.3-3.5,5.9-2.8
			C37.1,29.4,38.8,31.6,38.3,35.8z"/>
		<path class="st9" d="M72.6,46.9c0.3,2.2-2.8,1.4-3,3.2c-3,1.1-6.2,0.3-10.2,0.8C64.2,48.4,68.1,46.6,72.6,46.9z"/>
	</g>
</g>
</svg>
