<?xml version="1.0" encoding="utf-8"?>
<!-- Generator: Adobe Illustrator 23.0.1, SVG Export Plug-In . SVG Version: 6.00 Build 0)  -->
<svg version="1.1" id="Layer_1" xmlns="http://www.w3.org/2000/svg" xmlns:xlink="http://www.w3.org/1999/xlink" x="0px" y="0px"
	 viewBox="0 0 286.9 243.5" style="enable-background:new 0 0 286.9 243.5;" xml:space="preserve">
<style type="text/css">
	.st0{fill:#F7BB3A;}
	.st1{fill:#F5F3EC;}
	.st2{fill:#E4C570;}
	.st3{fill:#729D27;}
	.st4{fill:#D44E50;}
</style>
<g id="qgvpOV_1_">
	<g>
		<path class="st0" d="M265.4,198L265.4,198c6.6-0.9,6.2-6.2,5.4-10.3c-3.9-19.1-1.3-38.4-2.3-57.6c-0.5-8.9,1.6-15.9,7.9-23.1
			c11.2-12.8,7.5-37.7-5.4-44l0,0.1c0.2-3.3,0-6.7-3.8-7.8c-9.6-2.8-7.8-10.1-6-16.5c4.2-15-6.2-31.2-21.6-32.6
			C215.2,4,205.8,12,203.6,36.6c-0.2,2.2-0.1,4.6-2.8,5.5c-9.1-2.6-15.9-9.8-25.4-12c-28.5-6.7-55.9-9.3-82.7,7.9
			C76,48.6,60,59.1,50.4,77c-2.2,4.1-6.3,8.5-0.6,13.1c-0.8,2-1.5,4-2.3,6.1c-9.6,2.1-5.8-12.9-14.8-11.6c0-1.8-0.1-3.6-0.1-5.4
			c5.9-0.9,9.4-4.3,7.5-10.2c-2.8-8.6-10.4-9.6-18.3-10.3c-7.1-0.6-13.4,0.7-14.6,8.1c-1.8,10.4-4,21.1,1.3,31.3
			c1.1,2.3,2.3,4.6,3.4,6.9c2.8,8.3-1.9,18,4.4,25.7c-0.1,3.5-0.1,7-0.2,10.5c-0.3,0.3-0.8,0.6-0.8,0.9c0.1,0.7,0.4,1.4,0.7,2.1
			c-0.1,1.7-0.1,3.3-0.2,5c-7.9,15.3-6,30.8-1.3,46.4c0.3,1.3,0.5,2.5,0.8,3.8c-1,3.9-2,8.4,3.6,8.9c5.7,0.6,5.7-3.8,5.3-8l0-0.2
			c9.6-1.5,9.4-8.8,7.9-15.4c-5-22.2,3.6-44.7-1.9-66.9c-0.7-2.6-0.8-7.3,3.6-7.3c3.7,0,4.4,4,4.6,7.2c0.9,14.3,1.9,28.6,2.7,42.9
			c0.9,15.9,14.1,25.4,20.3,38.6c1,2.2,5,1.3,7.6,0.4l0.3,0.3c1.3,14.4,12.1,18.9,23.3,24.5c23.8,11.9,47.3,17,73.9,9.5
			c19.4-5.5,37.5-11.2,48.6-29.5c0.7-1.1,1.9-2,3.1-2.6c8.7-4.2,11-11.2,9.2-20.1l0.1-0.4c7.7-0.6,8.3-7.4,10.6-12.4
			c8.3-17.9,6.6-36.9,5.6-55.8c-0.3-4.6-2.1-9.1,4.4-10.5c0.7,0.9,1.3,1.7,2,2.6c4.4,12.6-0.7,26.6,5.4,39c-0.1,1.7-0.2,3.4-0.3,5.1
			c-2.3,0.5-4.7,1.5-4.9,3.9c-0.9,15.5-1.6,31.1,2.2,46.3c0.9,3.8,2.1,8.8,7.1,8.4C265.3,207.7,265.8,202.8,265.4,198z"/>
		<path class="st1" d="M47.5,96.2c0.8-2,1.5-4,2.3-6.1c7.9-14.5,18.8-25.4,32.1-35.9c28.5-22.7,58-28.5,92-17.1
			c23.1,7.7,39.3,23.7,53.9,42.1l0.1,0.1c16.1,34.1,17.7,68.2-0.4,102.2c0,0-0.1,0.4-0.1,0.4c-24,32.7-55.4,50-96.9,46.2
			c-23.8-2.2-43.2-13.4-61.2-28c0,0-0.3-0.3-0.3-0.3C43.5,169,37.1,134.3,47.5,96.2z M74,149.4c-0.5,1-0.9,1.9-1.4,2.9
			c-7.5,13.1,6.7,20.5,9.6,30.7c1.4,4.9,16.9,4.6,26.3,1.5l0.3,0.3c-0.9,16.8,15.7,10.9,22.8,17.4c3,2.8,7,1.8,9.4-1.4
			c4.1-5.6,10.2-4.2,15.7-5.3c0.6,2.1,0.8,6,2.8,5.4c11.8-4,25.4-6.4,34.2-14.2c3.6-3.1,9.7-2.2,12.9-9.2c7.2-16-0.7-35.6,13-49.4
			c2.2-2.2-1.1-2.7-1.1-3.9c-0.7-10.8-5.8-17-17.5-16.4c1.2-5.8,7.2-9.4,3.5-14.6c-5.9-8.5-10.4-17-10.7-28.1
			c-0.1-4.8-5.8-8.5-12-10.9c-9.4-3.7-16.1,2.5-24.1,3c-6-10-15.1-7.2-24.7-8.6c-13.7-1.9-16.1,3.8-18.8,13.3
			c-6.6,1.5-11.9,8-20.1,3.7c-2.9-1.6-5,2.8-6.4,5.6c-3,6-1.4,12.3-1.2,18.5c-5.8,1.2-13.3-1-15.8,7.4l-0.9,0.7
			C60,106,59.1,114.6,66.5,128C69.7,134.9,65.7,144.3,74,149.4z"/>
		<path class="st2" d="M227.4,181.4c18.1-34,16.6-68,0.4-102.2c12.4,8.1,11.1-4.2,14.3-9.6c1.4-2.3,2.4-5.1,0.4-7.5
			c-2.4-2.7-5.7-2.1-8.8-1.5c-12.7,2.7-3.8,12.4-6,18.5c-14.6-18.4-30.8-34.4-53.9-42.1c-34-11.4-63.4-5.6-92,17.1
			C68.6,64.7,57.7,75.6,49.8,90.1c-5.7-4.6-1.5-9,0.7-13.1C60,59.1,76,48.6,92.7,38c26.7-17.2,54.1-14.6,82.7-7.9
			c9.5,2.2,16.3,9.4,25.4,12c2.8-0.9,2.6-3.3,2.8-5.5C205.8,12,215.2,4,239.6,6.2c15.3,1.4,25.7,17.5,21.6,32.6
			c-1.8,6.4-3.6,13.7,6,16.5c3.7,1.1,4,4.5,3.8,7.8c-17.1-4-26.7,3.9-27,21.6c-0.1,6.5,3.1,11.9,4,18c-6.5,1.4-4.6,5.9-4.4,10.5
			c1,18.8,2.7,37.9-5.6,55.8C235.7,174,235,180.9,227.4,181.4z M254.6,34c-0.2-12.2-8.6-21.1-20-21.3c-12.1-0.2-23.4,11.4-22.9,23.5
			c0.5,11.2,10.6,21,21.1,20.4C246.3,55.9,254.9,47,254.6,34z"/>
		<path class="st1" d="M248,102.7c-0.9-6.1-4.1-11.6-4-18c0.2-17.7,9.9-25.6,27-21.6c0,0,0-0.1,0-0.1c9.7,16,9.7,31.1-4.1,44.9
			c-3,3-4.3,6.8-3.8,11c3.3,26.3,1.5,52.7,2.3,79c0,0,0,0,0,0c-8.9,4.1-10.1-1.7-10.2-8.2c-0.2-13.5-0.1-26.9-0.2-40.4
			c0.1-1.7,0.2-3.4,0.3-5.1c4.5-9.7,1.8-19.9,2.4-29.9c0.3-5.1-2.7-8.1-7.7-9.2C249.3,104.5,248.7,103.6,248,102.7z"/>
		<path class="st2" d="M69.2,200.1c18,14.5,37.4,25.8,61.2,28c41.5,3.8,72.8-13.5,96.9-46.2c1.8,8.9-0.5,16-9.2,20.1
			c-1.2,0.6-2.4,1.5-3.1,2.6c-11.1,18.3-29.2,24.1-48.6,29.5c-26.6,7.5-50.2,2.4-73.9-9.5C81.3,219,70.5,214.5,69.2,200.1z"/>
		<path class="st2" d="M47.5,96.2c-10.4,38.2-4,72.9,21.4,103.6c-2.6,0.9-6.6,1.8-7.6-0.4c-6.2-13.2-19.4-22.7-20.3-38.6
			c-0.8-14.3-1.7-28.6-2.7-42.9c-0.2-3.2-0.9-7.2-4.6-7.2c-4.4,0-4.3,4.6-3.6,7.3c5.5,22.2-3.1,44.7,1.9,66.9
			c1.5,6.6,1.7,13.9-7.9,15.4c4.4-9.1,0.8-18.5,0.8-27.8c-0.2-29.6-3.2-59.4,7.9-87.9C41.6,83.3,37.9,98.2,47.5,96.2z"/>
		<path class="st1" d="M32.7,84.6c-11.1,28.5-8.1,58.4-7.9,87.9c0.1,9.3,3.6,18.6-0.8,27.8c0,0,0,0.2,0,0.2c-3-0.3-5.9-0.7-8.9-1
			c-0.3-1.3-0.5-2.5-0.8-3.8c1.5-15.4,3.9-30.8,1.3-46.4c0.1-1.7,0.1-3.3,0.2-5c0.1-1,0.1-2,0.1-3c0.1-3.5,0.1-7,0.2-10.5
			c0.1-8.8,5-18.5-4.4-25.7c-1.1-2.3-2.3-4.6-3.4-6.9c-0.3-7.3,0.3-12.4,10.1-14.2c4-0.8,11.2,1.6,14.1-4.7
			C32.6,81,32.6,82.8,32.7,84.6z"/>
		<path class="st2" d="M32.6,79.1c-2.9,6.3-10,4-14.1,4.7c-9.7,1.8-10.4,7-10.1,14.2c-5.3-10.2-3.1-21-1.3-31.3
			c1.3-7.4,7.5-8.7,14.6-8.1c7.9,0.7,15.5,1.7,18.3,10.3C41.9,74.8,38.5,78.3,32.6,79.1z"/>
		<path class="st2" d="M265.4,198c-0.8-26.3,1-52.8-2.3-79c-0.5-4.2,0.7-8,3.8-11C280.7,94.1,280.7,79,271,63
			c12.8,6.3,16.6,31.3,5.4,44c-6.3,7.1-8.4,14.1-7.9,23.1c1,19.2-1.7,38.5,2.3,57.6C271.6,191.9,272,197.1,265.4,198z"/>
		<path class="st2" d="M255.1,149.4c0,13.5,0,26.9,0.2,40.4c0.1,6.6,1.3,12.3,10.2,8.2c0.4,4.8-0.1,9.7-5.9,10.1
			c-5,0.3-6.1-4.7-7.1-8.4c-3.9-15.3-3.1-30.8-2.2-46.3C250.3,151,252.8,150,255.1,149.4z"/>
		<path class="st2" d="M250,105.3c5,1,8,4.1,7.7,9.2c-0.6,10,2.2,20.2-2.4,29.9C249.3,131.9,254.4,118,250,105.3z"/>
		<path class="st2" d="M15.7,149.2c2.6,15.5,0.2,31-1.3,46.4C9.6,180,7.8,164.5,15.7,149.2z"/>
		<path class="st2" d="M11.8,105c9.4,7.2,4.5,16.9,4.4,25.7C9.9,123,14.6,113.3,11.8,105z"/>
		<path class="st2" d="M15.2,199.4c3,0.3,5.9,0.7,8.9,1c0.5,4.2,0.4,8.5-5.3,8C13.1,207.8,14.2,203.3,15.2,199.4z"/>
		<path class="st2" d="M16,141.3c0,1-0.1,2-0.1,3c-0.2-0.7-0.6-1.4-0.7-2.1C15.2,141.9,15.7,141.6,16,141.3z"/>
		<path class="st3" d="M157.6,57.3c8-0.5,14.7-6.7,24.1-3c6.2,2.4,11.9,6.2,12,10.9c0.2,11.1,4.7,19.6,10.7,28.1
			c3.7,5.3-2.3,8.9-3.5,14.6c11.7-0.6,16.8,5.6,17.5,16.4c0.1,1.1,3.4,1.6,1.1,3.9c-13.6,13.8-5.7,33.3-13,49.4
			c-3.2,7-9.3,6-12.9,9.2c-8.8,7.7-22.3,10.2-34.2,14.2c-2.1,0.7-2.2-3.3-2.8-5.3c-4.6-3.3,4.1-12.8-3.9-12.5
			c-9.5,0.3-11.7-5.4-15.8-11.2c-4.4-6.2-10.3-11-18-13c0.2-5.7,3.4-8.9,8.7-10.2c6,6.7,11.1,8.1,18.5,0.6
			c5.5-5.6,8.8-11.7,11.4-18.7c4.1,0.8,6,4,7.9,7.2c-4.9,1.3-10.5,3.3-7.2,9.4c2.7,5,8.3,6,13.4,1.8c5.9,1.3,5,5.8,3.8,9.6
			c-2.3,7,3.4,8.4,7,8.5c7.8,0.4,13.5-4.5,17.8-10.9c4.1-6,4.2-13.9-1-17.2c-11.6-7.3-13.8-24.7-30.1-26.6c-5.3-0.6-3-6.6-3.6-10.3
			c5.8-7.7,1.3-14.8-0.7-23.7c-7,6.8-12.6,16-22.4,6.5c8.7-6.9,14-14.1-1.9-23.7C149.1,61.5,153.6,60,157.6,57.3z M176.8,93.2
			c-3.9,2.4-5.3,6-5.2,10c0,5.4,4.4,7.8,8.5,8.4c4.3,0.6,8.9-4.7,8.6-6.7C187.8,98.9,181.1,97.1,176.8,93.2z"/>
		<path class="st2" d="M118.9,158.9c7.7,1.9,13.6,6.7,18,13c4,5.7,6.3,11.5,15.8,11.2c8.1-0.2-0.7,9.2,3.9,12.5
			c-5.4,1.1-11.6-0.3-15.7,5.3c-2.3,3.2-6.3,4.2-9.4,1.4c-7.1-6.5-23.7-0.6-22.8-17.4c4.4-0.1,8.9,0.1,13.3-0.5
			c3.8-0.5,9.2-0.7,8.9-5.8c-0.3-4.3-4-8-8.8-8.8c-8.7-1.5-14.9,5.3-13.7,14.7c-9.3,3-24.9,3.4-26.3-1.5
			c-2.9-10.2-17.1-17.6-9.6-30.7c5.7,0.7,11.3,7.2,17,0.2l0.2-0.1c0.8-0.5,1.6-1.1,2.4-1.6c0-3.7-21.3-23.9-24.7-23.5
			c-0.4,0-0.7,0.5-1.1,0.7c-7.5-13.4-6.5-22,3.3-30.1c0.5,13.8,3.3,24.1,20.4,14.2c1.4-0.8,3.5-0.3,5.2-0.4c2.5,0.6,4,2.3,4.9,4.7
			c-1.6,10.7,6.9,13.5,13.7,17.7c-2.7,5.1-5.5,10.1-8.2,15.2c-1.6,0.1-3.2,0.2-4.7,0.3c-4.9,1.4-6.4,5-6.3,9.7
			c-4.2,3.6-9.1,8.1-3.9,13.2c4.9,4.7,9.3,0.9,12.8-4.1c2.2-3.2,6-5.2,9.1-7.7C114.8,160,116.9,159.4,118.9,158.9z"/>
		<path class="st3" d="M95.5,111.7c-1.8,0.1-3.9-0.4-5.2,0.4c-17.1,9.9-19.9-0.5-20.4-14.2c0,0,0.9-0.7,0.9-0.7
			c5.8-1.2,11.3-3.2,15.8-7.4c-0.3-6.2-1.8-12.5,1.2-18.5c1.4-2.9,3.5-7.2,6.4-5.6c8.1,4.3,13.5-2.1,20-3.6
			c11.4,4.6,6.3,16.1,10.2,23.9c-6.7,0-13.5-0.8-19,4.4c-7.1-5.5-10.6-3.4-10.6,5.3C94.7,100.9,95.2,106.3,95.5,111.7z"/>
		<path class="st2" d="M124.3,85.9c-3.8-7.8,1.2-19.3-10.2-23.9c2.6-9.5,5-15.2,18.8-13.3c9.6,1.3,18.6-1.4,24.7,8.6
			c-4,2.8-8.5,4.2-17,4c15.9,9.6,10.6,16.8,1.9,23.7c-2.8,0.6-4,2.8-5,5.1C132.6,90.2,128.4,88.1,124.3,85.9z"/>
		<path class="st4" d="M66.5,128c0.4-0.2,0.7-0.7,1.1-0.7c3.4-0.4,24.6,19.8,24.7,23.5c-2.7-2.3-2,0.6-2.4,1.6c0,0-0.2,0.1-0.2,0.1
			c-5-2-9.8-5.3-15.7-3C65.7,144.3,69.7,134.9,66.5,128z"/>
		<path class="st3" d="M74,149.4c5.9-2.2,10.6,1,15.7,3c-5.8,7-11.4,0.5-17-0.2C73.1,151.3,73.5,150.4,74,149.4z"/>
		<path class="st2" d="M86.5,89.8c-4.5,4.2-9.9,6.2-15.8,7.4C73.2,88.8,80.7,91,86.5,89.8z"/>
		<path class="st1" d="M254.6,34c0.2,13.1-8.3,22-21.8,22.6c-10.5,0.5-20.6-9.2-21.1-20.4c-0.5-12.1,10.8-23.8,22.9-23.5
			C246,12.8,254.4,21.8,254.6,34z"/>
		<path class="st0" d="M227.7,79.1c2.1-6.1-6.8-15.9,6-18.5c3.1-0.6,6.4-1.2,8.8,1.5c2.1,2.4,1,5.2-0.4,7.5
			c-3.2,5.4-1.9,17.7-14.3,9.6C227.8,79.3,227.7,79.1,227.7,79.1z"/>
		<path class="st2" d="M165.5,137.7c-2-3.1-3.8-6.4-7.9-7.2c-0.8-11.8-9.9-15.4-19-19c0.3-3.4,0.6-6.9,1-10.3
			c7-0.5,15.6,5.8,20.1-4.8c2,1.9,3.9,3.8,5.9,5.6c0.6,3.7-1.7,9.7,3.6,10.3c16.4,1.9,18.5,19.3,30.1,26.6c5.2,3.3,5.1,11.1,1,17.2
			c-4.3,6.4-10,11.2-17.8,10.9c-3.6-0.2-9.3-1.6-7-8.5c1.2-3.7,2.1-8.2-3.8-9.6C179.4,139.7,169.4,140.4,165.5,137.7z"/>
		<path class="st1" d="M138.5,111.6c9.1,3.6,18.2,7.2,19,19c-2.6,7-5.9,13.1-11.4,18.7c-7.4,7.5-12.5,6.1-18.5-0.6
			c1.5-6.4-1.9-11.9-3.4-17.7C123.1,120.2,129.2,114.7,138.5,111.6z M149.2,133.2c-1.6-4-4.1-8.3-9-7.8c-4.9,0.6-9.4,4.2-9.8,9.4
			c-0.4,4.8,3.4,9,8.1,8.9C144.2,143.7,147.9,139.4,149.2,133.2z"/>
		<path class="st4" d="M124.3,131c1.5,5.8,4.9,11.3,3.4,17.7c-5.3,1.3-8.5,4.5-8.7,10.2c-2.1,0.6-4.1,1.1-6.2,1.7
			c-3.3-3.1-6.4-6.4-6.9-11.2c2.7-5.1,5.5-10.1,8.2-15.2C117.4,133,120.8,132,124.3,131z"/>
		<path class="st0" d="M165.5,102c-2-1.9-3.9-3.8-5.9-5.6c-6.7-4.7-17.8,6.3-22.1-6.4c1-2.4,2.2-4.6,5-5.1
			c9.8,9.5,15.4,0.3,22.4-6.5C166.8,87.2,171.3,94.4,165.5,102z"/>
		<path class="st1" d="M176.8,93.2c4.3,3.9,11,5.7,11.9,11.7c0.3,2-4.3,7.3-8.6,6.7c-4.2-0.6-8.5-3-8.5-8.4
			C171.6,99.1,173,95.6,176.8,93.2z"/>
		<path class="st4" d="M165.5,137.7c3.9,2.7,14,2,6.2,11.2c-5.1,4.2-10.7,3.2-13.4-1.8C155,141,160.6,139,165.5,137.7z"/>
		<path class="st3" d="M124.3,131c-3.4,1-6.8,2.1-10.2,3.1c-6.8-4.2-15.3-7.1-13.7-17.7c4.3,0.6,8.3,0.8,12.5,2.9
			c5.2,2.6,7.4-0.5,6.6-7.6c-0.7-2-1.4-4.1-2.1-6.1c7-3.5,15.6,1.7,22.1-4.3c-0.3,3.4-0.6,6.9-1,10.3
			C129.2,114.7,123.1,120.2,124.3,131z"/>
		<path class="st1" d="M119.5,111.7c0.8,7.1-1.4,10.2-6.6,7.6c-4.2-2.1-8.3-2.3-12.5-2.9c-0.9-2.4-2.4-4.1-4.9-4.7
			c-0.3-5.4-0.7-10.8-0.7-16.2c0-8.6,3.5-10.8,10.6-5.3c0.2,1.6,0.4,3.2,0.5,4.8c-3.6,3.1-6.1,6.7-2.9,11.2
			C107.1,111.8,113.1,112.6,119.5,111.7z"/>
		<path class="st0" d="M108.5,184.5c-1.3-9.4,4.9-16.2,13.7-14.7c4.8,0.8,8.5,4.5,8.8,8.8c0.4,5.1-5.1,5.3-8.9,5.8
			c-4.4,0.5-8.8,0.3-13.3,0.5C108.9,184.8,108.5,184.5,108.5,184.5z"/>
		<path class="st3" d="M105.8,149.3c0.5,4.8,3.6,8.1,6.9,11.2c-3.1,2.5-6.9,4.6-9.1,7.7c-3.5,5-7.9,8.9-12.8,4.1
			c-5.2-5-0.3-9.6,3.9-13.2c2.1-3.2,4.2-6.4,6.3-9.7C102.7,149.5,104.2,149.4,105.8,149.3z"/>
		<path class="st0" d="M101.1,149.6c-2.1,3.2-4.2,6.4-6.3,9.7C94.7,154.6,96.2,150.9,101.1,149.6z"/>
		<path class="st3" d="M89.9,152.3c0.5-1.1-0.2-3.9,2.4-1.6C91.5,151.3,90.7,151.8,89.9,152.3z"/>
		<path class="st4" d="M105.9,95c-0.2-1.6-0.4-3.2-0.5-4.8c5.5-5.2,12.3-4.4,19-4.4c4.1,2.2,8.3,4.4,13.1,4.2
			c4.3,12.7,15.5,1.7,22.1,6.4c-4.5,10.6-13.1,4.3-20.1,4.9c-6.5,6-15.1,0.8-22.1,4.3C115,100.4,109.8,98.4,105.9,95z"/>
		<path class="st0" d="M149.2,133.2c-1.3,6.2-5,10.5-10.7,10.6c-4.7,0.1-8.5-4.1-8.1-8.9c0.4-5.2,4.8-8.9,9.8-9.4
			C145.2,124.9,147.6,129.2,149.2,133.2z"/>
		<path class="st0" d="M105.9,95c4,3.3,9.1,5.3,11.5,10.5c0.7,2.1,1.4,4.1,2.1,6.2c-6.4,0.9-12.4,0.2-16.5-5.4
			C99.7,101.7,102.3,98.1,105.9,95z"/>
	</g>
</g>
</svg>
