<?xml version="1.0" encoding="utf-8"?>
<!-- Generator: Adobe Illustrator 23.0.1, SVG Export Plug-In . SVG Version: 6.00 Build 0)  -->
<svg version="1.1" id="Layer_1" xmlns="http://www.w3.org/2000/svg" xmlns:xlink="http://www.w3.org/1999/xlink" x="0px" y="0px"
	 viewBox="0 0 300 300" style="enable-background:new 0 0 300 300;" xml:space="preserve">
<style type="text/css">
	.st0{fill:#4A95BA;}
	.st1{fill:#105297;}
	.st2{fill:#834629;}
	.st3{fill:#F3C593;}
	.st4{fill:#89BA44;}
	.st5{fill:#B8D336;}
	.st6{fill:#D53F51;}
	.st7{fill:#A66A3E;}
	.st8{fill:#E5A279;}
	.st9{fill:#B9B79E;}
	.st10{fill:#DE8728;}
	.st11{fill:#FFFEFE;}
	.st12{fill:#D4DEDF;}
	.st13{fill:#EDECDE;}
	.st14{fill:#564F70;}
</style>
<g id="_x34_NnNwE_1_">
	<g>
		<path class="st0" d="M39.5,260.7c-8.1-17.9-10.1-35.9-2-54.4c2.3-5.3,0.6-11.3,0.6-17c0-4.2-0.7-8.4-0.7-12.5
			c0.1-4.4-0.7-8.3-3.4-11.8c8.5-0.1,17.1-0.2,25.6-0.2c6.6,0,6.7-0.1,6.1-7c1.3-2.5-0.1-5.6,1.8-8c2.6,0.1,5.1,0.3,7.7,0.4
			c0.1,3.3,0.1,6.5,0.2,9.8c-1.7,3.4,0.3,4.5,3.1,5.1c-1.3,14.1-2.9,28.2-3.7,42.3c-0.9,15.1,0.9,30.2,3.5,45.1
			c0.3,1.8,0.2,3.7,0.3,5.6c-3.1,0.1-6.2,0.1-9.3,0.2c-2.9-3.4-4.1-7.6-5.6-11.7c-4.2-11.6-7.6-23.3-4.9-35.9c1-4.6,0.2-9.3-1-14
			c-3.2,10.1-7.8,19.6-8.6,30.4c-0.9,11.4-0.3,22.7-0.8,34C45.4,260.9,42.4,260.8,39.5,260.7z"/>
		<path class="st1" d="M129,135.5c0-0.5-0.3-1.1-0.1-1.3c5.7-5.7,11.3-11.7,18.8-15.1c1-0.5,2.4-0.2,3.6-0.2
			c2.4,1.1,6.7,0.9,3.3,5.5c-0.4,0.5-0.7,1.5,0.8,2c5.7,1.7,7.1,4,7.3,10.3c0,1.2-0.8,3.2,1.4,3.3c1.9,0.1,2-1.6,2.1-3
			c0.2-3.3,1.5-6.6,4.3-7.8c2.7-1.1,4.3-2.9,5.5-5.1c2.3-4,5.2-6.4,10.1-5.4c5.9,3.8,12.4,6.5,18.8,9.3c-1.1,4.1-2.2,8.2-3.2,12.3
			c-2.5,2.4-5.2,0.9-7.7,0.2c-2.3-0.7-3.5-0.7-3.7,2.3c-0.6,8.5-1.4,17-3.5,25.2c-0.6,2.3,1.6,8.2-5,6.4c-0.2-0.1-0.7,0.6-1,0.9
			c-2.9,3.3-3.6,0.7-4.5-1.6c-0.2-0.3-0.5-0.5-0.7-0.8c-0.3-0.3-0.5-0.5-0.8-0.8l-0.1,0c-5.5-6.1-14.5-5.7-20.7,0.9
			c-0.3,0.1-0.4,0.3-0.4,0.6c-2.8,1.1,0.2,2.7-0.4,4c-4.4,2.3-9.2,0.1-13.7,1c-0.7,0-1.4-0.1-2.1-0.1c-0.1-0.6-0.2-1.2-0.2-1.8
			c3.9-11.4,6.2-23.1,7.1-35.3c-3.1,0.6-3.7,4.4-6.9,3.8C134.7,142,131.8,138.7,129,135.5z"/>
		<path class="st2" d="M35.3,75.9c-5.6-1.5-7.8-4.1-7.6-8.4c0.1-1.7,0.5-3.1,2.2-3.7c4.4-1.5,6-5.3,7.2-9.2c2.8-9.6,4.1-19.4,3-29.4
			C39,14.5,46.9,5.4,57.7,5.4c9.5,0,18.5,2.1,25.8,8.9c3.4,3.1,4.1,6.8,1.4,10.8c-4.8,0.6-10.7-2.5-13.4,4.5c-0.5,1.3-2,2.4-3.3,3.2
			c-2.5,1.6-5,3.7-7.6-0.5c-1.7-2.6-5-1.8-6.2,1.3c-0.9,2.4-1.1,5.1,0.6,7.1c2,2.3,1.3,4.5,0.7,6.9c-1.5,6.3-4.6,12.1-6.5,18.2
			C45.2,70,41.9,75.3,35.3,75.9z"/>
		<path class="st3" d="M49.2,65.8c2-6.1,5.1-11.9,6.5-18.2c0.5-2.4,1.3-4.5-0.7-6.9c-1.7-2-1.6-4.7-0.6-7.1c1.2-3,4.5-3.9,6.2-1.3
			c2.6,4.2,5.1,2.1,7.6,0.5c1.3-0.8,2.8-1.9,3.3-3.2c2.7-7,8.7-3.9,13.4-4.5c0.2,3-0.5,5.8-1.4,8.6c-1,3.2-1.5,6.3,0.8,9.2
			c0.6,0.8,1.1,1.9,0.4,2.6c-3.8,3.6-3.8,9.4-7.5,12.9c-1.7,1.7-3.4,1.9-5.3,0.5c-1.6-3-4.6-4.2-7.4-5.8c-0.2-0.1-0.4-0.2-0.5-0.3
			c0.1,0.2,0.2,0.4,0.3,0.6c0.2,2.4,2.4,3.1,3.9,4.4c-3.2,0.7-5.3,2.5-5.7,6c-2.6,1.7-2.4,3.7-0.8,5.9c1.5,2.2,2.9,4.4,4.4,6.6
			c8.3,11.3,11.9,23.8,10,37.7c-1.9-0.1-3.9,0.7-5.6-0.8C73.1,93,61.7,79.2,49.2,65.8z"/>
		<path class="st3" d="M189.4,88.5c3.6,6.2,1.2,12.1-5.7,13.4c-1.8,0.3-2.5,1.3-2.6,2.6c-0.4,3.4-2.7,5.8-4.3,8.6
			c-3.7,1.2-7.5,1-11.3,0.9c-1.7-0.1-3.4-1.7-5.1,0c-1.3-2-3.7-2-5.4-3.5c-4.2-3.7-4.1-8.4-3.5-13.2c0.3-1.6,1.1-3.3,0.8-4.9
			c-0.3-2.5,1.7-5.4-1.4-7.3c3-1.8,2.6-4.8,2.6-7.6c1.4-2.5,2.5-5.3,4.6-7.4c1.6-0.8,2.7-2.1,5-1.1c6.1,2.6,12.4,4.9,18.7,6.9
			c3.2,1,3.7,2.7,3.1,5.5c-0.8,3.5-1.5,7-2.5,11.7C184.8,90.2,187,89.2,189.4,88.5z M162.7,88.8c-0.7,0.4-0.9,1.1-0.9,1.9
			c-0.8,0.4-0.9,1.1-1,1.8c-1,0.2-2.1,0.7-1.5,1.8c0.9,1.8,2.6,2.3,5,1.8c-1.3-1.3-3.3-1.5-3.3-3.4c0.7-0.4,0.9-1.1,0.9-1.9
			C162.5,90.3,162.7,89.6,162.7,88.8c0.1-0.1,0.1-0.3,0.2-0.4C162.8,88.5,162.8,88.7,162.7,88.8z M169.2,101.8
			c0.1-0.6,0.2-1.2,0.3-1.7c-3.9,0.6-7.8-1.7-11.7,0.1c-0.8,3.8,2.2,4.9,4.6,5.3C165.1,105.8,168.5,105.8,169.2,101.8z M158.8,85.2
			c-1.5,0.4-1.9,1.4-1.8,2.8c0,1.2,0.5,2.2,1.9,2c1.5-0.2,2-1.3,1.9-2.6C160.7,86.2,160.1,85.4,158.8,85.2z M174.9,88.9
			c-0.2-0.9-0.5-2-1.9-1.9c-1.5,0-1.9,1.2-2,2.5c0,1.2,0.5,2.2,1.8,2.1C174.4,91.7,174.9,90.5,174.9,88.9z"/>
		<path class="st4" d="M67.6,149.6c-1.9,2.4-0.5,5.5-1.8,8c-1.1,1.9-2.9,1.4-4.6,1.4c-9.9,0-19.7,0-29.6,0c-2.1-9,0.3-17.5,5-24.8
			c4.8-7.5,5.6-15.2,5.3-23.5c0-1.1,0-2.2,0-3.2c2.4,3.8,3.6,8.1,4.8,12.4c1.9,6.9,3.5,8.1,10.7,8.2c4,0.1,8,0.2,12,0.3
			C69.2,135.5,67.1,142.5,67.6,149.6z"/>
		<path class="st5" d="M69.5,128.4c-4-0.1-8-0.2-12-0.3c-7.2-0.1-8.8-1.4-10.7-8.2c-1.2-4.3-2.3-8.6-4.8-12.4
			c-0.6-3.6-2.3-6.9-3.7-10.3c1.1-4.2-1.9-7.5-2.5-11.4c-0.8-5.1,1.2-8,7.1-9.4c4.1-0.9,8.7,1.5,9.3,5.3c1.3,8.6,3.9,16.8,5.6,25.3
			c1.4,6.8,2.5,7.7,9.3,6.9c1.2-0.1,2.4-0.6,3.6-0.9c1.7,1.5,3.7,0.7,5.6,0.8c1.2,0,2.3,0,3.5,0.1c2.5,0.2,5.2-0.1,7.6,1
			c0.2,2.8,0.4,5.6,0.7,8.4c-2.3,1-4.6,2-6.9,3c-1.8,0-3.8-0.5-4.9,1.7C73.8,126.5,71.7,128.5,69.5,128.4z"/>
		<path class="st4" d="M70.6,113.1c-1.2,0.3-2.4,0.8-3.6,0.9c-6.8,0.7-7.9-0.2-9.3-6.9c-1.7-8.5-4.4-16.7-5.6-25.3
			c-0.6-3.8-5.2-6.3-9.3-5.3c-5.8,1.4-7.9,4.3-7.1,9.4c0.6,3.8,3.6,7.2,2.5,11.4c-5.2-6.5-7-13.5-2.9-21.4c6.6-0.6,9.9-5.8,13.9-10
			C61.7,79.2,73.1,93,70.6,113.1z"/>
		<path class="st6" d="M224.4,179.6c-1.3-0.1-2.7-0.3-4-0.4c-1.1-2.1-3.7-1-5.2-2.4c0.1-2.8-0.1-5.7,1-8.4c1.3,0.8,2.6,2.2,3.6-0.3
			c0.9,0.9,1.8,1.8,3.1,3.2c1.1-4.9,3.1-8.9,6.1-12.4c0.3-0.1,0.7-0.1,1-0.2c1.1,0.1,2.2,0.3,3.3,0.4c-0.3,1.1,0.4,1.9,1.1,2.6
			c-0.5,1.6-0.3,3.4,1.2,4.1c1.5,0.7,2.3-1.2,3.3-2.1c2.3-2.3,4.8-4.4,6.1-7.5c4.9,2.8,9.3,5.9,8.9,12.6c-0.2,2.6,2,1.4,3.3,1.5
			c-0.5,2.9,0.7,3,2.8,1.7c0.1,6.3,0.1,6.3-5.5,5.7c-0.9-0.1-1.9,0.1-2.8,0.1c-2.3-0.1-4.2-3.3-6.8-1
			C237.8,176.2,231.4,179.8,224.4,179.6z"/>
		<path class="st7" d="M84.9,103.3c1.4-5.2,6.6-6.5,10.2-9.2c8-5.8,19.8-4.3,27.1,2.4c4.1,3.8,6.8,4,11.5,0.9c0.7-0.5,1.3-1,2-0.5
			c0.4,0.3,0.9,0.9,0.9,1.4c0.1,1.2-0.7,1.7-1.7,1.7c-3.1,0.2-5,1.5-5.1,4.8c-2.2,0.2-5-1.1-5.7,2.5c-2.4-0.4-6.1-2.9-4.2,2.9
			c-1,0-2.1-0.1-3.1-0.1c-2.5-3.5-4-3.5-7.4,0c-0.8,0-1.7,0.1-2.5,0.1c0-1.3,1.7-2.9,0.4-3.8c-1.7-1.2-3.5-0.1-4.9,1.3
			c-1.9-5.6-5.3-2.7-8.3-1.4c-1.3,0-2.7,0-4,0.1C88.3,105.2,86,105.3,84.9,103.3z"/>
		<path class="st3" d="M109.1,286.2c-0.1,2.9-2.4,1.8-3.8,1.8c-7.5,0.1-14.9,0-22.4,0.1c-1.9,0-4.2-0.7-4.7,2.4
			c-0.3,1.6-1.9,1.3-3.1,1.3c-13.1,0-26.2,0-39.2,0.1c-2.3,0-2.9,0.1-2.2-3.1c1.1-4.3,3-8.4,3.8-12.8c1.9-5,1.3-10.3,2-15.4
			c3,0.1,5.9,0.2,8.9,0.3c1.2,5.8,1.6,12,7.8,15.4c-2.5,4.5-5,8.9-8.2,14.5c9.3,0,17.5,0,25.7,0c3.3,0,4.9-1,2.9-4.4
			c1.3,0,2.5-0.1,3.8-0.1c7.5,0.2,15,0.5,22.5,0.7C104.9,287,107.2,287.6,109.1,286.2z"/>
		<path class="st3" d="M129,135.5c2.8,3.3,5.7,6.6,8.5,9.8c-0.6,0.9-1.2,1.8-1.9,2.7c-8.2,10.6-7.8,18.9,1.7,28.8
			c0.1,0.6,0.2,1.2,0.2,1.8c-3.7,1.2-7.6,0.9-11.4,1c-0.6-1.3-1.5-2.2-2.7-2.9C113.1,160.9,119.4,145.5,129,135.5z"/>
		<path class="st2" d="M189.4,88.5c-2.4,0.7-4.6,1.7-7,4.7c1-4.7,1.7-8.2,2.5-11.7c0.6-2.8,0.1-4.5-3.1-5.5
			c-6.4-2-12.6-4.3-18.7-6.9c-2.3-1-3.4,0.3-5,1.1c-1.3-0.5-2-1.4-2.1-2.8c0.6-0.6,1.8-1.3,1.8-1.9c-0.4-5.4,3.3-5.6,7-5.7
			c10.3-0.3,18.6,4.2,25.8,11.1c2.3,2.2,3.2,4.8,2,8C191.4,82,190.5,85.2,189.4,88.5z"/>
		<path class="st8" d="M80.3,286.3c-1.3,0-2.5,0.1-3.8,0.1c0,0,0-0.1,0-0.1c-0.4-0.8-1.1-0.9-1.8-0.9c-3.1-0.9-5.8-2.7-8.5-4.3
			c0.4-1.8,1.9-3.1,1.9-5.1c3.4-5.7,1.6-11.9,1.2-17.9c3.1-0.1,6.2-0.1,9.3-0.2c1.8,5.7,3.9,11.3,9.2,14.8
			C85.3,277.2,82.8,281.8,80.3,286.3z"/>
		<path class="st3" d="M228.1,121.4c0.2-1.9,1.9-2.8,3-4c5.2-5.6,9.8-11.5,11.2-19.4c0.1-0.8,0.4-1.6,1.4-1.4c1.3,0.2,2,1.3,2,2.3
			c0.1,5.7,3.6,4.3,6.6,3c3.4-1.4,6.8-3.2,10.1-4.8c0.8-0.4,1.7-1,2.6-0.2c0.9,0.9,0.5,2,0,3c-2.9,5.1-7.3,8.6-12.7,10.4
			c-5.7,1.9-8.3,6-10.1,11.1C237.5,119.9,232.8,120.7,228.1,121.4z"/>
		<path class="st7" d="M228.1,121.4c4.7-0.7,9.4-1.5,14.1,0c3.3,1,6.3,2.4,8.8,4.8c1.5,1.5,4.3,5.5,4.3,7.7c0.1,2.4,0.5,4.9-0.4,7.3
			c-1.9-1.3-5-1.7-3.7-5.3c0.4-1.2-1.2-1.8-2.1-2.2c-3.9-1.8-7.8-4-12.3-3.8c-0.9,0-0.9-2.7-2.5-0.8c-2.5,0-5.1,0-7.6,0
			c-2.3,1.6-5,6.4-5,9.2c-0.5-0.1-1.1-0.2-1.6-0.3c-1.6-5.3,1.2-9.3,3.7-13.5c0,0,0,0,0,0c0.3-0.3,0.7-0.5,1-0.8
			C225.3,122.3,227.1,122.4,228.1,121.4z"/>
		<path class="st7" d="M113.3,298.3c-0.1-7.1-0.2-14.3-0.3-21.4c0.2-1.2,0.4-2.5-0.5-3.6c0.2-0.4,0.5-0.9,0.7-1.3
			c0.6-2.8,2.2-4.2,5.2-3.6c1.4,0.2,2.8,0.2,4.2,0.2c0.1,2.5,0.1,5,0.2,7.5c-0.8,7.4-0.1,14.9-1.4,22.3
			C118.7,298.3,116,298.3,113.3,298.3z"/>
		<path class="st4" d="M79.7,113.9c-1.2,0-2.3,0-3.5-0.1c1.8-13.9-1.8-26.4-10-37.7c-1.6-2.1-2.9-4.4-4.4-6.6
			c-1.6-2.3-1.7-4.3,0.8-5.9C71.5,74.2,78,86.1,82.2,99.3c0,2.4,0,4.9,0,7.3c0,0,0,0,0,0c-1.6,0.6-0.4,3-1.8,3.3
			C76.2,110.7,79,112.5,79.7,113.9z"/>
		<path class="st2" d="M80.3,286.3c2.5-4.5,5-9.1,7.5-13.6c2.8,1.3,5.6,2.6,8.5,3.9c0.4,0.2,0.9,0.4,1.3,0.5c3,1.6,5.9,3.2,8.9,4.8
			c1.7,0.9,3.2,2,2.6,4.3c-1.9,1.4-4.2,0.8-6.3,0.7C95.3,286.8,87.8,286.5,80.3,286.3z"/>
		<path class="st9" d="M79.7,113.9c-0.7-1.5-3.5-3.3,0.7-4c1.4-0.3,0.2-2.7,1.8-3.3c0.3,5.7,4.4,3.3,7.3,3.4
			c0.5,0.1,1.1,0.1,1.6,0.2c1.2-0.1,2.5-0.2,3.7-0.3c2.4,0.6,4.9,0.6,7.3-0.1c1.5,0.7,3.1,0.3,4.7,0.3c0.8,0,1.7-0.1,2.5-0.1
			c2.5,0.4,4.9,0.4,7.4,0c1,0,2.1,0.1,3.1,0.1c1.6,0,3.3-0.1,5-0.1c2.2,0,4.4,0,6.6-0.1c0.3,3.4-1,5.1-4.6,5c-1.2,0-2.3,0.6-3.5,0.9
			c-1.7-1.1-3.5-0.9-5.4-0.9c-10.2,0-20.4,0-30.6,0C84.8,113.9,82.2,114.2,79.7,113.9z"/>
		<path class="st3" d="M223.7,124.5c-2.5,4.2-5.3,8.2-3.7,13.5c-5.8,2.7-11.8,4.1-18.2,2.2c1.1-4.1,2.2-8.2,3.2-12.3
			c5,0.7,9.7-0.5,14.3-2.3C220.7,125.1,222,124.1,223.7,124.5z"/>
		<path class="st8" d="M87.3,114.9c10.2,0,20.4,0,30.6,0c1.9,0,3.7-0.2,5.4,0.9c-3.8,4.6-9.3,6-14.5,5.3c-7.2-0.9-14,0.2-20.8,2.1
			C87.7,120.5,87.5,117.7,87.3,114.9z"/>
		<path class="st0" d="M186.2,118.6c-4.9-1-7.8,1.4-10.1,5.4c-1.2,2.2-2.8,4-5.5,5.1c-2.9,1.2-4.1,4.5-4.3,7.8
			c-0.1,1.4-0.2,3.1-2.1,3c-2.2-0.1-1.4-2.1-1.4-3.3c-0.1-6.4-1.5-8.6-7.3-10.3c-1.5-0.5-1.2-1.5-0.8-2c3.4-4.6-0.9-4.5-3.3-5.5
			c3-0.4,6.5,0.9,8.2-2.9c0.1,1.4,0.4,2.8,0.3,4.2c-0.2,3.5,1.8,5.7,4.5,6.8c2.9,1.2,4.2-1.8,5.7-3.4c2.5-2.7,3.9-6.4,6.7-8.8
			C178.7,118.8,183.2,116.9,186.2,118.6z"/>
		<path class="st4" d="M76.1,127.9c1.1-2.2,3.1-1.6,4.9-1.7c0.4,7.9,0.8,15.8,1.2,23.7c0,1.1,0.1,2.3,0.1,3.4c0,0.9,0.1,1.7,0.1,2.6
			c0,0.3,0,0.7,0.1,1c0.1,1,0.2,1.9,0.3,2.9c-2.5,0-4.9,0-7.4,0c-0.1-3.3-0.1-6.5-0.2-9.8c0.2-1.4,0.4-2.7,0.5-4.1
			c0.1-0.1,0.3-0.2,0.3-0.3c-0.1-0.3-0.2-0.5-0.3-0.7c-0.2-4.4-0.3-8.7,0.2-13c0.6-0.7,0.5-1.5,0.4-2.4
			C76.3,129,76.2,128.5,76.1,127.9z"/>
		<path class="st5" d="M31.7,159c9.9,0,19.7,0,29.6,0c1.6,0,3.5,0.5,4.6-1.4c0.5,6.9,0.5,7-6.1,7c-8.5,0-17.1,0.1-25.6,0.2
			C31.4,163.7,31.4,161.4,31.7,159z"/>
		<path class="st8" d="M233.3,159.1c-1.1-0.1-2.2-0.3-3.3-0.4c0.4-0.5,0.7-1.3,1.1-1.4c7.6-1.8,11.6-6.7,12.1-14.4
			c0.1-1.3,0.2-2.5,1.9-2.6c-0.1,1.8-0.2,3.6-0.3,5.6c2.8-0.8,6.1-5.1,7.7,1.1c-0.3,3.5-2.7,5.3-5.6,6c-2.2,0.6-2.9,1.2-2,3.3
			c-1.3,3.1-3.8,5.2-6.1,7.5c-0.9,0.9-1.8,2.8-3.3,2.1c-1.5-0.7-1.7-2.4-1.2-4.1c3.5-0.5,6.3-2,8.7-5.6
			C239.3,157.2,236.3,158.2,233.3,159.1z"/>
		<path class="st8" d="M176.8,114.7c-2.9,2.5-4.2,6.1-6.7,8.8c-1.5,1.6-2.8,4.6-5.7,3.4c-2.8-1.2-4.7-3.4-4.5-6.8
			c0.1-1.4-0.2-2.8-0.3-4.2c0.2-0.6,0.5-1.2,0.7-1.9c1.7-1.7,3.4-0.1,5.1,0c3.8,0.1,7.6,0.4,11.3-0.9
			C176.8,113.6,176.8,114.1,176.8,114.7z"/>
		<path class="st2" d="M252.5,146.9c-1.6-6.1-4.9-1.8-7.7-1.1c0.1-2,0.2-3.8,0.3-5.6c0.5-2.3-1.4-2.8-2.9-3.4
			c-3.3-1.2-5.1-3.5-5.5-6.9c4.6-0.2,8.4,1.9,12.3,3.8c0.9,0.4,2.5,1,2.1,2.2c-1.2,3.7,1.8,4,3.7,5.3
			C254.5,143.3,254.4,145.5,252.5,146.9z"/>
		<path class="st1" d="M113.2,272c-0.2,0.4-0.5,0.9-0.7,1.3c-4.8-0.1-9.7-0.2-14.5-0.4c1.2-6.2,6.3-7.7,11.3-9.3
			c1.2,0.1,2.4,0.2,3.5,0.3C113,266.6,113.1,269.3,113.2,272z"/>
		<path class="st9" d="M98,273c4.8,0.1,9.7,0.2,14.5,0.4c0.8,1.1,0.7,2.3,0.5,3.6c-5.1,0-10.3-1-15.4,0.2c-0.4-0.2-0.9-0.4-1.3-0.5
			C96.9,275.4,97.4,274.2,98,273z"/>
		<path class="st10" d="M131.4,110c-2.2,0-4.4,0-6.6,0.1c-0.3-0.9-0.5-1.8-0.7-2.7c0.7-3.6,3.5-2.3,5.7-2.5
			C132.4,105.9,136.1,106.5,131.4,110z"/>
		<path class="st5" d="M75.4,159.8c2.5,0,4.9,0,7.4,0c1.5,4.2-0.8,5.1-4.3,5.1C75.7,164.3,73.7,163.2,75.4,159.8z"/>
		<path class="st8" d="M150.9,85.1c3.1,1.9,1.1,4.9,1.4,7.3c0.2,1.6-0.5,3.2-0.8,4.9C147.9,92.9,147.7,89.7,150.9,85.1z"/>
		<path class="st6" d="M89.5,110c-2.9-0.2-7,2.3-7.3-3.4c0,0,0,0,0,0c1-0.2,1.4-1,1.7-1.8c0.3-0.5,0.6-1,0.9-1.4
			c1.1,2,3.4,1.9,5.1,2.9c-0.1,0.4-0.2,0.8-0.3,1.2C88.2,108.2,89,109.1,89.5,110z"/>
		<path class="st7" d="M156,67.3c0,1.4,0.8,2.3,2.1,2.8c-2.1,2.1-3.2,4.9-4.6,7.4C150.4,74,150.9,72,156,67.3z"/>
		<path class="st8" d="M64.5,53.1c2.7,1.6,5.7,2.8,7.4,5.8c-1.2-0.4-2.5-0.8-3.7-1.2c-1.5-1.3-3.6-2-3.9-4.4L64.5,53.1z"/>
		<path class="st9" d="M83.9,104.7c-0.3,0.9-0.7,1.6-1.7,1.8c0-2.4,0-4.9,0-7.3C84,100.7,81.9,103.4,83.9,104.7z"/>
		<path class="st5" d="M82.3,153.3c0-1.1-0.1-2.3-0.1-3.4C82.7,151,82.7,152.2,82.3,153.3z"/>
		<path class="st3" d="M224.6,123.7c-0.3,0.3-0.7,0.5-1,0.8C223.7,123.9,224,123.6,224.6,123.7z"/>
		<path class="st5" d="M82.5,156.9c0-0.3-0.1-0.7-0.1-1c0.1,0.2,0.2,0.5,0.3,0.7C82.7,156.7,82.5,156.8,82.5,156.9z"/>
		<path class="st0" d="M174.5,263c0.1,3,3.2,5.7,1,9c-4.1,1.9-8.4,0.6-12.6,0.9c-0.1-3.9-1.5-7.1-5-9.2c0.1-0.3,0.1-0.5,0.2-0.8
			C163.6,262.9,169.1,263,174.5,263z"/>
		<path class="st2" d="M136.8,273.2c0.4,4.1-0.7,6.5-5.6,5.9c-2.2-0.3-2.4-1.4-2.8-2.9c0.1-1.7,0-3.3,0.2-5c0.3-2.8-1.1-5.8,1.3-8.3
			c2.2,0,4.4,0,6.5,0C136.6,266.3,136.7,269.8,136.8,273.2z"/>
		<path class="st9" d="M130,262.9c-2.4,2.5-1,5.5-1.3,8.3c-0.2,1.6-0.2,3.3-0.2,5c-1.9,0-3.8-0.1-5.6-0.1c-0.1-2.5-0.1-5-0.2-7.5
			c1.3-1.9,1.2-3.8-0.2-5.7C124.9,262.9,127.4,262.9,130,262.9z"/>
		<path class="st7" d="M255.8,263.1c0.1,3.1,0.1,6.2,0.2,9.3c0.1,1.8-0.9,2.4-2.6,2.4c-1.7,0-2.7-0.6-2.6-2.4
			c0.1-3.1,0.2-6.2,0.2-9.3C252.6,263.1,254.2,263.1,255.8,263.1z"/>
		<path class="st7" d="M209.1,263c0,3.1,0,6.2,0.1,9.3c0.1,1.8-0.9,2.4-2.6,2.4c-1.7,0-2.6-0.6-2.6-2.5c0.1-3.1,0.1-6.2,0.1-9.3
			C205.8,263,207.5,263,209.1,263z"/>
		<path class="st2" d="M122.4,262.9c1.4,1.8,1.5,3.7,0.2,5.7c-1.4-0.1-2.8,0-4.2-0.2c-3-0.6-4.6,0.8-5.2,3.6
			c-0.1-2.7-0.3-5.4-0.4-8.1C115.8,261.9,119.2,263.5,122.4,262.9z"/>
		<path class="st9" d="M142.2,276.9c0-1.6-0.5-3.2,0.4-4.7c6.7,2.3,13.5,0.9,20.3,0.7c4.2-0.3,8.5,1,12.6-0.9c1,2,2.9,1.1,4.5,1.3
			c1.7,0.3,3.8,0.1,4,2.6c-1.7,1-3.6,0.8-5.4,0.8C166.4,276.8,154.3,276.9,142.2,276.9z"/>
		<path class="st11" d="M224.4,179.6c7,0.2,13.4-3.4,20.5-2.8c0,1.6-1.5,2-2.5,2.7c-3.1-0.7-6.2-0.2-9,1c-2.5,1.1-3.9,2.9-0.6,4.9
			c4,3,8.3,5.1,13.4,4.3c0.5,0.1,1,0.2,1.6,0.3c-1.1,3.1-3.7,1.6-5.6,1.6c-2.3,0-4.7-0.4-6.8-1.1c-2.5-0.8-3.6-0.4-5.1,2
			c-1.6,2.5-4.7,3.8-8,3.9c-2.8,0.2-4.7-0.6-4.4-3.8c0.3-2.9-1-3.8-3.8-3.7c-3.1,0.2-6.2,0-9.3,0.1c-1.7,0-3.1-0.5-4-1.9
			c-0.6-0.9-1.5-1.8-1-2.9c0.5-1.3,1.9-0.8,2.9-0.8c4-0.1,8.1,0,12.1,0c2.9-0.1,4.8,2.5,8.1,2.4c3.2-0.1,3.6-2.4,4.3-3.7
			C228.4,179.5,224.6,181.3,224.4,179.6z M229.9,189.6c0-1.1-0.4-2-1.4-2.2c-1-0.2-1.2,0.7-1.2,1.5c0,0.9-0.3,2,0.9,2.3
			C229.4,191.5,229.7,190.5,229.9,189.6z"/>
		<path class="st12" d="M175.8,183.3c2.6-0.3,4.7-2.2,7.5-1.9c5.2,0.6,7.6,4.1,9.4,8.4c-0.9,1.9-2.6,1.9-4.3,1.9
			c-3.4,0-6.8,0-10.1,0c-5.8,0-5.8,0-4.3-5.6c0.8-0.4,0.9-1.1,1-1.9c0,0,0,0,0,0C175.2,184,175.5,183.6,175.8,183.3L175.8,183.3z"/>
		<path class="st11" d="M126.2,179.6c3.8-0.1,7.7,0.2,11.4-1c0.7,0,1.4,0.1,2.1,0.1c0.1,1.8-1.3,2.3-2.5,3c-2.7-0.2-5.4-0.5-8.1,0.6
			c-2.8,1.2-3.9,2.8-2.1,5.6c-0.6,1.5,0.7,2,1.5,2.8c-2.9,0.4-5.4-0.6-6.6-3.2c-1.3-3,1.3-4.4,3.2-5.9
			C125.8,181,126.1,180.4,126.2,179.6z"/>
		<path class="st7" d="M203.5,178c0.3,0,0.7-0.1,1-0.1c0.5,0.8,0.9,0.8,1.2-0.1c0,0,0,0,0,0c0.4-0.3,0.7-0.6,1.1-0.9
			c2.7-1.4,5.5-0.7,8.2-0.1c1.5,1.4,4.1,0.2,5.2,2.4c-6,1.9-12.1,1.7-18.2,0.5c0,0,0,0,0,0C202.9,179.4,203.2,178.7,203.5,178z"/>
		<path class="st2" d="M128.5,190.6c-0.8-0.8-2.1-1.2-1.5-2.8c2.5-1.3,5.3-1.5,8-1.9c1.9,1.2,4.6,0.3,6.2,2.2c0.5,1.8-2.5,1.5-2,3.4
			c-2.5,0.1-5,0.3-7.4,0.4c-0.3-0.1-0.5-0.2-0.8-0.2c-0.3-0.3-0.7-0.5-1-0.8C129.5,190.8,129,190.7,128.5,190.6z"/>
		<path class="st8" d="M139.3,191.5c-0.5-1.8,2.5-1.6,2-3.4c2.9,0,5.8,0,8.7,0c-0.8,1.1-1.7,2.2-2.5,3.3c-1.8,0.2-3.6,0.3-5.4,0.5
			C141.1,191.8,140.2,191.7,139.3,191.5z"/>
		<path class="st3" d="M247.8,190c-0.5-0.1-1-0.2-1.6-0.3c0-1.1-0.1-2.3-0.1-3.4c2.2-0.1,4.5-0.2,6.7-0.3c0.4,0,0.8,0.1,1.2,0.1
			c-0.3,2-1.2,3.5-3.3,4C249.7,190.1,248.8,190.1,247.8,190z"/>
		<path class="st11" d="M139.3,191.5c0.9,0.1,1.9,0.3,2.8,0.4c0.2,0.6,0.5,1.6-0.1,1.5c-3.4-0.1-7.1,1.2-10.1-1.6
			C134.3,191.8,136.8,191.6,139.3,191.5z"/>
		<path class="st11" d="M174.9,184.3c0,0.8-0.2,1.5-1,1.9C173.9,185.4,174.1,184.7,174.9,184.3z"/>
		<path class="st11" d="M175.8,183.3c-0.3,0.3-0.6,0.6-1,1C175.2,184,175.5,183.6,175.8,183.3z"/>
		<path class="st11" d="M129.9,190.9c0.3,0.3,0.7,0.5,1,0.8C130.6,191.5,130.3,191.2,129.9,190.9z"/>
		<path class="st13" d="M76.1,127.9c0.1,0.5,0.2,1,0.3,1.5c-0.7,0.7-0.8,1.5-0.4,2.4c-0.6,4.3-0.4,8.7-0.2,13c0,0.4,0,0.7,0,1.1
			c-0.2,1.4-0.4,2.7-0.5,4.1c-2.6-0.1-5.1-0.3-7.7-0.4c-0.5-7.2,1.7-14.1,1.9-21.3C71.7,128.5,73.8,126.5,76.1,127.9z"/>
		<path class="st14" d="M137.2,181.7c1.1-0.7,2.6-1.2,2.5-3c4.5-0.9,9.3,1.3,13.7-1c0.8,1.4,0,1.6-1.1,1.6c-2.3,0-4.6,0-8.1,0
			c2.8,1.5,4.9,2.2,4.6,4.7c0,0,0,0.3,0,0.3c-3.8-0.9-7.7-0.1-11.5-0.3C137.2,183.2,137.2,182.5,137.2,181.7z"/>
		<path class="st14" d="M154.1,173c6.2-6.6,15.1-7,20.7-0.9c-1.5-0.4-3.2,0.4-4.7-0.5c-4.9-4.8-9.2-1.1-13.6,1
			C155.7,172.7,154.9,172.9,154.1,173z"/>
		<path class="st9" d="M170.1,171.6c1.5,0.9,3.2,0.1,4.7,0.5c0,0,0.1,0,0.1,0c-0.1,0.6,0.3,0.8,0.8,0.8c0.2,0.3,0.5,0.5,0.7,0.8
			c-4,0.2-8,1-12-0.3C166,171.8,168.6,173.7,170.1,171.6z"/>
		<path class="st9" d="M154.1,173c0.8-0.1,1.6-0.3,2.3-0.4c2.1,0.3,4.2,0.5,6.3,0.8c-3,1.2-6,0.4-9.1,0.3
			C153.7,173.3,153.8,173.1,154.1,173z"/>
		<path class="st14" d="M175.6,172.9c-0.5,0-0.8-0.2-0.8-0.8C175.1,172.4,175.4,172.6,175.6,172.9z"/>
		<path class="st8" d="M64.3,53.3c-0.1-0.2-0.2-0.4-0.3-0.6c0.2,0.1,0.4,0.2,0.5,0.3C64.5,53.1,64.3,53.3,64.3,53.3z"/>
		<path class="st13" d="M157.8,100.2c3.9-1.8,7.8,0.5,11.7-0.1c-0.1,0.6-0.2,1.2-0.3,1.7C164.9,104.7,161.1,104.2,157.8,100.2z"/>
		<path class="st8" d="M157.8,100.2c3.3,4.1,7.1,4.5,11.4,1.6c-0.8,4-4.1,4-6.8,3.6C160,105.1,157,104,157.8,100.2z"/>
		<path class="st2" d="M158.8,85.2c1.2,0.2,1.9,1,1.9,2.2c0.1,1.4-0.5,2.5-1.9,2.6c-1.4,0.2-1.8-0.8-1.9-2
			C156.9,86.6,157.4,85.6,158.8,85.2z"/>
		<path class="st2" d="M174.9,88.9c0,1.6-0.5,2.7-2,2.7c-1.3,0-1.8-0.9-1.8-2.1c0-1.3,0.4-2.5,2-2.5C174.4,87,174.7,88.1,174.9,88.9
			z"/>
		<path class="st8" d="M160.9,92.6c0,1.9,2,2.1,3.3,3.4c-2.4,0.5-4.1,0.1-5-1.8c-0.5-1.1,0.6-1.6,1.5-1.8L160.9,92.6z"/>
		<path class="st8" d="M160.8,92.5c0.1-0.8,0.2-1.5,1-1.8l0,0c0,0.8-0.2,1.5-0.9,1.9C160.9,92.6,160.8,92.5,160.8,92.5z"/>
		<path class="st8" d="M161.7,90.7c0-0.8,0.2-1.5,0.9-1.9l0,0C162.7,89.6,162.5,90.3,161.7,90.7C161.8,90.7,161.7,90.7,161.7,90.7z"
			/>
		<path class="st8" d="M162.7,88.8c0.1-0.1,0.1-0.3,0.2-0.4C162.8,88.5,162.8,88.7,162.7,88.8C162.7,88.8,162.7,88.8,162.7,88.8z"/>
		<path class="st3" d="M229,158.9c-6.8-3.6-8.8-7.7-7.5-15c0.3-1.8,0.1-3.7,0.1-5.6c0.1-2.8,2.7-7.6,5-9.2c-1.3,4.3,1.1,4.6,4.5,4.9
			c4.6,0.3,2.9-2.7,3.1-4.8c1.5-1.9,1.5,0.8,2.5,0.8c0.4,3.4,2.2,5.7,5.5,6.9c1.5,0.6,3.3,1,2.9,3.4c-1.7,0.1-1.8,1.3-1.9,2.6
			c-0.4,7.8-4.4,12.6-12.1,14.4c-0.4,0.1-0.7,0.9-1.1,1.4C229.7,158.8,229.3,158.9,229,158.9z"/>
		<path class="st3" d="M216.2,168.4c0.3-2.1-0.9-3-2.6-3.9c-3.2-1.7-5.4-4.6-7.8-7.2c-0.6-0.7-1.2-1.6-0.4-2.5
			c0.8-0.9,1.7-0.3,2.5,0.2c1,0.7,2.1,1.4,3,2.2c2.8,2.4,5.6,5,7.6-2c2.1,5,1,9,1.4,12.8C218.8,170.6,217.5,169.3,216.2,168.4z"/>
		<path class="st14" d="M242.3,179.5c1-0.7,2.5-1.1,2.5-2.7c2.7-2.2,4.5,0.9,6.8,1c0.6,1.3,2.3,2.2,2,4c-0.2,0.2-0.2,0.4-0.2,0.7
			c-3.7-1.3-7.6-0.1-11.3-0.7C242.2,181,242.3,180.2,242.3,179.5z"/>
		<path class="st10" d="M233.3,159.1c3-0.9,6.1-1.9,9.8-3c-2.4,3.6-5.2,5.1-8.7,5.6C233.7,161,233,160.2,233.3,159.1z"/>
		<path class="st10" d="M102.1,109.8c-2.4,0.6-4.9,0.6-7.3,0.1c-0.3-1.2-0.6-2.5-0.8-3.7c3.1-1.3,6.4-4.1,8.3,1.4
			C102.3,108.3,102.2,109.1,102.1,109.8z"/>
		<path class="st5" d="M102.1,109.8c0.1-0.8,0.1-1.5,0.2-2.2c1.4-1.4,3.2-2.4,4.9-1.3c1.4,0.9-0.4,2.5-0.4,3.8
			C105.3,110.1,103.7,110.6,102.1,109.8z"/>
		<path class="st5" d="M94,106.1c0.3,1.2,0.6,2.5,0.8,3.7c-1.2,0.1-2.5,0.2-3.7,0.3c-0.5-1-1-1.9-1.4-2.9c0.1-0.4,0.2-0.8,0.3-1.2
			C91.3,106.2,92.6,106.2,94,106.1z"/>
		<path class="st5" d="M124.1,107.3c0.2,0.9,0.5,1.8,0.7,2.7c-1.6,0-3.3,0.1-4.9,0.1C118,104.4,121.7,106.9,124.1,107.3z"/>
		<path class="st5" d="M116.8,110c-2.5,0.4-4.9,0.4-7.4,0C112.8,106.6,114.3,106.6,116.8,110z"/>
		<path class="st2" d="M56.1,276.3c0.2,0,0.4-0.1,0.6-0.2c3.2,1.7,6.4,3.3,9.5,5c2.8,1.6,5.4,3.4,8.5,4.3c0.6,0.3,1.2,0.6,1.8,0.9
			c0,0,0,0.1,0,0.1c1.9,3.4,0.4,4.4-2.9,4.4c-8.2,0-16.3,0-25.7,0C51.1,285.3,53.6,280.8,56.1,276.3z"/>
		<path class="st3" d="M76.6,286.3c-0.6-0.3-1.2-0.6-1.8-0.9C75.5,285.4,76.2,285.5,76.6,286.3z"/>
		<path class="st2" d="M234.3,129.2c-0.2,2.1,1.5,5.1-3.1,4.8c-3.5-0.2-5.9-0.6-4.5-4.9C229.2,129.1,231.7,129.1,234.3,129.2z"/>
		<path class="st7" d="M89.7,107.4c0.5,1,0.9,1.9,1.4,2.9c-0.5-0.1-1.1-0.1-1.6-0.2C89,109.1,88.2,108.2,89.7,107.4z"/>
		<path class="st5" d="M76,131.8c-0.4-0.9-0.3-1.7,0.4-2.4C76.6,130.3,76.6,131.1,76,131.8z"/>
		<path class="st5" d="M75.8,145.9c0-0.3,0-0.7,0-1.1c0.1,0.2,0.2,0.5,0.3,0.7C76.1,145.7,75.9,145.8,75.8,145.9z"/>
		<path class="st1" d="M162.9,272.9c-6.8,0.1-13.6,1.5-20.3-0.7c2.9-6.7,8.5-8.7,15.3-8.5C161.4,265.8,162.8,269,162.9,272.9z"/>
		<path class="st4" d="M137.2,184c3.8,0.2,7.7-0.6,11.5,0.3c1.4,0.8,2.5,1.8,2.8,3.5c-0.5,0.1-1,0.2-1.5,0.3c-2.9,0-5.8,0-8.8,0
			c-1.7-1.9-4.3-1-6.2-2.2C135.4,185,136.1,184.3,137.2,184z"/>
		<path class="st7" d="M162.8,173.4c-2.1-0.3-4.2-0.5-6.3-0.8c4.4-2,8.7-5.8,13.6-1c-1.4,2.1-4.1,0.2-5.7,1.8
			C163.8,173.4,163.3,173.4,162.8,173.4z"/>
		<path class="st5" d="M151.5,187.8c-0.3-1.7-1.4-2.7-2.8-3.5c0,0,0-0.4,0-0.3c1.3,0.1,2.5-1.3,3.9-0.2c0.9,0.8,2.2,1.5,1.9,2.8
			C154.2,188,152.9,188.2,151.5,187.8z"/>
		<path class="st13" d="M203.5,178c-0.3,0.7-0.6,1.4-1.4,1.7C202,178.7,202.3,177.9,203.5,178z"/>
		<path class="st13" d="M206.9,176.9c-0.4,0.3-0.7,0.6-1.1,0.9C206.2,177.4,206.5,177.2,206.9,176.9z"/>
		<path class="st13" d="M205.7,177.8c-0.3,0.9-0.7,0.9-1.2,0.1C204.9,177.8,205.3,177.8,205.7,177.8z"/>
		<path class="st4" d="M242.2,181.8c3.7,0.6,7.6-0.6,11.3,0.7c1.4,0.7,2.5,1.6,2.8,3.2c-0.7,0.2-1.5,0.3-2.2,0.4
			c-0.4,0-0.8-0.1-1.2-0.1c-2.3-1-4.6-0.8-7-0.2c-2.2-0.2-4.3-0.3-6.5-0.5C238.8,182.9,240.7,182.5,242.2,181.8z"/>
		<path class="st5" d="M256.3,185.7c-0.3-1.6-1.4-2.6-2.8-3.2c-0.1-0.3,0-0.5,0.2-0.7c1.2-0.2,2.3-0.9,3.5-0.3
			c1.2,0.6,2.6,1.6,2.4,3C259.2,186,257.8,186.3,256.3,185.7z"/>
		<path class="st3" d="M242.2,181.8c-1.5,0.8-3.4,1.2-2.8,3.6c0,0,0-0.1,0-0.1c-0.4,0-0.7,0-1.1,0.1c-1.8,0-3.7,0.1-5.5,0.1
			c-3.3-2.1-1.9-3.9,0.6-4.9c2.8-1.2,5.9-1.7,9-1C242.3,180.2,242.2,181,242.2,181.8z"/>
		<path class="st13" d="M232.8,185.4c1.8,0,3.7-0.1,5.5-0.1c0.4,0.4,0.8,1,1.1-0.1c0,0,0,0.1,0,0.1c2.2,0.2,4.3,0.3,6.5,0.5
			c0,0.2,0.1,0.3,0.2,0.5c0,1.1,0.1,2.3,0.1,3.4C241,190.5,236.8,188.4,232.8,185.4z"/>
		<path class="st13" d="M229.9,189.6c-0.2,0.9-0.6,1.9-1.7,1.6c-1.2-0.2-0.9-1.4-0.9-2.3c0-0.8,0.2-1.7,1.2-1.5
			C229.5,187.7,230,188.5,229.9,189.6z"/>
		<path class="st3" d="M137.2,184c-1.1,0.3-1.8,1-2.2,2c-2.7,0.4-5.5,0.6-8,1.9c-1.8-2.8-0.7-4.5,2.1-5.6c2.7-1.1,5.4-0.8,8.1-0.6
			C137.2,182.5,137.2,183.2,137.2,184z"/>
		<path class="st9" d="M246.1,186.3c-0.1-0.1-0.2-0.3-0.2-0.5c2.3-0.6,4.7-0.8,7,0.2C250.6,186.1,248.3,186.2,246.1,186.3z"/>
		<path class="st9" d="M239.4,185.3c-0.3,1.1-0.7,0.4-1.1,0.1C238.7,185.3,239,185.3,239.4,185.3z"/>
	</g>
</g>
<path class="st13" d="M261.8,200.2v-12.6c-3.4,1.9-6.8,4.3-11.1,2.6c-1,0-1.9,0-2.9-0.1c-1.1,3.1-3.7,1.6-5.6,1.6
	c-2.3,0-4.7-0.4-6.8-1.1c-2.5-0.8-3.6-0.4-5.1,2c-1.6,2.5-4.7,3.8-8,3.9c-2.8,0.2-4.7-0.6-4.4-3.8c0.3-2.9-1-3.8-3.8-3.7
	c-3.1,0.2-6.2,0-9.3,0.1c-1.7,0-3.1-0.5-4-1.9c-0.6-0.9-1.5-1.8-1-2.9c0.5-1.3,1.9-0.8,2.9-0.8c4-0.1,8.1,0,12.1,0
	c2.9-0.1,4.8,2.5,8.1,2.4c3.2-0.1,3.6-2.4,4.3-3.7c1.3-2.4-2.5-0.7-2.8-2.4c-1.3-0.1-2.7-0.3-4-0.4c-6,1.9-12.1,1.7-18.2,0.5
	c-4,0-8.1,0-12.4,0c0.5,3.4,3.2,5.2,4.7,7.7c1.6,2.6,0,2.5-1.7,2.5c-0.9,1.9-2.6,1.9-4.3,1.9c-3.4,0-6.8,0-10.1,0
	c-5.8,0-5.8,0-4.3-5.6c0-0.8,0.2-1.5,1-1.9c0,0,0,0,0,0c0.3-0.3,0.6-0.6,1-1l0,0c-1.3-2.2-3.6-1.6-5.5-1.8c-2.9-0.3-5.9,0-8.8-0.1
	c-2.5-0.1-4,0.3-2.8,3.4c1.1,2.8-0.2,5.1-3.1,5.6c-2.6,0.4-5,3.8-8,0.9c-1.8,0.2-3.6,0.3-5.4,0.5c0.2,0.6,0.5,1.6-0.1,1.5
	c-3.4-0.1-7.1,1.2-10.1-1.6c-0.3-0.1-0.5-0.2-0.8-0.2c-0.3-0.3-0.7-0.5-1-0.8c-0.5-0.1-1-0.2-1.4-0.3c-2.9,0.4-5.4-0.6-6.6-3.2
	c-1.3-3,1.3-4.4,3.2-5.9c0.7-0.5,1-1.1,1.1-1.9c-0.6-1.3-1.5-2.2-2.7-2.9c-0.4,2.5-2.4,2-4,2c-4,0-8.1,0-12.1,0
	c-3.2,0-4.8,1.3-4.7,4.8c0.2,5.6,0.1,11.2,0.1,16.7C155.8,200.2,208.8,200.2,261.8,200.2z"/>
<path class="st12" d="M261.8,200.2c-53,0-106,0-159,0c-0.6,11.1-0.8,22.3-2.1,33.4c-0.7,5.9-0.1,11.8-1.5,17.6c-0.8,3.6-1.4,8,0,11
	c1.1,2.2,5.8,0.3,8.8,0.8c0.4,0.1,0.8,0.4,1.2,0.6c1.2,0.1,2.4,0.2,3.5,0.3c3-2,6.4-0.4,9.6-1c2.5,0,5,0,7.6-0.1c2.2,0,4.4,0,6.5,0
	c7.2,0,14.4,0,21.6,0c5.5,0,10.9,0.1,16.4,0.1c9.9,0,19.8,0,29.7,0c1.6,0,3.3,0,4.9,0c14,0,28,0,41.9,0c1.6,0,3.2,0,4.8,0
	c1.6,0,3.2,0,4.8,0c0.4,0,0.8,0,1.2,0V200.2z"/>
</svg>
