<?xml version="1.0" encoding="utf-8"?>
<!-- Generator: Adobe Illustrator 23.0.1, SVG Export Plug-In . SVG Version: 6.00 Build 0)  -->
<svg version="1.1" id="Layer_1" xmlns="http://www.w3.org/2000/svg" xmlns:xlink="http://www.w3.org/1999/xlink" x="0px" y="0px"
	 viewBox="0 0 179 100.8" style="enable-background:new 0 0 179 100.8;" xml:space="preserve">
<style type="text/css">
	.st0{fill:#404FA2;}
	.st1{fill:#181B3C;}
	.st2{fill:#FFFFFF;}
	.st3{fill:#EF7667;}
	.st4{fill:#6684C1;}
</style>
<g id="CSJj4X_1_">
	<g>
		<path class="st0" d="M169.4,20.9c0.9-1.3,2.5-2.1,2.4-4.1c-0.1-3.4-1.4-5.1-6.2-4.6c-0.3,0-0.6,0-0.9-0.1
			c-2.1,0.9-0.4,2.8-0.9,4.1c0.4-0.1,0.7-0.3,1.1-0.2c3.1,0.2,3.4,0.6,3.7,4.1C168.7,20.6,169,20.8,169.4,20.9z"/>
		<path class="st0" d="M168.1,78.6c0-1.3,0.1-2.5,0.1-3.8c-0.1-6.5-0.2-13,0.2-19.5c-1.9-0.1-4.2,0.8-5.6-0.5
			c-1.4-1.2,0.3-3.6,0.1-5.4c0-0.2,0-0.5,0-0.7c-1,0.2-2-0.3-2.9-0.5c-0.3,0-0.5-0.1-0.8-0.1c-0.8,0-1.6-0.1-2.2-0.7
			c-0.1,0.7-0.2,1.5-0.2,2.2c-0.4,5.1-0.5,5.1-5.3,4.4c-0.6,6.8-1.2,13.7-1.7,20.5c-0.1,1.4-0.1,2.8-0.2,4.2
			c-0.1,3.8-0.2,7.7-0.4,11.5c0,0.9-0.1,1.9,1.1,2.1c0.8,0.1,1.5,0.3,2.3,0.4c0.4,0,0.9-0.1,1.3-0.1c0.8-4.7,1.7-9.3,2.5-14
			c0.4-1.2,0.1-2.6,0.9-3.6c0.1-4.2,1.4-8.2,2.3-12.3c0.7,4.1,1.5,8.1,1.4,12.3c0.6,1.1,0.5,2.4,0.5,3.6c0.5,4.7,1,9.4,1.5,14.1
			c0.4,0.1,0.8,0.1,0.9,0.5c0.8-0.1,1.5-0.2,2.3-0.3c0.6-0.1,1.3-0.2,1.9-0.3C168,87.9,168.1,83.2,168.1,78.6z"/>
		<path class="st1" d="M151.4,53.9c4.8,0.7,4.8,0.7,5.3-4.4c0.1-0.7,0.2-1.5,0.2-2.2c1.3-7.9,3.1-15.6,5.2-23.2
			c-5.1-3.8-6.2-9.3-6.1-15.5c0-0.9,0.8-2.1-0.7-2.5c-0.6-0.2-1.3-0.3-1.9-0.5c-2.1,5.8-2.3,11.7-1.2,17.7
			c1.6,9.4,1.2,18.6-1.3,27.7C150.7,51.9,149.3,53.4,151.4,53.9z"/>
		<path class="st2" d="M162.1,24c-2.1,7.6-3.9,15.3-5.2,23.2c0.7,0.6,1.4,0.7,2.2,0.7c-0.3-1.5-1.3-2.9-0.7-4.6
			c1.7-5.3,3.3-10.7,4.9-16c0.1-0.4,0.2-0.9,0.7-0.6c0.4,0.2,0.5,0.6,0.4,1c-1.3,4.5-1.2,9.2-1.5,13.9c-0.2,2.7-0.8,4.9-2.9,6.4
			c1,0.2,1.9,0.7,2.9,0.5c0.1-0.7,0.3-1.5,0.4-2.2c0.8-6.5,2.2-12.9,3.8-19.3c-0.2-0.5-0.4-1.1-0.6-1.6c-1.4,0.8-2.4,0.5-2.6-1.4
			c-0.1-0.6-0.1-1.1-0.8-1.3C162.9,23.3,162.8,23.9,162.1,24z"/>
		<path class="st3" d="M163.1,22.7c0.7,0.2,0.7,0.7,0.8,1.3c0.2,1.9,1.1,2.2,2.6,1.4c0.1-2.2,1.9-3,3-4.5c-0.4-0.1-0.7-0.4-0.8-0.8
			c-0.3-3.4-0.6-3.8-3.7-4.1c-0.4,0-0.7,0.1-1.1,0.2C161.8,18.2,162.4,20.4,163.1,22.7z"/>
		<path class="st3" d="M153.4,5.6c0.6,0.2,1.3,0.3,1.9,0.5c0.4-1.2,1.7-2.2,0.5-3.8c-0.6-0.7-0.8-1.6-1.8-1.2
			c-1.1,0.4-1.3,1.3-1.1,2.4C153.1,4.2,153.3,4.9,153.4,5.6z"/>
		<path class="st1" d="M164.1,95.2c-0.6,2.2-0.1,3.4,2.3,3c0.8-0.1,1.7,0,2.6-0.1c0.7-0.1,1.8,0.5,2-0.6c0.1-0.9-0.9-1.3-1.6-1.6
			c-0.9-0.5-1.9-0.8-2.8-1.2C165.9,95.4,165,95.2,164.1,95.2z"/>
		<path class="st1" d="M150.1,94.7c-1.6,0.7-4.4,1.1-4.2,2.8c0.2,1.6,2.9,0.4,4.5,0.7c2.5,0.5,2.5-1.2,2-3
			C151.6,95.2,150.8,95.4,150.1,94.7z"/>
		<path class="st2" d="M150.1,94.7c0.7,0.7,1.5,0.5,2.3,0.5c0-0.8,0.1-1.7,0.1-2.5c-0.8-0.1-1.5-0.3-2.3-0.4c-0.1,0.3-0.1,0.7-0.2,1
			C150,93.7,150.1,94.2,150.1,94.7z"/>
		<path class="st2" d="M164.1,95.2c0.8,0,1.7,0.2,2.5-0.5c0-0.7,0.1-1.4-0.5-1.9c-0.8,0.1-1.5,0.2-2.3,0.3
			C163.9,93.8,164,94.5,164.1,95.2z"/>
		<path class="st1" d="M167.1,27c-1.6,6.4-3,12.8-3.8,19.3c-0.1,0.7-0.2,1.5-0.4,2.2c0,0.2,0,0.5,0,0.7c0.2,1.9-1.4,4.2-0.1,5.4
			c1.4,1.3,3.7,0.4,5.6,0.5c0.1-0.3,0.1-0.7,0.2-1c0.2-3,0.3-6,0.5-9.1c1.4,2.3,2.6,4.5,2.6,7.1c0.4,0.9,0.4,1.9,0.6,2.8
			c0.2,0.8-0.1,2.1,1.2,2.3c0.7,0,1.5,0,2.2,0c1.5-1.3,0.3-3.1,0.8-4.6c-0.4-5.8-0.7-11.7-2.8-17.2C172.4,31.9,170.4,28.9,167.1,27z
			"/>
		<path class="st3" d="M160,48c2.2-1.5,2.7-3.7,2.9-6.4c0.4-4.6,0.2-9.4,1.5-13.9c0.1-0.5,0-0.9-0.4-1c-0.6-0.2-0.6,0.3-0.7,0.6
			c-1.6,5.3-3.2,10.7-4.9,16c-0.5,1.7,0.5,3.1,0.7,4.6C159.4,48,159.7,48,160,48z"/>
		<path class="st3" d="M173.5,57.4c-0.4,1.1-1,2.1,0.1,3.4c0.5,0.5,0.5,1.5,1.6,1.2c1.2-0.3,1.2-1.2,1.1-2.1
			c-0.1-0.8-0.4-1.6-0.6-2.4C175,57.4,174.3,57.4,173.5,57.4z"/>
	</g>
</g>
<path class="st2" d="M65.2,48.6c0.6,0,1.2,0,1.8,0c1.3,1.1,0,1.4-0.6,1.7c-2.7,1.5-5.4,3.1-8.2,4.4c-4.8,2.2-9,5.4-14.1,7.1
	c-1.2,0.4-2.4,1.1-3.3-0.5c3-2.5,6.8-3.8,10-5.9c4.1-2,8.2-4,12.3-6.1C63.9,49.1,64.5,48.8,65.2,48.6z"/>
<path class="st2" d="M160.4,68.9c-1.1,0.2-2.1,0.5-3.2,0.4c-1.4,0-3.1,1.2-3.6-1.7c-0.2-1.4-2.8-1.6-4.2-2.4c-1-0.6-2.8-0.6-2.6-1.9
	c0.2-1.2,2-0.8,3.1-0.8c2.3-0.1,4.7-0.1,7,0c1.1,0,1.8-0.2,2-1.3c0.9,1.8,0.3,4.4,2.7,5.5c0,0,0,0.2,0,0.2c0,0.1-0.1,0.1-0.1,0.2
	C160,66.9,160.3,67.9,160.4,68.9z"/>
<path class="st1" d="M160.4,68.9c-0.1-0.9-0.3-2,1.2-1.8c0,0.8-0.2,1.7,1.2,1.5c0.8-0.2,1.9-0.2,1.8,1c-0.1,1.1-1.1,1-2,0.8
	c-0.4-0.1-0.8-0.2-1.2-0.3C161,69.7,160.7,69.3,160.4,68.9z"/>
<path class="st1" d="M163.2,77.6c-0.2-1.1-0.3-2.2-0.5-3.3c1.9-0.2,2.5,0.6,1.8,2.4C164,77,163.6,77.3,163.2,77.6z"/>
<path class="st1" d="M162.6,73.5c-0.6-0.6-0.5-1.3-0.5-2c0.9-0.6,1.8-0.9,2.2,0.3C164.8,73.3,163.7,73.5,162.6,73.5z"/>
<path class="st2" d="M38.6,61.2c-0.6,0.1-1.1,0.1-1.7,0.2C37.5,60.7,38.1,60.9,38.6,61.2z"/>
<path class="st2" d="M158.9,59.8c-0.1-0.1-0.1-0.2-0.1-0.3C159,59.6,159,59.7,158.9,59.8z"/>
<path class="st1" d="M29.8,99.4c-4.6-0.7-7.8-3.4-10.2-7.2c-2.1-5.7-1.8-10.9,2.7-15.4c4.4-4.5,11.2-5.2,16.5-1.9
	c5.3,3.4,7.6,9.6,5.6,15.6c-0.2,0.6-0.4,1.1-0.6,1.7c-2.4,4-5.7,6.6-10.4,7.2C32.1,99.4,30.9,99.4,29.8,99.4z M31.7,96.3
	c5.5,0,10.2-4.6,10.2-10.1c0-5.4-4.8-10.1-10.2-10.1c-5.6,0-10.1,4.5-10,10.1C21.6,91.9,26,96.3,31.7,96.3z"/>
<path class="st1" d="M128.3,99.4c-4.7-0.6-8-3.3-10.3-7.2c-2.4-7.3-0.9-13.1,4.4-16.8c4.6-3.2,10.7-3.2,15.3-0.1
	c4.7,3.2,6.7,9,5.2,14.6c-0.2,0.7-0.5,1.4-0.7,2.2c-2.4,3.9-5.6,6.7-10.4,7.3C130.6,99.4,129.4,99.4,128.3,99.4z M140,86.4
	c0.1-5.7-4.3-10.3-9.8-10.4c-5.5-0.1-10.2,4.4-10.4,9.9c-0.2,5.4,4.5,10.2,10,10.3C135.5,96.4,139.9,92.1,140,86.4z"/>
<path class="st2" d="M56.4,63.6c0.3-1.6,0.3-3.1-0.9-4.3c0.9-0.5,1.9-1,2.8-1.5c8.6-4.5,17.8-7,27.6-7.6c2-0.1,2.2,0.6,1.9,2.2
	c-0.3,1.6-0.7,3.1-0.9,4.7c-0.3,2.9-0.4,6-4.6,5.7c-4.3,0.7-8.7,0.4-13,1.1c-2,0.3-4-1.1-6.1-0.1C60.9,63.7,58.7,64.4,56.4,63.6z"/>
<path class="st2" d="M119.2,60.3c-1.7,0.1-3.4,0-5,0.7c-1,0-1.7-0.7-2.8-0.6c-5.9,0.5-11.8,0.9-17.8,1.4c-1.4,0.1-1.8-0.2-1.6-1.6
	c0.3-2.8,0.5-5.5,0.5-8.3c0-1.5,0.7-1.8,2-1.7c6.4,0.1,12.7,0.4,19.1,1.2c1,0.1,1.9,0.4,2.5,1.4c1.1,2,2.3,3.9,3.6,5.7
	C120.4,59.6,119.7,59.8,119.2,60.3z"/>
<path class="st1" d="M119.2,60.3c0.6-0.5,1.2-0.8,0.5-1.8c-1.3-1.8-2.5-3.8-3.6-5.7c-0.6-1-1.5-1.3-2.5-1.4
	c-6.3-0.7-12.7-1.1-19.1-1.2c-1.3,0-2,0.2-2,1.7c-0.1,2.8-0.3,5.5-0.5,8.3c-0.1,1.4,0.3,1.7,1.6,1.6c5.9-0.5,11.8-0.8,17.8-1.4
	c1.1-0.1,1.8,0.6,2.8,0.6c-5.6,0.4-11.1,1.2-16.7,1.2c-5.1,0-10.1,1.2-15.1,0.6c4.2,0.3,4.3-2.8,4.6-5.7c0.2-1.6,0.5-3.1,0.9-4.7
	c0.4-1.6,0.1-2.3-1.9-2.2c-9.7,0.6-18.9,3-27.6,7.6c-0.9,0.5-1.9,1-2.8,1.5c-1.4,0-1.6-0.4-0.3-1.1c6.6-3.8,13.2-7.4,20.9-8.3
	c10.3-1.2,20.6-1.6,30.9-0.6c6.7,0.7,13.3,1.9,19.5,4.6c1.1,0.5,2.1,1,3.5,1.8C126.5,58,124.1,62,119.2,60.3z M119.8,53.2
	c0.3,1.5,1.3,2.2,1.9,3.2c1.8,2.5,2.5,2.5,4.5,0.2c0.6-0.7,0.8-1.1-0.2-1.4C124.1,54.5,122.2,53.6,119.8,53.2z"/>
<path class="st3" d="M163.3,80.7c-0.1-1,0.6-2.1-0.1-3.1c-0.2-1.1-0.3-2.2-0.5-3.3c0-0.2-0.1-0.5-0.1-0.7c-0.6-0.6-0.5-1.3-0.5-2
	c-0.5-0.3-0.6-0.9-0.7-1.4c-0.3-0.4-0.7-0.9-1-1.3c-1.1,0.2-2.1,0.5-3.2,0.4c-1.4,0-3.1,1.2-3.6-1.7c-0.2-1.4-2.8-1.6-4.2-2.4
	c-1-0.6-2.8-0.6-2.6-1.9c0.2-1.2,2-0.8,3.1-0.8c2.3-0.1,4.7-0.1,7,0c1.1,0,1.8-0.2,2-1.3c0-0.4-0.1-0.9-0.1-1.3
	c-0.1-0.1-0.1-0.2-0.1-0.3c-0.5-1.2-1.3-1.5-2.5-1.6c-1.9-0.1-3.8-0.1-5.6-1c-4.7,0.5-8.9-0.9-12.9-3.1c-0.2-0.1-0.5-0.2-0.7-0.3
	c-0.3-0.1-0.5-0.1-0.8-0.2c-0.3-0.1-0.6-0.3-0.9-0.4c-3.4-0.8-6.5-2.2-9.8-3.4c-6-1.8-12-3.6-18.3-3.8c-6.2,0-12.4,0-18.6,0
	c-5,0-10,0.4-15,1c-2.3,0.6-4.7,0.6-6.8,2c1.4,1.1,0,1.4-0.6,1.7c-2.7,1.5-5.4,3.1-8.2,4.4c-4.8,2.2-9,5.4-14.1,7.1
	c-1.2,0.4-2.4,1.1-3.3-0.5c-0.7,0-1.5-0.1-2.2-0.1c-0.6,0.1-1.1,0.1-1.7,0.2c-2.7,0.5-5.3,1-8,1.5c-2,0.4-4,1.2-6.1,1.2
	c-3.3,1.2-6.6,2.4-10.1,3.1c-0.9,0.9-2.1,1.4-3.2,2c-0.3,1-2,1.1-1.6,2.5c2.7-0.9,5.4-1.9,8.3-1.8c0.6,0,1.5-0.3,1.7,0.6
	c0.2,0.7-0.5,1-0.9,1.4c-1.2,1.3-3.5,1.8-2.8,4.3c0.1,0.3-0.4,0.5-0.8,0.5c-2.4,0-4.9,0-7.3,0c-0.6,0-0.8-0.5-0.8-1.1
	c-1.9,1.9-1.4,4.8-3.2,6.8c-1.2,0.4-0.4,1.4-0.6,2.1c0.1,0.2,0.2,0.4,0.2,0.6c0.7,5.5,3.1,7.6,8.8,7.6c3,0,6-0.1,9-0.1
	c-2.1-5.7-1.8-10.9,2.7-15.4c4.4-4.5,11.2-5.2,16.5-1.9c5.3,3.4,7.6,9.6,5.6,15.6c-0.2,0.6-0.4,1.1-0.6,1.7c0.8,0.1,1.7,0.2,2.5,0.2
	c23.1,0,46.2,0,69.3,0c0.8,0,1.7-0.1,2.5-0.2c-2.4-7.3-0.9-13.1,4.4-16.8c4.6-3.2,10.7-3.2,15.3-0.1c4.7,3.2,6.7,9,5.2,14.6
	c-0.2,0.7-0.5,1.4-0.7,2.2c0.9,0.7,1.9,0.5,2.9,0.3c5-0.7,9.9-2.4,14.8-3.5c1.9-0.4,3.1-1.8,3.6-3.8C163.2,83.7,163,82.2,163.3,80.7
	z M9.2,84.8c-0.3,1.5-0.7,4.1-2,4c-1.7-0.1-1.6-2.6-1.9-4.2c-0.3-1.7,1.4-0.5,1.9-1.1C8.1,83.9,9.6,83.2,9.2,84.8z M119.2,60.3
	c-1.7,0.1-3.4,0-5,0.7c-5.6,0.4-11.1,1.2-16.7,1.2c-5.1,0-10.1,1.2-15.1,0.6c-4.3,0.7-8.7,0.4-13,1.1c-2,0.3-4-1.1-6.1-0.1
	c0.2,0.5-0.1,0.6-0.4,0.6c-5.3,0.4-10.5,0.2-16-0.1c0.6-1.2,1.3-2,2.2-2.5c1-0.5,2.7-3,2.8,0.7c0,1,0.9,1.6,2,1.4
	c0.9-0.1,1.8-0.2,2.7-0.4c0.3-1.6,0.3-3.1-0.9-4.3c-1.4,0-1.6-0.4-0.3-1.1c6.6-3.8,13.2-7.4,20.9-8.3c10.3-1.2,20.6-1.6,30.9-0.6
	c6.7,0.7,13.3,1.9,19.5,4.6c1.1,0.5,2.1,1,3.5,1.8C126.5,58,124.1,62,119.2,60.3z"/>
<path class="st2" d="M5.3,75.3C6,74.7,6,73.8,6.3,73.1c0.8,0.1,1.2-0.3,1.3-1.1c0,0,0,0,0,0c0.4,0,0.6-0.1,0.5-0.5c0,0,0,0,0,0
	c2.7-0.9,5.4-1.9,8.3-1.8c0.6,0,1.5-0.3,1.7,0.6c0.2,0.7-0.5,1-0.9,1.4c-1.2,1.3-3.5,1.8-2.8,4.3c0.1,0.3-0.4,0.5-0.8,0.5
	c-2.4,0-4.9,0-7.3,0C5.6,76.3,5.3,75.8,5.3,75.3z"/>
<path class="st1" d="M56.4,63.6c2.2,0.8,4.5,0.1,6.8,0.2c0.2,0.5-0.1,0.6-0.4,0.6c-5.3,0.4-10.5,0.2-16-0.1c0.6-1.2,1.3-2,2.2-2.5
	c1-0.5,2.7-3,2.8,0.7c0,1,0.9,1.6,2,1.4C54.6,63.8,55.5,63.7,56.4,63.6z"/>
<path class="st1" d="M7.2,83.6c0.9,0.3,2.4-0.4,2,1.3c-0.3,1.5-0.7,4.1-2,4c-1.7-0.1-1.6-2.6-1.9-4.2C5.1,83,6.7,84.1,7.2,83.6z"/>
<path class="st3" d="M7.5,72c-0.1,0.8-0.5,1.2-1.3,1.1C6.6,72.6,6.6,71.7,7.5,72z"/>
<path class="st3" d="M8,71.5c0.1,0.4-0.2,0.6-0.5,0.5C7.4,71.6,7.6,71.4,8,71.5z"/>
<path class="st4" d="M31.7,96.3c-5.7,0-10-4.4-10-10.1c0-5.6,4.4-10.1,10-10.1c5.4,0,10.2,4.7,10.2,10.1
	C41.8,91.7,37.2,96.3,31.7,96.3z M36,85.8c1-0.9,3.6,0.4,4.3-1.9c0.2-0.9-0.3-2.2-1.5-2.6c-0.7-0.2-4.1,3.1-4,3.8
	C34.8,85.5,34.8,86.2,36,85.8z M24.4,81.2c-1,0.6-1.6,1.9-1.4,2.7c0.5,2.1,2.7,1.2,4.1,1.8c0.6,0.3,1.3,0.4,1.6-0.5
	c0-0.1,0-0.2,0-0.2C28.7,84.4,25,81.1,24.4,81.2z M27.8,87.3c-1.3,0.1-2.3,0.4-3.2,0.3c-2.1-0.1-1.8,0.8-1.3,2.2
	c0.7,1.7,1.4,2,2.8,0.6c0.6-0.7,1.4-1.2,2.1-1.8c0.3-0.3,0.6-0.6,0.5-1C28.4,87.1,27.9,87.3,27.8,87.3z M35.9,87.3
	c-0.5-0.1-1.1-0.1-1.3,0.4c-0.1,0.3,0.3,0.7,0.6,1c0.9,0.8,1.8,1.5,2.7,2.3c0.7,0.6,1.1,0.6,1.6-0.2c0.5-0.8,1.1-1.6,0.8-2.5
	c-0.3-1.1-1.4-0.4-2.2-0.6C37.4,87.5,36.6,87.4,35.9,87.3z M30.7,81.6c-0.6-1.1,0.6-3.3-1.6-3.9c-0.6-0.2-2.5,0.2-2.1,1.4
	c0.5,1.6,1.3,3.4,2.9,4.2C30.7,83.6,30.8,82.5,30.7,81.6z M32.6,81.5c-0.3,0.9-0.4,1.4,0.4,1.7c0.9,0.3,0.9-0.5,1.2-0.9
	c0.5-0.7,1-1.5,1.5-2.3c0.3-0.5,1-1.2,0.2-1.7c-0.6-0.4-1.4-0.7-2.1-0.7c-0.9,0-0.8,0.9-1,1.5C32.7,80,32.7,81,32.6,81.5z
	 M33.3,89.2c-0.7,0-1,0.2-0.9,0.6c0.2,1.5,0.5,3.1,0.8,4.6c0.1,0.5,0.5,0.5,1,0.5c2-0.2,2.4-1.1,1-3.1
	C34.6,90.9,34.3,89.6,33.3,89.2z M30.1,95.2c0.3-1.7,0.5-3.3,0.7-4.8c0.1-0.6-0.2-1.5-0.9-1c-1.4,1-2.4,2.6-2.7,4.1
	C27.1,94.9,28.9,94.6,30.1,95.2z"/>
<path class="st4" d="M140,86.4c-0.1,5.7-4.6,9.9-10.3,9.8c-5.5-0.1-10.2-4.9-10-10.3c0.2-5.5,4.9-10,10.4-9.9
	C135.8,76.2,140.1,80.8,140,86.4z M125,85.4c1.6,0.8,2.2,0,2-0.5c-0.8-1.7-2.3-3-3.9-3.6c-1.2-0.5-1.7,1.5-1.6,2.2
	C121.6,86.3,124.3,84.8,125,85.4z M137.2,81.2c-0.6,0-4.4,3.3-4.3,3.7c0.1,0.5,0.3,1.2,1.2,0.9c1.3-0.3,2.6-0.6,3.9-0.9
	c0.7-0.2,1-0.6,0.7-1.3C138.3,82.7,138.2,81.6,137.2,81.2z M134.1,87.3c-0.4,0-1-0.2-1.1,0.4c-0.1,0.3,0.3,0.7,0.6,1
	c0.8,0.7,1.7,1.4,2.5,2.1c0.9,0.8,1.4,0.8,2-0.4c1.2-2.4,1.2-2.6-1.6-2.8C135.7,87.6,135,87.4,134.1,87.3z M126.1,87.3
	c-1.1,0.1-2,0.4-2.9,0.3c-2.1-0.1-2.2,0.7-1.4,2.4c0.6,1.2,1.1,2.1,2.4,0.7c0.7-0.7,1.5-1.3,2.3-2c0.3-0.3,0.8-0.5,0.5-1
	C126.8,87.3,126.3,87.3,126.1,87.3z M129.2,82.4c-0.2-1.4-0.4-2.3-0.5-3.2c-0.1-0.6,0-1.5-0.8-1.6c-0.9-0.2-1.7,0.3-2.3,0.8
	c-0.8,0.7,0.1,1.2,0.4,1.7c0.4,0.8,0.9,1.6,1.4,2.4c0.3,0.4,0.5,1.2,1.3,0.7C129.3,82.9,129.2,82.5,129.2,82.4z M130.9,81.7
	c-0.1,0.9-0.1,1.5,0.6,1.7c0.7,0.2,0.9-0.4,1.1-0.8c0.5-0.8,1-1.5,1.4-2.4c0.3-0.5,1.1-1.1,0.4-1.7c-0.6-0.6-1.4-1-2.3-0.9
	c-0.9,0.1-0.7,1-0.9,1.6C131.2,80.1,131,81,130.9,81.7z M129.2,90.4c-0.1-0.3,0.2-0.9-0.4-1.1c-0.6-0.2-0.9,0.1-1.2,0.6
	c-0.6,1-1.2,2-1.8,3c-0.8,1.1,0,1.5,0.8,1.7c0.8,0.2,1.8,1,2.1-0.6C128.9,92.8,129,91.7,129.2,90.4z M131.6,89.2
	c-0.7,0-0.8,0.4-0.8,1c0.1,1.2,0.3,2.3,0.5,3.4c0.1,0.6,0,1.5,1.1,1.3c0.8-0.2,1.7-0.4,2.2-1C134.9,93.4,132.1,89.3,131.6,89.2z"/>
<path class="st2" d="M119.8,53.2c2.4,0.4,4.3,1.3,6.2,2c1,0.3,0.8,0.8,0.2,1.4c-2.1,2.2-2.7,2.2-4.5-0.2
	C121.1,55.4,120.1,54.7,119.8,53.2z"/>
<path class="st1" d="M36,85.8c-1.2,0.4-1.2-0.2-1.2-0.7c-0.1-0.7,3.3-4.1,4-3.8c1.2,0.4,1.7,1.7,1.5,2.6C39.6,86.2,37,84.8,36,85.8z
	"/>
<path class="st1" d="M24.4,81.2c0.6-0.1,4.3,3.2,4.3,3.7c0,0.1,0,0.2,0,0.2c-0.3,1-1,0.8-1.6,0.5c-1.4-0.6-3.6,0.2-4.1-1.8
	C22.8,83,23.4,81.8,24.4,81.2z"/>
<path class="st1" d="M27.8,87.3c0.1,0,0.6-0.2,0.8,0.3c0.2,0.5-0.1,0.8-0.5,1c-0.7,0.6-1.5,1.1-2.1,1.8c-1.3,1.4-2.1,1.1-2.8-0.6
	c-0.5-1.4-0.8-2.4,1.3-2.2C25.6,87.7,26.6,87.5,27.8,87.3z"/>
<path class="st1" d="M35.9,87.3c0.7,0.1,1.5,0.2,2.2,0.3c0.7,0.2,1.8-0.5,2.2,0.6c0.3,0.9-0.4,1.7-0.8,2.5c-0.4,0.8-0.9,0.8-1.6,0.2
	c-0.9-0.8-1.8-1.5-2.7-2.3c-0.3-0.3-0.7-0.7-0.6-1C34.8,87.2,35.4,87.3,35.9,87.3z"/>
<path class="st1" d="M30.7,81.6c0.1,0.9,0,2-0.8,1.6c-1.6-0.8-2.4-2.6-2.9-4.2c-0.4-1.2,1.5-1.5,2.1-1.4
	C31.3,78.3,30.2,80.5,30.7,81.6z"/>
<path class="st1" d="M32.6,81.5c0.1-0.6,0.1-1.5,0.3-2.4c0.1-0.6,0.1-1.5,1-1.5c0.7,0,1.5,0.3,2.1,0.7c0.8,0.6,0.1,1.2-0.2,1.7
	c-0.4,0.8-0.9,1.6-1.5,2.3c-0.3,0.4-0.4,1.2-1.2,0.9C32.3,83,32.3,82.5,32.6,81.5z"/>
<path class="st1" d="M33.3,89.2c1,0.3,1.2,1.6,1.8,2.5c1.3,2,1,2.9-1,3.1c-0.5,0-0.9,0-1-0.5c-0.3-1.5-0.6-3.1-0.8-4.6
	C32.3,89.4,32.6,89.2,33.3,89.2z"/>
<path class="st1" d="M30.1,95.2c-1.2-0.5-3-0.3-2.8-1.7c0.3-1.5,1.3-3.1,2.7-4.1c0.7-0.5,1,0.3,0.9,1C30.6,91.9,30.3,93.4,30.1,95.2
	z"/>
<path class="st1" d="M125,85.4c-0.7-0.6-3.4,0.9-3.6-1.8c-0.1-0.8,0.4-2.7,1.6-2.2c1.6,0.6,3.1,1.9,3.9,3.6
	C127.2,85.4,126.6,86.2,125,85.4z"/>
<path class="st1" d="M137.2,81.2c0.9,0.5,1,1.6,1.5,2.4c0.3,0.7,0,1.1-0.7,1.3c-1.3,0.3-2.6,0.6-3.9,0.9c-0.9,0.2-1-0.4-1.2-0.9
	C132.8,84.5,136.6,81.1,137.2,81.2z"/>
<path class="st1" d="M134.1,87.3c0.8,0.1,1.6,0.3,2.3,0.3c2.7,0.2,2.8,0.4,1.6,2.8c-0.6,1.2-1.1,1.2-2,0.4c-0.8-0.7-1.7-1.4-2.5-2.1
	c-0.3-0.3-0.7-0.7-0.6-1C133.1,87.1,133.8,87.3,134.1,87.3z"/>
<path class="st1" d="M126.1,87.3c0.2,0,0.7,0,0.9,0.4c0.2,0.5-0.3,0.7-0.5,1c-0.7,0.7-1.6,1.2-2.3,2c-1.3,1.4-1.9,0.5-2.4-0.7
	c-0.8-1.6-0.6-2.5,1.4-2.4C124.1,87.7,125,87.4,126.1,87.3z"/>
<path class="st1" d="M129.2,82.4c0,0,0.1,0.5-0.5,0.8c-0.8,0.4-1-0.3-1.3-0.7c-0.5-0.8-1-1.5-1.4-2.4c-0.3-0.5-1.2-1-0.4-1.7
	c0.6-0.6,1.4-1,2.3-0.8c0.8,0.1,0.7,1,0.8,1.6C128.9,80.1,129,81.1,129.2,82.4z"/>
<path class="st1" d="M130.9,81.7c0.1-0.7,0.3-1.6,0.4-2.5c0.1-0.6,0-1.5,0.9-1.6c0.9-0.1,1.7,0.3,2.3,0.9c0.7,0.7-0.2,1.2-0.4,1.7
	c-0.4,0.8-0.9,1.6-1.4,2.4c-0.3,0.4-0.4,1-1.1,0.8C130.8,83.1,130.7,82.5,130.9,81.7z"/>
<path class="st1" d="M129.2,90.4c-0.2,1.3-0.3,2.5-0.5,3.6c-0.3,1.6-1.3,0.8-2.1,0.6c-0.8-0.2-1.6-0.6-0.8-1.7c0.7-0.9,1.3-2,1.8-3
	c0.3-0.5,0.6-0.8,1.2-0.6C129.5,89.5,129.1,90.1,129.2,90.4z"/>
<path class="st1" d="M131.6,89.2c0.5,0,3.3,4.2,3,4.6c-0.5,0.7-1.4,0.9-2.2,1c-1,0.2-1-0.6-1.1-1.3c-0.2-1.1-0.4-2.3-0.5-3.4
	C130.7,89.7,130.9,89.2,131.6,89.2z"/>
</svg>
