<?xml version="1.0" encoding="utf-8"?>
<!-- Generator: Adobe Illustrator 23.0.1, SVG Export Plug-In . SVG Version: 6.00 Build 0)  -->
<svg version="1.1" id="Layer_1" xmlns="http://www.w3.org/2000/svg" xmlns:xlink="http://www.w3.org/1999/xlink" x="0px" y="0px"
	 viewBox="0 0 300 300" style="enable-background:new 0 0 300 300;" xml:space="preserve">
<style type="text/css">
	.st0{fill:#F1ADCD;}
	.st1{fill:#8E539B;}
	.st2{fill:#E7445A;}
	.st3{fill:#F9C9B0;}
	.st4{fill:#DCDBDD;}
	.st5{fill:#65C0CF;}
	.st6{fill:#ECB422;}
	.st7{fill:#39A94C;}
	.st8{fill:#613E7A;}
	.st9{fill:#875D4C;}
	.st10{fill:#DEA17D;}
	.st11{fill:#DF278E;}
	.st12{fill:#D8A0A7;}
	.st13{fill:#A9C83A;}
	.st14{fill:#FEFEFE;}
	.st15{fill:#E33028;}
</style>
<g id="BWWYNS.tif">
	<g>
		<path class="st0" d="M108.3,58c-0.3-5.5,0.5-10.9,1.7-16.2c0.7-1.8,1.5-3.6,2.2-5.3c0.2,0,0.5,0,0.5,0.1c1.2,3.2,3.9,4.4,6.9,5.1
			c1,0.2,2.4,1.1,2.9,0.3c0.6-0.9-0.7-2-1.3-2.7c-2.2-2.6-4.6-5-6.9-7.6c-0.9-1-2.5-2.3-1.6-3.3c0.8-0.9,2,0.8,3,1.4
			c3.3,2.2,6.9,3.9,11.1,4.5c-4.2-5.5-8.4-10.9-12.7-16.6c1.2-0.3,1.9,0.4,2.6,0.8c4.4,2.5,8.9,5.1,13.3,7.6
			c0.4,0.2,0.9,0.8,1.3,0.2c0.4-0.6-0.2-1-0.6-1.4c-4-4.2-7.4-8.7-9.7-14.1c-0.4-0.9-0.9-1.8-0.7-3.5c2.2,3.7,5,6.3,7.9,8.7
			c4.2,3.4,8.2,6.9,12.8,9.7c0.2,0.1,0.3,0.3,0.5,0.4c0.1,0,0.1,0.1,0.2,0.1c-0.1,0-0.1-0.1-0.2-0.1c-0.1-0.2-0.3-0.3-0.4-0.5
			c-2.2-4.1-5-7.7-6.9-12c-0.7-1.7-1.6-3.5-1.6-5.4c0-0.6-0.4-1.5,0.3-1.7c0.8-0.3,1.2,0.6,1.5,1.2c2.3,3.4,4.5,7,6.8,10.4
			c1.4,2.1,2.4,4.6,4.4,6.3c0.1,0.2,0.1,0.4,0.2,0.6c0.1,0,0.2-0.1,0.2-0.1c-0.1-0.2-0.2-0.3-0.3-0.5c-0.5-2.3-1.7-4.4-2.1-6.8
			c-0.6-3.1-0.7-6.2-0.1-9.4c0.1-0.5,0.1-1.3,0.7-1.3c0.7-0.1,0.8,0.7,1,1.2c3.1,5.9,6.2,11.9,9.3,17.8c0.1,0.2,0.3,0.5,0.6,1
			c1.9-4.7,2.4-9.3,0.9-14.5c9.3,7,12.5,16.2,12.8,27.3c2.3-3,3.6-6,4.5-9.1c0.5-1.6,0.5-3.3,0.4-5c0-0.5-0.3-1.1,0.3-1.3
			c0.7-0.3,0.9,0.4,1.3,0.8c3.9,4.9,5.1,10.4,3.7,16.5c-0.2,0.9-0.4,1.8-0.6,2.7c-0.1,0.7-0.2,1.4,0.8,1.6
			c-4.1,0.7-8.1,1.5-12.2,2.2c0.2-1.1,1.5-1.4,2-2.9c-2.8,1.4-5.6,2-7.5,4.3c-0.7,0.2-1.4,0.4-2.1,0.6c-2.3,0.3-2.6-1.2-2.6-3
			c0.8-1.5,1.1-3,1-4.7c0.6-2.7,0.3-5.2-0.6-7.8c-0.2-0.5-0.5-1.2-1.1-1.1c-0.6,0-0.6,0.7-0.6,1.2c0,0.9-0.5,1.6-1,2.3
			c-2.4,3.4-5.6,5.9-9.5,7.1c-1.9,0.6-2.9,1.7-3.5,3.5c-0.4,1.2-0.3,2.5-0.3,3.7c-0.3,0.5-0.3,1.2-1,1.2c-0.8,0.1-0.7-0.7-0.9-1.2
			c-1.1-2.1-1.9-4.3-2.2-6.8c-1.1,0.9-1.2,2.1-1.9,3c-1-0.7-1.2-1.9-1.8-2.8c-1.4-2.3-3.3-4.2-5.8-5.3c-0.4-0.2-0.8-0.5-1.1,0
			c-0.1,0.2-0.1,0.6,0.1,0.8c2.2,3.8,1.8,8.1,2.7,12.1c0.1,0.5,0.3,1.3-0.4,1.7c-0.6,0.3-1-0.2-1.5-0.5c-2.1-1.3-4-2.8-5.7-4.5
			c-0.3-0.3-0.7-0.8-1.3-0.5c-0.6,0.3-0.2,0.8-0.1,1.3c0.3,2.1,0.7,4.1,1,6.2c-0.4,0-0.7,0.1-1.1,0.1c-1.3-0.2-2-1.2-2.7-2.2
			c-1.1-1.5-2.3-2.8-3.9-3.8c-0.6-0.4-1.5-0.7-2.2-0.2c-0.6,0.5,0.1,1.2,0.2,1.7c0.1,0.4,0.3,0.8,0.3,1.2c1.2,5.2,0.8,10.9,4.7,15.4
			c0.4,0.5-0.1,0.7-0.5,0.8c-1.4,0-2.7-0.5-4-1c-0.7-1.5-1.2-3.1-2.6-4.1c-0.1-0.2-0.3-0.3-0.4-0.5l0,0.1c0-0.2,0-0.3,0-0.5
			C109.7,61.4,109.4,59.6,108.3,58z M132.2,27.1c-0.1-0.1-0.2-0.1-0.2-0.2C132.1,27,132.2,27,132.2,27.1c0,0.1,0.1,0.1,0.2,0.2
			C132.4,27.2,132.3,27.2,132.2,27.1z"/>
		<path class="st1" d="M158.1,42.6c0,1.6-0.2,3.2-1,4.7c-1.6,1.6-2.5,3.7-3.7,5.8c2-1.1,4.4-1.4,6.2-2.8c0.7-0.2,1.4-0.4,2.1-0.6
			c1.9-0.2,3.7-0.6,5.5-1.4c4.1-0.7,8.1-1.5,12.2-2.2c0,0,0,0,0,0c0.9-0.1,1.8-0.3,2.7-0.4c0.4,0,1-0.1,1.2,0.1
			c0.4,0.4,0,0.9-0.3,1.3c-0.9,1.3-2,2.3-3.2,3.3c-3.7,1.7-7.4,3.4-10.3,6.5c3.2-0.8,6.3-1.8,9.4-2.4c2.8-0.6,5.7-1.1,8.5-1.7
			c5-0.7,9.7-2.4,14.5-5.2c-1.1,4.1-4.2,5.7-6.9,7.6c-1.7,0.2-2.8,1.4-4.1,2.4c-0.5,0.4-0.8,1.1,0.2,1c2.7,0,5.4,0.3,8-0.6
			c1.7-0.3,3.2-1.3,5-1.4c-0.5,1.4-2.3,1.5-2.5,3c0,0,0.1,0,0.1,0c-0.6-0.5-1.1,0-1.5,0.2c-2,1-4.1,1.7-6.2,2.3
			c-0.4,0-1.2-0.1-1.1,0.3c0.1,0.6,0.7,0.5,1.2,0.1c1,0,2,0.1,3,0.1c-0.8,1.5-2.7,1.1-3.8,2.1c-4.1,1.2-6.9,4.3-10,7
			c3.8-1.4,7.6-2.9,11.4-4.3c0.9,0,1.8-0.8,2.9-0.4c-0.7,1.5-2.1,2.2-3.3,3.2c-2.3,1.9-5.3,2.7-7.3,5.1c-0.9,1-1.9,1.9-2.2,3.3
			c-0.1,0.1-0.3,0.1-0.4,0.2c-0.4-0.9-0.8-1.1-1.7-0.4c-1.7,1.4-3.7,2.6-5.8,3.2c-3.7,1-7,2.7-10.1,4.8c-1-1.7,0-2.8,1.4-3.5
			c1.2-0.6,2.6-1,3.9-1.3c1-0.2,2.1-0.3,2.8-1.4c-1.9,0.3-3.7,0.2-5.6,0.3c0.4-1.6,2.4-1.5,2.5-3.1c0.1-0.1,0.6,0.2,0.4-0.3
			c-0.1,0.1-0.3,0.2-0.4,0.3c-1.7,0.2-3.2,1.7-5,1.2c0.1-1.2,0.2-2.4,0.4-3.7c1.4-1.2,3.2-1.7,4.7-2.7c2.1-1.3,4.3-2.5,5.4-5
			c0-0.1,0.1-0.1,0.1-0.2c0,0.1-0.1,0.1-0.1,0.2c-2.2,0.7-4.2,1.7-6.3,2.7c-1.2,0.6-2.5,1.3-4,1c-0.3-0.9-0.5-1.8-0.8-2.7
			c0-1.3,1-1.7,1.9-2.2c2.5-1.4,5.3-2.4,7.9-3.5c-2-0.5-3.8,0-5.6,0.8c-2.1,0.9-3.9,2.5-6.3,2.7c-0.4-0.2-0.8-0.3-1.2-0.5
			c-0.2-0.7,0.7-1,0.9-1.7c-1.4,0.3-2.7,0.7-3.9,0.9c-0.8,0.1-1.8,0.5-2.3-0.4c-0.4-0.8,0.4-1.5,1-2.2c0.9-1,1.9-2,2.9-3
			c-2.3,0.7-4.2,2.2-6.2,3.3c-2.1,1.2-2.9,3.1-2.8,5.4c-0.8,0.5-1.6,1-2.5,1.6c-0.4-2.3-0.1-4.7-0.1-7.1c-0.6,0.9-0.8,2-1.4,2.8
			c-1,1.6-0.9,3.8-2.8,5c-2.3-4.5-5.9-7.9-9.7-11.1l0,0.1c0-0.3-0.2-0.5-0.5-0.5l0.1,0.1c0-0.3-0.2-0.5-0.5-0.6
			c-0.5-1.2-1.7-2.1-1.8-3.5c0.7-2.2,1.5-4.4,2.2-6.7c0.7-0.9,0.8-2.1,1.9-3c0.3,2.5,1.1,4.7,2.2,6.8c0.2,0.5,0.2,1.3,0.9,1.2
			c0.7-0.1,0.7-0.8,1-1.2c2.3-2.4,4.9-4.2,7.8-5.8c2.1-1.1,4.5-2,5.8-4.3c0.3-0.6,0.5-1.6,1.2-1.5c0.8,0,1,1.1,1.4,1.7
			C157.9,41.9,158,42.3,158.1,42.6z M162.3,58.4c0-0.1,0.1-0.2,0.1-0.3c0,0-0.1,0-0.1,0C162.2,58.2,162.2,58.3,162.3,58.4z"/>
		<path class="st2" d="M95.8,181.9c0-1,0.1-2,0.5-3c0.6,0,1.1,0,1.7,0c2.8-0.3,2.8-0.4,2.8-3.2c0-2-0.4-4,0.1-6
			c1-2.1,0.3-4.7,1.6-6.8c3.6,2.4,7.2,4.9,10.8,7.3c-0.2,0.5-0.4,1.1-0.5,1.6c-0.9,3,0.4,4.6,3.4,4.8c3.2,0.3,5.7-1,8-2.9
			c0.8,0.2,1.8,0.1,2.5,0.7c-3.3,2.5-6.5,5.2-11,4.7c-1.6-0.2-2,0.6-1.7,2c0.3,1.9,0.7,3.7,1,5.6c-0.3,0.9,0,1.8,0.2,2.6
			c0.5,2.4,0.5,4.9,2,7c0,0,0.2,0.1,0.2,0.1c0.2,3.2,1.5,5.9,4,7.9c3.3,3.7,7.3,6.3,11.5,8.9c0.3,0.7,1,0.9,1.6,1.3
			c3.1,1.8,6.3,3.6,9.5,5.4c-3.3,1.5-3.4,2.4-0.6,4.8c0.3,0.2,0.5,0.4,0.8,0.7c-0.2,0.6-0.8,0.4-1.2,0.4l0,0
			c-0.3-0.4-0.5-0.5-0.8-0.1c-1.3-0.4-2.6-0.4-3.9-0.4c-0.8,0-2-0.4-2.3,0.8c-0.2,1,0.8,1.4,1.5,1.8c1.5,1,3.1,1.8,5.2,3.1
			c-2.9,0-4.8-0.9-6.8-1.6c-1.4-0.5-2.1-0.1-2.1,1.5c0,1,0,1.9,0,2.9c-2.6-1.7-4.8-4.2-7.9-5.1c-4-2.2-7.9-4.4-11.1-7.8
			c-0.2-0.2-0.5-0.1-0.8-0.2l0,0c0.1-0.8-0.1-1.3-0.9-1.6c-0.3-0.4-0.6-0.8-0.9-1.2c-0.3-1.3-0.8-2.5-1.6-3.6
			c-0.4-0.8-0.7-1.6-1.1-2.4c-0.9-2.3-1.7-4.5-2.6-6.8c-2.5-8-4.8-16-5.6-24.9C99.3,182.1,97.5,181.9,95.8,181.9z"/>
		<path class="st3" d="M173,219.6c1.9,1.5,3.9,2.9,5.8,4.4c4.8,4.2,7,9.9,8.1,16.1c0.6,3.4,1.3,6.7,2.5,9.9c0.2,0.7,0.4,1.3,1,1.8
			c-2.4,1.6-5.1,2.7-7.9,3.5c-3.3-4-7.2-7.5-11.1-10.8c-5-4.3-10.5-8.2-14.7-13.4c-0.2-0.2-0.6-0.3-0.9-0.5c3.4-2.9,4.3-3.8-0.7-5.8
			c-2.8-1.1-5.7-2.2-8.2-4c0.2-2.1-2-2.8-2.7-4.3c0.4-0.2,0.7-0.5,1.1-0.5c3.3-0.2,6.5-0.8,9.7-1.2c3.7-0.5,7.4-2,11.3-1
			C167.2,217.2,169.8,218.8,173,219.6z"/>
		<path class="st4" d="M109.9,144.5c0.6-2.3,2.3-3.9,4-5.4c2.3-2,5-3.6,7-5.9c1.2-1.4,0.9-2.1-1-2.6c2.9-1.3,4.9-3.8,7.9-4.9
			c1.8,0.1,3.7,0.7,5.5,0.3c2.2,0.6,4.4,0.4,6.6,0.7c4.6,0.6,7.4-1.6,9.3-5.5c0.2,0.6,0.4,0.9,1.2,0.7c2.2-0.6,4,0.1,5.4,1.9
			c0.8,1.1,1.9,1,3.1,0.9c0.5,2.5-0.4,4.8-0.7,7.2c-2.2-1.8-4.5-3.5-6.7-5.3c-0.8-0.7-1.3-0.6-1.8,0.4c-2.7,5.6-6.7,10.5-9.4,16.1
			c-1,2.1-1.3,4.4-2,6.6c-1.9-0.3-3.9,0.1-5.8-0.4c-4-0.9-7.6-3.2-11.5-4.4c-3.2-1-6.3-2-9.7-0.7C111,144.2,110.5,144.3,109.9,144.5
			z"/>
		<path class="st3" d="M128.4,238.6c0.2,6-1.1,11.8-1.9,17.6c-0.3,2.6-0.8,5.2-0.6,7.9c0.1,1.8,0.7,3.1,2.7,3.7
			c4.5,1.4,5.5,4.2,2.7,8c-1.8,2.5-2.6,5.1-2.9,8c-0.3,2.6-1.3,5-3.4,6.8c-1.5,1.3-2.4,3.3-4.2,4.4c-0.7-0.1-1.4-0.3-2.1-0.4
			c-0.7-0.6-0.3-1.2,0-1.7c2.1-3.5,1.9-7.4,1.6-11.2c-0.3-3.1-0.3-6.1-0.3-9.2c0.2-9.9-2.6-19.1-5.7-28.3c-0.7-2.1-1.7-4.1-1.9-6.4
			c2.1,0,4.2,0.1,6.2-0.4c1.5-0.4,2.3-1.3,2.1-2.8c-0.2-1.2-0.6-2.4-0.8-3.6c-0.1-0.6-0.9-1.4,0-1.8c0.8-0.4,1.3,0.4,1.7,0.9
			c1.4,1.8,2.6,3.7,4,5.6C126.6,236.7,127,238.1,128.4,238.6z"/>
		<path class="st2" d="M189.1,179.8c3.6-0.3,7.2-0.6,10.8-0.9c-0.6,0.4-1.2,0.9-1.9,1.3c-5.4,3.2-10.5,6.9-15,11.3
			c-4.5,3.3-7.8,7.8-12.1,11.3c-2,1.3-4,2.7-6,4c-0.3,0-0.6,0-0.8,0.1c-4.9,2.5-10,2.8-15.3,2.4c-0.6-1.8-2.7-3.2-1.5-5.5l0,0
			c3.8-0.7,7.5,0.3,11.3,0c0.7,0,1.5,0.2,1.8-0.6c0.2-0.7-0.3-1.2-0.8-1.6c-1.2-1.3-2.6-2.6-3.7-4c-1.2-1.5-0.8-2.6,1.1-3
			c1.5-0.3,3.1-0.2,4.6-0.1c1.7,0.2,3.3,0.4,5,0.5c0.7,0.1,1.7,0.2,2.1-0.6c0.5-0.9-0.4-1.6-0.9-2.2c-0.9-1-1.9-1.9-2.7-2.9
			c-1.2-1.5-0.7-2.7,1.1-3c0.9-0.2,2-0.2,2.9-0.2c2,0.1,4,0.4,6.1,0.5c1.8,0,2.1-0.7,1.1-2.2c-0.2-0.3-0.5-0.6-0.8-1
			c0-0.5-0.2-0.8-0.7-0.9c-0.1-0.1-0.2-0.2-0.2-0.3l0-0.2l-0.2,0c0-0.1-0.1-0.2-0.1-0.3c0.6-0.9,1.5-0.8,2.4-0.8
			c2.9,0,5.7,0.1,8.6,0.1C186.6,181,188,181,189.1,179.8z M178.9,184c0.9,0,1.7-0.1,1.6-1.1c-0.1-1.3-1.1-1.5-2.2-1.4
			c-0.8,0-2,0-1.8,1.1C176.7,183.8,178,183.7,178.9,184z M169.4,187.7c-0.6,0.1-1.5-0.1-1.4,0.8c0.2,1.1,1.1,1.5,2.2,1.5
			c0.7,0,1.8-0.1,1.6-1.2C171.6,187.6,170.3,187.8,169.4,187.7z M160.9,196.1c-0.5,0.1-1.4-0.2-1.4,0.7c0.1,1.2,1.3,1.5,2.3,1.7
			c0.6,0.1,1.1-0.3,1-1C162.9,196.3,162,196.1,160.9,196.1z M152.7,205.2c-0.7,0.1-1.6-0.1-1.5,1c0.1,0.9,0.9,1.1,1.7,1.1
			c0.7,0,1.6-0.1,1.6-0.9C154.6,205,153.4,205.5,152.7,205.2z"/>
		<path class="st5" d="M114.8,186.5c-0.3-1.8-0.7-3.7-1-5.6c-0.3-1.4,0.1-2.1,1.7-2c4.5,0.5,7.7-2.2,11-4.7c3.9-2.1,7.9-4.2,12-5.9
			c3.1-1.3,6.2-2.7,8.8-4.9c1.2,1.3,2.7,2.3,3.5,3.9c-0.1,0.1-0.2,0.2-0.2,0.3c-1.4-0.3-2.7-0.7-4.1-0.9c-0.7-0.1-1.7-0.3-2,0.6
			c-0.8,1.9-1.8,3.6-1.8,5.8c0,1.9,5.1,5.1,6.9,4.2c0.6-0.3,0.9-0.9,1.2-1.4c1.3-2.2,1.2-4.7,1.1-7.1l0.1-0.1
			c2.7,2.5,5.8,4.6,8.8,6.8c-0.9,0.1-1.6-0.4-2.4-0.6c-0.6-0.2-1.3-0.2-1,0.7c0.5,1.8-0.5,1.3-1.4,0.9c-2.4-0.9-2.5-0.9-2.4,1.6
			c0.1,1.5-0.5,1.7-1.7,1.2c-1-0.4-2.1-0.8-3.2-0.9c-1.9-0.2-2.1,0.2-1.3,1.9c0.3,0.6,0.7,1.2,0.2,1.7c-0.4,0.5-1,0.2-1.6,0
			c-1.1-0.4-2.4-0.8-3.2,0c-0.8,0.9,0.5,1.9,0.8,2.8c0.3,0.8,1.1,1.6,0.4,2.3c-0.7,0.7-1.5-0.2-2.2-0.6c-0.9-0.4-1.8-1.4-2.6-0.5
			c-0.8,0.8,0.5,1.6,0.8,2.4c0,0.1,0,0.3,0,0.7c-3-1.5-2.8,0-2.1,2.1c0.3,0.8-0.2,1.1-1.1,0.9c-1.8-0.5-2,0.5-1.6,1.9
			c0.5,1.7-0.5,1.3-1.3,0.9c-0.9-0.4-1.7-0.9-2.7-1.2c-0.5-0.2-1.2-0.3-1.5,0.2c-0.3,0.5,0.1,0.9,0.4,1.3c0.8,1,1,2,0.5,3.2
			c-0.6,0-0.7-0.5-1-0.8c-0.4-0.3-0.7-0.7-1.1-1c-1.3-0.8-2.2-0.3-1.9,1.1c0.3,2-0.6,2.2-2.1,2.1l0,0c-0.2-0.3-0.5-0.3-0.8-0.2
			c-0.8-0.3-1.7-0.7-2.5-1c-1.3-1-2.6-2.1-4.2-2.5c0,0-0.2-0.1-0.2-0.1c-0.3-1.6-1-3.1-1-5c2.4,0.8,4.6,1.6,6.9,2.3
			c1.9,0.6,3.2-0.1,4.1-1.9c1-2.1,1.2-4.3,1.4-6.5c0.2-2-0.8-3.2-2.6-3.7c-1.8-0.5-3.7-0.5-5.6-0.8c-2.3-0.3-3.3,0.6-3.9,2.7
			C116,184.4,116,185.7,114.8,186.5z M133.8,173.1c-2,0-4.2,3.8-4.3,7.2c0,1.8,4.8,4.5,7.9,4.8c2.2,0.2,4.2-3.3,4.4-7.7
			C142,174.7,139.2,173.2,133.8,173.1z"/>
		<path class="st6" d="M138.9,152.1c0.7,1.3,1.6,2.5,1.4,4.1c-1.1,0.7-1.7,1.7-2.2,2.9c-1.3,1.2-2,2.9-3.5,3.9c-1,1.1-2,2.1-3,3.2
			c-2.1,1.6-4.2,3.2-7,3.5c-1.9-0.3-3.9-0.7-5.8-1c-1.5-0.5-3-1-4.5-1.5c-4.4-2.4-8.9-4.3-13.1-7c0-0.1-0.1-0.1-0.1-0.2
			c-0.1-0.4-0.4-0.4-0.8-0.5c-0.4-3.7,1.6-6.5,3.4-9.4c0.5-0.7,1.4-0.5,2.1-0.4c0.8,0,1.5,0,2.3,0c3.2,0.2,6.4,0.5,9.6,0.7
			c4.9,0.3,9.7,0.6,14.6,0.6C134.6,151,136.9,150.3,138.9,152.1z M124.2,154.5L124.2,154.5c-0.4-1.8-1.9-1.1-3.1-1.2
			c-1.5-0.2-2.3,0.9-2.7,2.1c-0.9,2.4-0.5,4.8,0.4,7.1c0.3,0.7,0.8,1.2,1.5,1.4c1.9,0.4,4,0.6,5.5-0.9c1.4-1.4,1.1-3.2,0.2-4.8
			c-0.2-0.4,0-1-0.6-1.3c-0.3-0.6-0.7-1.3-1-1.9C124.4,154.8,124.3,154.7,124.2,154.5z M109.6,155.8c0,1.6,1.6,3.9,2.5,3.8
			c1.6-0.3,1.7-1.7,1.8-2.9c0.1-1.7-1.4-3.4-2.7-3.2C109.7,153.6,109.7,154.8,109.6,155.8z M128.6,156.6c0.4,1.2,0.5,2.9,2.1,3
			c1,0.1,1.3-1.3,1.3-2.3c0-1.5-0.9-2.4-2.1-2.6C128.9,154.5,128.6,155.6,128.6,156.6z M106.6,154.3c-0.5-0.3,0.3-1.8-1.1-1.7
			c-1.1,0.1-2.3,0.6-2.1,2.1c0.1,0.9,0.2,2.3,1.4,2.2C105.9,156.9,106.8,156,106.6,154.3z M137.5,155.3c-0.2-1-0.8-2-1.7-2.2
			c-0.7-0.2-1.3,0.8-1.3,1.6c0,1.1,0.8,1.8,1.8,2.1C137,156.8,137.3,156,137.5,155.3z"/>
		<path class="st7" d="M166.7,86c3.1-2.1,6.4-3.8,10.1-4.8c2.1-0.6,4.1-1.8,5.8-3.2c0.9-0.7,1.3-0.4,1.7,0.4
			c-0.5,1.6-0.4,3.2-0.5,4.8c-1.4,3.4-4.1,5.4-7.5,7c1.2,0.7,2.2,1,3.3,1.1c1.8,0.1,1.5,1.1,0.8,2.1c-0.8,1.1-2,1.5-3.2,1.8
			c-1.3,0.3-2.7,0.6-4.4,1c2.3,1,4.5,1,6.7,1.7c-6.2,4.6-13.3,6.1-20.8,6c0.8-0.4,1.7-0.8,2.5-1.3c1.1-0.6,1.9-1.6,1.5-2.9
			c-0.4-1.3,0.1-1.9,0.8-2.7c0.7-0.8,1.2-1.7,1.3-2.8c0.1-1.2-0.2-2.1-1.7-1.8c0.4-1.8,0.9-3.5,1.8-5.1
			C165.6,87,166.2,86.5,166.7,86z"/>
		<path class="st3" d="M192.8,258.1c0.5,3.6,2.7,6.3,4.8,9.1c2.9,3.9,6.2,7.6,9.7,11c2.8,2.6,2.2,5.9,1.6,9.1c-0.3,1.4-1,2.7-1.5,4
			c-0.5,1.5-1.4,1.8-2.8,1.2c-2.4-1-3.6-3.2-5.2-5.1c-4.4-5.4-6.5-11.8-8.8-18.2c-0.6-1.8-1.2-3.5-2.1-5.2c-0.9-1.6-1.9-2.8-3.8-3.1
			C187.9,261.1,190.4,259.7,192.8,258.1z"/>
		<path class="st3" d="M174.3,122.2c2.6-1.4,4.5-3.7,6.9-5.3c2.8-1.8,5.3-3.9,8-5.8c1.4-1,2.2-2.2,2-4.1c-0.2-2.9,0-5.9,0.4-8.8
			c0.4-3,2.4-5,4.4-6.9c0.2-0.2,0.6-0.3,0.7-0.2c0.3,0.2,0.2,0.6,0.1,0.9c-0.4,0.8-1.4,1.2-1.5,2.2c-0.1,0.2-0.2,0.3-0.3,0.5
			c0,0,0.1,0.1,0.1,0.1c0.1-0.2,0.2-0.4,0.3-0.5c1,0,1.8-0.7,2.7-1c0.4-0.2,0.8-0.4,1.1,0c0.3,0.4-0.1,0.7-0.4,1.1
			c-0.5,0.7-1.5,0.8-1.9,1.6c-0.1,0.1-0.1,0.1-0.2,0.2c0.1-0.1,0.1-0.1,0.2-0.2c0.1,0,0.1,0,0.2,0c1.1,0.1,2.3-1.5,2.8-0.6
			c0.5,1-1.3,1.2-2,1.9c-0.2,0.2-0.4,0.5-0.4,0.7c0,0.4,0.5,0.4,0.8,0.5c0.7,0.1,1.5-0.2,2.1,0.2c0,0.2,0,0.3,0,0.3
			c-3.8,2-3.9,2-2.9,6.6c0.4,2-0.1,3.8-1.6,4.9c-3.6,2.7-6.2,6.4-9.2,9.8c-2.9,3.3-5.7,6.8-9.1,9.5c-0.4,0.3-0.6,0.7-1,1.1
			c-0.8-0.5-1.3,0.2-1.8,0.6c-1.3,0.9-2.7,1-4.2,0.9c-0.4,0-0.8,0-1-0.5c-0.5-1.1,0.9-7.8,1.9-8.4c0.4-0.3,1.1-0.2,1.6-0.3
			C173.8,123.2,174.5,123.2,174.3,122.2z"/>
		<path class="st8" d="M164.8,206.7c2-1.3,4-2.7,6-4c4.3,1.7,8.7,3,13.3,3.4c2,0.2,4,0.4,5.8-0.9c1.9,0,3.5-0.7,5.2-1.5
			c3.3-1.5,6.5-3.1,10-4.3c0.6,3.5-1.3,6-3.4,8.4c-1.2,1.4-2.8,2.5-4.4,3.5c-2.8-0.2-5.5,0.3-8.2,1c-3.2,0.9-6.4,1.6-9.7,1
			c-2.5-0.4-5-0.3-7.5-0.3c-1.9-0.1-3.8-0.1-5.6-0.1C165.8,210.9,165.3,208.8,164.8,206.7z"/>
		<path class="st3" d="M127.9,125.7c-2.9,1.1-5,3.6-7.9,4.9c-2.2,0.5-4.5,0.6-6.8,0.5c-1.1,0-1.8,0.5-2.1,1.6
			c-1.6-0.4-1.8,1-2.5,1.8c-2,2.6-4.1,4.9-7.8,4.9c-2.1,0-3.4-0.8-3.9-3c-0.3-1.2-0.3-2.5-0.5-3.7c0,0,0,0,0,0
			c0.2-0.3,0.3-0.6,0.5-0.9l0,0c1.1-1.6,2.7-2.2,4.6-2.5c0.9-0.1,2-0.2,2.5-1.3c3.4-0.8,6.5-2.1,8.6-5c1.4-1.9,3.7-2.4,5.5-3.7
			c0.3-0.3,0.8-0.3,1.2,0c0.5,0.4,0.1,0.8-0.1,1.1c-0.2,0.4-0.5,0.8-0.8,1.4c1.3,0.5,2.4,0.4,3.5-0.2c1.2,0.8,2.3,0.3,3.5,0
			c0.5,0.1,1.1,0.2,1.5-0.3c3.5,0.1,7.1-0.1,10.6,0.2c2.4,0.2,4.8,0.5,7.3-0.1c0,0.4,0.1,0.7,0.1,1.1c-0.1,0.1-0.2,0.1-0.3,0.1
			c-0.7-0.7-1.5-0.7-2.2,0c-0.3,0-0.5,0-0.8,0c-1.1-0.2-2.1,0.2-3.1,0.4c-0.5-0.6-1-0.4-1.5,0c-0.9,0-1.8,0-2.7,0
			c-0.3,0-0.6-0.5-0.8,0.1c-0.6,0.4-0.5,1.5-1.6,1.6c-0.4-1.3-0.7-3.8-2.3-0.6c-0.2,0.4-0.6,0.2-1,0.2
			C127.9,124.5,127.6,124.9,127.9,125.7z"/>
		<path class="st6" d="M146.9,220.8c2.5,1.8,5.4,2.9,8.2,4c5,2,4.1,2.8,0.7,5.8c-1.9,1.2-3.8,2.3-5.6,3.6c-3,2.1-5.3,4.8-5.6,8.9
			c-3.9-3.2-7.5-6.1-11-9.1c0-0.1,0-0.2,0-0.4c0-1,0-1.9,0-2.9c0-1.6,0.7-2,2.1-1.5c2,0.7,4,1.6,6.8,1.6c-2.1-1.2-3.7-2.1-5.2-3.1
			c-0.7-0.4-1.7-0.8-1.5-1.8c0.3-1.2,1.5-0.8,2.3-0.8c1.3-0.1,2.6,0,3.9,0.4c0.3,0,0.6,0,0.8,0.1c0,0,0,0,0,0
			c1.4,0.5,2.8,1.1,4.1,1.6c0-0.1,0.1-0.2,0.1-0.3c-1-0.6-2-1.2-3-1.8c-0.3-0.2-0.5-0.4-0.8-0.7c-2.8-2.4-2.7-3.2,0.6-4.8
			C145,219.6,145.8,220.5,146.9,220.8z"/>
		<path class="st1" d="M190,205.3c-1.8,1.3-3.9,1.1-5.8,0.9c-4.6-0.5-9-1.8-13.3-3.4c4.3-3.5,7.6-8,12.1-11.3
			c2.4,0.2,4.6-0.6,6.9-0.9c3.4-0.5,6.6-2.1,10.1-1.9c-1.1,2.7-3.4,4.4-5.1,6.6c-0.9,1.1-1.8,2.1-2.7,3.2c-1.9,1.1-2.6,3-3.1,5
			C188.8,204.2,189.2,204.9,190,205.3z"/>
		<path class="st5" d="M163.8,176.8c1.7,0.4,3.4,1,5,1.8c-2,1.9-4.5,2.5-7,3.1c-3.8,0.9-6.6,2.9-8.4,6.3c-0.6,1.1-1.2,2.2-1.8,3.3
			c-2.9,5.2-6.3,9.9-12.1,12.2c-1.8,0.7-3.7,0.6-5.4,1.6c-2.5-1.2-4.9-2.4-7.4-3.6c1.1-0.9,2.5-0.7,3.8-1c3.5-0.8,5.4-3.6,8-5.5
			c3.5-2.7,6.3-5.9,8.3-9.8c1.3-2.6,3.5-3.8,6.2-4.5C156.6,179.6,160.4,178.7,163.8,176.8z M144.4,196.5c0.8-0.1,1.6-0.3,1.5-1.1
			c-0.2-1.3-1.2-1.7-2.4-1.7c-1.1,0-1.9,0.6-1.7,1.6C141.9,196.8,143.6,195.9,144.4,196.5z M148,191.9c0.9,0,1.9,0,1.9-1.2
			c0-1.1-0.9-1.2-1.8-1.2c-1,0-2,0.1-1.9,1.4C146.2,192,147.2,191.8,148,191.9z M151.9,186.3c-0.4-1-1-1.9-2.2-2.2
			c-0.7-0.2-1,0.3-1,0.9c0.1,1.3,0.7,2.1,2,2.3C151.3,187.4,151.8,187.1,151.9,186.3z M138,201.3c-0.4-1.2-1.6-1.1-2.5-1.2
			c-0.5-0.1-1.6-0.3-1.5,0.5c0.2,1.2,1.6,1.4,2.6,1.7C137.4,202.6,137.7,202,138,201.3z M154.3,183.6c0.7-0.1,1.8,0,1.6-0.8
			c-0.2-1-1.5-1.1-2.4-1.2c-0.6,0-1.5,0.1-1.4,0.9C152.3,183.6,153.4,183.4,154.3,183.6z M140.4,199.5c0.7,0,1.4,0.2,1.4-0.8
			c0-1-0.8-1.3-1.6-1.2c-0.7,0.1-2-0.5-2.1,0.6C138.2,199.3,139.7,199.1,140.4,199.5z M159.8,181.5c0.4-0.2,1.4,0.2,1.3-0.5
			c-0.2-1.2-1.4-1.1-2.3-1.2c-0.5-0.1-1.4-0.1-1.2,0.6C157.8,181.5,158.9,181.3,159.8,181.5z M163.7,178.2c-0.5,0.1-1.4-0.1-1.4,0.8
			c0.1,0.9,0.9,0.8,1.6,0.8c0.6,0,1.4-0.1,1.3-0.9C165.1,178,164.3,178.2,163.7,178.2z"/>
		<path class="st5" d="M175.5,183.4c0.3,0.3,0.6,0.6,0.8,1c1,1.5,0.7,2.2-1.1,2.2c-2,0-4-0.4-6.1-0.5c-1-0.1-2,0-2.9,0.2
			c-1.8,0.4-2.3,1.6-1.1,3c0.8,1,1.8,1.9,2.7,2.9c0.5,0.6,1.4,1.2,0.9,2.2c-0.4,0.8-1.4,0.6-2.1,0.6c-1.7-0.1-3.3-0.3-5-0.5
			c-1.5-0.2-3.1-0.3-4.6,0.1c-1.9,0.4-2.3,1.5-1.1,3c1.1,1.4,2.5,2.7,3.7,4c0.4,0.5,1,1,0.8,1.6c-0.3,0.9-1.2,0.6-1.8,0.6
			c-3.8,0.2-7.5-0.7-11.3,0c4-3.8,6.7-8.4,9.2-13.1c1.4-2.7,3.4-4.5,6.4-5.2c1.9-0.4,3.7-1.2,5.5-1.9c2-0.8,3.6-2.1,4.4-4.2
			c4.9,0.7,9.8,0.4,14.7,0.6c-0.8,0.7-1.8,0.8-2.8,0.7c-2.8-0.1-5.6-0.5-8.4-0.3c-1.5,0.1-1.7,0.2-2.1,1.4c0,0.1,0.1,0.2,0.1,0.3
			c0,0,0,0.2,0,0.2l0.2,0c0.1,0.1,0.2,0.2,0.2,0.3C174.8,183,175,183.3,175.5,183.4z"/>
		<path class="st6" d="M172.8,179.3c-0.8,2.1-2.5,3.4-4.4,4.2c-1.8,0.8-3.6,1.5-5.5,1.9c-3,0.7-5,2.5-6.4,5.2
			c-2.5,4.7-5.2,9.4-9.2,13.1c0,0,0,0,0,0c-2.2,1.3-4.5,2.5-6.7,3.8c-1.7-0.2-3.1-1.4-4.9-1.2l0,0c-0.1-0.4-0.4-0.5-0.7-0.4
			c-0.3-0.2-0.6-0.5-0.9-0.7c1.7-0.9,3.6-0.9,5.4-1.6c5.9-2.3,9.3-7,12.1-12.2c0.6-1.1,1.2-2.2,1.8-3.3c1.8-3.4,4.7-5.4,8.4-6.3
			c2.5-0.6,5-1.3,7-3.1C170.2,178.9,171.6,178.7,172.8,179.3z"/>
		<path class="st0" d="M187,75.1c1.9-2.4,5-3.2,7.3-5.1c1.2-0.9,2.5-1.7,3.3-3.2c-1.1-0.4-1.9,0.4-2.9,0.4c-0.5-0.9-1-1.8-1.4-2.7
			c1.1-1,3-0.6,3.8-2.1c1.2-1.5,3.5-1.4,4.6-3.1c0,0-0.1,0-0.1,0c3.2-0.8,5.6-3.1,8-5.1c1.4-1.2,2.6-2.5,4.1-4
			c0.2,1.7-0.7,2.8-1.1,4C208,65.8,199.2,72.1,187.6,75C187.4,75.1,187.2,75.1,187,75.1z"/>
		<path class="st1" d="M163.8,176.8c-3.5,1.9-7.3,2.8-11,3.8c-2.7,0.8-4.9,2-6.2,4.5c-2,3.9-4.8,7.2-8.3,9.8c-2.6,2-4.5,4.8-8,5.5
			c-1.3,0.3-2.7,0.1-3.8,1c-0.6-0.6-1.6-0.7-2-1.6c1.6,0.2,2.5-0.1,2.1-2.1c-0.2-1.4,0.7-1.9,1.9-1.1c0.4,0.2,0.7,0.7,1.1,1
			c0.3,0.3,0.4,0.8,1,0.8c0.4-1.2,0.3-2.2-0.5-3.2c-0.3-0.4-0.7-0.8-0.4-1.3c0.4-0.5,1-0.4,1.5-0.2c0.9,0.3,1.8,0.9,2.7,1.2
			c0.8,0.3,1.8,0.7,1.3-0.9c-0.4-1.3-0.2-2.3,1.6-1.9c0.9,0.2,1.3-0.1,1.1-0.9c-0.7-2.1-0.9-3.6,2.1-2.1c0-0.4,0-0.6,0-0.7
			c-0.3-0.8-1.5-1.5-0.8-2.4c0.8-0.9,1.8,0.1,2.6,0.5c0.7,0.3,1.5,1.2,2.2,0.6c0.7-0.7,0-1.5-0.4-2.3c-0.4-0.9-1.7-1.8-0.8-2.8
			c0.7-0.8,2.1-0.4,3.2,0c0.5,0.2,1.2,0.4,1.6,0c0.5-0.6,0-1.2-0.2-1.7c-0.8-1.7-0.5-2.1,1.3-1.9c1.1,0.1,2.2,0.5,3.2,0.9
			c1.2,0.5,1.8,0.3,1.7-1.2c-0.1-2.4-0.1-2.5,2.4-1.6c0.9,0.3,1.9,0.9,1.4-0.9c-0.2-0.9,0.4-0.8,1-0.7c0.8,0.2,1.5,0.7,2.4,0.6
			C161.9,175.9,163,176.1,163.8,176.8z"/>
		<path class="st0" d="M179.7,50.3c1.2-0.9,2.3-2,3.2-3.3c0.3-0.4,0.7-0.9,0.3-1.3c-0.2-0.2-0.8-0.1-1.2-0.1
			c-0.9,0.1-1.8,0.2-2.7,0.4c3.7-4.2,6.2-9.1,9-13.8c0.5-0.8,0.8-2.3,1.8-2c1,0.2,0.9,1.7,0.9,2.7c0.2,5.7-1.1,11-2.9,16.4
			c-0.4,1.1-1,2.2-0.9,3.4c-2.8,0.6-5.7,1.1-8.5,1.7c-1.5-0.5-0.3-1.3,0-1.7C179.4,52,179.9,51.3,179.7,50.3z"/>
		<path class="st5" d="M95.8,181.9c1.7,0,3.5,0.2,5.3-1.7c0.8,8.8,3.1,16.9,5.6,24.9c-1,1.5,0.5,3.4-0.5,5c-1-0.9-0.6-2.1-1.5-2.7
			c-0.4-0.3-1-1.1-1.5,0c-0.3,0.7,0,1.9-1.1,1.7c-0.9-0.1-0.5-1.3-0.7-2c0-0.1,0-0.3-0.1-0.4c-0.3-0.6-0.1-1.6-1.1-1.6
			c-0.8,0-0.6,1-0.8,1.5c-0.3,0.9,0.1,2.1-1.5,2.7c0-1,0-1.9,0-2.7c-0.1-0.9,0.5-2.2-0.5-2.7c-0.9-0.4-1.3,1.1-2.1,1.4
			c-0.1-1.3-0.2-2.7-0.4-4c1.5,0.5,2.6,0,3.4-1.2c0.8-1.1,1.7-2,2.5-3.1c2.2-2.9,2.2-3.8-0.2-6.7c-0.5-0.6-1.1-1.1-1.5-1.7
			c-1.1-1.5-2.5-1.8-4.1-0.7C95.4,185.8,94.9,183.8,95.8,181.9z"/>
		<path class="st9" d="M174.3,122.2c0.2,0.9-0.5,1-1.1,1.1c-0.5,0.1-1.2,0.1-1.6,0.3c-1,0.6-2.4,7.2-1.9,8.4c0.2,0.5,0.6,0.5,1,0.5
			c1.5,0.1,2.9,0,4.2-0.9c0.5-0.4,1-1,1.8-0.6c0,3.6-1,6.9-3.3,9.7c-0.5,0.7-1.1,1.4-2.1,0.7c-2.1-1.6-4.6-2.6-6.5-4.6
			c0.1-0.8,0.4-0.9,1.1-0.5c0.6,0.3,1,1,1.8,0.6c0.1-0.5-0.3-0.6-0.6-0.8c-0.9-0.7-2.8-0.7-2.6-2.2c0.2-1.3,2-0.1,3-1.2
			c-1.1-0.6-2.1-1.3-3.2-1.8c-0.9-0.4-1.3-0.8-1-1.7c0.3-0.1,0.6-0.3,0.9-0.4c1-0.1,2.1,0.1,3.3-0.5c-1-0.6-1.8-0.9-2.7-1
			c-0.1-0.1-0.3-0.2-0.4-0.3c-0.8-0.9-0.7-1.5,0.6-1.4c0.9,0,1.8,0.2,2.7,0.3c0.3,0,0.7,0.2,0.9-0.3c0.2-0.4-0.1-0.7-0.4-0.9
			c-0.9-0.6-1.7-1.1-2.6-1.7l0,0c0.5-0.8,1.4-0.8,2.2-0.9c0.8-0.1,1.4-0.5,1.4-1.4C171.3,120.3,173.1,120,174.3,122.2z"/>
		<path class="st1" d="M166.3,212.9c1.9,0,3.8,0,5.6,0.1c2.5,0.1,5,0,7.5,0.3c3.3,0.5,6.5-0.2,9.7-1c2.7-0.7,5.4-1.2,8.2-1
			c-7.5,4.5-15.5,7.8-24.4,8.3c-3.2-0.8-5.8-2.4-6.8-5.8C166.3,213.5,166.3,213.2,166.3,212.9z"/>
		<path class="st2" d="M110.9,232.7c-1.8-0.5-3.6-1.1-5.4-1.6c-3.3-0.9-4.6-3.4-5.3-6.4c0.7-0.5,0.1-1.8,1-1.8
			c0.9-0.1,1.3,1,1.7,1.6c0.9,1.4,1.7,2.8,2.8,4.7c0.3-2.3,0.5-4.1,0.7-5.9c0.1-0.7,0.2-1.7,1.1-1.9c0.9-0.2,1.3,0.7,1.7,1.3
			c1.2,1.8,2.4,3.7,3.7,5.9c0-3.1-1.3-5.7,0-8.2c0.3,0,0.5,0.1,0.8,0.1c0,0,0,0,0,0c1.4,3.6,3.6,6.7,5.4,10.1c0.7,1.4,0.4,1.7-1,1.8
			C115.7,232.5,113.3,232.6,110.9,232.7z"/>
		<path class="st3" d="M138.9,152.1c-1.9-1.8-4.2-1.1-6.5-1.2c-4.9-0.1-9.7-0.4-14.6-0.6c-3.2-0.2-6.4-0.4-9.6-0.7
			c0.2-1.3,1.5-2.1,1.4-3.5c1.4,0,1.9-0.9,2-2.1c3.3-1.3,6.5-0.3,9.7,0.7c3.9,1.2,7.4,3.4,11.5,4.4c1.9,0.5,3.9,0.1,5.8,0.4
			C138.6,150.4,138.7,151.3,138.9,152.1z"/>
		<path class="st10" d="M110.9,232.7c2.4-0.1,4.9-0.2,7.3-0.3c1.4,0,1.7-0.4,1-1.8c-1.8-3.4-4-6.5-5.4-10.1c0.3,0.1,0.6,0,0.8,0.2
			c3.1,3.4,7.1,5.6,11.1,7.8c0.8,1.7,1.7,3.4,2.5,5.1c0.2,1.6,0.6,3.3,0.4,4.9c-1.4-0.6-1.9-2-2.7-3c-1.4-1.8-2.6-3.7-4-5.6
			c-0.4-0.5-0.9-1.3-1.7-0.9c-0.9,0.5-0.1,1.2,0,1.8c0.2,1.2,0.6,2.4,0.8,3.6c0.2,1.6-0.6,2.4-2.1,2.8c-2.1,0.5-4.1,0.4-6.2,0.4
			C111.7,236.2,110.9,234.6,110.9,232.7z"/>
		<path class="st8" d="M200,188.6c-3.5-0.2-6.7,1.4-10.1,1.9c-2.3,0.3-4.6,1.1-6.9,0.9c4.5-4.4,9.6-8.1,15-11.3
			c0.7-0.4,1.3-0.8,1.9-1.3c1.8,0.4,2,1.9,2.2,3.3C202.3,184.6,201.7,186.8,200,188.6z"/>
		<path class="st5" d="M113,220.4c-1.2,2.6,0.1,5.2,0,8.2c-1.4-2.2-2.5-4.1-3.7-5.9c-0.4-0.6-0.8-1.5-1.7-1.3
			c-0.8,0.2-1,1.2-1.1,1.9c-0.3,1.8-0.4,3.5-0.7,5.9c-1.1-1.9-2-3.3-2.8-4.7c-0.4-0.7-0.8-1.7-1.7-1.6c-1,0.1-0.4,1.4-1,1.8
			c-0.9-1.6-1.4-3.3-1.7-5.1c4.6,0.3,9.2,0.2,13.4-1.9c0.3,0.4,0.6,0.8,0.9,1.2C112.9,219.5,112.9,220,113,220.4z"/>
		<path class="st9" d="M96.5,132.6c0.2,1.2,0.2,2.5,0.5,3.7c0.5,2.2,1.8,2.9,3.9,3c3.7,0.1,5.8-2.3,7.8-4.9c0.6-0.8,0.9-2.2,2.5-1.8
			c-1.2,7.7-5.6,10.7-13.4,9.2c-3.1-2.7-3-6.4-3.3-10.1c0-0.6,0.3-1.2,0.9-1.5c0,0.7-0.1,1.5,0,2.2
			C95.5,133.4,96.1,132.8,96.5,132.6z"/>
		<path class="st2" d="M190,205.3c-0.8-0.4-1.2-1.1-0.9-1.9c0.5-2,1.2-3.9,3.1-5c3.6,0.7,7.2,0.1,10.8,0.7c0.7,0.1,1.5-0.4,2.2,0.3
			c-3.4,1.2-6.7,2.8-10,4.3C193.5,204.6,191.9,205.3,190,205.3z"/>
		<path class="st1" d="M95.4,205.3c0.8-0.4,1.2-1.8,2.1-1.4c1,0.4,0.5,1.7,0.5,2.7c0.1,0.8,0,1.6,0,2.7c1.5-0.6,1.1-1.8,1.5-2.7
			c0.2-0.5,0-1.5,0.8-1.5c1-0.1,0.8,1,1.1,1.6c0.1,0.1,0,0.3,0.1,0.4c0.2,0.7-0.2,1.9,0.7,2c1,0.2,0.8-1,1.1-1.7
			c0.4-1.1,1-0.2,1.5,0c0.9,0.6,0.6,1.8,1.5,2.7c1-1.7-0.6-3.5,0.5-5c0.9,2.3,1.7,4.5,2.6,6.8c-4.4,0-8.7-0.3-13-1.2
			C96,208.8,95.7,207,95.4,205.3z"/>
		<path class="st2" d="M136.9,123c0.5-0.4,1-0.6,1.5,0c0.3,0.9,0.6,2.2,1.6,2.2c1.1,0,1-1.4,1.4-2.2c0.1-0.1,0.1-0.3,0.1-0.4
			c0.3,0,0.5,0,0.8,0c0.7,0.8,1.3,1.9,2.8,2c-0.2-0.8-0.4-1.4-0.5-2c0.1,0,0.2,0,0.3-0.1c0.6,0.1,1.1,0.7,1.8,0.3
			c0.1-0.7-0.9-0.9-0.7-1.8c0.5-0.1,1.1-0.2,2-0.3c-2.6-1.7-0.8-2.3,0.7-2.9c-0.7-0.6-1.2-1.1-1.7-1.6c0.4-0.3,0.8-0.6,1.2-0.9
			c1.1,0.2,3.3-0.8,2.3,2c-0.3,1.3-0.7,2.6-1,3.9c-1.9,3.8-4.7,6.1-9.3,5.5c-2.2-0.3-4.4,0-6.6-0.7c0-1,0-1.9,0-2.9
			c0.2-0.6,0.5-0.1,0.8-0.1c0.2,0.8,0.3,2,1.2,2c0.9,0.1,1.1-1.1,1.5-1.8C136.9,123.1,136.9,123.1,136.9,123z"/>
		<path class="st5" d="M134.6,163c1.5-1,2.2-2.7,3.5-3.9c0.9,0.3,1.8,0.6,2.7,0.9c1,0.3,1.7,0,1.7-1.3c1.5,0.6,2.2,1.9,3.2,3
			c-1.8,2.4-4.4,3.5-7.3,4.1c-1.2,0.3-2.8,1.1-3.6,0.6C133.9,165.9,135,164.2,134.6,163z"/>
		<path class="st6" d="M111.9,217.8c-4.3,2-8.8,2.1-13.4,1.9c-0.7-1.3-1-2.7-1.3-4.2c4.5,1,8.9,0.9,13.1-1.2
			C111.1,215.3,111.6,216.5,111.9,217.8z"/>
		<path class="st2" d="M192.8,258.1c-2.4,1.6-4.9,3-8,2.9c-1.8-0.4-2.3-1.9-2.7-3.4c4.5,0.4,8-1.6,10.8-5c2.1,0.2,2.8,1.2,2,3.1
			C194.5,256.7,193.7,257.4,192.8,258.1z"/>
		<path class="st5" d="M101,160c0,0.1,0.1,0.1,0.1,0.2c0,0.6-0.1,1.2-0.1,1.8c-0.5,2.5-0.5,5-0.4,7.6c-0.4,2-0.1,4-0.1,6
			c0,2.8,0,2.9-2.8,3.2c-0.5,0.1-1.1,0-1.7,0c0.2-4,1.5-7.8,2.2-11.7c0.3-1.5,0.6-3,1-4.5c0,0.1,0.1,0.1,0.1,0.2c0.1,0,0.2,0,0.2,0
			C100.4,162.1,100,160.7,101,160z"/>
		<path class="st5" d="M110.3,214.2c-4.2,2.1-8.6,2.3-13.1,1.2c-0.7-1.5-1-3.2-1-4.8c4.3,0.9,8.6,1.2,13,1.2
			C109.6,212.6,109.9,213.4,110.3,214.2z M99.8,213.3c-0.1-0.5-0.3-1-1-1c-0.6-0.1-0.9,0.3-0.9,0.9c0,0.6,0.3,1.1,0.9,1.1
			C99.4,214.3,99.8,214,99.8,213.3z M102.7,214.9c0.6-0.1,0.6-0.5,0.7-0.9c0.1-0.6-0.3-1.1-0.9-1.2c-0.6-0.1-0.6,0.4-0.6,0.8
			C102,214.2,102.1,214.7,102.7,214.9z M107,213.7c0-0.5-0.2-1-0.9-1c-0.4-0.1-0.6,0.2-0.7,0.6c0,0.6,0.2,1.1,0.8,1.3
			C106.7,214.7,106.9,214.4,107,213.7z"/>
		<path class="st0" d="M183.8,83.4c0.1-1.6,0-3.3,0.5-4.8c0.1-0.1,0.3-0.1,0.4-0.2c4,0.6,8,0.9,12,1.2
			C192.7,81.7,188.4,82.9,183.8,83.4z"/>
		<path class="st11" d="M95.2,187.8c1.6-1.1,2.9-0.8,4.1,0.7c0.5,0.6,1,1.1,1.5,1.7c2.4,2.9,2.5,3.7,0.2,6.7c-0.8,1.1-1.7,2-2.5,3.1
			c-0.9,1.2-2,1.7-3.4,1.2c-0.4-0.8-0.2-1.6-0.3-2.5c2.4,1.2,3-0.7,3.8-2.2l0,0c0.4-0.1,0.8-0.3,0.4-0.9l0,0c1.3-0.4,2-1.5,1.8-2.7
			c-0.4-1.7-1.9-2.9-3.3-3.8c-1-0.7-1.7,0.7-2.6,0.8C95,189.3,95.1,188.6,95.2,187.8z"/>
		<path class="st6" d="M150.4,117.3c1.1-2.8-1.1-1.7-2.3-2c1.2-0.9,2.5-1.7,3.7-2.6c2.2-1.8,4-3.8,3.5-7c0-1,0.8-1.2,1.5-1.3
			c0.7,3.9-0.4,7.5-2.6,10.7C153.3,116.3,152.3,117.6,150.4,117.3z"/>
		<path class="st7" d="M192.9,252.5c-2.8,3.4-6.2,5.4-10.8,5c-0.8-0.9-0.9-1.6,0.3-2.2c2.8-0.7,5.4-1.9,7.9-3.5
			C191.4,251.3,192.4,251.1,192.9,252.5z"/>
		<path class="st11" d="M163.2,92.5c1.5-0.3,1.8,0.6,1.7,1.8c-0.1,1.1-0.6,2-1.3,2.8c-0.7,0.8-1.2,1.5-0.8,2.7
			c0.4,1.2-0.4,2.2-1.5,2.9c-0.8,0.5-1.7,0.9-2.5,1.3c-0.2,0.1-0.4,0.2-0.6,0.2c0,0,0,0,0,0c-0.3,0-0.7-0.1-1-0.1c0.6-1,1.8-1.6,2-3
			c1.8-1.3,3.1-2.9,3-5.4C161.9,94.6,162.5,93.5,163.2,92.5z"/>
		<path class="st4" d="M163.5,129.3c-0.3,0.9,0.1,1.3,1,1.7c1.1,0.5,2.1,1.2,3.2,1.8c-1,1.1-2.8-0.2-3,1.2c-0.2,1.5,1.7,1.5,2.6,2.2
			c0.3,0.2,0.6,0.3,0.6,0.8c-0.8,0.4-1.3-0.3-1.8-0.6c-0.7-0.4-1-0.3-1.1,0.5c-1.3-0.8-2.8-1.6-3.7-2.9c1.1-1.6,1-3.5,1.7-5.2
			C163.1,128.9,163.3,129.1,163.5,129.3z"/>
		<path class="st9" d="M156.8,104.3c-0.7,0.2-1.5,0.3-1.5,1.3c-1.8,0.7-3.2,0.4-4-1.4c-0.7-1.6,0.2-2.7,1.6-3.4
			c2.1-1.1,2.6,0.7,3.4,2c0,0.6,0.1,1,0.7,1.3C156.9,104.2,156.9,104.2,156.8,104.3z"/>
		<path class="st2" d="M138.5,165.9c2.8-0.6,5.4-1.7,7.3-4.1c0.7,0.5,1.2,1.1,1.6,1.8c-2.6,2.2-5.7,3.6-8.8,4.9
			C137.9,167.6,138,166.7,138.5,165.9z"/>
		<path class="st11" d="M94.8,196.1c0-1.2,0-2.5,0-3.7c2.1-1.6,3.2-1.3,4.3,0.9c0.5,0.9-0.2,1.6-0.1,2.4c0,0,0,0,0,0
			c-0.5,0.1-0.9,0.3-0.4,0.9c0,0,0,0,0,0C97.3,196.6,95.9,198.1,94.8,196.1z"/>
		<path class="st2" d="M162.9,128.8c-0.7,1.7-0.6,3.7-1.7,5.2c-1.2-0.6-0.7-1.6-0.4-2.3c0.4-1.3,0.5-2.7,0.4-4c0-1.4,0-2.8,0.1-4.2
			l0,0c0.3,0,0.4-0.1,0.4-0.4c0.9-1,1.1-3,3.2-2c-0.4,0.6-0.8,1.3-1.2,1.9c-1.5,1.4-1.1,3.2-1.1,4.9
			C162.7,128.1,162.8,128.4,162.9,128.8z"/>
		<path class="st2" d="M158.3,131.9c0.3-2.4,1.2-4.7,0.7-7.2c0.2-1,0.3-2,0.6-3c0.2-0.7,0.6-1.6,1.6-1.2c1,0.3,0,1,0.1,1.6
			c0,0.5-0.1,0.9-0.1,1.4c0,0,0.2,0.1,0.2,0.1l0,0c-1.2,1.2-0.8,2.8-0.8,4.2c-0.2,1.3-0.3,2.6-0.8,3.8
			C159.3,132.1,159,132.5,158.3,131.9z"/>
		<path class="st1" d="M128,233.7c-0.8-1.7-1.7-3.4-2.5-5.1c3.1,0.9,5.3,3.4,7.9,5.1c0,0.1,0,0.2,0,0.4
			C131.7,234.1,129.8,234,128,233.7z"/>
		<path class="st5" d="M99,195.8c-0.1-0.8,0.6-1.5,0.1-2.4c-1.1-2.2-2.3-2.5-4.3-0.9c0-0.8,0-1.6,0.1-2.4c0.9-0.1,1.5-1.5,2.6-0.8
			c1.4,1,2.9,2.1,3.3,3.8C101,194.2,100.3,195.4,99,195.8z"/>
		<path class="st0" d="M199.1,57.8c-2.6,1-5.3,0.6-8,0.6c-1,0-0.7-0.6-0.2-1c1.3-1,2.4-2.2,4.1-2.4c0.2,0.9-0.4,1.7-0.7,2.8
			C195.9,57.8,197.5,57.8,199.1,57.8z"/>
		<path class="st12" d="M174.3,181.7c0.4-1.2,0.6-1.3,2.1-1.4c2.8-0.2,5.6,0.2,8.4,0.3c1,0,2,0,2.8-0.7c0.5,0,1.1,0,1.6-0.1
			c-1,1.2-2.5,1.2-3.8,1.2c-2.9,0-5.7-0.1-8.6-0.1C175.8,180.9,174.9,180.8,174.3,181.7z"/>
		<path class="st9" d="M142.5,158.7c0,1.2-0.7,1.5-1.7,1.3c-0.9-0.2-1.8-0.6-2.7-0.9c0.4-1.2,1.1-2.2,2.2-2.9
			C141.1,157,142.2,157.5,142.5,158.7z"/>
		<path class="st4" d="M163.7,122.9c0.4-0.6,0.8-1.3,1.2-1.9c1.5,0,3,0,4.6,0c0,0.9-0.6,1.3-1.4,1.4c-0.8,0.1-1.6,0.1-2.2,0.9
			c-0.6-0.2-1.3-0.4-2-0.2C163.8,123,163.7,122.9,163.7,122.9z"/>
		<path class="st5" d="M94.8,196.1c1,2,2.5,0.5,3.8,0.4c-0.8,1.5-1.4,3.4-3.8,2.2C94.8,197.9,94.8,197,94.8,196.1z"/>
		<path class="st5" d="M157,104.1c-0.6-0.3-0.7-0.7-0.7-1.3c0.3-0.5,0.7-1.1,1-1.6c0.6,0,1.1,0,1.7,0
			C158.9,102.5,157.7,103.1,157,104.1C157.1,104.1,157,104.1,157,104.1z"/>
		<path class="st9" d="M111.5,144.1c-0.1,1.2-0.6,2.1-2,2.1c-0.9-0.8,0.1-1.2,0.4-1.8C110.5,144.3,111,144.2,111.5,144.1z"/>
		<path class="st10" d="M101,160c-1,0.7-0.6,2.1-1.3,2.9c0,0-0.1,0-0.2,0c-0.1,0-0.1-0.1-0.1-0.2c0-1.2,0.3-2.2,0.9-3.2
			C100.6,159.6,101,159.6,101,160z"/>
		<path class="st3" d="M160.4,127.6c0.1-1.4-0.3-3,0.8-4.2c0,1.4,0,2.8-0.1,4.2C160.9,127.6,160.7,127.6,160.4,127.6z"/>
		<path class="st5" d="M151.3,167.9c0.5,0.1,0.7,0.4,0.8,0.8c0,0-0.1,0.1-0.1,0.1c-0.3-0.3-0.6-0.6-0.8-0.8L151.3,167.9z"/>
		<path class="st5" d="M150.9,167.5c0.1,0.1,0.3,0.3,0.4,0.4c0,0-0.1,0.1-0.1,0.1c-0.2-0.1-0.4-0.2-0.5-0.3
			C150.7,167.6,150.8,167.5,150.9,167.5z"/>
		<path class="st3" d="M161.3,123.4c0,0-0.2-0.1-0.2-0.1c0.2-0.1,0.4-0.2,0.6-0.3C161.7,123.3,161.6,123.5,161.3,123.4z"/>
		<path class="st5" d="M158.1,104.2C158.1,104.2,158.1,104.2,158.1,104.2C158.1,104.2,158.1,104.2,158.1,104.2z"/>
		<path class="st3" d="M157.4,101.2c-0.3,0.5-0.7,1.1-1,1.6c-0.8-1.3-1.3-3-3.4-2c-1.4,0.7-2.2,1.8-1.6,3.4c0.8,1.8,2.2,2.1,4,1.4
			c0.5,3.2-1.3,5.2-3.5,7c-1.2,1-2.5,1.8-3.7,2.6c-0.4,0.3-0.8,0.6-1.2,0.9c-0.1,0-0.3,0.1-0.4,0.1c-0.4,0.2-0.8,0.3-1.2,0.5
			c-0.2-0.7-0.7-1-1.4-1c-0.7-0.3-1.3-1.3-2.1-0.5c-0.6,0.6-0.6,1.5,0,2.2c0,0.6,0.1,1.1,0.1,1.7c-4,0.8-7.9,0.3-11.9-0.1
			c0.7-1.9,1.7-3.7,2.1-5.8c0.8-1.2,1.7-2.4,1.7-4c2.8-3.2,4.2-6.9,4.2-11.1c1.5,3.2,2.6,3.7,6.3,3.3c2.4,0.3,1.4-1.6,1.7-2.6
			c-0.2-3.2-2.7-4.7-5.4-3.3c-1,0.5-1.7,1.3-2.6,2c-0.2-0.5-0.4-0.9-0.6-1.4c1.4-0.7,2.2-2.2,3.7-2.9c2.4-0.1,4.5,1,6.5,2.3
			c-1.3-2.7-3.4-3.5-6.3-2.6c0.1-0.7,0.4-1.3,0.9-1.7c4.9-0.3,8.9,2.4,13.1,4.1c1.1,0.4,1.7,1.3,1.9,2.5c-1.3-0.7-2.6-0.9-4.3,0.3
			c1.8,0.5,3.5-0.1,4.6,1.3C157.6,100.1,157.5,100.6,157.4,101.2z M148.6,112.1c0.2-0.4,0.3-0.9,0.5-1.3c0.7-0.1,1.2-0.7,0.4-1
			c-1-0.4-2-1.2-3.2-0.9c-0.9,0.2-2.5-0.1-2.6,1.1c-0.2,1.3,1,2.1,2.1,2.5C146.8,112.8,148,113.9,148.6,112.1z"/>
		<path class="st11" d="M109.9,64.2c1.4,1,1.9,2.6,2.6,4.1c-0.2,0.5,0.3,0.9,0.4,1.3c-0.5,0.8-1.1,1.6-1.5,2.5
			c-1.4,3.2-2.1,3.4-5.1,1.4c-0.3-0.2-0.7-0.6-1.1-0.4c-0.6,0.3-0.3,0.8-0.2,1.3c0.7,3.4,2.2,6.3,5.1,8.4c0.7,0.5,1.7,0.9,0.1,1.5
			c-1.1,0.4-0.4,0.8,0,1.2c1,1.1,2.2,2,3.1,3.1c0.8,0.9,1.9,1.7,1.6,3.2c-2.3-0.5-4-2.4-6.5-2.6c-0.6-0.9-1.5-1.3-2.4-1.5
			c-2.2-1.4-3.6-3.5-4-5.9c-0.6-2.9-2.2-4.7-4.6-6.1c-1.8-1.1-3.7-2.2-4.8-4.5c2.3,0.8,4.7,1.6,7.1,2.5c0.3-1-0.5-1.3-1-1.6
			c-1.2-0.7-2.4-1.4-3.7-2c-0.8-0.4-0.7-0.4-1.3-1.7c-0.1-0.3-0.7-0.4-1.1-0.6c-1.8-0.7-3.3-1.6-4.5-3.2c2.8,0.8,5.6,1.3,8.8,1
			c-2.4-2.4-6.1-3.2-7.2-7.1c6.4,3.6,13.1,4.2,19.8,5.2c0,0,0-0.1,0-0.1C109.4,64.1,109.7,64.1,109.9,64.2z"/>
		<path class="st1" d="M115,91.9c0.2-1.5-0.9-2.3-1.6-3.2c-0.9-1.1-2.1-2.1-3.1-3.1c-0.4-0.4-1-0.8,0-1.2c1.6-0.6,0.6-1-0.1-1.5
			c-2.9-2.1-4.4-5-5.1-8.4c-0.1-0.5-0.3-1,0.2-1.3c0.4-0.2,0.8,0.2,1.1,0.4c3,2,3.7,1.8,5.1-1.4c0.4-0.9,1-1.7,1.5-2.5
			c0.2,0.4,0.4,0.7,0.6,1.1c1.9,3.8,2.4,8,3.1,12.1c-0.1,2.6,0.5,5.1,1.1,7.5c-0.5,0.2-0.9,0.4-0.3,1c2,1.9,3,4.4,4.5,6.6
			c-1,0.2-2,0.5-3.1,0.7c-0.4,0.1-0.9,0.1-1,0.6c0,0.5,0.4,0.7,0.8,0.9c0.9,0.4,1.9,0.7,3.2,1.2c-1.3,0.4-1.6,1.6-2.7,1.5
			c-3-3.2-6.8-5.5-9.5-9c-1.4-1.9-3.2-3.5-3.7-5.9c1,0.2,1.9,0.6,2.4,1.5c1.8,1.8,4.1,2.8,6.3,3.9c1,0.5,1.3,0.1,0.7-0.9
			C115.3,92.1,115.1,92,115,91.9L115,91.9z"/>
		<path class="st0" d="M119.2,102.8c1.2,0,1.5-1.2,2.7-1.5c-1.3-0.5-2.3-0.8-3.2-1.2c-0.4-0.2-0.8-0.4-0.8-0.9c0-0.5,0.5-0.5,1-0.6
			c1-0.2,2-0.4,3.1-0.7c1.6,2.1,3.4,3.8,6.1,4.2c-0.1,1-0.3,1.9-0.4,2.9c-0.5,3.9,2.5,6.8,6.3,4.4c0,1.6-0.9,2.7-1.7,4
			c-0.4-0.3-2,1.2-1.3-0.9c0.1-0.2,0-0.4-0.1-0.6c-1.5,0.9-1.7-1.8-3.2-1.2c-0.6,0.2-1.3,0.1-1.3-0.8c0-0.8-0.2-1.2-1.1-0.9
			c-0.3,0.1-0.9,0.1-0.8-0.3c0.5-3.1-1.2-1-2.1-1c-0.5,0-1,0.1-1.5,0.1c-1.1,0-1.6-0.2-0.6-1.2c0.3-0.3,0.7-0.6,0.3-1
			c-0.1-0.2-0.5-0.1-0.8-0.2c-0.6-0.1-1.3,0.8-1.7,0c-0.3-0.6,0.6-0.9,0.8-1.4C119.1,103.6,119.1,103.2,119.2,102.8z"/>
		<path class="st9" d="M145.4,116.9c0.4-0.2,0.8-0.3,1.2-0.5c-0.6,1.7-1.6,3.3-1.9,5.1c-2.4,0.6-4.9,0.4-7.3,0.1
			c-3.5-0.3-7.1-0.1-10.6-0.2c-1.7-1.1-0.5-3.1-1.2-4.5c-0.2-0.3,0.4-0.5,0.7-0.5c0.9,0,1.7,0.4,1.9,1.3c0.3,1,0.6,1.9,1.9,1.5
			c4,0.4,7.9,0.9,11.9,0.1C143.6,119.1,144.3,117.8,145.4,116.9z"/>
		<path class="st11" d="M108.3,58c1.2,1.6,1.4,3.4,1.3,5.2c-2.2-1.2-4.5-2.2-6.3-4.1c-0.4-0.4-1-1-0.7-1.6c0.3-0.5,1-0.2,1.6-0.2
			C105.5,57.6,106.9,57.8,108.3,58z"/>
		<path class="st9" d="M103.9,128.1c-0.5,1.1-1.5,1.1-2.5,1.3c-1.9,0.2-3.5,0.9-4.6,2.5c0.2-0.8-0.7-1.7,0-2.5
			c0.8-1.2,1-3.2,3.2-2.2c0.1,0.4,0.2,0.7,0.3,1.1c0.4-0.4,0.8-0.7,1.2-1.1C102.9,126.5,103.7,126.6,103.9,128.1z"/>
		<path class="st9" d="M125.3,121.7c-1.2,0.3-2.3,0.8-3.5,0c0-1,0-2.1,0-3.1c-0.1-1.8,0.8-2.4,2.5-2
			C123.3,118.6,124.1,120.1,125.3,121.7z"/>
		<path class="st3" d="M96.9,129.4c-0.7,0.8,0.2,1.6,0,2.5c0,0,0,0,0,0c-0.2,0.3-0.3,0.6-0.5,0.9c0,0,0,0,0,0
			c-0.4,0.2-1,0.8-1.1-0.2c-0.1-0.7,0-1.5,0-2.2C95.7,129.6,96.1,129.1,96.9,129.4z"/>
		<path class="st6" d="M101.7,127.2c-0.4,0.4-0.8,0.7-1.2,1.1c-0.1-0.4-0.2-0.7-0.3-1.1c0.1-0.6,0.1-1.3,1-1.2
			C101.9,126,101.9,126.6,101.7,127.2z"/>
		<path class="st13" d="M116.6,82.7c-0.6-4.1-1.1-8.3-3.1-12.1c-0.2-0.4-0.4-0.7-0.6-1.1c-0.1-0.4-0.6-0.8-0.4-1.3
			c1.3,0.4,2.6,1,4,1c2,0.6,4,0.1,6.1,0.6c-2.5-2-4.6-4.3-6-7c-0.6-1.1-2-2.3-1.1-3.3c0.9-1,2.5,0,3.7,0.5c1.3,0.6,2.6,1.4,4.2,2.3
			c-0.3-1.8-1.3-2.8-2-3.8c-0.4-0.7-1.3-1.2-0.9-2.2c0.4,0,0.7-0.1,1.1-0.1c2,0.7,4.2,0.7,6.1,1.9c1.2,0.7,2.1,1.9,3.6,2.7
			c-0.6-2-0.7-3.8-0.5-5.6c0.1-1,0.2-2.3,1-2.6c1.1-0.3,0.8,1.3,1.5,1.9c0.2,1.4,1.4,2.3,1.8,3.5c0,0.3,0.2,0.5,0.5,0.6
			c0,0-0.1-0.1-0.1-0.1c0.2,0.2,0.3,0.3,0.5,0.5c0,0,0-0.1,0-0.1c-0.1,0.8-0.7,1.4-1.2,1.9c-2,1.7-3.7,3.7-5.6,5.5
			c-3.2,3.1-6.4,6.1-9.6,9.2C117.6,77.6,116.1,79.7,116.6,82.7z"/>
		<path class="st12" d="M133.4,54.4c-0.7-0.5-0.4-2.2-1.5-1.9c-0.9,0.2-0.9,1.6-1,2.6c-0.2,1.8,0,3.6,0.5,5.6
			c-1.4-0.8-2.4-2-3.6-2.7c-1.9-1.2-4.1-1.2-6.1-1.9c-0.3-2.1-0.6-4.1-1-6.2c-0.1-0.5-0.5-1,0.1-1.3c0.5-0.3,0.9,0.2,1.3,0.5
			c1.8,1.7,3.6,3.2,5.7,4.5c0.5,0.3,0.9,0.9,1.5,0.5c0.7-0.4,0.5-1.2,0.4-1.7c-0.9-4-0.5-8.4-2.7-12.1c-0.1-0.2-0.2-0.6-0.1-0.8
			c0.3-0.5,0.7-0.1,1.1,0c2.5,1.1,4.4,2.9,5.8,5.3c0.6,0.9,0.7,2.1,1.8,2.8C134.8,50,134.1,52.2,133.4,54.4z"/>
		<path class="st12" d="M120.6,56.2c-0.4,1,0.5,1.5,0.9,2.2c0.7,1.1,1.7,2,2,3.8c-1.6-0.9-2.9-1.7-4.2-2.3c-1.2-0.5-2.8-1.5-3.7-0.5
			c-0.9,1,0.6,2.2,1.1,3.3c1.4,2.8,3.5,5,6,7c-2.1-0.6-4.1-0.1-6.1-0.6c0.4-0.1,0.9-0.3,0.5-0.8c-3.8-4.4-3.5-10.1-4.7-15.4
			c-0.1-0.4-0.3-0.8-0.3-1.2c-0.1-0.6-0.8-1.2-0.2-1.7c0.7-0.6,1.5-0.2,2.2,0.2c1.5,1,2.8,2.4,3.9,3.8C118.7,55,119.3,56,120.6,56.2
			z"/>
		<path class="st12" d="M158.1,42.6c-0.1-0.3-0.1-0.7-0.3-1c-0.4-0.6-0.6-1.6-1.4-1.7c-0.7,0-0.9,0.9-1.2,1.5
			c-1.3,2.3-3.7,3.2-5.8,4.3c-2.9,1.5-5.6,3.4-7.8,5.8c0-1.2-0.1-2.5,0.3-3.7c0.6-1.8,1.6-2.9,3.5-3.5c4-1.3,7.1-3.7,9.5-7.1
			c0.5-0.7,0.9-1.4,1-2.3c0-0.5,0-1.1,0.6-1.2c0.6,0,0.9,0.6,1.1,1.1C158.3,37.4,158.7,40,158.1,42.6z"/>
		<path class="st12" d="M159.6,50.3c-1.8,1.4-4.2,1.6-6.2,2.8c1.1-2.1,2-4.2,3.7-5.8C156.9,49.1,157.2,50.6,159.6,50.3z"/>
		<path class="st12" d="M167.1,48.3c-1.7,0.8-3.6,1.3-5.5,1.4c1.9-2.3,4.7-2.9,7.5-4.3C168.6,46.8,167.4,47.2,167.1,48.3z"/>
		<path class="st14" d="M145.7,24.6c0.1,0.2,0.2,0.3,0.3,0.5c0,0-0.1,0.1-0.2,0.1C145.8,25,145.7,24.8,145.7,24.6
			C145.7,24.6,145.7,24.6,145.7,24.6z"/>
		<path class="st4" d="M109.9,64.2c-0.2-0.1-0.5-0.1-0.4-0.5C109.6,63.8,109.8,64,109.9,64.2z"/>
		<path class="st14" d="M132.2,27.1c0.1,0.1,0.1,0.1,0.2,0.2C132.4,27.2,132.3,27.2,132.2,27.1C132.2,27.1,132.2,27.1,132.2,27.1z"
			/>
		<path class="st14" d="M132.2,27.1c-0.1-0.1-0.1-0.1-0.2-0.2C132.1,27,132.2,27,132.2,27.1C132.2,27.1,132.2,27.1,132.2,27.1z"/>
		<path class="st14" d="M141.5,26.3c0.1,0,0.1,0.1,0.2,0.1C141.6,26.3,141.6,26.3,141.5,26.3L141.5,26.3z"/>
		<path class="st14" d="M141.5,26.2c-0.2-0.1-0.3-0.3-0.5-0.4c0,0,0,0,0-0.1C141.2,26,141.4,26.1,141.5,26.2
			C141.5,26.3,141.5,26.2,141.5,26.2z"/>
		<path class="st7" d="M116.6,82.7c-0.5-3.1,1-5.2,3.1-7.3c3.1-3.1,6.4-6.1,9.6-9.2c1.9-1.8,3.6-3.8,5.6-5.5c0.6-0.5,1.2-1,1.2-1.9
			c3.8,3.2,7.4,6.6,9.7,11.1c0.2,0.7,0.5,1.4,0.7,2.1c-2.3,2.9-4.5,5.8-6.5,9c-1-0.6-1.6-1.5-2.2-2.5c-0.8-1.4-1.8-2.7-3-3.8
			c-0.7-0.6-1.4-1-2.3-0.5c-0.8,0.4-1.2,1-1.1,2c0,0.7,0.5,1.7-0.6,2c-1.7,0.5-1.6,1.9-1.6,3.2c0,0.8,0.4,1.7-0.1,2.3
			c-1.4,1.6-0.9,3.2-0.4,4.9c-0.5-0.1-1-0.2-1.4-0.2c-1.2,0-2.3-1.8-3-0.9c-0.5,0.6,1.1,1.9,1.5,3c0,0.1-0.1,0.2-0.1,0.4
			c-1.1-0.1-1.9-0.7-2.8-1.2c-0.4-0.2-0.8-0.7-1.3-0.3c-0.5,0.5-0.1,1.1,0.1,1.5c0.2,0.4,0.5,0.8,0.8,1.2c0.3,0.6,0.1,1.1-0.6,0.8
			c-1.5-0.7-3.2-1.1-4.1-2.6C117.2,87.8,116.5,85.3,116.6,82.7z"/>
		<path class="st6" d="M140.1,81.1c1.9-3.2,4.2-6.1,6.5-9c1.2-0.9,2.3-1.9,3.5-2.8c0.8-0.5,1.6-1,2.5-1.6c3.3-1.6,6.7-3,10.5-2.4
			c0.4,0.2,0.8,0.3,1.2,0.5c0.7,0.8,1.4,1.5,2.1,2.3c0.3,0.9,0.5,1.8,0.8,2.7c0,1.3,0.1,2.6,0.1,3.9c-0.1,1.2-0.2,2.4-0.4,3.7
			c-0.6,3-1.6,6-1.7,9.1c-0.9,1.6-1.4,3.3-1.8,5.1c-0.7,1-1.3,2.1-1.2,3.3c0.2,2.5-1.1,4-3,5.4c-0.6,0-1.1,0-1.7,0
			c0.1-0.6,0.2-1.1,0.3-1.7c0.3-0.6,0-1.1-0.3-1.5c-0.2-1.2-0.8-2.1-1.9-2.5c-4.3-1.7-8.2-4.4-13.1-4.1c0.5-1.6,0.4-3.3,0.5-4.9
			c1.1,0.3,1.9,0.2,1.9-1.2c0-0.6,0-1.3,0.2-1.8c0.2-0.6,0.1-1.9,1.4-1.2c-1.2,1.5-0.7,3,0.1,4.4c0.4,0.8,0.7,1.9,1.9,1.5
			c1-0.3,1.1-1.3,1.2-2.2c0.3-1.4-1.2-2.3-1-3.7c1.4-0.5,2.7,0,3.8,1c0.4-2.1,0.1-4-0.2-5.8c-0.3-1.4,0-2.3,1.5-3
			c1.7-0.8,3.4-1.1,5.1-1.8c0.7-0.3,1.2,0,1.7,0.5c1.9,1.7,2.2,6.7,0.8,9c-0.9,1.4-2.6,2-3.4,3.7c1.2,0.1,2.4,0,2.7,1.4
			c0,0.2,0.3,0.5,0.6,0.5c1.2,0.1,2.5-2.3,1.9-3.4c-0.6-1.1-0.8-1.9,0.6-2.5c1.5-0.6,1.2-1.6,0.5-2.6c-0.6-0.9-1-1.6,0.5-2.2
			c1-0.4,1.2-2.6,0.3-2.8c-1.8-0.4-1.3-1.5-1-2.6c0.2-0.6,0.4-1.3-0.1-1.8c-0.8-0.8-1,0.2-1.5,0.5c-1,0.5-1.7,0.5-2-0.8
			c-0.1-0.5,0.4-1.4-0.7-1.4c-1,0-1,0.7-1.1,1.4c0,0.4-0.3,0.8-0.8,0.8c-0.5,0-0.7-0.2-0.9-0.6c-0.2-0.5,0.1-1.6-1.2-1.2
			c-1,0.3-1.7,0.6-1.5,1.8c0.2,1.5-0.9,1.9-2,1.6c-1.7-0.5-2.1,0.3-2.2,1.8c-0.1,1.4-0.8,2.3-2.4,2.2c-1.2-0.1-2,0.4-1.5,1.9
			c0.5,1.7-0.4,2.8-2.2,2.8c-1.2,0-1.7,0.9-1.2,1.8c0.4,0.9,0.5,1.7-0.1,2.5C141.7,83.7,140.9,82.4,140.1,81.1z M161.6,78.6
			c-0.1-1-0.3-2.3-0.8-3.5c-0.4-1-1.1-1.7-2.4-1.6c-4.1,0.4-5.9,2.8-5.1,6.7c0.2,1.1,0.5,2.2,0.9,3.2c0.2,0.7,0.6,1.2,1.5,1.2
			C157.7,84.7,161.6,81,161.6,78.6z M160.9,90.5c-0.3-1.1-0.9-2.3-2-3.2c-0.3-0.3-0.9-0.1-1.1,0.3c-0.8,1.2-0.3,2.4,0.1,3.6
			c0.1,0.1,0.1,0.3,0.2,0.4c0.4,0.7,0.8,1.4,1.7,1.1C160.6,92.3,160.9,91.5,160.9,90.5z"/>
		<path class="st8" d="M162.9,65.3c-3.8-0.6-7.2,0.8-10.5,2.4c0-2.3,0.7-4.2,2.8-5.4c2-1.2,3.9-2.6,6.2-3.3c-1,1-1.9,2-2.9,3
			c-0.6,0.6-1.3,1.3-1,2.2c0.4,0.9,1.5,0.5,2.3,0.4c1.3-0.2,2.6-0.6,3.9-0.9C163.6,64.4,162.8,64.6,162.9,65.3z"/>
		<path class="st8" d="M165,87.4c0.1-3.1,1.1-6.1,1.7-9.1c1.9,0.5,3.3-1,5-1.2l0,0c0,1.6-2.1,1.6-2.5,3.1c1.9-0.1,3.8-0.1,5.6-0.3
			c-0.7,1.1-1.8,1.2-2.8,1.4c-1.4,0.2-2.7,0.6-3.9,1.3c-1.4,0.7-2.4,1.7-1.4,3.5C166.2,86.5,165.6,87,165,87.4z"/>
		<path class="st12" d="M193.2,64.6c0.5,0.9,1,1.8,1.4,2.7c-3.8,1.4-7.6,2.9-11.4,4.3C186.3,68.9,189.1,65.8,193.2,64.6z"/>
		<path class="st8" d="M167.1,74.7c0-1.3-0.1-2.6-0.1-3.9c1.5,0.2,2.7-0.4,4-1c2.1-1,4.1-2.1,6.3-2.7l0,0c-1.1,2.4-3.3,3.7-5.4,5
			C170.3,73,168.5,73.5,167.1,74.7z"/>
		<path class="st12" d="M179.7,50.3c0.2,1-0.3,1.7-0.9,2.4c-0.3,0.4-1.4,1.2,0,1.7c-3.2,0.7-6.3,1.6-9.4,2.4
			C172.3,53.7,176,52.1,179.7,50.3z"/>
		<path class="st8" d="M150,69.3c-1.2,0.9-2.3,1.9-3.5,2.8c-0.2-0.7-0.5-1.4-0.7-2.1c1.9-1.1,1.7-3.4,2.8-5c0.5-0.8,0.8-1.9,1.4-2.8
			C149.9,64.6,149.7,67,150,69.3z"/>
		<path class="st8" d="M166.2,68.1c-0.7-0.8-1.4-1.5-2.1-2.3c2.4-0.2,4.2-1.8,6.3-2.7c1.8-0.8,3.6-1.3,5.6-0.8
			c-2.6,1.2-5.4,2.2-7.9,3.5C167.2,66.4,166.3,66.8,166.2,68.1z"/>
		<path class="st14" d="M201.6,59.4c-1.1,1.7-3.4,1.6-4.6,3.1c-1,0-2-0.1-3-0.1c0-0.2,0-0.3-0.1-0.5c2.1-0.6,4.2-1.3,6.2-2.3
			C200.5,59.4,201.1,59,201.6,59.4z"/>
		<path class="st0" d="M193.9,62c0,0.2,0.1,0.3,0.1,0.5c-0.5,0.4-1.1,0.5-1.2-0.1C192.7,61.9,193.5,62,193.9,62z"/>
		<path class="st8" d="M162.3,58.4c0-0.1-0.1-0.2,0-0.2c0,0,0.1,0,0.1,0C162.3,58.2,162.3,58.3,162.3,58.4z"/>
		<path class="st8" d="M171.8,77.2c0.1-0.1,0.3-0.2,0.4-0.3C172.3,77.3,171.9,77,171.8,77.2C171.8,77.1,171.8,77.2,171.8,77.2z"/>
		<path class="st8" d="M177.2,67.1c0-0.1,0.1-0.1,0.1-0.2C177.3,66.9,177.3,67,177.2,67.1C177.2,67.1,177.2,67.1,177.2,67.1z"/>
		<path class="st7" d="M136.1,59c-0.2-0.2-0.3-0.3-0.5-0.5C135.9,58.6,136.1,58.7,136.1,59z"/>
		<path class="st7" d="M135.7,58.6c-0.3-0.1-0.5-0.3-0.5-0.6C135.5,58.1,135.7,58.3,135.7,58.6z"/>
		<path class="st8" d="M124.7,199.9c0.3,0.9,1.3,1.1,2,1.6c2.5,1.2,4.9,2.4,7.4,3.6c0.3,0.2,0.6,0.5,0.9,0.7
			c0.1,0.3,0.3,0.6,0.7,0.4c0,0,0,0,0,0c-0.1,0.9,0.8,1.2,1.1,1.9c-1.3,0.1-2.1,0.9-2.6,2c-0.4,0.9-0.9,1.9-1.3,2.8
			c-4.2-2.5-8.2-5.2-11.5-8.9c0.1-1.8,0.1-3.6,0.2-5.4c0.8,0.3,1.7,0.7,2.5,1C124.2,199.8,124.4,199.9,124.7,199.9L124.7,199.9z"/>
		<path class="st5" d="M124.6,169.7c2.8-0.3,4.9-1.9,7-3.5c0.3,0.6,2.3,0.9,0.8,1.8c-3,1.7-5.5,4-8.4,5.7c-2.3,1.9-4.8,3.2-8,2.9
			c-3-0.3-4.3-1.8-3.4-4.8c0.2-0.5,0.3-1.1,0.5-1.6c0.4-1,0.8-2,1.2-3c1.5,0.5,3,1,4.5,1.5c0.6,0.8,1.2,1.6,1.8,2.3
			c0.8,1,1.6,2.4,3.2,1.9C125.2,172.3,124.5,170.8,124.6,169.7z"/>
		<path class="st11" d="M114.8,186.5c1.1-0.8,1.2-2.1,1.5-3.3c0.6-2,1.6-3,3.9-2.7c1.9,0.3,3.8,0.3,5.6,0.8c1.9,0.5,2.8,1.7,2.6,3.7
			c-0.3,2.2-0.4,4.5-1.4,6.5c-0.9,1.8-2.2,2.5-4.1,1.9c-2.3-0.7-4.5-1.5-6.9-2.3c0,1.8,0.7,3.4,1,5c-1.5-2.1-1.5-4.6-2-7
			C114.8,188.3,114.5,187.4,114.8,186.5z M120.6,182.4c-2-0.1-4.8,4.5-3.9,6.1c0.1,0.3,0.5,0.5,0.8,0.6c1.8,0.9,3.7,1.6,5.7,2.1
			c0.8,0.2,1.4,0.1,2-0.7c2.6-4.2,1.3-7.2-3.5-8C121.3,182.5,120.9,182.4,120.6,182.4z"/>
		<path class="st1" d="M132.7,213c0.5-0.9,0.9-1.8,1.3-2.8c0.5-1.2,1.3-1.9,2.6-2c3,2.3,5.1,5.4,7.5,8.3c0.7,1.6,2.9,2.2,2.7,4.3
			c-1.1-0.3-1.9-1.2-3.1-1.1c-3.2-1.8-6.3-3.6-9.5-5.4C133.7,213.9,133,213.7,132.7,213z"/>
		<path class="st9" d="M124,173.6c2.9-1.8,5.4-4.1,8.4-5.7c1.5-0.8-0.5-1.2-0.8-1.8c1-1.1,2-2.1,3-3.2c0.4,1.2-0.7,2.9,0.3,3.5
			c0.8,0.5,2.3-0.4,3.6-0.6c-0.4,0.9-0.5,1.7,0.1,2.6c-4.1,1.7-8.1,3.8-12,5.9C125.8,173.8,124.8,173.9,124,173.6z"/>
		<path class="st9" d="M114.3,167.2c-0.4,1-0.8,2-1.2,3c-3.6-2.4-7.2-4.9-10.8-7.3c-0.2-0.5-0.6-0.9-1.2-0.8c0-0.6,0.1-1.2,0.1-1.8
			C105.4,162.9,110,164.8,114.3,167.2z"/>
		<path class="st10" d="M121.4,198.8c-0.1,1.8-0.1,3.6-0.2,5.4c-2.5-2.1-3.8-4.7-4-7.9C118.8,196.7,120.1,197.8,121.4,198.8z"/>
		<path class="st15" d="M101.1,162c0.6,0,1,0.3,1.2,0.8c-1.2,2.1-0.6,4.6-1.6,6.8C100.6,167.1,100.5,164.5,101.1,162z"/>
		<path class="st15" d="M144,225.2c1,0.6,2,1.2,3,1.8c0,0.1-0.1,0.2-0.1,0.3c-1.4-0.5-2.8-1.1-4.1-1.6
			C143.2,225.5,143.7,225.8,144,225.2z"/>
		<path class="st10" d="M113,220.4c-0.1-0.5-0.1-1-0.2-1.4c0.8,0.2,1.1,0.8,0.9,1.6C113.5,220.5,113.2,220.5,113,220.4z"/>
		<path class="st15" d="M142.8,225.6c-0.3,0-0.6,0-0.8-0.1C142.2,225.2,142.5,225.2,142.8,225.6z"/>
		<path class="st10" d="M144.2,216.5c-2.4-2.9-4.5-6-7.5-8.3c-0.3-0.7-1.1-1-1.1-1.9c1.8-0.2,3.2,1,4.9,1.2c2.7,0.8,5.3,1.9,8.2,1.7
			c5.3,0.4,10.5,0.1,15.3-2.4c0.2-0.1,0.5-0.1,0.8-0.1c0.5,2.1,1,4.1,1.5,6.2c0,0.3-0.1,0.6-0.1,0.8c-3.9-1.1-7.5,0.5-11.3,1
			c-3.2,0.4-6.4,1.1-9.7,1.2C144.9,216,144.5,216.3,144.2,216.5z"/>
		<path class="st9" d="M133.5,123.1c0,1,0,1.9,0,2.9c-1.9,0.4-3.7-0.2-5.5-0.3c-0.3-0.8,0-1.2,0.8-1.3c0.3-0.1,0.8,0.1,1-0.2
			c1.6-3.2,1.8-0.7,2.3,0.6C133,124.6,132.8,123.5,133.5,123.1z"/>
		<path class="st5" d="M148.7,209.2c-2.9,0.3-5.5-0.9-8.2-1.7c2.2-1.3,4.5-2.5,6.7-3.8C146,206,148.1,207.4,148.7,209.2z"/>
		<path class="st3" d="M178.9,184c-0.9-0.2-2.2-0.1-2.4-1.4c-0.2-1.1,1-1.1,1.8-1.1c1.1,0,2,0.2,2.2,1.4
			C180.6,183.8,179.8,184,178.9,184z"/>
		<path class="st3" d="M169.4,187.7c0.9,0.2,2.1-0.1,2.4,1.2c0.2,1-0.9,1.2-1.6,1.2c-1,0-2-0.5-2.2-1.5
			C167.9,187.6,168.8,187.8,169.4,187.7z"/>
		<path class="st3" d="M160.9,196.1c1.1-0.1,1.9,0.1,2,1.4c0,0.7-0.4,1.1-1,1c-1-0.2-2.2-0.5-2.3-1.7
			C159.5,196,160.5,196.2,160.9,196.1z"/>
		<path class="st3" d="M152.7,205.2c0.7,0.3,1.9-0.2,1.8,1.1c-0.1,0.9-0.9,0.9-1.6,0.9c-0.8,0-1.6-0.2-1.7-1.1
			C151.1,205.1,152,205.3,152.7,205.2z"/>
		<path class="st12" d="M175.5,183.4c-0.5-0.1-0.7-0.4-0.7-0.9C175.2,182.6,175.5,182.9,175.5,183.4z"/>
		<polygon class="st12" points="174.5,182.2 174.4,182.2 174.4,182 174.5,182 		"/>
		<path class="st11" d="M133.8,173.1c5.4,0.1,8.2,1.6,8,4.4c-0.2,4.3-2.2,7.9-4.4,7.7c-3.1-0.3-7.9-3-7.9-4.8
			C129.6,176.9,131.9,173,133.8,173.1z M134.6,174.8c-1.4-0.1-3.4,2.4-3.6,4.5c-0.1,1,4,3.6,6.1,3.8c1.1,0.1,2.6-2.5,2.7-4.9
			C140,176.5,137.6,175,134.6,174.8z"/>
		<path class="st11" d="M150.6,167.7c0.2,0.1,0.4,0.2,0.5,0.3c0.3,0.3,0.6,0.6,0.8,0.8c0.1,2.5,0.1,4.9-1.1,7.1
			c-0.3,0.6-0.6,1.1-1.2,1.4c-1.8,0.9-6.9-2.3-6.9-4.2c0-2.1,1-3.9,1.8-5.8c0.4-0.9,1.3-0.7,2-0.6
			C147.9,167,149.3,167.4,150.6,167.7z M145,173.8c0.4,0.3,0.9,0.5,1.3,0.8c2.7,1.6,3.3,1.4,4-1.7c0.6-2.7-0.7-4.4-3.6-4.4
			c-2,0-1.9,1.8-2.5,2.9C143.7,172.2,143.6,173.3,145,173.8z"/>
		<path class="st1" d="M124.7,199.9c-0.3-0.1-0.5-0.1-0.8-0.2C124.2,199.6,124.5,199.6,124.7,199.9z"/>
		<path class="st2" d="M125.5,156.9c0.5,0.3,0.4,0.9,0.6,1.3c0.9,1.7,1.2,3.4-0.2,4.8c-1.5,1.6-3.6,1.3-5.5,0.9
			c-0.7-0.1-1.2-0.7-1.5-1.4c-0.9-2.3-1.3-4.7-0.4-7.1c0.4-1.2,1.2-2.3,2.7-2.1c1.1,0.1,2.7-0.6,3.1,1.3c-0.6,0-1.2-0.9-2.1-0.1
			c1.5,1.8,2.1,4.1,3.4,6.4C126.2,159.2,125.1,158.1,125.5,156.9z"/>
		<path class="st2" d="M109.6,155.8c0.1-1,0.1-2.2,1.6-2.4c1.3-0.2,2.8,1.5,2.7,3.2c-0.1,1.2-0.2,2.6-1.8,2.9
			C111.2,159.7,109.6,157.4,109.6,155.8z"/>
		<path class="st9" d="M124.6,169.7c-0.2,1.1,0.5,2.6-0.9,3.2c-1.6,0.6-2.3-0.8-3.2-1.9c-0.6-0.8-1.2-1.6-1.8-2.3
			C120.8,169,122.7,169.3,124.6,169.7z"/>
		<path class="st2" d="M128.6,156.6c0.1-1,0.3-2,1.3-1.9c1.3,0.2,2.2,1.1,2.1,2.6c0,1-0.3,2.4-1.3,2.3
			C129.1,159.5,129,157.8,128.6,156.6z"/>
		<path class="st2" d="M106.6,154.3c0.2,1.7-0.6,2.6-1.8,2.6c-1.2,0-1.3-1.4-1.4-2.2c-0.2-1.5,1-2,2.1-2.1
			C106.8,152.5,106.1,154,106.6,154.3z"/>
		<path class="st0" d="M125.5,156.9c-0.4,1.2,0.7,2.3,0.1,4c-1.3-2.4-2-4.7-3.4-6.4c0.9-0.8,1.4,0.1,2.1,0.1c0,0,0,0,0,0
			c-0.1,0.3,0.1,0.4,0.3,0.5C124.8,155.6,125.2,156.3,125.5,156.9z"/>
		<path class="st2" d="M137.5,155.3c-0.1,0.7-0.4,1.6-1.2,1.4c-0.9-0.2-1.7-1-1.8-2.1c0-0.8,0.6-1.7,1.3-1.6
			C136.7,153.3,137.2,154.2,137.5,155.3z"/>
		<path class="st2" d="M124.5,155c-0.2-0.1-0.4-0.2-0.3-0.5C124.3,154.7,124.4,154.8,124.5,155z"/>
		<path class="st14" d="M195.4,94.5c-0.1,0.2-0.2,0.4-0.3,0.5c-0.1,0-0.2-0.1-0.1-0.1c0.1-0.2,0.2-0.3,0.3-0.5
			C195.3,94.4,195.4,94.5,195.4,94.5z"/>
		<path class="st14" d="M197,96.1c-0.1,0.1-0.1,0.1-0.2,0.2C196.9,96.2,196.9,96.1,197,96.1C197,96.1,197,96.1,197,96.1z"/>
		<path class="st4" d="M144.7,121.5c0.3-1.8,1.3-3.4,1.9-5.1c0.1,0,0.3-0.1,0.4-0.1c0.5,0.5,1,1,1.7,1.6c-1.5,0.6-3.3,1.2-0.7,2.9
			c-0.9,0.1-1.4,0.2-2,0.3c-0.2,0.8,0.7,1.1,0.7,1.8c-0.7,0.4-1.2-0.2-1.8-0.3C144.8,122.2,144.7,121.8,144.7,121.5z"/>
		<path class="st4" d="M141.5,122.6c0,0.1-0.1,0.3-0.1,0.4c-0.4,0.8-0.3,2.3-1.4,2.2c-1,0-1.3-1.3-1.6-2.2
			C139.4,122.8,140.4,122.4,141.5,122.6z"/>
		<path class="st4" d="M136.9,123c0,0.1,0,0.1,0,0.2c-0.4,0.7-0.6,1.9-1.5,1.8c-0.9-0.1-1-1.2-1.2-2C135.1,123,136,123,136.9,123z"
			/>
		<path class="st4" d="M144.5,122.6c0.2,0.6,0.3,1.2,0.5,2c-1.4-0.1-2-1.2-2.8-2C143,121.9,143.8,121.9,144.5,122.6z"/>
		<path class="st9" d="M96.5,132.7c0.2-0.3,0.3-0.6,0.5-0.9C96.8,132.1,96.6,132.4,96.5,132.7z"/>
		<path class="st14" d="M144.4,196.5c-0.9-0.5-2.5,0.3-2.7-1.3c-0.1-1,0.6-1.6,1.7-1.6c1.2,0,2.3,0.5,2.4,1.7
			C146,196.1,145.2,196.4,144.4,196.5z"/>
		<path class="st14" d="M148,191.9c-0.8-0.1-1.8,0.1-1.9-1.1c0-1.2,1-1.4,1.9-1.4c0.9,0,1.8,0.1,1.8,1.2
			C149.9,191.9,148.9,191.9,148,191.9z"/>
		<path class="st14" d="M151.9,186.3c-0.1,0.8-0.6,1.1-1.2,1c-1.2-0.2-1.9-1.1-2-2.3c0-0.7,0.3-1.2,1-0.9
			C150.8,184.5,151.5,185.3,151.9,186.3z"/>
		<path class="st14" d="M138,201.3c-0.3,0.7-0.6,1.3-1.4,1c-1-0.4-2.4-0.6-2.6-1.7c-0.2-0.8,0.9-0.6,1.5-0.5
			C136.4,200.2,137.6,200.1,138,201.3z"/>
		<path class="st14" d="M154.3,183.6c-0.8-0.1-2,0-2.2-1.1c-0.1-0.8,0.7-1,1.4-0.9c1,0.1,2.2,0.2,2.4,1.2
			C156.1,183.6,155,183.5,154.3,183.6z"/>
		<path class="st14" d="M140.4,199.5c-0.7-0.4-2.2-0.2-2.2-1.4c0.1-1.1,1.3-0.5,2.1-0.6c0.8-0.1,1.6,0.2,1.6,1.2
			C141.9,199.6,141.1,199.5,140.4,199.5z"/>
		<path class="st14" d="M159.8,181.5c-0.9-0.2-2.1,0-2.3-1.1c-0.1-0.7,0.7-0.7,1.2-0.6c0.9,0.1,2.2,0,2.3,1.2
			C161.2,181.7,160.3,181.3,159.8,181.5z"/>
		<path class="st4" d="M163.7,178.2c0.6,0,1.4-0.1,1.5,0.7c0.1,0.8-0.7,0.9-1.3,0.9c-0.7,0-1.6,0.1-1.6-0.8
			C162.3,178.1,163.2,178.2,163.7,178.2z"/>
		<path class="st10" d="M135.6,206.3c-0.4,0.1-0.6-0.2-0.7-0.4C135.2,205.8,135.5,205.9,135.6,206.3z"/>
		<path class="st4" d="M162.6,127.8c0-1.7-0.4-3.5,1.1-4.9c0.1,0.1,0.1,0.1,0.2,0.2c0,0.7-0.6,1.8,0.7,2c1.3,0.2,1.1-1,1.3-1.8
			c0.9,0.6,1.8,1.1,2.6,1.7c0.3,0.2,0.6,0.4,0.4,0.9c-0.2,0.4-0.6,0.3-0.9,0.3c-0.9-0.1-1.8-0.3-2.7-0.3c-1.3-0.1-1.5,0.5-0.6,1.4
			C164,127.3,163.3,127.6,162.6,127.8z"/>
		<path class="st6" d="M165.8,123.2c-0.2,0.8,0,2-1.3,1.8c-1.2-0.2-0.6-1.2-0.7-2C164.5,122.9,165.2,123.1,165.8,123.2
			C165.8,123.2,165.8,123.2,165.8,123.2z"/>
		<path class="st6" d="M162.6,127.8c0.7-0.2,1.4-0.4,2.1-0.6c0.1,0.1,0.3,0.2,0.4,0.3c-0.2,0.5-0.4,1-0.7,1.5
			c-0.3,0.1-0.6,0.3-0.9,0.4c-0.2-0.2-0.4-0.3-0.6-0.5C162.8,128.4,162.7,128.1,162.6,127.8z"/>
		<path class="st3" d="M164.4,128.9c0.2-0.5,0.4-1,0.7-1.5c0.9,0.1,1.7,0.4,2.7,1C166.5,129,165.4,128.8,164.4,128.9z"/>
		<path class="st14" d="M99.8,213.3c0,0.7-0.4,1-0.9,1c-0.7,0-0.9-0.5-0.9-1.1c0-0.6,0.3-0.9,0.9-0.9
			C99.5,212.3,99.7,212.8,99.8,213.3z"/>
		<path class="st14" d="M102.7,214.9c-0.6-0.2-0.7-0.7-0.7-1.3c0-0.4,0-0.9,0.6-0.8c0.6,0.1,0.9,0.6,0.9,1.2
			C103.3,214.4,103.3,214.8,102.7,214.9z"/>
		<path class="st4" d="M107,213.7c-0.1,0.6-0.3,1-0.8,0.8c-0.6-0.2-0.8-0.7-0.8-1.3c0-0.4,0.3-0.7,0.7-0.6
			C106.7,212.8,106.9,213.3,107,213.7z"/>
		<path class="st5" d="M98.6,196.6c-0.4-0.6-0.1-0.8,0.4-0.9C99.4,196.3,99,196.5,98.6,196.6z"/>
		<path class="st11" d="M140.1,81.1c0.8,1.3,1.6,2.6,2.4,4c0.1,0.5,0.2,0.9,0.4,1.4c-0.1,1.6,0,3.3-0.5,4.9c-0.5,0.5-0.8,1-0.9,1.7
			c-0.1,0.1-0.1,0.2-0.2,0.4c-1.5,0.6-2.3,2.1-3.7,2.9c-2.7-2.6-4.7-2.5-7,0.6c-0.4,0.5-0.8,1.1-1.2,1.7c-0.3-2.7-0.6-5.4-0.9-8.1
			c-0.2-0.7,1.3-0.9,0.4-1.7c-0.5-1.7-1-3.3,0.4-4.9c0.5-0.6,0.1-1.5,0.1-2.3c0-1.3-0.1-2.7,1.6-3.2c1-0.3,0.6-1.3,0.6-2
			c0-1,0.3-1.6,1.1-2c0.9-0.4,1.6-0.1,2.3,0.5c1.2,1.1,2.2,2.4,3,3.8C138.5,79.6,139.1,80.5,140.1,81.1z"/>
		<path class="st6" d="M129.4,98.5c0.4-0.6,0.8-1.1,1.2-1.7c2.2-3.1,4.2-3.2,7-0.6c0.2,0.5,0.4,0.9,0.6,1.4c0,0.2,0,0.4,0,0.6
			c0,4.2-1.4,8-4.2,11.1c-3.8,2.4-6.8-0.5-6.3-4.4c0.1-1,0.3-1.9,0.4-2.9c0.4-0.3,0.4-0.8,0.5-1.3
			C128.8,100.1,129.1,99.3,129.4,98.5z"/>
		<path class="st9" d="M138.1,98.3c0-0.2,0-0.4,0-0.6c0.9-0.7,1.7-1.5,2.6-2c2.7-1.5,5.3,0.1,5.4,3.3c-0.6-0.3-0.5-1.3-1.5-1.4
			c-0.4,0.7-0.1,1.8-0.8,2.3c-1.5,1.1-0.1,1.3,0.5,1.7C140.8,102,139.6,101.4,138.1,98.3z M144,97.6c0-0.7-0.4-1-1-1
			c-1-0.1-1.2,0.7-1.3,1.4c-0.1,0.6,0.5,0.7,1,0.7C143.4,98.6,143.9,98.4,144,97.6z"/>
		<path class="st2" d="M148.6,112.1c-0.7,1.8-1.8,0.7-2.8,0.4c-1.2-0.4-2.3-1.3-2.1-2.5c0.2-1.2,1.7-0.9,2.6-1.1
			c1.2-0.3,2.2,0.5,3.2,0.9c0.7,0.3,0.2,0.9-0.4,1c-1.2-1-2.6-1-4.1-0.8c-0.1,0-0.2,0.4-0.2,0.5
			C145.8,111.7,147.1,112.2,148.6,112.1z"/>
		<path class="st14" d="M144.4,101.6c-0.7-0.4-2-0.6-0.5-1.7c0.7-0.5,0.4-1.6,0.8-2.3c0.9,0,0.8,1.1,1.5,1.4
			C145.8,100,146.8,101.9,144.4,101.6z"/>
		<path class="st9" d="M141.2,93.5c0.1-0.1,0.1-0.2,0.2-0.4c2.9-0.9,4.9-0.1,6.3,2.6C145.7,94.4,143.6,93.4,141.2,93.5z"/>
		<path class="st14" d="M148.6,112.1c-1.5,0-2.8-0.5-3.8-1.6c-0.1-0.1,0.1-0.5,0.2-0.5c1.4-0.2,2.9-0.2,4.1,0.8
			C149,111.2,148.8,111.7,148.6,112.1z"/>
		<path class="st4" d="M145.4,116.9c-1,0.9-1.8,2.2-3.4,2.3c0-0.6-0.1-1.1-0.1-1.7c0.8-0.4,1.7-0.8,2.1-1.7
			C144.7,115.9,145.2,116.2,145.4,116.9z"/>
		<path class="st9" d="M157.4,98c0.4,0.4,0.6,0.9,0.3,1.5c-1.1-1.4-2.8-0.8-4.6-1.3C154.8,97.1,156.1,97.3,157.4,98z"/>
		<path class="st0" d="M144,115.8c-0.4,0.9-1.3,1.3-2.1,1.7c-0.6-0.7-0.6-1.6,0-2.2C142.7,114.5,143.3,115.5,144,115.8z"/>
		<path class="st0" d="M115.5,92.3c0.6,1,0.3,1.4-0.7,0.9c-2.2-1.1-4.5-2-6.3-3.9c2.5,0.1,4.2,2,6.5,2.6c0,0,0,0,0,0
			C115.1,92,115.3,92.1,115.5,92.3z"/>
		<path class="st5" d="M128.5,100.8c0,0.5-0.1,0.9-0.5,1.3c-2.7-0.5-4.5-2.1-6.1-4.2c-1.5-2.2-2.5-4.7-4.5-6.6
			c-0.6-0.6-0.2-0.8,0.3-1c0.9,1.6,2.6,1.9,4.1,2.6c0.7,0.3,0.9-0.2,0.6-0.8c-0.2-0.4-0.6-0.8-0.8-1.2c-0.2-0.5-0.6-1.1-0.1-1.5
			c0.5-0.4,0.9,0.1,1.3,0.3c0.9,0.5,1.7,1.2,2.8,1.2c0.1-0.2,0.2-0.3,0.1-0.4c-0.4-1.1-2.1-2.3-1.5-3c0.8-0.9,1.9,0.9,3,0.9
			c0.5,0,1,0.1,1.4,0.2c1,0.8-0.6,1.1-0.4,1.7c-0.7,1.3,0.2,4.3-3.6,2.5c1,1.2,1.6,1.8,2.2,2.5c-0.7,0.4-1.6,0.5-1.6,1.5l0,0
			c-1.3,0.4-1.9-1.3-3.2-1C123.5,98.9,126.2,101,128.5,100.8z"/>
		<path class="st11" d="M115.5,92.3c-0.2-0.1-0.3-0.3-0.5-0.4C115.1,92,115.3,92.1,115.5,92.3z"/>
		<path class="st5" d="M142.8,86.4c-0.1-0.5-0.2-0.9-0.4-1.4c0.7-0.8,0.6-1.6,0.1-2.5c-0.5-1,0-1.8,1.2-1.8c1.8,0,2.8-1.1,2.2-2.8
			c-0.5-1.5,0.4-2,1.5-1.9c1.7,0.1,2.3-0.8,2.4-2.2c0.1-1.5,0.5-2.2,2.2-1.8c1.1,0.3,2.2,0,2-1.6c-0.1-1.2,0.5-1.5,1.5-1.8
			c1.3-0.4,1,0.6,1.2,1.2c0.2,0.5,0.4,0.7,0.9,0.6c0.5,0,0.8-0.4,0.8-0.8c0.1-0.7,0.1-1.5,1.1-1.4c1.1,0,0.6,0.9,0.7,1.4
			c0.3,1.3,1,1.3,2,0.8c0.5-0.2,0.7-1.2,1.5-0.5c0.5,0.5,0.3,1.1,0.1,1.8c-0.3,1.1-0.8,2.2,1,2.6c0.9,0.2,0.7,2.4-0.3,2.8
			c-1.4,0.6-1.1,1.3-0.5,2.2c0.7,1,0.9,2-0.5,2.6c-1.4,0.6-1.3,1.4-0.6,2.5c0.7,1.2-0.7,3.6-1.9,3.4c-0.2,0-0.5-0.3-0.6-0.5
			c-0.3-1.4-1.4-1.3-2.7-1.4c0.8-1.6,2.5-2.3,3.4-3.7c1.4-2.2,1.1-7.2-0.8-9c-0.5-0.4-1-0.7-1.7-0.5c-1.7,0.6-3.5,0.9-5.1,1.8
			c-1.5,0.7-1.8,1.6-1.5,3c0.4,1.9,0.7,3.7,0.2,5.8c-1.1-1.1-2.4-1.5-3.8-1c-0.7,0-1.5,0-2.2-0.1c-1.4-0.6-1.2,0.6-1.4,1.2
			c-0.2,0.5-0.2,1.2-0.2,1.8C144.7,86.6,143.9,86.8,142.8,86.4z"/>
		<path class="st2" d="M161.6,78.6c0,2.3-3.9,6.1-5.9,6.1c-0.9,0-1.3-0.5-1.5-1.2c-0.3-1.1-0.6-2.1-0.9-3.2c-0.8-4,1-6.3,5.1-6.7
			c1.3-0.1,2,0.6,2.4,1.6C161.3,76.3,161.5,77.6,161.6,78.6z M160.8,80c0.4-1.9-0.2-3.5-1-5.1C159.2,76.7,159.6,78.4,160.8,80z"/>
		<path class="st2" d="M146.3,82.2c0.7,0,1.5,0,2.2,0.1c-0.2,1.4,1.3,2.2,1,3.7c-0.2,0.9-0.2,1.9-1.2,2.2c-1.2,0.3-1.5-0.8-1.9-1.5
			C145.6,85.2,145.2,83.7,146.3,82.2z"/>
		<path class="st2" d="M160.9,90.5c0,1.1-0.3,1.8-1.1,2.1c-1,0.4-1.4-0.4-1.7-1.1c-0.1-0.1-0.1-0.3-0.2-0.4
			c-0.5-1.2-0.9-2.4-0.1-3.6c0.3-0.4,0.8-0.5,1.1-0.3C160,88.2,160.6,89.4,160.9,90.5z"/>
		<path class="st5" d="M120.6,182.4c0.2,0,0.6,0.1,1.1,0.1c4.7,0.8,6,3.8,3.5,8c-0.5,0.8-1.1,0.9-2,0.7c-2-0.5-3.9-1.2-5.7-2.1
			c-0.3-0.2-0.6-0.3-0.8-0.6C115.9,186.9,118.6,182.3,120.6,182.4z M121.7,184.3c-1.9-0.1-2.8,0.9-2.9,3.1c-0.1,1.4,1.1,2.4,3.4,2.4
			c2.5,0,2.2-2.1,2.3-3.5C124.7,184.1,122.7,184.6,121.7,184.3z"/>
		<path class="st5" d="M134.6,174.8c3,0.2,5.3,1.7,5.2,3.4c-0.2,2.4-1.6,5-2.7,4.9c-2-0.2-6.2-2.8-6.1-3.8
			C131.2,177.2,133.2,174.7,134.6,174.8z M138.2,178.5c-0.1-2-1.6-1.9-2.9-2c-1.9-0.1-2.3,1.4-2.3,2.8c0,2,1.7,1.9,3,2
			C138.2,181.6,137.7,179.7,138.2,178.5z"/>
		<path class="st5" d="M145,173.8c-1.4-0.5-1.3-1.5-0.8-2.5c0.6-1.1,0.5-2.9,2.5-2.9c2.8,0,4.2,1.7,3.6,4.4c-0.7,3.1-1.3,3.4-4,1.7
			c0.1-0.1,0.2-0.2,0.3-0.4c0.8,0,1.8,0.5,2.2-0.5c0.4-0.9,0.8-2,0.3-3c-0.4-0.9-1.5-1-2.2-0.8c-1.9,0.5-1.6,2.2-1.6,3.6
			C145.2,173.5,145.1,173.6,145,173.8z"/>
		<path class="st5" d="M146.3,174.6c-0.4-0.3-0.9-0.5-1.3-0.8c0.1-0.1,0.2-0.3,0.3-0.4c0.4,0.3,0.8,0.5,1.3,0.8
			C146.5,174.3,146.4,174.4,146.3,174.6z"/>
		<path class="st1" d="M125.5,96.9c0-1,0.9-1.1,1.6-1.5c-0.6-0.7-1.2-1.3-2.2-2.5c3.8,1.8,2.8-1.2,3.6-2.5c0.3,2.7,0.6,5.4,0.9,8.1
			c-0.3,0.8-0.6,1.5-0.8,2.3c-2.3,0.2-5-1.9-6.2-4.9C123.6,95.6,124.2,97.3,125.5,96.9c0.1,0.1,0.1,0.2,0.2,0.2c0,0,0-0.1,0-0.1
			C125.6,96.9,125.6,96.9,125.5,96.9z"/>
		<path class="st4" d="M144,97.6c-0.1,0.8-0.6,1-1.3,1c-0.5,0-1.1-0.1-1-0.7c0.1-0.6,0.3-1.4,1.3-1.4C143.6,96.6,144,96.9,144,97.6z
			"/>
		<path class="st4" d="M160.8,80c-1.2-1.5-1.7-3.2-1-5.1C160.6,76.4,161.2,78.1,160.8,80z"/>
		<path class="st11" d="M121.7,184.3c1.1,0.4,3.1-0.2,2.8,2c-0.2,1.4,0.2,3.5-2.3,3.5c-2.3,0-3.5-1-3.4-2.4
			C118.9,185.1,119.8,184.2,121.7,184.3z"/>
		<path class="st11" d="M138.2,178.5c-0.5,1.2,0,3.1-2.2,2.9c-1.3-0.1-3-0.1-3-2c0-1.4,0.4-2.9,2.3-2.8
			C136.6,176.6,138.1,176.5,138.2,178.5z"/>
		<path class="st11" d="M146.6,174.2c-0.4-0.3-0.8-0.5-1.3-0.8c0-1.4-0.3-3.1,1.6-3.6c0.7-0.2,1.8,0,2.2,0.8c0.5,1,0.1,2.1-0.3,3
			C148.4,174.7,147.4,174.2,146.6,174.2z"/>
		<path class="st5" d="M125.5,96.9c0.1,0,0.1,0,0.2,0.1c0,0,0,0.1,0,0.1C125.6,97.1,125.6,97,125.5,96.9
			C125.5,96.9,125.5,96.9,125.5,96.9z"/>
	</g>
</g>
</svg>
