<?xml version="1.0" encoding="utf-8"?>
<!-- Generator: Adobe Illustrator 23.0.1, SVG Export Plug-In . SVG Version: 6.00 Build 0)  -->
<svg version="1.1" id="Layer_1" xmlns="http://www.w3.org/2000/svg" xmlns:xlink="http://www.w3.org/1999/xlink" x="0px" y="0px"
	 viewBox="0 0 300 300" style="enable-background:new 0 0 300 300;" xml:space="preserve">
<style type="text/css">
	.st0{fill:#227B3E;}
	.st1{fill:#3F2D37;}
	.st2{fill:#553A72;}
	.st3{fill:#F2CAB0;}
	.st4{fill:#4E4443;}
	.st5{fill:#DA3972;}
	.st6{fill:#C92261;}
	.st7{fill:#F4AF89;}
	.st8{fill:#FADECB;}
	.st9{fill:#FCE597;}
	.st10{fill:#242E5D;}
	.st11{fill:#E0487E;}
</style>
<g id="nad5Ph_1_">
	<g>
		<path class="st0" d="M248.6,126.1c1.7,5.8,3.6,11.6,5,17.4c5.3,21.2,3.9,42.4-0.7,63.4c-0.5,2.4,1.2,6.6-3.8,6.7
			c-1.8,0-3.5-0.8-5.1-1.5c-7.6-3.3-14.3-8-20.7-13.3l-0.1-0.2c-11.6-10.2-19.2-23-25.2-37c-2-4.8-5.2-7.6-10.2-8.4
			c-4.8-0.8-8.6-3-11.7-6.8c-1.6-3.5-4.8-6-5.8-9.8c2-0.1,3.6-0.1,1.8-3c-5.4-8.8-9.2-18.3-10.9-28.4c-0.9-5-2.5-7-7.4-5
			c-0.2-1.3-0.4-2.5-0.6-3.8c0.1-1.8,0.7-3.1,2.9-3c2.5,0.1,5-0.2,7.3-1.3c0.3,0.1,0.7,0.3,1,0.4c0.2,5.1,1.7,9.9,4.1,14.4
			c2.4,8.7,6.6,16.4,12,23.5c0.8,1.4,1.8,2.7,2.5,4.2c1.7,3.3,4.7,2.1,6.3,0.8c1.6-1.4-0.7-2.9-1.8-4.1c-4.9-9.9-10.3-19.6-14.3-30
			c-1.2-4-2.3-8.1-3.5-12.2c-1.9,0.4-2.3,2.7-4.3,2.4c0.8-2.6,1.6-5.1,2.4-7.7l0-0.1c1.3-0.3,1.5-1.2,1.6-2.3
			c3.3-4.3,7.1-8.1,12.2-10.4c0.7-0.2,1.5-0.3,2.2-0.4c0,0,0.1,0.2,0.1,0.2l0.1-0.2c16.5-2.3,28.9,5.3,39.4,16.8
			c9.3,10.1,16.6,21.5,22.3,34C246.6,123,247.7,124.5,248.6,126.1z M181.3,91.5c-1.2-3.5-2.5-7-3.7-10.6c-4.7,2.5-5.6,5.9-3.5,10.3
			c0.8,1.7,1.6,3.5,2.4,5.3c4.3,11.9,10.3,22.9,19.3,32c1,2.4,2.4,4,5.1,1.8c3.6-2.8-0.3-3.9-1.2-5.7
			C192.6,114.2,186.4,103.1,181.3,91.5z"/>
		<path class="st1" d="M117.4,36.4c4.4-8.2,11.8-12.6,20.4-14.6c10.3-2.4,20.8-1,29.8,4.5c14.1,8.5,17,25.6,7.8,40.5
			c-0.9,0.4-1,1.4-0.8,2.1c1.3,4.2-0.9,4.9-4.4,5.1c-3.2,0.2-6.1-0.7-9.2-0.6c-1.5-2.8-3-5,0.8-7.8c2.8-2.1,1-5.8-0.7-8.6
			c-1.1-1.8-2.7-3.2-4.9-2.7c-3.5,0.7-2.3,3.8-2.8,6.1c-0.5,2.5-0.2,5.8-4.5,4.5c-0.8-2.2-1.5-4.3-2.3-6.5c0-2.6,0.3-5.3,0.1-7.9
			c-0.3-5.3-3.9-7.6-8.9-5.7c-1.8,0.7-3.5,2.1-5.4,2.4c-4.4,0.7-5.8,3.1-4.7,7.2c-0.4,3.3-0.5,6.7-0.1,10c-0.4,4.6,0.4,10-6.8,10.1
			c-0.5-0.7-3.6,1.1-1.8-1.7c0.6-0.9,1.6-1.6,1.5-2.9c-0.2-7.2,1.6-14.4,1-21.6c-0.2-2.3-1.8-4.5-0.8-6.8
			C122.4,37.9,120.5,36.8,117.4,36.4z"/>
		<path class="st2" d="M166.7,278.1c-1.3-0.3-1.9,0.8-2.8,1.3c-14.2-0.1-28.5-0.1-42.7-0.2c-2.8,0-5.6,0.5-8.2-1
			c-0.2-2.5-0.3-5.1-0.5-7.6c1.9-6.2,7.5-6.2,12.3-7c4.2-0.8,8.6-0.8,12.9-1.1c7.5-0.7,14.9-1.9,22.1-3.9c2,0.8,5,0.9,5.7,2.7
			c2.5,6.3,7.5,6.9,13,6.9c1.8,0.7,3.5-0.2,4.5-1.3c5.8-5.8,11.7-11.6,15.7-19c7.4-3.3,11.3-0.9,12.7,7.5c-6.3,3.7-11.1,9.1-16.4,14
			c-5.1,4.8-10.1,9.5-18.1,7.9c-2.4-0.5-4.9-0.2-7.4-0.5C168.3,276.7,167.5,277.1,166.7,278.1z"/>
		<path class="st3" d="M153.9,100.3c4.9-2,6.6,0,7.4,5c1.7,10.1,5.5,19.7,10.9,28.4c1.8,2.9,0.2,2.9-1.8,3
			c-14.8,0.1-28.9-2.7-42.7-8.1c-12.9-5.1-23.2-13.9-33.2-23C87,98.7,80.2,90.9,69.8,87.9c-3.8-1.1-6.3-5-10.4-5.6
			c0.4-2.7-2-3.9-3.3-5.8C55.6,75.7,54.8,74,55,74c4.3,0.2,0-6.6,4.7-5.8c0.7-7.2,3.4-1,4.5-0.4c1.8,1.1,3,3,4.4,4.6
			c2,2.5,4.6,5.3,7.7,4.1c3.3-1.2,0-4.3,0.1-6.5c0.1-0.8-0.3-1.7,0.9-1.9c1.2-0.2,1.8,0.7,2.3,1.5c2.1,3.9,4.1,7.9,6.1,11.8
			c1.8,5.5,5.6,8.4,10.2,7.9c1.8,0.2,2.1,1.8,2.8,3c-5.9,2.4-6.6,4.7-1.1,8.5c5.8,4.1,10,10,16.4,13.4c8.6,4.5,16.7,9.7,26.3,11.8
			c5.7,1.2,11.3-0.1,16.7-1.4c3.2-0.7,4.9-7.9,3.2-12.1c-2.6-6.8-4.4-9.5-9.2-9.3c-12.3,0.6-24.5,0-36.2-4.2
			c-4.5-1.6-9.7-1.6-13-5.8c3.3-0.6,5.5,2,8.3,2.7C124.5,99.5,138.9,103.6,153.9,100.3z"/>
		<path class="st4" d="M85.7,81.5c-2-4-4-7.9-6.1-11.8c-0.4-0.8-1.1-1.7-2.3-1.5c-1.2,0.2-0.8,1.2-0.9,1.9c-0.2,2.2,3.1,5.3-0.1,6.5
			c-3.1,1.2-5.7-1.6-7.7-4.1c2.4-4.9,0.6-10.1,1-15.2c0.5-2.1,2.4-1.6,3.6-1.6c4.7-0.2,9.5-0.1,14.2,0c1.1,0,1.6,0.9,2.3,1.7
			c0,6,0,12,0,18.1c0,1.5,1.1,1.9,2.4,1.9c1.8,0,3.6-0.1,5.4,0.1c3.2,0.3,4.4-1,4.2-4.2c-0.2-5.3-0.1-10.6-0.1-15.9
			c1-5.4,0.6-10.9,0.7-16.3c0.1-3.3,1.3-4.9,4.7-4.8c3.5,0.1,6.9,0.1,10.4,0.1c3.1,0.4,5,1.5,3.4,5.2c-0.9,2.3,0.7,4.5,0.8,6.8
			c0.6,7.3-1.2,14.4-1,21.6c0,1.3-0.9,1.9-1.5,2.9c-1.9,2.8,1.3,0.9,1.8,1.7c-0.5,4.5,1.7,9.4-1.8,13.6c-4,0.1-7.9,0.1-11.9,0.3
			c-4,0.3-6.1-1.2-5.4-5.4c0.7-4.1-0.7-5.8-5-5c-1.6,0.3-3.3,0.1-5,0.1c-2.3,0-2.8,1.3-2.4,3.3C88.2,81.4,86.9,81.5,85.7,81.5z"/>
		<path class="st5" d="M136.9,252.6c-2.6-0.2-4.8-0.8-5.8-3.7c-3.1-9-6.3-17.9-9.5-26.9c-2.7-7.7-4.9-15.7-8.1-23.2
			c-4-9.4-5.6-19.6-10.9-28.5c0.1-4.2-2.1-7.9-3-11.9c-1-4.2-1.5-8.4-0.5-12.7c0.8-3.1,2.3-5.4,5.7-6.1c1.4,1.3,2.6,2.8,4.2,3.8
			c1.9,1.2,4.1,2,3.7,4.9c0.7,3.5-3.6,5-3.1,8.6c0.8,6.3,0.1,12.5,1.6,19c2.3,10.1,7.2,19.2,9,29.4c0.1,0.8,0.7,1.6,1.2,2.2
			c3.2,3.6,4.8,8.6,5.7,12.6c2.6,11.1,16.9,16.7,24.9,10.3c0.1,0.2,0,0.4-0.2,0.5c-0.1,1.4-0.4,2.7,1,3.7c0.3,0.8,0.6,1.6,0.9,2.3
			c0,0.2,0,0.4,0.2,0.5c-0.3,3.5,0.2,6.9,0.8,10.3c0.6,3.2-0.1,5-4,4.8C146.1,252.3,141.5,252.5,136.9,252.6z"/>
		<path class="st6" d="M112.7,148.4c0.4-2.9-1.8-3.7-3.7-4.9c-1.6-1-2.8-2.5-4.2-3.8c11.2-3.8,22.7-2.4,34-0.7
			c10.8,1.7,21.4,4.5,32.2,6.8c1.8,0.4,3.6,0.6,5.3,0.8c3,3.7,6.9,6,11.7,6.8c4.9,0.9,8.1,3.7,10.2,8.4c5.9,14,13.6,26.8,25.2,37
			c-2,0.6-4.1,1.3-6.1,1.9c-8.9-8.4-13.7-19.3-18.1-30.3c-2.7-6.6-4.9-12.5-12.7-14.5c-4.2-1.1-13.3,0-16.7,3.4
			c-1.3-0.3-2.6-0.6-4-0.9c-9.5-4.3-19.1-8.3-29.5-9.6c-6.1-0.7-12.3-3-18.5-0.5C116,148.4,114.3,148.4,112.7,148.4z"/>
		<path class="st1" d="M69.6,57.3c-0.4,5.1,1.3,10.3-1,15.2c-1.4-1.6-2.6-3.5-4.4-4.6c-1.1-0.6-3.7-6.8-4.5,0.4
			C55,67.5,59.3,74.2,55,74c-0.2,0,0.6,1.6,1.2,2.4c1.2,1.8,3.6,3,3.3,5.8c-6.6-0.4-12.6,1.5-18.1,5.1c-1.9,1.2-4.6,2.4-6.5,0.7
			c-2.3-2.1-0.6-4.7,0.6-6.8c1.5-2.6,1.5-4.2-1.2-6.4c-4.6-3.8-4.2-8.9,1-12.5c2.4-1.7,2.7-2.8,1.2-5.1c-0.8-1.2-1.3-2.7-1.6-4.1
			c-0.7-3.5,1-5.1,4.4-4.1c2.2,0.7,4.5,1.4,6.3,2.8c3.3,2.5,7.2,2.1,10.6,3.2C60.6,56.5,64.9,57.8,69.6,57.3z"/>
		<path class="st6" d="M102.5,170.3c5.3,8.8,6.9,19.1,10.9,28.5c3.2,7.5,5.5,15.4,8.1,23.2c-8-4.8-16.2-9.1-23.9-14.4
			c-9.4-6.4-11.1-17.1-4.9-26.7C95.5,176.8,98.4,173,102.5,170.3z"/>
		<path class="st1" d="M101.6,57.3c0,5.3-0.1,10.6,0.1,15.9c0.1,3.3-1,4.5-4.2,4.2c-1.8-0.2-3.6-0.1-5.4-0.1c-1.3,0-2.4-0.5-2.4-1.9
			c0-6,0-12,0-18.1C93.7,57.4,97.6,57.4,101.6,57.3z"/>
		<path class="st3" d="M136.9,252.6c4.6,0,9.3-0.3,13.9,0c3.8,0.2,4.5-1.6,4-4.8c-0.6-3.4-1.2-6.8-0.8-10.3c1.5-1.6,0.4-3.6,0.8-5.5
			c1.7,5.4,1.7,11.1,2.5,16.6c0.3,2.4,1.3,3.1,3.4,3.1c-3.2,2,1.6,4.7-0.7,6.8c-7.3,1.9-14.6,3.2-22.1,3.9
			C141.8,257.6,141.6,254.5,136.9,252.6z"/>
		<path class="st7" d="M160.9,73.4c3.1-0.1,6.1,0.8,9.2,0.6c3.5-0.3,5.7-0.9,4.4-5.1c-0.2-0.7-0.1-1.6,0.8-2.1
			c2.1,1.4,5.2,1.6,6.4,4.4c-5.1,2.3-8.8,6.1-12.2,10.4c-2-0.6-2-0.6-1.6,2.3c0,0,0,0.1,0,0.1c-1.5-0.4-0.8-3-3-2.7
			c-3.5,0.5-7.3-0.3-10.4,2.1c-0.6,0-1.3-0.1-1.9-0.1C153,78,158.2,76.7,160.9,73.4z"/>
		<polygon class="st7" points="184.2,70.7 184.1,70.9 184,70.7 		"/>
		<path class="st6" d="M248.7,215.7c-2.1,2.5-3.9,5.3-6.9,6.8c-1.5-0.7-3.3-1-4.4-2.1c-5.8-6.2-13.5-10.4-18.8-17.1
			c1.5-1.5,4.6-1.3,4.7-4.3c6.3,5.3,13,10,20.7,13.3c1.7,0.7,3.3,1.5,5.1,1.5C249,214.4,248.9,215.1,248.7,215.7z"/>
		<path class="st7" d="M119.1,88.1c9.4,5.5,19.8,7.1,30.3,8.2c1.3,0.1,2.6,0.1,4,0.2c0.2,1.3,0.4,2.5,0.6,3.8
			c-15.1,3.3-29.5-0.8-43.9-4.2c-2.9-0.7-5.1-3.3-8.3-2.7c-1-0.3-2-0.7-3-1c-0.7-1.2-1-2.9-2.8-3c-2.3-2.6-3.5-6-6.5-8.1
			c-0.4-1.9,0.1-3.3,2.4-3.3c1.7,0,3.4,0.3,5-0.1c4.3-0.8,5.6,0.9,5,5c-0.7,4.2,1.4,5.7,5.4,5.4C111.1,88.2,115.1,88.2,119.1,88.1z"
			/>
		<path class="st8" d="M195.8,128.5c-9-9.2-15-20.1-19.3-32c0.1-3.1,2.9-3.6,4.8-5c5.1,11.6,11.2,22.7,18.4,33.2
			C199.4,127,197.2,127.4,195.8,128.5z"/>
		<path class="st8" d="M180.7,130.6c-5.4-7.1-9.6-14.9-12-23.5c1.7-1.8,0.7-5.8,4.7-5.6c3.9,10.4,9.4,20.1,14.3,30
			C185.4,130.9,183.1,130,180.7,130.6z"/>
		<path class="st9" d="M173.4,101.4c-4-0.1-3,3.8-4.7,5.6c-2.4-4.5-3.9-9.3-4.1-14.4c0.3-0.3,0.7-0.7,1-1c1.9,0.3,2.4-2,4.3-2.4
			C171.1,93.4,172.3,97.4,173.4,101.4z"/>
		<path class="st9" d="M181.3,91.5c-1.9,1.4-4.7,1.9-4.8,5c-0.8-1.8-1.5-3.6-2.4-5.3c-2.1-4.4-1.2-7.8,3.5-10.3
			C178.9,84.5,180.1,88,181.3,91.5z"/>
		<path class="st3" d="M223.4,198.9c-0.1,3.1-3.2,2.8-4.7,4.3c-6.9,2.4-13.8,2.3-20.9,1c-0.2-0.3-0.4-0.6-0.6-0.8
			c1.3-0.1,2.7,0.3,3.6-0.9c5.5-0.1,11.2,1,16.4-1.8c2-0.6,4-1.3,6.1-1.9C223.2,198.8,223.4,198.9,223.4,198.9z"/>
		<path class="st3" d="M165.6,91.7c-0.3,0.3-0.7,0.7-1,1c-0.3-0.1-0.7-0.3-1-0.4c-1.4-4.5-5.1-6.8-8.9-8.9c3.1-2.5,6.9-1.6,10.4-2.1
			c2.2-0.3,1.5,2.3,3,2.7C167.2,86.5,166.4,89.1,165.6,91.7z"/>
		<path class="st9" d="M180.7,130.6c2.4-0.6,4.7,0.3,7,0.8c1.1,1.2,3.5,2.7,1.8,4.1c-1.6,1.4-4.5,2.5-6.3-0.8
			C182.5,133.4,181.5,132,180.7,130.6z"/>
		<path class="st9" d="M195.8,128.5c1.4-1.1,3.6-1.5,3.9-3.8c0.9,1.8,4.8,2.9,1.2,5.7C198.1,132.5,196.8,131,195.8,128.5z"/>
		<path class="st3" d="M168,83.8c-0.4-2.9-0.4-3,1.6-2.3C169.5,82.6,169.3,83.6,168,83.8z"/>
		<path class="st10" d="M211.5,255.5c2.1,2.2-0.4,2.9-1.4,3.8c-4.2,4-8.6,7.9-12.8,11.8c-6,7.5-14,8.9-22.9,7.7
			c-2.6-0.3-5.3,0.9-7.7-0.7c0.8-0.9,1.6-1.4,3-1.2c2.4,0.4,5,0.1,7.4,0.5c7.9,1.6,12.9-3.1,18.1-7.9
			C200.4,264.6,205.3,259.2,211.5,255.5z"/>
		<path class="st8" d="M149.7,82.5c-7.9,4.9-14.3,0.6-18.1-9.3c-1.2-3-2.6-5.8-3.9-8.7c-0.4-3.4-0.3-6.7,0.1-10
			c5.1-2.5,10.9-1.7,15,1.9c1.1,1,2.2,2.1,3.8,2.1c0.8,2.2,1.5,4.3,2.3,6.5C148.5,70.8,147.3,76.7,149.7,82.5z"/>
		<path class="st3" d="M149.7,82.5c-2.4-5.8-1.2-11.7-0.8-17.6c4.3,1.3,4.1-2,4.5-4.5c0.4-2.3-0.7-5.4,2.8-6.1
			c2.2-0.5,3.7,0.9,4.9,2.7c1.7,2.8,3.5,6.5,0.7,8.6c-3.8,2.8-2.3,5-0.8,7.8c-2.7,3.3-7.9,4.6-8.2,9.9
			C151.5,83.8,150.6,82.9,149.7,82.5z M159.8,64c1.3-0.8,1-2,0.7-3.1c-0.4-1.7-0.9-3.6-2.9-4.2c-0.5-0.1-1.4,0.2-1.6,0.6
			c-1,1.9,0.7,3,1.6,4.2C158.3,62.4,158.3,63.8,159.8,64z"/>
		<path class="st3" d="M146.6,58.5c-1.7,0-2.8-1.2-3.8-2.1c-4.1-3.6-9.9-4.4-15-1.9c-1.1-4.1,0.3-6.5,4.7-7.2
			c1.9-0.3,3.6-1.7,5.4-2.4c4.9-1.9,8.6,0.4,8.9,5.7C146.8,53.2,146.6,55.8,146.6,58.5z"/>
		<path class="st3" d="M196.5,242.9c0.5,1.8,2.4,3,2.3,5c-4,7.3-9.9,13.1-15.7,19c-1.1,1.1-2.7,1.9-4.5,1.3
			c0.7-3.9,3.8-7.8,0.5-11.8C185.5,252.6,191.1,247.9,196.5,242.9z"/>
		<path class="st8" d="M98.7,92.4c1,0.3,2,0.7,3,1c3.3,4.2,8.6,4.3,13,5.8c11.7,4.1,23.9,4.8,36.2,4.2c4.8-0.2,6.6,2.5,9.2,9.3
			c1.6,4.2,0,11.4-3.2,12.1c-5.4,1.2-11,2.6-16.7,1.4c-9.6-2.1-17.8-7.4-26.3-11.8c-6.4-3.3-10.6-9.2-16.4-13.4
			C92.1,97.1,92.8,94.8,98.7,92.4z"/>
		<path class="st11" d="M112.7,148.4c1.7,0,3.3,0,5-0.1c10.7,9.1,23.8,10,36.9,11c3.6,0.3,7.6,1.2,11.1-0.9c1.3,0.3,2.6,0.6,4,0.9
			c2.8,1.9,5.5,4.3,8.6,5.6c12,5,18.3,14.9,23.1,26.2c1.8,4.3-0.1,7-4.2,7.1c-1.2,0-2.7-0.1-3.5,1.4c-4.9-1.7-9.5-3.9-14-6.5
			c-14.4-8.4-27.1-19.1-40.5-28.9c-2.7-2-6-6.5-9.2-3.9c-2.9,2.4,0.8,6.5,2.2,9.4c9.8,19.2,16.2,39.6,19.9,60.8
			c-8,6.4-22.2,0.8-24.9-10.3c-1-4-2.6-9-5.7-12.6c-0.5-0.6-1.1-1.4-1.2-2.2c-1.8-10.1-6.7-19.3-9-29.4c-1.5-6.5-0.8-12.7-1.6-19
			C109.1,153.4,113.3,151.9,112.7,148.4z"/>
		<path class="st8" d="M152,230.5c-3.7-21.2-10-41.6-19.9-60.8c-1.5-2.9-5.1-7-2.2-9.4c3.2-2.7,6.5,1.9,9.2,3.9
			c13.4,9.8,26.1,20.6,40.5,28.9c4.5,2.6,9.1,4.9,14,6.5c2,1.9,5.2,1.1,7.2,2.9c-1,1.2-2.4,0.8-3.6,0.9c-1.4-0.4-2.9-0.6-4.3-1.1
			c-12-4.4-22.4-11.5-32.6-19c-9.1-6.7-18.1-13.6-27.5-20.7c-0.5,2.3,0.6,3.5,1.2,4.7c5.8,11.8,11,23.8,14.6,36.5
			c1.7,5.9,3.3,11.8,4.9,17.7c0.1,1.5,0.2,2.9,0.3,4.4c0.1,1,0.2,1.9,0.3,2.9c0.2,1,0.4,2,0.7,3.1c-0.3,1.8,0.7,3.8-0.8,5.5
			c-0.2-0.1-0.2-0.3-0.2-0.5c0-0.7-0.1-1.5-0.1-2.2c-0.3-1.4-0.5-2.9-1.8-3.8C152,230.8,152.1,230.7,152,230.5z"/>
		<path class="st11" d="M151.8,230.9c1.2,1,1.5,2.4,1.8,3.8c-0.2-0.2-0.5-0.2-0.8-0.1C151.4,233.7,151.7,232.3,151.8,230.9z"/>
		<path class="st3" d="M152.8,234.6c0.3-0.1,0.5,0,0.8,0.1c0,0.7,0.1,1.5,0.1,2.2C153.4,236.2,153.1,235.4,152.8,234.6z"/>
		<path class="st5" d="M200.8,202.6c-2.1-1.8-5.2-1-7.2-2.9c0.8-1.5,2.3-1.3,3.5-1.3c4.2-0.2,6.1-2.9,4.2-7.1
			c-4.8-11.3-11.1-21.1-23.1-26.2c-3.1-1.3-5.7-3.7-8.6-5.6c3.4-3.3,12.5-4.5,16.7-3.4c7.8,2,10,7.9,12.7,14.5
			c4.4,10.9,9.3,21.9,18.1,30.3C211.9,203.6,206.3,202.4,200.8,202.6z"/>
		<path class="st5" d="M165.7,158.5c-3.6,2.1-7.5,1.1-11.1,0.9c-13-1-26.2-1.9-36.9-11c6.2-2.5,12.4-0.2,18.5,0.5
			C146.6,150.2,156.2,154.2,165.7,158.5z"/>
		<path class="st5" d="M154.6,232c-0.2-1-0.4-2-0.7-3c0.5-1,0.5-2-0.3-2.9c-0.1-1.5-0.2-2.9-0.3-4.4c2.2-2,1.3-4.6,1-6.8
			c-0.2-1.9-1.1-3.7,0.4-5.4c6.1,2.5,9.6,7.4,10.6,13.4c1.5,9.6,1.7,19.3,1,29c-1.9-0.8-3.9-0.4-5.8-0.1c-2.1,0-3.1-0.7-3.4-3.1
			C156.4,243.1,156.4,237.4,154.6,232z"/>
		<path class="st5" d="M197.7,204.3c7,1.3,14,1.4,20.9-1c5.3,6.7,13,10.9,18.8,17.1c1,1.1,2.9,1.4,4.4,2.1
			c-13.1,10.2-27.9,10.5-43.4,7.5c-5.3-1.1-10-4.5-15.6-4.5c-1.4-3.6-5.1-4.4-7.9-6c-7.1-4-11.4-12.3-9.3-19c7.5,4.1,14.7,9,23.9,8
			C192.6,208.1,196.3,208.3,197.7,204.3z"/>
		<path class="st6" d="M165.6,200.4c-2.1,6.7,2.2,15,9.3,19c2.8,1.6,6.5,2.4,7.9,6c4.2,3.1,8.4,6.2,12.7,9.1c5.1,3.5,5.1,3.4,1,8.2
			c-5.4,5-11,9.7-17.4,13.4c-6.1,3.9-9.1-1-12.7-4.5c0.7-9.7,0.5-19.5-1-29c-0.9-6.1-4.5-11-10.6-13.4c-0.4-2.4-1.3-4.6-2.8-6.6
			c-1.4-1.9-3.2-4.6,0.5-6.5c0.7,0.1,1.4,0.2,2.1,0.3c0.3,0.3,0.7,0.6,1,1c0.6,3,2.7,4.5,5.3,5.8c1.2-2.3-0.7-4-0.5-5.9
			c1.1-3,2.2-1.4,3.2,0.1c0.3,0.3,0.6,0.7,1,1C165.4,198.9,165.6,199.6,165.6,200.4z"/>
		<path class="st11" d="M163.7,197.4c-1-1.5-2-3.1-3.2-0.1c-1.6,0-3.2,0.1-4.8,0.1c-0.3-0.3-0.7-0.6-1-1c0.1-1.9-0.2-3.6-2.5-4.8
			c0.2,1.8,0.3,3.2,0.4,4.6c-3.7,1.9-1.9,4.6-0.5,6.5c1.5,2.1,2.4,4.2,2.8,6.6c-1.5,1.7-0.6,3.5-0.4,5.4c0.3,2.2,1.2,4.8-1,6.8
			c-1.6-5.9-3.2-11.8-4.9-17.7c-3.6-12.7-8.7-24.7-14.6-36.5c-0.6-1.2-1.7-2.5-1.2-4.7c9.4,7.1,18.3,14,27.5,20.7
			c10.2,7.5,20.6,14.6,32.6,19c1.4,0.5,2.9,0.8,4.3,1.1c0.2,0.3,0.4,0.6,0.6,0.8c-1.4,4-5.1,3.7-8.2,4.1c-9.1,1-16.4-3.8-23.9-8
			c0-0.8-0.2-1.5-1-2C164.3,198.1,164,197.8,163.7,197.4z"/>
		<path class="st7" d="M159.8,64c-1.4-0.2-1.5-1.6-2.2-2.4c-1-1.2-2.6-2.3-1.6-4.2c0.2-0.4,1.2-0.8,1.6-0.6c2,0.6,2.5,2.4,2.9,4.2
			C160.7,61.9,161.1,63.2,159.8,64z"/>
		<path class="st3" d="M153.7,226c0.8,0.9,0.8,1.9,0.3,2.9C153.9,227.9,153.8,227,153.7,226z"/>
		<path class="st5" d="M155.7,197.5c1.6,0,3.2-0.1,4.8-0.1c-0.2,1.9,1.7,3.6,0.5,5.9C158.4,202,156.3,200.5,155.7,197.5z"/>
		<path class="st5" d="M152.5,196.2c-0.1-1.4-0.3-2.7-0.4-4.6c2.3,1.2,2.6,2.9,2.5,4.8C153.9,196.4,153.2,196.3,152.5,196.2z"/>
		<path class="st5" d="M163.7,197.4c0.3,0.3,0.6,0.7,1,1C164.3,198.1,164,197.8,163.7,197.4z"/>
	</g>
</g>
</svg>
