<?xml version="1.0" encoding="utf-8"?>
<!-- Generator: Adobe Illustrator 23.0.1, SVG Export Plug-In . SVG Version: 6.00 Build 0)  -->
<svg version="1.1" id="Layer_1" xmlns="http://www.w3.org/2000/svg" xmlns:xlink="http://www.w3.org/1999/xlink" x="0px" y="0px"
	 viewBox="0 0 227 100.8" style="enable-background:new 0 0 227 100.8;" xml:space="preserve">
<style type="text/css">
	.st0{fill:#EEF6F5;}
	.st1{fill:#F6CD71;}
	.st2{fill:#1D3656;}
	.st3{fill:#78BBA8;}
	.st4{fill:#E6AF42;}
	.st5{fill:#D95F41;}
</style>
<g id="LjnDwb_1_">
	<g>
		<path class="st0" d="M182.7,22.8c0-2.6,1-3.5,3.3-3.3c2,0.1,3.1-1.1,3.1-3.1c0-3.7,0-7.4,0-11.1c0-2.2-1.1-3.3-3.3-3.3
			c-10.3,0-20.6,0-30.9,0c-1.8,0-2.6,0.6-2.6,2.5c0,4,0,8.1,0,12.1c0,2.2,0.9,3,3.1,3c5.9-0.1,11.9-0.1,17.9,0
			C176.7,19.5,180.4,18.6,182.7,22.8z"/>
		<path class="st1" d="M65.7,18.3c1.6-0.1,3.2,0.4,4.7-0.5c3.2,0.8,6.4,0.1,9.6,0.1c9.1,0.2,18.1-0.1,27.2,0.5
			c7.6,0.5,14.4,3.5,21.2,6.6c13.7,6.2,27.1,12.8,40.8,18.8c7,3.1,14.2,5.6,21.7,7c1.4,0.2,2.8,0.3,4,1.3c0.2,0.8,0.2,1.6-0.1,2.4
			c-0.9,0.1-1.9,0.2-2.8,0.2c-4.5,0.1-6.1,2.9-4.2,7c1.3,2.9,4,3.1,6.4,4c-0.5,4.4-0.1,8.7,1.3,12.9c-1.6-2-3.5-2.2-5.7-1.2
			c-1.2-8.3-8.1-14.5-17.6-15.8c-8.5-1.1-18.8,6.3-20.3,14.7c-0.3,1.9,1.1,3.7,0.1,5.5c-0.8-2.4-1.9-4.7-1.9-7.3
			c0.2-9.8,2.6-19.3,4.8-28.8c0.4-1.8,0.2-2.7-1.7-3.8c-7.7-4.5-15.8-8.3-23.7-12.4c-5.7-3-11.8-5.3-18.2-6.7
			c-8.8-1.9-17.7-1-26.5-1.5c-4.2-0.3-8.4,0.7-12.7,0.5c-6.4-0.2-12.8,0.3-19,1.8c-5.2,1.2-10,3.6-13.6,7.8c-3.8,2-6.9,4.7-9.1,8.5
			c-2.9,0.7-3.9,2.3-3.2,5.4c0.9,4,1.9,8,2.6,12.1c0.3,1.8,1,2.5,2.7,2.4c3.9-0.2,7.6,0.2,11.3,1.7c5.7,2.2,10.5,5.3,12.9,11.3
			c0.4,1,0.9,2-0.7,2.4c0-1.4-1.1-2.3-1.6-3.5C51.6,65.3,43.5,60.9,36,61.5c-8,0.7-14.4,5.7-16.4,12.8c-0.1,0.5-0.5,0.7-1,0.8
			c-0.4-0.7,1.2-2.3-0.8-2.4C12.6,72.7,7.3,72.7,2,72.7c0.1-4.3,0.2-8.6,0.4-12.9c1,0,2.1,0,3.1-0.1c4.7,0,7-1.7,8.7-6.2
			c1-2.6,0.7-3.1-2.3-3.1c-3.2,0-6.4,0-9.6,0c-0.2-5.7,0.9-7.7,5.1-8.6c9.2-2.1,17.7-6.1,25.1-11.7C42.4,22.5,53.3,18.7,65.7,18.3z"
			/>
		<path class="st2" d="M160.6,101.8 M166.1,98.8c-3.4-1.6-6.5-3.4-8.9-6.2c-2.3-2.7-3-6-4.1-9.2c-0.3,0-0.5-0.1-0.8-0.1
			c-0.1-0.5-0.2-1-0.4-1.5c0.9-1.9-0.4-3.7-0.1-5.5c1.5-8.4,11.8-15.8,20.3-14.7c9.5,1.3,16.4,7.5,17.6,15.8c-1.4,1.6,0,3.6-0.8,5.2
			c-1.6,0.2-1.1,1.6-1.3,2.4c-1.3,6.1-4.9,10.2-10.5,12.7c-0.7,0.3-1.5,0.4-2,1.1 M31.7,98.7c0.1-0.2,0.2-0.4,0.4-0.6
			c-6.2-2.5-10-7.1-11.7-13.4c0-1.8-0.1-3.5,0.1-5.3c0.2-1.5-0.7-1.5-1.7-1.5c0-0.9,0.7-1.9-0.2-2.7c0.5-0.1,0.9-0.3,1-0.8
			c2-7.1,8.4-12.1,16.4-12.8c7.5-0.6,15.6,3.8,18.4,10.1c0.5,1.2,1.6,2.1,1.6,3.5c-1,0.9-0.3,2-0.2,3.1c0.2,2,1.2,4.2-0.5,6.1
			c-0.3,0.5-0.7,0.9-0.8,1.4c-1.4,5.5-4.7,9.3-9.7,11.8c-0.6,0.3-1.5,0.3-1.6,1.2 M25.9,81.5c0,6.7,5,11.9,11.7,12
			c6.4,0.1,11.9-5.2,12.1-11.8c0.1-6.5-5.2-11.9-11.8-12C31.2,69.6,25.9,74.8,25.9,81.5z M182.5,81.7c0-6.7-5.2-12-11.7-12
			c-6.6,0-11.9,5.2-12,11.8c-0.1,6.4,5.4,11.9,11.9,12C177.2,93.6,182.5,88.3,182.5,81.7z"/>
		<path class="st3" d="M215.4,98.7c2.1-1.6,4-3.4,2.3-6.2c-1.8-2.9-4-5.6-6-8.4c-0.9-2.2-2.2-4.2-4.1-5.8c0-0.2-0.1-0.3-0.3-0.3
			l-0.1-0.2c-1.7-3.1-2.9-6.4-5.2-9.1c0.4-1.5,0.4-2.9-0.1-4.3c-1.5-4.5-3-9-4.5-13.5c-0.3-1.1-1.2-1.4-2.1-1.6
			c-1-0.6-0.9-1.5-0.9-2.5c0.2-2.1,0.5-4.3,0.7-6.4c0.2-1.8,0.5-3.7,0.7-5.5c0.1-1,0.6-2.4-1.2-2.6c-1.8-3.8-0.1-7.2,1.3-10.5
			c1-2.3,3.2-3,5.6-2.7c0.1,1,0.2,2,0.3,3.1c0.1,0.6-0.1,1.4,0.7,1.7c0.8,0.3,1.4-0.2,2-0.8c1.1-1.1,1.6-2.5,2.3-3.9
			c4.9,0.7,9.9,5.2,11,10c0.1,0.4-0.2,0.9-0.3,1.3c-1.2,0.4-2.3,1.1-3.2,2.1c-1.5,0.6-2.1-0.8-3.2-1.7c-0.1,0.8-0.2,1.1-0.2,1.4
			c-0.3,12.7-0.3,25.4,1.7,38c0.4,2.4,1.8,4.4,2.6,6.5c1.4,3.4,2.9,6.7,4.4,10.1c0.3,0.8,0.6,2,1.1,2.2c3.5,1.6,2,4,1.2,6.2
			c-0.9,2.4-0.2,3.1,2.4,3.1"/>
		<path class="st1" d="M182.7,22.8c-2.3-4.2-6-3.3-9.4-3.3c-6,0-11.9,0-17.9,0c-2.2,0-3.1-0.8-3.1-3c0.1-4,0.1-8.1,0-12.1
			c0-1.8,0.8-2.5,2.6-2.5c10.3,0,20.6,0,30.9,0c2.2,0,3.3,1.1,3.3,3.3c0,3.7,0,7.4,0,11.1c0,2.1-1.1,3.3-3.1,3.1
			C183.7,19.2,182.7,20.1,182.7,22.8z M184.6,7.4c0-0.3,0-0.5,0-0.8c-5.1-0.1-10.2-0.2-15.3,0.8C174.4,7.4,179.5,7.4,184.6,7.4z
			 M169.4,15.3c0-0.2,0-0.3,0-0.5c-4.2,0-8.3,0-12.5,0c0,0.2,0,0.3,0,0.5C161,15.3,165.2,15.3,169.4,15.3z M172.1,14.7
			c0,0.2,0,0.3,0,0.5c4,0,8.1,0,12.1,0c0-0.2,0-0.3,0-0.5C180.2,14.7,176.2,14.7,172.1,14.7z M184.7,11.2c0-0.1,0-0.3,0-0.4
			c-3.2,0-6.5,0-9.7,0c0,0.1,0,0.3,0,0.4C178.2,11.2,181.5,11.2,184.7,11.2z M171.7,11c-2.1-0.6-4.3-0.7-6.4,0
			C167.5,11.6,169.6,11.6,171.7,11z M156.9,11.1c2,0.3,3.9,0.7,5.8-0.1C160.7,10.4,158.8,10.3,156.9,11.1z"/>
		<path class="st3" d="M195.3,49.2c0.9,0.3,1.7,0.6,2.1,1.6c1.5,4.5,3,9,4.5,13.5c0.5,1.4,0.6,2.9,0.1,4.3c-1.6,3-0.6,5.9,0.4,8.8
			c0.7,3.4,1.4,6.8,2.7,10.1c-0.5,2.4,1.7,4.5,0.8,7c-0.9-0.2-1.9-0.2-2.7,0.4c-1.1-0.4-1.2-1.5-1.7-2.4c-0.9-1.7-1.1-3.7-2.5-5.1
			c-0.7-3.1-2.1-6-3.5-8.9c-1.4-4.2-1.9-8.5-1.3-12.9c0.2-3.7,1.1-7.4,0.7-11.2c0.3-0.8,0.3-1.6,0.1-2.4
			C195,51.2,195.1,50.2,195.3,49.2z"/>
		<path class="st1" d="M206.7,19.2c-0.6,1.3-1.1,2.8-2.3,3.9c-0.6,0.5-1.1,1.1-2,0.8c-0.8-0.3-0.6-1.1-0.7-1.7c-0.1-1-0.2-2-0.3-3.1
			c1.2-0.9,1.1-2.2,0.4-3c-2.8-3.1-1.7-6.3-0.5-9.5c0.8-0.1,1.8-0.1,2,0.5c0.7,2.1,3.8,3.4,2.5,6.3c-0.3,0.7-0.2,1.5,0.5,2.1
			C206.5,16.7,206.6,17.9,206.7,19.2z"/>
		<path class="st1" d="M194.6,32.2c1.8,0.2,1.3,1.6,1.2,2.6c-0.1,1.8-0.4,3.7-0.7,5.5c-2.1,1.4-3.4,0.2-4.6-1.3
			c-2.5-3.2-5.3-6.1-8.3-8.9c-1.6-1.5-1.3-3.6-2.1-6c3.2,3.5,5.7,6.6,8.7,9.3C192.2,36.3,192.4,36.1,194.6,32.2z"/>
		<path class="st1" d="M214.3,32.6c0.9-0.9,2-1.7,3.2-2.1c3.3,3.3,2.5,7.7,3.1,11.7c0.5,3,0.3,6,0.3,9c0,1,0.6,2.8-0.9,2.7
			c-1.5-0.1-2.6-2-2.2-3.3C219.9,43.9,217.4,38.2,214.3,32.6z"/>
		<path class="st2" d="M206.4,15.4c-0.7-0.6-0.7-1.4-0.5-2.1c1.3-2.9-1.8-4.1-2.5-6.3c-0.2-0.6-1.3-0.7-2-0.5
			c-0.7-1.1-0.6-2.2,0.3-3.1c1.1-1,2.1-0.1,3.1,0.4c0.9,0.5,1.8,1,2.6,1.6c2.6,1.7,3,5,1,7.3C207.7,13.6,206.8,14.3,206.4,15.4z"/>
		<path class="st4" d="M152,81.8c0.1,0.5,0.2,1,0.4,1.5c0,0.1,0.1,0.2,0.2,0.3c-0.1,0.4-0.1,0.8-0.2,1.2c-0.4,0.3-0.5,0.8-0.2,1.2
			c-0.6,2.3-2.4,2.3-4.3,2.3c-25.8,0-51.5,0-77.3,0c-2.9-0.1-5.8-0.3-8.7-0.2c-3.1,0.1-6,0.2-6.6-3.9c1.7-1.9,0.7-4,0.5-6.1
			c-0.1-1-0.8-2.1,0.2-3.1c1.6-0.4,1.1-1.4,0.7-2.4c-2.4-6-7.2-9.1-12.9-11.3c-3.7-1.4-7.4-1.9-11.3-1.7c-1.7,0.1-2.4-0.5-2.7-2.4
			c-0.6-4.1-1.7-8.1-2.6-12.1c-0.7-3.1,0.3-4.7,3.2-5.4l0,0c-0.2,2-2.9,2.7-2.2,5.2c0.9,3.1,1.7,6.4,2.1,9.6c0.4,3.3,2,3.9,5.1,4
			c10.1,0.5,18.8,3.7,22.7,14.2c0.6,1.5,1.6,2.2,3.3,2.1c10.5-0.4,20.9,0.5,31.4,0.6c2.4,0,3-0.7,3-3.1c-0.1-15.5-0.1-31.1,0-46.6
			c0-2.7-1.1-3.5-3.3-3.7c-0.7-0.1-1.3,0-2-0.1c-10.1-0.6-20.1,0.8-30.2,1.3C55,23.9,49.7,25,45.1,28.3c-1.7,1.2-3.1,3.2-5.5,3.1
			l0,0c3.6-4.2,8.3-6.6,13.6-7.8c6.2-1.4,12.6-1.9,19-1.8c4.3,0.1,8.5-0.8,12.7-0.5c8.8,0.5,17.7-0.4,26.5,1.5
			c6.4,1.4,12.4,3.7,18.2,6.7c7.9,4.1,16,7.9,23.7,12.4c1.8,1.1,2.1,1.9,1.7,3.8c-2.3,9.5-4.6,19-4.8,28.8
			C150,77,151.1,79.4,152,81.8z M114.9,25.8C114.9,25.8,114.9,25.8,114.9,25.8c-0.1-0.3-0.2-0.9-0.4-0.9c-5.2-1.5-10.5-2.3-15.9-1.9
			c-0.8,0-1.2,0.4-1.2,1.2c-0.1,4.6-0.6,9.2-0.3,13.7c0.4,7-0.6,14,0.2,21c0.5,4.6,0.3,9.2-0.4,13.8c-0.4,2.7,0.7,3.6,3.5,3.6
			c6.4-0.2,12.9-0.4,19.3,0.1c9.1,0.7,18.1,0.2,27.2,0.5c1.5,0.1,2.3-0.6,2.3-2.2c0.3-8.5,2-16.8,3.9-25c0.4-1.8,1.4-3.8,1-5.4
			c-0.5-2-3.1-2-4.8-3c-0.8-0.5-1.5-1-2.4-1.5c-7-3.8-13.9-7.6-21.2-10.6C122.1,27.7,119,25.1,114.9,25.8z"/>
		<path class="st4" d="M18.9,77.9c-0.2,2.6-1.4,3.4-3.9,2.5c-3.1-1-6.3-1.6-9.5-2.6c-3-0.9-4.2-2.8-3.4-5.1c5.3,0,10.6,0,15.8,0.1
			c2,0,0.4,1.6,0.8,2.4C19.6,76,18.8,77,18.9,77.9z"/>
		<path class="st5" d="M2.4,59.8c-1.7-3.1-1.5-6.2-0.1-9.4c3.2,0,6.4,0,9.6,0c2.9,0,3.2,0.5,2.3,3.1c-1.6,4.5-4,6.1-8.7,6.2
			C4.5,59.8,3.4,59.8,2.4,59.8z"/>
		<path class="st4" d="M195.5,78.5c1.4,2.9,2.8,5.7,3.5,8.9c-6,2-9.6,0.2-10-4.9c0.8-1.7-0.6-3.7,0.8-5.2
			C192,76.3,193.9,76.5,195.5,78.5z"/>
		<path class="st0" d="M194.8,54.5c0.4,3.8-0.5,7.4-0.7,11.2c-2.4-0.9-5.1-1.2-6.4-4c-1.9-4.1-0.3-6.9,4.2-7
			C192.9,54.7,193.9,54.6,194.8,54.5z"/>
		<path class="st4" d="M30.5,39.9c2.1-3.8,5.3-6.5,9.1-8.5c0,0,0,0,0,0C37,34.7,34,37.6,30.5,39.9L30.5,39.9z"/>
		<path class="st3" d="M25.9,81.5c0-6.7,5.3-11.9,11.9-11.8c6.6,0.1,11.9,5.5,11.8,12c-0.1,6.5-5.6,11.9-12.1,11.8
			C30.9,93.3,25.8,88.2,25.9,81.5z M45.8,81.8c0-4.3-3.8-8.3-8-8.3c-4.4,0-7.9,3.5-8,7.9c-0.1,4.6,3.3,8.2,7.8,8.3
			C41.6,89.8,45.7,85.8,45.8,81.8z"/>
		<path class="st3" d="M182.5,81.7c0,6.6-5.3,11.9-11.9,11.9c-6.5-0.1-12-5.6-11.9-12c0.1-6.6,5.4-11.8,12-11.8
			C177.3,69.7,182.5,75,182.5,81.7z M170.6,73.8c-4.5,0-8,3.3-8,7.7c0,4.3,3.7,8.1,8.1,8.2c4.3,0.1,7.9-3.7,7.8-8.3
			C178.5,76.7,175.5,73.8,170.6,73.8z"/>
		<path class="st3" d="M206.5,96.3c0.8,0.6,0.8,1.6,1.3,2.4c-3.9,0-7.7,0-11.6,0c2-1.6,4.4-2,6.7-2.7
			C204,96.9,205.3,96.5,206.5,96.3z"/>
		<path class="st1" d="M153.1,83.4c-0.2,0.1-0.4,0.1-0.6,0.2c-0.1-0.1-0.1-0.2-0.2-0.3C152.6,83.3,152.8,83.3,153.1,83.4z"/>
		<path class="st4" d="M211.7,84.1c-1.5,3.4-2.8,4.1-6.7,3.4c-1.3-3.3-2-6.7-2.7-10.1c1.6-0.2,3.3-0.4,4.8,0.4c0,0,0.1,0.2,0.1,0.2
			c0,0.2,0.1,0.3,0.3,0.3C209.5,79.9,210.8,81.9,211.7,84.1z"/>
		<path class="st1" d="M207.2,77.8c-1.6-0.8-3.2-0.6-4.8-0.4c-1-2.9-2-5.8-0.4-8.8C204.4,71.4,205.5,74.8,207.2,77.8z"/>
		<path class="st1" d="M207.7,78.3c-0.2,0-0.3-0.1-0.3-0.3C207.6,78,207.7,78.1,207.7,78.3z"/>
		<path class="st0" d="M184.6,7.4c-5.1,0-10.2,0-15.3,0c5.1-1,10.2-0.9,15.3-0.8C184.6,6.9,184.6,7.1,184.6,7.4z"/>
		<path class="st0" d="M169.4,15.3c-4.2,0-8.3,0-12.5,0c0-0.2,0-0.3,0-0.5c4.2,0,8.3,0,12.5,0C169.4,15,169.4,15.1,169.4,15.3z"/>
		<path class="st0" d="M172.1,14.7c4,0,8.1,0,12.1,0c0,0.2,0,0.3,0,0.5c-4,0-8.1,0-12.1,0C172.1,15,172.1,14.8,172.1,14.7z"/>
		<path class="st0" d="M184.7,11.2c-3.2,0-6.5,0-9.7,0c0-0.1,0-0.3,0-0.4c3.2,0,6.5,0,9.7,0C184.7,11,184.7,11.1,184.7,11.2z"/>
		<path class="st0" d="M171.7,11c-2.1,0.6-4.2,0.6-6.4,0C167.4,10.3,169.6,10.4,171.7,11z"/>
		<path class="st0" d="M156.9,11.1c1.9-0.8,3.9-0.7,5.8-0.1C160.8,11.8,158.8,11.4,156.9,11.1z"/>
		<path class="st1" d="M206.5,96.3c-1.2,0.2-2.5,0.6-3.6-0.3c0.1-0.4,0.2-0.7,0.3-1.1c0.8-0.6,1.8-0.6,2.7-0.4
			C206.1,95.1,206.3,95.7,206.5,96.3z"/>
		<path class="st1" d="M114.9,25.8c4.1-0.6,7.2,1.9,10.6,3.4c7.3,3,14.2,6.9,21.2,10.6c0.8,0.5,1.6,1,2.4,1.5c1.7,0.9,4.3,1,4.8,3
			c0.4,1.6-0.6,3.6-1,5.4c-1.9,8.2-3.6,16.5-3.9,25c-0.1,1.6-0.8,2.2-2.3,2.2c-9-0.3-18.1,0.3-27.2-0.5c-6.4-0.5-12.8-0.3-19.3-0.1
			c-2.8,0.1-3.9-0.9-3.5-3.6c0.7-4.6,0.9-9.3,0.4-13.8c-0.8-7,0.2-14-0.2-21c-0.2-4.5,0.2-9.1,0.3-13.7c0-0.8,0.4-1.2,1.2-1.2
			c5.4-0.3,10.7,0.4,15.9,1.9C114.7,24.9,114.8,25.5,114.9,25.8c-4,0-8.1,0.2-12.1-0.1c-2.8-0.2-3.4,1-3.3,3.4c0.1,3.7,0,7.4,0,11
			c0,3.7,0.7,4.5,4.4,4.6c12.7,0.5,25.4,1,38.1,1.5c1.5,0.1,2.9,0.1,3.5-1.6c0.6-1.6-0.4-2.8-1.6-3.6c-2.5-1.7-5-3.3-7.6-4.8
			C129.5,32.1,122.3,28.8,114.9,25.8z M106.2,51.2c1.7,0,3.4,0,5.1,0c0.7,0,1.3-0.3,1.3-1.1c0-0.7-0.4-1-1.1-1c-3.4,0-6.7,0-10.1,0
			c-0.6,0-1.1,0.3-1.1,1c-0.1,0.8,0.4,1.2,1.2,1.2C103.1,51.2,104.7,51.2,106.2,51.2z"/>
		<path class="st1" d="M30.5,39.9c3.5-2.3,6.5-5.2,9.1-8.5c2.4,0,3.8-1.9,5.5-3.1c4.6-3.2,9.9-4.4,15.2-4.7
			c10.1-0.5,20.1-1.9,30.2-1.3c0.7,0,1.3,0,2,0.1c2.2,0.2,3.4,1,3.3,3.7c-0.2,15.5-0.1,31.1,0,46.6c0,2.3-0.6,3.1-3,3.1
			c-10.5-0.1-20.9-1-31.4-0.6c-1.6,0.1-2.7-0.6-3.3-2.1c-3.9-10.6-12.6-13.8-22.7-14.2c-3.1-0.1-4.7-0.7-5.1-4
			c-0.4-3.2-1.2-6.5-2.1-9.6C27.5,42.6,30.3,41.8,30.5,39.9z M63.7,44.8c0,0.1,0,0.3,0,0.4c8.3,0,16.6,0,24.9,0c3.5,0,4.7-1,4.8-4.5
			c0.1-4,0-8.1,0-12.2c0-3.8-0.3-4.4-4.2-4.7c-9.9-0.7-19.8-0.6-29.6,1.5c-9.5,2.1-17.2,7.5-23.8,14.5c-0.9,0.9-1.9,1.9-1.7,2.9
			c0.3,1.4,1.8,1.7,3.2,1.9c0.8,0.1,1.7,0.1,2.5,0.1C47.8,44.8,55.8,44.8,63.7,44.8z M42.1,47.9c-1.6,0-3.2,0-4.8,0
			c-0.6,0-1.4-0.1-1.5,0.8c-0.1,0.8,0.5,1.3,1.2,1.3c3.5,0,6.9,0,10.4,0c0.7,0,1.2-0.6,1.1-1.4c-0.1-0.7-0.7-0.7-1.3-0.8
			C45.4,47.9,43.7,47.9,42.1,47.9z"/>
		<path class="st1" d="M152.3,84.7c0.2,0.5,0.1,0.9-0.2,1.2C151.8,85.5,151.9,85.1,152.3,84.7z"/>
		<path class="st0" d="M45.8,81.8c0,4-4.1,8-8.1,7.9c-4.5-0.1-7.9-3.8-7.8-8.3c0.1-4.4,3.6-7.9,8-7.9C42,73.5,45.8,77.5,45.8,81.8z"
			/>
		<path class="st0" d="M170.6,73.8c4.8,0,7.9,3,7.9,7.6c0,4.6-3.6,8.3-7.8,8.3c-4.4-0.1-8.2-3.8-8.1-8.2
			C162.7,77.1,166.1,73.8,170.6,73.8z"/>
		<path class="st2" d="M114.9,25.8c7.4,3,14.6,6.3,21.5,10.4c2.6,1.5,5.2,3.1,7.6,4.8c1.2,0.8,2.2,2,1.6,3.6
			c-0.6,1.7-2.1,1.7-3.5,1.6c-12.7-0.5-25.4-1-38.1-1.5c-3.8-0.2-4.4-0.9-4.4-4.6c0-3.7,0.1-7.4,0-11c-0.1-2.4,0.5-3.6,3.3-3.4
			C106.8,25.9,110.9,25.8,114.9,25.8C114.9,25.8,114.9,25.8,114.9,25.8z"/>
		<path class="st4" d="M106.2,51.2c-1.6,0-3.2,0-4.8,0c-0.8,0-1.3-0.4-1.2-1.2c0-0.7,0.5-1,1.1-1c3.4,0,6.7,0,10.1,0
			c0.6,0,1,0.4,1.1,1c0,0.9-0.6,1.1-1.3,1.1C109.6,51.2,107.9,51.2,106.2,51.2z"/>
		<path class="st2" d="M63.7,44.8c-7.9,0-15.9,0-23.8,0c-0.8,0-1.7,0-2.5-0.1c-1.4-0.2-2.9-0.5-3.2-1.9c-0.2-1,0.8-2,1.7-2.9
			c6.6-7,14.3-12.4,23.8-14.5c9.8-2.1,19.7-2.2,29.6-1.5c3.8,0.3,4.2,0.9,4.2,4.7c0,4.1,0.1,8.1,0,12.2c-0.1,3.4-1.3,4.5-4.8,4.5
			c-8.3,0-16.6,0-24.9,0C63.7,45.1,63.7,44.9,63.7,44.8z"/>
		<path class="st4" d="M42.1,47.9c1.7,0,3.4,0,5.1,0c0.6,0,1.2,0,1.3,0.8c0.1,0.8-0.4,1.3-1.1,1.4c-3.5,0.1-6.9,0.1-10.4,0
			c-0.7,0-1.3-0.5-1.2-1.3c0.1-0.9,0.9-0.8,1.5-0.8C38.9,47.8,40.5,47.9,42.1,47.9z"/>
	</g>
</g>
</svg>
