<?xml version="1.0" encoding="utf-8"?>
<!-- Generator: Adobe Illustrator 23.0.1, SVG Export Plug-In . SVG Version: 6.00 Build 0)  -->
<svg version="1.1" id="Layer_1" xmlns="http://www.w3.org/2000/svg" xmlns:xlink="http://www.w3.org/1999/xlink" x="0px" y="0px"
	 viewBox="0 0 327.8 243.5" style="enable-background:new 0 0 327.8 243.5;" xml:space="preserve">
<style type="text/css">
	.st0{fill:#F6D2A0;}
	.st1{fill:#C1D5EF;}
	.st2{fill:#C69152;}
	.st3{fill:#32334A;}
	.st4{fill:#DFE9F2;}
	.st5{fill:#9DBDE7;}
</style>
<g id="Y5adgm_1_">
	<g>
		<path class="st0" d="M282.8,232.1c-4.1,0.1-8.1,0.3-11.7-2.7c5.2-2.1,10.6-2.3,15.7-3c-4.3-1.4-9-0.6-13.5-1.5
			c-3.1-0.6-6.5,0.4-9.8,0.7c-0.3,0-0.7,0.2-0.8,0.4c-0.2,0.5,0.2,0.7,0.5,0.9c1.1,0.8,2.5,0.3,4,0.7c-2.1,0.6-3.9,1.1-6.3,1.8
			c2.4,0.7,4.4,0.9,5.9,1.7c5.4,3,11.4,2.9,17.3,3.4c3.4,0.3,6.8,0.8,10.1,1.5c2.5,0.5,5.1,0.8,7.7,1.1c0.5,0.1,1.1,0,1.1-0.6
			c0-0.6-0.6-0.7-1-0.7c-1.2-0.1-2.4-0.1-3.7-0.1c-2.8-0.1-5.4-1.1-8.4-1.8c3.4-2.3,6.9-1.4,10.1-2.1c-7.9-1.6-15.6-4.6-24.1-2.5
			C278,231.6,280.8,230.4,282.8,232.1z M122.8,229c3.2,3,11.6,3.7,20.7,2c-0.3-1.5-1.1-2-2.7-2.1c-5.6-0.3-11.3,1.2-16.9-0.3
			C123.7,228.5,123.4,228.8,122.8,229z M292.1,226.5c2.3,0.6,3.8,2.9,6.2,2.3c1.9-0.4,3.7-0.3,5.5-0.4c1.2-0.1,3.5,0.8,3.5-0.3
			c0-1.4-2.3-0.9-3.5-1C300,226.8,296.4,224.3,292.1,226.5z M199.8,235.9c-4.1-4.4-8.3-1.5-12.3-1.2
			C191.4,235.3,195.3,236,199.8,235.9z M150.7,229.9c3.3,1,6.6,1.3,9.9,1.1c0.5,0,1.2-0.1,1.1-0.7c-0.2-1.1-0.8-0.2-1.2-0.1
			c-1.1,0.3-2.2-0.2-3.3-0.4C155.1,229.5,152.9,229.4,150.7,229.9z M134.2,232.8c3,1.2,6.1,0.5,9.1,0.8
			C140.3,233.1,137.3,232.1,134.2,232.8z"/>
		<path class="st1" d="M165.7,90.8l0.2,0l-0.1-0.2L165.7,90.8z"/>
		<path class="st2" d="M178.1,224.2c-0.1,0.3-0.2,0.5-0.2,0.6c0,0.1,0.3,0.2,0.4,0.2c0.2-0.1,0.3-0.3,0.5-0.4
			C178.5,224.5,178.4,224.4,178.1,224.2z"/>
		<path class="st2" d="M106.6,202c1.2,0.9,2.7,1.5,3.6-0.2c0.8-1.6-1.2-1.4-1.9-2c0.1-1,0.3-1.8,1.6-1.4c2,0.6,4.2-0.3,6.1,1.1
			c0.5,0.3,1.6,0.4,2-0.4c0.4-0.9-0.5-1.2-1-1.3c-3-0.5-5.8-2-9-2.1c-1.1,0-2.1,0-3.1-1c-0.9-0.9-1.6-0.7-1.9,0.8
			c-0.2,1.3,1,2,1.1,3.2c-2.2-0.3-3.7-1.2-4.2-3.5c-0.1-0.6-0.4-1.3-0.8-1.7c-0.5-0.6-1.5-0.6-1.3,0.4c0.4,2.1-0.9,2.9-2.5,3.5
			c-0.6,0.2-1,0.7-0.9,1.3c0.2,0.7,0.9,0.6,1.4,0.6c1.6,0,3,0.5,4.4,1.3c1.5,0.8,3.1,1.2,4.9,0.8c0.2,0,0.4,0,0.6,0
			C106.1,201.8,106.3,201.9,106.6,202z M147,200.1c-4.1,0.8-8.1,1.7-12.2,2.3c-1.6,0.2-2,1.5-2.1,2.3c-0.1,1.4,1.4,0.5,2.1,0.7
			c1.1,0.4,1.7-0.4,2.4-1.1c0.8-0.8,1.9-1.5,2.2,0.7c0.3,2.1,1.6,3.6,3.9,2.5c2.4-1.1,4.6-0.3,6.8,0.2c1.5,0.3,2.9,0.8,4.5,0.9
			c0.5,0,1.3,0.4,1.4-0.4c0.1-0.7-0.5-0.9-1.1-1c-3-0.4-5.2-1.8-5.5-4.9c-1.5-0.4-0.1,1.5-1.4,1.3c-1-0.2-0.9-1.2-1.3-1.7
			C145.9,200.8,147.3,200.9,147,200.1z M109.4,189.8c0,0.1,0,0.1,0,0.2c-1.3,0-2.6-0.1-3.9,0c-0.7,0.1-2.1-0.7-2.1,0.7
			c0,1.2,1.1,1.6,2.3,1.6c1.7,0,3.3,0.3,4.9,0.8c2.1,0.6,4,1.8,6.3,1.7c1,0,2-0.2,1.3-1.5c-1.1-2-2.4-3.7-5-3.5
			C112,189.9,110.7,189.8,109.4,189.8z M176,218.8c-1.4-0.5-2.9-0.6-4.4-0.7c-2.6-0.2-4.8,1.3-7.3,1.2c-3.6-0.1-7.3-0.1-10.9-0.2
			c-1.8,0-3.4,0.5-5.2,2.1C157.9,220.4,167.1,221.6,176,218.8z M190.6,214.5c1,3.2,2.4,0.7,3.6,0.6c1.3-0.1,2-1.2,1.6-2.2
			c-0.4-1-2-0.7-2.5-0.2c-1.3,1.3-2.6,0.7-3.9,0.5c-1-0.2-2-1.6-3-0.3c-0.9,1.3,0.8,1.6,1.2,2.5c0.1,0.1,0.1,0.3,0.1,0.5
			c0.1,0.6,0.3,1.4,1,1.5c0.9,0.1,0.8-0.9,1.2-1.3C190.1,215.8,190.2,215.3,190.6,214.5z M132.1,209.2c3.6,0,7.2,0,10.9,0
			C139.3,209.5,135.7,204.9,132.1,209.2z M230.3,213.4c-1.7-1.6-1.6-5-5.2-3.5C226.5,211.5,226.7,214.2,230.3,213.4z M119,203.6
			c-1.7,1.9-2.2,3.7-2.5,6C118,207.7,118.8,206,119,203.6z M149.9,209.3c-1.9-1.1-3.1-0.8-4.8,0
			C146.9,209.3,148.1,209.3,149.9,209.3z M231.2,210.3c-0.1-0.1-0.3-0.2-0.4-0.1c-0.1,0-0.1,0.2-0.2,0.4c0.1,0.1,0.3,0.2,0.4,0.1
			C231.2,210.6,231.2,210.4,231.2,210.3z M158.2,209.3c-0.1-0.2-0.1-0.5-0.2-0.6c-0.2-0.2-0.5-0.1-0.5,0.2c0,0.2,0.2,0.4,0.3,0.6
			C157.9,209.4,158.1,209.3,158.2,209.3z M208.8,211.7l-0.1,0.2l0.1,0L208.8,211.7z M229.4,209.7c0.1,0,0.1,0,0.2,0.1
			c0-0.1,0.1-0.2,0.1-0.2c0,0-0.1-0.1-0.2-0.1C229.4,209.6,229.4,209.7,229.4,209.7z M92.7,192.8c0-0.1-0.1-0.1-0.1-0.2
			c0,0-0.1,0.1-0.1,0.1c0.1,0.1,0.1,0.1,0.2,0.2C92.7,192.9,92.7,192.9,92.7,192.8z"/>
		<polygon class="st2" points="177.5,219.1 177.6,218.9 177.4,218.9 		"/>
		<path class="st3" d="M180.1,221.4c-0.4-0.1-0.8,0-1.2,0c-24,0.4-47.9,0.8-71.9,1.2c-1.7,0-3.4,0.9-5.7-0.3c3.7,0,6.8,0,9.9,0
			c2.7,0,5.4,0.2,7-2.6c0.2-0.4,0.7-0.3,1.1-0.3c1,0,1.7-0.6,2.4-1.4c1.6-2.1,3.6-2.8,5.3-1.5c1.5,1.2,2.9,1,4.5,0.9
			c0.6,0,1.3-0.7,2,0c-0.1,0.4-0.3,0.4-0.5,0.4c-0.9,0-2.3-0.2-2.1,1.2c0.2,1,1.3,2,2.6,1.3c0.9-0.5,1.9,0.4,2.8-0.5
			c0.3-0.3,0.9-0.2,1,0.2c0.3,0.6-0.3,0.8-0.8,0.9c-0.4,0.1-0.8,0.1-1.2,0.2c3.6,0.9,6.8-1.3,10.3-0.7c0.4,0.1,0.8-0.1,0.8-0.6
			c0.3-2.2,1.9-2.1,3.5-2.3c2.4-0.3,5.1-0.3,7-1.5c2.2-1.3,3.9-0.3,5.7-0.4c-1.1,0.9-2.8-0.2-4.1,1.5c4-0.2,7.7-0.5,11.3-0.7
			c-1.2-0.9-2.6-1.1-2.7-2.8l0,0c-0.6,0-1.3,0-1.9,0c-0.8-1.3-2.1-1.4-3.4-1.9c-1.9-0.7-3.4-1.5-5.3-0.2c-0.1,0.1-0.4-0.2-0.6-0.4
			l0,0c-1.5,1.1-3.1,1.9-5.1,1.7c-3.1-0.4-6.3-0.8-9.4-1.2c-3.2-0.4-5.5,1-7.4,3.3c-0.2,0.2,0,1-0.7,0.6c-1.7-0.9-3.7-2.4-3.6-3.9
			c0.1-2.2-1-1.6-2-1.8c-0.7-0.1-1.5,0.2-2.1-0.7c1.1-0.8,2.5-1.8,1.1-3.1c-1.5-1.4-1.4-3.1-1.5-4.9c-0.1-1.8-0.8-3.2-2.8-3.7
			c-0.3,0.9,0,2-1.1,2.4c-1.7,0.7-1.1,1.5-0.1,2.2c1.8,1.2,2.4,3,1.8,4.9c-0.6,1.8-1.6,3.5-2.7,5.1c-0.4,0.6-0.7,1.5-1.6,1.6
			c-1.6,0.1-1.7,0.2-1.2,1.8c0.4,1.4-0.5,1-1.2,1c0.9,1.8,0.7,3-1.6,3.5c-3.2,0.8-6.3,1.4-9.6,1.7c-0.6,0.1-1.3,0.2-1.9,0
			c-1.2-0.4-2.7-0.9-2.7-2.4c0-1.7,1.6-1.5,2.7-1.7c1.8-0.3,3.7-0.6,5.5-0.8c1.4-0.2,2.9-1.1,3.9,1c0.3,0.6,1.5,0.6,1.8-0.6
			c0.2-0.6,0.2-1.3,0.2-1.9c1-0.1,1.1,0.7,1.5,1.1c-0.3-2.8-2.7-4.3-3.9-6.5c-0.3-0.5-0.7-1.1-1.3-0.8c-0.8,0.4-0.4,1-0.2,1.6
			c0.5,2.5-0.6,3.8-2.9,3.3c-2.9-0.7-5.6-2-8.8-3.6c1.6-0.2,2.5-0.3,3.5-0.4c-1.1-2.7-4.9-0.8-6-3.6c2.5-0.7,5-1.3,8.2-1.3
			c-2.7-1.2-4.9-0.8-7.1-1c-2.8-0.3-4.7-3.8-8.1-2.4c-0.2,0.1-0.3-0.1-0.4-0.3c-1.3,1.5-2.5,3-4,4.2c0.4,0.5,0.7,1.1,0.7,1.8
			c0.1,1.1,0.8,2.9-1.5,3c-2,0.1-4,0.1-6.1,0.2c-0.5,2.3-0.4,4.7,0.1,7c0.2,1,0.5,2.1-1.1,0.9c-0.9-0.7-1.5,0.3-2.2,0.4
			c-1.4,0.2-3,0.6-4.2-0.4c-1.1-0.9-1.2-2.4-0.8-3.6c0.6-2.1,2.5-2.3,4.3-2.4c1.2,0,2.4,0.1,2.4-1.6c-4.1,0.1-8.1,0.1-12.2,0.5
			c-8.5,0.7-16.9,1-25.2-1.4c-6.7-1.9-13.4-4-20.2-6c-2.7-0.8-5.4-1.2-8.2-0.7c-3.8,0.7-6.8,2.5-6.1,7.1c0.3,1.7,1.1,3,2.1,4.3
			c4,5.1,9.6,7.6,15.8,9c8,1.7,16.1,2.2,24.2,2.4c23.9,0.6,47.7-0.9,71.5-1.5c16.4-0.4,32.8-0.8,49.2-0.8c1.1-0.1,2.1-0.1,3.2-0.2
			c3.1-0.1,6.2,0,9.3-0.2c1,0,2.9,0.5,2.9-0.9C183,220.8,181.1,221.6,180.1,221.4z M166.6,214.8c0,0.1,0.1,0.1,0.1,0.2
			c-0.1,0.1-0.2,0.1-0.4,0.2c0,0-0.1-0.1-0.1-0.2C166.4,215,166.5,214.9,166.6,214.8z M127.8,213.3c0.9-0.3,1.9,0.3,2,1.2
			c0.1,0.9-1,0.8-1.7,0.8c-1-0.1-2.3,0.7-3-1C125.7,213.5,126.9,213.6,127.8,213.3z M25.7,222.8c2.2-0.7,3.6,0.5,5.1,0.5
			C29.2,223.5,27.7,223.7,25.7,222.8z M44.2,223.9c-0.1,0-0.1-0.1-0.2-0.1c0.1-0.1,0.2-0.1,0.3-0.2c0,0,0.1,0.1,0.2,0.1
			C44.4,223.8,44.3,223.8,44.2,223.9z M46,224.2c2.5-0.5,5-1.4,7.4,0H46z M89,218.8c-0.7-0.7-0.7-1.5-0.2-2.5
			C89.4,217.1,89,218,89,218.8z M90,205.6c-0.2,0.2-0.3,0.3-0.5,0.5c-0.1,0.4-0.1,0.8-0.5,0.9c-0.1,0.4-0.2,0.7-0.4,1.1
			c-1.2,2.8-1.4,5.8-1.5,8.8c-0.6-3.2-0.8-6.3,1-9.2c0.2-0.3,0.5-0.5,0.7-0.8c0-0.4,0.1-0.8,0.4-1l0.4-0.6l0.5-0.5
			c0.2-0.3,0.4-0.5,0.7-0.8c0.2-0.1,0.3-0.2,0.5-0.3l-0.1,0.6c-0.1,0.4-0.3,0.7-0.7,0.8C90.3,205.3,90.2,205.5,90,205.6z
			 M90.8,219.7c0.5-0.9-0.5-1.9,0.9-2.3c0.1,0.9,1.1-0.4,1.2,0.4C93.1,219.3,91.9,219.2,90.8,219.7z"/>
		<path class="st3" d="M197.1,223.4c1-1.3,2.4-1.3,3.8-1.3c1,0,1.9-0.1,2.9-0.1c1.4-0.1,2.2-0.7,2.1-2.2c3.3,1.9,6.6,0.3,9.8,0.2
			c1.2-0.1,2.5-0.6,3.8-0.8c0.7-0.1,1.7,0,2.1-0.4c3.2-3.7,6,0.1,8.9,0.5c1.7,0.2,3.4,2.2,5-0.4c0.2-0.3,1.7,0.1,2.5,0.5
			c3.7,2,7.7,1,11.6,1.1c0.8,0.3,1.6-0.1,2.4-0.2c1,0.2,1.9-0.1,2.2-1c0.3-0.9,0-1.9-1-2.4c0.1-0.5,0.1-1,0.2-1.5
			c0.7-0.9,0.3-1-0.7-1.3c-2.3-0.7-4.3-3.5-4.2-5.3c0.6,0,1.2,0,1.7-0.1c0,0,0,0.1,0,0.1l0-0.1c9.1,0,18.2,0,27.3,0c0,0,0,0.1,0,0.1
			l0-0.1c10.2-0.7,20.2-3.1,30.1-5.6c2.6-0.7,5.2-1.1,7.8-1.7c1.4-0.3,2.7,0,3.5,1.1c0.8,1.1,0.2,2.3-0.5,3.3c-2.1,3-5.1,4.9-8.1,7
			c-3.7,2.7-7.5,5.1-11.8,6.8c-8.1,2.7-16.4,4.2-25,4.2c-24.9-0.2-49.7-0.3-74.6-0.4C198.4,223.3,197.8,223.4,197.1,223.4z"/>
		<path class="st3" d="M118.7,186.5c1.4-0.1,0.9,1,0.9,1.6c-0.1,1-0.7,0.5-1.2,0.3c-0.2-0.1-0.5-0.3-0.7-0.4c0,0,0.1,0,0.1,0
			c-0.6-0.7-1.2-1.6-1.9-2.2c-1.2-1-2.7-2.7-3.6-2.5c-2.1,0.6-4.3,0.3-6.4,0.9c-2.3,0-4.2,1.2-6.3,2c-2.1,0.8-4.2,2.3-6.5,0.4
			c-1.5-3.4-3.8-6.4-5.6-9.6c0-0.6,0-1.1,0-1.7l0.1-0.1c1.1-0.4,2.1,1.1,3.4,0.4c-0.9-1-1.8-1.8-2.9-2.3c-1.4-0.7-1,0.4-1.1,1
			l-0.1,0.1c-1.9-2.7-2.6-5.2,0.3-7.8c1.3-1.2-0.9-2.6-0.7-4c2,0.6,4.2,1,6.2,0.5c2.2-0.6,3,0.1,4,2c1.2,2.2,0.1,1.9-1.4,2
			c-2.1,0-4.4-0.9-6.8,0.7c3.8,0.8,7.3,1.3,10.4,3.4c-1.2,1.2-4,2.1-2.1,3.9c2.1,2,3.4-0.6,4.6-2.1c0.9,0.3,0,1.5,0.9,1.5
			c0.8,0,1.4-0.5,1.7-1.2c1.9-3.4,5.2-5.8,7.2-9.2c0.3,1.1,1,1.8,1.8,2.5c2.3,1.8,3.9,4,4.5,6.9c0.2,1,0.5,2,0.7,3.1
			c-0.1,1.2,0.3,2.4,0.5,3.5c-0.4,1.7,0.5,3.3,0.4,5l0,0C118.4,185.3,118.6,185.9,118.7,186.5c0,0.1-0.1,0.1-0.1,0.2
			C118.6,186.6,118.6,186.5,118.7,186.5z M111.3,176c-3.5,1.4-3.7,1.7-4.6,5.7c-0.1,0.5-0.4,1.1,0.2,1.3c0.7,0.2,1-0.4,1.1-1
			c0.1-1.9,1-3.3,2.5-4.5C110.9,177.2,111.5,177,111.3,176z M86.8,167.8c2.4,3.1,4.6,3.5,7,1.5C91.2,170.9,89.4,169,86.8,167.8z
			 M92.6,178.2c1.7,0.4,3.3,0.5,5-0.1c-0.7-0.2-1.4-0.3-2.1-0.3C94.5,178,93.5,178.1,92.6,178.2z"/>
		<path class="st2" d="M282.8,232.1c-1.9-1.6-4.8-0.5-6.9-2.8c8.5-2,16.2,0.9,24.1,2.5c-3.2,0.7-6.7-0.2-10.1,2.1
			c3,0.7,5.6,1.7,8.4,1.8c1.2,0,2.4,0.1,3.7,0.1c0.5,0,1.1,0.1,1,0.7c0,0.6-0.7,0.7-1.1,0.6c-2.6-0.3-5.2-0.6-7.7-1.1
			c-3.3-0.7-6.7-1.2-10.1-1.5c-5.8-0.5-11.9-0.4-17.3-3.4c-1.6-0.9-3.5-1.1-5.9-1.7c2.4-0.7,4.2-1.2,6.3-1.8c-1.5-0.4-2.9,0.1-4-0.7
			c-0.3-0.2-0.8-0.5-0.5-0.9c0.1-0.2,0.5-0.4,0.8-0.4c3.3-0.3,6.7-1.3,9.8-0.7c4.5,0.9,9.2,0.1,13.5,1.5c-5.1,0.7-10.4,0.9-15.7,3
			C274.7,232.4,278.7,232.2,282.8,232.1z"/>
		<path class="st2" d="M253.2,234.8c-3.4,1.1-6.7-0.1-10.1-0.6c-1.8-0.3-3.6,0-5.3-0.4c-1.1-0.2-2.7-0.3-2.6-1.7
			c0.1-1.2,1.7-0.5,2.8-1c-1.4-0.3-2.7-0.4-3.8-0.8c-1.8-0.6-2.9,0.1-3.5,1.7c-0.4,1.2-1.1,1.4-2.2,1.4c-3.6,0.1-7-1.6-10.6-1.1
			c-0.6,0.1-0.8-0.3-0.7-0.9c0.2-1.2,0.2-2.2-1.5-1.7c-0.6,0.2-0.8-0.2-0.6-0.7c0.2-0.8,0.7-1.3,1.6-1.2c2.1,0.2,4.1,0.6,6,1.6
			c2,1,3.6,1.4,5.5-0.6c1-1,3.3-0.7,4.8-1.3c3.9-1.5,7.6-0.3,11.4,0.3c2.3,0.3,4.7,0.1,7,0.1c1.6,0,1.7,0.9,2.2,1.6
			c0.8,1.1-0.6,1-1,1.4c-1.7,1.5-0.8,2.3,0.7,3C253.2,234.2,253.2,234.5,253.2,234.8z"/>
		<path class="st2" d="M122.8,229c0.6-0.2,0.9-0.4,1.1-0.4c5.6,1.4,11.2-0.1,16.9,0.3c1.5,0.1,2.4,0.5,2.7,2.1
			C134.3,232.7,125.9,232,122.8,229z"/>
		<path class="st2" d="M78.3,210.5c-0.5,2.3-0.4,4.7,0.1,7c0.2,1,0.5,2.1-1.1,0.9c-0.9-0.7-1.5,0.3-2.2,0.4c-1.4,0.2-3,0.6-4.2-0.4
			c-1.1-0.9-1.2-2.4-0.8-3.6c0.6-2.1,2.5-2.3,4.3-2.4c1.2,0,2.4,0.1,2.4-1.6C77.2,210.4,77.8,210.4,78.3,210.5z M75.1,213.7
			c-1.6,0-3,0.2-3.3,2c-0.2,1.3,0.7,2,1.9,2c1.4-0.1,2.6-0.8,2.8-2.4C76.7,213.9,75.9,213.7,75.1,213.7z"/>
		<path class="st2" d="M292.1,226.5c4.3-2.3,7.9,0.2,11.7,0.6c1.2,0.1,3.5-0.4,3.5,1c0,1.1-2.3,0.1-3.5,0.3c-1.8,0.2-3.7,0-5.5,0.4
			C295.9,229.4,294.4,227.2,292.1,226.5z"/>
		<path class="st3" d="M150.7,236c0.5,0.5,1.4,0.5,1.8,1.8c-5.7-1.5-11.4-1-16.8-2.8c-0.5-0.2-0.9-0.3-1-0.9c4.4,0,8.6,1.3,12.9,1.7
			C148.6,235.9,149.7,235.9,150.7,236z"/>
		<path class="st2" d="M199.8,235.9c-4.5,0.1-8.4-0.5-12.3-1.2C191.5,234.4,195.6,231.5,199.8,235.9z"/>
		<path class="st3" d="M164.6,229.1c0.8-1.2,1-2.5,3.1-1c1.9,1.3,4.7,0.6,7.1,0.3c0.6-0.1,1.2-0.4,2,0.1c-1.1,1.3-3,0.6-4.1,1.6
			C170,229.9,167.2,230.1,164.6,229.1z"/>
		<path class="st3" d="M210.2,223.4c-2,2.1-4.5,2.2-7.1,2.1c-0.7,0-1.7,0-1.7-0.9c0-1.1,1-0.7,1.7-0.8c1,0,2.1,0,3.1,0.2
			c1.1,0.2,1.9,0.1,2.6-0.7C209.2,223.4,209.7,223.4,210.2,223.4z"/>
		<path class="st2" d="M150.7,229.9c2.2-0.5,4.3-0.4,6.5,0c1.1,0.2,2.2,0.7,3.3,0.4c0.4-0.1,1-1,1.2,0.1c0.1,0.6-0.6,0.7-1.1,0.7
			C157.3,231.2,154,230.9,150.7,229.9z"/>
		<path class="st3" d="M253.2,234.8c0-0.3,0-0.6,0.1-1c1.4,0.2,2.8-0.4,4.2-0.6c0.3,0.2,0.5,0.3,0.8,0.5c0.4,0.2,1.1,0,1.2,0.5
			c0.2,0.8-0.8,0.6-1.1,1C256.6,235.1,254.9,235,253.2,234.8z"/>
		<path class="st2" d="M134.2,232.8c3.1-0.7,6.1,0.3,9.1,0.8C140.3,233.3,137.2,234,134.2,232.8z"/>
		<path class="st3" d="M196.7,231.3c2.7-1.2,5.3-1.1,8,0.1C202,231.3,199.4,231.3,196.7,231.3z"/>
		<path class="st2" d="M210.2,220.6c0.4,0.1,0.8,0.2,1.3,0.2c-1.1,1.6-2.8,0.9-4.2,1c-1,0.1-2.1,0-3.1-0.1
			C206.1,220.9,208.4,221.8,210.2,220.6z"/>
		<path class="st2" d="M193.1,236.9c-1.4,0.8-2.9,0.9-4.3,0C190.2,236.2,191.7,236.2,193.1,236.9z"/>
		<path class="st2" d="M164.8,220.6c0.9,0,1.8-0.3,2.7,0.3c-1.6,1.1-3.3,0.5-5,0.1C163.3,220.8,164.1,220.7,164.8,220.6z"/>
		<path class="st2" d="M167.5,220.8c1.1-0.1,2.2-0.2,3.3-0.3C169.9,222.2,168.7,221.2,167.5,220.8z"/>
		<path class="st2" d="M191.3,151c0,0.1,0,0.2,0.1,0.4c-0.1,0.8-0.4,1.5-1.4,1.6c-0.9-0.3-1.7-0.3-1.9,0.8c0,0,0,0,0,0
			c-1.5-0.1-2.7,1-4.1,1.3c-1.4,0.3-3.7,0.7-4-0.3c-0.9-2.9-3.7-4.6-4.1-7.8c-0.2-1.1-0.9-3.5-2.5-3.4c-1.5,0.1-1.6-0.7-2.3-1.4
			c-1.4-1.3-1.2-3.8-3.3-4.7c-0.3,1.5,0.7,2.5,0.9,3.6c0.4,2.3,1.2,4.6-0.5,6.7c-0.5-0.8-1-1.6-1.4-2.3c0.9-1.3,1-2.9-0.2-3.6
			c-2.5-1.5-4.8-3.4-7.7-4.2l0.1,0c-0.2-0.2-0.5-0.4-0.7-0.6c-0.7-1-1.4-1.9-2.1-2.9c1.3-0.5,2.4-0.1,3.6,0.7
			c1.7,1.2,3.6,2.2,5.4,3.2c0.6-1.3-0.2-2.2-0.4-3.2c-0.4-1.6-1.5-3.1-1.4-4.9c0.1-1.6-0.8-2.2-2-2.6c-2.3-0.8-2.5-2.1-0.7-3.9
			c1-1,1.7-2.3,2.4-3.5c0.3-0.4,0.2-1.2-0.4-1.1c-2,0.5-1.1-1.1-1.2-1.7c-0.2-2.1,0.3-4.3-1.2-6.1c0.7,0,1.5,0,2.2-0.1
			c3.2,0,6.8,2.5,8.1,5.9c1.5,3.9,2.9,7.9,5.3,11.4c2.4,3.5,4.8,6.9,7.8,9.9c3.1,3.1,5.5,6.8,7.1,10.9
			C190.4,150.1,190.5,150.7,191.3,151z"/>
		<path class="st2" d="M209.8,189.9c0.5,0.5,1.1,0.9,1.5,1.4c0.9,0.9,1-0.2,1.5-0.6c0.9,0.6,2.3,0.5,2.7,2c0.3,1.1,1.3,1.3,2.2,1.6
			c-0.6,0.7-1.5,1-2.3,1.2c-2,0.6-3.1-1.2-4.7-1.8c-5.2-2.1-10.1-0.7-14.9,1.1c0.6,1.6,1.8,1.5,3.1,1.4c0.6-0.1,0.9,0.4,0.9,0.9
			c-0.6,0.8-0.8,2.1-2.2,2.1c-1.3-1.5-5.2-0.7-6.6,1.4c-1.4,0.1-2.8-1.1-4.7,0.1c1.3-2.2,5-3,2.2-5.9c0.4,0,0.7,0.1,1-0.3
			c0,0-0.1-0.1-0.1-0.2c-0.4-0.1-0.7-0.1-0.9,0.4c-0.3,0.1-0.6,0.1-0.9,0.3c-0.6,0.5-1.3,1.3-2.1,0.8c-0.8-0.5-0.4-1.6-0.4-2.5
			c0-0.3,0-0.7,0.2-0.9c1.2-1.5,0.5-2.5-0.6-3.6c0.2-0.1,0.5-0.1,0.2-0.4c-0.1,0.1-0.2,0.2-0.2,0.3c-0.2,0.1-0.4,0.2-0.6,0.3
			c-0.2-0.7-0.4-1.4-0.6-2c2.1-1.2,3.4-3.6,6.1-3.9c2.2,0.3,4.2,1.3,6.5,0.5c0.8-0.3,2.1-0.2,2.9,0.6c-1.3,1.1-3.4,0.6-4.7,2.4
			c1.7,0.1,3,0.2,4.3,0.2c1.2,0,2,0.4,2.3,1.6c-1.2,0.1-2.4,0.1-3.6,0.3c-0.6,0.1-1.5,0.1-1.5,0.9c0,1,0.9,1,1.6,0.9
			c1.8-0.3,3.6-0.8,5.3-1.6c2.1-0.8,3.9,0.5,5.8,1.1C209,190.4,209.8,191.4,209.8,189.9z M186.3,188c-0.1-0.1-0.2-0.3-0.2-0.3
			c-0.1,0-0.3,0.1-0.4,0.2c-0.1,0.2,0,0.4,0.3,0.4C186.1,188.2,186.2,188.1,186.3,188z"/>
		<path class="st2" d="M165,97.4c0.4,0.9-0.7,2.3,0.9,2.9c-0.4,1.1,0.9,1.8,0.7,3c-2-0.2-1.6-2.7-3.1-3.1c0.1-0.7-0.2-1.3-0.8-1.6
			c0,0,0,0,0,0c-0.3-0.9-1-0.7-1.6-0.4c-1.4-0.5-2-2.5-4.2-1.8c1.8,2.1,4,3.8,5.5,6c0.3,0.5,1,0.9,0,1.5c-1.2,0.7-2.1,1.8-1.2,3.2
			c0.5,0.9-1.4,0.8-0.5,1.7c-0.7,2.5-1.8-0.9-2.7,0.3c0.2,0.7,0.4,1.5,0.5,2.2c-1.7,0.2-1.2-2-2.8-2.5c1,2.7-0.2,4-2.6,4.7
			c-1.2,0.3-1.9,1.5-2.5,2.5c-1,1.6-1.3,3.4-1.8,5.5c-1.1-1.4-1.3-2.8-2.4-3.9c-1.3-1.3,0.8-2.5,0.8-3.9c0-0.5,0.1-1-0.1-1.4
			c-1.3-3.6,0.8-7.1,0.4-10.7c0-0.3,0.5-1,0.8-1.1c1.2-0.1,1.1-1.2,1.7-1.8l0,0c1.1,1.2,1.4,3.2,0.6,4c-1.3,1.3-1,2.9-1.2,4.2
			c-0.2,1-1.1,2.9,0.9,3.5c1,0.3,2.1,0,2.6,1.3c0.1,0.2,0.7,0.5,1-0.3c0.6-1.6-0.7-3.4,0.7-4.8c-1.8-1.2-0.8-3.5-2.1-4.9
			c-0.5-0.5-0.6-1-0.4-1.5c0.4-0.7,1-0.3,1.5-0.1c0.5,0.3,1.2,0.3,1.1-0.3c-0.4-1.8,0.9-4-0.9-5.6c0.1-0.1,0.1-0.2,0.2-0.2
			c1.5,0,3,0,4.6,0.2c1.8,0.2,3.7,0.6,4.4,2.4C163.4,98.1,164.2,97.4,165,97.4z M155.6,107.8l0.1-0.1l-0.1,0L155.6,107.8z"/>
		<path class="st2" d="M207,182.8c-1,0.2-1.9-0.1-2.9-0.4c0.3-0.8,1.9-0.9,1.2-2c-0.7-1.1-1.4,0.4-2.1,0.5c-0.2,0-0.3,0.1-0.5,0.1
			c-1.1-0.7-0.5-2.6-2.2-2.8c-1.8-0.3-2-1.2-1-2.6c1-1.8-0.8-0.6-1.1-1c0-0.2,0.1-0.3,0.1-0.5c1.3-0.2,2.3-1.1,3.4-1.7
			c2-1.3,2.2-2,1-4.2c-0.4,2.2-4.1,4.4-6.3,3.7c-0.3,0-0.5-0.1-0.8-0.1c0.8-0.9,1-2.6,2.6-2.5c1.9,0.2,1.4-1,1.2-1.9
			c-0.1-0.6-0.6-1.2-0.4-1.9c0.9-0.1,1.7-0.2,2.6-0.2c3.4,0.5,4.8,3.1,5.7,5.9c1.2,3.7,1.2,7.6,1.6,11.5c0.1,0.7,0.1,1.6-1.1,1
			C208.4,182.6,207.8,182.5,207,182.8z M202,167.3c-0.2-0.3-0.3-0.7-0.5-1C201.2,166.8,201.5,167.1,202,167.3z"/>
		<path class="st0" d="M216.8,209.5c-0.9,0-1.8,0-2.6,0.1c-0.5,0-1.2,0.6-1.4-0.2c-0.1-0.7,0.3-1.3,1.2-1.1c0.5,0.1,1.1,0.1,1.2-0.5
			c0.1-0.8-0.7-0.6-1.2-0.8c-1.6-0.4-3.1,0.7-4.8,0.3c-0.8-0.2-0.3,1.4-0.9,2.3c-1.9-2.1-1.5-5.6-4.3-6.9c0.8,0.1,1.8,1,2.5-0.7
			c-4.2-0.8-8.4-0.6-13.1,0.8c1.2-0.9,1.8-1.4,2.5-2c0.2,0.1,0.4,0.4,0.6,0.4c3-0.7,6.2-0.1,9.2-0.6c1.5-0.3,3.1,1.2,4.3-0.4l0.1,0
			c1.3,0.8,2.5,1.7,3.8,2.5c0.2,0.3,0.5,0.6,0.7,0.9c0.5,1.8,1.5,2.9,3.5,2.9c0.1,1.7,1.3,1.8,2.6,2c0.9,0.2,1.9-0.3,2.7,0.4
			c0.4,1.5,1.8,2.7,1.5,4.5c-0.1,0.5,0,1.1-0.6,1.2c-0.5,0.1-1-0.5-1-0.9c0-1.2-0.8-1.9-1.5-2.7c-0.5-0.6-1.1-1.6-1.9-1.2
			c-0.8,0.5-1.1,1.6-0.5,2.6c0.8,1.4,0.7,2.8,0.5,4.3c-0.1,0.5-0.3,1-0.9,0.9c-0.5-0.1-0.6-0.5-0.6-0.9c0.2-1.5-0.6-2.1-1.7-3.1
			C215.5,212.5,216.7,210.9,216.8,209.5c0,0,0.1-0.1,0.1-0.1C216.8,209.4,216.8,209.4,216.8,209.5z"/>
		<path class="st0" d="M190,153c1-0.1,1.2-0.8,1.4-1.6c3.1,2.1,4.4,5.7,6.9,8.4c0,1-0.5,0.9-1.4,0.9c-1.4,0-3.5-0.3-2.6,2.4
			c0.2,0.6-0.4,1.3-0.9,1.9c-1,0.3-1.9-0.3-2.8-0.6c0-0.4,0-0.8,0.1-1.3c0.1-0.2,0.3-0.3,0.4-0.5c0-0.2,0.1-0.4,0.1-0.6
			c0.8-0.6,1.6-1.2,2.5-1.8c-0.2-0.2-0.4-0.5-0.6-0.7c-1.9,1.5-4.9,0.1-6.5,2.7c-0.1,0.2-0.6,0.2-0.9,0.3c-0.3-0.4-0.7-0.9-1-1.3
			c1.4-1,1.6-2.2,0.5-3.6c0.4-0.7,0.7-1.4,0.4-2.2c0.7-0.8,2-0.6,2.5-1.7l0,0C188.8,153.9,189.4,153.3,190,153z"/>
		<path class="st0" d="M253.3,215.3c-0.1,0.5-0.1,1-0.2,1.5c-0.1,1.2-1.6,2-1.1,3.4c-0.8,0.2-1.6,0.5-2.4,0.2c0.1-1.2-2.1-1.2-1.2-3
			c-1.8,1.8-2.8,1-4.3-0.2c-1.6-1.3-3.8-2.3-6.1-2.3c-0.9,0-1.7-0.2-2.7-0.3c1.9-1.2,1.6-2.5-0.7-3.7c-0.7-0.4-1.6-0.2-2.2-1
			c1.1-1.2,2.9,0.3,3.9-1.2c1.9-1,3.8,0,5.6-0.1c2.7,1.5,2.7,1.5,0.8,4.1c-0.2,0.3-0.7,0.5-0.4,0.9c1.5,0.3,3.1,0.2,4.4,0.8
			C248.8,215.5,251,215.6,253.3,215.3z"/>
		<path class="st0" d="M199.8,197.1c0-0.6-0.3-1-0.9-0.9c-1.3,0.1-2.5,0.2-3.1-1.4c4.8-1.9,9.7-3.2,14.9-1.1
			c1.5,0.6,2.6,2.4,4.7,1.8c-0.2,0.7,0,1.3,0.5,1.9c0.7,0.9,0.3,1.7-0.4,2.5c-0.8-0.6-1.8-1-1.7-2.3c0-0.3-0.2-0.8-0.8-0.7
			c-0.2,0.1-0.4,0.3-0.4,0.5c-0.1,0.6,0.8,1.6-0.5,1.6c-1.1,0-1.5-0.8-1.6-1.8c-0.1-1.1-0.8-1.3-1.7-1.2c-2.7,0.3-0.1,2-0.7,2.8
			c-1.4-0.2-2.7,0.7-4.1,0.7c0.5-0.7,1.9-0.8,1.6-2c-0.2-0.8-1.1-0.5-1.7-0.6C202.5,197,201.2,197.1,199.8,197.1z"/>
		<path class="st0" d="M199.6,175.7c-1,1.4-0.8,2.3,1,2.6c-1.1,0.6,1.1,2.7-0.9,2.4c-1.5-0.2-2,0.6-3.2,1.1c2.1,1.1,4.2-0.9,6.1,0.5
			c0.3,0.2,0-0.8,0.2-1.2c0.2,0,0.3-0.1,0.5-0.1c0.8-0.1,1.4-1.6,2.1-0.5c0.7,1-1,1.2-1.2,2c-0.6,1.4,0.6,2.9-0.3,4.3
			c-1.4,0-2.9,0.2-3.4-1.8c-0.2-0.6-1-0.4-1.5-0.5c-0.8-0.9-2.1-0.9-2.9-0.6c-2.3,0.8-4.4-0.3-6.5-0.5c1.1-0.2,2.1-0.4,2.9-1.2
			c1.3-0.8,2.7-1.3,3.4-2.8c0.5-0.5,2.2,0.4,1.7-0.8c-0.4-1.1,0.5-1.8,0.2-2.7l0,0C198.4,176.6,199,175.4,199.6,175.7z M203.4,185.1
			l0.1-0.1l-0.1,0L203.4,185.1z"/>
		<path class="st2" d="M193.3,164.9c0.5-0.5,1.1-1.3,0.9-1.9c-0.9-2.8,1.2-2.5,2.6-2.4c0.9,0,1.3,0.1,1.4-0.9c0.4-0.2,0.6,0,0.8,0.2
			c-0.2,1.1-0.1,2.3-1,3.1c-1.2,1.2-1.1,2.4-0.5,3.7c-0.2,1.3-0.5,2.6-2,3c-1.2,0.3-0.4-1.2-1.1-1.7c-0.5,2.5-2.1,3.4-4.3,4.3
			c0.3-0.8,0.7-1.4,0.5-1.6c-1.9-2.5,0.3-3.3,1.7-4.6C192.7,165.9,193.4,165.7,193.3,164.9z"/>
		<path class="st2" d="M253.3,215.3c-2.3,0.3-4.5,0.3-6.7-0.8c-1.3-0.6-2.9-0.6-4.4-0.8c-0.2-0.4,0.2-0.6,0.4-0.9
			c1.9-2.6,1.9-2.6-0.8-4.1c2.2-0.2,4.4-0.1,6.7,0.1c-0.2,1.7,1.9,4.6,4.2,5.3C253.6,214.2,254,214.3,253.3,215.3z"/>
		<path class="st3" d="M199,184.5c0.5,0.1,1.3-0.1,1.5,0.5c0.5,2,1.9,1.8,3.4,1.8c0.2,0,0.4,0,0.6,0c0.5,0.1,0.9,0.1,1.4,0.2
			c1.6,0.6,2.8,1.8,4,2.9c0,1.5-0.8,0.5-1.2,0.4c-1.9-0.6-3.7-1.8-5.8-1.1c-0.5-0.7-1.1-0.9-1.9-0.6c-0.3-1.2-1.1-1.6-2.3-1.6
			c-1.3,0-2.7-0.1-4.3-0.2C195.6,185,197.7,185.5,199,184.5z"/>
		<path class="st3" d="M208,198.9c0.6-0.8-2-2.5,0.7-2.8c0.9-0.1,1.6,0,1.7,1.2c0.1,1,0.5,1.8,1.6,1.8c1.4,0,0.5-1,0.5-1.6
			c0-0.2,0.2-0.5,0.4-0.5c0.5-0.2,0.8,0.3,0.8,0.7c-0.1,1.3,0.9,1.7,1.7,2.3c0,0.2,0,0.3-0.1,0.5c-0.9,0.9-1.2,1.9-1.1,3.2
			c-0.2-0.3-0.5-0.6-0.7-0.9c-0.3-1.9-1.8-2.9-3.8-2.5c0,0-0.1,0-0.1,0C209.6,199.2,208.4,199.6,208,198.9z"/>
		<path class="st0" d="M217.7,194.3c-0.9-0.2-1.9-0.5-2.2-1.6c-0.4-1.4-1.8-1.4-2.7-2c-0.1-0.4-0.3-0.7-0.4-1.1
			c-0.1-0.7-1.7-1.5-0.1-2c0.6-0.2,2.6-1.6,2.8,0.9c0,0.5,0.4,1.1,1.1,1l0,0.2l-0.2,0.1c-0.2,0.5-0.1,0.9,0.5,1l0,0
			C215.9,192.3,218.2,192.8,217.7,194.3z"/>
		<path class="st0" d="M197.6,166.8c-0.6-1.3-0.8-2.5,0.5-3.7c0.9-0.8,0.8-2,1-3.1c2.2,0.5,2,2.4,2.4,4c-0.2,0.2-0.8,0-0.5,0.5
			c0.1,0.3,0.5,0.4,0.8,0.1c0.1,0.2,0.3,0.5,0.4,0.7c-0.9,0.1-1.7,0.2-2.6,0.2c0,0,0,0,0,0c0.6-0.5,1-1.2,0.1-1.7
			c-0.7-0.4-0.9,0.3-0.9,0.9C198.4,165.4,198,166.1,197.6,166.8z"/>
		<path class="st2" d="M214.3,203.6c-0.2-1.2,0.2-2.3,1.1-3.2c0.1,0,0.2,0.1,0.2,0.2c-0.1,0.3,0.1,0.4,0.3,0.4
			c0.7,1.1,0.6,2.6,1.9,3.5c0.6,0.4,0.5,1.3,0,2C215.8,206.5,214.8,205.3,214.3,203.6z"/>
		<path class="st0" d="M158.4,111.3c-0.2-0.8-0.4-1.5-0.5-2.2c0.9-1.1,2,2.3,2.7-0.3c0.5,0.8,1.1,1.6,1.6,2.4c-0.7,0-1.5,0-2.2,0.1
			C159.5,111.3,159,111.3,158.4,111.3z"/>
		<path class="st3" d="M216.2,189.5c0.1-0.5-0.9-1.3,0.3-1.4c1-0.1,1.3,0.8,1.3,1.6c0,0.7,0.2,1.9-1.2,1c0,0,0,0,0,0
			c-0.2-0.3-0.3-0.7-0.5-1c0,0,0.2-0.1,0.2-0.1L216.2,189.5z"/>
		<path class="st0" d="M161,98.2c0.6-0.3,1.3-0.5,1.6,0.4C161.9,99,161.3,99.1,161,98.2z"/>
		<path class="st0" d="M207,182.8c0.8-0.3,1.4-0.3,1.3,0.8C207.7,183.6,207.2,183.5,207,182.8z"/>
		<path class="st0" d="M162.6,98.6c0.7,0.3,0.9,0.9,0.8,1.6C162.7,99.9,162.7,99.3,162.6,98.6z"/>
		<path class="st0" d="M191.3,151c-0.7-0.4-0.9-0.9-0.7-1.7C191,149.8,191.2,150.4,191.3,151z"/>
		<path class="st2" d="M201.8,164.6c-0.3,0.3-0.6,0.2-0.8-0.1c-0.2-0.5,0.3-0.4,0.5-0.5C201.6,164.2,201.7,164.4,201.8,164.6z"/>
		<path class="st0" d="M205.8,187c-0.5-0.1-0.9-0.1-1.4-0.2C205,186.4,205.4,186.6,205.8,187z"/>
		<polygon class="st2" points="277.6,208.5 277.6,208.6 277.6,208.5 		"/>
		<polygon class="st2" points="250.3,208.6 250.2,208.7 250.2,208.6 		"/>
		<path class="st0" d="M215.9,201c-0.3,0-0.4-0.1-0.3-0.4C215.7,200.7,215.8,200.9,215.9,201z"/>
		<path class="st3" d="M77.8,56.6c3.3-3.3,7.3-5.8,10.7-9c0.5-0.4,0.9-0.9,1.4-1.3c0,0,0.1,0,0.1,0c0.7-0.3,1.4-0.6,2-0.9
			c0.3,0,0.3-0.2,0.2-0.5c0-0.5,0.5-1,0.1-1.5c0-0.2-0.1-0.3-0.3-0.3c0-0.4-0.2-0.7-0.6-0.7l0.1,0c-0.2-0.2-0.4-0.4-0.5-0.5l0.1,0
			c-0.4-1.3-0.7-2.5-1.1-3.8c0,0,0,0,0,0c2.7,0.3,4.8,1.4,5.7,4.1c0.1,0.3,0.3,0.6,0.7,0.5c0.5-0.1,0.4-0.6,0.5-0.9
			c0.6-1.7-1.4-2.4-1.4-4.1c1.7,0.2,2.2,1.5,2.3,2.7c0.3,2.2,1.4,1.2,2.3,0.7c0.5-0.3,1-0.8,1-1.3c0.5-3.6,3.1-5,6.1-6.1
			c0.4-0.2,1.2-0.6,0.7-0.8c-1.5-0.8-0.6-2.6-2-3.6c-1.5-1.1-1.6-3.5-1.3-5.7c-0.3,1.7-2,0.3-2.4,1.3c-0.3,0.6-0.4,1.3-0.4,1.9
			c0.2,1.9-1.6,4.1-3.5,4.7c-1.6,0.5-2.2-0.1-2.3-1.5c-0.1-1.6,0-3.2,0-4.9c0.5-0.5,1.2-1,1.7-0.6c1.4,1.4,1.2-0.1,1.7-0.7
			c1.3-1.7,1.9-3.9,3.9-5.1c0,0,0.1-0.1,0.1-0.1l-0.1,0c-2.2,0.8-4.9,0.1-6.9,1.8c-0.2,0.2-0.3,0.3-0.5,0.5c-1.8-0.2-1.7-2.1-2.8-3
			c1.7-0.6,0.7-4,3.7-3.5c2.6,0.4,4.6-1.3,7.1-1.9c-1.5-1.8-4.1-0.8-5.3-2.6c0.7-0.7,1.2-1.4,2-1.9c0.7-0.5,1.6-0.6,1.4-1.7
			c-0.2-1.2-1.2-1.1-2.1-1c-0.2,0-0.4-0.1-1.2-0.3c3.1-1.3,5.4-3.6,8.7-1.2c1.6,1.2,3.5-0.7,5.9,0.1c-1.1-0.9-1.7-1.2-1.9-1.2
			c1.1-0.6,2.8-0.3,4.2,0.6c2.2,1.5,5,1.7,7.2,3.7c2.1,1.8,2.9,3.8,3,6.3c0.1,1.3,0.6,1.8,1.8,1.3c1.2-0.5,2.4-0.2,3.6,0.1
			c0.8,1.4,2.3,2,3.6,2c2.4-0.2,4.1,1.3,5.9,2.3c0.9,0.7,0.8,2.5,2.6,2c1.4,1.3,2.6,2.9,3.6,4.4c1.1,1.7,1.8,3.7,3.5,5.1
			c0.1,0.4,0.1,0.7,0.2,1.1c-0.2,0.8-0.3,1.5-0.1,2.3c-0.5,0.4-0.7,0.9-0.2,1.5c-1,0.9-0.4,1.9-0.3,2.9c0.1,2.3,0,4.6,0.3,7
			c-0.4-0.4-0.8-0.8-1.2-1.1c-0.6-1.2-1.3-1.4-2.5-0.6c-1.1,0.8-2.4,1.8-3.3-0.3c-1,0.8-0.1,1.7-0.4,2.5c-0.7-0.2-1.8,0.3-1.9-0.8
			c-0.2-1.8-1.3-1.9-2.7-1.9c-2.6,0.1-5.3,0.5-7.9,0c-2-0.4-3.7,0.4-4.3,2.6c-0.3,1.1,2.8,6.7,3.9,6.9c4.6,1,9.3,1.5,14,0.2
			c0.9-0.3,1.8-1.3,2.6-1.1c2.2,0.4,1.4-0.7,1.4-1.9c0-1.3-0.7-2.9,0.9-3.8c1.8,1.7,3.1,3.9,5.2,5.3c0.1,0.5,0.1,1,0.2,1.5
			c-0.3,0.7-0.7,1.5-1,2.2c-0.1,0.1-0.3,0.3-0.4,0.4c-1,1-2,2-3,3c-2.6,0.7-5.2,1.3-7.9,1.1c-1.6-0.1-4.2,2.5-3.5,3.2
			c1.4,1.4,2,3.9,4.6,3.9c1.2,1-0.9,2.4,0.4,3.3c0.3,0.1,0.7,0.2,1,0.3c0.5,3.5,0.1,7-0.5,10.4c-0.5,0.9-1.2,1.3-2.3,1.3
			c-1.6-0.1-3,0.5-3.9,1.9c-2.1-0.3-1.8,2-3,2.7c-1.4,1.1-3,0.9-4.6,0.4c-1.9-0.5-3.8-1.2-5.7-1.8c0,0,0,0,0,0c-0.7-1.1-1.9-1.4-3-2
			l0,0c-0.2-0.7-0.5-0.7-0.9-0.1c-0.2,0-0.4,0-0.7,0c-0.1-0.4-0.4-1-0.7-0.6c-0.6,0.9-1.6,0.9-2.4,1.5c-0.7-0.2-1.1,0.1-1.5,0.6
			c-5.4,0.7-10.8,1.4-16.2,2.1c-1.1-1.2-0.9-1.8,0.8-2c2.6-0.4,5.1-0.6,7.7-0.5c0.5,0,1.1,0.4,1.4-0.5c-2.6-2-5.5-1.7-8-0.5
			c-2.3,1-4.5,1.1-6.8,1.1c-1.1,0-2.2-0.4-3.2-0.7c0.7-2.4-1.7-3.6-2.1-5.6c-0.3-1.4,0-3-2-3.7c-0.7-0.3-0.7-2.4-1.7-3
			c-3.9-2.2-7.1-5.3-11.2-7.1c-0.1-0.4-0.1-1,0.3-1c1.9,0,2.6-1,2.3-3c0.7,0.4,1.2,0.7,1.7,1c0.5,0.4,0.9,0.9,1.7,0.8l0-0.1
			c-0.1,0.7,0.4,0.8,0.9,0.9c1.7,1.8,3.1,3.9,5.9,4c0,0,0,0.1,0,0.1l0-0.1c-2-2.1-3.9-4.2-5.9-6.3C80.3,59,79.7,58.3,77.8,56.6z
			 M93.6,41.8c0.4,0.4,0.8,0.6,1.2,0c0.2-0.3-0.2-0.6-0.5-0.7c-0.1-0.5-0.2-1.1-0.7-0.7C93.1,40.7,93.1,41.3,93.6,41.8z M140.2,72.3
			c0.1-0.2,0.2-0.4,0.3-0.6c-0.1,0-0.3-0.1-0.3-0.1C140,71.9,139.7,72.1,140.2,72.3c-0.3-0.5-0.5,0-0.7,0.1
			c-0.4,0.4-0.9,0.8-1.3,1.2c-1,0.5-1.9,1-2.9,1.5c0,0.1-0.4,0.2,0,0.3c0-0.1,0-0.3,0-0.4c1.3,0.3,2.4,0,3.3-1.1
			c0.4-0.4,0.9-0.8,1.3-1.2C139.9,72.6,140,72.4,140.2,72.3z M145,53.2c-1.7,1-3.8,0.5-5.6,1.3C141.4,54.4,143.4,54.9,145,53.2
			c0.3-0.1,0.5-0.1,0.1,0C145.5,53,145.3,53.1,145,53.2z M92.4,52.1c-0.1-0.1-0.3-0.3-0.3-0.2c-0.3,0.2-0.1,0.3,0.1,0.5
			c0,0.8,0.1,1.6,0.6,2.2c0.4,0.4,0.1,1.8,1.2,1.3c0.7-0.3,0.9-1.4,0.5-2.1C94.1,52.9,93.6,52,92.4,52.1z M110.4,42.5
			c0-0.3,0-0.6-0.1-0.9c-0.3-0.9-0.4-1.8-1.2-2.5c0,0-0.7,0.4-0.6,0.5c0.3,1,0.1,2.3,1.5,2.7C110.1,42.3,110.2,42.4,110.4,42.5
			c1.9,0.7,0.5,2.8,1.9,4c1.5,1.3,2.4,3.2,3.5,4.9c0.5,1,0.9,2,1.4,3c0.2,0.4,0.5,1,1.1,0.5c0.4-0.4,0.8-0.9,0.1-1.4
			c-0.9-0.7-1.7-1.4-2.6-2.1c0.2-0.8,0.1-1.6-0.3-2.4C114.3,46.3,112.2,44.5,110.4,42.5z M133.3,74.3c2.4-0.8,4.4-2,5.7-4.3
			c-1.9,2-4.7,1-6.9,2.2c-1.5,0.6-3,2.1-5.3-0.2c0.7,1.8,1.5,2.6,0.7,3.8c-0.5,0.7,0.4,1,1.1,1C130.7,76.7,132,75.6,133.3,74.3z
			 M89.5,56.6c0.1,0.5-0.2,0.8-0.6,1c-0.7,0.4-1.1,0-1.4-0.5c-0.8-1.3-1.5-0.7-2.6-0.2c-0.9,0.4-2,0.5-2.9,1.1
			c-0.3,0.2,0,0.7,0.2,1.1c2.6,3.5,5.9,6.3,8.8,9.6c0.7,0.8,1.7,1.1,2.7,0.8c1-0.3,0.8-1.4,0.8-2.1c0-1.4,0.4-3,0.1-4.1
			c-0.8-2.5-2.2-4.8-3.5-7.1c-0.3-0.6-0.3-1.8-1.6-1.2C88.5,55.3,88.8,55.9,89.5,56.6z M123.4,63.5c3,5.4,8.8,8.4,12.2,6
			c-1.4-0.7-2.6-1.8-2.7-3.3c-0.1-0.6,1.1,0.3,1.6-0.4c-0.6-0.3-1.2-0.6-1.8-0.9c-0.6-0.3-1.4,0.1-2-0.5c1.9-0.1,5.4-2.1,4.9-2.6
			c-1.3-1.7-3.4-1.1-4.8-0.6c-1.7,0.7-3.3-1.4-4.9,0.3c0.2,0.6,1.4,0.9,1,1.5C126,64.2,124.6,62.6,123.4,63.5z M105.7,38.1
			c-0.3-1,0.1-2.3-1-2.1c-1.5,0.3-2.4,1.7-2.8,3.1c-0.3,0.9,0.7,0.9,1.3,0.9C104.4,39.8,105.2,39,105.7,38.1z M129.8,54.2
			c-2-0.2-3.9-1.5-6.2-0.9C125.7,54.4,127.8,54,129.8,54.2z M121.6,77.6c-1-0.7-1.9-0.8-2.7-0.1c-0.3,0.2-0.1,0.8,0,0.8
			C119.8,78.2,120.7,77.9,121.6,77.6z M139.2,37.5c0-1.4-0.6-2.1-1.4-2.7c-0.2-0.2-0.6,0.2-0.6,0.5C137.3,36.5,138,37,139.2,37.5z
			 M95.4,42.8c-0.2-0.1-0.5-0.4-0.8-0.5c-0.2-0.1-0.7,0-0.5,0.4c0.1,0.3,0.5,0.6,0.8,0.7C95.2,43.7,95.3,43.4,95.4,42.8z
			 M109.8,83.7c-0.1-0.1-0.1-0.1-0.2-0.1c-0.1,0-0.1,0.1-0.2,0.1c0.1,0.1,0.1,0.1,0.2,0.1C109.7,83.8,109.8,83.7,109.8,83.7z"/>
		<path class="st2" d="M153.7,50.9c-2.1-1.4-3.4-3.5-5.2-5.3c0.1-0.6,0.1-1.1,0.2-1.7c0.4,0.4,0.8,0.8,1.2,1.1
			c-0.3-2.4-0.2-4.7-0.3-7c-0.1-1-0.6-2,0.3-2.9c0.9,0,1.8,0.1,2.5,0.7c0.4,0.3,1,0.6,1.3,0.5c3.1-1.2,5.8-0.2,8.5,1.3
			c0.5,0.3,1.1,0.3,1.6,0c0.7-0.4,0.4-1,0.2-1.5c-0.2-0.5-0.4-1.1-0.7-2c5.4,1,10.2,3.8,15.5,4c0.5,2.3,2.4,3.9,3.5,5.9
			c1,1.4,1.6,2.9,2.2,4.5c1,1.7,0.6,3.4,0.2,5.1c0,0,0,0,0,0c-0.5,0.7-1.1,1.3-1.6,2c-5.9,3-12.3,4.9-18.2,8.1
			c-3.8,2.1-5.6,5.7-8.2,8.8c-0.9,1.1,0.6,2.1,0.5,3.2c-1.5,1.8,0.3,3,1,4.3c0.9,1.6,1.9,1.4,2.4-0.4c2.4,0.7,0.8,1.9,0.5,3
			c-2.5-0.5-3.5-0.1-4.3,1.9c-0.2,0.5-0.6,0.6-0.9,0.5c-3.2-0.7-4.2,1.9-5.7,3.8c-0.9,1.5-2,3-3.5,3.9c-0.8-0.1-1.6-0.3-2.4-0.4
			c-0.6,0-1.7,0.1-1.6,0.7c0.3,3-2,1.7-3.2,2.3c0.5-1.2,2.9-1.7,0.9-3.4c-0.2-0.2,0.1-0.6,0.4-0.8c3.6-2,4.8-6.2,7.8-8.8
			c0.3-0.2,0.6-0.9,0.6-1c-1.9-1.7,0.6-2.6,0.8-3.9c-1.7-0.1-2.8,0.9-3.7,2c-0.8,1.1-1.7,1.1-2.7,0.8c0.6-3.5,1-6.9,0.5-10.4
			c0-0.3,0-0.7,0-1l0.1,0c1.5-0.3,1.9-1.7,2.6-2.8c3.2,0.3,6.2,1.3,9.5,0.8c0.4,1.5-0.9,1.2-1.6,1.5c-1.6,0.6-3.4,0.8-4.7,2.1
			c2.3-0.2,4.5-0.8,6.6-1.6c2.1-0.7,2.4-1.9,0.8-3.7c-1.1-3.1-2.2-6.2-3.3-9.3c-0.2-0.7-0.5-1.2-1.2-1.4c0.3-0.7,0.7-1.5,1-2.2
			c0.6,1.2,1.4,2.3,1.7,3.6c0.2,0.9-0.1,2.4,1,2.3c1.4-0.1,0.4-1.7,0.7-2.6c0-0.1,0-0.2,0-0.2c0.7-2.4,0.7-4.7-0.2-7.2
			c-0.3,1.1-0.7,2.3-1,3.4c-1.3-1.9-1.5-3.9-0.9-6c0.3-1,0.2-1.7-0.7-2.2c-0.1-0.4-0.2-0.9-0.2-1.3c-0.1-0.2-0.2-0.4-0.3-0.6
			c-0.3-0.5-0.5-1-0.9-1.4c-0.4-0.5-0.6-1.6-1.5-1.2c-0.8,0.4-0.7,1.4-0.4,2.2c0.4,1.1,0.9,2.2,1.3,3.3
			C152.7,46.6,154.2,48.5,153.7,50.9z M158.6,45.7c0.3,3.2,0.5,6.4,1,9.5C160.6,51.9,159.5,48.8,158.6,45.7z M162.5,47.2
			c0.3,1.5,1,2.7,2.3,3.5C164.3,49.3,163.9,48,162.5,47.2z M149,73.8c1.3,0.6,2.2,0.6,3.1-0.2c0.1-0.1,0-0.6-0.1-0.6
			C150.8,72.5,150,73,149,73.8z"/>
		<path class="st3" d="M184.8,53.6c0.3-1.7,0.8-3.4-0.2-5.1c0.1-6.3-1.2-9.8-3.6-10.6c0.6,2,1.8,3.8,1.4,6.1c-1.1-2-3-3.5-3.5-5.9
			c3.5-2.4,7.3-3.7,11.6-3.5c2,0.1,3.8-0.8,5.7-1.3c1.4-0.4,2.7-0.6,4,0.2c1.9-0.4,2.4,2,4,2c0.2,0.7,0.3,1.3,0.5,2
			c-1.2-0.3-1.9-1.8-3.4-1.5c0-0.1-0.1-0.3-0.1-0.4c-0.1,0.1-0.2,0.1-0.2,0.2c0.1,0.1,0.2,0.2,0.3,0.3c0,1.3-0.6,0.8-1.2,0.5
			c-0.9-0.5-2-0.3-2.6,0.2c-0.6,0.6-0.5,1.8,0.2,2.7c0.3,0.4,0.6,1,0.5,1.3c-1,2.5,0,4.9-0.1,7.7c1.7-2.7,2.4-5.2,2-8
			c1.1,1.5,0.4,3.3,0.9,5.1c0.7-1.1,1.4-2.1,2-3.1c1,1.3,0.4,2.7,0.4,4.1c2.3-1.2,2.7-3.1,2.1-5.4c-0.2-0.9-0.6-1.7-0.4-2.6
			c1.3,0.7,0.7,2.4,1.8,3.5c0.1-0.5,0-1,0.2-1.3c1.5-2.3,0.5-3.5-1.8-4.2c-0.4-0.1-0.8-0.6-1.1-0.9c-0.2-1,0.1-1.2,1-0.7
			c1,0.6,1.9,1.2,2.9,1.8c-1.9-2.6-4.6-3.6-7.7-3.6c1.6-0.3,3.1-0.7,4.7-1c0.1,0.3,0.2,0.5,0.3,0.8c0.1,0,0.2-0.1,0.3-0.1
			c-0.2-0.2-0.4-0.5-0.6-0.7c0-0.2-0.1-0.4,0-0.5c3-2.2,6-4.3,9.9-4.5c0,1.2-2,0.8-1.6,2.1c0.6,1.9-0.4,3.6-1.2,5
			c-2.9,5.2-4.6,11.2-9.4,15.2c-3.8,2.4-7.7,4.4-12.4,4.5c-2.5,0.1-4.6,2-7.3,1.7C183.7,55,184.3,54.3,184.8,53.6
			c1.6,1.7,3,0.5,4.1-0.5c3.2-3.1,3.4-9,0.7-12.7c-0.1-0.2-0.3-0.3-0.5-0.1c0,0,0.2,0.2,0.2,0.3c0.5,2.3,1.6,4.6,0.9,7.2
			c-1.1-2.1-0.4-4.8-2.2-6.6c-1,0.7,1.4,1.8-0.5,2.2l0,0c-1-0.7-1.6-1.6-1.8-2.8c-0.2-0.9-0.3-2-1.5-2.1c-0.2-0.2-0.3-0.3-0.5-0.5
			c0-0.1-0.1-0.1-0.1-0.2c0,0-0.1,0-0.1,0c0.1,0.1,0.2,0.1,0.2,0.2c0.2,0.2,0.3,0.3,0.5,0.5c0.3,0.7,0.8,1.4,1,2.2
			c0.7,2.6,1,5.2,1.6,7.8C187.1,50.2,187.6,52.7,184.8,53.6z M199.8,48.9c0.2-0.2,0.4-0.4,0.6-0.6c-0.1-0.1-0.2-0.2-0.3-0.3
			c-0.2,0.2-0.3,0.5-0.5,0.7c-0.2,0.1-0.4,0.2-0.1,0.4C199.6,49.2,199.7,49,199.8,48.9z M207,33.7c-0.1,0-0.1-0.1-0.2-0.1
			C206.9,33.6,207,33.6,207,33.7c0.5,0.5,0.8,1.1,1.7,1C208.4,33.9,207.8,33.7,207,33.7z M187.6,35.8c2.5,1.8-0.3,2.4-0.6,3.8
			c1.4-0.8,2.6-1.5,4-2.3C190.1,36.4,189.4,35.7,187.6,35.8z M193.5,40c-0.1,2.3,1.5,3.9,1.2,5.8C194.6,44,195.5,42,193.5,40z
			 M202.3,45.5c-0.6,0.5-1.6,0.7-1.4,1.8C202,47.1,202.3,46.4,202.3,45.5z"/>
		<path class="st3" d="M232.1,38.8c-0.1,0.1-0.3,0.2-0.4,0.3c-1.8,4.2-5.3,2.8-8.4,2.6c-1-0.1-2-0.2-2.8,0.3c-2,1.3-4.5,1.2-6.6,2.1
			c-0.1-2.5,0.6-4.9,0.5-7.5c0-1.3,0.4-3.2,2.8-1.9c0.9,0.5,2.2,0.2,3.3,0.1c1.1,0,1.3-1.1,0.6-1.4c-1.9-1.1-0.6-4-2.9-4.9
			c-0.3-0.1-0.2-1.1,0.3-1.5c0.4,0.5,1,0.3,1.6,0.4c2.1,1.9,3.6,4.5,6.1,6c-1-2.7-3.1-4.4-5.4-6c1.3-1,2.8-0.2,4.2-0.2
			c2.5,0.1,4.7-0.1,6.1-2.4c0.7-1.1,1.8-1.2,3-1.4c-0.1,2-0.2,4-1.5,5.9c-0.5,0.6-0.4,1.9,0.4,2.7c0.5,0.5,0.5,1.2,0.4,1.8l0,0
			c-0.8,1.5,0.6,3.7-1.4,4.9C232,38.5,232.1,38.7,232.1,38.8z M227.7,33.4c0,2.3,0,4.1,0,5.9C228.5,37.6,228.6,35.8,227.7,33.4z
			 M225.7,36.6c-0.2-2.1-1.8-1.9-3.8-2.4C223.1,35.9,224.7,35.7,225.7,36.6z M223.9,40.6c-0.4-2.4-2.5-2.4-3.6-3.4
			C221.3,38.4,222,39.8,223.9,40.6z"/>
		<path class="st2" d="M218.7,26.9c-0.5,0.4-0.6,1.4-0.3,1.5c2.3,0.8,1,3.8,2.9,4.9c0.7,0.4,0.5,1.4-0.6,1.4c-1.1,0-2.5,0.4-3.3-0.1
			c-2.4-1.3-2.8,0.6-2.8,1.9c0,2.5-0.6,5-0.5,7.5c0,0,0,0,0,0c-0.9,0-2-0.4-2.2,1.1c-2.6,2.1-5.1,4.6-8.9,4.4c4.8-4,6.5-10,9.4-15.2
			c0.8-1.4,1.8-3,1.2-5c-0.4-1.3,1.7-0.9,1.6-2.1C216.2,26.9,217.4,26.6,218.7,26.9z"/>
		<path class="st2" d="M233.4,33.6c0.1-0.7,0.1-1.3-0.4-1.8c-0.8-0.8-0.8-2.1-0.4-2.7c1.3-1.8,1.4-3.8,1.5-5.9
			c1.4,0.3,2.8,0.8,4.2,1c2.6,0.5,4,1.7,3.2,4.5c-0.2,0.8,0.3,1.3,0.7,1.9c1.3,2.1,0.6,3.7-1.9,4c-1.9,0.2-3.2,1.5-4.6,2.5
			c-1.2,0.8-2.3,1.6-3.7,1.6c0-0.1-0.1-0.2-0.1-0.2C234,37.3,232.6,35.2,233.4,33.6c0.4,1.2,1.2,1.9,2.5,1.9c0.5,0,0.8-0.5,0.9-1
			c0.1-0.9,0.5-2.2-0.7-2.5C235.1,31.8,233.6,31.9,233.4,33.6z M239.9,28c-1.4-1.2-1.9-0.3-2.5,0.8c0.4-0.2,0.7-0.2,0.9-0.4
			C238.7,28.1,239.4,28.8,239.9,28z"/>
		<path class="st2" d="M150.2,88.8c1.5-1.9,2.5-4.4,5.7-3.8c0.3,0.1,0.6,0,0.9-0.5c0.8-2,1.8-2.4,4.3-1.9c0.3,0.5,1.3,0.7,0.9,1.4
			c-0.7,1.2,0,2.2,0.1,3.4c-0.3-0.2-0.5-0.3-0.8-0.5c-0.5-0.3-0.9-1.2-1.5-0.5c-0.5,0.6,0,1.1,0.5,1.6c0.6,0.5,1.2,1,1.8,1.5
			c0.1,0.3,0.3,0.6,0.4,0.9c0.2,0.4,0.3,0.8,0.5,1.2c0.1,0.6,0.3,1.2,0.4,1.8c-1.1,0.2-0.9-1.2-1.8-1.5c0,0.8,0.1,1.5,0.1,2.2
			c-0.8,0.1-0.6-1.3-1.3-0.9c-2.1,1-2.8-0.6-3.7-1.9c0.8-0.2,0.5-1.4,1.5-1.5c0.7-0.1-0.3-0.5-0.1-0.9c0.2-0.4-0.2-0.7-0.5-0.4
			c-0.8,0.8-1.5,0.1-2.2,0.1c-0.8,0-1.4,0.9-2.2,3.7c-0.2,0.6,0.5,0.1,0.6,0.4c0,0.5,0,1-0.1,1.5c-0.1,0.1-0.1,0.2-0.2,0.2
			c-1.7,0-3.2,0.7-4.7,1.4c-0.1-0.1-0.2-0.2-0.2-0.3c-1.4-1.2-1.4-1.2,0.4-1.9c0.5-0.2,0.4-0.6,0.6-1c0.4-0.9,0.8-1.7,1.3-2.5
			C151.7,89.1,151.8,89.2,150.2,88.8z"/>
		<path class="st0" d="M156.9,91.2c0.9,1.3,1.6,2.9,3.7,1.9c0.7-0.3,0.4,1,1.3,0.9c0-0.7-0.1-1.5-0.1-2.2c0.9,0.3,0.7,1.6,1.8,1.5
			c0.2,0,0.4,0,0.6,0l0,0c-0.5,1.6,0.5,2.8,0.9,4.2c-0.8,0-1.6,0.7-2.1-0.7c-0.7-1.8-2.6-2.2-4.4-2.4c-1.5-0.1-3-0.1-4.6-0.2
			c0-0.5,0-1,0.1-1.5C154.8,92,155.8,91.4,156.9,91.2z"/>
		<path class="st2" d="M221,27.2c2.3,1.6,4.4,3.3,5.4,6c-2.5-1.5-4-4.1-6.1-6C220.5,27.3,220.7,27.3,221,27.2z"/>
		<path class="st2" d="M204.1,35.7c-1.7-0.1-2.1-2.4-4-2c0.1-0.1,0.2-0.3,0.3-0.4c3.1,0,5.7,1,7.7,3.6c-1-0.6-2-1.2-2.9-1.8
			C204.3,34.4,204,34.7,204.1,35.7C204.1,35.6,204.1,35.7,204.1,35.7z"/>
		<path class="st0" d="M160.7,79.6c-0.6,1.7-1.5,2-2.4,0.4c-0.7-1.3-2.5-2.4-1-4.3c0,0,0,0,0,0c0.1,1.2,0.7,2,1.9,2.1
			c0,0,0.1,0.2,0.1,0.2c0.1,0.5,0.5,0.6,0.9,0.6c0,0,0,0,0,0C160.1,79,160.3,79.4,160.7,79.6L160.7,79.6z"/>
		<path class="st4" d="M162.1,89.5c-0.6-0.5-1.2-1-1.8-1.5c-0.5-0.4-1.1-1-0.5-1.6c0.6-0.7,1,0.2,1.5,0.5c0.3,0.2,0.5,0.3,0.8,0.5
			C162.1,88.1,162.9,88.8,162.1,89.5z"/>
		<path class="st2" d="M142.7,19.9c0.1,0.3,0.3,0.5,0.4,0.8c-1.8,0.6-1.8-1.3-2.6-2c0.2-0.3,0.4-0.6,0.5-0.9
			C141.5,18.5,142.1,19.2,142.7,19.9z"/>
		<path class="st4" d="M159.2,77.8c-1.2-0.2-1.8-0.9-1.9-2.1C158.4,75.9,158.8,76.9,159.2,77.8z"/>
		<path class="st3" d="M211.7,45c0.2-1.5,1.3-1,2.2-1.1C213.4,44.7,212.4,44.6,211.7,45z"/>
		<path class="st4" d="M163.1,91.5c-0.2-0.4-0.3-0.8-0.5-1.2C163.1,90.6,163.1,91,163.1,91.5z"/>
		<path class="st4" d="M160.2,78.6c-0.5,0-0.8-0.1-0.9-0.6C159.6,78.2,159.9,78.4,160.2,78.6z"/>
		<path class="st4" d="M160.7,79.6c-0.4-0.2-0.6-0.5-0.5-1C160.6,78.8,160.7,79.2,160.7,79.6z"/>
		<path class="st3" d="M88.8,37.2c0-0.1-0.1-0.3-0.1-0.4C88.7,37,88.7,37.1,88.8,37.2L88.8,37.2z"/>
		<path class="st0" d="M164.1,93.2C164.1,93.2,164.1,93.2,164.1,93.2C164.1,93.2,164.1,93.2,164.1,93.2z"/>
		<path class="st3" d="M89.3,37.7c0.4-0.1,0.6,0,0.6,0.4c0,0,0,0,0,0C89.7,38,89.5,37.8,89.3,37.7C89.3,37.7,89.3,37.7,89.3,37.7z"
			/>
		<path class="st3" d="M88.8,37.3c0.1,0,0.3-0.1,0.4-0.1c0,0.2,0.1,0.4,0.1,0.6c0,0,0,0,0,0C89.1,37.5,89,37.4,88.8,37.3
			C88.8,37.2,88.8,37.3,88.8,37.3z"/>
		<path class="st0" d="M178.1,224.2c0.3,0.2,0.4,0.3,0.6,0.4c-0.1,0.1-0.3,0.3-0.5,0.4c-0.1,0-0.4-0.1-0.4-0.2
			C177.9,224.7,178,224.5,178.1,224.2z"/>
		<path class="st3" d="M150.2,88.8c1.6,0.4,1.5,0.4,0.9,1.3c-0.5,0.8-0.9,1.7-1.3,2.5c-0.2,0.3-0.1,0.8-0.6,1
			c-1.8,0.7-1.7,0.7-0.4,1.9c-0.9,0.3-2,0.4-2.4,1.6c-0.1,0.1-0.1,0.2-0.2,0.2c0.1-0.1,0.2-0.1,0.3-0.2c1.2,0.1,2.3,0.2,2.5-1.4
			c1.5-0.7,3-1.3,4.7-1.4c1.8,1.6,0.5,3.7,0.9,5.6c0.1,0.5-0.6,0.5-1.1,0.3c-0.5-0.2-1.1-0.7-1.5,0.1c-0.3,0.5-0.1,1.1,0.4,1.5
			c1.3,1.3,0.3,3.7,2.1,4.9c-1.4,1.4,0,3.2-0.7,4.8c-0.3,0.8-1,0.5-1,0.3c-0.5-1.3-1.6-1-2.6-1.3c-2-0.6-1.1-2.5-0.9-3.5
			c0.2-1.3-0.1-2.9,1.2-4.2c0.8-0.8,0.6-2.8-0.6-4c0.7,0,1.5-0.1,2.8-0.2c-1.4-0.9-2.2-0.9-2.8,0.1c-0.5,0.6-0.5,1.7-1.7,1.8
			c-0.3,0-0.9,0.7-0.8,1.1c0.4,3.6-1.7,7.1-0.4,10.7c0.2,0.4,0.1,1,0.1,1.4c0,1.4-2.1,2.6-0.8,3.9c1.1,1.1,1.3,2.5,2.4,3.9
			c0.5-2,0.8-3.9,1.8-5.5c0.7-1,1.3-2.2,2.5-2.5c2.4-0.6,3.6-1.9,2.6-4.7c1.5,0.5,1,2.7,2.8,2.5c0.5,0,1.1,0,1.6,0
			c1.5,1.8,1,4,1.2,6.1c0,0.6-0.8,2.2,1.2,1.7c0.6-0.1,0.7,0.6,0.4,1.1c-0.8,1.2-1.5,2.5-2.4,3.5c-1.8,1.8-1.6,3.1,0.7,3.9
			c1.2,0.4,2.1,1.1,2,2.6c-0.1,1.8,1,3.2,1.4,4.9c0.3,1,1,1.9,0.4,3.2c-1.9-1.1-3.7-2.1-5.4-3.2c-1.2-0.8-2.2-1.2-3.6-0.7
			c-2.1-3-2.2-3-4.8-0.2c-0.4,0.4-0.7,0.9-1.1,1.3c-2.1,1.8-3.7,4.3-6.8,4.7c2.7-1.8,5.2-3.7,6.8-6.8c-2.9,0.9-6.1,0.5-8.9,1.9
			c1.4-2.2,2.7-4.5,4.2-6.8c-3.6-0.5-5.6-3-7.7-5.2c-1.3-1.3-3-2.3-3.5-4.2c-0.1-0.6,0.3-1.8-0.8-1.6c-0.8,0.1-1.5,1-1.2,2
			c0.5,1.7-0.1,3.3,0,5c0.1,0.8,0,1.9-1.7,1.6c0.8-1.2,1.1-2.3,0.3-3.6c-0.9,1.1-0.6,2.9-2.3,3.8c0.1-2.6,1.6-4.6,2-6.9
			c-0.3,0-0.5-0.1-0.6,0c-0.4,0.5-0.9,1-1.3,1.4c-3,3.5-6.8,6.1-10.8,8.4c0.2-0.4,0.4-0.9,0.6-1.3c0.4-0.7,0.6-1.3,0.4-2.1
			c-0.9,0.4-1.5-0.7-2.3-0.6c-0.6,0.2-1.2,0.6-1.6-0.2c-0.4-0.8,0.4-1.1,0.9-1.5c0.8-0.7,1.7-1.3,2.7-1.5c1.2-0.2,2-0.7,2.5-2
			c0.3-0.7,1-1.3,1.6-1.7c1.9-1.1,2.7-3.4,4.7-4.3c0.5-0.2,0.2-0.7,0-1.1c-0.4-0.7-0.8-1.5-1.7-1.5c-0.9,0-1.7,0.4-2.1,1.3
			c-0.6,1.5-2.2,1.8-2.9,0.9c-1.3-1.7-3.2-1.5-5-2.1c2-1.8-0.3-2-0.8-2.9c0.1-0.1,0.1-0.1,0.2-0.2c1,1,2.1,0.7,3.6,0.5
			c-1-0.9-1.7-1.5-2.4-2.2c0.4,0,0.8,0.1,1.2,0.1c0.4,0.1,0.9,0.5,1.1,0c0.2-0.4-0.4-0.5-0.7-0.6c-1.1-1-2.6-1.2-3.9-1.7
			c-5.4-2.8-11.3-1.8-16.9-1.7c-3.1,0.1-3.7,1.5-2.2,4.4c-2.5,3.4-2.4,3.7,1,4.3c-0.5,1.5,0.1,3.4-1.1,4.7c-1.8,1.9-1.7,4.1-1.7,6.4
			c0,0.7,0.6,1.8-1.1,1c-0.4-0.2-2.8,1-2.4,2.2c0.8,2.2,1.6,4.1-0.2,6.1c-0.1,0.1,0,0.3,0,0.5c1.2,3.5,1.2,7.2,1.7,10.9
			c0.2,1.4,0.6,2.5,1.8,3.6c1.2,1.1,1.4,2.6,0,3.7c-0.7,0.6-1.2,1.5-0.9,2.1c1.1,2.2,1.4,5,2.8,6.9c2,2.5,0.3,2.2-1.2,2.5
			c-0.6,0.1-1.3,0.3-1.9,0.4c-2.8,0.5-4.3-0.4-5.5-3.1c0.5-1.8-0.9-3.2-1.4-4.8c-1.7-6-1.1-12.3-2.4-18.3c-0.8-3.8-1.5-7.4-0.9-11.4
			c0.9-6.1,3.8-11.2,6.6-16.4c1.6-2.9,2.8-6.1,5.7-8c0.5-0.3,0.2-0.9,0.3-1.4c2,0.7,3.7-0.5,5.7-0.9c-2.1-0.2-2.1-0.2-3-2.1
			c3.3,0.6,6.5,1.2,9.5,2.4c4.1,1.7,8.3,3.2,12.9,2.5c0.5,0,0.9,0,1.4,0c0.5,0.3,0.9,0.3,1.4,0c4.7,0,9.4-0.3,14-1.4
			c-0.6,1-1.7,1.3-2.7,1.5c-2.1,0.4-4.3,0.7-6.5,1.1c1.1,0.2,2.1,0.3,3.2,0.2c3.7-0.5,7.4-0.9,9.8-4.3l0,0c0.5,0,0.7-0.3,0.9-0.7
			c1.9-1.4,3.7-2.8,5.6-4.2C148.2,91.7,149.3,90.3,150.2,88.8z M145.8,100.2c1.1-0.2,2-0.6,1.9-2c0-0.1,0.1-0.2,0.1-0.3
			c-0.1,0.1-0.2,0.1-0.3,0.2c-1,0.3-1.8,0.7-2.1,1.8c-0.4,0.2-0.6,0.5-0.2,0.8C145.5,100.9,145.7,100.6,145.8,100.2z M149.9,127.9
			c-0.1,0-0.2-0.4-0.4-0.1C149.7,127.8,149.8,127.9,149.9,127.9c0.1,2.5-2.6,3-3.4,4.9c-0.3,0.1-0.6,0.1-0.9,0.2
			c0,0.1,0.1,0.2,0.1,0.2c0.4,0.1,0.6,0,0.8-0.4C149.1,132.5,150.6,130.3,149.9,127.9z M138,109.7c-0.8,0.4,0.5-3.2-1.4-0.6
			c-0.6,0.9-2,1.2-1.2,2.7c0.6,1.1,0.5,2.3-0.1,3.4c0,0,0.3,0.3,0.5,0.3c2.1,0.8,3.9-0.2,4.2-2.4c0.2-1.7,0.2-3.5,0.3-5.3
			C139.1,108.3,138.8,109.1,138,109.7z M136.5,119.2c0.3,1.4,5.5,5.3,7.7,5.4C141.5,123,140.9,118.5,136.5,119.2z M140.6,100.6
			c-1.8,1.8-3.9,3.4-6.4,5.4C138.1,105.6,139.7,103.6,140.6,100.6z M119.3,108.7c-0.2,0.1-0.4,0.3-0.6,0.4c0.2,0.1,0.4,0.3,0.6,0.3
			c0.2,0,0.4-0.2,0.6-0.3C119.7,109,119.6,108.9,119.3,108.7z M119.9,107.2c-0.1-0.1-0.2-0.3-0.2-0.3c-0.2,0-0.4,0.1-0.6,0.2
			c0.1,0.1,0.2,0.2,0.4,0.2C119.6,107.4,119.8,107.3,119.9,107.2z"/>
		<path class="st2" d="M119.5,100.6c-4.6,0.7-8.8-0.8-12.9-2.5c-3-1.2-6.2-1.8-9.5-2.4c0.9,1.9,0.9,1.9,3,2.1
			c-2,0.3-3.7,1.6-5.7,0.9c-2.4-1.6-3.6-4-4.6-6.5c3.4,2.3,7.3,2.3,11.2,2.5c3.9,0.2,7.8,0.9,11.7,0.7c-2.5-0.3-5-0.3-7.5-0.7
			c-5.1-0.8-10.7-0.3-14.7-4.7c-1.3-1.4-2.3-0.3-3.4,0.2c-1.4-0.9-3-1.7-4.2-2.8c-2-1.8-3.9-1.5-5.9,0c-2.1,1.6-4.4,3-7.1,3.4
			c-2.8,0.1-5.7-0.7-8.3,0.9c-1.2-0.8-2.3-1.6-3.5-2.4c0.8-1.8,2.8-0.6,4-1.5c0,0,0.1,0.1,0.1,0.1c-0.1,0-0.1-0.1-0.2-0.1
			c-1.8-2-3.7-3.9-5.5-5.8c-0.5-0.5-1.2-0.4-1.8-0.4c0.1-0.5,0.1-1,0.2-1.4c0.1,0,0.1,0,0.1,0c0-0.1-0.1-0.2-0.1-0.2
			c-1.1-3.1-0.1-5.8,1.7-8.3c1.5-0.2,3.1-0.1,4.4-1.1c3.7-3.1,7.8-5.6,12.7-6.7c4,1.9,7.3,5,11.2,7.1c1.1,0.6,1,2.8,1.7,3
			c2,0.8,1.7,2.3,2,3.7c0.4,2,2.8,3.2,2.1,5.6c1.1,0.2,2.2,0.7,3.2,0.7c2.3,0,4.6-0.1,6.8-1.1c2.6-1.2,5.5-1.4,8,0.5
			c-0.3,0.9-0.9,0.6-1.4,0.5c-2.6-0.1-5.2,0.1-7.7,0.5c-1.7,0.3-1.9,0.8-0.8,2c-0.3,0.7-0.1,1.3,0.7,1.6c1.2,0.4,2.3,1.1,3.6,1.5
			c4.1,1.5,8.5,1.9,12.5,3.6c4.4,1.8,8.9,3.7,13.9,3c1.6-0.2,3.1-1,5-0.1c-9,2.1-18,0.3-26.8,0.9c3.3,1.3,6.8,1.6,10.3,1.8
			c3.5,0.3,7-0.1,10.8-0.2c-1.1,0.8-2.1,0.9-3,1C123.6,100,121.5,99.8,119.5,100.6z M84.5,72.7c-0.1,0-0.1,0.1-0.2,0.1
			c0,0,0,0.1,0,0.1C84.4,72.9,84.5,72.8,84.5,72.7L84.5,72.7z M69.8,86.2c-1.2-1.4-1.9-3.1-2.4-4.8c-0.3-0.9-0.7-2.2-1.7-2.2
			c-1.7,0-2.7-0.8-3.6-2c-0.7-0.9-1.8-1-2.5-0.2c-0.8,0.9-0.3,2.3,0.6,2.7C63.7,81.4,67,83.3,69.8,86.2z M70.5,87.1
			c1.1,0.9,2,0.9,2.9,0.4c0.1,0,0.1-0.5-0.1-0.6C72.4,86.1,71.7,87,70.5,87.1z"/>
		<path class="st2" d="M94.9,107.1c-1.4-2.9-0.9-4.3,2.2-4.4c5.6-0.1,11.5-1,16.9,1.7c-0.7,0.2-0.6,1-0.9,1.5
			c-1-0.2-1.6,0.1-2.2,0.9c-1.1,1.4-1.4,3.2-2.2,4.7c-1.5,3-2.8,5.8-2,9.2c0.5,2.2,1.2,4.5,1.7,6.7c-0.1,0.1-0.1,0.3-0.2,0.4
			c-0.6,1.8-2,3.2-2.3,5.1c-3.6,3.1-4.2,6.2-2,10.9c2,4.3,3.7,8.8,5.1,13.3c0.7,2.3,0.8,4.8,2,6.9c-2,3.4-5.2,5.8-7.2,9.2
			c-0.4,0.7-1,1.2-1.7,1.2c-1,0,0-1.2-0.9-1.5c-1.2,1.4-2.5,4.1-4.6,2.1c-1.9-1.8,0.9-2.7,2.1-3.9c-3.1-2-6.6-2.6-10.4-3.4
			c2.5-1.6,4.7-0.6,6.8-0.7c1.5,0,2.6,0.2,1.4-2c-1-1.9-1.8-2.6-4-2c-2,0.6-4.2,0.1-6.2-0.5c-0.7-1.2-1.2-2.3,0-3.5
			c1.2,2.7,2.7,3.6,5.5,3.1c0.6-0.1,1.3-0.3,1.9-0.4c1.5-0.3,3.2,0,1.2-2.5c-1.5-1.8-1.7-4.6-2.8-6.9c-0.3-0.6,0.2-1.5,0.9-2.1
			c1.4-1.2,1.2-2.7,0-3.7c-1.1-1-1.6-2.2-1.8-3.6c-0.4-3.6-0.5-7.3-1.7-10.9c0-0.1-0.1-0.4,0-0.5c1.8-2,1-3.9,0.2-6.1
			c-0.4-1.2,2-2.4,2.4-2.2c1.7,0.7,1.1-0.4,1.1-1c0-2.3-0.1-4.5,1.7-6.4c1.2-1.2,0.7-3.1,1.1-4.7c2.8,0.2,5.1,1.6,7.1,3.4
			c1,0.9,1.7,1.2,2.1-0.4c0.9-3.2,1.4-6.6,3-9.6c0.4-0.7-0.1-1.4-0.6-1.1c-1,0.5-2.8-0.1-2.9,1.8c-0.1,1.8-1.1,1.1-2.2,1.1
			C99.9,106.4,97.2,104.3,94.9,107.1z M99.7,167.5c1.8,1.4,1.8,1.4,3.2,0.2c0.6-0.5,1.2-1.1,2-1.3c0.6-0.1,1.8,0.4,1.6-0.7
			c-0.1-0.8-1.3-1-2.1-0.9C102.6,165,101.3,166.3,99.7,167.5z M101.9,161.3c-1.9-1.3-3.3-1.4-5.4,0.1
			C98.5,161.5,99.9,161.7,101.9,161.3z"/>
		<path class="st3" d="M58.1,89.3c1.2,0.8,2.3,1.6,3.5,2.4c2,2.1,4.4,1.6,6.9,1c-3.1,2.2-5.5,5.2-8.2,7.8c-1.9,1.8-4.6,3.5-7.6,3.5
			c0.3-2.8,1.2-5.6,0.6-8.9c-0.5,0.9,0.2,1.8-0.8,2c-2.1-5.9-2.1-5.9-3.6-6.3c1.9,5.6,2.5,9.9-0.4,14c-6.8,2.5-13.6,2.2-20.5,0.3
			c-4.6-1.3-9-3-13.5-4.6c-1.1-0.4-1.6-0.3-1.8,0.9c-0.2,1-0.7,1.6-1.9,1.4c-0.3-0.1-0.6,0-1,0.1c-2.9,0.4-5.1-0.2-5.8-3.4
			c0.2-0.6,0.6-1.3,0.5-1.8c-0.8-2.7,1.6-5,0.8-7.6c-0.2-0.6,0.4-1.3,0.9-1.6c1.9-0.9,3.5-1.9,3.7-4.3c0-0.6,0.8-0.7,1.4-0.8
			c0.3,0,0.5,0,0.8,0.1c-1.5,3-1.3,6-0.3,9.1c-1.3,0.4-2.5,0.8-3.8,1c-0.3,0-0.1,1.8,0.6,2.3c1.1,0.8,2.5,1.3,3.9,0.6
			c1.2-0.6,0.3-1.3-0.2-1.9c-0.5-0.6-0.2-1.2-0.2-1.9c1.4,1,2.1,0.4,2.3-1c0.1-1.1,0-2.3,0-3.6c1.3,1.1,2.6,2.4,4.2,0.6
			c0.3,1.2,0.3,2.4,0.8,3.2c1.1,1.8,1.5-1.3,2.6-0.4c-0.6,1.3-1.5,2.1-2.8,2.5c-0.9,0.3-1.9,0.4-2.3,1.5c-1.2,0-1.6,0.7-1.5,1.8
			c0.2,2.7,1.2,3.2,3.6,2.2l0,0c1.3,0.2,2-0.9,3-1.3c0.7-0.3,1.7-0.9,2,0.2c0.6,1.9,1.8,1.3,3.1,1.1c1.8-0.2,2.9-1.6,4.3-2.4l0,0
			c0.2,0.5,0.1,1.2,1.1,0.6c1.2-0.7,3.1-4.2,2.9-5.6c-0.1-0.5-0.3-1-0.7-1.2c-1.6-0.7-3-1.6-4.2-2.9c-0.5-0.6-1,0-1.5,0.3
			c-0.1-0.2-0.3-0.5-0.4-0.7c0,0-0.4,0.1-0.4,0.1c0,0.5,0.3,0.6,0.7,0.7c0.1,1,1.7,2.1-0.2,3c-2-2-3.8-4.2-6.7-4.9
			c-0.5-0.1-0.9-0.3-0.9-0.9c5-1.2,10.2-0.5,15.3-0.8c2.4-0.1,4.9,0,6.8-1.9c0.4-0.4,1.1-0.7,1.6-0.5c2.9,1.4,5.9,0.7,8.8,0.6
			C53.1,86.5,55.9,87.7,58.1,89.3z M44,92.3c0,0.1,0,0.1,0.1,0.2c0,0,0.1,0,0.2,0C44.2,92.4,44.1,92.3,44,92.3
			c-0.7-1.3-0.7-1.3-3.6-2.6c2.4,2.3,2.3,5.2,2.9,8c0.6-1,0.6-2,0.4-2.9C43.6,93.9,43,93,44,92.3z M45,89.3
			c-0.1-0.1-0.2-0.1-0.2-0.2C44.8,89.2,44.9,89.3,45,89.3c0.1,1,1.2,1.4,1,2.5c-1.2,2.6-1.3,5.2,0.3,7.8c0.4-2.7,0-5.2-0.3-7.8
			c0.8,0.2,0.8,0.9,1,1.5c0.7,2.3,0.3,4.7,0.5,7c0,0.6-0.4,1.7,0.7,1.7c0.9,0,1.3-0.9,1.3-1.7c0-3-0.3-6-1.5-8.8
			C47.3,90.2,46.5,89.3,45,89.3z M38.5,96.2c1.2-2.1,0.8-5.4-0.5-6.5c-0.4-0.3-0.8-0.6-1.3-0.3c-0.6,0.3-0.2,0.8-0.2,1.3
			C36.3,92.7,38,94,38.5,96.2z M39.8,91.3c-0.1,2.8,1,5,1.4,7.4C41.8,93.7,41.8,93.5,39.8,91.3z M36,88.7c-0.1-0.1-0.2-0.1-0.3-0.2
			c0,0-0.1,0.1-0.1,0.1c0,0.1,0.1,0.2,0.1,0.2C35.8,88.8,35.9,88.7,36,88.7z"/>
		<path class="st2" d="M28.9,88.4c0.5-0.2,1-0.8,1.5-0.3c1.2,1.3,2.6,2.2,4.2,2.9c0.5,0.2,0.6,0.7,0.7,1.2c0.2,1.4-1.7,4.9-2.9,5.6
			c-0.9,0.6-0.9-0.1-1.1-0.6c0.9-0.5,1.6-1.2,1.3-2.3c-0.1-0.4-0.7-0.5-1-0.4c-1.1,0.6-0.2,1.6-0.3,2.4c0,0.1,0,0.2,0,0.2
			c-1.4,0.9-2.5,2.2-4.3,2.4c-1.3,0.2-2.5,0.7-3.1-1.1c-0.4-1.1-1.3-0.5-2-0.2c-1,0.5-1.7,1.5-3,1.3c0.2-1.8-0.5-3.1-2.1-3.9
			c0.4-1.1,1.4-1.2,2.3-1.5c1.3-0.4,2.2-1.2,2.8-2.5c-1.1-0.9-1.6,2.3-2.6,0.4c-0.5-0.9-0.5-2-0.8-3.2c-1.6,1.8-2.9,0.5-4.2-0.6
			c0,1.3,0.1,2.4,0,3.6c-0.2,1.5-0.9,2.1-2.3,1c-0.1-0.1-0.2-0.1-0.2-0.2c-1-3.1-1.2-6.1,0.3-9.1c0.3,0,0.5-0.1,0.8-0.1
			c0.3,0,0.5,0.1,0.8,0.1c2.5,0.6,5,1,7.3,2.2c0,0.6,0.5,0.8,0.9,0.9c3,0.6,4.8,2.9,6.7,4.9C30.5,90.6,28.9,89.4,28.9,88.4
			L28.9,88.4z"/>
		<path class="st2" d="M73.6,63.8c-4.8,1.1-8.9,3.6-12.7,6.7c-1.2,1-2.9,0.9-4.4,1.1c0.3-0.9,0.9-1.6,1.7-2
			c4.8-2.6,8.1-6.9,12.2-10.4c2.1-1.8,4.4-3,7.3-2.6c1.9,1.6,2.6,2.4,2.8,3.4c-0.7,0.3-1,0.8-1,1.5c-0.7,0.1-1.2-0.4-1.7-0.8
			c-0.5-0.3-0.9-0.6-1.7-1c0.3,2-0.4,3-2.3,3C73.5,62.8,73.5,63.4,73.6,63.8z"/>
		<path class="st2" d="M48.5,105c2.9-4,2.2-8.3,0.4-14c1.5,0.4,1.5,0.4,3.6,6.3c1-0.3,0.2-1.1,0.8-2c0.6,3.3-0.3,6.1-0.6,8.9
			C51.2,104.4,49.9,104.7,48.5,105z"/>
		<path class="st0" d="M58.1,89.3c-2.2-1.6-5-2.8-4.7-6.3c0.4-0.5,0.9-0.9,1.3-1.4c0.6,0,1.3-0.1,1.8,0.4c1.9,1.9,3.7,3.9,5.5,5.8
			l0,0C60.9,88.7,58.9,87.5,58.1,89.3z"/>
		<path class="st0" d="M87,90.3c1.1-0.5,2.2-1.6,3.4-0.2c4,4.4,9.6,3.9,14.7,4.7c2.5,0.4,5,0.4,7.5,0.7c-3.9,0.2-7.8-0.6-11.7-0.7
			c-3.9-0.2-7.8-0.2-11.2-2.5C88.4,92.2,87.9,91,87,90.3z"/>
		<path class="st0" d="M68.4,92.8c-2.4,0.5-4.8,1.1-6.9-1c2.6-1.5,5.5-0.8,8.3-0.9C69.4,91.5,68.9,92.2,68.4,92.8z"/>
		<path class="st1" d="M13.6,83.5c-0.3,0-0.5-0.1-0.8-0.1c0-0.4,0.1-0.9,0.5-0.9C13.9,82.6,13.6,83.1,13.6,83.5z"/>
		<path class="st3" d="M87.4,175.3c-0.2-0.3-0.4-0.6-0.5-1c0,0,0.1-0.1,0.1-0.1C87.5,174.4,87.6,174.8,87.4,175.3L87.4,175.3z"/>
		<path class="st0" d="M54.9,79.9c0,0.1,0.1,0.2,0.1,0.2c0,0-0.1,0-0.1,0C54.8,80.1,54.8,80,54.9,79.9z"/>
		<path class="st0" d="M118.7,180c-0.2-1.2-0.7-2.3-0.5-3.5c0.6-0.2,1.2-1.3,1.8-0.3c1.4,2.6,3.7,4.7,3.6,8
			c-0.1,3.5,1.8,6.3,3.6,9.1c0.3,0.5,0.9,0.9,1.4,0.8c2-0.5,4-0.3,5.8-2c2.2-2,5-3.6,8.4-2.2c2.6,1,5.1,2,7.6,3.1
			c1.2,0.5,2.2,1.3,3.1,2.5c1.5,1.9,3.6,3.7,6.2,3.3c2.3-0.3,3.9,0.9,5.7,1.6c2.1,0.9,8.9,0.5,9.5-1.4c0.9-2.9,3.4-2.6,5.3-3.6
			c1.5-0.8,3-0.9,4.2,0.5c1,1.7,0.5,3.9,1.5,5.6c0,1.7-1.3,1.2-2.3,1.4c-2,0.6-4.4-1.1-6.2,1.1c-0.5-0.1-1.1-0.1-1.6-0.2
			c-0.7-0.5-1.1-0.3-1.2,0.5l0,0c-0.2-0.2-0.4-0.2-0.6,0.1c-0.6-0.1-1.1-0.1-1.7-0.2c-0.1-0.2-0.3-0.6-0.4-0.5
			c-4.2,1.3-8.6,0-12.9,1c-0.9,0.2-4.4-3.1-4.7-4c-0.5-1.4-1.1-2.7-1.7-4c-0.3-0.6-0.7-0.7-1.4-0.7c-2.7-0.1-5.3,0.4-8.1,0.1
			c-2.5-0.3-5.3,1.4-8,2.3c-0.8,0.3-1.6,0.8-2.4,1.1c-1.1,0.4-2.1,2.1-3.1,1.2c-1.6-1.4-3.7-2.4-4.3-5c-1-4.6-2.9-8.9-3.6-13.5
			C121.6,181,120.7,179.5,118.7,180z"/>
		<path class="st3" d="M175.9,203.9c0.5,0.1,1.1,0.1,1.6,0.2c0.4,1.5,1.7,2.3,2.7,3.3c0.6,0.7,1.7,0.5,1.6-0.3
			c-0.4-3,1.8-2.6,3.5-3.1c1.5-0.4,2.1-1.3,0.6-2.5c-1-1.7-0.6-3.8-1.5-5.6c-0.1-2.3-1.2-4.4-0.4-6.8c0.2-0.1,0.4-0.2,0.6-0.3
			l0.1,0.1c1.1,1,1.8,2.1,0.6,3.6c-0.2,0.2-0.2,0.6-0.2,0.9c0,0.9-0.4,2,0.4,2.5c0.7,0.5,1.4-0.4,2.1-0.8c0.2-0.2,0.6-0.2,0.9-0.3
			l0,0.1c2.9,2.9-0.9,3.7-2.2,5.9c1.9-1.2,3.3,0,4.7-0.1c2.1-1,4.4-0.9,6.6-1.4c1.3-0.1,1.6-1.3,2.2-2.1c1.3,0,2.7-0.1,4,0
			c0.6,0,1.5-0.3,1.7,0.6c0.3,1.3-1.1,1.3-1.6,2c-2.8,0-5.7-0.6-8.3,1.1c-0.7,0.5-1.3,1.1-2.5,2c4.7-1.3,8.8-1.5,13.1-0.8
			c-0.7,1.6-1.6,0.8-2.5,0.7c-2.1-0.3-4.1,0.4-6.2,0.6c-0.7,0.1-1.4,0.5-1.3,1.4c0,0.3,0.2,0.6,0.2,0.8c2-1.8,2.9,1.7,4.7,0.9l0,0
			c-0.8,1-2.1,0.1-3,1c0.6,0.7,2.9,0,2,2.1c-0.1,0.1,1,0.2,1.5,0c1.9-0.5,3.5-0.1,5.1,1.3c-2.3,1.3-4.4,1.3-6.6,0
			c-0.9-0.5-1.8-0.9-2.8-0.6c-3.4,1-6.6-0.5-9.9-0.8c-2.7-0.2-5.5-1.1-8.1,0.3c-0.9,0.5-0.8,0.4-0.1,1c0.7,0.6,0.3,1.2-0.2,1.6
			c-0.7,0.5-1.5,0.8-2.5,1.4c0.2-1.4-0.1-2-1.7-1.6c-1.5,0.4-3.2,0.5-4.4-0.7c-1-1-2.2,1.3-3-0.5c1.6-0.5,2.3-2.2,4.1-2.6
			c-0.6-0.5-1-0.9-1.3-1.1c1.3-1.2,3.3-1.1,4.3-2.8c0,0,0,0,0,0C175.3,204.6,175.7,204.4,175.9,203.9z"/>
		<path class="st3" d="M147,200.1c0.3,0.9-1.1,0.7-0.4,1.6c0.5,0.5,0.3,1.6,1.3,1.7c1.2,0.2-0.1-1.6,1.4-1.3
			c0.3,3.1,2.5,4.5,5.5,4.9c0.6,0.1,1.2,0.4,1.1,1c-0.1,0.9-0.9,0.4-1.4,0.4c-1.5,0-3-0.6-4.5-0.9c-2.2-0.5-4.4-1.3-6.8-0.2
			c-2.3,1.1-3.6-0.5-3.9-2.5c-0.3-2.2-1.5-1.4-2.2-0.7c-0.7,0.8-1.3,1.5-2.4,1.1c-0.7-0.3-2.2,0.7-2.1-0.7c0.1-0.8,0.5-2,2.1-2.3
			C138.9,201.7,142.9,200.8,147,200.1z"/>
		<path class="st0" d="M105.2,201.7c-1.7,0.4-3.4-0.1-4.9-0.8c-1.4-0.7-2.8-1.3-4.4-1.3c-0.6,0-1.3,0.1-1.4-0.6
			c-0.1-0.6,0.3-1,0.9-1.3c1.6-0.7,2.8-1.4,2.5-3.5c-0.2-1,0.8-0.9,1.3-0.4c0.4,0.4,0.7,1.1,0.8,1.7c0.4,2.3,2,3.1,4.2,3.5
			c-0.1-1.2-1.3-1.9-1.1-3.2c0.3-1.6,1-1.7,1.9-0.8c1,1,2,0.9,3.1,1c3.1,0,5.9,1.6,9,2.1c0.6,0.1,1.4,0.4,1,1.3
			c-0.4,0.8-1.5,0.7-2,0.4c-1.9-1.4-4.1-0.5-6.1-1.1c-1.3-0.4-1.6,0.4-1.6,1.4c-1.1-0.5-2.3-0.5-3.3,0.2
			C104.3,200.4,105,201.1,105.2,201.7z"/>
		<path class="st0" d="M109.4,189.8c1.3,0,2.6,0.1,3.9,0c2.6-0.1,4,1.6,5,3.5c0.7,1.3-0.3,1.5-1.3,1.5c-2.3,0-4.2-1.1-6.3-1.7
			c-1.7-0.5-3.3-0.8-4.9-0.8c-1.2,0-2.3-0.3-2.3-1.6c0-1.4,1.3-0.7,2.1-0.7c1.3-0.1,2.6,0,3.9,0C109.4,190,109.4,189.9,109.4,189.8z
			"/>
		<path class="st3" d="M176,218.8c-8.9,2.8-18.2,1.6-27.8,2.4c1.8-1.6,3.3-2.1,5.2-2.1c3.6,0.1,7.3,0.1,10.9,0.2
			c2.5,0.1,4.7-1.4,7.3-1.2C173.1,218.2,174.6,218.2,176,218.8z"/>
		<path class="st3" d="M190.6,214.5c-0.4,0.8-0.5,1.3-0.8,1.6c-0.4,0.4-0.2,1.5-1.2,1.3c-0.7-0.1-0.9-0.9-1-1.5c0-0.2,0-0.3-0.1-0.5
			c-0.3-0.9-2.1-1.2-1.2-2.5c1-1.4,2,0.1,3,0.3c1.4,0.2,2.6,0.8,3.9-0.5c0.5-0.5,2.1-0.7,2.5,0.2c0.4,1-0.3,2.1-1.6,2.2
			C193.1,215.3,191.6,217.7,190.6,214.5z"/>
		<path class="st0" d="M105.8,184.2c2.1-0.6,4.3-0.3,6.4-0.9c0.9-0.3,2.5,1.5,3.6,2.5c0.7,0.6,1.3,1.4,1.9,2.2
			c-3.2-1.5-6.8-1.1-10.2-1.5C106.1,186.3,105.3,185.9,105.8,184.2z"/>
		<path class="st2" d="M105.2,201.7c-0.2-0.5-0.9-1.2-0.2-1.7c1-0.6,2.2-0.7,3.3-0.2c0.7,0.6,2.7,0.4,1.9,2
			c-0.9,1.7-2.3,1.1-3.6,0.2c-0.3-0.1-0.5-0.2-0.8-0.3C105.6,201.7,105.4,201.7,105.2,201.7z"/>
		<path class="st0" d="M132.1,209.2c3.6-4.3,7.2,0.2,10.9,0C139.3,209.2,135.7,209.2,132.1,209.2z"/>
		<path class="st0" d="M230.3,213.4c-3.6,0.8-3.9-1.9-5.2-3.5C228.7,208.3,228.6,211.8,230.3,213.4z"/>
		<path class="st3" d="M119,204.2c0-0.2,0.1-0.4,0.1-0.6c-0.2,0.2-0.3,0.4-0.5,0.6c-0.3,0-0.5,0-0.8,0.1c1-1.5,0.4-4-1.9-3.8
			c-1.5,0.1-2.7-0.1-4-0.8c-2.3-1.3-4.3,1.2-3.3,3.3c0.3,0.7,0.7,1.3,1.1,2c-0.8,0.1-1.6,0.2-2.4,0.3c-1.2,0.2-2.2,0.6-2.8,1.3
			c-1.1-0.9-1.9-2.6-2.6-3.4c-1.5-1.8-3.3-3.2-5.8-3.2c-3.1,0-3.1,4.9,0,4.9c1.8,0,3.1,2.9,4.1,4.1c1.5,1.8,3.3,3.2,5.8,3.1
			c1.3,0,2.2-0.9,2.3-2c0.3,0.1,0.9-0.2,1.4-0.2c1-0.1,2.1-0.2,3.1-0.3c0.2,0,0.4,0,0.6-0.1c0.1,2.3,2,4.3,4.5,3.2
			c1.7-0.8,2.4-2.6,2.2-4.3C121.6,207.2,121.2,204.5,119,204.2z"/>
		<path class="st0" d="M149.9,209.3c-1.9,0-3.1,0-4.8,0C146.9,208.5,148.1,208.2,149.9,209.3z"/>
		<path class="st3" d="M155.8,210.9c-0.5-0.1-1.1,0.6-1.4-0.2c-0.2-0.5,0.2-1,0.7-1C155.9,209.6,155.8,210.3,155.8,210.9
			C155.8,210.9,155.8,210.9,155.8,210.9z"/>
		<path class="st0" d="M231.2,210.3c-0.1,0.1-0.1,0.3-0.2,0.4c-0.1,0-0.3-0.1-0.4-0.1c0.1-0.1,0.1-0.3,0.2-0.4
			C231,210.1,231.1,210.2,231.2,210.3z"/>
		<path class="st3" d="M158.2,209.3c-0.2,0.1-0.4,0.2-0.4,0.2c-0.1-0.2-0.3-0.4-0.3-0.6c0-0.3,0.3-0.3,0.5-0.2
			C158.2,208.8,158.2,209.1,158.2,209.3z"/>
		<path class="st3" d="M172.5,204.3c0.6,0.1,1.1,0.1,1.7,0.2C173.5,205.2,172.9,205,172.5,204.3z"/>
		<path class="st3" d="M167,213.3c0.1-0.2,0.1-0.4,0.2-0.6c0.1,0,0.1,0.1,0.2,0.1C167.3,213,167.1,213.2,167,213.3
			C167,213.3,167,213.3,167,213.3z"/>
		<polygon class="st3" points="208.8,211.7 208.8,211.9 208.7,211.8 		"/>
		<path class="st0" d="M229.4,209.7c0-0.1,0-0.1,0.1-0.2c0.1,0,0.2,0,0.2,0.1c0,0,0,0.1-0.1,0.2
			C229.5,209.8,229.4,209.8,229.4,209.7z"/>
		<path class="st0" d="M92.7,192.8c0,0.1,0,0.1-0.1,0.2c-0.1-0.1-0.1-0.1-0.2-0.2c0,0,0.1-0.1,0.1-0.1
			C92.6,192.7,92.7,192.8,92.7,192.8z"/>
		<path class="st0" d="M117.7,187.9c0.2,0.1,0.5,0.3,0.7,0.4C118.2,188.2,117.9,188.1,117.7,187.9z"/>
		<polygon class="st3" points="119.2,185 119.2,185.1 119.2,185 		"/>
		<path class="st0" d="M105.8,201.7c0.3,0.1,0.5,0.2,0.8,0.3C106.3,201.9,106.1,201.8,105.8,201.7z"/>
		<polygon class="st3" points="177.5,219.1 177.4,218.9 177.6,218.9 		"/>
		<path class="st3" d="M201.2,206.5c0.1-0.1,0.1-0.1,0.2-0.2c0,0,0,0.1,0,0.1C201.3,206.5,201.3,206.5,201.2,206.5
			C201.2,206.5,201.2,206.5,201.2,206.5z"/>
		<path class="st2" d="M116.3,216.3c0.9,1.8,0.7,3-1.6,3.5c-3.2,0.8-6.3,1.4-9.6,1.7c-0.6,0.1-1.3,0.2-1.9,0
			c-1.2-0.4-2.7-0.9-2.7-2.4c0-1.7,1.6-1.5,2.7-1.7c1.8-0.3,3.7-0.6,5.5-0.8c1.4-0.2,2.9-1.1,3.9,1c0.3,0.6,1.5,0.6,1.8-0.6
			c0.2-0.6,0.2-1.3,0.2-1.9C115.7,215,115.8,215.8,116.3,216.3C116.2,216.2,116.3,216.3,116.3,216.3z"/>
		<path class="st2" d="M88.6,208.1c-1.2,2.8-1.4,5.8-1.5,8.8c-0.6-3.2-0.8-6.3,1-9.2C88.3,207.8,88.4,208,88.6,208.1z"/>
		<path class="st2" d="M53.4,224.2c-2.5,0-4.9,0-7.4,0C48.5,223.7,50.9,222.8,53.4,224.2z"/>
		<path class="st2" d="M125.1,214.3c0.7-0.8,1.8-0.7,2.7-1c0.9-0.3,1.9,0.3,2,1.2c0.1,0.9-1,0.8-1.7,0.8
			C127.1,215.2,125.7,216,125.1,214.3z"/>
		<path class="st2" d="M25.7,222.8c2.2-0.7,3.6,0.5,5.1,0.5C29.2,223.5,27.7,223.7,25.7,222.8z"/>
		<path class="st2" d="M90.8,219.7c0.5-0.9-0.5-1.9,0.9-2.3c0.1,0.9,1.1-0.4,1.2,0.4C93.1,219.3,91.9,219.2,90.8,219.7z"/>
		<path class="st2" d="M89,218.8c-0.7-0.7-0.7-1.5-0.2-2.5C89.4,217.1,89,218,89,218.8z"/>
		<path class="st2" d="M44.2,223.9c-0.1,0-0.1-0.1-0.2-0.1c0.1-0.1,0.2-0.1,0.3-0.2c0,0,0.1,0.1,0.2,0.1
			C44.4,223.8,44.3,223.8,44.2,223.9z"/>
		<path class="st2" d="M166.6,214.8c0,0.1,0.1,0.1,0.1,0.2c-0.1,0.1-0.2,0.1-0.4,0.2c0,0-0.1-0.1-0.1-0.2
			C166.4,215,166.5,214.9,166.6,214.8z"/>
		<path class="st2" d="M91.2,204.3c-0.1,0.4-0.4,0.7-0.7,0.8c-0.1-0.1-0.2-0.2-0.3-0.3c0.2-0.3,0.4-0.5,0.7-0.8
			C90.9,204.1,91.1,204.2,91.2,204.3z"/>
		<path class="st2" d="M88.8,206.9c0-0.4,0.1-0.8,0.4-1c0.1,0.1,0.1,0.1,0.2,0.2c-0.1,0.4-0.1,0.8-0.5,0.9
			C88.9,207,88.8,206.9,88.8,206.9z"/>
		<path class="st2" d="M88.2,207.7c0.2-0.3,0.5-0.5,0.7-0.8c0,0,0.1,0.1,0.1,0.1c-0.1,0.4-0.2,0.7-0.4,1.1
			C88.4,208,88.3,207.8,88.2,207.7z"/>
		<path class="st2" d="M90.8,204c0.2-0.1,0.3-0.2,0.5-0.3c0,0.2-0.1,0.4-0.1,0.6C91.1,204.2,90.9,204.1,90.8,204z"/>
		<path class="st2" d="M89.3,205.9c0.1-0.2,0.3-0.4,0.4-0.6c0.1,0.1,0.2,0.2,0.3,0.4c-0.2,0.2-0.3,0.3-0.5,0.5
			C89.4,206,89.3,205.9,89.3,205.9z"/>
		<polygon class="st2" points="165.1,213.3 165,213.5 165.1,213.3 		"/>
		<path class="st2" d="M90.5,205.1c-0.2,0.2-0.3,0.3-0.5,0.5c-0.1-0.1-0.2-0.2-0.3-0.4c0.2-0.2,0.3-0.3,0.5-0.5
			C90.2,204.9,90.4,205,90.5,205.1z"/>
		<path class="st2" d="M252,220.1c-0.5-1.4,1.1-2.1,1.1-3.4c1.1,0.5,1.4,1.4,1,2.4C253.9,220,253,220.3,252,220.1z"/>
		<path class="st2" d="M111.3,176c0.2,1-0.3,1.2-0.8,1.5c-1.5,1.1-2.4,2.5-2.5,4.5c0,0.6-0.4,1.2-1.1,1c-0.6-0.2-0.3-0.8-0.2-1.3
			C107.6,177.7,107.8,177.4,111.3,176z"/>
		<path class="st2" d="M86.8,167.8c2.6,1.1,4.5,3.1,7,1.5C91.3,171.3,89.2,170.9,86.8,167.8z"/>
		<path class="st2" d="M87.4,175.3c0.1-0.5,0.1-0.9-0.5-1c0.1-0.6-0.3-1.7,1.1-1c1.1,0.6,1.9,1.4,2.9,2.3
			C89.5,176.4,88.6,174.9,87.4,175.3z"/>
		<path class="st2" d="M92.6,178.2c1-0.1,1.9-0.3,2.9-0.3c0.7,0,1.4,0.1,2.1,0.3C95.9,178.8,94.2,178.6,92.6,178.2z"/>
		<path class="st2" d="M118.7,186.5c0,0.1-0.1,0.1-0.1,0.2C118.6,186.6,118.7,186.6,118.7,186.5
			C118.7,186.5,118.7,186.5,118.7,186.5z"/>
		<path class="st3" d="M85.5,213.4c-0.5,0-1,0-1.5,0c-0.1-1.1-0.9-2.1-2.3-2.2c-2.4-0.1-10.2-1-9.4,3.3c-1.2,0.2-2.5,0.4-3.7,0.6
			c-3.1,0.6-1.8,5.3,1.3,4.7c5.2-1,10.4-1.5,15.7-1.6C88.6,218.2,88.6,213.3,85.5,213.4z"/>
		<path class="st3" d="M174.2,161.9c-1.9-1.3-2.2-3.6-3.3-5.4c-1.5-2.6-2.4-5.6-3-8.6c1.7-2.1,0.8-4.4,0.5-6.7
			c-0.2-1.2-1.1-2.2-0.9-3.6c2.1,1,1.9,3.4,3.3,4.7c0.7,0.7,0.8,1.5,2.3,1.4c1.6-0.1,2.3,2.3,2.5,3.4c0.5,3.2,3.3,4.9,4.1,7.8
			c0.3,1,2.6,0.6,4,0.3c1.4-0.3,2.6-1.4,4.1-1.3c-0.5,1.1-1.8,0.9-2.5,1.7c-2.7,0.8-5.5,1.6-8.2,2.5
			C175.4,158.6,174.4,159.9,174.2,161.9z"/>
		<path class="st3" d="M166.5,145.5c-1.9-2.8-4.5-4.8-7.1-6.8c-0.4-0.3-0.8-0.5-0.8-1.1c2.9,0.9,5.2,2.7,7.7,4.2
			C167.5,142.6,167.5,144.3,166.5,145.5z"/>
		<path class="st3" d="M190,153c-0.6,0.3-1.1,0.9-1.9,0.8C188.3,152.7,189.1,152.7,190,153z"/>
		<path class="st3" d="M158.7,137.7c-0.4,0-0.6-0.3-0.7-0.6C158.2,137.3,158.5,137.5,158.7,137.7z"/>
		<path class="st3" d="M175,179.2c0.5,0,1-0.1,1.4-0.1c0.8-0.1,1.8,1.1,2.4,0c0.5-0.9-0.5-1.5-0.8-2.3c-0.8-2.1-1.7-4.1-2.6-6.2
			c1.7,0.7,3.4,1.5,4.7,2.9c0.1,0.4,0.2,0.6,0.6,0.3l0,0c1.2,2.2,2.6,3,4.6,0.6c-1.4-0.1-2.5-0.6-3.5-1.4c-0.6-1.9-2.6-2.2-3.9-3.3
			c-0.5-0.4-1.2-0.7-0.9-1.5c0.3-0.7,0.8-1,1.5-1c0.2,0,0.5,0.1,0.7,0c0.6,0,1.2-0.1,1.3-0.8c0.1-0.9-0.7-0.7-1.2-0.8
			c-1.6-0.2-3-0.8-4.4-1.6c-0.1-0.3-0.1-0.6-0.2-1c-0.3-2.5,1.4-3.3,3.3-3.8c2.3-0.6,4.7-1,7-1.6c1,1.4,0.9,2.6-0.5,3.6
			c-0.9,0.6-1.9,1-2.7,2.1c1.6,0.4,2.7,0,3.7-0.8c0.3-0.1,0.7-0.1,0.9-0.3c1.6-2.6,4.6-1.2,6.5-2.7c0.2,0.2,0.4,0.5,0.6,0.7
			c-0.8,0.6-1.6,1.2-2.5,1.8c-0.2,0.2-0.4,0.3-0.1,0.6c-0.1,0.2-0.3,0.3-0.4,0.5c-2.2,0.3-4.4,0.8-6.8,2c1.4-0.1,2.5-0.8,3.3,0.4
			c-0.2,0.1-0.6-0.2-0.5,0.3c0.2-0.1,0.3-0.2,0.5-0.3c1.1-0.4,2.3-0.7,3.4-1.1c0.9,0.3,1.8,0.8,2.8,0.6c0.1,0.7-0.6,0.9-1,1.3
			c-1.4,1.2-3.6,2.1-1.7,4.6c0.2,0.2-0.2,0.8-0.5,1.6c2.2-0.9,3.8-1.9,4.3-4.3c0.7,0.5,0,1.9,1.1,1.7c1.6-0.3,1.8-1.6,2-3
			c0.4-0.7,0.8-1.3,1.2-2c0.3,0.3,0.6,0.5,0.8,0.8c0,0,0,0,0,0c-0.3,0.7,0.3,1.2,0.4,1.9c0.1,1,0.6,2.1-1.2,1.9
			c-1.7-0.2-1.9,1.5-2.6,2.5c-0.6,0.4-0.9,1.2-1.9,1.1c-1-0.1-2.1,0.4-2.5,1.8c0.6,0.1,1.4-0.3,1.6,0.3c0.5,1.5-2.1,0.9-1.8,2.5
			c0.9-0.2,1.8-0.3,2.6-0.5c1.3-0.3,2.1-1.8,3.7-1.4c0.3,0.9-0.6,1.6-0.2,2.7c0.5,1.2-1.2,0.3-1.7,0.8c0.2-0.4,0.6-0.9,0.5-1.2
			c-0.2-0.4-0.8-0.3-1.3-0.1c-1.5,0.7-3,1.3-4.3,2.5c-0.3,0.3-0.9-1.2-1,0.1c0,0.4,0.4,1.3,1.3,0.9c0.7-0.3,1.2-0.3,1.4,0.6
			c-0.8,0.8-1.9,1-2.9,1.2c-2.7,0.3-4,2.7-6.1,3.9c-0.5-0.7-1-1.5-1.5-2.2c-0.2-0.5-0.4-0.9,0.4-1c0.8-0.1,1.5-0.6,1.4-1.4
			c0-0.7-0.8-1-1.4-1.1c-0.9-0.2-1.3-0.7-1.2-1.6c-1.1,0.4-1.4,2.2-3,1.6c-0.7-1.4-2-1.4-3.2-1.6C175,179.7,175,179.4,175,179.2z
			 M188.9,174.2c-1.8,0-2.1,1.7-3.5,2.6c1.9,0.5,3.3,0.1,5-1.2C188.4,176.2,189,175,188.9,174.2c0-0.1,0.1-0.1,0.2-0.1
			C189.1,174.2,189,174.2,188.9,174.2z"/>
		<path class="st0" d="M200.9,188.7c0.8-0.3,1.4-0.1,1.9,0.6c-1.7,0.8-3.5,1.3-5.3,1.6c-0.7,0.1-1.6,0.1-1.6-0.9
			c0-0.8,0.9-0.9,1.5-0.9C198.5,188.8,199.7,188.8,200.9,188.7z"/>
		<path class="st0" d="M197.7,199.2c-2.2,0.5-4.5,0.4-6.6,1.4C192.4,198.6,196.4,197.8,197.7,199.2z"/>
		<path class="st3" d="M186.3,188c-0.1,0.1-0.2,0.2-0.3,0.3c-0.3,0-0.4-0.1-0.3-0.4c0-0.1,0.2-0.2,0.4-0.2
			C186.2,187.7,186.3,187.9,186.3,188z"/>
		<path class="st3" d="M188.5,194.8c0.1-0.5,0.5-0.5,0.9-0.4c0.1,0,0.2,0.1,0.1,0.2C189.3,194.9,188.9,194.8,188.5,194.8
			C188.5,194.8,188.5,194.8,188.5,194.8z"/>
		<path class="st3" d="M184.6,188.9c0.1-0.1,0.2-0.2,0.2-0.3C185.1,188.9,184.9,188.9,184.6,188.9
			C184.7,189,184.6,188.9,184.6,188.9z"/>
		<polygon class="st3" points="155.6,107.8 155.5,107.6 155.7,107.6 		"/>
		<path class="st0" d="M197.8,175.7c-1.6-0.4-2.4,1.1-3.7,1.4c-0.9,0.2-1.7,0.3-2.6,0.5c-0.3-1.6,2.3-1,1.8-2.5
			c-0.2-0.6-1-0.2-1.6-0.3c0.4-1.4,1.5-1.8,2.5-1.8c1.1,0.1,1.3-0.7,1.9-1.1c0.2,0,0.5,0.1,0.7,0.1c-0.8,2.6-0.8,2.6,1.8,2.3
			c0,0.2-0.1,0.3-0.1,0.5C198.3,175,198,175.4,197.8,175.7L197.8,175.7z M195.1,174.2c-0.1-0.1-0.3-0.5-0.5-0.6
			c-0.4-0.1-0.6,0.2-0.5,0.6c0.1,0.3,0.4,0.5,0.7,0.6C195,174.9,195.1,174.6,195.1,174.2z"/>
		<path class="st2" d="M198.7,174.2c-2.6,0.3-2.6,0.3-1.8-2.3c2.2,0.7,6-1.5,6.3-3.7c1.1,2.3,1,3-1,4.2
			C201,173.1,200,174,198.7,174.2z"/>
		<path class="st3" d="M202.8,181.1c-0.2,0.4,0.1,1.4-0.2,1.2c-1.9-1.4-4,0.6-6.1-0.5c1.1-0.5,1.7-1.3,3.2-1.1
			c2,0.3-0.2-1.9,0.9-2.4C202.3,178.5,201.8,180.4,202.8,181.1z"/>
		<path class="st3" d="M197.8,175.7c0.3-0.4,0.5-0.7,0.8-1.1c0.3,0.4,2.1-0.8,1.1,1C199,175.4,198.4,176.6,197.8,175.7z"/>
		<path class="st0" d="M202,167.3c-0.5-0.3-0.8-0.6-0.5-1C201.6,166.7,201.8,167,202,167.3z"/>
		<path class="st2" d="M195.7,200.8c2.6-1.7,5.5-1,8.3-1.1c1.4-0.1,2.6-1,4.1-0.7c0.4,0.7,1.6,0.2,1.7,1.2c-1.2,1.6-2.9,0.1-4.3,0.4
			c-3,0.5-6.1-0.1-9.2,0.6C196.1,201.2,195.9,200.9,195.7,200.8z"/>
		<path class="st2" d="M209.8,200.2c2-0.4,3.4,0.6,3.8,2.5C212.3,201.9,211.1,201,209.8,200.2z"/>
		<path class="st4" d="M216.8,209.5c0,0,0.1-0.1,0.1-0.1C216.8,209.4,216.8,209.4,216.8,209.5C216.8,209.5,216.8,209.5,216.8,209.5z
			"/>
		<path class="st2" d="M185.1,157.7c-2.3,0.5-4.7,1-7,1.6c-2,0.5-3.6,1.3-3.3,3.8c-0.6-0.2-0.4-0.7-0.6-1.2c0.2-2,1.2-3.3,3.1-3.9
			c2.7-0.9,5.5-1.7,8.2-2.5C185.8,156.3,185.6,157,185.1,157.7z"/>
		<path class="st2" d="M187.1,165.5c-0.8-1.1-1.9-0.5-3.3-0.4c2.4-1.3,4.6-1.7,6.8-2c0,0.4,0,0.8-0.1,1.3
			C189.3,164.7,188.2,165.1,187.1,165.5L187.1,165.5z"/>
		<path class="st2" d="M185.6,162.6c-1,0.8-2.1,1.2-3.7,0.8c0.8-1.1,1.8-1.5,2.7-2.1C184.9,161.7,185.3,162.1,185.6,162.6z"/>
		<path class="st2" d="M190.9,162.7c-0.3-0.2-0.1-0.4,0.1-0.6C191,162.3,191,162.5,190.9,162.7z"/>
		<path class="st2" d="M192.5,182.1c-0.2-0.9-0.7-0.9-1.4-0.6c-0.9,0.4-1.3-0.5-1.3-0.9c0.1-1.3,0.7,0.2,1-0.1
			c1.3-1.1,2.8-1.8,4.3-2.5c0.5-0.2,1-0.4,1.3,0.1c0.1,0.2-0.3,0.8-0.5,1.2C195.3,180.8,193.8,181.3,192.5,182.1z"/>
		<polygon class="st4" points="203.4,185.1 203.3,184.9 203.5,185 		"/>
		<path class="st4" d="M216.1,189.8c0.2,0.3,0.3,0.7,0.5,1C216,190.6,215.9,190.3,216.1,189.8z"/>
		<path class="st2" d="M199.6,165.6c-0.3-0.3-0.6-0.5-0.8-0.8c0-0.6,0.2-1.3,0.9-0.9C200.6,164.3,200.2,165,199.6,165.6z"/>
		<path class="st0" d="M119.5,100.6c2-0.8,4.1-0.6,6.1-1c0.9-0.2,1.9-0.2,3-1c-3.8,0.1-7.3,0.5-10.8,0.2c-3.5-0.3-6.9-0.5-10.3-1.8
			c8.8-0.7,17.8,1.2,26.8-0.9c-1.9-0.9-3.4-0.1-5,0.1c-5,0.7-9.5-1.3-13.9-3c-4.1-1.7-8.4-2.1-12.5-3.6c-1.2-0.4-2.4-1.1-3.6-1.5
			c-0.7-0.3-1-0.8-0.7-1.6c5.4-0.7,10.8-1.4,16.2-2.1c1.7,0.2,3,1.3,5.2,1.9c-1.9,0.4-3.2,0.1-4.6,1c2.2,0.1,3.3,2.1,4.9,2.5
			c4.5,1.3,9.1,2.2,13.8,2.2c1.6,0,3.1-0.2,3.8-2.2c-1.1-0.2-2.3-0.3-3.5-0.5c0.4-0.6,1.1-0.5,1.1-1.1c0.7-0.7,2-0.2,2.7-1.3
			c-2.1-0.5-1.8-1.9-1.1-3.4c0.9-1.4,2.3-2,3.9-1.9c1.1,0.1,1.8-0.4,2.3-1.3c1.1,0.3,1.9,0.3,2.7-0.8c0.8-1.1,2-2.2,3.7-2
			c-0.2,1.3-2.7,2.2-0.8,3.9c0.1,0.1-0.3,0.7-0.6,1c-3,2.5-4.2,6.7-7.8,8.8c-0.3,0.2-0.6,0.6-0.4,0.8c2,1.8-0.4,2.3-0.9,3.4
			c1.2-0.6,3.5,0.7,3.2-2.3c-0.1-0.6,1-0.8,1.6-0.7c0.8,0,1.6,0.2,2.4,0.4c-1.9,1.4-3.7,2.8-5.6,4.2c-0.3,0.2-0.6,0.5-0.9,0.7
			c0,0,0,0,0,0c-1.3,0.5-2.6,1-3.9,1.6c-4.6,1.1-9.3,1.4-14,1.4c-0.5,0-1,0-1.4,0C120.4,100.6,120,100.6,119.5,100.6z M133.6,93.2
			c-2.4-0.3-4.7-0.6-7.1-0.9c-0.5-0.1-1-0.2-1.2,0.5c-0.2,0.7,0.3,1,0.9,1C128.8,93.9,131.3,94.2,133.6,93.2z M139.3,92.6
			c0-0.1,0-0.1,0-0.2c0,0-0.1,0-0.2,0c0,0.1,0,0.2,0,0.3C139.2,92.6,139.3,92.6,139.3,92.6z"/>
		<path class="st2" d="M148.7,43.9c-0.1,0.6-0.1,1.1-0.2,1.7c-1.7,0.9-1,2.6-0.9,3.8c0,1.2,0.8,2.3-1.4,1.9
			c-0.8-0.1-1.7,0.9-2.6,1.1c-4.7,1.4-9.3,0.8-14-0.2c-1.1-0.2-4.2-5.8-3.9-6.9c0.6-2.2,2.3-2.9,4.3-2.6c2.7,0.5,5.3,0.1,7.9,0
			c1.4,0,2.5,0,2.7,1.9c0.1,1,1.2,0.6,1.9,0.8c0.3-0.8-0.6-1.7,0.4-2.5c0.9,2.1,2.2,1,3.3,0.3C147.4,42.5,148.1,42.7,148.7,43.9z"/>
		<path class="st2" d="M89.5,56.6c-0.8-0.6-1-1.3,0.1-1.8c1.3-0.6,1.3,0.6,1.6,1.2c1.3,2.3,2.7,4.6,3.5,7.1c0.3,1.1-0.1,2.7-0.1,4.1
			c0,0.7,0.1,1.7-0.8,2.1c-1,0.3-2,0-2.7-0.8c-2.8-3.3-6.2-6.1-8.8-9.6c-0.3-0.4-0.5-0.9-0.2-1.1c0.8-0.6,2-0.7,2.9-1.1
			c1-0.5,1.8-1.1,2.6,0.2c0.3,0.5,0.7,0.9,1.4,0.5C89.3,57.3,89.6,57,89.5,56.6z"/>
		<path class="st2" d="M135.8,88.2c-0.1,0.6-0.8,0.5-1.1,1.1c1.2,0.2,2.3,0.3,3.5,0.5c-0.7,1.9-2.1,2.2-3.8,2.2
			c-4.7,0-9.4-0.8-13.8-2.2c-1.5-0.5-2.7-2.4-4.9-2.5c1.3-0.9,2.7-0.6,4.6-1c-2.2-0.6-3.5-1.7-5.2-1.9c0.4-0.5,0.9-0.8,1.5-0.6
			c0.8,0.1,1.7,0.2,2.5,0.3c1.9,0.3,0.6-0.7,0.5-1.3c0.2,0,0.4,0,0.7,0c0.3,0,0.6,0.1,0.9,0.1c0,0,0,0,0,0c0.6,1.2,1.7,1.8,3,2
			c0,0,0,0,0,0c2.9,2.4,6.5,2.5,9.9,3.3C134.6,88.2,135.2,88.2,135.8,88.2z"/>
		<path class="st2" d="M123.4,63.5c1.2-0.9,2.6,0.7,3.5-0.6c0.4-0.6-0.8-0.9-1-1.5c1.6-1.7,3.2,0.4,4.9-0.3c1.5-0.6,3.5-1.1,4.8,0.6
			c0.5,0.6-3,2.6-4.9,2.6c0.6,0.6,1.4,0.2,2,0.5c0.6,0.2,1.1,0.6,1.8,0.9c-0.6,0.7-1.7-0.3-1.6,0.4c0.1,1.6,1.3,2.6,2.7,3.3
			C132.3,71.9,126.4,69,123.4,63.5z"/>
		<path class="st2" d="M146.8,66.1c-0.7,1.1-1.1,2.4-2.6,2.8c-0.6-0.5,0-1.1,0.1-1.5c0.3-1.6-0.5-1.5-1.6-1.1
			c-2.6,0-3.1-2.5-4.6-3.9c-0.7-0.7,1.8-3.3,3.5-3.2c2.7,0.1,5.3-0.4,7.9-1.2c-0.3,1.7-1.4,3-2.1,4.6c-0.4,1-1.5,1.9-0.9,3.1
			C146.6,65.9,146.7,66,146.8,66.1z M145.3,65c-0.1-0.1-0.2-0.2-0.3-0.2c0,0.1-0.1,0.2-0.1,0.2c0.1,0.1,0.2,0.2,0.3,0.2
			C145.2,65.1,145.2,65.1,145.3,65z"/>
		<path class="st2" d="M156.2,66.9c-3.2,0.5-6.3-0.5-9.5-0.8c-0.1-0.1-0.2-0.3-0.3-0.4c0.6-0.4,1.1-1.1,1.6-1.7
			c1.2-1.4,0.7-3.5,2.2-4.6c0.7,0.6,1.4,1.3,2.1,1.9c0.7,0.6,0.9,0.1,1-0.5c1,0.3,1.4,0.2,0.8-1c-0.8-1.6-2.1-2.9-1.8-4.9
			c0.1-0.1,0.3-0.3,0.4-0.4c0.7,0.2,1,0.7,1.2,1.4c1.1,3.1,2.2,6.2,3.3,9.3C157.6,66.3,157.9,67.2,156.2,66.9z"/>
		<path class="st0" d="M154.4,43.5c1,0.5,1,1.2,0.7,2.2c-0.5,2.1-0.3,4.2,0.9,6c0.2,1.3-0.3,2.8,1.2,3.7c0,0.1,0.1,0.2,0,0.2
			c-0.3,0.9,0.7,2.5-0.7,2.6c-1.1,0.1-0.8-1.4-1-2.3c-0.3-1.3-1.1-2.4-1.7-3.6c-0.1-0.5-0.1-1-0.2-1.5c0.5-2.4-1-4.3-1.3-6.5
			C153.4,44.8,153.8,43.9,154.4,43.5z"/>
		<path class="st0" d="M150.2,59.5c-1.5,1.1-1,3.2-2.2,4.6c-0.5,0.6-0.9,1.2-1.6,1.7c-0.5-1.3,0.5-2.1,0.9-3.1
			c0.6-1.6,1.8-2.9,2.1-4.6c1-1,2-2,3-3c-0.3,2,1.1,3.3,1.8,4.9c0.5,1.1,0.2,1.3-0.8,1c-0.6-0.6-1.2-1.3-1.9-1.9
			C150.6,58.1,150.5,58.9,150.2,59.5z"/>
		<path class="st2" d="M133.3,74.3c-1.3,1.3-2.6,2.4-4.6,2.5c-0.7,0-1.6-0.2-1.1-1c0.8-1.2,0-2-0.7-3.8c2.3,2.2,3.7,0.8,5.3,0.2
			C132.4,73,134.7,72.6,133.3,74.3z"/>
		<path class="st2" d="M79.6,61.6c0-0.7,0.3-1.3,1-1.5c2,2.1,3.9,4.2,5.9,6.3l0,0c-2.9,0-4.3-2.1-5.9-4
			C80.5,61.8,80.1,61.6,79.6,61.6L79.6,61.6z"/>
		<path class="st2" d="M110.4,42.5c1.8,2.1,3.9,3.9,5.1,6.4c0.4,0.8,0.5,1.6,0.3,2.4l0,0c-1.1-1.6-2-3.6-3.5-4.9
			C110.9,45.3,112.3,43.1,110.4,42.5L110.4,42.5z"/>
		<path class="st0" d="M133.3,74.3c1.4-1.7-0.9-1.3-1.2-2.1c2.2-1.1,5-0.2,6.9-2.2C137.8,72.3,135.7,73.5,133.3,74.3z"/>
		<path class="st2" d="M135.8,88.2c-0.6,0-1.2,0-1.8,0c0.1-0.7,1-1.2,0.4-2c1.2-0.7,0.9-3,3-2.7c-0.7,1.5-1,2.8,1.1,3.4
			C137.8,88,136.5,87.5,135.8,88.2z"/>
		<path class="st0" d="M134.4,86.2c0.6,0.8-0.3,1.3-0.4,2c-3.4-0.8-7-0.9-9.9-3.3c1.9,0.6,3.8,1.2,5.7,1.8
			C131.3,87.1,132.9,87.3,134.4,86.2z"/>
		<path class="st2" d="M129.8,54.2c-2-0.2-4.1,0.3-6.2-0.9C126,52.6,127.8,54,129.8,54.2z"/>
		<path class="st2" d="M110.4,42.5c-0.1-0.1-0.3-0.2-0.4-0.2c-1.4-0.4-1.2-1.7-1.5-2.7c0-0.1,0.6-0.6,0.6-0.5
			c0.7,0.7,0.9,1.6,1.2,2.5C110.4,41.8,110.4,42.1,110.4,42.5C110.4,42.5,110.4,42.5,110.4,42.5z"/>
		<path class="st2" d="M115.8,51.3c0.9,0.7,1.7,1.4,2.6,2.1c0.6,0.5,0.3,1.1-0.1,1.4c-0.5,0.5-0.9-0.1-1.1-0.5
			C116.7,53.3,116.2,52.3,115.8,51.3C115.8,51.3,115.8,51.3,115.8,51.3z"/>
		<path class="st2" d="M92.4,52.1c1.2-0.1,1.7,0.8,2.1,1.6c0.4,0.7,0.2,1.8-0.5,2.1c-1.1,0.6-0.8-0.8-1.2-1.3
			c-0.6-0.6-0.6-1.4-0.6-2.2C92.3,52.3,92.3,52.2,92.4,52.1z"/>
		<path class="st2" d="M121.6,77.6c-0.9,0.3-1.8,0.6-2.7,0.7c-0.2,0-0.3-0.6,0-0.8C119.7,76.9,120.6,77,121.6,77.6z"/>
		<path class="st0" d="M142.7,66.3c1-0.4,1.8-0.5,1.6,1.1c-0.1,0.5-0.6,1-0.1,1.5c0,0-0.1,0-0.1,0c-0.8-0.4-1,0.1-1,0.7
			C141.7,68.6,143.9,67.2,142.7,66.3z"/>
		<path class="st2" d="M145,53.2c-1.6,1.7-3.6,1.3-5.6,1.4C141.2,53.7,143.3,54.1,145,53.2L145,53.2z"/>
		<path class="st0" d="M119.6,82.9c0.1,0.5,1.4,1.5-0.5,1.3c-0.8-0.1-1.7-0.2-2.5-0.3c0.7-0.6,1.8-0.6,2.4-1.5
			C119.2,81.9,119.5,82.5,119.6,82.9z"/>
		<path class="st2" d="M139.2,37.5c-1.2-0.5-1.9-1.1-2-2.1c0-0.3,0.4-0.7,0.6-0.5C138.6,35.5,139.2,36.2,139.2,37.5z"/>
		<path class="st0" d="M138.5,74c-0.9,1.1-2,1.4-3.3,1.1l0,0c1-0.5,1.9-1,2.9-1.5C138.2,73.7,138.3,73.9,138.5,74z"/>
		<path class="st0" d="M124.1,84.9c-1.3-0.2-2.3-0.8-3-2C122.2,83.5,123.4,83.8,124.1,84.9z"/>
		<path class="st0" d="M139.7,72.8c-0.4,0.4-0.9,0.8-1.3,1.2c-0.1-0.1-0.2-0.2-0.3-0.4c0.4-0.4,0.9-0.8,1.3-1.2
			C139.5,72.5,139.6,72.7,139.7,72.8z"/>
		<path class="st2" d="M143.1,69.6c0-0.7,0.2-1.1,1-0.7c0,0.3,0,0.7,0,1C143.8,69.8,143.4,69.7,143.1,69.6z"/>
		<path class="st5" d="M79.6,61.5c0.5,0.1,0.9,0.3,0.9,0.9C80,62.4,79.5,62.3,79.6,61.5z"/>
		<path class="st2" d="M145,53.2c0.3-0.1,0.5-0.2,0.1,0C145.6,53.1,145.3,53.1,145,53.2C145,53.2,145,53.2,145,53.2z"/>
		<path class="st0" d="M140.2,72.3c-0.5-0.2-0.2-0.5,0-0.7c0,0,0.2,0,0.3,0.1C140.4,71.9,140.3,72.1,140.2,72.3
			C140.2,72.3,140.2,72.3,140.2,72.3z"/>
		<path class="st0" d="M121.2,83c-0.3,0-0.6-0.1-0.9-0.1C120.7,82.3,121,82.3,121.2,83z"/>
		<path class="st5" d="M92,45.4c0.1-0.2,0.2-0.3,0.2-0.5C92.3,45.2,92.3,45.4,92,45.4z"/>
		<path class="st0" d="M139.4,72.4c0.2-0.2,0.4-0.6,0.8-0.1c0,0,0-0.1,0-0.1c-0.1,0.2-0.3,0.3-0.4,0.5
			C139.6,72.7,139.5,72.5,139.4,72.4z"/>
		<path class="st2" d="M109.8,83.7c-0.1,0-0.1,0.1-0.2,0.1c-0.1,0-0.1-0.1-0.2-0.1c0.1,0,0.1-0.1,0.2-0.1
			C109.7,83.5,109.8,83.6,109.8,83.7z"/>
		<path class="st2" d="M92.2,52.4c-0.2-0.1-0.3-0.3-0.1-0.5c0,0,0.2,0.2,0.3,0.2C92.3,52.2,92.3,52.3,92.2,52.4z"/>
		<polygon class="st5" points="103.1,18.5 103.1,18.5 103.1,18.6 		"/>
		<path class="st0" d="M135.2,75.1c0,0.1,0,0.3,0,0.4C134.8,75.3,135.2,75.2,135.2,75.1C135.2,75.1,135.2,75.1,135.2,75.1z"/>
		<polygon class="st2" points="86.5,66.4 86.5,66.4 86.5,66.4 		"/>
		<path class="st2" d="M154.4,43.5c-0.6,0.4-1,1.3-2,1c-0.4-1.1-0.9-2.2-1.3-3.3c-0.3-0.8-0.4-1.7,0.4-2.2c0.9-0.5,1.1,0.7,1.5,1.2
			c0.4,0.4,0.6,0.9,0.9,1.4c0.1,0.2,0.2,0.4,0.3,0.6C154.3,42.6,154.3,43,154.4,43.5z"/>
		<path class="st2" d="M182.5,44c0.4-2.3-0.8-4.1-1.4-6.1c2.4,0.8,3.7,4.3,3.6,10.6C184.1,46.9,183.5,45.4,182.5,44z"/>
		<path class="st0" d="M156.2,66.9c1.6,0.2,1.4-0.7,1.1-1.7c1.7,1.8,1.4,3-0.8,3.7c-2.2,0.8-4.4,1.3-6.6,1.6
			c1.3-1.3,3.1-1.5,4.7-2.1C155.3,68.1,156.6,68.5,156.2,66.9z"/>
		<path class="st2" d="M157.3,55.4c-1.5-0.9-0.9-2.5-1.2-3.7c0.3-1.1,0.7-2.3,1-3.4C158,50.7,158,53.1,157.3,55.4z"/>
		<path class="st0" d="M158.6,45.7c0.9,3.1,2,6.2,1,9.5C159.1,52,158.9,48.9,158.6,45.7z"/>
		<path class="st0" d="M162.5,47.2c1.3,0.8,1.8,2.1,2.3,3.5C163.5,49.9,162.8,48.7,162.5,47.2z"/>
		<path class="st0" d="M149,73.8c1.1-0.8,1.9-1.3,3-0.8c0.1,0.1,0.2,0.5,0.1,0.6C151.2,74.4,150.3,74.4,149,73.8z"/>
		<path class="st0" d="M154.2,42.1c-0.1-0.2-0.2-0.4-0.3-0.6C154,41.7,154.1,41.9,154.2,42.1z"/>
		<path class="st2" d="M205.1,38.6c-0.2,0.9,0.2,1.8,0.4,2.6c0.5,2.3,0.1,4.1-2.1,5.4c0-1.4,0.6-2.8-0.4-4.1c-0.7,1-1.3,2-2,3.1
			c-0.5-1.8,0.2-3.6-0.9-5.1c0.4,2.8-0.3,5.3-2,8c0.1-2.8-0.9-5.2,0.1-7.7c0.1-0.3-0.2-0.9-0.5-1.3c-0.6-0.9-0.8-2-0.2-2.7
			c0.5-0.6,1.6-0.7,2.6-0.2c0.6,0.3,1.2,0.8,1.2-0.5l0,0c1.5-0.3,2.2,1.2,3.4,1.5l0,0C204.5,38,204.5,38.4,205.1,38.6L205.1,38.6z"
			/>
		<path class="st2" d="M187.5,43.5c2-0.4-0.5-1.6,0.5-2.2c1.8,1.8,1.1,4.5,2.2,6.6c0.7-2.6-0.4-4.9-0.9-7.2c0.1-0.1,0.1-0.2,0.2-0.2
			c2.8,3.7,2.5,9.6-0.7,12.7c-1.1,1-2.5,2.2-4.1,0.5c0,0,0,0,0,0c2.8-0.8,2.3-3.3,1.9-5c-0.6-2.6-0.9-5.2-1.6-7.8
			c-0.2-0.8-0.7-1.5-1-2.2l0.1-0.1c1.3,0.1,1.4,1.2,1.5,2.1C185.9,41.8,186.5,42.7,187.5,43.5c-0.6,0.2-1.5,0.4-0.8,1.2
			c1.3,1.4,1.3,3.1,1.4,5.2C189.7,47.3,188.1,45.5,187.5,43.5z"/>
		<path class="st2" d="M204.6,37.6c-0.2-0.7-0.3-1.3-0.5-2c0,0,0,0,0,0c0.4,0.3,0.7,0.7,1.1,0.9c2.2,0.8,3.3,1.9,1.8,4.2
			c-0.2,0.3-0.1,0.7-0.2,1.3c-1-1.1-0.5-2.7-1.8-3.5c0,0,0,0,0,0C205.2,38.1,205.1,37.7,204.6,37.6L204.6,37.6z"/>
		<path class="st2" d="M187.6,35.8c1.8-0.1,2.6,0.6,3.4,1.4c-1.4,0.8-2.5,1.5-4,2.3C187.3,38.2,190.1,37.6,187.6,35.8z"/>
		<path class="st2" d="M193.5,40c2,1.9,1.2,3.9,1.2,5.8C195,43.9,193.4,42.4,193.5,40z"/>
		<path class="st2" d="M202.3,45.5c0,0.9-0.3,1.6-1.4,1.8C200.7,46.2,201.7,46,202.3,45.5z"/>
		<path class="st2" d="M207,33.7c0.7,0,1.3,0.2,1.7,1C207.9,34.8,207.5,34.2,207,33.7L207,33.7z"/>
		<path class="st2" d="M199.6,48.7c0.2-0.2,0.3-0.5,0.5-0.7c0.1,0.1,0.2,0.2,0.3,0.3c-0.2,0.2-0.4,0.4-0.6,0.6
			C199.8,48.9,199.6,48.7,199.6,48.7z"/>
		<path class="st2" d="M205.1,32.1c0.2,0.2,0.4,0.5,0.6,0.7c-0.1,0-0.2,0.1-0.3,0.1C205.3,32.7,205.2,32.4,205.1,32.1
			C205.1,32.1,205.1,32.1,205.1,32.1z"/>
		<path class="st2" d="M201.2,36.1c-0.1-0.1-0.2-0.2-0.3-0.3c0.1-0.1,0.2-0.1,0.2-0.2C201.2,35.8,201.2,35.9,201.2,36.1
			C201.2,36.1,201.2,36.1,201.2,36.1z"/>
		<path class="st2" d="M199.8,48.9c-0.1,0.1-0.2,0.3-0.3,0.3c-0.3-0.2-0.1-0.3,0.1-0.4C199.6,48.7,199.8,48.9,199.8,48.9z"/>
		<path class="st2" d="M189.4,40.7c-0.1-0.1-0.3-0.3-0.2-0.3c0.2-0.3,0.3-0.2,0.5,0.1C189.5,40.5,189.4,40.6,189.4,40.7z"/>
		<path class="st2" d="M184.1,38.6c-0.2-0.2-0.3-0.3-0.5-0.5l0,0C183.8,38.2,184,38.4,184.1,38.6C184.1,38.5,184.1,38.6,184.1,38.6z
			"/>
		<path class="st2" d="M183.6,38.1c-0.1-0.1-0.2-0.1-0.2-0.2c0.1,0,0.1,0,0.1,0C183.6,37.9,183.6,38,183.6,38.1
			C183.6,38.1,183.6,38.1,183.6,38.1z"/>
		<path class="st2" d="M207.1,33.7c-0.1,0-0.1-0.1-0.2-0.1C206.9,33.6,207,33.7,207.1,33.7C207,33.7,207.1,33.7,207.1,33.7z"/>
		<path class="st2" d="M227.7,33.4c0.9,2.4,0.8,4.2,0,5.9C227.7,37.5,227.7,35.7,227.7,33.4z"/>
		<path class="st2" d="M225.7,36.6c-0.9-0.9-2.6-0.7-3.8-2.4C223.8,34.8,225.5,34.6,225.7,36.6z"/>
		<path class="st2" d="M223.9,40.6c-1.9-0.8-2.7-2.2-3.6-3.4C221.4,38.3,223.5,38.2,223.9,40.6z"/>
		<path class="st3" d="M233.4,33.6c0.2-1.7,1.7-1.8,2.7-1.6c1.2,0.2,0.7,1.6,0.7,2.5c0,0.5-0.3,1-0.9,1
			C234.6,35.6,233.8,34.9,233.4,33.6C233.4,33.7,233.4,33.6,233.4,33.6z"/>
		<path class="st3" d="M239.9,28c-0.5,0.7-1.2,0.1-1.6,0.4c-0.2,0.2-0.6,0.3-0.9,0.4C238,27.8,238.5,26.8,239.9,28z"/>
		<path class="st3" d="M156.9,91.2c-1.1,0.2-2,0.7-2.9,1.4c-0.1-0.3-0.8,0.3-0.6-0.4c0.8-2.8,1.4-3.7,2.2-3.7c0.7,0,1.5,0.7,2.2-0.1
			c0.3-0.3,0.7,0,0.5,0.4c-0.2,0.4,0.8,0.8,0.1,0.9C157.3,89.8,157.7,91.1,156.9,91.2z"/>
		<path class="st1" d="M93.8,12.7c0.1,0,0.3,0.1,0.4,0.1c0,0.1-0.1,0.1-0.1,0.2C94,12.9,93.9,12.8,93.8,12.7
			C93.8,12.7,93.8,12.7,93.8,12.7z"/>
		<path class="st2" d="M114.9,108.6c0.4,0.9,2.7,1.1,0.8,2.9c1.8,0.6,3.7,0.4,5,2.1c0.7,0.9,2.3,0.6,2.9-0.9
			c0.4-0.9,1.2-1.3,2.1-1.3c0.9,0,1.4,0.8,1.7,1.5c0.2,0.3,0.4,0.9,0,1.1c-2,0.9-2.8,3.2-4.7,4.3c-0.7,0.4-1.3,1-1.6,1.7
			c-0.5,1.2-1.3,1.7-2.5,2c-1.1,0.2-1.9,0.8-2.7,1.5c-0.4,0.4-1.3,0.6-0.9,1.5c0.4,0.8,1,0.3,1.6,0.2c0.8-0.2,1.4,0.9,2.3,0.6
			c0.1,0.8-0.1,1.4-0.4,2.1c-0.2,0.4-0.4,0.9-0.6,1.3c0,0,0-0.1,0-0.1c-0.4,0.3-1.1-0.3-1.3,0.5c0,0-0.2,0.1-0.2,0.1
			c-2.6-0.2-4.8,1.4-7.3,1.6c0.1-1.2,1.1-1.7,1.6-2.8c-1,0.4-2.1,1.3-2.3-0.5c0.1-0.1,0.1-0.3,0.2-0.4c1.3-1.6,2.5-3.2,2.5-5.3
			c0-2.3,2.6-3.6,2.1-6c0-0.1,0.5-0.3,0.8-0.4c0.5-0.2,0.6-0.7,0.4-1c-1.6-1.9-0.1-3.8-0.1-5.7C114.4,108.8,114.7,108.7,114.9,108.6
			z"/>
		<path class="st0" d="M94.9,107.1c2.3-2.8,5-0.6,7.5-0.6c1.1,0,2.1,0.7,2.2-1.1c0.1-1.9,1.9-1.3,2.9-1.8c0.6-0.3,1,0.4,0.6,1.1
			c-1.6,3-2.1,6.4-3,9.6c-0.5,1.6-1.1,1.4-2.1,0.4c-2-1.8-4.3-3.2-7.1-3.4C92.5,110.8,92.5,110.4,94.9,107.1z"/>
		<path class="st2" d="M142.7,140.2c-1.6-0.2-2.3-1.1-2.7-2.6c-0.3-1.2-0.1-2,1.1-2.4c2.8-1.4,5.9-1,8.9-1.9
			c-1.5,3.1-4.1,5.1-6.8,6.8c0,0-0.1,0.1-0.1,0.1C142.9,140.2,142.8,140.2,142.7,140.2z"/>
		<path class="st2" d="M138,109.7c0.7-0.6,1.1-1.4,2.2-1.8c-0.1,1.8-0.1,3.6-0.3,5.3c-0.2,2.2-2,3.2-4.2,2.4
			c-0.2-0.1-0.5-0.3-0.5-0.3c0.6-1.1,0.7-2.3,0.1-3.4c-0.7-1.5,0.6-1.8,1.2-2.7C138.5,106.5,137.2,110.1,138,109.7z"/>
		<path class="st2" d="M136.5,119.2c4.4-0.7,5,3.8,7.7,5.4C142,124.5,136.8,120.6,136.5,119.2z"/>
		<path class="st2" d="M140.6,100.6c-0.8,3-2.5,5-6.4,5.4C136.7,103.9,138.8,102.4,140.6,100.6z"/>
		<path class="st2" d="M136.3,99.2c1.3-0.5,2.6-1,3.9-1.6c-2.4,3.3-6.2,3.8-9.8,4.3c-1,0.1-2.1,0-3.2-0.2c2.2-0.3,4.3-0.6,6.5-1.1
			C134.7,100.5,135.8,100.3,136.3,99.2z"/>
		<path class="st0" d="M114.9,108.6c-0.2,0.1-0.5,0.2-0.7,0.3c-0.3-1,0.4-2.3-1-3c0.3-0.5,0.1-1.2,0.9-1.5c1.3,0.5,2.8,0.7,3.9,1.7
			c-0.1,0.2-0.3,0.4-0.4,0.6c-0.4,0-0.8-0.1-1.2-0.1c-2-0.6-0.7,1.2-1.3,1.7C115,108.5,115,108.5,114.9,108.6z"/>
		<path class="st2" d="M149.9,127.9c0.7,2.4-0.9,4.6-3.4,4.9l0,0C147.3,130.9,150,130.4,149.9,127.9L149.9,127.9z"/>
		<path class="st2" d="M115,108.4c0.6-0.4-0.7-2.3,1.3-1.7c0.7,0.6,1.4,1.3,2.4,2.2C117.1,109.1,116,109.4,115,108.4z"/>
		<path class="st2" d="M146.5,97.1c0.3-1.2,1.4-1.3,2.4-1.6c0.1,0.1,0.1,0.2,0.2,0.3C148.9,97.3,147.7,97.3,146.5,97.1L146.5,97.1z"
			/>
		<path class="st2" d="M147.6,98.3c0.1,1.3-0.8,1.7-1.9,2c-0.1-0.1-0.2-0.2-0.3-0.3c0.2-1.1,1.1-1.5,2.1-1.8L147.6,98.3z"/>
		<path class="st2" d="M149.9,98.6c0.6-1,1.4-1,2.8-0.1C151.4,98.5,150.7,98.6,149.9,98.6C149.9,98.6,149.9,98.6,149.9,98.6z"/>
		<path class="st2" d="M146.5,132.8c-0.1,0.4-0.4,0.5-0.8,0.4c-0.1,0-0.1-0.1-0.1-0.2C145.9,132.9,146.2,132.9,146.5,132.8
			C146.5,132.8,146.5,132.8,146.5,132.8z"/>
		<path class="st2" d="M119.3,108.7c0.2,0.2,0.4,0.3,0.6,0.4c-0.2,0.1-0.4,0.3-0.6,0.3c-0.2,0-0.4-0.2-0.6-0.3
			C118.9,109,119.1,108.9,119.3,108.7z"/>
		<path class="st2" d="M149.9,127.9c-0.1,0-0.3-0.1-0.4-0.1C149.8,127.5,149.8,127.9,149.9,127.9
			C149.9,127.9,149.9,127.9,149.9,127.9z"/>
		<path class="st2" d="M145.8,100.2c0,0.3-0.3,0.7-0.5,0.5c-0.4-0.3-0.2-0.6,0.2-0.8C145.5,100,145.6,100.1,145.8,100.2z"/>
		<path class="st2" d="M117.5,106.8c0.1-0.2,0.3-0.4,0.4-0.6c0.3,0.1,0.9,0.2,0.7,0.6C118.4,107.3,117.9,106.9,117.5,106.8z"/>
		<path class="st2" d="M119.9,107.2c-0.1,0.1-0.3,0.2-0.4,0.2c-0.1,0-0.2-0.2-0.4-0.2c0.2-0.1,0.4-0.2,0.6-0.2
			C119.8,106.9,119.9,107.1,119.9,107.2z"/>
		<path class="st2" d="M140.2,97.7c0.3-0.2,0.6-0.5,0.9-0.7C140.9,97.3,140.7,97.6,140.2,97.7z"/>
		<path class="st2" d="M120.9,100.6c0.5,0,1,0,1.4,0C121.8,100.9,121.4,100.9,120.9,100.6z"/>
		<path class="st2" d="M146.5,97.2c-0.1,0.1-0.2,0.1-0.3,0.2C146.3,97.3,146.4,97.2,146.5,97.2C146.5,97.1,146.5,97.2,146.5,97.2z"
			/>
		<path class="st2" d="M147.5,98.1c0.1-0.1,0.2-0.1,0.3-0.2c0,0.1-0.1,0.2-0.1,0.3C147.6,98.3,147.5,98.1,147.5,98.1z"/>
		<path class="st0" d="M69.8,86.2c-2.8-2.8-6.1-4.8-9.6-6.4c-0.9-0.4-1.3-1.8-0.6-2.7c0.7-0.8,1.8-0.7,2.5,0.2
			c0.9,1.2,1.8,2.1,3.6,2c1,0,1.4,1.2,1.7,2.2C67.9,83.1,68.6,84.8,69.8,86.2z"/>
		<path class="st0" d="M70.5,87.1c1.2-0.1,1.9-1,2.8-0.2c0.1,0.1,0.1,0.6,0.1,0.6C72.5,88,71.6,88,70.5,87.1z"/>
		<path class="st0" d="M62.1,87.9c0.1,0,0.1,0.1,0.2,0.1C62.2,87.9,62.1,87.9,62.1,87.9C62.1,87.9,62.1,87.9,62.1,87.9z"/>
		<path class="st3" d="M84.5,72.7c-0.1,0.1-0.1,0.2-0.2,0.2c0,0,0-0.1,0-0.1C84.4,72.8,84.5,72.8,84.5,72.7L84.5,72.7z"/>
		<path class="st3" d="M84.5,72.7C84.5,72.7,84.5,72.7,84.5,72.7L84.5,72.7z"/>
		<path class="st0" d="M113.2,105.9c1.4,0.7,0.7,2,1,3c0,1.9-1.5,3.8,0.1,5.7c0.2,0.3,0,0.8-0.4,1c-0.3,0.1-0.8,0.4-0.8,0.4
			c0.6,2.4-2,3.8-2.1,6c0,2.1-1.2,3.8-2.5,5.3c-0.6-2.2-1.2-4.4-1.7-6.7c-0.8-3.4,0.5-6.2,2-9.2c0.8-1.5,1.2-3.2,2.2-4.7
			C111.6,106,112.2,105.6,113.2,105.9z"/>
		<path class="st3" d="M108.2,127.8c0.2,1.7,1.3,0.9,2.3,0.5c-0.6,1.1-1.5,1.6-1.6,2.8c2.6-0.2,4.8-1.8,7.3-1.6
			c-3.3,1.4-6.7,2.8-10.3,3.4C106.2,131,107.7,129.6,108.2,127.8z"/>
		<path class="st3" d="M99.7,167.5c1.6-1.2,2.9-2.4,4.8-2.7c0.8-0.1,1.9,0.1,2.1,0.9c0.2,1.2-1,0.6-1.6,0.7c-0.9,0.1-1.4,0.7-2,1.3
			C101.5,168.9,101.6,168.9,99.7,167.5z"/>
		<path class="st0" d="M101.9,161.3c-1.9,0.4-3.4,0.3-5.4,0.1C98.6,159.9,100,160,101.9,161.3z"/>
		<path class="st2" d="M46,91.8c0.2-1-0.9-1.5-1-2.4l0-0.1c1.5,0,2.4,0.9,2.9,2.2c1.2,2.8,1.5,5.8,1.5,8.8c0,0.9-0.4,1.8-1.3,1.7
			c-1.1,0-0.6-1.1-0.7-1.7c-0.2-2.3,0.2-4.7-0.5-7C46.8,92.6,46.7,92,46,91.8L46,91.8z"/>
		<path class="st2" d="M11.9,92.8c0,0.6-0.3,1.3,0.2,1.9c0.5,0.6,1.4,1.4,0.2,1.9c-1.3,0.6-2.8,0.2-3.9-0.6
			c-0.7-0.5-0.9-2.3-0.6-2.3c1.3-0.2,2.5-0.7,3.8-1C11.8,92.7,11.8,92.8,11.9,92.8z"/>
		<path class="st2" d="M38.5,96.2c-0.5-2.2-2.2-3.5-2.1-5.6c0-0.5-0.3-1,0.2-1.3c0.5-0.3,0.9,0,1.3,0.3
			C39.3,90.8,39.6,94.1,38.5,96.2z"/>
		<path class="st0" d="M16.7,95.6c1.6,0.8,2.3,2.2,2.1,3.9c0,0,0,0,0,0c-1.8,0.2-2.2-1.7-3.6-2.2C15.1,96.3,15.5,95.6,16.7,95.6z"/>
		<path class="st2" d="M44,92.3c-1,0.7-0.4,1.6-0.3,2.4c0.2,1,0.3,1.9-0.4,2.9c-0.7-2.8-0.5-5.7-2.9-8C43.3,91,43.3,91,44,92.3
			L44,92.3z"/>
		<path class="st2" d="M45.9,91.8c0.3,2.5,0.8,5.1,0.3,7.8C44.7,96.9,44.8,94.4,45.9,91.8C46,91.8,45.9,91.8,45.9,91.8z"/>
		<path class="st2" d="M39.8,91.3c2,2.2,2,2.3,1.4,7.4C40.7,96.4,39.7,94.1,39.8,91.3z"/>
		<path class="st2" d="M15.2,97.4c1.4,0.5,1.8,2.4,3.6,2.2C16.4,100.6,15.5,100.1,15.2,97.4z"/>
		<path class="st2" d="M28.8,88.4c-0.4,0-0.8-0.2-0.7-0.7c0-0.1,0.3-0.2,0.4-0.1C28.6,87.8,28.7,88.1,28.8,88.4
			C28.9,88.4,28.8,88.4,28.8,88.4z"/>
		<path class="st2" d="M36,88.7c-0.1,0-0.2,0.1-0.4,0.1c0,0-0.1-0.1-0.1-0.2c0-0.1,0.1-0.2,0.1-0.1C35.8,88.5,35.9,88.6,36,88.7z"/>
		<path class="st2" d="M44.9,89.4c-0.1-0.1-0.1-0.2-0.2-0.2C44.8,89.2,44.9,89.3,44.9,89.4C45,89.3,44.9,89.4,44.9,89.4z"/>
		<path class="st2" d="M44,92.2c0.1,0.1,0.1,0.2,0.2,0.2c-0.1,0-0.1,0-0.2,0C44,92.4,44,92.3,44,92.2C44,92.3,44,92.2,44,92.2z"/>
		<path class="st3" d="M31.3,97.1c0-0.1,0-0.2,0-0.2c0.1-0.8-0.8-1.7,0.3-2.4c0.3-0.2,0.9-0.1,1,0.4C32.9,96,32.2,96.6,31.3,97.1
			C31.3,97.1,31.3,97.1,31.3,97.1z"/>
		<path class="st2" d="M186,201.6c1.5,1.2,0.9,2-0.6,2.5c-1.7,0.5-3.9,0.1-3.5,3.1c0.1,0.8-1,0.9-1.6,0.3c-1-1-2.3-1.8-2.7-3.3
			c1.7-2.1,4.1-0.5,6.1-1.1C184.7,202.7,186,203.2,186,201.6z"/>
		<path class="st2" d="M175.9,203.9c-0.3,0.5-0.6,0.7-1.2,0.5C174.9,203.6,175.2,203.4,175.9,203.9z"/>
		<path class="st2" d="M180.1,173.5c-1.3-1.4-3-2.2-4.7-2.9c-0.7-2.2-0.4-4.4-0.4-6.6c1.4,0.8,2.8,1.4,4.4,1.6
			c0.5,0.1,1.3-0.1,1.2,0.8c-0.1,0.7-0.8,0.7-1.3,0.8c-0.2,0-0.5,0-0.7,0c-0.8-0.1-1.2,0.3-1.5,1c-0.3,0.8,0.4,1.1,0.9,1.5
			c1.3,1.1,3.3,1.4,3.9,3.3c-0.2,0.5-0.6,0.8-1.2,0.8c0,0,0,0,0,0C180.5,173.7,180.3,173.6,180.1,173.5z"/>
		<path class="st0" d="M178.2,181.5c1.6,0.6,1.9-1.3,3-1.6c-0.1,0.9,0.2,1.4,1.2,1.6c0.6,0.1,1.3,0.5,1.4,1.1c0,0.8-0.7,1.3-1.4,1.4
			c-0.8,0.1-0.6,0.5-0.4,1c-1.4-0.2-3.1,1.4-4.1-1C177.4,182.9,177.3,182.2,178.2,181.5z"/>
		<path class="st3" d="M116.4,129.4c0.2-0.8,0.9-0.2,1.3-0.5C117.4,129.3,116.9,129.4,116.4,129.4z"/>
		<path class="st3" d="M142.7,140.2c0.1,0,0.2,0,0.3,0C142.9,140.4,142.8,140.4,142.7,140.2z"/>
		<path class="st0" d="M188.9,174.2c0.1,0.8-0.5,2,1.5,1.5c-1.7,1.2-3.1,1.7-5,1.2C186.8,175.9,187.2,174.2,188.9,174.2L188.9,174.2
			z"/>
		<path class="st0" d="M180.7,173.8c0.6,0,1-0.3,1.2-0.8c1,0.8,2.1,1.4,3.5,1.4C183.2,176.8,181.8,176,180.7,173.8z"/>
		<path class="st0" d="M180.1,173.5c0.2,0.1,0.4,0.2,0.6,0.3C180.3,174.1,180.1,173.9,180.1,173.5z"/>
		<path class="st2" d="M187,165.5c-0.2,0.1-0.3,0.2-0.5,0.3C186.5,165.3,186.9,165.6,187,165.5C187.1,165.5,187,165.5,187,165.5z"/>
		<path class="st0" d="M188.9,174.2c0.1,0,0.1-0.1,0.2-0.1C189.1,174.1,189,174.2,188.9,174.2C188.9,174.2,188.9,174.2,188.9,174.2z
			"/>
		<path class="st4" d="M195.1,174.2c0.1,0.4,0,0.7-0.3,0.6c-0.3-0.1-0.6-0.3-0.7-0.6c-0.1-0.3,0.1-0.7,0.5-0.6
			C194.8,173.7,194.9,174.1,195.1,174.2z"/>
		<path class="st2" d="M133.6,93.2c-2.4,0.9-4.9,0.7-7.3,0.6c-0.7,0-1.1-0.3-0.9-1c0.1-0.7,0.7-0.5,1.2-0.5
			C128.9,92.6,131.3,92.9,133.6,93.2z"/>
		<path class="st4" d="M139.3,92.6c-0.1,0-0.1,0-0.2,0.1c0-0.1,0-0.2,0-0.3c0.1,0,0.1,0,0.2,0C139.3,92.4,139.3,92.5,139.3,92.6z"/>
		<path class="st0" d="M145.3,65c0,0.1-0.1,0.1-0.1,0.2c-0.1-0.1-0.2-0.2-0.3-0.2c0,0,0.1-0.1,0.1-0.2
			C145.1,64.8,145.2,64.9,145.3,65z"/>
		<path class="st3" d="M150.2,59.5c0.2-0.6,0.4-1.4,1.3-0.5c0.6,0.6,1.2,1.3,1.9,1.9c-0.1,0.7-0.3,1.2-1,0.5
			C151.6,60.7,150.9,60.1,150.2,59.5z"/>
		<path class="st3" d="M204.6,37.6c0.5,0.1,0.6,0.5,0.5,1C204.5,38.4,204.5,38,204.6,37.6z"/>
		<path class="st3" d="M187.5,43.5c0.5,2,2.2,3.8,0.6,6.5c-0.1-2.1-0.1-3.8-1.4-5.2C186,43.9,186.9,43.7,187.5,43.5
			C187.5,43.4,187.5,43.5,187.5,43.5z"/>
	</g>
</g>
<path class="st3" d="M104.8,192.7c-0.7-1.3-1-2.7-0.6-4.2c0.6-2.6-3.1-4.4-4.5-1.9c-0.1,0.2-0.2,0.4-0.4,0.6
	c-0.1-0.2-0.2-0.3-0.3-0.5c-1.6-2.7-5.8-0.2-4.2,2.5c0.4,0.6,0.7,1.2,0.8,1.9c0.2,1.4,1.4,3,3.1,2.4c0.3-0.1,0.7-0.3,1-0.4
	c0.2,0.7,0.5,1.4,0.9,2.1C102.1,198,106.3,195.5,104.8,192.7z"/>
<path class="st3" d="M244.1,216.9c0.7-0.3-0.7-0.9-1.2-1.2c-1-0.5-2-0.8-3.1-0.8c-0.4,0-0.9,0-1.3,0c-0.1-0.3-0.2-0.7-0.5-1
	c-0.1-0.1-0.2-0.3-0.4-0.4c-1.5-1.6-3-3.2-4.5-4.8c-2.1-2.3-5.6,1.2-3.5,3.5c0.4,0.5,0.9,0.9,1.3,1.4c-1,0.2-2,0.3-3,0.5
	c-2.2,0.3-5,0.3-6.8,1.6c-1.7,1.2-2.3,2.5-4.6,2.7c-0.2,0-0.4,0-0.7,0c0.4-0.3,0.6-0.7,0.7-1.2c0.8-4.5-3-5.6-6.9-5.9
	c0.4-1,0.1-2.6-1-3c-1.5-0.6-2-2.6-3.1-3.7c-1.3-1.4-3.1-2.2-5-1.7c-1.7,0.5-3.2,2.1-3.2,3.9c0,0.9,0.4,1.9,1.1,2.6
	c-5.7-2-11.6-2.5-17.6-1.5c-0.7,0.1-1.2,0.5-1.5,0.9c0.7-1.5,0-3.6-2.1-3.5c-4,0.3-8.1,0.7-12.1,1c-1,0.1-2.1,0.1-3.2,0.1
	c-0.3-0.9-1-1.6-2.2-1.6c-3.5-0.1-5.2-1.9-7.2-4.4c-1.9-2.4-4.9-2.9-7.8-3.1c-5.9-0.4-11.6,1.6-16.1,5.3c-0.8-1.3-1.8-2.4-3.3-3.2
	c-0.3-0.1-0.5-0.2-0.8-0.3c0.2-1.1,0.2-2.3-0.1-3.5c-0.7-3.8-1.9-7.5-2.9-11.2c-0.8-3-5.5-1.7-4.7,1.3c0.6,2.4,1.2,4.7,1.8,7.1
	c0.2,0.7,1.8,5,1,5.5c-1.8,1-1.3,3.2,0,4.1c-0.7,0.4-1.3,1.1-1.2,2.1c0.1,0.8,0.2,1.6,0.6,2.3c0.1,0.1,0.2,0.4,0.4,0.6
	c-0.2,0-0.5,0.3-0.7,0.4c-0.2,0.1-0.4,0.3-0.6,0.5c-2.4-0.9-5-0.9-7.7-0.4c-2.5,0.4-5,1.2-7.5,0.9c-1.7-0.2-4.1-1.6-3.6-3.7
	c0.7-3.1-4-4.4-4.7-1.3c-1.1,4.6,2.4,8.8,6.9,9.7c2.9,0.6,5.7,0,8.6-0.6c2.4-0.5,5.6-1.1,7.7,0.6c1.6,1.3,5.1,0.2,4.1-2.4
	c0.5,1.3,2.5-1.8,2.6-2.6c0-0.2,0.1-0.5,0.1-0.7c0.5,0,1,0,1.5-0.1c0,0.1,0.1,0.2,0.1,0.3c0.9,1.9,1.7,3.7,3,5.4
	c1,1.3,2.5,0.9,3.3-0.1c0.3,0.2,0.6,0.4,0.9,0.5c-0.2,0.9,0.1,1.9,0.8,2.4c-1.7,0.2-3.5,0.5-5.2,0.7c-0.4,0.1-0.7,0.2-0.9,0.4
	c-0.3-0.1-0.6-0.2-0.8-0.2c-0.9-0.2-1.9-0.3-2.8-0.3c-1.8,0-3.7,0.3-5.4,0.8c-1,0.3-1.5,1.1-1.7,1.9c-1.1,0-2.2-0.1-3.4-0.2
	c-3.1-0.3-3.1,4.5,0,4.9c5.6,0.6,11.1-0.1,16.4-2c0.4-0.1,0.7-0.2,1.1-0.4c15.4,0.2,30.7,0.4,46.1,0.3c10,0.7,20,0.3,30-0.2
	c0.6,0,1-0.2,1.4-0.5c4.2,1.6,9,2.8,13,0.1c0.7-0.5,1.3-1.4,2-1.9c0.9-0.5,2.5-0.5,3.5-0.6c0.7-0.1,1.5-0.2,2.2-0.3
	c0.2,1,0.9,1.9,2.3,1.8c2.6-0.2,6.5-1.3,9-0.2c2.1,1,3.3,1.9,5.6,0.8C249.4,219.8,246.9,215.6,244.1,216.9z M148.1,202.8h-0.8
	c0-0.1-0.1-0.3-0.1-0.4C147.5,202.5,147.8,202.6,148.1,202.8z M153.6,209.1c-0.3,0.2-1.4,0.1-1.7,0.1c-1.9,0.1-3.8,0.1-5.7,0.2
	c-1.9,0.1-3.8,0.1-5.7,0.2c-1.5,0.1-4.2,0.6-5.4-0.6c-1-0.9-2.3-0.8-3.1-0.2c-0.4-0.6-0.8-1.3-1.1-2c0.2-0.1,0.4-0.2,0.6-0.4
	c0.5-0.4,1-0.8,1.5-1.2c0.2,0.2,0.4,0.3,0.7,0.4c2.9,1,5.9,1.3,8.8,0.9c0.4,0.6,1.1,1.1,2,1.1h3.7c1.2,0,2.4-1,2.4-2.2
	c0.6,0.7,1.1,1.4,1.8,1.8c0.6,0.4,1.2,0.8,1.9,1.1C154.1,208.6,153.9,208.9,153.6,209.1z M158.7,211.5c1.6-0.4,3.7-0.3,5.1-0.4
	c4.5-0.4,9.1-0.8,13.6-1.1c0.9-0.1,1.6-0.6,2-1.3c-0.4,0.8-0.2,1.8,0.4,2.6C172.7,211.4,165.7,211.5,158.7,211.5z"/>
<path class="st3" d="M214.7,185.3c-0.3-1.6-0.6-3.2-0.9-4.8c-0.2-1.3-1.8-2-3-1.7c-1.4,0.4-1.9,1.7-1.7,3c0.1,0.7,0.2,1.3,0.4,2
	c-0.8-0.1-1.5-0.2-2.2-0.6c-1.2-0.6-2.6-0.3-3.3,0.9c-0.6,1.1-0.3,2.8,0.9,3.3c2.6,1.3,5.4,1.6,8.2,0.9
	C214.4,188,214.9,186.6,214.7,185.3z"/>
</svg>
