<?xml version="1.0" encoding="utf-8"?>
<!-- Generator: Adobe Illustrator 23.0.1, SVG Export Plug-In . SVG Version: 6.00 Build 0)  -->
<svg version="1.1" id="Layer_1" xmlns="http://www.w3.org/2000/svg" xmlns:xlink="http://www.w3.org/1999/xlink" x="0px" y="0px"
	 viewBox="0 0 300 300" style="enable-background:new 0 0 300 300;" xml:space="preserve">
<style type="text/css">
	.st0{fill:#72BE45;}
	.st1{fill:#FBEBB5;}
	.st2{fill:#F7DD8C;}
	.st3{fill:#F9E39D;}
	.st4{fill:#EAB738;}
	.st5{fill:#F3D072;}
	.st6{fill:#EFC459;}
	.st7{fill:#D6912A;}
	.st8{fill:#57A846;}
	.st9{fill:#E2A428;}
	.st10{fill:#99CA3D;}
	.st11{fill:#703C18;}
	.st12{fill:#E03D25;}
	.st13{fill:#995925;}
	.st14{fill:#FFFFFE;}
	.st15{fill:#AF722A;}
</style>
<g id="YCnjnw.tif">
	<g>
		<path class="st0" d="M214.8,32.2c2.3-0.3,2.4,1.2,2.5,2.9c0,1.7-1.3,3.6-0.1,5c1.2,1.3,3.3,0.2,4.9,0.5c0.5,0.1,1.3,0.6,1.6-0.1
			c0.4-0.8-0.4-1.2-1-1.5c-1.7-1-3.6-2-2.6-4.6c0.9,1.7,2.3,2.8,4.1,3.6c1.4,0.6,3.5,1,3.2,3.4c-0.1,0.6,0.5,0.9,1.1,0.9
			c1.6,0.3,2.9,0,3.8-1.5c0.8-1.3,1.4-2.5-0.1-3.6c-0.5-0.4-0.6-1-0.6-1.6c0.5,0.4,1,0.7,1.4,1.1c3.4,2.6,4.4,2.4,6.6-1.2
			c0.7,0.9,0.5,1.9,0,2.7c-0.9,1.6-1.8,3.1-3,4.5c-1.9,2-1.6,2.8,1.2,3.4c0,0,0,0,0,0c0,0.1,0,0.3,0,0.4c-0.8,0.4-1.5,1-2.3,1
			c-3.9,0.2-7.4,2.1-11.3,2.1c-0.7,0.1-1.3-0.2-1.7-0.7c-1.4-2.6-3.8-3.1-6.2-1.5c-0.3,0-0.6,0.1-0.9,0.1c-0.4,0.1-0.8,0.1-1.3,0.2
			c-0.1,0-0.3,0-0.4,0c0.8-2.1-0.5-2.1-1.8-1.6c-3.4,1.5-7.3,2.1-9.9,5.3c-0.3,0.4-0.7,1.2-1.4,0.9c-0.6-0.3-0.5-1-0.7-1.6
			c-0.3-0.9,0-1.7,0.2-2.6c0.2-1.3,0.7-2.6-0.3-4.3c-0.3,2.1,0,4-0.8,5.4c-1,1.9,0.4,3.2,0.5,5.1c-1.3-1.3-1.5-3.4-3.6-2.9
			c-0.3-0.3-0.7-0.4-1.1-0.2c-0.1,0-0.1,0.1-0.1,0.2c0.4,0,0.8,0,1.2,0c0.4,1.3,1.5,2.2,1.9,3.7c1.5,5.9-3.1,12.9-8.4,15.2
			c-0.8,0.3-1.7,0.7-2.5,0c-0.8-0.7-0.6-1.5-0.4-2.4c0.3-1.1,0.8-2.1,1.3-3.1c1.5-2.8,0.5-5.5-2.3-6.4c-1.4-1.3-2.9-2.4-4.8-2.8
			c-1.9-0.4-1.9-1.5-0.9-2.8c0.9-1.3,2-2.4,3-3.6c0.9-1,1.5-2.1,1.6-3.5c0.1-1.7-0.3-2.9-2.5-2.6c-1.9,0.3-3.2-0.7-4.3-2.3
			c-3.7-5.7-3.5-8.7,1.1-13.8c0.2-0.2,0.2-0.5,0.2-0.7c0.5-0.1,1-0.2,1.5-0.3c0.9,0.7,2.3,0.3,3.1,1.4c0,0-0.1,0.2-0.1,0.2
			c-0.3,0-0.7,0.1-1,0.1c-3-0.1-4.7,1.3-5,4.3c-0.3,2.6,1.1,4.3,3.8,4.9c1,0.2,2.1,0.3,3.1,0.4c2.2,0.2,2.9-0.8,2.7-2.9
			c-0.2-2.3-1.9-3.8-2.8-5.8c0.1-0.1,0.2-0.3,0.3-0.4c1.9,1.3,3,3.3,4.1,5.3c0.5,1,1,2,1.8,2.9c2.4,2.7,4.1,2.7,7.2,0.1
			c0.1,0.2,0.4,0.5,0.3,0.6c-1.5,2.4-1.7,4.2,1.8,4.8c0.3,0,0.5,0.5,0.8,0.7c1.9,1.2,2.8,0.7,3-1.6c0-0.6,0.2-1,0.6-1.4
			c0.5,1.1,1,2.2,1.6,3.2c1.7,2.7,4,2.9,6.2,0.6c1.3-1.4,1.6-2.7-0.4-3.8c-2-1.1-3-2.7-2.4-4.9c0.6-2.4,2.4-2.9,4.6-2.9
			c-0.3,0.5-0.9,0.5-1.3,0.7c-1.4,0.5-2.3,1.6-2,2.9c0.3,1.2,1.5,1.9,2.9,1.7c1.6-0.3,1.5-1.7,1.5-2.9
			C214.6,33.3,214.3,32.7,214.8,32.2z M192.5,47.7c-0.7-1.9-2.1-3.1-4.2-3.4c-1.9-0.3-2.5,1.2-3,2.6c-0.5,1.5-1.1,2.9-2.4,3.9
			c-1.9,1.6-1.1,2.9,0.4,4.2c2.5,2,5.4,3,8.5,3.6c1.4,0.3,2.6,0.3,3-1.5c0.3-1.7,0.1-3.2-1.7-3.8c-0.7-0.3-1.6-0.2-2.3-0.4
			c-1.2-0.5-3.1,1.2-3.4-0.3c-0.3-1.3,2.1-1.4,3.1-2.2C191.5,49.7,193,49.4,192.5,47.7z"/>
		<path class="st0" d="M273.7,52.3c0.6,1.7-0.4,2.6-1.7,3.3c-0.7,0.4-1.4,0.7-2.1,1.1c-2.4,1.3-2.5,1.6-0.1,2.9
			c4,2.2,5.1,5.7,4.7,9.9c-0.3,4.4-1.8,8.5-3.6,12.4c-0.4,0.9-1.4,2,0.7,2c0.4,0,0.7,0.7,1,1.1c2.4,2.5,3.7,2.4,6-0.3
			c1.3-1.6,2.7-3.2,4.3-4.5c3.4-2.7,4.9-2.7,7.9,0.4c0.1,0.7,0.3,1.4,0.4,2c-0.8,0.1-0.5,1.2-1.2,1.5c-0.1-0.3-0.2-0.7-0.3-1
			c-0.2-1.6-0.9-2.8-2.6-2.6c-1.6,0.1-3.1,1.1-3.6,2.6c-0.5,1.3,0.5,2.8,1.6,3.6c1.4,0.9,2.5-0.5,3.6-1.3c0.5-0.3,0.6-1.1,1.3-1.2
			c-0.8,2.9-2.5,4.6-4.7,4.6c-4.7,0-4.7,0-6.3,4c-0.9,0-1.6,0.5-2.1,1.3c-1.5,3-4.4,2.5-7.1,2.5c0.7-0.5,1.5-1.1,2.3-1.7
			c-1.1,0.1-1.9,0.2-2.8,0.1c-0.9-0.1-1.8-0.5-2.8-0.2c0,0-0.1-0.1-0.1-0.1c0.1-0.7,0.2-1.4,0.3-2.1l0,0c0.3-0.2,0.4-0.5,0.3-0.8
			l0-0.2c0.4-0.4,0.4-0.9,0.3-1.4c1.3-6.3-0.2-11.9-4.3-16.9c0.5-0.1,1-0.2,1.5-0.2c4.4-0.1,5.5-2.1,3.3-6.2
			c-0.6,0.4-0.4,2.1-1.9,1.1c-2.1-1.5-4.4-2.8-5.5-5.3c0.9-1.9,2.6-3.6,1.9-6.1C266.7,56.6,270.1,54.1,273.7,52.3z M263.1,58.7
			c1.1,2.2,3,2.7,4.4,3.8c0.3,0.2,0.7,0.6,1.2,0.3c0.5-0.4,0.3-1,0-1.4C267.5,59.4,265.7,58.7,263.1,58.7z"/>
		<path class="st1" d="M42.8,195.8c4.5-5.4,9.8-10,14.7-15c10.4-10.3,20.8-20.6,31.4-30.7c10.9-10.4,21.2-21.4,30.9-33
			c3.3-4,7.3-7.4,12.1-9.7c0.6,1.3,1.4,1,2.3,0.4c0.8-0.5,1.6-1.7,2.5-1c1,0.7-0.1,1.9-0.2,2.8c0,0.3-0.2,0.7-0.3,1
			c-5.1,15.7-12.7,30.1-22.8,43.2c-5.7,7.3-12.2,13.9-19.3,19.9c-11.2,9.5-23.6,16.9-37.2,22.3c-3.8,1.5-7.5,3-11.6,3.6
			c-0.6,0.1-2,0.3-1.4-0.5C45.3,197.2,43.4,196.8,42.8,195.8z M71.8,177.1c9.5-2.2,17.3-7.3,23.6-14.7c3.7-4.3,6.5-8.9,7.8-14.5
			c0.1-0.6,0.4-1.3-0.3-1.6c-0.5-0.3-1,0.2-1.4,0.5c-4.2,4-9.3,6.6-13.7,10.2c-6.6,5.4-12.7,11.5-18.7,17.7
			c-0.6,0.6-1.7,1.2-1.2,2.1c0.5,1,1.6,0.7,2.6,0.5C70.9,177.3,71.3,177.2,71.8,177.1z"/>
		<path class="st0" d="M229.9,133c-2.4-0.4-3.5,1.3-4.6,3c-1.7,2.5-2.8,5.4-5.5,7c-0.7-1-1.2-2.6-2.9-1.8c-2.9,1.4-5.9,1.4-8.9,0.8
			c-3.2-0.6-5,0.7-6.2,3.2c-0.6,1.2-1.1,2.3-1.6,3.5c0,0,0,0,0,0c-0.2,0.2-0.3,0.4-0.5,0.6c-0.1,0.2-0.3,0.4-0.4,0.5
			c-5.9,0.5-9-3.1-7.5-8.1c0.1-0.2,0-0.5,0-0.8l0,0c0.3-0.3,0.3-0.7,0.2-1.1c0.1-2.4-1.3-3.3-3.5-3.6c-1.8-0.2-3.4,0.3-5.1,0.4
			c-0.1-0.8,0.4-1.3,0.7-1.9c0.3-0.6,1-1.2,0.3-1.8c-0.8-0.7-1.4-0.3-2,0.4c-0.7,0.9-1.7,1.4-2.9,1.7c-4.4,0.9-7.9-1.1-10.7-4
			c-3.4-3.5-3.4-6.5-0.6-10.4c0.4-0.6,0.7-1.2,0.9-1.9c0.2-0.7,0.4-1.4-0.6-1.6c-0.8-0.1-1.5-0.4-2.1,0.8c-2.3,5.7-3.6,6.5-8.9,6.2
			c-1.1-2.7-0.4-4.7,1.8-6.6c1.9-1.7,1.6-3.1-0.8-3.9c-1.3-0.4-2.4-1.3-3.6-1.9c-2.2-3.2-1.5-5.3,2.4-7.9c2.6-0.6,5.2-1.2,7.9-0.4
			c0.6,0.3,1.3,0.7,1.9,1c3.1,1.6,5.4,3.9,7.3,6.8c2.2,3.4,4.8,6.5,7.5,9.5c1.3,1.4,2.9,2.5,5.1,2l0,0c0.2,0.1,0.5,0.2,0.7,0.4
			c1.4,0.7,2-0.4,2.7-1.2c1.4-1.8,2.9-1.7,4.8-0.7c1.9,1.1,2.4,2.8,2.5,4.7c0.1,1.1-0.2,2.3,0.7,3.2c0.7,1.5,1.3,3.3,3.2,3.3
			c1.8,0,2.1-2.1,3-3.3c0.1-0.1,0.1-0.3,0.2-0.5c1.6-3.6,2.5-3.9,5.9-2.3l0,0c1.1,2.7,1.8,2.9,3.6,0.8c0.6-0.7,1.1-1.8,2.2-1.1
			c1,0.6,0.8,1.6,0.5,2.6c0,0.2-0.1,0.3-0.1,0.5c-0.5,2.3,0.1,3.2,2.4,3.3c1.1,0.1,2.1,0.1,2.9,0.8c1.4,1.2,2.6,0.7,3.5-0.5
			c1.1-1.4,2.5-1.7,4.1-1.4l0,0C229.7,131.9,229.8,132.5,229.9,133z M172.1,127.4c2.6,1.8,5,2.1,7.4,2.1c0.8,0,1.5-0.5,1.4-1.5
			c-0.1-0.8-0.8-1.2-1.5-1C177.2,127.5,175,127.1,172.1,127.4z"/>
		<path class="st2" d="M29.1,209.9c2-2.7,4.5-5.1,7-7.3c1,0.1,2.3-0.3,2.8,0.8c0.5,1.1-0.7,1.8-1.5,2.5c-0.1,0.1-0.1,0.1-0.2,0.2
			c-0.3,0.8-1.6,1.2-1.2,2.1c0.6,1.1,1.7,0.5,2.6,0.3c7.7-2.1,15.2-4.3,22.6-7.3c12.4-5.1,23.8-11.9,34.2-20.3
			c7.5-6,14.3-12.7,20.5-20.2c6.8-8.2,12.6-17,17.4-26.4c5.1-9.8,8.7-20.2,11.2-30.9c0.3-1.4,1.4-3.3-1.7-2.9c-0.3,0-0.7-0.7-1-1.1
			c1.8-1.7,3.3-3.5,5.4-4.8c0.2,1.2-0.5,3.3,2.1,2.1c0.7-0.3,1.4-1.4,2.3-0.8c0.9,0.7,0.3,1.8,0.2,2.7c-1.6,9-4.2,17.7-7.7,26.2
			c-4.8,11.6-10.5,22.7-18.2,32.8c-4.5,5.9-9.1,11.6-14.3,16.8c-10.5,10.5-22.2,19.3-35.4,26.2c-13.9,7.3-28.5,12.4-44,15.1
			c-0.6,0.1-1.3,0.5-1.6-0.2c-0.3-0.5,0.2-1,0.5-1.4C33.3,210.2,33.3,210.2,29.1,209.9z"/>
		<path class="st0" d="M146.9,67.9c0.8,1.1,1.7,2.1,2.5,3.2c0.5,1.5,0.9,3,1.5,4.4c0.8,1.7,1.1,3.6,2.4,5.1c1.5,1.7,5,2.3,6.3,0.7
			c1.6-1.9-0.3-3.1-1.2-4.4c-0.1-0.2-0.4-0.4-0.6-0.5c-1.2-1.1-0.9-1.9,0.5-2.5c0.5,1.6,4.9,5.6,6.4,5.4c1.1-0.1,2.7-0.3,2.1-2.1
			c-1-3-5.6-4.8-8.5-3.4c0.2-1.9,1.7-2,3-2.2c1.6-0.3,2.9-1,3.8-2.5c0.3-0.5,0.7-1.1,0-1.6c-0.5-0.4-1-0.4-1.4,0
			c-1.6,1.8-4,2.3-6,3.6c-1.6,1-2.3,2.2-1.8,4.1c0.2,0.9,0.8,2.1-0.4,2.5c-1.2,0.4-1.7-0.8-2.3-1.7c-1.1-1.5-0.1-2.4,1-3.2
			c2.5-2.2,3.7-4.9,4-8.2c0.2-2.2-1-3.5-3.2-3.5c-0.9,0-1.7,0.3-2.6,0.4c0,0,0,0,0,0c-0.3-0.1-0.5-0.2-0.8-0.3
			c-2.9-1.8-3.4-3.5-1.9-7.2c2,4.4,5.4,5.8,9.9,4.4c0.9-0.3,1.4,0.3,2,0.9c1.5,1.3,3.2,1.6,5,0.5c1.3-0.8,2.6-1.3,4.1-1.6
			c1-0.2,2.4,0,2.8-1.4c0.4-1.4-0.6-2.2-1.5-3.1c3.4-0.3,4.6,0.4,5,3.6c0.2,1.6,0.9,2.7,2.3,3.5c2,1.2,3.8,2.7,5.3,4.5
			c-0.5,1.7-1.9,2.8-2.2,4.6c-0.2,1.1-0.6,2.2,0.6,3c1.1,0.8,2,0.4,3.1,0c1.9-0.8,3.8-1.8,5.8-0.4c-0.7,1.1-1.9,0.8-2.9,1.2
			c-1,0-1.9,0.3-2.7,0.8c-1.6,1-4.3,2-3.6,3.7c0.7,1.7,3.3,0.8,5.1,0.4c-0.5,1.8-1.9,2.1-3.5,2c-2.4-0.2-4.4-1-5.2-3.5
			c-0.8-2.5-1.8-4.9-2.1-7.5c-0.1-0.6-0.2-1.3-1.1-1.1c-0.7,0.2-0.5,0.8-0.5,1.3c-0.1,3.6,0.2,7.1,1.2,10.5c0.8,2.7,4.2,4.4,6.9,3.5
			c1.8-0.6,3.5-1.4,5.3-2.2c1.1-0.5,2.4-1.1,1.9-2.6c-0.5-1.5-1.8-0.3-2.7-0.4c1-0.7,1.4-2.5,3-1.6c1.1,0.6,1.7,1.8,1.2,3.1
			c-0.3,0.7-0.5,1.5-0.9,2.1c-1.1,1.8-2.9,2.9-4.8,3.7c-2.8,0.5-5.5,1.2-8.2,2.2c-0.8,0.3-1.4,0.8-1.5,1.6c-0.1,0.8,0.7,1.1,1.3,1.4
			c2.6,1.1,5.2,2,8,1.2c0.4,0,0.8-0.1,1.1-0.1c1.6,0.2,3.4-0.1,4.5,1.6c-0.4,4.5-1.1,5.2-5.4,5.9c-0.6,0.1-1.2,0.2-1.7,0.4
			c-1.7-0.9-3.6-0.8-5.5-1.2c-0.7-0.2-1.4-0.1-1.8,0.6c-0.4,0.8,0,1.4,0.5,1.8c1.7,1.5,3.4,3,5.8,3.2c0.8,0.4,1.7,0.8,2.5,1.2
			c1.1,0.6,2.3,1.2,3.4,1.8c0.4,0.3,0.7,0.6,1.1,0.8c-2.7,0.6-4.8-1.1-7.1-1.8c-0.8-0.2-1.6-1-2.1,0.3c-0.4,1-0.6,2,0.5,2.7
			c1.4,0.9,2.7,1.8,4.1,2.7c1.6,1,3.2,0.4,4.6-0.5c1.5-1,0.3-2.3,0-3.4c2.3,1,2.8,2.2,1.6,4.1c-0.9,1.5-2.2,2.6-4.1,2.9
			c-3.4,0.5-3.7,0.9-3.5,4.4c-2.7-0.7-4.1-2.8-5.5-4.9c-1.6-2.4-2.9-4.9-4.7-7.1c-3.2-4-3.3-3.9,1.4-5.4c0.1,0,0.1-0.3,0.1-0.5
			c-0.7-0.2-1.5-0.3-2.2-0.7c-1-0.6-2.8-0.3-2.6-2c0.1-1.4,1.4-2.1,2.6-2.6c1.2-0.5,2.5-0.8,3.6-1.8c-1.6-1-3.5-0.2-4.7-0.9
			c-1.5-0.9-2.3-2.9-4.4-1c-0.1,0.1-1.8-1.3-2.3-2.2c-2.8-5.1-7.5-6.8-12.9-8.4c-7.5-2.2-14.7-5.7-16.1-15c1.9-1.5,4-2.2,6.5-1.5
			c-0.1,0.1-0.2,0.3-0.3,0.4c-1.5,0.4-3.4,0.2-3.6,2.3c-0.1,1.4,0.7,2.8,2,3.4c1.2,0.6,2.6,0.9,3.9,1.1c0.8,0.1,1.8,0.7,2.4-0.1
			c0.6-0.8,0-1.6-0.4-2.4c-0.4-0.7-0.8-1.5-1.2-2.3C146.7,68.1,146.8,68,146.9,67.9z M173.3,71.1c-0.2-0.9-0.3-2.2-0.7-3.3
			c-0.6-1.3-1.2-3.2-3.2-2.7c-2.1,0.6-2.1,2.7-1.6,4.1c1,2.8,2.7,5.3,3.5,8.2c0.3,1,1.4,1,2.2,0.9c1.3-0.2,0.4-1.2,0.5-1.9
			C174.1,74.7,173.9,73,173.3,71.1z M190.4,94.5c-0.2-0.7-0.7-1.1-1.4-0.9c-2.3,0.6-4.6,0.3-6.9,0c-0.4-0.1-0.9-0.1-1,0.4
			c0,0.2,0.2,0.7,0.5,0.8c1.9,1.2,3.9,2.2,6.2,2.5C189.1,97.5,190.7,95.6,190.4,94.5z"/>
		<path class="st3" d="M141.9,99.5c0.4,0.4,0.8,1.1,1,1.1c3.1-0.5,2,1.5,1.7,2.9c-2.4,10.8-6.1,21.1-11.2,30.9
			c-4.8,9.4-10.6,18.2-17.4,26.4c-6.2,7.4-13,14.1-20.5,20.2c-10.4,8.4-21.8,15.2-34.2,20.3c-7.4,3-14.9,5.3-22.6,7.3
			c-0.9,0.2-2,0.8-2.6-0.3c-0.5-0.9,0.9-1.3,1.2-2.1c0-0.1,0.1-0.1,0.2-0.2c0.7-0.7,1.9-1.4,1.5-2.5c-0.4-1.1-1.8-0.7-2.8-0.8
			c2-2.5,4.2-4.7,6.7-6.8c0.6,1,2.5,1.3,1.1,3.3c-0.6,0.8,0.8,0.6,1.4,0.5c4-0.6,7.8-2.2,11.6-3.6c13.6-5.4,26.1-12.8,37.2-22.3
			c7.1-6,13.6-12.6,19.3-19.9c10.1-13.1,17.7-27.5,22.8-43.2c0.1-0.3,0.2-0.7,0.3-1c0.1-1,1.2-2.1,0.2-2.8c-0.9-0.6-1.7,0.5-2.5,1
			c-0.9,0.6-1.7,0.9-2.3-0.4C135.2,104.8,138.6,102.1,141.9,99.5z"/>
		<path class="st4" d="M154.8,111.7c1.2,0.6,2.3,1.5,3.6,1.9c2.4,0.8,2.7,2.2,0.8,3.9c-2.1,1.8-2.9,3.9-1.8,6.6
			c0.2,0.5,0.4,0.9,0.7,1.4c-6.5,16.1-14.8,31.3-25.3,45.1c-8.2,10.8-16.7,21.2-28.5,28.6c-7.2,4.5-14.2,9.2-21.8,13
			c-8.4,4.1-17,7.6-25.8,10.6c-4.7,1.6-9.6,3-14.4,4.1c-4.3,1-8.7,1.8-13.2,2.2c-2.7,0.2-5.3,0.7-8,0.9c-2.9,0.2-6.1-0.5-8.6,1.7
			c-0.1,0-0.2,0-0.4,0c-1-1.9,0.3-3.3,1.2-4.6c0.8-1.2,1.8-2.2,2.8-3.3c0.3,1,1,0.9,1.8,0.9c4.3-0.3,8.6-0.6,12.8-1.6
			c1-0.2,2-0.4,3.1-0.3c2.7,0.3,5.3,0.1,8-0.4c6.6-1.2,12.9-3.2,19.1-5.6c15.5-5.8,29.5-14.5,42.8-24.1
			c14.9-10.7,26.8-24.4,35.9-40.5c5.6-10,10.2-20.4,13.4-31.4c0.6-2.1,1.4-4.3,1-6.6C154,113.2,154.2,112.4,154.8,111.7z"/>
		<path class="st5" d="M154.8,111.7c-0.6,0.7-0.8,1.5-0.7,2.4c-0.9,0.6-1,1.6-1.3,2.5c-3.1,9.3-8.2,17.5-13.3,25.7
			c-7.3,11.6-15.6,22.5-23.7,33.5c-1.5,2-2.9,4.1-4.8,5.7c-5.3,4.5-10.5,9-16.2,13c-10.5,7.4-21.7,13.4-33.7,18
			c-5.4,2-11,3.6-16.5,5.2c-4.4,1.3-8.8,2.3-13.4,2.7c-0.9,0.1-1.9,0.3-2-0.9c-0.2-2.9-1.8-2.7-3.9-2.2c-1,0.3-2.1,0.1-3.1,0.1
			c2.1-2.7,4.5-5,7-7.3c4.2,0.3,4.2,0.3,2,4.2c-0.2,0.4-0.7,0.9-0.5,1.4c0.4,0.7,1.1,0.3,1.6,0.2c15.5-2.7,30.1-7.8,44-15.1
			c13.2-6.9,24.9-15.8,35.4-26.2c5.2-5.2,9.8-10.9,14.3-16.8c7.7-10.1,13.4-21.2,18.2-32.8c3.5-8.4,6.1-17.2,7.7-26.2
			c0.2-0.9,0.7-2.1-0.2-2.7c-0.8-0.6-1.5,0.5-2.3,0.8c-2.6,1.2-1.8-0.9-2.1-2.1c1.5-1.7,3.1-3.3,5-4.6c0.5,0.5,1.1,0.2,1.6,0.1
			c-0.1,2.2-0.4,4.6,3.1,4.1c0.3,0,0.6,0.2,0.9,0.4c1.1,3.1-0.3,6.1-0.7,9.1C153.3,106.4,152.6,108.5,154.8,111.7z"/>
		<path class="st0" d="M251.1,134.3c3.2,1.2,4.4,3.7,3.3,7c-1.2,3.9-5.9,7.2-10,7.1c-1.6-0.1-3.1-0.4-3.2-2.4c0-3-2.1-3.8-4.4-4.3
			c-5.7-1.3-5.7-1.3-6.1-7.1c0-0.3,0-0.5-0.1-0.8c0.8-1.3-0.3-1.8-1.1-2.4c0,0,0,0,0,0c-0.7-1.8-2.1-1.5-3.1-0.7
			c-1.7,1.5-3,1.1-4.5-0.1c-0.6-0.4-1.4-0.7-2.1-0.8c-1.4-0.1-1.6-0.9-1.3-1.9c0.4-1.3,0.6-2.6-0.8-3.4c-1.4-0.8-2.8-0.3-4.1,0.6
			c-0.9,0.7-1.7,1.9-3.1,1.3c0,0,0,0,0,0c-0.1-3.1,0.5-3.7,3.5-3.7c2.4,0,4.6,0.6,6.9,0.9c4.8,0.7,9,2.4,12.5,6.4
			c-0.4-1.1,1-1.6,0.1-2.4c-2.5-2-0.5-2.6,1-3.4c0.8-0.4,1.6-0.7,2.4-1c-4.9,1.4-9.2-1.2-14.2-1.9c1.9-0.9,3.3-0.5,4.6-0.6
			c5.5-0.6,10.7-2.7,16.2-3.4c3.9-0.5,7.3-2.2,10.6-4.1c0.8-0.5,1.6-1.1,2.5-1.3c2-0.4,1.8-1.5,1.1-2.8c3.8-4.2,6.9-9,8.9-14.3
			c0,0,0.1,0.1,0.1,0.1c0.2,1.2,0.3,2.4,0.8,3.5c0.5,1.2,0.7,2.8,2.6,2.7c2.3-0.1,3-2.4,4.5-3.6c0.2-0.1,0.5-0.1,0.7-0.2
			c1.2,0.9,2.5,0.9,3.9,0.3c1.4-0.6,3-0.9,4,0.6c1,1.5,1.2,3.1,0.2,4.7c-0.5,0.7-1,1.4-1.6,2.1c-1.9,2.2-2.6,4.5-1.8,7.4
			c1,3.9-0.4,7.2-3.6,9.7c-3.8,2.9-7.8,1.9-10-2.2c-2.3-4.4-3.5-4.6-7-1.3c-1,1-1.8,1-3,0.5c-3.3-1.3-4.3-0.9-6,2.3
			c-1.1,2.2-2.9,1.4-4.5,1.2c-1.8-0.6-2.9,0.1-3.9,1.5c-1,1.4-0.8,2.9-0.1,4.1c0.8,1.4,2.4,2.1,4,1.8c2.1-0.4,3.4-0.1,3.6,2.3
			C249.7,133.2,250.2,133.9,251.1,134.3z M241,131.7c0.9,0.9,1.7,1.5,2.3,2.3c0.5,0.6,1.6,1.3,0.8,2.2c-0.6,0.7-1.5,0-2.1-0.5
			c-1.5-1.1-3-2.3-4.6-3.4c-0.4-0.3-0.8-0.7-1.4-0.3c-0.4,0.3-0.2,0.8-0.1,1.2c0.2,2.3,1.3,4.1,3.1,5.4c1.3,1,2.5,2,3.1,3.7
			c0.9,2.5,3.3,4.1,5.5,3.9c2.2-0.2,4.8-2.7,5.4-5.1c0.7-2.7-1.2-3.9-3.1-5.1c-0.4-0.3-0.9-0.6-1.3-0.9c-0.4-0.3-0.9-0.6-0.6-1.3
			c1.1-3-0.8-2.7-2.5-2.2C244.1,132.2,242.8,131.4,241,131.7z M277.2,110.8c1.7-0.2,2.2-1,1-2.3c-1.1-1.2-0.7-2,0.3-3.1
			c1.1-1.1,2.7-1.5,3.5-3.1c0.4-0.8,1.4-1.6,0.6-2.6c-0.8-0.9-1.9-1.7-3.2-1.2c-2.2,0.9-3.8,2.7-5.4,4.4c-1,1.1-0.9,2.1-0.1,3.3
			c0.1,0.1,0,0.6-0.1,0.7c-1,1-1.2,2.3-0.2,3.2C274.4,111.2,275.9,110.9,277.2,110.8z M269.6,113.9c-1.8,0.3-2.4,0.9-2.1,2.2
			c0.5,2.4,4.4,4.7,7,4.3c1.9-0.3,2.6-1.6,2.7-3.3c0.1-1.7-0.9-2.7-2.4-3C273.2,113.8,271.6,113.5,269.6,113.9z M247.1,121.3
			c1.5-0.3,2.8-1.2,2.5-2.7c-0.4-1.5-1.9-0.4-2.9-0.4c-0.2,0-0.3,0.1-0.5,0.1c-1.3,0.3-3.3,0.6-3.1,2c0.2,1.5,2.3,0.8,3.6,1.1
			C246.8,121.4,246.9,121.3,247.1,121.3z"/>
		<path class="st6" d="M22.1,217.2c1,0,2.1,0.2,3.1-0.1c2.1-0.5,3.7-0.7,3.9,2.2c0.1,1.2,1.1,1,2,0.9c4.6-0.4,9-1.4,13.4-2.7
			c5.6-1.6,11.1-3.1,16.5-5.2c12-4.6,23.2-10.5,33.7-18c5.7-4,10.9-8.5,16.2-13c1.9-1.6,3.3-3.7,4.8-5.7c8.1-11,16.4-21.9,23.7-33.5
			c5.2-8.2,10.2-16.4,13.3-25.7c0.3-0.9,0.4-1.9,1.3-2.5c0.3,2.3-0.4,4.5-1,6.6c-3.2,11-7.8,21.4-13.4,31.4
			c-9.1,16.1-21,29.8-35.9,40.5c-13.3,9.6-27.2,18.3-42.8,24.1c-6.3,2.3-12.6,4.3-19.1,5.6c-2.7,0.5-5.3,0.7-8,0.4
			c-1.1-0.1-2.1,0-3.1,0.3c-4.2,1-8.5,1.4-12.8,1.6c-0.9,0.1-1.6,0.1-1.8-0.9C17.8,221.3,19.9,219.2,22.1,217.2z"/>
		<path class="st6" d="M186.7,162.8c-5.1,3.8-8.5,9.5-13.5,13.3c-6.1,4.6-11.9,9.5-17.6,14.4c-18.8,16.5-38.4,32-57.4,48.4
			c-2.6,2.3-4.9,5.2-8.3,6.5c-1.1-0.9-1.4,0.5-2.2,0.7c-1.7,0.5-2.6,2.9-4.6,2.4c-1.2-0.3-2.1,0.2-2.9,0.7c-5.3,3.7-11.1,6.4-17,8.8
			c-3.9,1.5-8,2.6-12.3,2.4c-0.1-0.9,0.5-1.2,1.2-1.3c6.9-1.6,13-5,19.3-8c3.5-1.7,6.4-4.9,10.9-3.8c0.4,0.1,1.1-0.4,1.6-0.8
			c3.5-2.5,7-4.8,10.3-7.5c6.5-5.3,13-10.7,19.3-16.1c5.1-4.4,10.1-8.9,15.1-13.4c3.2-2.8,6.5-5.6,9.7-8.5
			c4.3-3.7,8.5-7.5,12.8-11.2c2.6-0.8,4.3-2.8,6.2-4.5c6.3-5.5,13.1-10.7,17.1-18.2c2.3-4.2,4.8-8.2,7.2-12.3
			c1.1-1.8,0.5-2.9-1.7-3.2c-4.8-0.6-9.6-1.1-14.4-1.6c-2.2-0.2-4.5-0.2-6.6-1.3c3.7-4.3,8.8-5.5,14.2-5.8c2.8-0.2,5.9-0.2,8.1,1.8
			c1.8,1.6,3.5,2.1,5.7,2.1c2.5,0,3.4,1.1,3.4,3.7c0,3.2-1.1,6.1-2.8,8.7C187.1,160.3,186.1,161.3,186.7,162.8z"/>
		<path class="st7" d="M12.1,231.7c0.1,0,0.2,0,0.4,0c9.3,3.2,18.7,2.1,28.1,0.4c7.8-1.4,15.4-3.8,23-6.3
			c10.1-3.4,19.4-8.2,27.8-14.7c3.3-2.5,6.8-4.8,10.2-7.1c0.5-0.3,1.4-1.6,2,0c-5.7,4.2-11.4,8.4-17.1,12.7
			c-5.5,3.1-11,6.2-16.8,8.9c-3.5,1.3-6.9,2.5-10.4,3.8c-3.4,1.4-7.1,1.8-10.6,2.8c-2.9,0.6-5.8,1.2-8.7,1.8c-1.5,0.3-3,0.6-4.6,0.9
			c-1,0.2-1.6,0.7-2,1.7c-2.4,7.1-5,14.1-6.2,21.6c-0.1,0.9-0.3,1.9-1.5,2.2C16.3,253.1,11.5,243.7,12.1,231.7z"/>
		<path class="st4" d="M40.1,233.9c2.9-0.6,5.8-1.2,8.7-1.8c0.2,1.1,0,1.9-0.6,2.9c-3.8,6.4-7.3,13-9,20.3c-0.4,1.7-0.6,3.1,1.2,4
			c1.8,0.9,3.6,2.3,5.7,0.4c1.6,0.2,3.3,0.4,4.9,0.6c4.3,0.2,8.4-0.9,12.3-2.4c5.9-2.4,11.7-5.1,17-8.8c0.8-0.5,1.7-1,2.9-0.7
			c2.1,0.5,2.9-1.9,4.6-2.4c0.7-0.2,1.1-1.6,2.2-0.7c-1.1,2.3-3.4,3.4-5.3,4.8c-4.3,3.4-8.7,6.7-13,10c-0.8-1.6-1.6-0.4-2.2,0.1
			c-1.6,1.3-3.4,2.4-5.2,3.4c-1,0.5-1.9,0.7-2.1-0.7c-0.3-2.1-1.6-2.1-3.2-1.7c-4.1,1-7.7,3.3-11.6,4.8c-0.2,0.1-0.2,0.6-0.3,0.9
			c-2.3,0.1-4.6-0.5-6.9-0.8c-1.8-0.2-3.3-1.4-5.2-0.9c0,0,0,0,0,0c-0.2-0.1-0.4-0.3-0.7-0.4c0,0,0,0,0,0c-0.3-0.4-0.7-0.4-1.1-0.4
			c0,0,0,0,0,0c-0.2-0.1-0.5-0.2-0.7-0.4c-0.4-0.2-0.8-0.4-1.1-0.6c1.3-7.9,3-15.5,6.5-22.8C38.8,238.6,40.8,236.6,40.1,233.9z"/>
		<path class="st4" d="M186.7,162.8c-0.6-1.5,0.4-2.5,1.1-3.5c1.7-2.7,2.8-5.5,2.8-8.7c0-2.6-0.9-3.7-3.4-3.7c-2.2,0-4-0.4-5.7-2.1
			c-2.2-2-5.3-2-8.1-1.8c-5.3,0.3-10.4,1.5-14.2,5.8c-1.7,2.1-3.4,4.2-5.1,6.4c-1.3-0.6-2.4,0.1-3.6,0.5c-1.5,0.5-2.7,1.9-4.5,1.2
			c1.1-2.2,2.1-4.3,3.2-6.5c1-2.1,2.4-3.5,5-3.8c2-0.2,3.9-1.3,5.9-1.9c6-1.8,12.1-3.1,18.3-3.8c4.5-0.5,8.9,0.2,13.4,0.2
			c0,0.3,0.1,0.5,0,0.8c-1.4,5,1.7,8.6,7.5,8.1c-0.3,1.7-2.7,3.1-0.9,5.2C194.6,157.7,190.8,160.6,186.7,162.8z"/>
		<path class="st8" d="M137.4,67.3c1.3,9.3,8.5,12.8,16.1,15c5.4,1.6,10,3.3,12.9,8.4c0.5,0.9,2.3,2.3,2.3,2.2
			c2.1-1.9,2.9,0.1,4.4,1c1.2,0.7,3,0,4.7,0.9c-1.1,1-2.4,1.4-3.6,1.8c-1.3,0.5-2.5,1.2-2.6,2.6c-0.2,1.7,1.7,1.4,2.6,2
			c0.6,0.4,1.5,0.5,2.2,0.7c-0.1,0.3-0.1,0.5-0.1,0.5c-4.7,1.5-4.6,1.4-1.4,5.4c1.8,2.2,3.1,4.8,4.7,7.1c1.4,2.1,2.8,4.2,5.5,4.9
			c0.1,0.2,0.3,0.5,0.4,0.7c0.5,0.7,1,1.4,1.5,2.1c-2.2,0.6-3.8-0.6-5.1-2c-2.7-3-5.3-6.1-7.5-9.5c-1.8-2.9-4.2-5.2-7.3-6.8
			c0.6-0.1,1.2-0.1,1.6-0.7c0.9-1,0.9-5.7-0.1-6.8c-0.8-0.9-1.6-1.8-2.5-2.7c-0.8-3.4-2.8-5.7-5.9-7.1c-1.1-0.9-2.4-1.1-3.7-1.6
			c-5.8-3.2-12.6-4.9-17.3-10.1c-1.1-1.2-2.2-2.4-2.9-3.9C135.6,69.9,135.5,68.4,137.4,67.3z"/>
		<path class="st9" d="M40.1,233.9c0.6,2.8-1.3,4.8-2.3,6.9c-3.5,7.3-5.2,15-6.5,22.8c-2.1-0.7-3.7-2.1-5.5-3.4
			c1.2-0.3,1.4-1.2,1.5-2.2c1.2-7.5,3.7-14.5,6.2-21.6c0.4-1.1,1-1.5,2-1.7C37.1,234.5,38.6,234.2,40.1,233.9z"/>
		<path class="st8" d="M192.3,72.6c-2-1.3-3.9-0.4-5.8,0.4c-1.1,0.5-2.1,0.8-3.1,0c-1.1-0.8-0.7-1.9-0.6-3c0.3-1.8,1.7-2.9,2.2-4.6
			c2.1-2.2,1.7-4.5,0.5-6.9c2.8,0.9,3.8,3.5,2.3,6.4c-0.5,1-1,2-1.3,3.1c-0.2,0.9-0.4,1.8,0.4,2.4c0.8,0.7,1.7,0.3,2.5,0
			c5.3-2.3,9.9-9.3,8.4-15.2c-0.4-1.4-1.5-2.3-1.9-3.7l0,0c2.1-0.5,2.3,1.6,3.6,2.9c-0.1-1.9-1.4-3.3-0.5-5.1
			c0.7-1.4,0.5-3.3,0.8-5.4c1,1.6,0.5,3,0.3,4.3c-0.1,0.9-0.4,1.7-0.2,2.6c0.2,0.6,0.1,1.3,0.7,1.6c0.7,0.3,1.1-0.5,1.4-0.9
			c2.5-3.2,6.5-3.8,9.9-5.3c1.2-0.6,2.6-0.6,1.8,1.6c-2.7,0.8-5.8,0.9-7.8,3.3l0,0c-2.7,1.6-4.4,4-5.5,6.9c-0.5,0.6-0.7,1.4-0.7,2.2
			c-0.6,1.7-0.4,3.3-0.1,5c-1.7,1-3.2,2.4-4.4,4C194.3,70.3,193.8,71.8,192.3,72.6z"/>
		<path class="st10" d="M172.4,53.8c0.9,0.8,1.9,1.7,1.5,3.1c-0.4,1.4-1.8,1.2-2.8,1.4c-1.5,0.3-2.8,0.8-4.1,1.6
			c-1.8,1.1-3.5,0.9-5-0.5c-0.6-0.5-1.1-1.1-2-0.9c-4.6,1.4-7.9,0-9.9-4.4c2.1-4.1,5.9-4.6,8.9-1.1c0.8,0.9,1.5,2,2.4,2.7
			c1.6,1.2,3.1,1.7,5,0.1C168,54.5,170.2,53.8,172.4,53.8z"/>
		<path class="st4" d="M156.5,85.6c1.3,0.4,2.6,0.7,3.7,1.6c0.1,0.6,0.2,1.2,0.7,1.6c2.4,1.6,3.1,4.1,4.2,6.5c0.7,2.7,1.2,5.4,0,8.1
			c-2.7-0.8-5.3-0.2-7.9,0.4c0.4-3,1.9-6,0.7-9.1c0.1-0.6,0.2-1.2,0.3-1.8c0.2-1.5,1.4-3.5,0.2-4.3c-1.5-1-3.1,0.7-4.5,1.6
			c-0.6,0.1-1.1,0.4-1.6-0.1C153.7,88.5,155.1,87.1,156.5,85.6z"/>
		<path class="st8" d="M152.7,61.7c0.9-0.2,1.7-0.4,2.6-0.4c2.2,0,3.4,1.3,3.2,3.5c-0.3,3.2-1.5,6-4,8.2c-1,0.9-2,1.7-1,3.2
			c0.6,0.8,1,2.1,2.3,1.7c1.2-0.4,0.6-1.7,0.4-2.5c-0.5-1.9,0.3-3.1,1.8-4.1c1.9-1.3,4.3-1.8,6-3.6c0.4-0.4,1-0.4,1.4,0
			c0.7,0.5,0.3,1.1,0,1.6c-0.8,1.5-2.1,2.2-3.8,2.5c-1.3,0.2-2.9,0.3-3,2.2l0,0c-1.4,0.6-1.7,1.4-0.5,2.5c0.2,0.2,0.4,0.3,0.6,0.5
			c0.9,1.3,2.8,2.6,1.2,4.4c-1.3,1.5-4.8,1-6.3-0.7c-1.3-1.5-1.6-3.4-2.4-5.1c-0.7-1.4-1-2.9-1.5-4.4c1.4,0.3,2.5,2.1,4.3,0.5
			c1.9-1.6,3.2-3.2,3.2-5.8C156.9,62.9,154.7,62.5,152.7,61.7z"/>
		<path class="st7" d="M34.9,265.3c1.9-0.5,3.4,0.7,5.2,0.9c2.3,0.2,4.5,0.8,6.9,0.8c4.4-0.1,8.8-0.4,13.1-1.6
			c2.1-0.6,3.5-0.2,4.1,2c-2.8,3-6.5,3.5-10.2,3.4C47.2,270.4,40.9,268.4,34.9,265.3z"/>
		<path class="st9" d="M64.2,267.3c-0.6-2.2-2-2.6-4.1-2c-4.3,1.2-8.6,1.5-13.1,1.6c0.1-0.3,0.1-0.8,0.3-0.9
			c3.9-1.5,7.5-3.7,11.6-4.8c1.6-0.4,2.9-0.4,3.2,1.7c0.2,1.4,1.2,1.2,2.1,0.7c1.8-1,3.5-2.1,5.2-3.4c0.6-0.5,1.4-1.7,2.2-0.1
			C69.2,262.5,66.7,264.9,64.2,267.3z"/>
		<path class="st9" d="M198.5,155c-1.8-2.1,0.6-3.4,0.9-5.2c0.1-0.2,0.3-0.4,0.4-0.5c0.3-0.1,0.6-0.2,0.5-0.6c0,0,0,0,0,0
			c1.4,0,2.1-1.2,2.9-2c2.4-2.4,5.1-3.4,8.4-2.5C207.8,148.6,203.3,152,198.5,155z"/>
		<path class="st8" d="M211.6,144.2c-3.3-0.9-6.1,0.1-8.4,2.5c-0.8,0.8-1.5,2-2.9,2c0.5-1.2,1-2.4,1.6-3.5c1.3-2.6,3-3.9,6.2-3.2
			c2.9,0.6,6,0.6,8.9-0.8c1.7-0.8,2.2,0.8,2.9,1.8C217.3,145.2,214.4,144.1,211.6,144.2z"/>
		<path class="st8" d="M270.1,101.1c-1.9,0.1-2.1-1.5-2.6-2.7c-0.5-1.1-0.5-2.3-0.8-3.5c1-0.3,1.9,0.1,2.8,0.2
			c0.8,0.1,1.7-0.1,2.8-0.1c-0.9,0.6-1.6,1.2-2.3,1.7c2.7,0,5.6,0.6,7.1-2.5c0.4-0.8,1.1-1.3,2.1-1.3c-0.9,1.8-1.7,3.7-3.8,4.5
			c-0.2,0.1-0.5,0.1-0.7,0.2C272.3,97.6,270.7,98.6,270.1,101.1z"/>
		<path class="st8" d="M251.1,134.3c-0.9-0.4-1.4-1.1-1.5-2c-0.2-2.4-1.6-2.7-3.6-2.3c-1.6,0.3-3.2-0.4-4-1.8
			c-0.7-1.3-0.9-2.7,0.1-4.1c1-1.4,2.1-2.2,3.9-1.5c-1.9,0.3-3.5,1-3.1,3.5c0.4,2.4,2.1,2.6,4.1,2.4c3.4-0.3,3.5-0.2,3.6,3.1
			C250.6,132.5,250.5,133.5,251.1,134.3z"/>
		<path class="st8" d="M229.6,131.4c0.8,0.6,1.8,1.1,1.1,2.4c-0.3-0.3-0.5-0.5-0.8-0.8C229.8,132.5,229.7,131.9,229.6,131.4z"/>
		<path class="st0" d="M143.8,65.8c0.3,0.1,0.7,0.3,1,0.4c-0.1,0.1-0.1,0.2-0.2,0.3c-0.4,0.1-0.8,0.1-1.1-0.3
			C143.7,66.1,143.7,66,143.8,65.8z"/>
		<path class="st7" d="M33.2,264.5c0.4,0,0.9-0.1,1.1,0.4C33.8,265.1,33.5,264.9,33.2,264.5z"/>
		<path class="st0" d="M146.1,67.1c0.3,0.3,0.6,0.5,0.8,0.8c-0.1,0.1-0.2,0.2-0.3,0.4c-0.5-0.1-0.6-0.5-0.7-0.9
			C146,67.3,146,67.2,146.1,67.1z"/>
		<path class="st8" d="M151.9,61.3c0.3,0.1,0.5,0.2,0.8,0.3C152.5,61.6,152.2,61.5,151.9,61.3z"/>
		<path class="st0" d="M145.5,66.7c0.2,0.2,0.4,0.3,0.6,0.5c-0.1,0.1-0.1,0.2-0.2,0.2c-0.2-0.1-0.4-0.3-0.6-0.4
			C145.4,66.8,145.4,66.7,145.5,66.7z"/>
		<path class="st7" d="M32.5,264.2c0.2,0.1,0.5,0.2,0.7,0.4C32.9,264.4,32.7,264.3,32.5,264.2z"/>
		<path class="st7" d="M34.2,264.9c0.2,0.1,0.4,0.3,0.7,0.4C34.6,265.3,34.3,265.3,34.2,264.9z"/>
		<path class="st0" d="M144.9,66.3c0.2,0.1,0.4,0.3,0.6,0.4c-0.1,0.1-0.1,0.2-0.2,0.3c-0.2-0.1-0.4-0.3-0.6-0.4
			C144.8,66.4,144.8,66.4,144.9,66.3z"/>
		<path class="st0" d="M252.8,33.2c2.9,0,4.9,1.4,5.5,4.1c0.7,2.7-1,5.6-3.9,6.9c-0.7,0.3-2.1,0-1.9,1.2c0.1,1.1,0.9,2.1,2,2.5
			c1.2,0.5,1.7-0.5,2.3-1.2c1.4-1.8,2.6-3.8,5.4-2.9c-1.5,0.7-3.3,1-4.2,2.7c-0.3,0.6-0.8,1.3,0.1,1.8c1.7,1,1.7,2.4,1.5,4
			c-0.1,0.5-0.5,1.3,0.2,1.6c0.6,0.3,1.1-0.3,1.6-0.7c1.3-1,2.6-2.2,4.8-2.4c-1.5,2-3.9,2.7-4.3,5c-0.6-0.2-1.2-0.7-1.9-0.7
			c-2.4-0.1-3.9-1-4.3-3.5c-0.1-0.7-0.4-1.4-1.3-1.2c-0.2,0-0.3,0-0.5,0c-0.1-0.3-0.2-0.5-0.3-0.8c-0.7-1.2-1.3-2.4-1.9-3.7
			c-1-2.2-3.4-1.3-5.1-1.3c-1.7,0-1,1.6-0.9,2.7c-0.2,0-0.4-0.1-0.5-0.1c-0.9-0.5-1.7-0.9-2.6-1.4c-1.5-1-3.1-0.4-4.6-0.1
			c0,0,0,0,0,0c3.1-2.9,6.2-5.6,10.9-5.6c2.2,0,4.7-0.8,5.9-3.1C255.8,35.2,253,34.8,252.8,33.2z"/>
		<path class="st10" d="M252.8,33.2c0.2,1.6,3,2.1,2,4.1c-1.2,2.3-3.8,3.1-5.9,3.1c-4.8,0-7.8,2.7-10.9,5.6
			c-2.8-0.6-3.1-1.4-1.2-3.4c1.2-1.4,2.2-2.9,3-4.5c0.4-0.8,0.7-1.8,0-2.7c0,0,0,0,0,0c0.7-0.2,0.6-0.7,0.4-1.2c0,0,0,0.1,0,0.1
			c0.5-0.2,0.5-0.7,0.4-1.2c0,0,0,0.1,0,0.1c0.1-0.2,0.3-0.5,0.4-0.7c0,0,0,0.1,0,0.1c0.5-0.1,0.9-0.2,0.9-0.9c0,0,0,0.1,0,0.1
			c1.1-0.2,2.2-0.4,3.3-0.6c1-0.1,1.9,0.4,2.5,1c1.1,1.1,2.3,1.3,3.7,1.1c0.1,0.1,0.2,0.2,0.2,0.3c0.1-0.1,0.2-0.3,0.3-0.4
			C252.1,33.2,252.5,33.2,252.8,33.2z"/>
		<path class="st10" d="M261.8,56c0.5-2.3,2.8-3.1,4.3-5c-2.3,0.1-3.5,1.4-4.8,2.4c-0.5,0.3-0.9,1-1.6,0.7c-0.8-0.3-0.3-1.1-0.2-1.6
			c0.2-1.6,0.2-3.1-1.5-4c-0.8-0.5-0.4-1.1-0.1-1.8c0.9-1.8,2.7-2,4.2-2.7c0,0,0,0,0,0c0,0.6,0.3,0.6,0.8,0.6c1.2,2,2.7,2.3,4.8,1.5
			c5-2,6.8-0.5,5.9,4.8c-0.1,0.5,0,1,0,1.5c-3.7,1.7-7,4.3-11.2,4.5C262.3,56.6,262,56.3,261.8,56z"/>
		<path class="st10" d="M231.6,35.5c0,0.6,0.1,1.2,0.6,1.6c1.5,1.2,1,2.3,0.1,3.6c-0.9,1.5-2.2,1.8-3.8,1.5
			c-0.5-0.1-1.1-0.3-1.1-0.9c0.3-2.5-1.8-2.8-3.2-3.4c-1.8-0.8-3.2-1.9-4.1-3.6c1.1-3.5,2.1-4,5.2-2.2c0.8,0.5,1.5,0.3,2.2,0.2
			c0.8,0.6,1.3,1.3,1.8,2.1C229.8,35.2,230.4,36,231.6,35.5L231.6,35.5z"/>
		<path class="st10" d="M203.9,39.3c-0.4,0.4-0.6,0.8-0.6,1.4c-0.1,2.3-1.1,2.8-3,1.6c-0.3-0.2-0.5-0.6-0.8-0.7
			c-3.5-0.6-3.2-2.4-1.8-4.8c0.1-0.1-0.2-0.4-0.3-0.6C200.8,33.8,202.8,34.8,203.9,39.3z"/>
		<path class="st10" d="M214.8,32.2c-0.5,0.5-0.2,1.1-0.2,1.7c0,1.2,0,2.6-1.5,2.9c-1.3,0.3-2.6-0.5-2.9-1.7c-0.3-1.3,0.6-2.4,2-2.9
			c0.5-0.2,1-0.2,1.3-0.7C214.2,31.2,214.5,31.7,214.8,32.2z"/>
		<path class="st0" d="M231.6,35.5c-1.2,0.5-1.8-0.3-2.2-1.1c-0.5-0.8-1-1.5-1.8-2.1c1-0.7,1.8-0.5,2.4,0.6
			C230.5,33.7,231,34.6,231.6,35.5z"/>
		<path class="st0" d="M245.1,31.1c-1.1,0.2-2.2,0.4-3.3,0.6C242.7,30.7,243.8,30.7,245.1,31.1z"/>
		<path class="st0" d="M262.9,44.5c-0.4,0-0.8-0.1-0.8-0.6C262.6,43.9,262.8,44.1,262.9,44.5z"/>
		<path class="st0" d="M183.5,27.4c0.3,0.2,0.6,0.4,0.9,0.6c-0.1,0.1-0.2,0.3-0.3,0.4c-0.4-0.1-0.6-0.5-0.7-0.9
			C183.4,27.6,183.5,27.4,183.5,27.4z"/>
		<path class="st0" d="M241.8,31.7c0,0.6-0.4,0.8-0.9,0.9C240.9,32,241.3,31.8,241.8,31.7z"/>
		<path class="st0" d="M240.5,33.1c0.1,0.5,0.1,0.9-0.4,1.2C240,33.8,240.1,33.4,240.5,33.1z"/>
		<path class="st0" d="M240.1,34.2c0.2,0.5,0.2,1-0.4,1.2C239.7,34.9,239.8,34.5,240.1,34.2z"/>
		<path class="st0" d="M251.8,33.2c-0.1,0.1-0.2,0.3-0.3,0.4c-0.1-0.1-0.2-0.2-0.2-0.3C251.5,33.2,251.6,33.2,251.8,33.2z"/>
		<path class="st0" d="M240.9,32.5c-0.1,0.2-0.3,0.5-0.4,0.7C240.6,32.9,240.8,32.7,240.9,32.5z"/>
		<path class="st11" d="M261.8,56c0.2,0.3,0.4,0.6,0.7,0.9c0.6,2.4-1.1,4.1-1.9,6.1c-1,1.3-2,2.7-2.9,4c-0.7,0.4-1.3,0.8-1.6,1.5
			c-3.5-1.4-7.2-2.5-11-2.9c-0.9-0.1-2-0.4-2.4,0.9c-0.8,2.6-2.1,5.2-0.9,8c-0.8,1.9-2.2,3.4-3.4,5c-0.1,0-0.2,0.1-0.3,0.2
			c-0.2,0.2-0.3,0.3-0.5,0.5c0,0,0,0,0,0c-1.9,1-3.5,2.5-5.6,2.9c-1.8,0.2-3.6,0.4-5.4,0.5c-3,0.9-6,1.9-9,2.8
			c-1-0.5-1.7,0.3-2.5,0.6c-0.4-1.9,0.4-3.6,0.7-5.4c0.6-1.8,2.6-3,2-5.2c0.9-0.1,1.6,0.1,1.5,1.2c0,0.6,0.2,1.2,0.8,0.9
			c1.4-1,2,0.2,2.9,0.8c0.9,0.6,1.8,1.2,2.8,1.2c5.2-0.2,9.5-2.3,12.6-6.5c0.7-0.9,1.3-2.4,0.8-3.4c-1.7-2.9-0.5-5,1-7.4
			c1.5-2.3,1-3.3-1.7-4.1c-1.9-0.5-3.8-1.2-5.3-2.5c-0.2-1-1-1.6-1.6-2.2c-2.1-2.1-4.8-3.3-7.2-4.7c3.9,0.1,7.5-1.9,11.3-2.1
			c0.8,0,1.5-0.7,2.3-1c0.7,0.2,0.8,0.8,0.9,1.4c-0.1,0.2-0.3,0.5-0.4,0.7c-0.9,0-1.9,0-2.8-0.1c-1.9-0.1-3.8,1.4-3.8,3.3
			c0.1,2.2,1.6,2.7,3.4,2.8c1.3,0.1,2.6-0.1,3.9-0.2c3.6-0.2,7.2-0.3,8.6,4.2c0.2,0.8,1,1.4,1.5,2.1c2.6,3.2,6.6,3.1,9.1-0.2
			c1.4-1.9,1.1-3.2-1.1-3.9c-1.4-0.4-2-1.2-2.1-2.5c-0.1-1.1-0.4-2.2-0.7-3.3c0.9-0.2,1.2,0.5,1.3,1.2c0.4,2.5,1.9,3.4,4.3,3.5
			C260.6,55.3,261.2,55.7,261.8,56z"/>
		<path class="st12" d="M224.2,49.5c2.5,1.5,5.2,2.6,7.2,4.7c0.6,0.7,1.4,1.2,1.6,2.2c-1.8-0.5-3.3,0.2-4.8,1.1
			c-6.6-4.6-12.4-4.5-18.6-1.2c-0.1-1.4-0.8-2-1.9-0.9c-1.4,1.5-3.9,1.3-5.1,3.4c-0.7,1.2-1.8,0.2-2.1-1c1.1-2.9,2.7-5.3,5.5-6.9
			c-0.1,0.5-0.2,0.9-0.4,1.8c2.7-1.9,5.5-3.2,8.6-3.6c1.2-0.1,1.7-0.6,1.2-1.7c0.3,0,0.6-0.1,0.9-0.1c1.9,1,4.1,0.9,6.2,1.5
			C223,49.3,223.5,49.6,224.2,49.5z"/>
		<path class="st10" d="M192.5,47.7c0.5,1.7-1,2-1.9,2.7c-1,0.8-3.4,0.9-3.1,2.2c0.3,1.4,2.2-0.2,3.4,0.3c0.7,0.3,1.6,0.2,2.3,0.4
			c1.8,0.7,2,2.2,1.7,3.8c-0.3,1.8-1.6,1.8-3,1.5c-3.1-0.6-6-1.6-8.5-3.6c-1.6-1.3-2.3-2.6-0.4-4.2c1.3-1,1.9-2.4,2.4-3.9
			c0.4-1.4,1-2.9,3-2.6C190.3,44.6,191.8,45.8,192.5,47.7z"/>
		<path class="st10" d="M183.4,27.6c0.1,0.4,0.3,0.8,0.7,0.9c0.9,1.9,2.6,3.5,2.8,5.8c0.2,2.2-0.5,3.1-2.7,2.9
			c-1-0.1-2.1-0.2-3.1-0.4c-2.8-0.5-4.1-2.3-3.8-4.9c0.3-3,2-4.4,5-4.3C182.7,27.7,183.1,27.6,183.4,27.6z"/>
		<path class="st6" d="M215.4,47.5c0.4,1.2,0,1.6-1.2,1.7c-3.1,0.3-5.9,1.6-8.6,3.6c0.2-0.8,0.3-1.3,0.4-1.8c0,0,0,0,0,0
			c2.5-0.8,4.7-2.5,7.4-2.6c0.4,0,0.9-0.2,0.8-0.7C214.5,47.7,215,47.6,215.4,47.5z"/>
		<path class="st8" d="M222.5,48.9c-2-0.6-4.2-0.5-6.2-1.5C218.7,45.7,221.1,46.3,222.5,48.9z"/>
		<path class="st12" d="M214.1,47.7c0.1,0.6-0.4,0.7-0.8,0.7c-2.8,0.1-4.9,1.7-7.4,2.6c2-2.4,5-2.6,7.8-3.3
			C213.8,47.8,214,47.8,214.1,47.7z"/>
		<path class="st13" d="M238.8,47.8c-0.1-0.6-0.2-1.2-0.9-1.4c0-0.1,0-0.3,0-0.4c1.6-0.3,3.1-0.9,4.6,0.1
			C241,46.2,240,47.3,238.8,47.8z"/>
		<path class="st8" d="M195.9,51.6c-0.4,0-0.8,0-1.2,0c0-0.1,0-0.2,0.1-0.2C195.3,51.1,195.6,51.2,195.9,51.6
			C195.9,51.6,195.9,51.6,195.9,51.6z"/>
		<path class="st12" d="M241.8,74.5c-1.2-2.8,0.1-5.4,0.9-8c0.4-1.3,1.5-1,2.4-0.9c3.8,0.4,7.4,1.5,11,2.9c1.4,0.8,2.7,1.5,4.1,2.3
			c0,0,0,0,0,0c0.2,0.2,0.4,0.3,0.6,0.5c0.6,0.6,1.3,1.1,1.9,1.7c0.2,0.2,0.4,0.3,0.6,0.5l0,0.1c4.1,4.9,5.6,10.6,4.3,16.9
			c-0.3,0.4-0.5,0.9-0.3,1.4c0,0,0,0.2,0,0.2c-0.1,0.3-0.2,0.5-0.3,0.8c0,0,0,0,0,0c-0.7,0.2-0.9,0.7-1.1,1.3
			c-1.5,3.2-3.5,5.8-6,8.3c-6.8,6.8-15.1,9-24.4,8.2c1.4-1.9,2.6-4.7,5.3-4.6c5.1,0.1,8.7-2.2,11.8-5.9c5.6-1.7,7.4-6.1,8.2-11.3
			c1.2-4.5,0.5-8.5-3.2-11.7c-2.5-3.4-3.7-3.6-6-1.4C248.3,74.8,245.1,74.5,241.8,74.5z M255.1,70.2c-2.2-1.6-4.6-2.2-7.3-2
			c2.4,0.6,4.7,1.8,7,2.5c0.3,1.1,1,1.5,2.1,1.6c0.2,0,0.5-0.3,0.5-0.4c-0.1-1.1-1.3-1-1.9-1.6C255.5,70.2,255.2,70.2,255.1,70.2z"
			/>
		<path class="st13" d="M235.4,110.6c9.3,0.8,17.6-1.4,24.4-8.2c2.5-2.5,4.5-5.2,6-8.3c0.3-0.6,0.4-1.1,1.1-1.3
			c-0.1,0.7-0.2,1.4-0.3,2.1c-2,5.3-5.1,10.1-8.9,14.3c-2.3,1.5-4.3,3.4-6.8,4.6c-6.3,3-13.1,3.7-20,3.9c0.1-0.6,0.2-1.2,0.3-1.8
			c0.7-0.9,1.4-1.8,2.1-2.7c0.8-0.4,0.9-0.9,0.5-1.6C234.3,111.1,234.9,110.9,235.4,110.6z M251.2,109.3c-0.4,0-0.8,0-1.1,0.1
			c-4,1.6-8.2,2.5-12.6,2.6c-1.3,0-2.9,0.5-2.7,2.1c0.2,1.5,1.9,1.7,3.1,1.6C243,115.2,247.9,113.9,251.2,109.3z"/>
		<path class="st8" d="M262.6,72.9c-0.6-0.6-1.3-1.1-1.9-1.7c-0.2-0.2-0.4-0.3-0.6-0.5c0,0,0,0,0,0c-0.2-1.7-1-3-2.5-3.9
			c1-1.3,2-2.7,2.9-4c1.1,2.5,3.4,3.8,5.5,5.3c1.5,1,1.3-0.7,1.9-1.1c2.2,4.1,1.1,6-3.3,6.2c-0.5,0-1,0.1-1.5,0.2c0,0,0-0.1,0-0.1
			C263.1,73.1,262.9,72.9,262.6,72.9z"/>
		<path class="st10" d="M290.2,84.2c-0.7,0.2-0.8,0.9-1.3,1.2c-1.1,0.8-2.2,2.2-3.6,1.3c-1.1-0.7-2-2.2-1.6-3.6
			c0.5-1.5,1.9-2.5,3.6-2.6c1.7-0.1,2.4,1.1,2.6,2.6C290,83.6,290.1,83.9,290.2,84.2C290.2,84.2,290.2,84.2,290.2,84.2z"/>
		<path class="st10" d="M263.1,58.7c2.6,0.1,4.4,0.8,5.6,2.7c0.3,0.4,0.5,1,0,1.4c-0.4,0.3-0.8,0-1.2-0.3
			C266.1,61.4,264.2,60.9,263.1,58.7z"/>
		<path class="st13" d="M267.2,91.7c-0.2-0.5-0.1-1,0.3-1.4C267.6,90.8,267.6,91.3,267.2,91.7z"/>
		<path class="st13" d="M266.9,92.7c0.1-0.3,0.2-0.5,0.3-0.8C267.3,92.3,267.2,92.5,266.9,92.7z"/>
		<path class="st14" d="M71.8,177.1c-0.4,0.1-0.9,0.2-1.3,0.3c-0.9,0.2-2.1,0.5-2.6-0.5c-0.4-0.9,0.7-1.5,1.2-2.1
			c6-6.2,12-12.2,18.7-17.7c4.4-3.6,9.6-6.3,13.7-10.2c0.4-0.4,0.8-0.8,1.4-0.5c0.7,0.4,0.4,1,0.3,1.6c-1.3,5.5-4.2,10.2-7.8,14.5
			C89,169.8,81.3,174.9,71.8,177.1z"/>
		<path class="st9" d="M191.8,141c-4.5,0-8.9-0.7-13.4-0.2c-6.2,0.7-12.3,2-18.3,3.8c-2,0.6-3.9,1.7-5.9,1.9c-2.6,0.3-4,1.7-5,3.8
			c-1.1,2.2-2.1,4.3-3.2,6.5c-1.2,2-2.3,4.1-3.5,6.1c-2.7,4.1-5.5,8.2-8.2,12.3c-1,1.1-1.9,2.2-2.9,3.3c-4,4.9-9.1,8.7-13.3,13.3
			c-4.9,4-9.3,8.5-14.4,12.2c-0.7-1.6-1.5-0.3-2,0c-3.5,2.3-6.9,4.6-10.2,7.1c-8.5,6.5-17.7,11.3-27.8,14.7
			c-7.5,2.5-15.1,4.9-23,6.3c-9.4,1.7-18.8,2.8-28.1-0.4c2.5-2.2,5.7-1.5,8.6-1.7c2.7-0.2,5.3-0.7,8-0.9c4.4-0.4,8.8-1.2,13.2-2.2
			c4.9-1.1,9.7-2.5,14.4-4.1c8.8-3.1,17.4-6.5,25.8-10.6c7.6-3.7,14.6-8.5,21.8-13c11.8-7.4,20.3-17.8,28.5-28.6
			c10.5-13.9,18.8-29,25.3-45.1c0.7,0,1.4,0.1,2.1,0.1c-0.7,1.7-1.4,3.3-2,5c-0.5,1.4-0.2,2.4,1.5,2c2.3-0.6,4.8-0.4,7-1.4
			c4.8,6.2,9.4,7.7,16.6,5.4c1.7-0.1,3.4-0.6,5.1-0.4c2.2,0.3,3.6,1.2,3.5,3.6C191.6,140.1,191.6,140.5,191.8,141L191.8,141z"/>
		<path class="st7" d="M186.8,122.7c-0.5-0.7-1-1.4-1.5-2.1c1.8-1.1,3.5-2.5,5.6-3.1c1,1.7,2.3,0.5,3.4,0.4c0.6,1.6,1.5,0.6,2.2,0.2
			c6.8-3.6,14.1-5.4,21.6-6.7c0.7-0.1,1.3-0.4,2,0.1c-0.3,0.1-0.7,0.2-1,0.2c-3,1-6,1.9-9,2.9c-1.2,0.4-2.4,3.8-1.8,5.3
			c0.6,1.4,2,0.8,3.1,0.8c1.1,0,2.3-1.2,3.2,0.3c-0.8,0.4-1.5,0.9-2.3,1.1c-5.4,1.1-9.9,3.8-14.2,6.9c-0.9-0.9-0.6-2.1-0.7-3.2
			c-0.1-2-0.6-3.7-2.5-4.7c-1.8-1-3.4-1.1-4.8,0.7c-0.7,0.9-1.3,1.9-2.7,1.2C187.3,123,187.1,122.9,186.8,122.7L186.8,122.7z"/>
		<path class="st8" d="M198.2,129.1c4.3-3.1,8.9-5.9,14.2-6.9c0.8-0.2,1.5-0.7,2.3-1.1c2.7-0.7,5.5-0.8,8-2.1
			c2.5-0.2,4.9-0.3,7.4-0.5c0.3-0.3,0.5-0.6,0.8-0.9c6.9-0.2,13.6-0.9,20-3.9c2.5-1.2,4.5-3.2,6.8-4.6c0.7,1.4,0.9,2.4-1.1,2.8
			c-0.9,0.2-1.7,0.8-2.5,1.3c-3.3,1.9-6.7,3.6-10.6,4.1c-5.5,0.7-10.7,2.8-16.2,3.4c-1.4,0.1-2.8-0.3-4.6,0.6
			c5.1,0.7,9.3,3.3,14.2,1.9c-0.8,0.3-1.7,0.6-2.4,1c-1.5,0.8-3.4,1.4-1,3.4c0.9,0.7-0.5,1.3-0.1,2.4c-3.5-4-7.7-5.8-12.5-6.4
			c-2.3-0.3-4.6-0.9-6.9-0.9c-3,0-3.6,0.5-3.5,3.7c-3.4-1.6-4.3-1.3-5.9,2.3c-0.1,0.2-0.1,0.4-0.2,0.5c-0.9,1.2-1.2,3.3-3,3.3
			C199.5,132.4,198.9,130.5,198.2,129.1z M230.5,125.3c-0.1-0.1-0.2-0.1-0.3-0.2C230.3,125.2,230.4,125.3,230.5,125.3
			c0.1,0.1,0.2,0.1,0.3,0.2C230.7,125.4,230.6,125.4,230.5,125.3z"/>
		<path class="st8" d="M160.2,125.6c-0.7,0-1.4-0.1-2.1-0.1c-0.2-0.5-0.4-0.9-0.7-1.4c5.4,0.3,6.6-0.5,8.9-6.2
			c0.5-1.2,1.2-1,2.1-0.8c1,0.2,0.8,1,0.6,1.6c-0.2,0.6-0.5,1.3-0.9,1.9c-2.8,3.9-2.8,7,0.6,10.4c2.8,2.9,6.3,4.9,10.7,4
			c1.2-0.2,2.1-0.8,2.9-1.7c0.6-0.7,1.2-1.1,2-0.4c0.7,0.7,0,1.3-0.3,1.8c-0.3,0.6-0.8,1.1-0.7,1.9c-7.3,2.3-11.8,0.8-16.6-5.4
			c-0.5-1.2-1-2.4-1.5-3.6C163.8,124,163.8,123.9,160.2,125.6z"/>
		<path class="st8" d="M210.5,126.3c1.5,0.6,2.2-0.6,3.1-1.3c1.3-0.9,2.7-1.3,4.1-0.6c1.5,0.8,1.2,2.1,0.8,3.4
			c-0.3,1-0.1,1.8,1.3,1.9c0.7,0.1,1.6,0.3,2.1,0.8c1.5,1.2,2.8,1.6,4.5,0.1c1-0.9,2.4-1.1,3.1,0.7c-1.6-0.3-3,0-4.1,1.4
			c-0.9,1.2-2.1,1.7-3.5,0.5c-0.8-0.7-1.9-0.7-2.9-0.8c-2.3-0.1-2.9-1.1-2.4-3.3c0-0.2,0.1-0.3,0.1-0.5c0.3-0.9,0.5-2-0.5-2.6
			c-1.2-0.7-1.6,0.4-2.2,1.1C212.2,129.2,211.5,129,210.5,126.3z"/>
		<path class="st7" d="M165.1,103.4c1.2-2.7,0.7-5.4,0-8.1c0.5-0.1,0.9-0.4,1-1c0.8,0.9,1.7,1.8,2.5,2.7c0.9,1,0.9,5.7,0.1,6.8
			c-0.4,0.5-1,0.6-1.6,0.7C166.4,104.1,165.7,103.7,165.1,103.4z"/>
		<path class="st8" d="M172.1,127.4c2.8-0.3,5.1,0.1,7.2-0.4c0.7-0.2,1.4,0.2,1.5,1c0.1,1-0.5,1.5-1.4,1.5
			C177.1,129.4,174.8,129.2,172.1,127.4z"/>
		<path class="st4" d="M191.7,140.9c-0.1-0.4-0.2-0.8,0.2-1.1C192.1,140.2,192.1,140.6,191.7,140.9z"/>
		<path class="st8" d="M186.8,122.7c0.2,0.1,0.5,0.2,0.7,0.4C187.3,123,187.1,122.9,186.8,122.7z"/>
		<path class="st8" d="M200.3,148.7c0.1,0.4-0.2,0.5-0.5,0.6C199.9,149.1,200.1,148.9,200.3,148.7z"/>
		<path class="st11" d="M190.9,117.5c-2.1,0.7-3.7,2.1-5.6,3.1c-0.1-0.2-0.3-0.5-0.4-0.7c-0.2-3.5,0-3.8,3.5-4.4
			c1.9-0.3,3.1-1.4,4.1-2.9c1.2-1.9,0.7-3.1-1.6-4.1l0,0c-0.4-0.3-0.7-0.6-1.1-0.8c2.8-3.2,5.9-6,9.2-8.7c1.9-1.5,3.5-3.4,5.9-4
			c0.4,2.4,1,4.8,3,6.4c0.3,0.3,0.7,0.8,0.6,1.1c-0.3,2.2,1.1,1.7,2.2,1.4c2.5-0.7,4.9-1.8,7.5-2.1c1.9-0.2,3.2-1.2,4.1-2.8
			c0.3-0.6,0.5-1.3,1.4-1.3c1.7,3.1,1.9,3.3,5.3,3.4c0.4,0,0.9,0,1.1,0.5c0.8,1.8,1.9,2.8,4,2.2c1.7-0.5,3.4-0.9,4.5-2.3
			c0.8-1,2.8-1.6,1.3-3.8c1.3,1.7,2.7,1.9,4.3,1.2c1.2-0.5,2.3-1.1,3.4-1.9c0.9-0.6,2.2-1.3,1.6-2.6c-0.5-1.2-1.9-0.4-2.9-0.3
			c-0.4-0.2-0.9-0.5-1.3-0.7c-0.3-0.9-0.1-1.6,0.4-2.4c0.3-0.5,0.6-1.1-0.2-1.4c-0.1-0.3-0.1-0.7-0.2-1c2,0.3,3.9-0.1,4.6-2.3
			c0.5-1.5-0.4-2.7-2-3.1c-0.2-0.3-0.5-0.6-0.7-1c2.7,0.2,4.3,1.6,4.7,4.3c0.3,2.3,0.8,4.6,2.1,6.6c0.9,1.4,0.3,2.8-0.2,4.2
			c-0.4,0.9-0.8,1.7-1.2,2.5c-3.1,3.7-6.7,6-11.8,5.9c-2.6,0-3.8,2.7-5.3,4.6c-0.5,0.3-1,0.6-1.6,0.9c-2.2-2.7-4.6-5.3-7.2-7.6
			c-1.3-1.1-2.2-1.4-3.4,0c-0.1,0.1-0.3,0.1-0.4,0.2c-11.3,2.2-21.4,7.4-31.4,13C191.3,117.2,191.1,117.3,190.9,117.5L190.9,117.5z"
			/>
		<path class="st4" d="M217.7,76.3c0.6,2.2-1.4,3.4-2,5.2c-0.5-1.3-1.4-2.5-2.8-2.4c-1.3,0.1-1.1,1.6-1.2,2.5
			c-0.2,1.1-0.9,1.4-1.8,1.5c-1,0.2-2,0.4-2.9,1.1c-2.7,2.4-5.4,4.9-8.1,7.2c-2,1.7-4,3.6-7,2.4c-1.1-1.7-2.9-1.4-4.5-1.6
			c6.9-6.6,14.2-12.8,21.5-19c3.8-2.4,3.8-2.4,6.9,1.1C216.5,75.1,217.1,75.7,217.7,76.3z"/>
		<path class="st9" d="M191.9,94c3,1.2,5-0.7,7-2.4c2.7-2.4,5.4-4.8,8.1-7.2c0.8-0.7,1.8-0.9,2.9-1.1c0.9-0.2,1.6-0.5,1.8-1.5
			c0.1-1-0.1-2.5,1.2-2.5c1.4-0.1,2.3,1.1,2.8,2.4c-0.3,1.8-1.1,3.6-0.7,5.4c-2.3,0.8-4.5,1.7-6.3,3.4c-4.2,2.1-7.7,5.3-11.2,8.2
			c-1.9,1.5-3.6,3.2-5.9,4.5c0-1.7,1.7-2.4,1.2-4.3c-2.2,2.5-4.7,4.3-6.4,6.9c-0.8-0.4-1.7-0.8-2.6-1.2c-0.8-1.7,0-3.1,1-4.4
			c0.6-0.1,1.2-0.3,1.7-0.4C190.8,99.1,191.5,98.4,191.9,94z"/>
		<path class="st11" d="M209,73.3c-7.2,6.3-14.6,12.4-21.5,19c-0.4,0-0.8,0.1-1.1,0.1c-2-2.3-2-3.7,0.3-6.5c2-0.8,3.7-1.9,4.8-3.7
			c0.4-0.6,0.7-1.4,0.9-2.1c0.5-1.4-0.1-2.5-1.2-3.1c-1.6-0.9-2,1-3,1.6l0,0c-1.8,0.5-4.5,1.4-5.1-0.4c-0.6-1.7,2.1-2.7,3.6-3.7
			c0.8-0.5,1.7-0.8,2.7-0.8c0.6,1.2,1.7,1.1,2.7,0.9c2-0.5,2.5,0.1,2.4,2.2c-0.2,2.4,1.6,3.5,3.8,2.2c2.8-1.6,5.7-3.1,8.2-5.2
			C207.3,73.7,208.1,73.5,209,73.3L209,73.3z"/>
		<path class="st13" d="M206.4,73.9c-2.5,2.1-5.4,3.6-8.2,5.2c-2.2,1.2-4,0.2-3.8-2.2c0.1-2.1-0.3-2.7-2.4-2.2
			c-1,0.3-2.1,0.3-2.7-0.9c1-0.4,2.2-0.2,2.9-1.2c1.5-0.8,2.1-2.3,3-3.5c1.2-1.6,2.7-2.9,4.4-4c1.9-0.4,3.8-0.9,5.7-1.3
			c-0.3,0.3-0.5,0.7-0.8,1c-0.8,0.6-1.3,1.4-1.1,2.4c0.3,1.1,1.2,1.5,2.3,1.5c0.7,0.3,1.6,0.5,1.7,1.4c0.1,0.8-0.9,0.9-1.3,1.4
			c-0.5,0.5-1.6,0-1.6,0.9C204.6,73.5,205.9,73.3,206.4,73.9z M203.8,69.5c-0.7-0.5-1-1.9-2.1-1.4c-0.9,0.3-2.6,0.6-2.2,2.1
			c0.3,1.2,1.7,1.4,2.8,1.3C203.3,71.4,203.7,70.5,203.8,69.5z"/>
		<path class="st10" d="M188.2,78.7c0.9,0.1,2.2-1.1,2.7,0.4c0.6,1.5-0.8,2.1-1.9,2.6c-1.7,0.8-3.5,1.6-5.3,2.2
			c-2.6,0.9-6.1-0.8-6.9-3.5c-1-3.4-1.3-7-1.2-10.5c0-0.5-0.2-1.1,0.5-1.3c0.9-0.2,1,0.6,1.1,1.1c0.3,2.6,1.3,5,2.1,7.5
			c0.8,2.5,2.8,3.3,5.2,3.5C186.4,80.8,187.7,80.5,188.2,78.7C188.2,78.7,188.2,78.7,188.2,78.7z"/>
		<path class="st10" d="M173.3,71.1c0.6,1.9,0.8,3.6,0.6,5.4c-0.1,0.7,0.8,1.7-0.5,1.9c-0.8,0.1-1.9,0.1-2.2-0.9
			c-0.8-2.9-2.5-5.4-3.5-8.2c-0.5-1.4-0.4-3.5,1.6-4.1c2-0.5,2.6,1.3,3.2,2.7C173.1,68.9,173.1,70.2,173.3,71.1z"/>
		<path class="st7" d="M186.4,105.8c1.7-2.6,4.1-4.4,6.4-6.9c0.5,1.9-1.2,2.6-1.2,4.3c2.3-1.3,4.1-3,5.9-4.5c3.6-3,7-6.2,11.2-8.2
			c-1.1,1.6-2.3,3.2-3.7,4.5c-2.4,0.7-4.1,2.6-5.9,4c-3.3,2.6-6.5,5.4-9.2,8.7C188.6,107.1,187.5,106.4,186.4,105.8z"/>
		<path class="st10" d="M190.8,108.5c0.3,1.2,1.6,2.4,0,3.4c-1.4,0.9-3,1.5-4.6,0.5c-1.4-0.8-2.7-1.8-4.1-2.7
			c-1.2-0.7-0.9-1.7-0.5-2.7c0.5-1.3,1.3-0.5,2.1-0.3C186.1,107.4,188.1,109.1,190.8,108.5C190.8,108.5,190.8,108.5,190.8,108.5z"/>
		<path class="st10" d="M144.7,66.5c0.2,0.1,0.4,0.3,0.6,0.4c0.2,0.1,0.4,0.3,0.6,0.4c0.1,0.4,0.3,0.8,0.7,0.9
			c0.4,0.8,0.8,1.5,1.2,2.3c0.4,0.8,1,1.6,0.4,2.4c-0.6,0.8-1.6,0.2-2.4,0.1c-1.3-0.2-2.7-0.5-3.9-1.1c-1.3-0.6-2.1-2-2-3.4
			c0.2-2.1,2.1-1.9,3.6-2.3C143.9,66.6,144.3,66.6,144.7,66.5z"/>
		<path class="st8" d="M186.6,86c-2.3,2.7-2.4,4.2-0.3,6.5c-2.8,0.8-5.4-0.1-8-1.2c-0.6-0.3-1.4-0.5-1.3-1.4
			c0.1-0.8,0.7-1.3,1.5-1.6C181.1,87.2,183.8,86.5,186.6,86z"/>
		<path class="st10" d="M158.4,73.8c2.9-1.4,7.6,0.3,8.5,3.4c0.6,1.8-1.1,2-2.1,2.1C163.3,79.3,158.9,75.4,158.4,73.8
			C158.4,73.8,158.4,73.8,158.4,73.8z"/>
		<path class="st8" d="M184.8,100.3c-0.9,1.3-1.8,2.7-1,4.4c-2.4-0.2-4.1-1.7-5.8-3.2c-0.5-0.5-0.9-1.1-0.5-1.8
			c0.4-0.7,1-0.8,1.8-0.6C181.1,99.4,183.1,99.3,184.8,100.3z"/>
		<path class="st10" d="M190.4,94.5c0.3,1.1-1.4,3-2.7,2.8c-2.3-0.3-4.3-1.4-6.2-2.5c-0.2-0.2-0.5-0.6-0.5-0.8
			c0.1-0.5,0.6-0.5,1-0.4c2.3,0.3,4.6,0.6,6.9,0C189.7,93.4,190.2,93.8,190.4,94.5z"/>
		<path class="st6" d="M153.9,90.2c1.4-0.9,3-2.6,4.5-1.6c1.2,0.8,0,2.8-0.2,4.3c-0.1,0.6-0.2,1.2-0.3,1.8c-0.3-0.1-0.7-0.4-0.9-0.4
			C153.5,94.8,153.8,92.4,153.9,90.2z"/>
		<path class="st10" d="M241,131.7c1.9-0.3,3.2,0.5,4.6,0.1c1.7-0.5,3.6-0.8,2.5,2.2c-0.2,0.6,0.2,1,0.6,1.3
			c0.4,0.3,0.9,0.6,1.3,0.9c1.9,1.2,3.8,2.3,3.1,5.1c-0.6,2.4-3.3,4.9-5.4,5.1c-2.2,0.2-4.7-1.4-5.5-3.9c-0.6-1.7-1.8-2.7-3.1-3.7
			c-1.9-1.3-2.9-3.2-3.1-5.4c0-0.4-0.3-0.9,0.1-1.2c0.5-0.4,1,0,1.4,0.3c1.5,1.1,3,2.3,4.6,3.4c0.6,0.4,1.4,1.2,2.1,0.5
			c0.8-0.9-0.3-1.5-0.8-2.2C242.6,133.2,241.9,132.6,241,131.7z"/>
		<path class="st10" d="M277.2,110.8c-1.3,0.1-2.7,0.4-3.7-0.5c-1-1-0.8-2.2,0.2-3.2c0.1-0.1,0.2-0.6,0.1-0.7
			c-0.8-1.1-0.9-2.2,0.1-3.3c1.6-1.7,3.1-3.5,5.4-4.4c1.3-0.6,2.4,0.2,3.2,1.2c0.8,1-0.2,1.7-0.6,2.6c-0.7,1.5-2.4,2-3.5,3.1
			c-1,1-1.4,1.9-0.3,3.1C279.4,109.8,278.9,110.6,277.2,110.8z"/>
		<path class="st10" d="M269.6,113.9c2-0.5,3.6-0.1,5.2,0.2c1.4,0.3,2.5,1.3,2.4,3c-0.1,1.7-0.8,2.9-2.7,3.3c-2.5,0.4-6.4-1.9-7-4.3
			C267.2,114.8,267.8,114.3,269.6,113.9z"/>
		<path class="st10" d="M247.1,121.3c-0.2,0-0.3,0.1-0.5,0.1c-1.3-0.3-3.4,0.4-3.6-1.1c-0.2-1.4,1.8-1.7,3.1-2
			c0.2,0,0.3-0.1,0.5-0.1c1,0,2.5-1.1,2.9,0.4C249.9,120.1,248.6,121,247.1,121.3z"/>
		<path class="st2" d="M151.3,189.8c-4.3,3.7-8.5,7.5-12.8,11.2c-3.2,2.8-6.5,5.6-9.7,8.5c-0.7-0.6-1.1,0-1.5,0.3
			c-4.2,3.1-8.4,6.2-12.5,9.3c-10.9,8.3-21.9,16.4-34,22.9c-7.9,4.3-16,8.2-24.9,9.9c-4.3,0.8-6.3,0-8.4-3.6
			c1.8-1.6,3.6-3.2,5.4-4.9c1.7-0.6,2.7-2.1,4.2-2.9c0.9,4.7,0.9,4.6,5.4,4.2c1.7-0.1,3.1-0.7,4.7-1c8.5-1.9,16-6.1,23.3-10.6
			c17.9-11.1,34.4-24.2,51-37.1c7.7-5.9,14.1-13.3,20.1-20.9c1.7-2.1,3-4.4,4.1-6.9c1.1-2.6,0.3-4-2.4-4c-2,0-3.9,0.3-5.9,0.3
			c-3.2,0.1-6.3,1.1-9.5,0.4c0.5-1.4,2.1-2.1,2.4-3.7c1-1.3,2-2.5,2.9-3.8c1.2-0.2,2.3,0.5,3.5,0.4c5.2-0.2,10.4-0.1,15.5-0.1
			c1.4,0,2.7,0.6,2.4,2.3c-0.6,3-1.3,6.2-3.2,8.7c-2.9,3.8-6.4,7.1-9.7,10.5C158.2,182.8,154.3,185.9,151.3,189.8z"/>
		<path class="st5" d="M47.3,248.3c2.1,3.5,4.2,4.4,8.4,3.6c9-1.7,17-5.6,24.9-9.9c12.1-6.5,23.1-14.6,34-22.9
			c4.1-3.2,8.3-6.2,12.5-9.3c0.5-0.3,0.9-1,1.5-0.3c-5,4.5-10,9-15.1,13.4c-6.4,5.5-12.8,10.9-19.3,16.1c-3.3,2.7-6.8,5-10.3,7.5
			c-0.5,0.3-1.2,0.9-1.6,0.8c-4.5-1.2-7.5,2.1-10.9,3.8c-6.3,3-12.4,6.4-19.3,8c-0.7,0.2-1.3,0.4-1.2,1.3c-1.6-0.2-3.3-0.4-4.9-0.6
			c-4.2-2.6-4.6-5-1.4-8.8C45.4,250,46.4,249.2,47.3,248.3z"/>
		<path class="st5" d="M151.3,189.8c3-3.9,6.9-7,10.4-10.5c3.3-3.4,6.8-6.7,9.7-10.5c1.9-2.5,2.6-5.6,3.2-8.7c0.4-1.7-1-2.3-2.4-2.3
			c-5.2,0-10.4-0.1-15.5,0.1c-1.3,0.1-2.3-0.6-3.5-0.4c0.4-0.8,0.7-1.6,1.1-2.4c1.7-2.1,3.4-4.2,5.1-6.4c2.1,1.1,4.3,1.1,6.6,1.3
			c4.8,0.5,9.6,1,14.4,1.6c2.2,0.3,2.8,1.4,1.7,3.2c-2.4,4.1-5,8.1-7.2,12.3c-4,7.5-10.8,12.7-17.1,18.2
			C155.6,187,153.9,189,151.3,189.8z"/>
		<path class="st6" d="M47.3,248.3c-0.9,0.9-2,1.7-2.8,2.7c-3.2,3.8-2.8,6.1,1.4,8.8c-2,1.9-3.9,0.5-5.7-0.4c-1.8-0.9-1.6-2.3-1.2-4
			c1.7-7.4,5.2-13.9,9-20.3c0.6-1,0.9-1.8,0.6-2.9c3.5-1,7.2-1.4,10.6-2.8c0,1.1-0.3,2-0.9,2.9c-1.6,2.4-3.2,4.9-4.8,7.3
			c-0.8,1.2-1.3,2.4-1,3.9C50.9,245,49.1,246.6,47.3,248.3z"/>
		<path class="st3" d="M103.6,204c5.1-3.7,9.6-8.2,14.4-12.2c1.8,1,2.7-0.7,4-1.2c1.2-0.4,1.9-2,3.5-1.3c-0.2,0.9-0.8,1.5-1.5,2.1
			c-8.2,8-16.7,15.5-26.1,22c-4.9,3.4-9.7,6.9-14.9,9.8c-0.1-1.1,0.6-1.7,1.2-2.4c1-1.2,2.3-2.3,2.3-4.1
			C92.2,212.4,97.9,208.2,103.6,204z"/>
		<path class="st5" d="M52.7,243.4c-0.3-1.5,0.2-2.7,1-3.9c1.6-2.4,3.2-4.9,4.8-7.3c0.6-0.9,0.9-1.8,0.9-2.9
			c3.5-1.3,6.9-2.5,10.4-3.8c-0.2,2.1-1.9,3.4-2.8,5.1c-0.6,1.2-2.1,2.1-1.8,3.8c-2.5,2.4-5.5,4-8.3,6.1
			C55.4,241.3,54.4,242.8,52.7,243.4z"/>
		<path class="st2" d="M65.2,234.4c-0.3-1.7,1.2-2.5,1.8-3.8c0.9-1.7,2.6-3,2.8-5.1c5.7-2.7,11.3-5.8,16.8-8.9
			c0,1.8-1.2,2.9-2.3,4.1c-0.6,0.7-1.3,1.3-1.2,2.4c-2.1,1.4-4.1,2.8-6.3,4.1C73,229.7,69.4,232.5,65.2,234.4L65.2,234.4z"/>
		<path class="st6" d="M154.1,155.1c-0.4,0.8-0.7,1.6-1.1,2.4c-1,1.3-2,2.5-2.9,3.8c-1.1,0-2.1,0-3.2,0.5c-1.3,0.7-2.7,1.5-4.4,1.1
			c1.2-2,2.3-4.1,3.5-6.1c1.8,0.6,3-0.7,4.5-1.2C151.7,155.2,152.8,154.5,154.1,155.1z"/>
		<path class="st9" d="M166.1,94.3c-0.1,0.6-0.5,0.9-1,1c-1-2.4-1.8-5-4.2-6.5c-0.5-0.4-0.6-1-0.7-1.6
			C163.3,88.7,165.4,90.9,166.1,94.3z"/>
		<path class="st11" d="M205.4,63.9c-1.9,0.4-3.8,0.9-5.7,1.3c-0.3-1.7-0.5-3.3,0.1-5c0.1,0.4,0.2,0.8,0.3,1.2
			c0.2,0.9,0.5,2,1.6,2.1c1.2,0.1,1.1-1.1,1.5-1.8c0.5-1,1-2,1.5-3c0.3-0.5,0.7-1.4,1.3-0.9c2.2,1.8,2.7-0.3,3.6-1.5
			c6.2-3.3,12.1-3.4,18.6,1.2c-1.4,0.8-2.6,2-4.4,1.9c-2.9-0.3-4.6,1.1-5.5,3.8c-1.2,3.4-2.3,3.8-5.6,2.4c-1.9-0.7-3.3-3-5.7-2
			C206.5,63.7,205.9,63.8,205.4,63.9z"/>
		<path class="st13" d="M209.6,56.3c-0.9,1.2-1.4,3.3-3.6,1.5c-0.6-0.5-1,0.4-1.3,0.9c-0.6,1-1,2-1.5,3c-0.4,0.7-0.3,1.9-1.5,1.8
			c-1.1-0.1-1.4-1.2-1.6-2.1c-0.1-0.4-0.2-0.8-0.3-1.2c0-0.8,0.2-1.6,0.7-2.2c0.4,1.2,1.5,2.2,2.1,1c1.2-2.1,3.7-1.9,5.1-3.4
			C208.8,54.3,209.5,54.9,209.6,56.3z"/>
		<path class="st13" d="M254.3,50.6c0.2,1.1,0.5,2.2,0.7,3.3c0.2,1.3,0.7,2.1,2.1,2.5c2.3,0.7,2.6,2.1,1.1,3.9
			c-2.6,3.3-6.5,3.4-9.1,0.2c-0.6-0.7-1.3-1.3-1.5-2.1c-1.4-4.5-5-4.4-8.6-4.2c-1.3,0.1-2.6,0.2-3.9,0.2c-1.8-0.1-3.3-0.6-3.4-2.8
			c0-1.9,1.8-3.4,3.8-3.3c0.9,0.1,1.9,0,2.8,0.1c0.2,2,1.2,2.8,3.3,2.8c1.5,0.1,3,0.6,4.6,0.9c1,0.9,2,1.9,3.1,2.7
			c1.1,0.8,2.3,1,3.6,0.3c1.2-0.7,1.1-1.8,0.8-3c-0.1-0.6-0.3-1.2,0.2-1.7C254,50.6,254.2,50.6,254.3,50.6z M253.3,57.6
			c-1,0.3-2.6,0.2-2.3,1.8c0.3,1.7,2.1,1.8,3.4,1.5c1.1-0.2,2.7-1.1,2.4-2.3C256.4,57.1,254.6,57.4,253.3,57.6z"/>
		<path class="st7" d="M246.1,52.3c-1.5-0.3-3-0.9-4.6-0.9c-2-0.1-3.1-0.9-3.3-2.8c0.1-0.2,0.3-0.5,0.4-0.7c1.3-0.5,2.3-1.7,3.8-1.7
			c0.9,0.5,1.7,0.9,2.6,1.4c0.2,0.8,0.2,1.7,1.4,1.5l0,0c0.2,0.1,0.4,0.3,0.6,0.4l0,0c0.2,0.1,0.4,0.3,0.6,0.4l0,0
			C248.1,51.1,247.7,52.1,246.1,52.3z"/>
		<path class="st15" d="M246.1,52.3c1.5-0.2,2-1.1,1.7-2.6c1.9-0.2,3.8,0.6,5.7,0.1c0.1,0.3,0.2,0.5,0.3,0.8
			c-0.5,0.5-0.4,1.1-0.2,1.7c0.3,1.1,0.5,2.2-0.8,3c-1.3,0.7-2.5,0.5-3.6-0.3C248.1,54.1,247.2,53.2,246.1,52.3z"/>
		<path class="st10" d="M253.5,49.8c-1.9,0.5-3.8-0.3-5.7-0.1c0,0,0,0,0,0c-0.1-0.3-0.3-0.4-0.6-0.4c0,0,0,0,0,0
			c-0.1-0.3-0.3-0.5-0.6-0.4c0,0,0,0,0,0c-0.1-0.3-0.1-0.5-0.2-0.8c-0.2-0.2-0.4-0.4-0.7-0.6c0,0,0,0,0,0c-0.1-1.1-0.8-2.7,0.9-2.7
			c1.7,0,4.1-1,5.1,1.3C252.2,47.4,252.9,48.6,253.5,49.8z"/>
		<path class="st15" d="M246.3,48.2c0.1,0.3,0.1,0.5,0.2,0.8c-1.2,0.2-1.2-0.7-1.4-1.5c0.2,0,0.4,0.1,0.5,0.1c0,0,0,0,0,0
			C245.9,47.8,246.1,48,246.3,48.2z"/>
		<path class="st13" d="M205,95c1.5-1.3,2.6-2.9,3.7-4.5c1.8-1.7,4-2.6,6.3-3.4c0.8-0.2,1.5-1.1,2.5-0.6c1.2,3,2,3.3,4.8,2
			c0.5-0.2,0.9-0.4,1.4-0.6c-1.3,1.6-2.2,3.3-0.6,5.3c3.2,4,8.6,4.5,12.2,0.8c0.5-0.5,1.4-1,0.8-1.9c-0.5-0.8-1.3-0.7-2.1-0.2
			c-1.1,0.7-2,0.8-2.2-0.8c0.9-0.9,0.8-1.7,0-2.7c-1.4-1.8-3.2-1.7-5.1-1.1c-1,0.2-2,0.4-3.1,0.6c0.5-0.9,1.3-1.3,2.3-1.5
			c2-0.5,2-1.5,0.5-2.7c1.8-0.2,3.6-0.4,5.4-0.5c0.2,0.1,0.3,0.2,0.5,0.3c0.3,0.3,0.7,0.3,1.2,0.2c0,0,0,0,0,0
			c1.4,1.7,2.7,3.4,5.3,2.6c0.8,1.4,2.4,0.1,3.4,0.8c-0.3,0.4-0.6,0.9-0.8,1.3c-0.5,0.5-1.5,0.8-1.1,1.8c0.5,1,1.4,0.8,2.2,0.6
			c1-0.3,1.9-0.7,2.8-1.1c0.9,0.3,0.6,0.9,0.2,1.4c-0.5,0.7-0.8,1.5-0.4,2.4c-1.6-0.1-3.2,0-4.8,0.5c-0.7,0.2-1.2,0.7-1.1,1.5
			c0.1,0.6,0.5,1.1,1.1,0.9c2.2-0.5,4.7,0.2,6.2-2.3c1-0.1,2.3-0.8,2.9,0.3c0.6,1.3-0.8,2-1.6,2.6c-1,0.7-2.2,1.3-3.4,1.9
			c-1.6,0.7-3,0.4-4.3-1.2c1.5,2.2-0.5,2.8-1.3,3.8c-1.2,1.4-2.9,1.8-4.5,2.3c-2.1,0.6-3.2-0.4-4-2.2c-0.2-0.5-0.6-0.4-1.1-0.5
			c-3.4-0.2-3.6-0.3-5.3-3.4c-0.9,0-1.1,0.8-1.4,1.3c-0.9,1.6-2.3,2.6-4.1,2.8c-2.6,0.3-5,1.4-7.5,2.1c-1.1,0.3-2.5,0.9-2.2-1.4
			c0-0.3-0.3-0.8-0.6-1.1C205.9,99.7,205.4,97.4,205,95z M231.6,100c0.2-0.2,0.7,0.1,0.5-0.5C231.9,99.7,231.8,99.9,231.6,100
			c-0.1,0.2-0.7-0.1-0.5,0.5C231.3,100.4,231.5,100.2,231.6,100z M217.8,98.7c1.5-0.2,2.6-1.3,4-1.9c0.6-0.3,1.1-0.6,0.9-1.3
			c-0.2-0.7-0.8-1.1-1.3-1c-2.6,0.4-5.1,0.1-7.7-0.1c-1-0.1-2.1,0.7-2.3,1.8c-0.3,1.2,0.9,1.6,1.7,2C214.4,98.9,216.1,99,217.8,98.7
			z M236.9,97.3c-0.7,0.2-1.8,0.3-1.5,1.3c0.3,1,1.4,0.8,2.2,0.7c0.8-0.2,1.7-0.4,1.4-1.5C238.6,96.9,237.7,97.2,236.9,97.3z"/>
		<path class="st13" d="M212.7,65.6c3.3,1.4,4.4,1,5.6-2.4c1-2.7,2.6-4.1,5.5-3.8c1.8,0.2,3-1,4.4-1.9c1.5-0.8,3.1-1.5,4.9-1.1
			c1.6,1.3,3.4,1.9,5.3,2.5c2.7,0.8,3.2,1.8,1.7,4.1c-1.5,2.4-2.8,4.5-1,7.4c0.6,1-0.1,2.5-0.8,3.4c-3.1,4.2-7.4,6.3-12.6,6.5
			c-1.1,0-2-0.6-2.8-1.2c-0.8-0.6-1.5-1.8-2.9-0.8c-0.6,0.4-0.8-0.2-0.8-0.9c0.1-1.1-0.6-1.3-1.5-1.2c-0.6-0.6-1.2-1.2-1.8-1.9
			c-3.1-3.6-3.1-3.6-6.9-1.1c0,0,0,0,0,0c-0.3-1.2,0.7-1.8,1.3-2.6C211.4,69.2,213.2,67.9,212.7,65.6z M232,66.5
			c0.6,1.4,1.1,3.2,2.6,4.4c1,0.8,2.4,0.7,2.2-0.7c-0.2-2.6,0.6-4.9,1.5-7.2c0.4-0.9,0.2-1.9-0.6-2.6c-0.6-0.5-1.3-0.3-2-0.1
			C233.9,61,231.8,64.3,232,66.5z M230.5,73.6c-2.3,0.5-3.5,1.9-3.2,3.5c0.3,1.5,1.2,1.7,2.5,1.4c2.2-0.5,4.2-2.5,3.8-4
			C233.1,72.8,231.6,73.5,230.5,73.6z M228.4,71.4c0.8-0.5,2.7-0.4,2.3-1.9c-0.3-1.5-1.8-2.1-3.5-1.7c-1,0.3-2.2,0.5-1.9,1.9
			C225.6,71.4,226.8,71.7,228.4,71.4z M221.5,73.7c1.4,1.3,2.7,1.8,4.1,0.6c0.5-0.4,0.4-0.9-0.1-1.3C224,71.6,222.9,72.8,221.5,73.7
			z"/>
		<path class="st8" d="M232.4,83.4c-0.2-0.1-0.3-0.2-0.5-0.3c2.2-0.4,3.8-1.9,5.6-2.9c0.5,0.7-0.6,1.4-0.1,2.1
			c1-0.1,1.3-0.9,1.9-1.4c0.4-0.3,0.9-0.8,0.5-1.3c-0.4-0.5-1-0.1-1.5-0.1c1.3-1.6,2.6-3.1,3.4-5c3.3,0,6.5,0.3,9.7,1.2
			c1.3,0.6,2.6,1.3,3.9,1.9c3.8,2.7,5.3,6.6,5.3,11.1c-0.9,5.1-2.6,9.6-8.2,11.3c0.4-0.8,0.9-1.7,1.2-2.5c0.6-1.4,1.2-2.8,0.2-4.2
			c-1.3-2-1.8-4.3-2.1-6.6c-0.4-2.7-2-4.1-4.7-4.3c0,0,0,0,0,0c-2.1-1-4.5-1.3-6.4-0.1c-2.4,1.5-4.6,1.9-7.2,1.3c0,0,0,0,0,0
			C233.2,83.3,232.8,83.3,232.4,83.4z M253,82.8c2.2-0.5,2.8-2.1,1.4-3.8c-1.3-1.6-3.2-2.2-5.3-2.3c-0.9,0-1.8,0.3-1.8,1.4
			C247.3,80,251.2,83.2,253,82.8z"/>
		<path class="st15" d="M226.5,83.6c1.4,1.2,1.5,2.2-0.5,2.7c-0.9,0.2-1.8,0.6-2.3,1.5l0,0c-0.5,0.2-1,0.3-1.4,0.6
			c-2.8,1.3-3.6,1-4.8-2C220.5,85.5,223.5,84.6,226.5,83.6z"/>
		<path class="st0" d="M257.6,66.9c1.4,0.9,2.3,2.2,2.5,3.9c-1.4-0.8-2.7-1.5-4.1-2.3C256.3,67.7,256.9,67.2,257.6,66.9z"/>
		<path class="st0" d="M238.4,79.4c0.5,0,1.1-0.3,1.5,0.1c0.4,0.5-0.1,1-0.5,1.3c-0.6,0.5-0.9,1.3-1.9,1.4c-0.5-0.7,0.6-1.4,0.1-2.1
			c0,0,0,0,0,0c0.2-0.2,0.3-0.3,0.5-0.5C238.1,79.5,238.2,79.4,238.4,79.4z"/>
		<path class="st8" d="M238,79.6c-0.2,0.2-0.3,0.3-0.5,0.5C237.7,80,237.9,79.8,238,79.6z"/>
		<path class="st11" d="M260.6,88.8c0-4.5-1.5-8.4-5.3-11.1c0.7-0.2,1.4-0.4,2.1-0.6C261.1,80.2,261.8,84.2,260.6,88.8z"/>
		<path class="st13" d="M257.5,77c-0.7,0.2-1.4,0.4-2.1,0.6c-1.3-0.6-2.6-1.3-3.9-1.9C253.7,73.4,255,73.7,257.5,77z"/>
		<path class="st6" d="M254.8,70.7c-2.4-0.7-4.6-1.9-7-2.5c2.6-0.2,5.1,0.4,7.3,2C255,70.4,254.9,70.5,254.8,70.7z"/>
		<path class="st7" d="M254.8,70.7c0.1-0.2,0.2-0.3,0.2-0.5c0.2,0,0.4,0,0.5,0.1c0.6,0.6,1.7,0.5,1.9,1.6c0,0.1-0.4,0.4-0.5,0.4
			C255.9,72.2,255.1,71.7,254.8,70.7z"/>
		<path class="st0" d="M262.6,72.9c0.3,0,0.5,0.2,0.6,0.5C263,73.2,262.8,73.1,262.6,72.9z"/>
		<path class="st0" d="M260,70.7c0.2,0.2,0.4,0.3,0.6,0.5C260.4,71,260.2,70.9,260,70.7z"/>
		<path class="st4" d="M223.3,103.8c1.1-1.3,2.1-1.1,3.4,0c2.7,2.3,5,4.9,7.2,7.6c0.4,0.7,0.3,1.3-0.5,1.6c-3-0.6-4.8-2.9-7-4.6
			c-0.6-0.5-1.2-1.2-2-0.9c-1,0.3-0.9,1.3-0.9,2.2c-0.2,0-0.3,0.1-0.5,0.1c-5.5,0.3-11,0.7-16.2,2.8c-4.2,1.6-8.6,3-12.5,5.2
			c-1.2,0.1-2.5,1.3-3.4-0.4c0,0,0.1,0,0.1,0c0.2-0.1,0.4-0.3,0.6-0.4c9.9-5.6,20.1-10.7,31.4-13c-1.5,1.2-3.5,1.2-5.2,2.1
			c-1.4,0.7-1,1.1-0.1,1.7c1.6,1.2,3.2,0.5,4.6-0.2C223.8,106.9,223.8,105.4,223.3,103.8z"/>
		<path class="st12" d="M251.2,109.3c-3.3,4.6-8.2,5.9-13.3,6.4c-1.3,0.1-3,0-3.1-1.6c-0.2-1.6,1.4-2,2.7-2.1
			c4.3-0.1,8.5-1,12.6-2.6C250.4,109.3,250.8,109.4,251.2,109.3z"/>
		<path class="st9" d="M223.5,109.7c0-0.9-0.1-1.9,0.9-2.2c0.8-0.3,1.4,0.4,2,0.9c2.2,1.8,4,4,7,4.6c-0.7,0.9-1.4,1.8-2.1,2.7
			c-0.3-0.5-0.2-1.3-0.9-1.4C227.4,113.7,225.6,111.5,223.5,109.7z"/>
		<path class="st7" d="M223.5,109.7c2.1,1.7,3.9,3.9,6.8,4.6c0.8,0.2,0.7,0.9,0.9,1.4c-0.1,0.6-0.2,1.2-0.3,1.8
			c-0.3,0.3-0.5,0.6-0.8,0.9c-2-3-4.7-5.3-7.4-7.5c0.1-0.4,0.2-0.7,0.3-1.1C223.2,109.8,223.3,109.8,223.5,109.7z"/>
		<path class="st2" d="M125.6,189.3c-1.6-0.7-2.4,0.9-3.5,1.3c-1.3,0.5-2.2,2.2-4,1.2c4.3-4.6,9.3-8.4,13.3-13.3
			c0.9-1.1,1.9-2.2,2.9-3.3c1.7-0.3,3.5-0.7,5.2-1c-0.8,2.5-3,4.1-4.7,6C132,183.4,129.3,186.8,125.6,189.3z"/>
		<path class="st5" d="M139.5,174.2c-1.7,0.3-3.5,0.7-5.2,1c2.7-4.1,5.5-8.2,8.2-12.3c1.7,0.4,3.1-0.4,4.4-1.1
			c1.1-0.6,2.1-0.5,3.2-0.5c-0.3,1.6-1.9,2.3-2.4,3.7c-2.6,3-5.1,6-7.7,9.1C139.8,174.1,139.7,174.1,139.5,174.2z"/>
		<path class="st7" d="M160.2,125.6c3.6-1.7,3.6-1.7,5,2c0.5,1.2,1,2.4,1.5,3.6c-2.2,1-4.7,0.8-7,1.4c-1.6,0.4-2-0.6-1.5-2
			C158.8,128.9,159.5,127.3,160.2,125.6z"/>
		<path class="st9" d="M222.7,118.9c-2.5,1.3-5.4,1.4-8,2.1c-1-1.5-2.2-0.3-3.2-0.3c-1.1,0-2.5,0.6-3.1-0.8
			c-0.6-1.6,0.6-4.9,1.8-5.3c3-1,6-2,9-2.9c0.4,1.2,0.1,2.4,0,3.5C218.7,119.1,218.7,119.1,222.7,118.9z"/>
		<path class="st4" d="M222.7,118.9c-4,0.2-4,0.2-3.6-3.7c0.1-1.2,0.4-2.4,0-3.5c0.3-0.1,0.7-0.2,1-0.2c0.9-0.2,1.7-0.4,2.6-0.6
			c2.8,2.2,5.4,4.6,7.4,7.5C227.7,118.6,225.2,118.8,222.7,118.9z"/>
		<path class="st9" d="M222.7,110.9c-0.9,0.2-1.7,0.4-2.6,0.6c-0.6-0.5-1.3-0.2-2-0.1c-7.5,1.3-14.8,3.1-21.6,6.7
			c-0.7,0.4-1.6,1.5-2.2-0.2c4-2.3,8.3-3.6,12.5-5.2c5.2-2,10.7-2.5,16.2-2.8C222.9,110.2,222.8,110.6,222.7,110.9z"/>
		<path class="st0" d="M230.5,125.3c0.1,0.1,0.2,0.1,0.3,0.2C230.7,125.4,230.6,125.4,230.5,125.3
			C230.5,125.3,230.5,125.3,230.5,125.3z"/>
		<path class="st0" d="M230.5,125.3c-0.1-0.1-0.2-0.1-0.2-0.2C230.3,125.2,230.4,125.3,230.5,125.3
			C230.5,125.3,230.5,125.3,230.5,125.3z"/>
		<path class="st15" d="M242.2,87.1c-1-0.7-2.6,0.6-3.4-0.8c0.9-2.5,2.7-3.7,5.2-3.8c1,0,2,0,3.1-0.1c0,0,0,0,0,0
			c0.2,0.3,0.5,0.6,0.7,1c-0.4,1.9-2.3,2.4-3.6,3.4C243.6,86.9,242.9,87,242.2,87.1z"/>
		<path class="st13" d="M244.3,86.8c1.3-1.1,3.1-1.5,3.6-3.4c1.6,0.4,2.5,1.5,2,3.1c-0.7,2.2-2.6,2.5-4.6,2.3c0,0,0,0,0,0
			C244.9,88.1,244.6,87.4,244.3,86.8z"/>
		<path class="st6" d="M223.3,103.8c0.6,1.5,0.6,3-1,3.8c-1.4,0.7-3.1,1.3-4.6,0.2c-0.9-0.7-1.3-1,0.1-1.7c1.7-0.8,3.7-0.8,5.2-2.1
			C223,104,223.1,103.9,223.3,103.8z"/>
		<path class="st15" d="M246.5,94.2c-1.4,2.4-4,1.8-6.2,2.3c-0.5,0.1-1-0.4-1.1-0.9c-0.1-0.8,0.3-1.3,1.1-1.5
			c1.6-0.5,3.2-0.6,4.8-0.5C245.6,93.7,246.1,93.9,246.5,94.2z"/>
		<path class="st15" d="M245.4,89.7c-0.9,0.4-1.9,0.8-2.8,1.1c-0.8,0.3-1.8,0.4-2.2-0.6c-0.4-1,0.6-1.2,1.1-1.8
			c1.3-0.7,2.5,0.3,3.8,0.3c0,0,0,0,0,0C245.3,89,245.3,89.4,245.4,89.7z"/>
		<path class="st7" d="M191.5,117c-0.2,0.1-0.4,0.3-0.6,0.4C191.1,117.3,191.3,117.2,191.5,117z"/>
		<path class="st15" d="M212.7,65.6c0.4,2.3-1.3,3.6-2.4,5.2c-0.6,0.8-1.6,1.4-1.3,2.6c-0.8,0.2-1.7,0.4-2.5,0.5
			c-0.5-0.6-1.9-0.4-1.8-1.6c0-0.9,1.1-0.4,1.6-0.9c0.4-0.5,1.4-0.5,1.3-1.4c-0.1-0.9-1-1.1-1.7-1.4c0-1.8,1.8-3.2,1.1-5.1
			C209.5,62.6,210.8,64.9,212.7,65.6z"/>
		<path class="st7" d="M207,63.6c0.7,1.9-1.1,3.3-1.1,5.1c-1.1,0.1-2.1-0.3-2.3-1.5c-0.2-1,0.4-1.8,1.1-2.4c0.3-0.3,0.5-0.6,0.8-1
			C205.9,63.8,206.5,63.7,207,63.6z"/>
		<path class="st15" d="M203.8,69.5c-0.1,1.1-0.5,1.9-1.5,2c-1.1,0.1-2.6-0.2-2.8-1.3c-0.3-1.4,1.3-1.7,2.2-2.1
			C202.9,67.6,203.2,68.9,203.8,69.5z"/>
		<path class="st3" d="M140,174.1c2.6-3,5.1-6,7.7-9.1c3.2,0.7,6.3-0.3,9.5-0.4c2-0.1,3.9-0.3,5.9-0.3c2.7,0,3.5,1.4,2.4,4
			c-1.1,2.5-2.4,4.8-4.1,6.9c-6,7.6-12.4,14.9-20.1,20.9c-16.6,12.9-33.1,26-51,37.1c-7.2,4.5-14.8,8.6-23.3,10.6
			c-1.6,0.4-3,0.9-4.7,1c-4.5,0.3-4.5,0.5-5.4-4.2c2.8-2,5.8-3.7,8.3-6.1c0,0,0.1,0.1,0.1,0.1c0.6,1.3-0.3,3.9,2.3,3.6
			c2.7-0.3,5.6-0.8,8.1-1.8c11.5-4.4,22-10.8,31.8-18.4c7.1-5.4,14.1-10.9,21.1-16.4c6.2-5,12.5-9.8,17.8-15.9
			c2.9-3.3,6-6.5,7.8-10.6c0.9-2.1,0.3-2.9-1.8-2.5c-2.1,0.4-4.2,0.8-6.3,1.5C144.2,174.8,142,176.4,140,174.1z"/>
		<path class="st1" d="M140,174.1c2,2.4,4.2,0.7,6.1,0c2.1-0.7,4.2-1.2,6.3-1.5c2.1-0.4,2.6,0.4,1.8,2.5c-1.8,4.2-4.9,7.3-7.8,10.6
			c-5.3,6-11.6,10.9-17.8,15.9c-7,5.6-14,11-21.1,16.4c-9.8,7.6-20.2,13.9-31.8,18.4c-2.6,1-5.4,1.5-8.1,1.8
			c-2.6,0.3-1.7-2.3-2.3-3.6c4.1-2,7.7-4.8,11.6-7.2c2.1-1.3,4.2-2.7,6.3-4.1c5.2-2.9,10-6.4,14.9-9.8c9.4-6.5,17.9-14.1,26.1-22
			c0.6-0.6,1.3-1.2,1.5-2.1c3.7-2.4,6.4-5.9,9.3-9.2c1.7-1.9,3.8-3.4,4.7-6C139.7,174.1,139.8,174.1,140,174.1z"/>
		<path class="st15" d="M253.3,57.6c1.3-0.2,3.1-0.6,3.5,1c0.3,1.1-1.3,2.1-2.4,2.3c-1.3,0.3-3,0.2-3.4-1.5
			C250.6,57.9,252.2,58,253.3,57.6z"/>
		<path class="st15" d="M247.1,49.4c0.3,0,0.5,0.1,0.6,0.4C247.6,49.6,247.4,49.5,247.1,49.4z"/>
		<path class="st15" d="M246.5,49c0.3-0.1,0.5,0.1,0.6,0.4C246.9,49.2,246.7,49.1,246.5,49z"/>
		<path class="st0" d="M246.3,48.2c-0.2-0.2-0.4-0.4-0.7-0.6C245.9,47.8,246.1,48,246.3,48.2z"/>
		<path class="st15" d="M223.7,87.8c1-0.2,2-0.4,3.1-0.6c0.5,2.9,2.6,3.5,5.1,3.8c0.3,1.6,1.2,1.5,2.2,0.8c0.8-0.5,1.5-0.6,2.1,0.2
			c0.6,0.9-0.3,1.4-0.8,1.9c-3.6,3.6-9,3.2-12.2-0.8C221.5,91.1,222.4,89.5,223.7,87.8C223.7,87.9,223.7,87.8,223.7,87.8z"/>
		<path class="st15" d="M217.8,98.7c-1.7,0.3-3.3,0.2-4.8-0.6c-0.8-0.4-2-0.8-1.7-2c0.3-1.1,1.3-1.9,2.3-1.8
			c2.6,0.3,5.1,0.6,7.7,0.1c0.5-0.1,1.2,0.3,1.3,1c0.2,0.8-0.2,1.1-0.9,1.3C220.4,97.4,219.3,98.5,217.8,98.7z"/>
		<path class="st11" d="M247.1,82.4c-1,0-2,0-3.1,0.1c-2.6,0.1-4.4,1.3-5.2,3.8c-2.6,0.8-3.9-1-5.3-2.6c2.6,0.6,4.9,0.2,7.2-1.3
			C242.6,81.1,245,81.4,247.1,82.4z"/>
		<path class="st7" d="M231.9,91c-2.5-0.2-4.6-0.9-5.1-3.8c1.9-0.6,3.6-0.7,5.1,1.1C232.6,89.3,232.8,90.1,231.9,91z"/>
		<path class="st15" d="M236.9,97.4c0.8-0.1,1.7-0.4,2,0.5c0.3,1-0.6,1.3-1.4,1.5c-0.8,0.2-1.9,0.3-2.2-0.7
			C235.1,97.7,236.2,97.6,236.9,97.4z"/>
		<path class="st11" d="M245.2,88.7c-1.3,0-2.5-1-3.8-0.3c0.3-0.4,0.6-0.9,0.8-1.3c0.7-0.1,1.3-0.2,2-0.3
			C244.6,87.4,244.9,88.1,245.2,88.7z"/>
		<path class="st11" d="M232.4,83.4c0.4-0.1,0.8-0.1,1.2,0.2C233.1,83.7,232.7,83.7,232.4,83.4z"/>
		<path class="st11" d="M231.6,100.1c0.2-0.2,0.3-0.3,0.5-0.5C232.3,100.1,231.8,99.9,231.6,100.1
			C231.6,100,231.6,100.1,231.6,100.1z"/>
		<path class="st11" d="M231.6,100c-0.2,0.2-0.3,0.3-0.5,0.5C230.9,100,231.5,100.2,231.6,100C231.6,100.1,231.6,100,231.6,100z"/>
		<path class="st15" d="M232,66.5c-0.2-2.2,1.9-5.6,3.8-6.2c0.7-0.2,1.4-0.4,2,0.1c0.8,0.7,1,1.7,0.6,2.6c-0.9,2.3-1.7,4.6-1.5,7.2
			c0.1,1.4-1.2,1.5-2.2,0.7C233.1,69.8,232.7,68,232,66.5z"/>
		<path class="st15" d="M230.5,73.6c1-0.1,2.5-0.8,3.1,1c0.4,1.5-1.6,3.5-3.8,4c-1.3,0.3-2.2,0.1-2.5-1.4
			C227.1,75.5,228.3,74.1,230.5,73.6z"/>
		<path class="st15" d="M228.4,71.4c-1.6,0.3-2.8-0.1-3.1-1.7c-0.3-1.4,0.9-1.6,1.9-1.9c1.7-0.5,3.2,0.2,3.5,1.7
			C231.1,71,229.3,71,228.4,71.4z"/>
		<path class="st15" d="M221.5,73.7c1.4-0.9,2.5-2.1,4.1-0.7c0.5,0.4,0.6,1,0.1,1.3C224.2,75.5,222.9,75,221.5,73.7z"/>
		<path class="st0" d="M253,82.8c-1.9,0.4-5.8-2.8-5.7-4.7c0.1-1.1,1-1.5,1.8-1.4c2,0.1,3.9,0.7,5.3,2.3
			C255.9,80.7,255.2,82.3,253,82.8z"/>
	</g>
</g>
</svg>
