<?xml version="1.0" encoding="utf-8"?>
<!-- Generator: Adobe Illustrator 23.0.1, SVG Export Plug-In . SVG Version: 6.00 Build 0)  -->
<svg version="1.1" id="Layer_1" xmlns="http://www.w3.org/2000/svg" xmlns:xlink="http://www.w3.org/1999/xlink" x="0px" y="0px"
	 viewBox="0 0 179.6 300" style="enable-background:new 0 0 179.6 300;" xml:space="preserve">
<style type="text/css">
	.st0{fill:#1B213D;}
	.st1{fill:#919397;}
	.st2{fill:#5D5D5E;}
	.st3{fill:#3475B8;}
	.st4{fill:#23459B;}
	.st5{fill:#21202B;}
	.st6{fill:#70582D;}
	.st7{fill:#E2C994;}
	.st8{fill:#E9D7AC;}
	.st9{fill:#FBF3D8;}
	.st10{fill:#E5C67D;}
	.st11{fill:#FCFBF3;}
	.st12{fill:#57A1D8;}
	.st13{fill:#F3C747;}
</style>
<g id="mCsrQU_1_">
	<g>
		<path class="st0" d="M91.1,279.2c-11.8,0.1-23.5-0.6-34.9-4.7c-14-5.1-17.2-9.9-15.4-24.6c1.6-0.4,2.2-1.6,2.2-3.1
			c0.5-0.4,1.7,0.1,1.7-1.1c1.3-2.8,5-2.4,6.5-4.9c0.8-0.7,2.2,0.2,2.7-1.2c1.1-1.4,3.2-0.3,4.2-1.9c0.9,0,1.9,0.1,2.8,0.1
			c-2.4,3-2.6,7.4-6,9.8c-4.4-0.3-5.6,3.5-7.8,6c-0.9,1.4-1.4,3.1-1.1,4.7c1,4.9,5.1,7.3,9,8.7c26.4,9.5,51.7,7.5,75.3-8.6
			c1.6-1.1,2.2-3.7,1.5-4c-3.2-1.2-3.8-6-7.9-5.4c-3-2.1-3.4-5.6-4.9-8.5c4,0.2,7.3,2.2,10.4,4.5c0.9,0.2,1.7,0.5,2.6,0.7
			c1.9,2,3.1,5.6,7,3c-0.2,1.1,0.6,2.9-1.8,2.5c-0.7-0.1-1.8-0.7-1.4,0.8c0.7,3,1.6,5.9,2.4,8.8c0.3-0.3,0.6-0.6,0.9-0.9
			c0.3,8.3-4.3,13.9-10.7,18c-4.9,3.2-10.7,4.3-16.3,6c-16.1,4.9-32.3,3.8-48.6,2.8c0,0,0.1-0.4,0.1-0.4c-1.9-2.9,2.3-3.5,2.3-5.7
			c9,0.2,18.1,1.4,27.1,0.1c4,0.2,7.9-0.6,11.8-1.3c6.9-1,13.5-3,19.5-6.7c2.3-1.4,5.1-2.5,5.8-6.5c-8.8,6-17.9,9-27.2,11.5
			C99,278.2,95.1,278.7,91.1,279.2z"/>
		<path class="st1" d="M101.1,55.3c-0.7,0.1-1.5,0.2-2.2,0.3c-4.6-2-9.4-0.1-14.5-1c1.3,2,4.1,0.2,4.3,2.4c0.4,3.7,2.3,7.4,0.9,11.3
			c-0.6,1.8-1,3.6-0.2,5.3c2.1,4.2,0.7,8.3,0.3,12.6c-0.6,5.8-3.3,5.2-7,3.4c-0.2-0.2-0.5-0.4-0.6-0.6c0-0.2,0.1-0.7,0.4-0.8
			c5.6-3,5.9-3.8,2.3-6.6c1.6-4.5-0.6-9.2,1-13.7c-0.4-0.7-0.7-1.4-1.1-2.2c-0.3-1-0.6-2-1-3c-0.1-0.7,1.3-1.4,0.1-2.1
			c-2.1-3.4-5.2-4.6-9.1-5.5C65.4,53,57,48.7,52.2,39.5c1.3,0,2.6,0,3.9,0c1.2,1.8,3.7,0.6,5,2.1c0.9,5.1,5.3,8.9,11.6,9.7
			c-2.5-3.1-7.9-4.3-5.8-9.7c4-0.7,8.1-1.3,12.2-1.1c3.9,0.6,5.3,4.2,4.7,6.7c-1.7,7.7,3.3,6.1,7.4,6.2c2.3,0,4.6,0,7,0
			C99.5,53.5,100.8,53.6,101.1,55.3z"/>
		<path class="st2" d="M101.1,55.3c-0.3-1.7-1.6-1.9-3-1.9c-2.3,0-4.6,0-7,0c-4.1-0.1-9.1,1.5-7.4-6.2c0.6-2.5-0.8-6.1-4.7-6.7
			c0.7-0.5,1.3-0.9,3.1-2.2c-9.5,0.8-17.9-0.9-26.1,1.2c-1.3,0-2.6,0-3.9,0c-0.2-0.1-0.3-0.1-0.5-0.2c-0.2-0.1-0.4-0.1-0.4-0.2
			c0.6-2,2.4-1.4,3.7-1.4c7.1-0.1,14.2-0.2,21.2-0.1c2.7,0,5.2-0.2,7.7-1.3c0.5,0.1,0.9,0.2,1.4,0.2c2.5,4.6,6.2,2.9,9.8,1.8l0,0.3
			c1.8,2.6,0.7,5-0.4,7.5c-1.1,2.6-0.6,5.1,2.3,6c2.4,0.7,8.4-5.3,8.9-8.5c0.8-5.1-3.5-3.7-6-4.6c-0.9-0.3-1.9-0.4-2.9-0.5
			c0-0.3,0-0.6,0.1-1c9,0.1,17.9,0.1,26.9,0.2c1.1,0,2.5-0.4,3,1.1c0.5,1.6-0.5,2.4-1.9,2.8c-2.2-2.9-5.3-3-7.2-0.1
			c-1,1.5-1.5,3.2-2.2,4.9c-1.6,2.3-3.3,4.5-6.6,4.3l-0.2-0.2c0-0.3,0.1-0.6,0.1-0.9c0.2-0.2,1-0.2,0.3-0.8
			c-0.1,0.2-0.2,0.5-0.3,0.7c-2,0.2-3.9,1-4.5,3c-0.4,1.4,2,0.7,2.4,1.9C104.9,54.8,103,55,101.1,55.3z M115.8,40.2
			c-5.7-1.4-4.2-0.9-4.9,8.1C112.8,45.2,114.3,42.7,115.8,40.2z"/>
		<path class="st3" d="M85.2,36.7c-0.5-0.1-0.9-0.2-1.4-0.2c-0.4-2.9-2.6-4.7-4.4-6.6c-1.6-1.8-1.9-3.3-0.5-5.2
			c1.8,0.4,3,3.9,5.1,1.4c2.3-2.7-1.4-3.2-2.4-4.7c-0.2-0.2-0.5-0.3-0.8-0.5c-1.5-3.1-4.4-4.9-6.6-7.4c-1.6-1.8-3-3.9-2.2-6.2
			C72.8,4.7,75.5,5,77.5,5c8-0.1,16-0.1,24,0c2.6,0.1,5.7,0.5,3.5,4.6c-0.2-1.6-1.3-2.5-2.6-3c-5.8-1.3-11.6-1.2-17.4,0
			c0.3,0.8,0.6,1.5,0.8,2.3c0.3,1.2,0.6,2.4,1.9,2.5c1.7,0.2,2.1-1.3,2.6-2.4c0.4-0.7,0.5-1.5,0.8-2.3l0.3-0.1l0.3,0.1
			c7,5.5,6.4,9.6-2,13.5c5.5,3.8,5.5,3.9-0.3,7.5c-2.1,1.3-0.8,2,0,3c1.5,1.7,2,3.4,0.6,5.4C88.8,37.9,87,37.4,85.2,36.7z M80.4,7.7
			c-1.9,0.1-3.8-0.2-3.2,2.2c0.6,2.4,2.5,4.2,4.8,4.4c2.1,0.2,1.6-2,1.7-3.4C83.9,8.2,82.4,7.4,80.4,7.7z"/>
		<path class="st4" d="M85.2,36.7c1.8,0.6,3.5,1.2,4.9-0.8c1.4-2,0.8-3.7-0.6-5.4c-0.8-0.9-2.1-1.7,0-3c5.8-3.6,5.7-3.7,0.3-7.5
			c8.4-3.8,9-7.9,2-13.5c3.5,0,7-0.1,10.5-0.1c1.4,0.6,2.4,1.4,2.6,3c-0.3,3.8-2,7.4-5.3,8.9c-5,2.3-3.2,4-0.4,6.3c0,0-0.1,0-0.1,0
			c0.2,0.3,0.5,0.6,0.7,0.9c0,1,0.1,2.1,0.1,3.1c0,0,0,0,0,0c-0.8-0.1-1.1,0.3-1.1,1.1c0,0,0-0.1,0-0.1c-1,0-1.7,0.3-1.9,1.4
			l-0.1-0.2c0,0,0.3,0,0.3,0c-1.1,0.3-1.1,1.2-1.2,2.1c0,0,0.1,0,0.1,0c-2.1,1.5-0.9,3.7-1.2,5.6C91.4,39.6,87.8,41.3,85.2,36.7z"/>
		<path class="st2" d="M82.8,89.7c3.7,1.7,6.4,2.4,7-3.4c0.4-4.3,1.7-8.4-0.3-12.6c-0.8-1.7-0.5-3.5,0.2-5.3
			c1.4-3.9-0.5-7.5-0.9-11.3c-0.3-2.2-3.1-0.5-4.3-2.4c5,0.9,9.8-1,14.5,1c-2.5,0.2-2.7,2.2-3.2,4c-0.3,0-0.5,0.1-0.6,0.3
			c-0.6,0.2-1.1,0.5-1.7,0.7c0.3,0.4,0.5,0.7,0.8,1.1c-0.2,0.6-0.4,1.3-0.5,1.9c-1.6,0.1-3.2,0.7-2.6,2.6c1.3,4,1.8,7.9,0.9,12
			c-0.2,0.9,0.4,1.9,0.7,2.8c0.2,0.6,0.7,1.2,1.2,0.1c0.2-0.4,0.2-1,0.3-1.4c1.3,2.5,2.7,5,2.8,8c-0.6,1.2-2.1,2.3-0.9,3.9
			c0,0.4,0,0.8,0,1.2c-0.5,0.9-1.4,1.7-1.2,2.9c-0.3,1-0.7,2.1-1,3.1c-0.1,0.3-0.2,0.6-0.4,0.8c-2.8,1-1.2,3.6-1.9,5.3
			c-0.6-0.3-1.6,1.8-1.6,0.2c0-4.4-1.5-8.7,0-13c-2.5-1.1-5.2,0.4-7.3-1.4C82.9,90.3,82.9,90,82.8,89.7z"/>
		<path class="st5" d="M139.1,259.9c-0.3,0.3-0.6,0.6-0.9,0.9c-0.8-2.9-1.7-5.9-2.4-8.8c-0.4-1.5,0.7-0.9,1.4-0.8
			c2.3,0.4,1.6-1.4,1.8-2.5c1.5-3.4,4.6-6,4.9-10c0-0.8,1.4-1.2,0.8-2.2c0.2-0.7,0.2-1.6,1.2-1.8c3.5,1.6,4.5-0.4,5.1-3.4
			c0.4-1.8-1-4.1,1.3-5.4c0.3,0.3,0.5,0.5,0.8,0.8c0.1,1.7,0.2,3.4,0.3,5.1c-0.4,0.9-1.7,1.5-1,2.8c-0.2,0.7-0.4,1.3-0.6,2
			c-0.9,0.6-0.5,1,0.3,1.3c-1.6,2.4-2.7,4.9-3,7.8c-2.4,0.8-1.8,3.4-3,4.9C143.1,253.4,140.9,256.5,139.1,259.9z"/>
		<path class="st6" d="M58.2,282.2c0.3,0.2,0.6,0.4,0.8,0.5c0.4,2.7,1.8,4,4.7,3.5c0,0-0.1,0.4-0.1,0.4c-13.7,1.5-27.2-0.5-40.7-2.2
			c0-0.8,0-1.6-0.1-2.4c2.8,0.8,4.6,0,4.9-3.2c0.8,0.2,1.5,0.4,2.3,0.6c-1.6,2.1-1.2,3.6,1.5,3.2c3.4-0.4,6.9,0.5,10.3-0.7
			c1.6,1.6,3.2,2,5.1,0.5c0.8-0.6,1.7-2.1,2.8-0.7C52.6,285.4,55.4,282.8,58.2,282.2z"/>
		<path class="st7" d="M58.2,282.2c-2.8,0.6-5.6,3.2-8.4-0.3c-1.1-1.4-2,0.1-2.8,0.7c-1.9,1.5-3.6,1.1-5.1-0.5
			c-0.3-0.8-0.6-1.5-0.9-2.3c4.6-2.1,9.5,0.5,14.2-1.1C57.3,278,58,280.3,58.2,282.2z"/>
		<path class="st1" d="M106.8,54.5c-0.4-1.2-2.8-0.5-2.4-1.9c0.6-2,2.5-2.7,4.5-3l0.1,0.1c0,0.3-0.1,0.6-0.1,0.9
			c-0.2,0.2-1,0.2-0.3,0.7c0,0,0.4-0.3,0.5-0.5c3.2,0.1,4.9-2,6.6-4.3c0.8,0,1.6,0,2.3,0c0,0.4,0,0.8,0.1,1.2c0,0,0.1-0.1,0.1-0.1
			c-0.2,0.1-0.5,0.2-0.7,0.3c0.2,0.2,0.4,0.5,0.7,0.7C114.7,51.5,111.2,53.9,106.8,54.5z"/>
		<path class="st8" d="M118,46.6c-0.8,0-1.6,0-2.3,0c0.7-1.6,1.2-3.4,2.2-4.9c1.9-2.9,4.9-2.7,7.2,0.1c0,0,0-0.1,0-0.1
			c-0.4,0-0.7,0-1.1,0c0,0.4,0,0.7,0.1,1.1c0,0,0,0,0,0c-0.4,0-0.7,0-1.1-0.1c0,0.4,0.1,0.7,0.1,1.1c0,0,0,0,0,0
			c-0.4,0-0.8-0.2-1.1-0.1c-0.7,0.3,0,0.7,0.1,1.1c0,0,0,0,0,0c-0.6-0.1-1.3-0.3-1.5,0.5c-0.1,0.3,0.3,0.7,0.4,1.1
			c0,0.3-0.1,0.5-0.5,0.5C119.7,45.3,118.8,46.3,118,46.6z"/>
		<path class="st2" d="M22.9,282.2c0,0.8,0,1.6,0.1,2.4c-3.1-0.3-8.2,0.5-8.4-2.6c-0.2-2.3,5.2-2.2,8.4-2.1
			C22.4,280.6,21,281.3,22.9,282.2z"/>
		<path class="st9" d="M104.9,279.4c-3.9,0.7-7.8,1.5-11.8,1.3c-0.6-0.5-1.3-1-1.9-1.6c3.9-0.5,7.9-1,11.8-1.4
			C103.6,278.3,104.2,278.9,104.9,279.4z"/>
		<path class="st10" d="M40.9,279.9c0.3,0.8,0.6,1.5,0.9,2.3c-3.4,1.2-6.9,0.3-10.3,0.7c-2.7,0.3-3.2-1.1-1.5-3.2c0,0-0.1,0-0.1,0
			c0.4,0,0.8,0,1.2,0c0.4,0.1,0.7,0.2,1.1,0.2c0.6,0.9,1.2,0.8,1.7-0.1C36.2,278.9,38.6,279.6,40.9,279.9z"/>
		<path class="st11" d="M80.9,20.9c0.3,0.2,0.6,0.3,0.8,0.5c1,1.5,4.7,1.9,2.4,4.7C82,28.6,80.7,25,79,24.7
			C78.8,23,80.2,22.2,80.9,20.9z"/>
		<path class="st5" d="M63.7,286.3c-2.8,0.5-4.2-0.9-4.7-3.5c2.3-0.6,3.9-3.7,6.9-2.2C65.9,282.8,61.8,283.4,63.7,286.3z"/>
		<path class="st1" d="M22.9,282.2c-1.8-0.8-0.4-1.6,0.1-2.4c1.5-0.7,3-1.8,4.8-0.8C27.5,282.2,25.7,282.9,22.9,282.2z"/>
		<path class="st11" d="M163,94c0-0.4,0-0.9,0-1.3c2.5,0.4,3.8,1.8,4,4.3c-0.2,0.2-0.3,0.5-0.3,0.8C165.7,96.3,163.3,96.1,163,94z"
			/>
		<path class="st0" d="M95,38.5c0.3-1.9-0.9-4.1,1.2-5.6c-0.6,1.7,0.1,3.2,0.9,4.7c-0.1,0.3-0.1,0.6-0.1,1c-0.6,0.1-1.3,0.1-1.9,0.2
			L95,38.5z"/>
		<path class="st0" d="M100,28.8c0-1-0.1-2.1-0.1-3.1C101.7,26.6,101.7,27.6,100,28.8z"/>
		<path class="st11" d="M97,61.6c-0.6,0-1.3,0-1.9,0c0-0.6,0-1.2,0.1-1.8c0.2-0.2,0.4-0.3,0.6-0.3C96.6,59.9,96.9,60.7,97,61.6z"/>
		<path class="st1" d="M33.8,279.7c-0.5,0.9-1.1,1-1.7,0.1C32.7,279.8,33.3,279.8,33.8,279.7z"/>
		<path class="st0" d="M97.1,31.1c0.2-1,0.9-1.4,1.9-1.4C98.7,30.6,98.2,31.2,97.1,31.1z"/>
		<path class="st0" d="M96.1,32.9c0.1-0.9,0.1-1.8,1.2-2.1C97.5,31.8,96.7,32.3,96.1,32.9z"/>
		<path class="st2" d="M118,46.6c0.9-0.3,1.7-1.2,2.5,0.1c-0.8,0.4-1.1,1.9-2.5,1.1C118,47.4,118,47,118,46.6z"/>
		<path class="st11" d="M99.9,62.4c-0.4-0.2-0.8-0.4-1.1-0.6C99.1,62,99.5,62.2,99.9,62.4z"/>
		<path class="st2" d="M118.1,48.8c-0.2-0.2-0.4-0.5-0.7-0.7c0.2-0.1,0.5-0.2,0.7-0.3c0.1,0.2,0.2,0.5,0.2,0.7
			C118.3,48.6,118.2,48.7,118.1,48.8z"/>
		<path class="st2" d="M121,46.2c-0.1-0.4-0.5-0.8-0.4-1.1c0.2-0.7,0.9-0.6,1.5-0.5C121.7,45.2,121.3,45.7,121,46.2z"/>
		<path class="st2" d="M122,44.7c-0.1-0.4-0.7-0.7-0.1-1.1c0.3-0.1,0.7,0,1.1,0.1C123,44.4,122.6,44.7,122,44.7z"/>
		<path class="st2" d="M123,43.7c0-0.4-0.1-0.7-0.1-1.1c0.4,0,0.7,0,1.1,0.1C124,43.4,123.6,43.7,123,43.7z"/>
		<path class="st2" d="M124,42.7c0-0.4,0-0.7-0.1-1.1c0.4,0,0.7,0,1.1,0C125.1,42.4,124.7,42.7,124,42.7z"/>
		<path class="st1" d="M31.1,279.6c-0.4,0-0.8,0-1.2,0c0.1-0.2,0.2-0.5,0.3-0.7C30.5,279.1,30.8,279.4,31.1,279.6z"/>
		<path class="st0" d="M99,29.8c-0.1-0.8,0.3-1.1,1.1-1.1C100,29.4,99.6,29.7,99,29.8z"/>
		<path class="st0" d="M99.1,24.8c0,0,0.1,0,0.1,0c0.1-0.1,0.2-0.2,0.2-0.3C99.3,24.6,99.2,24.7,99.1,24.8z"/>
		<path class="st3" d="M54.9,247.6c3.5-2.4,3.6-6.8,6-9.8c0.2-1.4,2.5-1.4,2-3.2c1.4-1.6,2.9-3.3,4.3-4.9c0.6-1,1.3-2,1.9-3.1
			c1-1.6,3-2.6,2.9-4.9c0.6-1.6,3.4-2.5,1.9-4.9l0.2-0.3c3.8-3.1,2.9-7.6,3.8-11.7c1.9-2.5-0.2-3.9-1.4-5.6c-0.5-3-1-6-1.5-9.1
			c0.1-1.2-0.6-2.7,0.9-3.6c1.5,0,2.9,0,4.4,0.1c2,1.6,4.5,0.1,6.7,0.9c1.3,0.7,2.5,1.5,3.8,2.2c4.7,2.6,5.9,5.4,3.1,10
			c-1.6,2.6-1.7,5.2-2,8c-2.1-0.2-3.8-0.2-5.1,2.1c-5,9-7,18.9-8.8,28.8c-0.5,2.4,0.1,4.2,3.3,4c4.8-0.2,9.6-0.1,14.5-0.1
			c2.2,0,3.4-0.4,2.8-3.1c-1.5-6.3-2.9-12.6-3.9-18.9c-0.5-2.9-2.4-5.9-0.5-8.9c6.8,11.1,8.4,23.6,8.7,36.3c0.1,3.5-1.9,6.7-6,7.7
			c-8.1,1.9-16.1-2.2-19.3-10c-0.8-1.9-1.6-2.6-3.5-1.9c-0.3-3-0.5-5.9-1-8.9c-0.6-3.5,1.4-5.9,2.8-8.7c1.5-3,1.9-5.5,1.3-8.2
			c-6.7,9.7-11.4,20.3-16.3,30.7c-0.7,1.4-0.6,3.2-0.8,4.8c0,2.9,1.8,4.3,4.1,5.7c4.9,3.1,10.7,3.2,15.8,5.4c-2,1.7-4.2,0.8-6.3,0.3
			c-1.5-0.3-3.3-1-3.7,1.5c-0.3-0.3-0.7-0.5-1-0.8c-0.1-2.4-1.7-2-3.2-1.8c-6-1-8.6-6.1-11.9-10.2C53.6,251.6,57.1,250.1,54.9,247.6
			z M78.2,191c0,3.3-0.2,5.5,0.1,7.6c0.1,1.1,0.9,2.3,2.4,1.8c1.7-0.6,1-1.7,0.5-2.8C80.3,195.8,79.6,194,78.2,191z"/>
		<path class="st11" d="M68.9,265.7c0.3,0.3,0.7,0.5,1,0.8c3.4,1.4,6.9,1.9,10.5,2.2c5.4,1.8,10.9,1.4,16.4,0.3
			c5.1,0.5,9.4-2.4,14.1-3.5c7.8-1.8,14.4-9.3,13-16.4c4.2-0.6,4.8,4.2,7.9,5.4c0.8,0.3,0.1,2.9-1.5,4
			c-23.6,16.2-48.9,18.2-75.3,8.6c-3.8-1.4-7.9-3.8-9-8.7c-0.3-1.7,0.1-3.3,1.1-4.7c2.2-0.2,4.4,3.6,6.7,0.1
			c3.4,4.1,5.9,9.2,11.9,10.2C66.6,265,67.4,265.9,68.9,265.7z"/>
		<path class="st12" d="M80.4,268.6c-3.6-0.3-7.1-0.8-10.5-2.2c0.4-2.5,2.2-1.8,3.7-1.5c2.2,0.5,4.3,1.3,6.3-0.3
			c2.7,0,5.3,0.1,8,0.1c8.6,0.1,16.8-1,24.5-5.2c4.5-2.5,6.3-6,4.9-11.1c-1.8-6.7-5.3-12.5-8.5-18.4c-0.9-1.7-2.5-3.2-1.7-5.5
			c1.9,0.8,2.4,2.9,3.8,4.1c0.7,0.9,1.4,1.8,2.1,2.7c0,0.7,0.4,1.1,1,1.1c0.9,1.6,1.9,3.3,2.8,4.9c0.5,1.2,0.5,2.8,2.2,3.2l-0.1-0.1
			c1.6,2.9,2,6.4,4.9,8.5c1.4,7.1-5.2,14.6-13,16.4c-4.7,1.1-9,4-14.1,3.5C91.3,268.8,85.8,268.7,80.4,268.6z"/>
		<path class="st11" d="M104.9,279.4c-0.6-0.6-1.3-1.1-1.9-1.7c9.3-2.6,18.4-5.6,27.2-11.5c-0.7,4.1-3.5,5.1-5.8,6.5
			C118.4,276.4,111.8,278.5,104.9,279.4z"/>
		<path class="st9" d="M53.8,253.8c-2.3,3.5-4.4-0.3-6.7-0.1c2.2-2.5,3.4-6.3,7.8-6C57.1,250.1,53.6,251.6,53.8,253.8z"/>
		<path class="st8" d="M56,39.6c8.2-2.1,16.6-0.4,26.1-1.2c-1.7,1.2-2.4,1.7-3.1,2.2c-4.1-0.2-8.2,0.4-12.2,1.1c-1.9,0-3.8,0-5.8,0
			C59.7,40.2,57.2,41.4,56,39.6z"/>
		<path class="st2" d="M61.1,41.6c1.9,0,3.9,0,5.8,0c-2.1,5.4,3.3,6.6,5.8,9.7C66.4,50.5,62,46.7,61.1,41.6z"/>
		<path class="st2" d="M84.9,81.6c-2.5-0.8,0-2.8-0.9-4c0.6-1.8-0.9-3.2-1-4.9c0.3-1,0.6-2,1-3c0.1-0.6,0.3-1.3,0.4-1.9
			c0.5,0,1,0.1,1.5,0.1C84.3,72.4,86.5,77.1,84.9,81.6z"/>
		<path class="st1" d="M95,38.8c0.6-0.1,1.3-0.1,1.9-0.2c1,0.2,2,0.2,2.9,0.5c2.4,0.9,6.8-0.5,6,4.6c-0.5,3.2-6.5,9.2-8.9,8.5
			c-2.9-0.8-3.4-3.3-2.3-6C95.7,43.8,96.9,41.4,95,38.8z"/>
		<path class="st1" d="M115.8,40.2c-1.5,2.5-3,5-4.9,8.1C111.6,39.3,110.1,38.8,115.8,40.2z"/>
		<path class="st1" d="M108.9,49.6c0.1-0.2,0.2-0.5,0.3-0.7C110,49.4,109.2,49.5,108.9,49.6C109,49.7,108.9,49.6,108.9,49.6z"/>
		<path class="st11" d="M80.4,7.7c2-0.3,3.5,0.5,3.2,3.2c-0.1,1.4,0.4,3.6-1.7,3.4c-2.3-0.2-4.2-2-4.8-4.4
			C76.6,7.6,78.5,7.8,80.4,7.7z"/>
		<path class="st4" d="M91.2,6.7c-0.3,0.8-0.5,1.6-0.8,2.3c-0.6,1.1-0.9,2.7-2.6,2.4c-1.3-0.2-1.7-1.4-1.9-2.5
			c-0.2-0.8-0.5-1.5-0.8-2.3C87,6.6,89.1,6.6,91.2,6.7z"/>
		<path class="st0" d="M91.2,6.7c-2.1,0-4.1-0.1-6.2-0.1c5.8-1.2,11.6-1.3,17.4,0c-3.5,0-7,0.1-10.5,0.1c0,0-0.3-0.1-0.3-0.1
			L91.2,6.7z"/>
		<path class="st1" d="M84.7,98.9c0.6-2.7-0.5-4.7-2.6-6.3c-0.1-0.4-0.1-0.7-0.2-1.1c0.3-0.3,0.6-0.6,0.9-0.9
			c2.1,1.8,4.9,0.4,7.3,1.4c-1.4,4.3,0.1,8.6,0,13c0,1.6,1-0.5,1.6-0.2c0.4,2.6,0.7,5.2,1.1,7.7c-0.5-0.8-1.1-1.5-2.4-3.4
			c1,7.5-5.2,12.5-2.8,19.2c-1.7,0.7-3.1-0.8-4.7-0.8c-0.4,0-0.7,0-1.1,0c0,0,0,0,0,0c0.1-0.4,0.2-0.8,0.2-1.2
			c3.5-0.3,3.4-3,3.6-5.4c0.2-2-0.9-2.6-2.7-2.3c0.9-3.2,1.7-6.4,2.6-9.7c0-0.5,0-1.1,0-1.6C84.2,104.8,86.9,101.6,84.7,98.9z"/>
		<path class="st6" d="M93.7,99.6c0.1,0.3,0.2,0.7,0.4,1c-0.1,1-0.2,2-0.3,2.9c-0.2,3.7,0.2,7.3,2.1,10.6c0.2,2.3,1,4.5,2.2,6.5
			c0,0.8,0,1.6,0.9,2.1l-0.1,0c0,2.1,0.3,4.3-2.2,5.3c0.7-5.6-0.3-10.8-3.6-15.4c-0.4-2.6-0.7-5.2-1.1-7.7
			C92.5,103.1,90.9,100.6,93.7,99.6z"/>
		<path class="st1" d="M95.1,71.8c0.2,1.7-0.4,3.2-0.9,4.7c0.1,0.8,0.2,1.6,0.3,2.4c0,0.3-0.1,0.5-0.3,0.7c-0.1,0.5-0.1,1-0.3,1.4
			c-0.5,1.1-0.9,0.4-1.2-0.1c-0.3-0.9-0.9-1.9-0.7-2.8c0.8-4.1,0.4-8-0.9-12c-0.7-2,0.9-2.5,2.6-2.6c0,0,0.4,0,0.4,0
			c0,1-0.1,2-0.1,3c0,0.7,0,1.4,0.1,2.1C94.4,69.8,94.7,70.8,95.1,71.8z"/>
		<path class="st1" d="M95.1,59.8c0,0.6,0,1.2-0.1,1.8c0,0-0.4,0.1-0.4,0.1s-0.4,0-0.4,0c-0.3-0.4-0.5-0.7-0.8-1.1
			C94,60.3,94.6,60.1,95.1,59.8z"/>
		<path class="st0" d="M151.9,214c-1.7,2.3,0.9,4.3,0.3,6.6c-2.2,1.8-0.9,3.6,0.1,5.3c0,0,0,0,0,0c-2.3,1.3-1,3.6-1.3,5.4
			c-0.6,2.9-1.6,5-5.1,3.4c0-2,0.1-3.9,0.1-5.9c1.6-0.8-0.3-1.4-0.1-2.2c0.6-1.9,1.2-3.9-0.3-5.7c0.1-0.7,0.3-1.4,0.4-2.1
			c1-0.6,1.7-1.5,1.2-2.7c-0.2-0.4-1.4-0.3-2.2-0.4l0,0c-0.6-1.3,0.6-3.6-1.9-4c-0.2-0.6-0.4-1.2-0.5-1.7c1.7-0.8,1.5-4,4.3-3.4
			c1.9,0.7,0.6,3.1,2.2,4c-1,2-0.8,3.3,1.9,3C151.2,213.7,151.5,213.8,151.9,214z M150.3,219.2c-0.2,0-0.5,0-0.7-0.1
			c0.1,0.1,0.2,0.2,0.3,0.3C150.1,219.4,150.2,219.3,150.3,219.2z"/>
		<path class="st7" d="M151.6,236.6c0.5,0,0.9,0.1,1.4,0.1c-0.4,0.4-0.8,0.8-1.1,1.2C151.1,237.6,150.7,237.2,151.6,236.6z"/>
		<path class="st0" d="M168.1,102.6c-0.3,6.8-3.5,11.8-9.3,15.1c-0.6,0.6-1.2,1.2-1.8,1.8c-0.7,0.1-1.3,0.2-2,0.3
			c-1.6,0.1-1.7,1.9-2.8,2.5c-2.6-0.9-3.4,1.7-5.2,2.5c-3.5-4.6-4.1-0.8-5.1,1.7c-2.3-0.3-5.1-0.2-2.8-3.8c1.1-0.1,1.8-0.6,1.9-1.8
			c0.3-0.1,0.6-0.3,0.9-0.4c1.5,1.7,1.8,0.6,2-0.8l0.1,0c4.3,0.9,7.1-2.6,10.6-3.7c2.4-0.7,2.3-2.4,2.2-4.3c0.2-0.2,0.5-0.3,0.8-0.2
			c1.5,0.1,2.2-0.6,2-2.1l-0.1,0.1c1.1-0.2,1.2-1,1.2-1.9l0,0c1.5-0.2,2.7-0.5,0.7-2c0.1-0.3,0.1-0.6,0.2-0.9
			c1.1-0.7,1.2-1.3-0.2-1.8c-3.2-5.4-8.8-4.4-13.7-5.2c-0.5-0.8-1.3-0.8-2.1-1c-0.9-0.2-2.4,1.5-2.7-0.6c-0.2-1.3,0.9-2.1,2.1-2.3
			c1.1-0.2,2.2-1.4,3.2-0.5c2.3,1.8,2.6-0.5,3.6-1.5c1-0.3,1.7-0.9,2.1-2c1.1,1,2.1,1.9,3.2,2.9c0.8,0.7,1.6,1.2,2.6,1.1
			c0,0,0,0,0,0c1.2,3.5,3.7,5.7,7.1,6.9c0,0,0,0,0,0c0.2,0.7,0.4,1.4,0.6,2.1c0,0,0.2,0.2,0.2,0.2L168.1,102.6z"/>
		<path class="st5" d="M167.1,100.6c-3.4-1.2-5.9-3.4-7.1-6.9c1,0.1,2,0.2,3.1,0.2c0.4,2.1,2.7,2.4,3.7,3.9
			C165.7,98.9,166.7,99.7,167.1,100.6z"/>
		<path class="st5" d="M159.9,93.7c-1.1,0.1-1.9-0.4-2.6-1.1C158.4,92.4,159.5,92.2,159.9,93.7z"/>
		<path class="st2" d="M109.1,50.8c-0.2,0.2-0.5,0.5-0.5,0.5c-0.7-0.6,0.1-0.5,0.3-0.7C108.9,50.6,109.1,50.8,109.1,50.8z"/>
		<path class="st5" d="M167.6,102.6c-0.2-0.7-0.4-1.4-0.6-2.1C168.2,101,168.1,101.8,167.6,102.6z"/>
		<path class="st4" d="M107.1,224.6c-0.8,2.2,0.8,3.8,1.7,5.5c3.2,6,6.7,11.8,8.5,18.4c1.4,5.2-0.3,8.6-4.9,11.1
			c-7.7,4.2-15.9,5.3-24.5,5.2c-2.7,0-5.3-0.1-8-0.1c-5.2-2.1-11-2.3-15.8-5.4c-2.2-1.4-4.1-2.9-4.1-5.7c6.5-0.6,10.9-4.3,13.9-9.9
			c1.9-0.8,2.7-0.1,3.5,1.9c3.1,7.8,11.2,11.9,19.3,10c4-0.9,6.1-4.2,6-7.7c-0.3-12.6-1.9-25.1-8.7-36.3c-0.7-1.3-1.5-2.6-2.2-3.9
			c0.3-2.7,0.3-5.3,2-8c2.8-4.6,1.7-7.4-3.1-10c-1.3-0.7-2.5-1.5-3.8-2.2c4.7-0.6,9.5,0.8,14.1-1c3.1,4.3,2.3,8.8,0.2,13
			c-3.1,6.2-2.8,11.9,1.6,17.3C104.2,219.4,105.7,222,107.1,224.6z"/>
		<path class="st12" d="M91.8,207.8c0.7,1.3,1.5,2.6,2.2,3.9c-1.9,3.1,0.1,6,0.5,8.9c1,6.4,2.4,12.7,3.9,18.9
			c0.7,2.8-0.5,3.2-2.8,3.1c-4.8,0-9.6-0.1-14.5,0.1c-3.2,0.1-3.8-1.6-3.3-4c1.8-9.9,3.8-19.8,8.8-28.8
			C88,207.6,89.8,207.6,91.8,207.8z"/>
		<path class="st11" d="M74,243.7c-3,5.6-7.4,9.2-13.9,9.9c0.2-1.6,0.1-3.4,0.8-4.8c4.8-10.4,9.5-21,16.3-30.7
			c0.6,2.7,0.2,5.2-1.3,8.2c-1.4,2.7-3.4,5.2-2.8,8.7C73.5,237.8,73.7,240.8,74,243.7z"/>
		<path class="st1" d="M80.3,186.7c-1.5,0-2.9,0-4.4-0.1c-2.2-2.2-3.2-4.6-1.5-7.6l0,0c0.5-0.5,1-1,1.5-1.6c1,2.2,2.6,3.5,5.2,3.3
			c0.3,1.1,1.2,1.8,2.1,1.6c3.8-0.5,3.2,1.9,3,4.1C84.2,186.6,82.2,186.6,80.3,186.7z"/>
		<path class="st11" d="M78.2,191c1.4,3,2.1,4.8,3,6.6c0.5,1.1,1.1,2.3-0.5,2.8c-1.5,0.5-2.3-0.7-2.4-1.8
			C78,196.5,78.2,194.3,78.2,191z"/>
		<path class="st0" d="M80.3,186.7c2-0.1,3.9-0.1,5.9-0.2c4.9,0,9.9,0.1,14.8,0.1c-4.6,1.9-9.4,0.4-14.1,1
			C84.8,186.8,82.3,188.3,80.3,186.7z"/>
		<path class="st2" d="M74.2,197.4c0.1-2.4-0.9-4.9,0.8-7.2c0.5,3,1,6,1.5,9.1c-0.3,0.2-0.5,0.4-0.8,0.6c-0.3-0.1-0.5-0.2-0.8-0.2
			c0,0,0,0,0,0c-0.3-0.7-0.6-1.4-0.8-2.2L74.2,197.4z"/>
		<path class="st2" d="M77.9,204.9c-0.6-1.1-1.3-2.2-1.9-3.3c0,0,0,0.1,0,0.1c-0.1-0.6-0.2-1.2-0.3-1.8c0.3-0.2,0.5-0.4,0.8-0.6
			C77.7,201,79.8,202.5,77.9,204.9z"/>
		<path class="st12" d="M68.9,265.7c-1.5,0.2-2.3-0.7-3.2-1.8C67.2,263.8,68.8,263.3,68.9,265.7z"/>
		<path class="st2" d="M80.4,268.6c5.5,0.1,11,0.2,16.4,0.3C91.3,270.1,85.8,270.4,80.4,268.6z"/>
		<path class="st0" d="M116.9,237.5c0.7,0.4,1.3,0.9,2,1.3c0.1,0.6,0.1,1.3,0.2,1.9C117.4,240.3,117.4,238.7,116.9,237.5z"/>
		<path class="st8" d="M145.8,226.6c-0.1,0.7,1.8,1.3,0.1,2.2c-0.6,0-1.2,0.1-1.8,0.1c-0.1-0.2-0.2-0.3-0.4-0.5
			C144.5,227.8,145.1,227.2,145.8,226.6z"/>
		<path class="st0" d="M115.1,104.6c1.9-1.7,5.6-1.5,5.4-5.5c-0.1-0.9,1.6-1.3,2.8-1.3c1.3,0,3,1,3.9-0.9c1.6,0.2,2.6-0.9,3.8-1.8
			c1.4,2.3,3.8,4.6-1,6c-0.8,0.2-1.3,1.7-1.9,2.7c-1.7,1.2-3.4,2.5-5.1,3.7c-2,1.7-4.6,2.7-5.8,5.2c-0.6,0-1.2,0.1-1.9,0.1
			c-6.4,0.8-1.4-3.6-2.4-5.2l0,0c1.4,0.2,2.1-0.4,2.1-1.8C115,105.3,115,104.9,115.1,104.6z"/>
		<path class="st5" d="M128,103.7c0.6-0.9,1.1-2.4,1.9-2.7c4.8-1.4,2.4-3.7,1-6c5.4-0.2,10.3-3.2,15.8-3.3c1.3,0,3,1,4.2-0.5
			c0.4,0.1,0.7,0.3,1.1,0.4c-1,1-1.2,3.4-3.6,1.5c-1-0.8-2.1,0.4-3.2,0.5c-1.2,0.2-2.3,1-2.1,2.3c0.3,2.1,1.8,0.4,2.7,0.6
			c0.8,0.2,1.6,0.2,2.1,1c-3,0.8-6.1,1.5-9.1,2.3c-2.4,0.8-5,1.3-7.1,3C130.3,102.2,129.5,104.6,128,103.7z"/>
		<path class="st2" d="M92.9,112.6c3.4,4.6,4.3,9.8,3.6,15.4c0,0-0.3-0.2-0.3-0.2c-2.2,1.2-1,3.2-1.2,4.9l0,0c-0.7,0.3-1,0.8-1,1.5
			c0.1,0.2,0,0.4-0.1,0.6c-3.6,1.2-5.2-2.5-8-3.2l0.1,0.1c1-2.3-0.4-2.3-2-2c-0.8-0.5-1-1.2-1-2.1c1.6,0,3,1.5,4.7,0.8
			c-2.4-6.7,3.8-11.7,2.8-19.2C91.9,111.1,92.4,111.9,92.9,112.6z"/>
		<path class="st6" d="M84.3,108.8c0.5,0.1,0.9,0.3,1.4,0.4c-0.9,3.2-1.7,6.5-2.6,9.7c-0.4,2.6-2.4,4.9-0.9,7.7
			c-0.1,0.4-0.2,0.8-0.2,1.2c-0.5,0-1.1-0.1-1.6-0.1c-0.8-1.9-0.4-3.9-0.3-5.9c0,0,0,0,0,0c1.1-1.9,1.8-3.9,2.1-6c0,0,0,0.1,0,0.1
			c1-0.8,0.9-2,1-3.1c0,0,0,0.1,0,0.1C84,111.6,84.3,110.2,84.3,108.8z"/>
		<path class="st11" d="M82.2,126.5c-1.4-2.8,0.5-5.1,0.9-7.7c1.8-0.3,2.9,0.3,2.7,2.3C85.6,123.5,85.7,126.3,82.2,126.5z"/>
		<path class="st6" d="M83,127.6c0,0.8,0.2,1.6,1,2.1c0.2,1.1,0.9,1.7,2,2c0,0-0.1-0.1-0.1-0.1c-0.2,1.2-0.8,1.9-2,2.2
			c-2.6-1.5-1.9-4-2-6.2C82.3,127.7,82.7,127.6,83,127.6z"/>
		<path class="st5" d="M152.3,225.9c-1-1.8-2.4-3.5-0.1-5.3C152.9,222.3,153.2,224.1,152.3,225.9z"/>
		<path class="st5" d="M145.7,203c0.9,1,1.5,2.2,1.1,3.6c-2.8-0.6-2.6,2.6-4.3,3.4c-0.4,0-0.8,0-1.2,0c-0.1-2.8-2.4-3.9-4.2-5.4
			c-0.1-1.5-0.9-2.8-1.7-4c-4.2-6.6-9.8-12.1-14.7-18c-5.9-7-12.3-13.6-16.9-21.7c0.2-1.2-0.3-2.1-1.5-2.5c1.1-2.4,2.1-5,5.5-4.6
			c1.4,2.4,2.7,4.8,4.2,7.1c8.7,13,20.3,23.6,29.8,35.9c-0.1,1.6,1.4,2,2.1,3C144.6,200.8,145.2,201.9,145.7,203z M109,161.6
			c-0.2-1.2,0.2-2.7-1.8-2.7c-0.3,0-0.7,0.2-0.8,0.4c-0.2,1.8,1.5,1.7,2.4,2.4c-0.2,3.4,4.4,10.9,7.6,12.2c0.8,0.3,1.6,0.9,2.1-0.1
			c0.2-0.4,0-1.4-0.3-1.8C115.2,168.5,112.1,165.1,109,161.6z"/>
		<path class="st5" d="M145.9,218.8c-1.8-0.6-0.7-2-0.9-3.1c0.8,0.1,2,0,2.2,0.4C147.6,217.2,146.8,218.1,145.9,218.8z"/>
		<path class="st5" d="M144.9,215.7c-1.8-0.8-2.3-2.2-1.9-4C145.5,212.2,144.3,214.4,144.9,215.7z"/>
		<path class="st5" d="M150.3,219.2c-0.1,0.1-0.3,0.2-0.4,0.2c-0.1,0-0.2-0.2-0.3-0.3C149.8,219.2,150.1,219.2,150.3,219.2z"/>
		<path class="st5" d="M144.1,119.7c1.3-1.1,2.5-2.1,3.8-3.2c2.7,0.5,3.3-2.4,5.2-3.2c1.8,0.9,2.4-1.5,3.9-1.5
			c0.1,1.9,0.1,3.5-2.2,4.3C151.1,117.1,148.4,120.6,144.1,119.7z"/>
		<path class="st5" d="M139.1,122.8c-2.3,3.6,0.5,3.5,2.8,3.8c0,0,0.2,0.2,0.2,0.2c-0.4,0.6-0.8,1.2-1.2,1.8c-2-0.7-3.9,0.2-5.9,0.1
			c0-0.3,0-0.7,0-1c0.6-0.2,1.4-0.2,1.7-0.6c0.3-0.5-0.1-1.2-0.8-1.4c-0.2-0.2-0.4-0.3-0.6-0.4l0-0.1l0,0.2
			c-0.4-0.1-0.8-0.3-1.2-0.4c0-0.4-0.1-0.8-0.1-1.2c1.4-1.1,2.9-1.4,4.7-1.3C138.8,122.5,138.9,122.7,139.1,122.8z"/>
		<path class="st5" d="M146.9,124.8c-0.6,0.7-2.3,0.1-2.1,1.8c-0.9,0.1-1.9,0.1-2.8,0.2c0,0-0.2-0.2-0.2-0.2
			C142.9,124,143.5,120.2,146.9,124.8z"/>
		<path class="st5" d="M157.7,111.5c0-1.4,0.7-2,2-2.1C159.9,111,159.3,111.7,157.7,111.5z"/>
		<path class="st5" d="M139.3,120.5c0.5,0.2,1.1,0.3,1.6,0.5c-0.1,1.2-0.8,1.7-1.9,1.8c-0.1-0.1-0.2-0.2-0.4-0.4
			C138.9,121.8,139.1,121.1,139.3,120.5z"/>
		<path class="st5" d="M160.9,107.6c0.3-0.7-0.2-1.6,0.7-2C163.6,107.1,162.4,107.4,160.9,107.6z"/>
		<path class="st5" d="M141.9,120.5c0.3-1.3,1.2-1,2-0.8C143.7,121.1,143.4,122.2,141.9,120.5z"/>
		<path class="st5" d="M161.8,104.7c-0.9-0.5-0.1-1.2-0.2-1.8C163,103.3,162.9,103.9,161.8,104.7z"/>
		<path class="st5" d="M159.7,109.5c0.1-0.8,0-1.8,1.2-1.9C160.9,108.5,160.8,109.3,159.7,109.5z"/>
		<path class="st1" d="M93.9,134.8c0.1,0.2,0.2,0.5,0.2,0.7c-0.6,0.3-1.1,0.7-1.7,1c-2.9-0.2-3.1,1.5-2.2,3.5c1.2,2.9,1.1,5.4-0.8,8
			c-1.5,1.9-1.3,3.3,0.5,5.5c5.9,7.2,6.1,12.2,1.8,19c-0.5,0.1-0.9,0.2-1.4,0.3c-2.1-0.6-2,1.3-2.9,2.1c-2.1,1.9-4.9-0.2-7.4-0.6
			c0.4-2.5-1.9-3.7-2.5-5.7c-0.5-3.2-1.5-6.4,0.9-9.3c-0.1-1.4-0.1-2.8-0.2-4.2c0.8,0.3,1.8,0.3,2.1,1.3c0.1,2-1.5,4.4,1.2,5.8
			c1.4,0.7,2.9,0.8,4.3-0.1c1.3-0.8,1.4-2.1,0.9-3.5c-0.8-2.5-2.6-3.2-5-3c1.1-1.5,2.2-3.1,2.4-5.1c2.4-1.8,2-4.2,1.4-6.6
			c-0.7-2.6-1.6-5.3-1-8.1c-0.1-0.7-0.2-1.4-0.4-2.1c1.2-0.3,1.8-1.1,2-2.2C88.7,132.4,90.4,136.1,93.9,134.8z"/>
		<path class="st11" d="M81.6,155.7c2.4-0.2,4.2,0.5,5,3c0.5,1.5,0.3,2.7-0.9,3.5c-1.3,0.9-2.9,0.8-4.3,0.1
			c-2.6-1.4-1.1-3.8-1.2-5.8C80.6,156.3,81.1,156,81.6,155.7z"/>
		<path class="st6" d="M84.3,136c-0.6,2.8,0.3,5.4,1,8.1c0.6,2.4,1,4.8-1.4,6.6c-0.1-3.1,0.1-6.2-0.9-9.3
			C82.6,139.6,82.1,137.4,84.3,136z"/>
		<path class="st8" d="M75.9,158.1c-0.1-0.2-0.2-0.4-0.5-0.4c0.2-1,0.4-2,0.6-3l0,0.1c0.7,0.6,1.4,0,2-0.2c0,0.2-0.1,0.4-0.1,0.6
			c0.1,1.4,0.1,2.8,0.2,4.2C77.9,158.3,76.8,158.4,75.9,158.1z"/>
		<path class="st6" d="M78.1,154.6c-0.7,0.2-1.3,0.7-2,0.2c1.1-2,0-3-1.7-3.6c0.9-0.2,1.7-0.5,2.6-0.7
			C78.4,151.6,77.9,153.2,78.1,154.6z"/>
		<path class="st13" d="M74.9,166.7c-1.4-1.7-1.5-3.3,0-5c0,0,0.1,0.1,0.1,0.1C75.1,163.4,75,165,74.9,166.7L74.9,166.7z"/>
		<path class="st13" d="M74.1,197.5c0.3,0.7,0.6,1.4,0.8,2.2C74,199.2,74,198.4,74.1,197.5z"/>
		<path class="st13" d="M75.7,199.9c0.1,0.6,0.2,1.2,0.3,1.8c-0.9-0.4-1.1-1.2-1.1-2C75.2,199.7,75.5,199.8,75.7,199.9z"/>
		<path class="st2" d="M78.7,175.6c0.4-0.4,0.8-0.8,1.2-1.2c2.5,0.4,5.4,2.5,7.4,0.6c0.9-0.8,0.8-2.7,2.9-2.1
			c2.2,1.1,4.4,1.2,6.6-0.1c0,0,0.2-0.1,0.2-0.1c2.6-0.7,0.4,3.7,3.1,2.9c5.1,2.2,5.9,5.9,4,10.7c-0.4,1-0.3,2.3-0.1,3.4
			c0.6,4.5,0,8.8-2.1,12.9c-1.3,2.2-1.2,4.4-0.1,6.7c-0.2,0.2-0.1,0.4,0.1,0.6c0.1,1.1,0,2.2,1,3l0,0c-0.1,1.4,1,2.8-0.1,4.2
			c-4.4-5.4-4.6-11.1-1.6-17.3c2.1-4.2,2.9-8.7-0.2-13c-4.9,0-9.9-0.1-14.8-0.1c0.2-2.2,0.8-4.7-3-4.1c-0.9,0.1-1.9-0.5-2.1-1.6
			c0.5-0.1,1-0.3,1.6-0.4c3.3,1.2,4.5-0.9,5.9-3.7c-2.3,0.2-4.1,0.3-5.9,0.4C81.3,176.5,80,176.1,78.7,175.6z M89.9,182
			c3.8,1.1,7.4,0.3,10.9-1C97.2,181.1,93.4,180.1,89.9,182z"/>
		<path class="st9" d="M82.6,180.3c-0.5,0.1-1,0.3-1.6,0.4c-2.6,0.3-4.2-1-5.2-3.3c0-0.3,0.1-0.5,0.1-0.8c0.9-0.4,1.8-0.8,2.7-1.1
			c1.3,0.5,2.6,0.9,3.9,1.4C82.6,178.1,82.6,179.2,82.6,180.3z"/>
		<path class="st9" d="M74.4,179C74.4,179,74.4,179,74.4,179C74.4,179,74.4,179,74.4,179z"/>
		<path class="st5" d="M106,113.8c1.6-1.5,3.4-2.8,4-5.1c0.9-0.4,1.9-0.8,2.8-1.2c1,1.7-4,6,2.4,5.2c0,0.7-0.1,1.3-0.1,2
			c-0.9,0.4-1.5,1-2.1,1.9c-4,5.5-6.1,12-8.9,18.1c-2.5-3.2-0.3-5.9,1.1-8.6c1.8-3.6,3.9-7,6.2-11.3c-2.4,0.5-3.8,0.7-5.2,1
			l-0.3-0.3c0.1-0.3,0-0.6-0.1-0.9C105.9,114.4,106,114.1,106,113.8z"/>
		<path class="st5" d="M112.8,107.5c0.1-1.3,0.9-1.8,2.1-1.8C114.9,107.1,114.2,107.7,112.8,107.5z"/>
		<path class="st6" d="M96.2,127.8c-0.1,1.7,0.9,3.7-1.2,4.9C95.2,131,94,129,96.2,127.8z"/>
		<path class="st11" d="M86,131.7c-1-0.3-1.8-0.9-2-2C85.6,129.5,87,129.5,86,131.7z"/>
		<path class="st6" d="M95,132.7c0.2,0.8-0.4,1.2-1,1.5C94.1,133.5,94.3,133,95,132.7z"/>
		<path class="st2" d="M91.6,172.6c4.3-6.8,4.1-11.8-1.8-19c-1.8-2.2-2-3.6-0.5-5.5c1.9-2.5,2-5.1,0.8-8c-0.8-2-0.6-3.7,2.2-3.5
			c0.6-0.1,1.2-0.1,1.8-0.2c0,0-0.2,0.2-0.2,0.2c0.3,0.5,0.7,1,1,1.5c0,0,0,0,0,0c0,0.7,0,1.4,0,2.1c0,0,0,0.1,0,0.1
			c-3.2,4.2-3,9.8,0.4,13.4c0.9,0.2,1.7,0.4,2.6,0.5c0.1,1.2-2.4,1.8-0.6,3.6c3.8,3.8,2.9,8.4,1.4,12.9c-0.6,0.7-1.2,1.3-1.9,2
			c0,0-0.2,0.1-0.2,0.1C95.1,172.7,93.4,172.6,91.6,172.6z"/>
		<path class="st5" d="M102,119.7c0.6-0.1,1.1-0.1,1.7-0.2c0,0,0.3,0.3,0.3,0.3c-0.4,3.9-1.8,7.6-2.9,11.4
			c-1.3,4.6-3.7,9.4-1.4,14.5c0.4,0.9-0.2,2.8,1.5,2.5c1.8-0.3,0.9-1.9,1-3.2c0.1-2.8-2.3-6.2,1.6-8.3c0.2,2.7-0.8,5.6,1,8.1
			c0,0.4,0.1,0.8,0.1,1.1c-2.2,2-2.2,5.9-5.8,6.8c-3.6-10.2-1.7-20.1,1.8-29.9c0,0,0,0,0,0C102.4,122.1,101.7,120.7,102,119.7z"/>
		<path class="st1" d="M99.3,152.7c3.6-0.8,3.5-4.8,5.8-6.8c1,0.6,1.5,2.1,3,1.7c0,0,0,0,0,0c0,0.6,0,1.3-0.1,1.9
			c-3.3,2.1-6.9,4-8.1,8.2c0.1,0.6,0.2,1.2,1.1,1l-0.1,0c1.1,3.8,0.6,7.5,0.1,11.3c-0.1,0.3-0.3,0.6-0.6,0.7c-0.5-0.1-1-0.1-1.5-0.2
			c1.5-4.5,2.4-9.1-1.4-12.9c-1.8-1.8,0.7-2.4,0.6-3.6C98.5,153.7,98.9,153.2,99.3,152.7z"/>
		<path class="st6" d="M95.5,153.6c-3.5-3.6-3.7-9.2-0.4-13.4C94.1,144.8,94.2,149.2,95.5,153.6z"/>
		<path class="st6" d="M95,140.2c0-0.7,0-1.4,0-2.1C95.9,138.8,95.8,139.5,95,140.2z"/>
		<path class="st6" d="M95,138.1c-0.3-0.5-0.7-1-1-1.5C95.1,136.6,95.2,137.3,95,138.1z"/>
		<path class="st6" d="M94.2,136.4c-0.6,0.1-1.2,0.1-1.8,0.2c0.6-0.3,1.1-0.7,1.7-1C94.4,135.8,94.4,136.1,94.2,136.4z"/>
		<path class="st5" d="M103.7,119.5c0-1.4,0.4-2.6,1.2-3.8c0.3-0.1,0.6-0.1,0.9-0.2c0,0,0.3,0.3,0.3,0.3c-0.3,1.5,0.4,3.5-2.1,3.9
			L103.7,119.5z"/>
		<path class="st13" d="M105.8,115.5c-0.3,0-0.6,0.1-0.9,0.2c0.3-0.4,0.5-0.7,0.8-1.1C105.9,114.9,105.9,115.2,105.8,115.5z"/>
		<path class="st0" d="M109,161.6c3.1,3.5,6.2,6.9,9.2,10.4c0.3,0.4,0.5,1.3,0.3,1.8c-0.5,1-1.4,0.4-2.1,0.1
			c-3.1-1.3-7.8-8.8-7.6-12.2L109,161.6z"/>
		<path class="st2" d="M110.1,151.9c-0.7,0.6-1.5,1.2-2.2,1.8c-3.4-0.4-4.5,2.1-5.5,4.6c-0.5,0.1-1,0.3-1.4,0.4c0,0,0.1,0,0.1,0
			c-0.4-0.3-0.7-0.7-1.1-1c1.2-4.2,4.7-6.1,8.1-8.2C109,150,109.6,150.9,110.1,151.9z"/>
		<path class="st6" d="M100.9,158.7c0.5-0.1,1-0.3,1.4-0.4c1.2,0.4,1.7,1.2,1.5,2.5c-1.9,2.8,0.6,6.9-2.9,9.2
			C101.5,166.3,102,162.5,100.9,158.7z"/>
		<path class="st0" d="M108.9,161.7c-0.9-0.8-2.6-0.7-2.4-2.4c0-0.2,0.5-0.4,0.8-0.4c2,0,1.6,1.6,1.8,2.7
			C109,161.6,108.9,161.7,108.9,161.7z"/>
		<path class="st10" d="M135.1,127.7c0,0.3,0,0.7,0,1c-0.1,0.8-0.1,1.6-0.2,2.4c-4.2,1.2-8,3.1-10.4,6.9c-0.9,1.4-1.8,2-3.3,2.6
			c-3.7,1.6-8.4,1.6-10.5,6.1c-0.5,1.1-1.8,0.5-2.6,0.9c0,0,0,0,0,0c-0.1-1-0.2-1.9-0.3-2.9c5.7-5.5,12.9-9.2,18.1-15.2
			c2.3,2.5,4.1,1.7,6.2-3l0.4,0c0,0,0.4,0,0.4,0C133.2,127.7,134.1,127.8,135.1,127.7z"/>
		<path class="st1" d="M135.1,127.7c-1,0.1-1.8-0.1-2.2-1.1c0,0,0.2,0,0.2,0c1,0,2.3,0.6,2.9-0.9c0.8,0.2,1.1,0.9,0.8,1.4
			C136.5,127.5,135.6,127.5,135.1,127.7z"/>
		<path class="st11" d="M135.9,125.7c-0.6,1.5-1.8,0.9-2.9,0.9c0.4-0.6,0.7-1.1,1.1-1.7c0.4,0.1,0.8,0.3,1.2,0.4c0,0,0,0,0,0
			C135.6,125.4,135.8,125.5,135.9,125.7z"/>
		<polygon class="st13" points="135.3,125.3 135.3,125.3 135.4,125.2 		"/>
		<path class="st6" d="M75,166.6c0-1.6,0-3.2,0.1-4.9c1.2-1,0.4-2.4,0.8-3.6c0.9,0.2,1.9,0.1,2.3,1.3c-2.3,2.9-1.3,6.1-0.8,9.2
			C75.6,169.1,76,167.1,75,166.6z"/>
		<path class="st6" d="M91.6,172.6c1.7,0,3.5,0.1,5.2,0.2c-2.2,1.3-4.4,1.2-6.6,0.1C90.7,172.8,91.2,172.7,91.6,172.6z"/>
		<path class="st1" d="M74.4,151.2c1.7,0.7,2.8,1.7,1.7,3.6c0,0,0-0.1,0-0.1c-0.9,0.7-1.8,1.4-2.6,2c-1.9-0.3-1.3-2.1-1.9-3.2
			c0.8-0.5,1.5-1.1,1.3-2.2C73.4,151.3,73.9,151.2,74.4,151.2z"/>
		<path class="st6" d="M73.4,156.7c0.9-0.7,1.8-1.4,2.6-2c-0.2,1-0.4,2-0.6,3C74.4,158.1,73.8,157.7,73.4,156.7z"/>
		<path class="st8" d="M72.9,151.4c0.2,1.1-0.5,1.7-1.3,2.2C70.5,152,71.3,151.5,72.9,151.4z"/>
		<path class="st5" d="M89.9,182c3.5-1.9,7.2-0.9,10.9-1C97.3,182.3,93.7,183,89.9,182z"/>
		<path class="st1" d="M82.6,180.3c0-1.1,0-2.2,0-3.3c1.8-0.1,3.5-0.2,5.9-0.4C87.1,179.5,85.9,181.5,82.6,180.3z"/>
		<path class="st6" d="M98.9,170.6c0.5,0.1,1,0.1,1.5,0.2c-0.8,1.5-0.5,3.1-0.3,4.7c-2.7,0.8-0.5-3.6-3.1-2.9
			C97.7,171.9,98.3,171.3,98.9,170.6z"/>
		<path class="st0" d="M104,134.7c0.1,0.3,0.1,0.6,0,0.9c0,0.4-0.1,0.7-0.1,1.1c0,0,0,0,0,0c-3.9,2.1-1.5,5.5-1.6,8.3
			c-0.1,1.3,0.8,2.9-1,3.2c-1.7,0.3-1.1-1.6-1.5-2.5c-2.3-5.1,0.1-9.8,1.4-14.5c1-3.8,2.5-7.4,2.9-11.4c2.4-0.4,1.7-2.4,2.1-3.9
			c1.4-0.3,2.8-0.5,5.2-1c-2.4,4.2-4.4,7.7-6.2,11.3C103.7,128.8,101.6,131.5,104,134.7z"/>
		<path class="st6" d="M104.9,144.8c0.9,0,1.9,0,2.8,0c0.1,1,0.2,1.9,0.3,2.9c-1.5,0.3-2-1.1-3-1.7
			C105,145.5,104.9,145.2,104.9,144.8z"/>
		<path class="st6" d="M134.8,131.1c0,0.5,0,0.9-0.1,1.4c0,0,0.1,0.1,0.1,0.1c-1.6,0.4-2.1,1.7-2.5,3c-3.9-0.3-4.7,3.7-7.2,5.3
			c-3.3,2.1-6,4.9-9.8,6.2c-2.3,0.8-4,2.7-5.3,4.8c-0.5-1-1.1-1.9-2.2-2.4c0-0.6,0-1.3,0.1-1.9c0.8-0.4,2.1,0.2,2.6-0.9
			c2.1-4.5,6.8-4.5,10.5-6.1c1.4-0.6,2.4-1.2,3.3-2.6C126.8,134.2,130.6,132.3,134.8,131.1z"/>
		<path class="st6" d="M99.9,157.7c0.4,0.3,0.7,0.7,1.1,1C100.1,158.9,99.9,158.4,99.9,157.7z"/>
		<path class="st13" d="M132.4,135.6c0.4-1.3,0.9-2.7,2.5-3C135,134.3,134.1,135.3,132.4,135.6z"/>
		<path class="st7" d="M125.9,129.5c1.7-1,3-2.3,4.1-3.9c0.7,0.3,1.4,0.6,2.1,0.9C130,131.2,128.2,132.1,125.9,129.5z"/>
		<path class="st5" d="M103.9,136.6c0-0.4,0.1-0.7,0.1-1.1C104.7,136,104.8,136.3,103.9,136.6z"/>
	</g>
</g>
</svg>
