<?xml version="1.0" encoding="utf-8"?>
<!-- Generator: Adobe Illustrator 23.0.1, SVG Export Plug-In . SVG Version: 6.00 Build 0)  -->
<svg version="1.1" id="Layer_1" xmlns="http://www.w3.org/2000/svg" xmlns:xlink="http://www.w3.org/1999/xlink" x="0px" y="0px"
	 viewBox="0 0 300 300" style="enable-background:new 0 0 300 300;" xml:space="preserve">
<style type="text/css">
	.st0{fill:#EEA321;}
	.st1{fill:#2A1A44;}
	.st2{fill:#5FBCE9;}
	.st3{fill:#FFEDBD;}
</style>
<g id="fcsopO_1_">
	<g>
		<path class="st0" d="M123.4,97.8c10.2-12.2,23.3-19.3,39-21.8c9.6-1.5,19.1-1,28.4,2.1c-9.9,1.7-22.4,8.5-22.8,12.4
			c10.8-5.5,22.1-8.2,34.7-7.3c-3.1,2.4-6.2,4-8,7.1c4.2-1.9,8.2-3.9,12.7-4.8c5.4,3.9,10.6,8,15,13.8c-9.9,1-19.4,1.9-28.8,2.9
			c0,0.2,0,0.3-0.1,0.5c11,1.1,22,2.2,33,3.3c0,0.3,0,0.5,0,0.8c-6.9,1.1-13.9,1.5-20.9,2.4c5,0.5,9.9,1.7,15,1.7
			c2.5,0,4.9,0.8,7.4,0.8c2,0,3,1.5,3.7,3.1c2.6,5.8,4,12,4.8,18.3c0.3,1.9-0.5,2.3-2.3,2.5c-12.5,1.2-25.1,2.5-37.6,4.1
			c5.7,0.6,11.4,1.2,17.1,1.8c6.9,0.7,13.8,1.4,20.8,1.9c1.8,0.1,2.2,0.9,2,2.5c-0.8,9.1-3.6,17.5-7.9,25.5
			c-0.7,1.3-1.8,1.1-2.8,1.2c-9.3,1-18.7,1.9-28,2.8c-2,0.2-4,0.4-6,0.9c9.9,2,20.1,1.9,30.3,3.5c-2.8,4.7-6.7,7.9-10.3,11.3
			c-1,0-2,0.1-3,0.1c-7.2,0.1-14.4-0.9-21.6-0.5c-0.3-0.1-0.6,0-0.9-0.2c-9.5-5.1-19.1-5.4-28.7-0.5c-1.3,0.7-2,0.2-2.9-0.6
			c-3-2.5-6.3-4.4-9.7-6c-8.2-3.9-17-5.1-25.8-6.3c-2.5-4.9-5.4-9.7-7.6-14.8c1.1-9.6,3.9-18.8,8.4-27.9c0.7,2.8,0.5,6,3.5,6.3
			c3.1,0.3,3.1-2.8,4-4.9c0.1,0.1,0.2,0.3,0.4,0.4c1.9,1.5,2.3,3.3,1.6,5.7c-0.3,1,0.1,2.8,2.4,0.9c-3.1,4.4-1.7,9.4-4,13.4
			c8.9-5.2,12.3-11.5,8.3-22c1.8,1.1,1.8,1.1,3.5-1.5c0,1.2-0.7,2.4,0,4c0.4-1,0.5-1.8,1.3-2.2c-0.7,4-0.3,4.8,2.9,7.5
			c0.5-0.9,0.3-2.1,1.6-2.9c-1.6,7.4,4.2,12.8,4.3,19.7c2.2-4,4.1-7.8,4.7-12.3c0.9-7-1.1-12.9-6.2-17.9c-2.5-2.4-5.4-4.2-7.9-6.5
			c0.1-0.1,0.1-0.2,0.2-0.2c1.3,0,2.6,0.2,3.9-0.1c1-0.2,2.7-0.4,3.3,0.2c1.3,1.1,2.9,1.5,4.4,1.4c0.8,0-0.9-1.3,0.2-1.8
			c3.4,4.7,9.4,5.8,13.4,10.7c-0.3-1.7-0.3-2.5-0.5-3.3c-2.3-10.2-7.9-17.4-19.5-17.4c-3,0-6.1,0-9,0.5c-2.3,0.4-5.3,1.9-6.6,0.9
			c-1.5-1.1-1.6-4.3-2.3-6.6c12.9-1.2,25.8-2.4,38.7-3.6c0-0.2,0-0.4,0-0.6c-14.3-1.4-28.7-2.7-43-4.1
			C123.4,98,123.3,97.9,123.4,97.8z"/>
		<path class="st1" d="M140.4,122.2c2.6,2.3,5.5,4.1,7.9,6.5c5.1,4.9,7,10.9,6.2,17.9c-0.6,4.4-2.4,8.3-4.7,12.3
			c-0.1-6.9-5.9-12.3-4.3-19.7c-1.2,0.8-1.1,2-1.6,2.9c-3.2-2.7-3.6-3.5-2.9-7.5c-0.8,0.5-1,1.2-1.3,2.2c-0.7-1.6,0-2.8,0-4
			c-1.8,2.6-1.8,2.6-3.5,1.5c3.9,10.5,0.6,16.7-8.3,22c2.3-4,0.9-8.9,4-13.4c-2.3,1.9-2.7,0.1-2.4-0.9c0.7-2.4,0.3-4.2-1.6-5.7
			c-0.1-0.1-0.2-0.3-0.4-0.4c-0.9,2.1-0.9,5.3-4,4.9c-3-0.3-2.8-3.4-3.5-6.3c-4.5,9.1-7.3,18.3-8.4,27.9c-0.3,1.5-0.7,2.9-3.1,1.9
			c2.2,1,2.6,2.3,2.1,4.3c-0.4,1.7-0.3,3.6-0.6,5.4c-0.1,0.6-2.2,0-1.2,1.2c0.7,0.8,1.2,2.4,3.1,2.1c2.4-0.3,4.8-0.1,7.2-0.1
			c8.8,1.2,17.6,2.4,25.8,6.3c3.5,1.6,6.8,3.5,9.7,6c0.9,0.7,1.6,1.2,2.9,0.6c9.6-4.9,19.2-4.6,28.7,0.5c0.3,0.1,0.6,0.1,0.9,0.2
			c2.8,2.3,6,4.2,7.9,7.7c-44.3,0-88.3,0-132.5,0c0.4-0.7,0.7-1.2,1-1.7c6.2-7.1,13.9-11.9,22.7-15c1.4-0.5,2-1.1,1.8-2.6
			c-0.1-1,0-2-0.2-3c-0.3-2.7-0.6-5.4,2.8-6.9c-1.5-0.7-2.2,0.7-3.4,0.5c0.4-2.8-2.6-5.8,1.2-9c-2.1,0.6-3.1,0.2-3-1.7
			c0.1-2.3-2.2-4.3-0.6-6.9c0.5-0.9-1.6,0.1-1.7-1.2c-0.2-2.1-1.1-4.2-1.7-6.2c-0.5-1.9-2-3.8-2.8-5.7c-0.4-0.9-1.5-1.8-0.2-2.9
			c0.1-0.1,0.2-0.4,0.2-0.4c-5.1-2.5-5-9-9.3-12.3c-0.6,2.6-0.3,6-3.7,6.4c-3.3,0.4-4.3-3-5.7-6.2c-0.6,2.9-0.7,5.2-2.7,6.6
			c-0.7,0.5,0,1.1,0.4,1.5c1.2,1.4,0.6,3.1,0.5,4.7c-0.1,1.7-1.1-0.2-1.8,0.5c3.4,4.7,2.6,11.1,6.5,16.1
			c-12-3.4-16.7-12.5-14.8-27.9c-0.9,0.8-1.5,1.4-2.3,2.1c-0.7-1.2-1.5-2.4-2.5-4c0,2.4,1.3,4,1,5.9c-1-0.1-0.9-1.1-1.4-1.6
			c-0.3-0.2-0.5-0.5-0.8-0.7c-0.4,0.5-0.1,0.9,0.2,1.3c0.6,3.9,0.6,3.9-3,9.1c-1.1-1.3-1.2-3.1-2.9-4.6c0.3,1.4,0.5,2.3,0.7,3.3
			c0.7,2.7,0.7,5.4-0.3,8c-1.9,5.2-2.6,10.5-2.5,16c-5.2-3.1-10.7-17.9-9.4-26.4c1.5-10.4,8.9-17,16.6-23.8c-2.6-0.1-4.7,0.8-7,1.1
			c0-0.9,0-1.7,0-3.3c-0.9,1.6-1.4,2.6-2.1,4.1c-0.2-1-0.3-1.6-0.5-2.9c-1,4.1-4.2,4.2-6.9,5.4c-0.4-1.7,1-3.1,0.2-4.9
			c-2.4,8.8-12.3,10.5-16.2,18.3c-2.1-16,8.8-29.1,24.5-30.6c5.7-0.5,11.3-0.5,16.9,0.1c2.1,0.2,3,0.1,3.1-2.4
			c0.3-4.2,1.3-8.3,2.7-12.4C60.2,70.1,69,65.5,81.8,69c-5.1,1.5-7.9,5.5-12.1,7.5c-0.5,0.2-1,0.4-0.6,1c0.8,1.1-0.3,1.6-0.7,2.3
			c-1,1.8-3.1,2.2-3.8,3.8c2.7,1.9-1.3,3.5-1,5.4c-0.2,0.2-0.4,0.4-0.5,0.5c-0.8,0.2-1.5,0.4-2.3,0.6c0.9,0.1,2,0.9,2.7-0.3
			c0.2-0.2,0.5-0.3,0.7-0.5c4.3-2.5,8.5-5.3,13.3-7c7.6-2.8,14.6-1.7,21.3,2.7c1.3,0.8,2.6,1.7,3.6,2.8c3.4,4,6.8,7,12.8,5.9
			c3-0.6,5.9,1.7,8.1,4c0,0.2,0,0.3,0.2,0.3c1.7,2.6,3.1,5.4,4.3,8.3c0.7,2.3,0.7,5.5,2.3,6.6c1.3,0.9,4.3-0.5,6.6-0.9
			c3-0.6,6-0.6,9-0.5c11.6,0,17.2,7.2,19.5,17.4c0.2,0.8,0.3,1.6,0.5,3.3c-4-4.9-10-6-13.4-10.7c-1.1,0.5,0.6,1.8-0.2,1.8
			c-1.5,0-3.2-0.3-4.4-1.4c-0.7-0.6-2.3-0.4-3.3-0.2c-1.2,0.3-2.6,0.1-3.9,0.1c-0.1-0.1-0.3-0.1-0.4-0.2
			C140.2,121.9,140.3,122,140.4,122.2z M118,123.7l0,0.2L118,123.7c0,1.5,0.5,3.2-0.7,4.5c-1.4,1-2.9,2-4.5,3.1
			c-0.2-0.9-0.4-1.7-1.2-2.4c0.1,1.1,0.2,2,0.3,3c-0.9,0-0.9-1.1-1.9-1.5c1.5,3.3-1.3,4.6-2.3,6.6c-0.6,0-1.3-2.4-1.6-0.2
			c-0.8,5.1-4.7,9.1-4.9,14.9c-2.7-3.9-2.9-8.1-5-11.6c-1.9-3.1-2.9-6.8-5.2-9.8c-2.6-3.3-3.8-6.9-3.3-11.2c-1.8,1.3-0.6,3.5-1.6,5
			c-4.5-3.6-4.5-3.6-5-8.9l0.2,0.1l-0.1-0.1c-1,0.8,0,2.6-1.6,3.4c-0.1-1.7-0.2-3.1-0.3-4.5c-0.1,0-0.2,0-0.3,0
			c-0.3,1.1-0.6,2.3-0.9,3.4c-7.4-3.9-7.4-3.9-7.9-9.1c-1.4,0.8,0.4,4.1-2.8,3.5c4.7,5.4,9.5,10.5,13.4,16.6
			c2.7,4.3,5.1,8.9,8.2,12.9c0.7,0.9-0.4,1.7,0.9,2.8c1.8,1.4,2.4,4.3,3.4,6.6c0.3,0.7-0.5,1.2-1.3,1.3l0.1,0.1l0-0.1
			c1.4,0.1,2.5,0.5,2.7,2.1c0.3,1.9,2.6,3.5,1,5.8c2.8,1,2.2,3.9,3.1,5.9c0.8,1.9,1.2,4.1,1.9,6.7c1.7-6.3,1.7-6.3,4.9-5.5
			c-3.8-1.6-2.6-4.3-1.6-6.8c0.3-0.9-0.3-2.8,1.9-2.3c0.4,0.2,0.9,0.3,1.3,0.5c-0.3-0.4-0.5-0.8-1-0.8c-0.9-1-0.7-2-0.4-3.2
			c0.6-2.4,2.5-4.4,2.7-7c3.4-6.6,6.6-13.4,11.2-19.3c1.2-1.3,2.4-2.6,3.7-3.9C121.1,124.9,119.3,127.9,118,123.7z M112,116.6
			c-0.5-0.4-1-0.6-1.3-1.1c-1.1-1.6-1.1-1.6-2.7-0.8c-1.7,0.9-3.5,0.4-5-0.5c-0.5-0.3-0.8-0.8-1.3-0.4c-1.5,1.1-3.4,0.8-5.5,1.3
			c2.7,4.4,3.4,9,3.3,14.8c3.3-4.8,7.3-7.5,11.4-10c1.5-0.8,3.2-1.2,4.6-2.6C114.1,117,113,116.8,112,116.6z M87.2,91.6
			c-0.6-0.5-1.2-1-1.7-1.5c-0.1,0.1-0.2,0.2-0.3,0.3c0.5,0.5,1,1.1,1.5,1.6c0.4,0.8,1.5,1,1.6,2.1c-3.7,1.1-7.4,1.5-11.5,0.9
			c0.8,0.4,1.5,0.8,2.7,1.5c-2.9,1.3-5,2.2-7.6,3.4c7.4,2.5,14.1,5.1,19.6,9.8c1.3,1.1,1.7-0.2,2.4-0.7c3.6-3.1,7.7-5.1,12.6-4.8
			c3.9,0.2,7.5,1.5,11,3.1c0.7,0.3,1.4,1.1,2.2,0.4c0.6-0.5,0-1.3-0.1-1.9c0-3.2-3-4.7-4.7-6c-3.8-3-8.3-5.4-13.6-6
			C96.6,93.4,91.6,94.5,87.2,91.6z"/>
		<path class="st2" d="M63.4,196.6c-0.3,0.5-0.6,1-1,1.7c44.2,0,88.2,0,132.5,0c-1.9-3.5-5.1-5.4-7.9-7.7c7.2-0.4,14.4,0.7,21.6,0.5
			c1,0,2-0.1,3-0.1c9.7,0.8,19.5,1.7,29.2,2.5c10.5,0.9,20.8,2.6,31.2,3.9c5,0.7,10,1.4,15,2.1c1.1,0.2,2.2,0.3,3.3,1.2
			c-1.6,0.9-3.1,1-4.6,1.1c-8.2,0.4-16.3,1-24.5,1.2c-15,0.4-30.1,1.1-45.1,2c-2.3,0.1-4.6,0.3-7,1.3c2.1,0.9,3.9,1,5.8,1
			c10.6,0.2,21.2-0.1,31.8,1.2c1.9,0.2,3.8,0.5,5.4,1.7c-16.6,2.1-33.3,1.2-49.9,3c8.3,1.9,17,0.6,25.8,2.2c-1.6,2-3.5,1.9-5,2.1
			c-9.3,0.7-18.7,1.3-28.1,2c-4.8,0.4-9.6,0.4-14.3,2c11.5,2.5,23.4,0.8,34.9,3.3c-12.7,3.7-26.1,2.9-39,5.9
			c6.5,1.7,13.3,0.9,20.6,2.4c-3.8,1.8-7.1,1.7-10.3,2c-4.3,0.4-8.7,0.5-13,0.7c-2.4,0.1-4.6,1-6.4,2.5c-5.3,4.4-11.3,3.5-17.3,2.4
			c-1-0.2-2-0.7-2.5-1.6c-2.2-4.9-6.8-5.1-11.2-5.7c-3.3-0.5-6.8-0.3-10.1-2.2c2-1.6,4.2-1.4,6.7-2.5c-11.5-1.5-22.6-1-33.5-2.7
			c0-0.3-0.1-0.7-0.1-1c11-1.3,22.1-2.6,33.1-3.8c-12.2-1.9-24.6-0.2-36.8-2.2c6.4-2.8,13.7-1.2,20.2-3.8
			c-5.5-2.1-11.2-1.8-16.8-2.3c-5.6-0.6-11.2-0.6-16.7-2.4c9.6-2.6,19.7-0.9,29.2-3.6c-25.6-4.4-51.6-2.5-77.2-6.1
			C44,198,53.8,197.8,63.4,196.6z"/>
		<path class="st1" d="M207.4,85.6c-4.5,0.9-8.5,2.9-12.7,4.8c1.7-3.1,4.9-4.7,8-7.1c-12.6-0.9-23.9,1.8-34.7,7.3
			c0.4-4,12.9-10.7,22.8-12.4c6.8-0.7,13.4-0.6,20.1,1.2c2.6,0.7,5.3-1,7.9-1.2c13.5-1.4,25.6,1.4,35.8,10.9
			c0.4,0.4,0.8,0.8,1.1,1.5c-10.9-5.7-22.4-8.1-35.2-7.3c3.2,2.4,6.3,4.3,9,7.7c-5.3-2.6-9.9-4.6-14.8-5.9
			C212,84.2,209.7,84.4,207.4,85.6z"/>
		<path class="st1" d="M142.9,71.1c1.2-2.1,3.6-3,5.3-4.7c-5.3-1.5-12.7,0-27.2,5.4c6.9-7,14.8-10.3,23.9-9.8
			c7.2,0.4,14.3,0.5,21.5,0c7.1-0.5,13.7,1.8,19.5,6c1.1,0.8,2.3,1.6,3.4,3.6c-8.6-4.2-17.1-6.1-26.5-5.5c1.9,2.1,4.4,3,5.6,5.1
			c-0.1,0.1-0.2,0.2-0.3,0.3c-8.3-5.2-16.6-5-25-0.1C143.1,71.2,143,71.1,142.9,71.1z"/>
		<path class="st1" d="M243.8,62.3c-6.3-2.7-12.3-4.3-18.9-3.8c0.3,1.4,2.1,1.4,2.3,3.6c-5.7-3.8-11.2-2.8-16.7-0.2
			c0-0.3,0-0.6-0.1-0.8c0.9-0.7,1.8-1.4,3.2-2.5c-7.1-0.9-13.3,1.3-19.5,3.3c6.6-6,14.4-7.9,23-6c1.8,0.4,3.4,0,5-0.3
			c6.9-1.2,13.2,0,19.1,3.9c0.7,0.4,1.3,1,1.9,1.5C243.2,61.2,243.3,61.5,243.8,62.3z"/>
		<path class="st1" d="M143.1,71.3c-0.2,0.3-0.5,0.5-0.7,0.2c-0.2-0.3,0.2-0.4,0.4-0.5C143,71.1,143.1,71.2,143.1,71.3z"/>
		<path class="st1" d="M168.4,71.1c0.3,0.1,0.6,0.1,0.4,0.5c0,0-0.4-0.1-0.7-0.2C168.2,71.2,168.3,71.2,168.4,71.1z"/>
		<path class="st0" d="M108.3,147.5c-1-3.5-0.3-7-0.6-10.5c1-2,3.8-3.3,2.3-6.6c1.1,0.4,1,1.5,1.9,1.5c-0.1-1-0.2-1.9-0.3-3
			c0.8,0.7,1,1.5,1.2,2.4c1.6-1.1,3.1-2.1,4.5-3.1c0.7,0,1.4,0,2.2,0C114.9,134.1,111.7,140.9,108.3,147.5z"/>
		<path class="st3" d="M119.5,128.2c-0.7,0-1.4,0-2.2,0c1.2-1.3,0.7-2.9,0.7-4.4l-0.1,0c1.3,4.3,3.2,1.2,5.2,0.6
			C121.9,125.6,120.7,126.9,119.5,128.2z"/>
		<path class="st0" d="M110.8,120c0.4-1.1,0.8-2.3,1.1-3.4c1,0.2,2.1,0.4,3.4,0.7C114,118.8,112.3,119.2,110.8,120z"/>
		<path class="st3" d="M118.1,123.7l-0.1,0.1C118,123.8,118,123.7,118.1,123.7C118,123.7,118.1,123.7,118.1,123.7z"/>
		<path class="st0" d="M140.4,122.2c-0.1-0.1-0.1-0.3-0.2-0.4c0.1,0.1,0.3,0.1,0.4,0.2C140.5,122,140.4,122.1,140.4,122.2z"/>
		<polygon class="st3" points="91.8,152.1 91.8,152.2 91.8,152.1 		"/>
	</g>
</g>
</svg>
