<?xml version="1.0" encoding="utf-8"?>
<!-- Generator: Adobe Illustrator 23.0.1, SVG Export Plug-In . SVG Version: 6.00 Build 0)  -->
<svg version="1.1" id="Layer_1" xmlns="http://www.w3.org/2000/svg" xmlns:xlink="http://www.w3.org/1999/xlink" x="0px" y="0px"
	 viewBox="0 0 177.7 185.9" style="enable-background:new 0 0 177.7 185.9;" xml:space="preserve">
<style type="text/css">
	.st0{fill:#674C27;}
	.st1{fill:#32AB93;}
	.st2{fill:#EBE9E6;}
	.st3{fill:#E4A348;}
	.st4{fill:#DE2256;}
	.st5{fill:#2A1F17;}
</style>
<g id="nPSbi9_1_">
	<g>
		<path class="st0" d="M40.5,149c-2.6,1.1-4.5-1.8-7-1.4c-1.9-1.1-3.7-2.3-5.6-3.3c-4.9-2.7-8.4-7.3-13-10.3c-0.5-0.5-1-1-1.5-1.5
			c0-1.3-1.1-2-1.8-2.9c-7.1-9.2-10.9-19.1-7.3-30.9c1.9-5.9,7.1-9.4,10.1-14.5c3.6-1,6.1,1.8,9.2,2.5c1.6,0.2,3.1,2.3,4.8,0.2
			c2.7,0.6,5.2,2.8,8,0.4c0.3,0.1,0.7,0.2,1,0.4c-0.6,2.6,1.4,1.9,2.7,2.1c9,1.7,18,0.7,27-0.4c4.9,0.2,9.6-0.8,14.4-1.7
			c3.7-0.7,7.4-1.4,10.9-2.8c0.9,0.1,1.7,0.2,2.6,0.2c0.8,0.1,1.7,0.2,2.5,0.2c5.5,0.5,10.9,2.3,16.6,1.6c4.1,0.8,8.3,1.5,12.4,2.3
			c0.7,0.4,1.3,0.4,1.7-0.4c1.2,0.2,2.2,1.3,3.6,0.8c1.6-0.6,4.2,1.8,4.7-1.7l0.3-0.2c1.3,4.2,4.9,2.8,7.7,3.1
			c0.2,0.3,0.4,0.4,0.7,0.3c1.7,0.8,3.4,0.4,5.2,0.4c0.9,0.2,1.8,0.3,2.7,0.5c1.7,0.8,3,2.6,5.1,2.1c4.8-1.2,8.6,0.7,12.1,3.6
			c0.4,3.4,3,6,3.9,9.2c0.1,0.9,0.1,1.9,0.2,2.8c-0.1,0.3-0.2,0.5-0.2,0.8c0.2,4.5,0.4,9.1,0.6,13.6c0,0.3,0,0.7,0,1
			c-0.9,12.6-2.7,24.7-17.3,29.3c-0.7,0.2-1.4,1.1-1.7,1.8c-0.9,2.1-2.8,2.2-4.5,2.6c-1.1-0.6-1.9-0.3-2.5,0.7
			c-0.4-0.3-0.9-0.7-1.3-1c-2.3-3-6-1-9.7-2.4c2.9-0.6,4.9-1.2,7-1.3c10.4-0.7,17.7-7.6,23.3-14.7c4.2-5.3,6-13.2,5.1-21.1
			c-1-9.1-10.8-17.9-19.8-16.2c-2.4,0.5-4.9,1.8-7.2,1.6c-3.1-0.3-2.8,2.8-4.6,3.8c-1,0.5,1.1,2,1.8,3c1.1,1.4,2.3,2.8,3.6,4.2
			c3.7,3.8,7.3,7.8,8.7,13.2c0.6,2.3,1.6,5.8-0.2,6.5c-3.2,1.3-2.7,3-2.4,5.3c0.2,1.1-0.6,1.9-1.4,2.5c-4.7,3.7-9.1,8-15.9,7.5
			c-3.6-0.3-7.2,0-11.1,0c0.7,3.3,3,5,4.9,4.9c3.7-0.3,4.2,2.2,5.5,4.4c-1.6,0-3.2,0-4.7,0c-3.1,1.1-4-2.8-6.6-2.9
			c-3.9-2.3-7.2-5.3-10.6-8.2l0,0c-0.7-1.5-1.8-2.2-3.4-1.9c-1,0.3-0.7,1.2-0.5,2c-2.8,6.6-5.6,13.3-8.6,19.9
			c-0.6,1.3-1.4,2.5-0.4,3.6c0.9,1,2.2,1.3,3.7,0.8c0.9-0.3,2-0.2,3-0.3c-1.2,6.3-2.9,7.6-8.8,7.5c-1.8,0-3.7,0.2-5.4,0.8
			c-1.8,0.6-3.3,0.8-4.4-0.9c-1-1.5-1-3.1,0.3-4.6c1.9-2.2,2.1-4.8,2.1-7.5c0-7.5-0.3-14.9-3.5-21.9c-0.6-1.3-1.1-3.4,1.3-3.3
			c4.8,0.1,8.2-3.4,12.5-4.3c4.7-3.6,9.4-7.2,14.2-10.8c-0.2-0.3-0.5-0.7-0.7-1c-4.5,2.6-9,5.4-13.1,8.8c-2,1.1-3.9,2.6-6,3.2
			c-4.5,1.1-6.3,6.5-11.2,6.9c-0.2-0.4-0.3-1-1-0.7c-0.4,0-0.8,0-1.2,0c-1.3,0.2-0.7,1.1-0.8,1.8c-0.7,0.1-1.4,0.3-2.1,0.4
			c-8.1,1.3-16.1,2.6-24.2,3.9C50.3,150.6,45.6,148.4,40.5,149z M28.9,113.9c0.2,0.3,0.5,0.7,0.7,1c-0.1,0.3-0.2,0.6-0.2,0.9
			c-3.3,0-3-2.3-2.8-4.5c0.4-4.3,1.2-8.6,0.8-12.9C27.2,96.4,28,94,25,93.2c-2.7-0.7-5.3-2.1-7.9,0.4c-4.4,4.5-7,9.7-6.5,16.1
			c0.5,6.1,3,7.6,8.8,6.1c0.6-0.2,1.2-0.5,1.9-0.6c0.8-0.2,1.7-0.2,2,0.9c0.3,1.2-0.7,1.1-1.4,1.5c-1.6,0.9-3.9,0.7-5.2,2.6
			c7.7,9.7,17.2,16.7,28.8,20.4c5.4,1.7,7.2,0.1,8-5.9l0.3,0.1c0,0,0.3,0,0.3,0c0.4,2.5,2.5-0.6,3.2,0.9c-0.7,0.9-1.6,1.7-2.2,2.6
			c-0.8,1.2-2.9,2-2.5,3.5c0.6,1.9,2.8,1.2,4.4,1.4c16,1.4,29.7-5.3,43.2-12.7c0.8-0.4,2.7-0.6,1.8-2.3c-0.8-1.7-2.2-0.8-3.4-0.5
			c-2.5,0.7-5.1,1.4-7.7,2.1c1-2.4,3.6-2,5.4-2.9c1.4-0.7,2.9-1,2-3.1c1.5,0.4,2.9,1.8,4.8,0.7c-1.1-3.6-2.8-7.1-1.3-10.9
			c2.5,3.2,2.1,7.5,4.5,11.2c10.8-8.2,21.5-16.5,33-25.3c-5.7,0.4-10,3-14.8,2.9c4.1-1.7,8.3-3.4,13.6-5.7c-4.4-1-7.5-1.7-10.6-2.4
			c-7.7-1.1-15.4-1.1-23.1-1.8c-3.4-0.3-6.4-3-9.9-1.7c-4.8,3.1-6.8,8.7-10.8,12.5c-3.1,2.9-3.3,5.3,0.9,7.3c-4.7-0.6-1.7,2.5-2,4
			c-2.3-0.1-2.4-2.8-4-3.7c-3.1,2.6-3.1,8.3-8.6,7.9c0.6-1,1-2.2,1.8-2.9c2.7-2.4,3-4-1-5.5c-3.1-1.1-5.8-3.1-8.7-4.7
			c1,0,2-0.1,2.9,0.2c3.6,1,6.4,5.9,10.1,3.9c3.2-1.8,5.1-5.9,7.5-9c0.3-0.4,0.5-0.9,0.9-1.2c2.3-1.8,3.5-5.2,2.2-6.7
			c-1.7-1.9-4.8,0.3-7.1,1.2c-0.1,0-0.1,0.3-0.2,0.4c-1.7,1.5-1.4,1-0.9-0.7c0.4-1.4-1.1-1.3-2-1.2c-3.3,0.5-6.6,0.8-9.7,1.8
			c-1.9,0.7-4.3,2-3.3,5c1,1.8,2.1,0.3,3.1,0.1c-1.8-0.5-3.6-0.3-5.2,0.9c-0.7,0-1.3,0-2,0c0.1-1.9,2.6-2.5,2.2-4.7
			c-3.1-1.1-5.6,1.6-8.5,1.6c0.8-0.9,2.6-0.6,2.6-2.6c-1.8-0.1-3.5-0.2-5.3-0.3c-5.4-0.3-10.8,1.4-16.1-0.3c2.1,0,4.2,0,6.3,0
			c-2.1-1.8-4.8-2.1-7.1-1.3c-1.6,0.6,0.6,0.7,0.7,1.3c-4.6,2-5.5,12.2-1.4,15.5c-0.1,0.3,0,0.6,0.1,0.8
			C31.2,112.1,28.5,111.6,28.9,113.9z M141.5,130.4c-7.1,1.1-14.1,3.5-21.1,5.4c-2,0.6-5.1,0.4-5.6,2.4c-0.5,2.2,2.1,3.9,3.8,5.4
			c1.6,1.5,3.5,2.5,5.7,3c8.4,2.2,15.3-1.3,21.6-6.2c1.9-1.5,3.9-3.6,2.8-6.4C147.4,131,144.4,130.7,141.5,130.4z M130.4,128.8
			c5.3,1,10.5-1.1,16.3,0.1C140.9,125,135.7,127.7,130.4,128.8z M68.6,145.3c-4.4-0.4-8.8-1.1-13.1,0.4
			C59.9,146.7,64.2,146.7,68.6,145.3z M9.5,113.5c-0.7-3.8-0.4-7.7-0.2-11.7C6.6,105.8,7.8,109.7,9.5,113.5z"/>
		<path class="st0" d="M85.6,30c0.9-0.6,1.8-1.2,3.4-2.3c-3,0.2-4.2-0.7-3.7-3.1c2-1.7,1-4.3,1.8-6.4c0.6-0.7,1.9-0.1,2.3-1.3
			c4.7-0.9,9.7-0.3,13-5.3c2.3-3.5,4.9-0.7,7,1.2c0.6,4.9,1.2,9.8,1.8,14.7c-3.3-3.7-2.6-8.3-2.8-12.7c-5.7,1.4-5.7,1.4-11.3,13.8
			c2.1,0.6,4.9-1,6.2,1.9c2.5,5.3,6.9,10.3,2.6,16.8c-1.9,2.9-0.6,4.2,2.8,3.9c4.1-0.4,8-0.6,9.5-5.5c1.3-4.1,3.3-8.1-2-10.9
			c0.5,0,1-0.2,1.4,0c10.9,4.1,18.4-0.8,19.3-12.5c0.4-4.8-1.5-9-2.5-13.5l0,0c0.3,0.1,0.7,0.2,1,0.3c2.7,4.5,3.4,9.5,3.2,14.6
			c-1,3-1.9,5.9-2.9,8.9c-0.3,1.1-0.6,2.1-1.8,2.5c-2.1,2-6.9,1.7-5.5,6.7c-2.1,1.5-1.9,3.8-2,5.9c-0.8,1.7-1.6,3.4-2.3,5.1
			c-1.9,1.8-2.8,4.1-3.5,6.5c-1.3,3.8-6.3,3.2-7.8,6.8c-0.7-0.5-1.4-0.9-2.1-1.4c-0.1-2.4,1-5-2.3-7.8c2,4.6,1.1,8.5,1.6,12.2
			c0,1.1,0,2.2,0,3.3c0,0-0.2,0-0.2,0l0.2,0c-0.3,3-0.6,6-1,9c-0.4,0-0.8,0-1.2,0c0.4,0.1,0.8,0.1,1.2,0.2c0.4,2.2,0.3,4-2.8,3.5
			c-2.9-0.5-5.9-0.7-8.8-1c-1.1-0.1-2.2-0.2-3.3-0.2c-0.6-2.2,0.5-4.6-0.8-6.8c-1.3-7.9-3.5-15.5-7.5-22.5c0.2-0.6,0-1-0.6-1.1
			c0-1.3,0-2.5-0.1-3.8c1.3-2,1.6-4,0-6c0-1.3,1.1-1.9,1.6-2.9"/>
		<path class="st1" d="M134.4,8.8c1,4.5,2.9,8.7,2.5,13.5c-0.9,11.7-8.4,16.6-19.3,12.5c-0.4-0.2-0.9,0-1.4,0c0,0,0.1,0.1,0.1,0.1
			c0.6-2-1-2.6-2.1-3.7c-1.7-0.7-2.6-2-3-3.7c-0.6-4.9-1.2-9.8-1.8-14.7c1-1.6,2-3.3,3.1-4.9c4.5-6.5,10.2-7.9,17.6-4.3
			c-0.4,1.4,0.5,1.2,1.4,1.2c0,0-0.1-0.1-0.1-0.1C131.7,6.6,132.6,8,134.4,8.8z M134,20.1c-0.1-7.6-5.7-14.2-11.5-13.6
			c-5.7,0.6-9.6,7.7-8.4,15.2c1.1,6.7,5.6,11,11.1,10.4C130.2,31.7,134.1,26.4,134,20.1z"/>
		<path class="st2" d="M134.4,8.8c-1.8-0.8-2.7-2.2-3-4.1c0.9,0.7,1.9,1.5,2.8,2.2c0,0,0-0.1,0-0.1C134.3,7.4,134.3,8.1,134.4,8.8
			C134.4,8.8,134.4,8.8,134.4,8.8z"/>
		<path class="st2" d="M131.5,4.8c-0.8,0-1.8,0.1-1.4-1.2C130.6,4,131,4.4,131.5,4.8z"/>
		<path class="st1" d="M147.7,158.8c-4,1.9-8.2,0.4-12.3,1c-1.2-2.2-1.8-4.7-5.5-4.4c-1.9,0.1-4.2-1.5-4.9-4.9c3.8,0,7.5-0.2,11.1,0
			c6.8,0.5,11.2-3.8,15.9-7.5c0.8-0.6,1.6-1.4,1.4-2.5c-0.3-2.3-0.9-4,2.4-5.3c1.7-0.7,0.8-4.2,0.2-6.5c-1.5-5.4-5-9.3-8.7-13.2
			c-1.3-1.3-2.5-2.7-3.6-4.2c-0.8-1-2.8-2.5-1.8-3c1.8-1,1.5-4.1,4.6-3.8c2.3,0.2,4.8-1.2,7.2-1.6c9-1.7,18.8,7.1,19.8,16.2
			c0.8,7.9-0.9,15.8-5.1,21.1c-5.6,7.1-12.9,14-23.3,14.7c-2.1,0.1-4.1,0.7-7,1.3C141.7,157.8,145.4,155.8,147.7,158.8z"/>
		<path class="st3" d="M86.9,40.7c-0.5,1-1.6,1.6-1.6,2.9"/>
		<path class="st1" d="M53.6,134.8c-0.8,6-2.6,7.6-8,5.9c-11.6-3.8-21.2-10.7-28.8-20.4c1.3-1.8,3.5-1.6,5.2-2.6
			c0.7-0.4,1.7-0.4,1.4-1.5c-0.2-1.1-1.1-1.1-2-0.9c-0.6,0.1-1.3,0.4-1.9,0.6c-5.9,1.5-8.3,0-8.8-6.1c-0.6-6.4,2-11.6,6.5-16.1
			c2.5-2.6,5.2-1.1,7.9-0.4c3,0.7,2.3,3.1,2.4,5.2c0.4,4.4-0.4,8.6-0.8,12.9c-0.2,2.2-0.5,4.5,2.8,4.5c0,0,0-0.1,0-0.1
			c-0.1,0.8,0.2,1.2,1.1,1.1l-0.1-0.1c1.3,2.4,3.4,3.7,6.1,4l0,0c0.4,2.2,1.8,3.2,4,3.1l-0.1-0.1c0.1,2.6,1.8,3.7,4.1,4l-0.1-0.1
			c0,0.9,0.5,1.2,1.4,1.1c0.5,0.1,1,0.2,1.5,0.3l0,0c0.3,0.3,0.6,0.6,0.8,0.8l0,0.4l0-0.4C49.9,131.6,51.7,133.2,53.6,134.8z"/>
		<path class="st4" d="M53.6,134.8c-1.9-1.6-3.7-3.2-5.6-4.8c0,0,0,0,0,0c-0.3-0.3-0.6-0.6-0.8-0.8c0,0,0,0,0,0
			c-0.5-0.1-1-0.2-1.5-0.3c-0.5-0.4-0.9-0.7-1.4-1.1l0.1,0.1c-0.7-2-1.8-3.6-4.1-4c0,0,0.1,0.1,0.1,0.1c-0.8-1.7-2-2.9-4-3.1
			c0,0,0,0,0,0c-1.4-2.3-3.2-4-6.1-4c0,0,0.1,0.1,0.1,0.1c-0.1-0.6-0.4-1-1.1-1.1c0,0,0,0.1,0,0.1c0-0.3,0.1-0.6,0.2-0.9
			c1.2-0.1,1.9-0.8,2.2-2c0.7-0.4,1.4-0.7,2.1-1.1c0.8,0.1,1.4-0.2,1.8-0.9c0.8-0.1,1.6-0.1,1.7-1.2l-0.1,0c0.4,0,0.7,0,1.1,0
			c1.2,0,2.4,0.4,3.2-0.9c0.2-0.4,0.5-0.8,0.7-1.1l0,0.1c1,0,2.1-0.1,3.1-0.1c0.9-0.3,2.2,0.5,2.8-0.9l-0.1,0c1.2-0.7,2.4-1.4,3.5-2
			c1.8-0.7,3.6-1.3,5.4-2c0.1,0.2,0.2,0.5,0.3,0.8c-0.2,1.2-0.4,2.4-0.6,3.6c-0.1,7.1-0.3,14.3-0.4,21.4c0.4,2.5,0.4,4.9-2.3,6.3
			l-0.3,0L53.6,134.8z"/>
		<path class="st4" d="M98.3,123.7c0.9,2-0.5,2.4-1.9,3.1c-1.8,0.9-4.4,0.5-5.4,2.9c-3-0.5-5.6,0.9-8.5,1.2
			c-5.5,0.6-11.1,1.2-16.6,2c-3.8,0.6-3.9-0.9-2.5-3.7c3-2.9,5-6.5,6.4-10.4c5.5,0.4,5.5-5.3,8.6-7.9c1.6,0.9,1.7,3.5,4,3.7
			C88.1,117,92.3,122,98.3,123.7z"/>
		<path class="st1" d="M141.5,130.4c2.9,0.3,5.9,0.6,7.2,3.7c1.1,2.8-0.9,4.9-2.8,6.4c-6.3,4.9-13.2,8.3-21.6,6.2
			c-2.1-0.5-4-1.5-5.7-3c-1.7-1.5-4.3-3.2-3.8-5.4c0.5-2,3.5-1.9,5.6-2.4C127.4,133.9,134.3,131.6,141.5,130.4z"/>
		<path class="st4" d="M124.5,102.4c4.8,0.1,9.1-2.5,14.8-2.9c-11.5,8.8-22.2,17-33,25.3c-2.4-3.7-2-8-4.5-11.2
			c1.2-1.6-0.4-3-0.4-4.5c2.6-0.8,5.3-1.6,7.9-2.4C114.1,103.9,119.5,103.9,124.5,102.4z"/>
		<path class="st1" d="M82.5,130.9c2.8-0.3,5.5-1.7,8.5-1.2c2.6-0.7,5.1-1.3,7.7-2.1c1.3-0.4,2.6-1.2,3.4,0.5c0.9,1.8-1,1.9-1.8,2.3
			c-13.5,7.4-27.1,14.1-43.2,12.7c-1.6-0.1-3.8,0.5-4.4-1.4c-0.5-1.5,1.6-2.3,2.5-3.5c0.6-0.9,1.5-1.7,2.2-2.6c0,0-0.1,0.1-0.1,0.1
			c5.1-0.5,10.2-0.8,15.2-1.7C75.9,133.4,79.9,134,82.5,130.9z"/>
		<path class="st1" d="M57.5,103.5c-0.1-0.3-0.2-0.5-0.3-0.8c0.1-0.3,0.2-0.7,0.2-1l-0.1,0.1c0.8-0.7,2.5,0.7,2.9-1.1
			c1.6-1.2,3.3-1.3,5.2-0.9c0,0,0.1,0,0.1,0c1.2,0,3,0.8,2.3-1.8c-1.3-1-2.3-1.3-2.3,0.9l0.1-0.1c-1.4-0.6-2.5-0.4-3.4,0.9
			c-1-3,1.4-4.4,3.3-5c3.1-1.1,6.4-1.3,9.7-1.8c0.9-0.1,2.4-0.3,2,1.2c-0.5,1.7-0.8,2.2,0.9,0.7c0.1-0.1,0.1-0.4,0.2-0.4
			c2.4-1,5.4-3.1,7.1-1.2c1.3,1.5,0.1,4.9-2.2,6.7c-0.4,0.3-0.6,0.8-0.9,1.2c-2.5,3.1-4.4,7.2-7.5,9c-3.7,2-6.5-2.9-10.1-3.9
			c-0.9-0.3-1.9-0.1-2.9-0.2C60.9,104.2,59.5,103.4,57.5,103.5z"/>
		<path class="st3" d="M57.5,103.5c2-0.2,3.4,0.7,4.4,2.3c2.9,1.6,5.7,3.5,8.7,4.7c4,1.5,3.7,3,1,5.5c-0.8,0.7-1.2,1.9-1.8,2.9
			c-1.4,3.9-3.4,7.5-6.4,10.4c-2.6,1.6-4.8,3.7-6.1,6.5c0,0,0.1-0.1,0.1-0.1c-0.7-1.5-2.8,1.6-3.2-0.9c2.8-1.4,2.8-3.7,2.3-6.3
			c2.8-7.1,1.7-14.3,0.4-21.4C57.2,105.9,57.3,104.7,57.5,103.5z"/>
		<path class="st3" d="M101.5,109c0,1.5,1.6,2.9,0.4,4.5c-1.5,3.8,0.2,7.3,1.2,10.9c-1.9,1.1-3.3-0.3-4.8-0.7
			c-6-1.7-10.2-6.7-15.8-9.1c0.3-1.5-2.7-4.7,2-4c8.2,1.4,11,0.4,12.9-4.5C98.5,107.4,99.3,109.1,101.5,109z"/>
		<path class="st4" d="M33.2,94.4c5.3,1.8,10.8,0,16.1,0.3c1.8,0.1,3.5,0.2,5.3,0.3c0,2-1.9,1.7-2.6,2.6c-7.5,3-13.6,8.1-20.3,12.3
			c-4.2-3.3-3.3-13.5,1.4-15.5C33,94.4,33.2,94.4,33.2,94.4z"/>
		<path class="st1" d="M97.3,106.1c-1.9,4.9-4.7,5.9-12.9,4.5c-4.1-2-3.9-4.4-0.9-7.3c4-3.8,6-9.4,10.8-12.5l0-0.1
			c-0.2,1.2-0.8,2.6,1.1,3.1c0,0-0.1-0.1-0.1-0.1C94.1,98.2,97.6,101.8,97.3,106.1z"/>
		<path class="st1" d="M94.4,90.8c3.6-1.3,6.5,1.4,9.9,1.7c7.7,0.7,15.5,0.7,23.1,1.8c-4.8,1.6-10.4,0.9-14.2,5.3
			c-0.7,0.3-1.7,0-1.9,1.2l0.1-0.1c-1.9-0.9-3.2,0.6-4.6,1.2c-4.8,2-7,1.2-9.2-3.8c-0.7-1.5-0.9-3.2-2.2-4.4c0,0,0.1,0.1,0.1,0.1
			C95.3,92.7,96,91.3,94.4,90.8L94.4,90.8z"/>
		<path class="st3" d="M113.3,99.6c3.8-4.4,9.4-3.7,14.2-5.3c3.1,0.7,6.2,1.4,10.6,2.4c-5.3,2.2-9.5,3.9-13.6,5.7
			c-5,1.6-10.4,1.5-15.1,4.2c-0.9-1.3-3.5-0.1-3.7-2.4c1.9-1.1,3.9-2.3,5.8-3.4c0,0-0.1,0.1-0.1,0.1
			C112.2,100.7,113,100.5,113.3,99.6z"/>
		<path class="st3" d="M31.6,109.9c6.7-4.2,12.9-9.3,20.3-12.3c2.9,0,5.3-2.7,8.5-1.6c0.4,2.1-2.2,2.8-2.2,4.7
			c-0.3,0.4-0.6,0.8-0.9,1.2c0,0,0.1-0.1,0.1-0.1c-2.4,0.1-5-0.5-5.6,3c-1.2,0.7-2.4,1.4-3.5,2c-2.3-1.4-4.4-2-5.9,1
			c0,0,0-0.1,0-0.1c-0.4,0.3-1.4,0.2-0.7,1.1c-0.8,1.3-2.1,0.9-3.2,0.9c-0.3-0.2-0.5-0.4-0.8-0.6c-0.1,0.2-0.2,0.4-0.3,0.6
			c0,0,0.1,0,0.1,0c-1.1-0.4-1.9-0.3-1.7,1.2c-0.4,0.7-1,1-1.8,0.9c0-1.7-1.4-0.8-2.2-1.1C31.6,110.5,31.6,110.2,31.6,109.9z"/>
		<path class="st0" d="M112.9,66c0.5,7,2.6,13.9,1.2,21c-5.6,0.7-11-1.2-16.6-1.6c0-0.5,0-1,0-1.5c2.9,0.3,5.9,0.6,8.8,1
			c3.1,0.5,3.2-1.3,2.8-3.5c0,0,0-0.2,0-0.2c0.3-3,0.6-6,1-9c0,0,0-0.1,0-0.1c0-1.1,0-2.2,0-3.3c0.2-1.5,0.5-2.9,0.7-4.4
			C111.6,65.1,112.2,65.5,112.9,66z"/>
		<path class="st0" d="M101.3,138.7c0.1-1,0.2-2,0.3-3c4-3.5,8.6-6.2,13.1-8.8c0.2,0.3,0.5,0.7,0.7,1
			C110.7,131.5,106,135.1,101.3,138.7z"/>
		<path class="st1" d="M130.4,128.8c5.3-1.1,10.5-3.7,16.3,0.1C140.9,127.7,135.7,129.8,130.4,128.8z"/>
		<path class="st1" d="M68.6,145.3c-4.3,1.4-8.7,1.4-13.1,0.4C59.8,144.2,64.2,144.9,68.6,145.3z"/>
		<path class="st1" d="M9.5,113.5c-1.7-3.8-2.9-7.7-0.2-11.7C9.2,105.8,8.8,109.7,9.5,113.5z"/>
		<path class="st1" d="M33.2,94.4c0,0-0.2,0-0.2,0c-0.1-0.6-2.3-0.7-0.7-1.3c2.4-0.8,5.1-0.5,7.1,1.3C37.4,94.4,35.3,94.4,33.2,94.4
			z"/>
		<path class="st0" d="M92.5,85c0.1-2.7-0.2-5.4,1-8c1.3,2.1,0.1,4.5,0.8,6.8c-0.7,1,0.7,0.9,0.8,1.5C94.2,85.1,93.3,85,92.5,85z"/>
		<path class="st0" d="M31.8,110.7c0.7,0.4,2.1-0.5,2.2,1.1c-0.7,0.4-1.4,0.7-2.1,1.1c-1,0.3-2,0.7-2.9,1
			C28.5,111.6,31.2,112.1,31.8,110.7z"/>
		<path class="st5" d="M95.1,85.2c-0.1-0.6-1.5-0.5-0.8-1.5c1.1,0.1,2.2,0.2,3.3,0.2c0,0.5,0,1,0,1.5C96.7,85.4,95.9,85.3,95.1,85.2
			z"/>
		<path class="st0" d="M82.3,145c-0.2,0.9,0.7,2.1-0.6,2.7c-0.1-0.3-0.1-0.6-0.2-0.9C81.6,146.1,81,145.1,82.3,145z"/>
		<path class="st3" d="M28.9,113.9c1-0.3,2-0.7,2.9-1c-0.3,1.2-0.9,1.9-2.2,2C29.4,114.6,29.2,114.2,28.9,113.9z"/>
		<path class="st0" d="M57.4,101.8c0.3-0.4,0.6-0.8,0.9-1.2c0.7,0,1.3,0,2,0C59.9,102.6,58.2,101.2,57.4,101.8z"/>
		<path class="st0" d="M62.3,99.7c0.9-1.3,2-1.5,3.4-0.9c0,0.3-0.1,0.6-0.2,1c0,0-0.1,0-0.1,0C64.3,100,63.2,101.5,62.3,99.7z"/>
		<path class="st0" d="M84.4,145.7c-0.3-0.2-0.7-0.5-1-0.7C84.1,144.7,84.2,145.3,84.4,145.7z"/>
		<path class="st3" d="M87.1,18.2c-0.8,2.1,0.2,4.6-1.8,6.4"/>
		<path class="st0" d="M85.3,24.6C84.8,27,86,27.9,89,27.7c-1.6,1.1-2.5,1.7-3.4,2.3"/>
		<path class="st0" d="M85.4,43.6c1.6,2,1.3,4,0,6"/>
		<path class="st1" d="M110.9,64.6c-0.2,1.5-0.5,2.9-0.7,4.4c-0.6-3.8,0.4-7.6-1.6-12.2C111.9,59.6,110.7,62.2,110.9,64.6z"/>
		<path class="st5" d="M134.4,8.8c-0.1-0.7-0.1-1.4-0.2-2c0.9,0.5,1.1,1.4,1.2,2.3C135.1,9,134.7,8.9,134.4,8.8z"/>
		<path class="st1" d="M109.2,81.3c0,0,0,0.2,0,0.2c-0.4-0.1-0.8-0.1-1.2-0.2C108.4,81.3,108.8,81.3,109.2,81.3z"/>
		<path class="st0" d="M86,54.5c-0.2-0.4-0.4-0.7-0.6-1.1C86,53.5,86.2,53.9,86,54.5z"/>
		<polygon class="st1" points="110.2,72.3 110.2,72.3 110,72.3 		"/>
		<path class="st4" d="M134,20.1c0.1,6.3-3.8,11.6-8.8,12.1c-5.5,0.5-10-3.8-11.1-10.4c-1.2-7.6,2.7-14.6,8.4-15.2
			C128.3,5.9,133.9,12.5,134,20.1z M118.7,19.6c0.4,3.3,1.5,6.2,5.6,6.2c3.7,0,4.7-2.6,4.8-5.7c0.1-3.8-2.7-7.4-5.5-7
			C120,13.6,118.8,16.3,118.7,19.6z"/>
		<path class="st2" d="M116.4,34.9c-1.9-0.5-2.5-1.8-2.1-3.7C115.3,32.2,116.9,32.9,116.4,34.9z"/>
		<path class="st2" d="M30.4,116.7c2.9,0,4.7,1.7,6.1,4C33.8,120.5,31.7,119.2,30.4,116.7z"/>
		<path class="st2" d="M40.4,123.8c2.3,0.4,3.3,2.1,4.1,4C42.2,127.4,40.5,126.4,40.4,123.8z"/>
		<path class="st2" d="M36.4,120.7c2,0.2,3.2,1.4,4,3.1C38.3,123.9,36.9,123,36.4,120.7z"/>
		<polygon class="st2" points="48.1,130 48,130 48.1,130.4 		"/>
		<path class="st2" d="M29.4,115.7c0.6,0.1,1,0.4,1.1,1.1C29.6,116.9,29.3,116.6,29.4,115.7z"/>
		<path class="st2" d="M44.4,127.7c0.5,0.4,0.9,0.7,1.4,1.1C44.9,128.9,44.4,128.7,44.4,127.7z"/>
		<path class="st2" d="M47.2,129.1C47.2,129.1,47.2,129.1,47.2,129.1C47.2,129.1,47.2,129.1,47.2,129.1z"/>
		<path class="st2" d="M57,107.1c1.3,7.2,2.4,14.3-0.4,21.4C56.7,121.4,56.8,114.3,57,107.1z"/>
		<path class="st0" d="M42.4,107.8c1.5-3.1,3.6-2.4,5.9-1c0,0,0.1,0,0.1,0c-1.1-0.2-2.2-0.3-2.8,0.9
			C44.5,107.8,43.5,107.8,42.4,107.8z"/>
		<path class="st0" d="M51.9,104.7c0.6-3.4,3.2-2.9,5.6-3c-0.1,0.3-0.2,0.7-0.2,1C55.4,103.4,53.6,104.1,51.9,104.7z"/>
		<path class="st2" d="M45.6,107.8c0.6-1.2,1.7-1.1,2.8-0.9C47.8,108.2,46.5,107.5,45.6,107.8z"/>
		<path class="st0" d="M35.8,111c-0.2-1.5,0.6-1.6,1.7-1.2C37.4,110.9,36.5,110.9,35.8,111z"/>
		<path class="st0" d="M41.7,108.9c-0.7-1,0.3-0.9,0.7-1.1C42.2,108.2,42,108.5,41.7,108.9z"/>
		<path class="st0" d="M37.4,109.8c0.1-0.2,0.2-0.4,0.3-0.6c0.3,0.2,0.5,0.4,0.8,0.6C38.1,109.8,37.8,109.8,37.4,109.8z"/>
		<path class="st2" d="M57.4,135.8c1.3-2.9,3.5-4.9,6.1-6.5c-1.4,2.7-1.3,4.2,2.5,3.7c5.5-0.8,11.1-1.3,16.6-2
			c-2.7,3.1-6.6,2.5-10,3.1C67.5,135,62.4,135.2,57.4,135.8z"/>
		<path class="st2" d="M111.5,100.7c-2,1.1-3.9,2.3-5.8,3.4c0.3,2.3,2.8,1.1,3.7,2.4c-2.6,0.8-5.3,1.6-7.9,2.4
			c-2.1,0.1-3-1.6-4.1-2.9c0.3-4.3-3.3-7.9-1.9-12.4c1.4,1.1,1.6,2.8,2.2,4.4c2.2,5,4.4,5.8,9.2,3.8
			C108.3,101.3,109.6,99.8,111.5,100.7z"/>
		<path class="st2" d="M65.4,99.8c0.1-0.3,0.2-0.6,0.2-1c0,0-0.1,0.1-0.1,0.1c0.9,0.1,1.8,0.1,2.3-0.9
			C68.5,100.5,66.7,99.8,65.4,99.8z"/>
		<path class="st0" d="M67.8,98c-0.5,0.9-1.4,1-2.3,0.9C65.5,96.7,66.5,97,67.8,98z"/>
		<path class="st2" d="M94.4,90.7c1.6,0.6,0.9,2,1.1,3.1C93.6,93.3,94.2,92,94.4,90.7z"/>
		<path class="st2" d="M113.3,99.6c-0.3,0.9-1.1,1.1-1.9,1.2C111.5,99.6,112.6,99.9,113.3,99.6z"/>
		<path class="st3" d="M118.7,19.6c0.1-3.4,1.3-6,4.9-6.5c2.8-0.4,5.7,3.2,5.5,7c-0.1,3.1-1.1,5.6-4.8,5.7
			C120.1,25.8,119.1,23,118.7,19.6z"/>
	</g>
</g>
</svg>
