<?xml version="1.0" encoding="utf-8"?>
<!-- Generator: Adobe Illustrator 23.0.1, SVG Export Plug-In . SVG Version: 6.00 Build 0)  -->
<svg version="1.1" id="Layer_1" xmlns="http://www.w3.org/2000/svg" xmlns:xlink="http://www.w3.org/1999/xlink" x="0px" y="0px"
	 viewBox="0 0 300 300" style="enable-background:new 0 0 300 300;" xml:space="preserve">
<style type="text/css">
	.st0{fill:#7FB745;}
	.st1{fill:#FDFCFA;}
	.st2{fill:#F0D4AF;}
</style>
<g id="ubIFiW_1_">
	<g>
		<path class="st0" d="M203.8,218.7c0.5,0.6,0.8,1,1.2,1.3c9.8,7.8,10.2,13.8,1,22.4c-9.5,8.9-21.3,13.5-34,15.6
			c-22.5,3.8-44.1,1.9-63.9-10.4c-3.9-2.4-7.3-5.3-10.1-8.9c-5.2-6.7-4.7-12.3,2.1-17.1c3.2-2.2,3.4-3.8,1.6-7
			c-8.4-15.5-11.2-32.2-11-49.6c0.1-5,3.2-8.3,7.1-10.8c7.1-4.6,15.2-6.8,23.4-8.3c24.5-4.4,49-4.6,73.3,1.6c4,1,7.9,2.6,11.6,4.4
			c7,3.4,11.6,8.5,10.2,17c-0.6,4,0.6,5.2,4.9,5.5c15.5,1.2,19.3,13.3,13.9,24.6c-3.5,7.3-10.2,11.3-17.3,14.4
			C213.3,215.4,208.6,216.9,203.8,218.7z M227.5,202.6c2.7-1.6,4.1-4.3,5.5-6.8c2.5-4.5,1.4-11-2.2-14.2c-3.3-2.9-7.1-4.1-12.8-1.9
			c2.5,0.8,3.7,1.2,5,1.6c7.3,1.9,10.2,7.3,7.4,14.3c-0.9,2.3-2.3,4.3-3.5,6.5c-0.4,0.4-1.5,0.5-0.7,1.3
			C226.5,203.7,227.2,203.3,227.5,202.6z M180.5,155.3c0.6,0.1,1.3,0.2,1.9,0.3c0.2,0.5,0.5,0.8,1.1,0.5c1.2,0.5,2.5,0.8,3.7,1.4
			c2.5,1.2,5,2.5,7.4,4c2.3,1.4,3.4,4,2.9,6.2c-0.5,2-2.8,3.6-4.8,6c2.1-0.6,3.4-0.9,4.5-1.4c3.9-1.7,9.6-2.8,9.6-7.4
			c0-4.5-5.5-5.8-9.5-7.3c-0.7-0.9-1.7-1.2-2.7-1c-1.3-0.4-2.7-0.8-4-1.2c-0.5-0.8-1.2-0.9-2.1-0.6c-2-0.7-4-1.3-6.2-1.2
			c-0.9-0.3-1.8-0.8-2.8-1c-17.2-2.9-34.3-2.6-52.1-0.4c8.4,0.5,16.1-1.2,24-0.5C161.1,152.6,170.8,153.5,180.5,155.3z M99,177.2
			c-0.1,8.9,2.3,17.4,5.7,25.7c11.4,28.3,38.9,41,67.7,30.8c16.9-6,26-19.4,31.8-35.5c2.5-6.9,4.7-13.9,4.9-21.1
			C172.1,190.7,135.6,189.9,99,177.2z M155.6,251.5c9.6,0.3,21-1.7,31.9-6.3c6.2-2.6,11.9-5.9,16.1-11.4c2.8-3.7,0.7-6.2-1.9-8.5
			c-3.1-2.8-4,0.8-5.3,2.2c-22.5,24.3-63.6,24.3-85.9-0.2c-3.4-3.8-5.3-3.5-7.8,0.9c-1.3,2.2-0.6,4.1,0.9,5.9
			c2.6,3.3,5.9,5.8,9.6,7.9C125.6,249.1,139.3,251.5,155.6,251.5z M209.5,206.3c6.4-1.9,11.1-4.8,14.9-9.2c2.2-2.6,3.1-5.6,1.8-8.8
			c-1.4-3.4-4.3-4.5-7.6-4.5c-1.9,0-3.7,0.6-4,2.9C213.8,193.2,211.7,199.3,209.5,206.3z"/>
		<path class="st0" d="M148,32.3c-3.9,7.9-6.4,16-5.7,24.9c0.3,4.5,1.7,8.6,4.5,11.9c4.3,5,8.8,9.8,13.8,14.2
			c13.5,11.7,16.1,25.5,2.2,38.3c-1.2,1.1-2.9,2.7-3.9,2c-1.8-1.4,0.7-2.4,1.3-3.5c3.9-7.5,0-20.1-8.5-27.1
			c-3.1-2.6-6.2-5.3-9.4-7.9c-12.3-10-15.2-24.1-7.6-37.7C138.1,41.5,142,36.1,148,32.3z"/>
		<path class="st0" d="M123.6,79.7c3,8.7,10.1,13.7,17,18.8c9.7,7.3,11.5,15.7,5.7,25.5c-0.2,0.3-0.3,0.6-0.5,0.8
			c-1.5,1.3-2.3,4.5-4.6,3.6c-2.1-0.8-1-3.8-0.6-5.4c2-8.5-1.6-14.4-7.9-19.4C124.8,97.5,122.9,89.1,123.6,79.7z"/>
		<path class="st0" d="M168.5,56.4c-2.3,8.2,0.4,13.3,5.4,17.8c3,2.6,5.7,5.6,8.1,8.8c4.8,6.4,3.7,14.2-2.9,19.9
			c1.9-9.5-2.5-15.9-8.7-21.7c-4.2-4-7.5-8.5-7.3-14.7C163.3,63,164.1,59.7,168.5,56.4z"/>
		<path class="st1" d="M99,177.2c36.7,12.7,73.2,13.5,110.1,0c-0.3,7.2-2.4,14.2-4.9,21.1c-5.8,16.1-14.9,29.5-31.8,35.5
			c-28.8,10.2-56.3-2.5-67.7-30.8C101.3,194.6,98.9,186.1,99,177.2z"/>
		<path class="st1" d="M155.6,251.5c-16.4,0-30-2.4-42.5-9.4c-3.6-2-6.9-4.5-9.6-7.9c-1.5-1.8-2.1-3.7-0.9-5.9
			c2.5-4.4,4.4-4.7,7.8-0.9c22.3,24.4,63.4,24.5,85.9,0.2c1.3-1.4,2.2-5,5.3-2.2c2.6,2.3,4.7,4.8,1.9,8.5
			c-4.2,5.5-9.9,8.8-16.1,11.4C176.6,249.8,165.2,251.8,155.6,251.5z"/>
		<path class="st1" d="M182.3,153.5c2.2-0.1,4.2,0.5,6.2,1.2c0.5,0.8,1.2,0.9,2.1,0.6c1.3,0.4,2.7,0.8,4,1.2c0.6,1.1,1.7,1.1,2.7,1
			c4,1.5,9.6,2.8,9.5,7.3c0,4.5-5.8,5.6-9.6,7.4c-1.2,0.5-2.4,0.8-4.5,1.4c2-2.4,4.2-3.9,4.8-6c0.6-2.2-0.6-4.8-2.9-6.2
			c-2.4-1.4-4.9-2.7-7.4-4c-1.2-0.6-2.5-0.9-3.7-1.4c-0.4-0.2-0.7-0.3-1.1-0.5c-0.6-0.1-1.3-0.2-1.9-0.3
			C180.4,154,181.3,153.7,182.3,153.5z"/>
		<path class="st2" d="M182.3,153.5c-1,0.2-1.8,0.5-1.8,1.8c-9.6-1.7-19.4-2.7-29.1-3.6c-7.9-0.7-15.6,1-24,0.5
			c17.8-2.2,35-2.6,52.1,0.4C180.5,152.7,181.3,153.2,182.3,153.5z"/>
		<path class="st2" d="M226.7,201.9c1.2-2.2,2.6-4.2,3.5-6.5c2.8-7,0-12.4-7.4-14.3c-1.2-0.3-2.4-0.8-5-1.6c5.7-2.1,9.5-1,12.8,1.9
			c3.7,3.2,4.8,9.8,2.2,14.2c-1.4,2.5-2.8,5.3-5.5,6.8C227.2,202.4,227,202.1,226.7,201.9z"/>
		<path class="st2" d="M197.2,157.5c-1.1,0.2-2.1,0.1-2.7-1C195.6,156.4,196.5,156.6,197.2,157.5z"/>
		<path class="st2" d="M190.5,155.4c-0.8,0.2-1.5,0.1-2.1-0.6C189.2,154.5,190,154.5,190.5,155.4z"/>
		<path class="st2" d="M227.5,202.6c-0.3,0.7-1,1.1-1.5,0.6c-0.7-0.7,0.4-0.9,0.7-1.3C227,202.1,227.2,202.4,227.5,202.6z"/>
		<path class="st2" d="M182.4,155.6c0.4,0.2,0.7,0.3,1.1,0.5C182.9,156.3,182.6,156.1,182.4,155.6z"/>
	</g>
</g>
</svg>
