<?xml version="1.0" encoding="utf-8"?>
<!-- Generator: Adobe Illustrator 23.0.1, SVG Export Plug-In . SVG Version: 6.00 Build 0)  -->
<svg version="1.1" id="Layer_1" xmlns="http://www.w3.org/2000/svg" xmlns:xlink="http://www.w3.org/1999/xlink" x="0px" y="0px"
	 viewBox="0 0 300 300" style="enable-background:new 0 0 300 300;" xml:space="preserve">
<style type="text/css">
	.st0{fill:#F4F3F4;}
	.st1{fill:#392F37;}
	.st2{fill:#1B181C;}
	.st3{fill:#E9E7E6;}
	.st4{fill:#F7AD5E;}
	.st5{fill:#20222C;}
	.st6{fill:#544E52;}
	.st7{fill:#8F898D;}
	.st8{fill:#EE953D;}
	.st9{fill:#804643;}
	.st10{fill:#8C492B;}
	.st11{fill:#573523;}
	.st12{fill:#F3A958;}
	.st13{fill:#6E3518;}
	.st14{fill:#E3AA74;}
</style>
<g id="fiJ3mf_1_">
	<g>
		<path class="st0" d="M228,173.7c0.2,7,0.4,14,0.6,21c0.3,11.7,0.6,23.5,0.8,35.2c0.1,8.7,0.5,17.5,0.8,26.2
			c0.1,2.2-0.4,3.4-2.8,3.5c-0.8,0-1.6,0.4-2.5,0.7c-1.5,0.2-2-0.8-2-1.9c-0.2-4.9-1.5-9.7-1.4-14.7c0-1.2-0.1-2.3-1.1-3.9
			c-0.1,2.7-0.2,4.8-0.3,6.9c-0.2,3.8-0.5,7.7-0.5,11.5c0,1.3-0.4,1.9-1.6,2c-3.6,0.2-7.1,1.2-10.7,0.9c-5.6-0.1-11.2,0.4-16.8-0.4
			c-2.1-0.7-4.2-0.5-6.3-0.7c-3.5-0.3-6.9-1.8-10.5-1.5c-1.2-1.5-3.1-1.3-4.7-1.8c-4.9-1.4-5-1.4-4.8-6.4
			c0.5-12.4,1.1-24.8,1.8-37.2c0.5-8.9,0.9-17.7,1.3-26.6c0.3-8.7,0.8-17.3,1.3-26c0.1-1.5,0.5-3,0.4-4.5c2.7,1.4,5.8,1.6,8.6,2.4
			c1.1,0.3,2.3,0.4,3.2,1.4c0.5,0.5,1.3,0.8,2,0.4c1.4-0.9,3.1-0.8,4.5-1.4c1.4-0.7,3.3,0.2,4.2-1.6c1.2-0.4,1.1-1.7,1.8-2.6
			c3.7-5,8.5-8.4,14.1-10.8c7-3.1,15.3-0.7,17.2,8.7c1.3,6.5,1.8,13,2.6,19.5C227.3,172.8,227.2,173.4,228,173.7z"/>
		<path class="st0" d="M167.7,60.7c4.3-2,8.7-4,13-6.1c1-0.5,2.3-0.5,2.5-2c0.8-0.4,1.5-0.6,1-1.9c-0.5-1.4,0-2.2,1.7-1.6
			c0.2,0,0.3,0.1,0.3,0.2c0.1,0.2,0.1,0.6,0.5,0.2c0.5,0,0.9,0.2,1.3,0.6c0.1,0.1,0.3,0.2,0.4,0.3l0,0c0.4,1,1.3,0.9,2.1,0.9
			c0.2,0.1,0.3,0.2,0.5,0.2c0.1,0.1,0.2,0.2,0.3,0.2c2.2,0.6,1.9,3.2,3.5,4.4c1.1-2.5,2-5.1,5-5.8c0.9,0.1,1.9,0.3,1.9-1.1
			c0-0.1,0-0.2,0-0.3c0.2,0,0.3,0,0.5,0c0.4,0.3,0.6,0.1,0.7-0.3l0,0c0.1-0.1,0.3-0.2,0.4-0.3c0.9-0.5,1.7-0.9,2.6-1.4
			c1.5-0.7,2.6-1.2,2.8,1.4c0.2,2,1.3,3.6,3.7,4.4c4,1.4,7.8,3.4,11.9,4.6c1.1,0.9,2.3,1.5,3.7,1.8c3.6,0.8,5.4,3.3,6.3,6.7
			c1,4.2,1.8,8.4,1.9,12.7c0.3,12.3-0.3,24.5-2.2,36.7c-0.2,1.1-0.5,2.3-0.5,3.4c-0.2,4.4-3.7,6.2-6.5,8.6c-1.9,1.4-3.8,2.8-5.8,4.1
			c-4.9,3.3-9.9,6.6-14.9,9.8c-3.4,2.2-6.9,4.3-10.4,6.5c-0.9,0.5-1.9,0.7-2.9,0.3c-1.5-2.6-3-5.3-5.3-7.3c-0.1-0.8-0.8-0.8-1.4-0.8
			c-0.1-0.1-0.2-0.2-0.4-0.3c-0.1-0.4-0.4-0.5-0.7-0.6c-0.2-0.1-0.3-0.3-0.5-0.4c-0.2-0.1-0.4-0.3-0.6-0.4c-0.1,0.1-0.2,0-0.2-0.1
			c-0.2-0.1-0.4-0.2-0.7-0.4c-0.2,0-0.4,0-0.6-0.1c-0.1-0.8-0.6-1.4-1.5-1.1c-1.7,0.6-2.3-0.4-2.8-1.8c-1.9-5.8-3.8-11.7-5.7-17.5
			c-0.8-2.4-2.1-4.6-2.2-7.1c-0.3-8.5,0.4-16.9,0.5-25.4c0-1.8,0.5-3.6,0.5-5.3C171.7,72.8,172.9,66,167.7,60.7z M227.8,60.6
			c-1.5,0.1-2.9,0-4.1,1c-2.2,1.9-4.1,3.9-5.4,6.6c-1,2.2-2.2,4.3-3.4,6.4c-1.2,2.1-2.1,2.1-3.8,0.4c-0.6-0.6-1.2-1.2-1.8-1.8
			c-0.3-0.3-0.8-0.6-1.1-0.1c-0.3,0.3,0.1,0.6,0.2,0.9c0.9,1.7,2.6,2.6,3.8,4.1c0.6,0.8,1.7,1.8,1,2.8c-0.7,1.1-1.6-0.3-2.5-0.4
			c-0.3,0-0.5-0.2-0.8-0.3c-0.8-0.2-1.8-0.5-2.3,0.5c-0.5,1,0.5,1.4,1.1,1.8c3.1,2.2,4.4,5.2,4.9,8.9c0.3,2-0.2,3.9,0.1,5.9
			c0.5,3.4,0.6,7-0.1,10.3c-0.8,3.8-3.2,7-6.8,8.9c-1.5,0.8-2.8,2-4,3.2c-0.4,0.5-1.3,1-0.8,1.6c0.7,0.8,1.3-0.2,1.8-0.6
			c2.7-1.9,5.2-4.4,8.2-5.8c4-2,4.8-4.4,4.3-8.9c-0.9-8.3-1.4-16.7-1.1-25.1c0.1-3.3,1.1-6.2,2.7-9.1
			C220.4,67.5,223.3,63.5,227.8,60.6z"/>
		<path class="st1" d="M111.7,237.5c-0.4,2.6,0.5,5,1.1,7.4c2.8,12.2,7.1,23.9,12.2,35.3c1.4,3,1.2,3.9-1.8,5.4
			c-4,2-8.3,2.1-12.6,1.7c-2.4-0.2-4.7-0.5-7-1.3c-0.8-0.3-1.4,0-2,0.3c-6.8,3.3-13.8,4.2-21.1,2.4c-2.5-0.6-5.1-0.1-7.7-0.6
			c-5-1-9.4-2.9-13.4-6.1c-1-0.8-1.9-1-3.1-1c-6.9-0.3-13.3-2.1-19.1-5.8c-0.8-0.5-1.5-1.2-2.1-1.8c-1.9-2-1.9-2.4-0.3-4.7
			c15.1-20.4,27.6-42.4,38.2-65.5c1.2-2.6,3-4.9,3-7.9c2.1-1.4,2.3-4,3.4-5.9c0.5-0.9,1-1.8,0.7-3c-2.3-8.6-3-17.5-5.2-26.1
			c-0.1-0.5,0.3-0.6,0.6-0.7c1,0.5,1.5,1.5,2,2.5c0.4,0.9,0.7,1.7,1.8,1.9c0.1,0,0.1,0.1,0.1,0.2c0.6,0.7-0.3,3.5,2.3,1.8
			c0.1-0.1,0.6,0,0.7,0.2c1.4,2.5,2.8,1.6,4.2,0c0.2,0.3,0.4,0.5,0.6,0.8c-0.4,0.5-0.1,1,0.4,1.1c0.7,0.1,1-0.5,1.3-1.1
			c-0.2-2-1.3-3.6-1.9-5.5c0.8-0.1,1,0.4,1.3,0.8c0.5,0.6,0.8,1.9,1.8,1.4c1.2-0.6,0.3-1.7,0-2.5c-1.1-3-2.4-6-3.6-8.9
			c-0.5-1.3-2.2-2.6-1.1-3.8c1.1-1.2,2.8-0.2,4.2,0.2c0.8,0.2,1.8,0.5,2.1-0.3c0.4-1-0.7-1.2-1.4-1.5c-3.7-1.9-7.7-2.7-11.7-3.2
			c0.9-1.3,2-2.3,1.3-4.2c-1.2-3.4-1.1-3.4,2.5-3.8c0.3,0,0.6,0,0.9,0c5.8-0.3,11.6-0.4,17.3-1c3.1-0.3,6.1-0.2,9.2-0.7
			c2.9-0.5,6-0.4,8.9-0.5c1,0,1.9,0.1,2,1.4c0.1,1.8,0.4,3.6,0.5,5.3c0.5,10.5-1.4,20.7-3.3,30.8c-1.5,8.1-3.3,16.3-5.6,24.2
			c-2.6,8.6-2.9,17.3-2.7,26.1c0,3,0.3,6,0.6,9C110.4,232.5,110.1,235.2,111.7,237.5z M102.2,190.2c-0.4,0.4-0.5,0.5-0.6,0.6
			c-0.1,0.3-0.2,0.7-0.4,1c-2.3,4.9-4.1,9.9-8.5,13.6c-2.9,2.4-6,5-8.3,8.1c-3.3,4.3-5.7,9.1-8.4,13.7c-4.5,7.9-8.5,16-12,24.4
			c-2.8,6.6-5.4,13.2-7.3,20.1c-0.8,2.8-0.4,4.1,2,5.8c2.9,2.1,6.3,2.2,9.7,2.1c1.4,0,2.4,0.3,3.5,1.3c2.4,2.1,5,3.7,8.3,4.1
			c1.7,0.2,3.4-0.2,5.1,0.2c4.3,1.1,8.5,0.4,12.2-2c1.3-0.9,2.4-0.8,3.8-0.5c3.4,0.7,6.9,0.9,10.1-0.7c1.8-0.9,3.3-2.2,2.9-4.7
			c-1-6-1.9-12-3-18c-1.6-9.5-3.8-18.8-6.4-28c-1.5-5.3-2.8-10.7-5-15.8c-0.3-0.8-0.3-1.5-0.2-2.3
			C100.5,205.7,101.3,198.2,102.2,190.2z"/>
		<path class="st2" d="M111.7,237.5c-1.6-2.2-1.3-4.9-1.6-7.4c-0.4-3-0.6-6-0.6-9c-0.1-8.8,0.2-17.6,2.7-26.1
			c2.4-7.9,4.1-16.1,5.6-24.2c1.9-10.2,3.8-20.4,3.3-30.8c-0.1-1.8-0.3-3.6-0.5-5.3c-0.1-1.3-1-1.4-2-1.4c-3,0.1-6,0-8.9,0.5
			c-3.1,0.5-6.1,0.3-9.2,0.7c-5.8,0.6-11.6,0.7-17.3,1c-0.3,0-0.6,0-0.9,0c-3.6,0.4-3.7,0.5-2.5,3.8c0.7,1.9-0.5,2.9-1.3,4.2
			c-1.7,0.3-2.8,1.7-4.1,2.7c-2.2,1.7-2.5,3.1-1.3,5.7c0.2,0.5,0.4,1.1,0.7,1.6c-0.2,1.1,0.1,2.1,0.7,3.1c0.5,0.9,1.3,1.8,1.1,2.9
			c-0.4,0.1-0.8,0.2-0.6,0.7c2.2,8.6,2.9,17.5,5.2,26.1c0.3,1.2-0.2,2.2-0.7,3c-1.2,2-1.4,4.5-3.4,5.9c-2-6.8-2.9-13.7-3.9-20.7
			c-0.9-6.6-1.3-13.3-1.8-20.4c-2.3,3-4.4,5.6-6.6,8.4c-2.7-4.6-3.8-9.5-4.5-14.4c-2.2-15.9-1.8-31.8,0.6-47.6
			c1.1-7.3,2-14.6,4.1-21.7c1.3-4.3,2.8-8.6,6.4-11.6c0.9,0.1,2.2-0.3,2.3,1.2c0,1.5,1.1,2.1,2,2.8c0.5,0.4,1.3,0.8,1.2,1.4
			c-0.2,1.3,0.7,2,1.4,2.7c1,0.5,2.1,0.8,1.6,2.3c-0.2,0.9-0.7,1.8-0.7,2.7c0,3.2-1.1,6-2.5,8.8c-0.9,1.8-0.8,3.4,0.1,5.1
			c0.6,1.2,1.3,2.3,1.7,3.5c0.9,2.7,2.8,3.6,5.4,3.5c7.5-0.2,15-1.2,22.5-0.9c4.2,0.2,7.8-0.4,10.8-4.1c3.3-4.1,4.5-6.7,2.3-11.6
			c-1.5-3.3-2-6.8-1.3-10.2c0.3-1.8,0.7-3.6,0.7-5.5c0.3-0.6,0.4-1.1,0-1.7c0.4-0.3,0.5-0.8,0.4-1.3c2.2,1.6,3.6,3.8,5.1,6
			c10.2,15.1,17.2,31.5,21,49.4c0.1,0.7,0.2,1.4,0.3,2.1c0.4,4.8-0.5,5.1-4,4.7c-1.8-0.2-2.6,0.8-3,2.6
			c-7.6,33.3-15.1,66.7-23.7,99.7C113.2,232.9,112.7,235.2,111.7,237.5z M118.1,127.9c0.2,0.3,0.4,0.7,0.6,1c-0.5,1.1-0.7,2,1.1,1.4
			c1.3-0.5,2.5-0.9,3.2-2.2c0.9-0.7,0.8-1.8,1.1-2.7c0.7,1.4,1.4,0.7,2,0c2.8-3.2,5.5-6.5,8-10c0.6-0.8,0.5-1.1-0.4-1.6
			c-2.8-1.4-5.8-1.8-8.9-2.2c-1.2-0.2-1.9,0.4-2.3,1.5c-0.7,1.7-1.5,3.4-2.3,5c-1.5-1.2-3-2.7-5.1-0.8c0.4-0.9,0.4-1.8,0.1-2.9
			c-0.8-2.5-1.6-5-1.4-7.5c0.1-2.2-0.7-2.7-2.7-2.6c-7.9,0.4-15.7,0.6-23.6,0.9c-1.8,0.1-3.6,0.3-5.3,0.4c-0.8,0.1-1.2,0.4-1.1,1.2
			c0.8,3.7-0.4,7.2-1.2,10.8c-0.7,3-1.6,5.9-2,9c-0.2,2,0.6,2.8,2.7,2.7c8.3-0.1,16.6-0.1,25,0c1,0,2-0.2,3-0.5c0.3,1.9,2,1,2.7,1.4
			c2.4,1.6,3.4-0.3,4.9-1.2c0.2-0.2,0.5-0.4,0.7-0.6C117.3,128.2,117.7,128.1,118.1,127.9z"/>
		<path class="st1" d="M77.2,75.4c-0.7-0.8-1.6-1.4-1.4-2.7c0.1-0.6-0.7-1-1.2-1.4c-0.9-0.7-2-1.3-2-2.8c0-1.5-1.3-1.1-2.3-1.2
			c0.9-0.6,2-1,3.1-1.2c0.1-0.1,0.3-0.1,0.4-0.2c-1.4-6-1.5-12.2-2.2-18.4C70.1,34.3,75.8,24,86,16.2c7.3-5.5,15.2-4.9,21.7,1.5
			c11.3,11.1,15.6,24.4,11.8,40c-0.5,2-1.3,3.9-2.8,5.5c-0.8,0.1-0.6,1-1.2,1.3c-2.2,0.1-3.8,1.4-5.2,2.9c-5.4,5.8-12.3,6.8-19.7,6
			c-2.3-0.3-4.4-1.1-6.6-1.6c2.5,2.4,5.6,3.1,8.8,3.5c3.6,0.5,7.3-0.9,10.9,0.2c0.2,0.1,0.5-0.1,0.7-0.3c1.5-1.4,2.2-0.7,2.6,1
			c-5.4,2.5-10.9,4.1-16.9,3c-0.7-0.1-1.4-0.2-2,0.4c-1.1-0.5-2.2-1.3-3.3-1.6c-1.7-0.5-2.8-2.2-4.8-2.3
			C79.3,74.1,78,75.9,77.2,75.4z M89.7,45.3c0.6-0.1,1.2,0,1.7-0.2c2.3-1.1,4.6-1.1,7-0.8c1.4,0.2,2.6,1.1,4.1,1
			c0.9,1.6,3.7,2.9,5.4,2.5c1.9-0.5,1.7-2.3,1.9-3.7c0.8-4.3-1.1-8.1-2.2-12c-0.3-0.9-1.1-1-2-0.9c-0.2,0-0.3-0.1-0.5-0.1
			c-0.1-0.1-0.2-0.3-0.3-0.4c-0.1-0.1-0.2-0.2-0.4-0.1c-5.8-1.9-11.5-2.3-17.1,1c-3.1,1.5-3.3,4.5-3.8,7.3c-0.1,0.2-0.3,0.3-0.4,0.5
			c-1.6,2.5-0.7,5.1-0.3,7.7c0.1,0.4,0.5,0.7,0.9,0.8C85.5,48.2,88.9,46.8,89.7,45.3z M97.2,65.8c-6.1-2.4-14-1.1-17.5-8.8
			C81.3,64.2,88,67.4,97.2,65.8z M75.2,49.3c-0.4,3.8,0,7.6,1.4,11.1c0.7,1.7,1.7,3.1,3.5,4c0.3,0.2,0.7,0.3,1,0.1
			c0.4-0.3,0.1-0.7-0.1-0.9C77.4,59.4,75.6,54.7,75.2,49.3z M113.1,57c-2.8,4.6-6.3,7.6-11.1,10C107,67,112.6,62.2,113.1,57z
			 M79.1,56.1c0-0.1-0.1-0.2-0.1-0.3c0,0-0.2,0-0.2,0c0,0.1,0,0.2,0,0.3C78.9,56.1,79,56.1,79.1,56.1z"/>
		<path class="st3" d="M167.7,60.7c5.3,5.3,4.1,12.1,4,18.6c0,1.8-0.5,3.6-0.5,5.3c-0.1,8.5-0.8,16.9-0.5,25.4
			c0.1,2.6,1.4,4.8,2.2,7.1c1.9,5.8,3.8,11.6,5.7,17.5c0.4,1.4,1.1,2.3,2.8,1.8c0.9-0.3,1.3,0.3,1.5,1.1c-4.3-1-8.4,0.5-12.6,1.1
			c-1.7,0.2-3.8,0.5-3.7,3.1c-2-0.8-1.8-2.8-2.3-4.3c-2.5-6.7-4.6-13.6-7.2-20.2c-1.4-3.6-0.4-6.9,0.1-10.3
			c1.6-10.5,3.3-21,5.5-31.5c0.8-3.8,1.7-7.5,2.7-11.3C165.6,62.8,165.9,61.1,167.7,60.7z"/>
		<path class="st0" d="M209.2,11.4c0.1,0.1,0.3,0.1,0.4,0.2c4.2,6.6,9.9,12.6,10.8,20.9c0.7,6.6,2,13.1,3.3,19.6
			c-0.6-0.1-0.7-0.6-0.9-1.1c-1.2-3.3-2.5-6.5-3.7-9.8c-1.2-3.2-2.6-6.4-1.5-10c0.1-0.3-0.2-0.8-0.3-1.2c-0.8-3.1-3.6-4.3-5.9-5.8
			c-1.3-0.2-2.4-1.2-3.9-1c-0.5-0.6-1.2-0.6-1.9-0.7c-5-1.4-10.2-1.9-14.6-5c-0.2-0.1-0.3-0.2-0.5-0.4c-0.3-0.6-0.7-1.2-1.5-1.4
			c-0.3-0.7-0.7-1.1-1.4-0.8c-1,0.5-1,1.5-1.1,2.5c0.1,3-0.2,5.8-1.6,8.5c0,0,0,0,0,0c-1.2,1-2.1,2.2-2.6,3.6
			c-0.6,0.6-1.2,1.2-1.7,1.7c-1.3,0-1.6,0.6-1,1.7c0,0.3,0,0.6,0,0.9c-0.6,0.1-1,0.5-1.4,0.9c-2.4,2.9-2.5,7.1-0.5,10.6
			c0.9,1.6,2.7,2.8,2.8,4.9c-3.4-2.1-5.7-5.1-6.8-9c-0.2-0.9-0.2-1.7,0.2-2.5c2.8-4.6,2.7-9.8,3.5-14.9c0.6-3.9,1-7.8,3-11.3
			c0.3-0.5,0.5-1.2,1.3-1.3c1.1,0.7,2.4,1.1,3.6,1.3c5.4,1.1,10.8,1.2,16.3,0.6C204.4,13.2,207,12.9,209.2,11.4z"/>
		<path class="st4" d="M166.5,141.7c-0.1-2.6,2.1-2.9,3.7-3.1c4.2-0.6,8.3-2.2,12.6-1.1c0.2,0,0.4,0,0.6,0.1
			c0.2,0.1,0.4,0.2,0.7,0.4c0.1,0.1,0.1,0.1,0.2,0.1c0.2,0.1,0.4,0.3,0.6,0.4c0.2,0.1,0.3,0.3,0.5,0.4c0.1,0.4,0.4,0.5,0.7,0.6
			c0.1,0.1,0.2,0.2,0.4,0.3c0.3,0.5,0.8,0.8,1.4,0.8c2.3,2,3.8,4.7,5.3,7.3c-1.4,1-2.7,2.1-4.1,3.1c-1.5,0.5-2.7,1.5-3.6,2.6
			c-1.8,2.5-4.6,2.7-7.2,3.6c-0.8,0.3-1.4,0.4-0.8,1.4c-2.9-0.8-5.9-1-8.6-2.4c-0.5-1.1-1.6-1.6-2.6-2.1c-3-1.7-3.2-4.2-0.6-6.4
			C168.1,145.7,168.2,145.3,166.5,141.7z"/>
		<path class="st3" d="M207.4,261.2c3.6,0.3,7.1-0.7,10.7-0.9c1.2-0.1,1.6-0.7,1.6-2c0-3.8,0.3-7.7,0.5-11.5
			c0.1-2.1,0.2-4.2,0.3-6.9c1,1.6,1.2,2.7,1.1,3.9c-0.1,5,1.2,9.8,1.4,14.7c0,1.1,0.5,2.1,2,1.9c-0.6,2.6-0.6,5,1.5,7.1
			c1.2,1.2,0.2,2.4-0.9,3.2c-3.5,2.4-3.8,4.5-0.9,7.4c0.9,0.9,0.7,1.6-0.1,2.4c-1,1-2.4,1.2-3.7,1.7c-4.5-0.1-9-0.3-13.5-0.4
			c-1.6-1.5-0.5-3.4-0.5-5.1c0-1-0.1-1.7-0.8-2.5c-1.5-1.6-1.7-3.5-0.3-5.1C208,266.6,207.9,263.9,207.4,261.2z"/>
		<path class="st3" d="M189.2,150.9c1.4-1,2.7-2.1,4.1-3.1c1,0.4,2,0.3,2.9-0.3c3.5-2.1,6.9-4.3,10.4-6.5c5-3.2,9.9-6.5,14.9-9.8
			c2-1.3,3.8-2.7,5.8-4.1c0,4.9,0,9.7,0.1,14.6c0.2,9.3,0.5,18.6,0.8,27.9c0,1.4,0,2.7,0,4.1c-0.8-0.2-0.7-0.9-0.8-1.6
			c-0.8-6.5-1.4-13.1-2.6-19.5c-1.9-9.4-10.2-11.8-17.2-8.7c-5.6,2.5-10.4,5.8-14.1,10.8c-0.6,0.8-0.6,2.1-1.8,2.6
			C191.2,155,189.7,153.1,189.2,150.9z"/>
		<path class="st3" d="M173.8,258.6c3.6-0.3,7,1.2,10.5,1.5c2.1,0.2,4.3,0,6.3,0.7c-0.2,1,0.2,1.8,0.4,2.7c0.4,1.4,0.1,2.6-0.7,3.8
			c-1.2,1.5-1.4,3.1-0.4,4.9c1,1.9-1,2.9-1.6,4.3c-0.5,0-1,0-1.5,0c-4.3-0.4-8.6-0.8-12.9-1.1c-0.2-0.9-1-1.1-1.6-1.5
			c-1.3-0.8-1.4-1.7-0.1-2.7c0.3-0.3,0.7-0.5,1.1-0.7c1.9-1.3,1.9-2.4-0.2-3.6c-3.2-1.8-3.3-2.8-0.4-5
			C173.5,261,174.6,260.2,173.8,258.6z"/>
		<path class="st3" d="M211.5,24.2c2.3,1.6,5.1,2.7,5.9,5.8c0.1,0.4,0.4,0.9,0.3,1.2c-1.1,3.6,0.3,6.7,1.5,10
			c1.2,3.3,2.4,6.5,3.7,9.8c0.2,0.5,0.3,1,0.9,1.1c0.1,0.9,0.3,1.8,0.4,2.6c-0.3,0-0.6,0.1-0.5,0.4c0,0.2,0.4,0.3,0.5,0.4
			c0.5,0.5,0.4,1.1,0.3,1.8c-4.1-1.2-7.9-3.2-11.9-4.6c-2.4-0.8-3.5-2.4-3.7-4.4c-0.2-2.6-1.3-2-2.8-1.4c-0.1-0.6-0.2-1.1-0.2-1.7
			c1.4-2.1,2.2-4.5,3.2-6.8c2.3-1.1,3.6-6.6,2.1-9.1C211.1,27.6,212,26,211.5,24.2z"/>
		<path class="st1" d="M173.8,275.3c4.3,0.4,8.6,0.8,12.9,1.1c2.4,2.5,1.6,5.3-1.7,6.3c-2.8,0.9-5.7,1.4-8.3,2.8
			c-6.6,3.7-13.5,5.4-21,3c-0.1-0.1,0-0.2,0.1-0.3c0.1-0.3,0.1-0.6-0.1-0.8c0-0.4,0.2-0.7,0.5-0.8c1.4-0.1,2.1-0.8,2-2.2
			c0,0,0,0,0,0c1.4,0,2.2-0.8,2.6-2.1c0.1-0.1,0.2-0.2,0.3-0.1c1.5-0.1,3.4,0.7,3.5-1.9C167.7,278.7,170.8,277,173.8,275.3z"/>
		<path class="st1" d="M207.5,281.6c4.5,0.1,9,0.3,13.5,0.4c0.4,1.9,0.7,3.9,0.6,5.9c-0.1,3.6-0.7,4.5-5,6.2
			c-3.8,1.5-7.3,0.1-10.9-0.6c-0.9-0.2-1-0.9-0.9-1.7c0.1-1.5,0.3-3,0.4-4.5c-0.1-0.1,0-0.3,0.1-0.4c1-0.8,1.6-1.7,1.2-3
			C206.5,283.1,207,282.3,207.5,281.6z"/>
		<path class="st0" d="M183.7,8.9c4.2-6.2,16-9.1,22.2-2.1c0.6,0.7,1.5,1.1,1.8,2.1c-4.6,0.3-9.2,1.3-13.8,1
			C190.5,9.6,187.1,9.3,183.7,8.9z"/>
		<path class="st3" d="M180.6,50.4c-0.2-2.1-1.9-3.2-2.8-4.9c-2-3.6-1.9-7.7,0.5-10.6c0.4-0.5,0.8-0.8,1.4-0.9
			c0.9,1.4,0.5,3.6,2.6,4.3c0.2,0.3,0.4,0.6,0.7,0.9c0.3,2.7,2,4.7,3.3,7c-0.6,0.9-0.4,1.9-0.3,2.9c-1.6-0.5-2.2,0.3-1.7,1.6
			c0.5,1.2-0.2,1.5-1,1.9C182.2,52.1,181.3,51.4,180.6,50.4z"/>
		<path class="st1" d="M183.7,8.9c3.4,0.3,6.8,0.7,10.2,1c4.7,0.4,9.2-0.7,13.8-1c1.2,1.2-0.4,1-0.8,1.4c-0.2,0.1-0.3,0.1-0.5,0.2
			c0.2,0.1,0.3,0.1,0.5,0.2c0.7,0.3,1.9-0.8,2.3,0.7c-2.2,1.5-4.8,1.8-7.4,2.1c-5.5,0.6-10.9,0.5-16.3-0.6c-1.3-0.3-2.5-0.7-3.6-1.3
			c0.5-1.7,1.7-0.5,2.6-0.7c0.8,0.6,1.7,0.5,3.2,0.1c-1.5-0.3-2.4-0.5-3.2-0.6c-0.6-0.1-1.2-0.2-1.5-0.9
			C182.9,9.1,183.4,9.1,183.7,8.9z M203.9,11.2c-1.8,0.1-3.6-0.2-5.3,0.6C200.3,11.7,202.2,11.8,203.9,11.2c0.6,0,1.2,0,2.2,0
			C205,10.6,204.4,10.8,203.9,11.2z M188.6,11.3c1.9,0.4,3.9,1.2,6,0C192.5,11.3,190.5,11.3,188.6,11.3z"/>
		<path class="st5" d="M155.7,288.6c7.5,2.4,14.4,0.7,21-3c2.6-1.5,5.5-2,8.3-2.8c3.3-1,4.1-3.8,1.7-6.3c0.5,0,1,0,1.5,0
			c0,2.2,0.8,4.8-0.1,6.5c-0.9,1.7-3.8,1.5-5.8,2c-3.5,0.9-6.6,2.7-9.8,4.2c-5,2.3-10,2.6-15.2,1.3
			C156.3,290.3,155.1,290.1,155.7,288.6z"/>
		<path class="st5" d="M205.2,287.4c-0.1,1.5-0.3,3-0.4,4.5c-0.1,0.7,0,1.5,0.9,1.7c3.6,0.7,7.1,2.1,10.9,0.6c4.3-1.7,4.8-2.7,5-6.2
			c0.9,4.5-1.3,7.4-6.4,8.2c-3.3,0.5-6.4,0.1-9.5-1c-1.2-0.4-1.9-1.2-1.7-2.5C204.1,290.8,204.4,289,205.2,287.4z"/>
		<path class="st6" d="M115.5,64.6c0.5-0.3,0.4-1.2,1.2-1.3c-0.4,1.4,1.1,1.7,1.5,2.7c0.1,0.5-0.1,0.9-0.4,1.3
			c-0.8,0.3-0.9,1.1-1.4,1.7c-1.5-0.4-2.2,0.2-2.4,1.7c-1.3,0.7-2.6,1.7-4.2,1.3c0,0,0,0,0,0c-0.1-0.4-0.1-0.7-0.2-1.1
			c2.3-1.5,3.7-3.8,5.9-5.4C115.8,65.2,115.6,64.9,115.5,64.6z"/>
		<path class="st5" d="M164.6,280.3c-0.1,2.6-2.1,1.8-3.5,1.9C162.3,281.6,163.5,281,164.6,280.3z"/>
		<path class="st5" d="M158.2,284.4c0.1,1.4-0.7,2.1-2,2.2C156.7,285.7,157.3,284.9,158.2,284.4z"/>
		<path class="st5" d="M160.8,282.3c-0.4,1.3-1.2,2.1-2.6,2.1C158.9,283.5,159.7,282.7,160.8,282.3z"/>
		<path class="st5" d="M206.5,284c0.4,1.3-0.2,2.3-1.2,3C205.5,285.9,205.8,284.9,206.5,284z"/>
		<path class="st6" d="M184.5,10.3c0.9,0.2,1.8,0.3,3.2,0.6c-1.5,0.3-2.4,0.5-3.2-0.1C184.5,10.7,184.5,10.5,184.5,10.3z"/>
		<path class="st0" d="M224.1,55.6c-0.2-0.1-0.5-0.3-0.5-0.4c-0.1-0.3,0.3-0.4,0.5-0.4C224.1,55,224.1,55.3,224.1,55.6z"/>
		<path class="st5" d="M155.7,287.5c0.2,0.2,0.3,0.5,0.1,0.8C155.5,288.1,155.5,287.8,155.7,287.5z"/>
		<path class="st2" d="M73.7,65.9c-0.1,0.1-0.3,0.1-0.4,0.2C73.5,65.9,73.6,65.9,73.7,65.9z"/>
		<path class="st7" d="M207,10.7c-0.2-0.1-0.3-0.1-0.5-0.2c0.2-0.1,0.3-0.1,0.5-0.2C206.9,10.5,206.9,10.6,207,10.7z"/>
		<path class="st8" d="M189.2,150.9c0.5,2.2,2,4.1,2.3,6.4c-0.9,1.8-2.8,0.9-4.2,1.6c-1.4,0.7-3.1,0.6-4.5,1.4
			c-0.7,0.4-1.5,0.2-2-0.4c-0.9-1-2.1-1.1-3.2-1.4c-0.5-1,0-1.1,0.8-1.4c2.5-0.9,5.4-1.1,7.2-3.6
			C186.5,152.4,187.7,151.4,189.2,150.9z"/>
		<path class="st3" d="M227.8,60.6c-4.4,2.9-7.4,6.9-9.9,11.3c-1.6,2.9-2.6,5.8-2.7,9.1c-0.3,8.4,0.2,16.8,1.1,25.1
			c0.5,4.5-0.3,6.9-4.3,8.9c-3,1.5-5.4,3.9-8.2,5.8c-0.5,0.3-1.1,1.4-1.8,0.6c-0.5-0.6,0.4-1.1,0.8-1.6c1.2-1.3,2.4-2.4,4-3.2
			c3.7-1.9,6-5.1,6.8-8.9c0.7-3.3,0.5-6.9,0.1-10.3c-0.3-2,0.2-3.9-0.1-5.9c-0.5-3.7-1.8-6.7-4.9-8.9c-0.6-0.4-1.6-0.9-1.1-1.8
			c0.5-1,1.4-0.7,2.3-0.5c0.3,0.1,0.5,0.2,0.8,0.3c0.9,0.1,1.8,1.4,2.5,0.4c0.7-1-0.4-2-1-2.8c-1.1-1.5-2.9-2.4-3.8-4.1
			c-0.2-0.3-0.5-0.6-0.2-0.9c0.4-0.4,0.8-0.2,1.1,0.1c0.6,0.6,1.3,1.2,1.8,1.8c1.6,1.7,2.5,1.7,3.8-0.4c1.2-2.1,2.4-4.2,3.4-6.4
			c1.2-2.7,3.2-4.7,5.4-6.6C224.8,60.7,226.3,60.7,227.8,60.6z"/>
		<path class="st8" d="M185.9,49.1c-0.1-1-0.4-2,0.3-2.9c0.2,0,0.3,0,0.5,0c0.3,0.4,0.7,0.8,1.3,0.8l0,0c1.3,2.8,4,2.7,6.4,3.1
			c0.6,0.4,1.2,0.3,1.8,0.2c1.3-0.2,2.7-0.3,4-0.5c-0.1,0.2-0.2,0.4-0.3,0.6c-3,0.7-4,3.3-5,5.8c-1.6-1.3-1.3-3.8-3.5-4.4
			c-0.1-0.1-0.2-0.1-0.3-0.2c-0.2-0.1-0.3-0.2-0.5-0.2c-0.6-0.6-1.3-0.9-2.1-0.9c0,0,0,0,0,0c-0.1-0.1-0.3-0.2-0.4-0.3
			c-0.4-0.3-0.8-0.6-1.3-0.6c-0.2-0.1-0.3-0.2-0.5-0.2C186.2,49.1,186,49.1,185.9,49.1z"/>
		<path class="st9" d="M209,38.4c-1,2.3-1.8,4.7-3.2,6.8c-2.4,0.6-4.1,2.1-4.1,3.6c0,0.1,0,0.2,0,0.3c-0.4,0.1-0.8,0.2-1.2,0.3
			c-0.4-0.9-1.2-0.8-2-0.8c-1,0-1.8-0.2-2.1-1.3c2.1-0.4,3.9-1.4,5.5-2.7c2-0.2,2.5-1.3,1.8-3.1c-0.6-1.4,0-1.7,1.3-1.4
			c1.4,0.4,2.2,0,2.3-1.5c0.1-0.8,0.3-1.6,1.3-1.6C208.8,37.5,208.9,37.9,209,38.4z"/>
		<path class="st10" d="M201.8,48.9c0-1.5,1.7-3,4.1-3.6c0.1,0.6,0.2,1.1,0.2,1.7c-0.9,0.5-1.7,0.9-2.6,1.4
			c-0.3-0.1-0.4,0.1-0.4,0.3c0,0,0,0,0,0c-0.2,0.1-0.5,0.2-0.7,0.3C202.1,48.9,201.9,48.9,201.8,48.9z"/>
		<path class="st3" d="M200.5,49.5c0.4-0.1,0.8-0.2,1.2-0.3c0,1.4-1,1.2-1.9,1.1c0.1-0.2,0.2-0.4,0.3-0.6
			C200.3,49.6,200.4,49.5,200.5,49.5z"/>
		<path class="st3" d="M188.4,50.4c0.8,0,1.5,0.3,2.1,0.9C189.7,51.3,188.8,51.4,188.4,50.4z"/>
		<path class="st3" d="M188,140.5c-0.6,0-1.1-0.3-1.4-0.8C187.2,139.6,187.8,139.6,188,140.5z"/>
		<path class="st3" d="M186.2,139.3c-0.3-0.1-0.6-0.2-0.7-0.6C185.8,138.8,186.1,139,186.2,139.3z"/>
		<path class="st3" d="M186.2,49.3c0.2,0.1,0.3,0.2,0.5,0.2C186.3,49.8,186.3,49.5,186.2,49.3z"/>
		<path class="st3" d="M202.3,48.9c0.2-0.1,0.5-0.2,0.7-0.3C202.9,49,202.6,49.1,202.3,48.9z"/>
		<path class="st3" d="M185,138.4c-0.2-0.1-0.4-0.3-0.6-0.4C184.5,138.1,184.7,138.2,185,138.4z"/>
		<path class="st3" d="M191,51.5c0.1,0.1,0.2,0.1,0.3,0.2C191.2,51.7,191.1,51.6,191,51.5z"/>
		<path class="st3" d="M184.1,137.9c-0.2-0.1-0.4-0.2-0.7-0.4C183.7,137.6,183.9,137.8,184.1,137.9z"/>
		<path class="st3" d="M188,50.1c0.1,0.1,0.3,0.2,0.4,0.3C188.3,50.3,188.1,50.2,188,50.1z"/>
		<path class="st3" d="M203,48.6c0-0.3,0.2-0.4,0.4-0.3C203.3,48.4,203.2,48.5,203,48.6z"/>
		<path class="st2" d="M102.2,190.2c-0.9,7.9-1.7,15.4-2.5,22.9c-0.1,0.8-0.1,1.6,0.2,2.3c2.1,5.1,3.5,10.5,5,15.8
			c2.6,9.2,4.8,18.6,6.4,28c1,6,1.9,12,3,18c0.4,2.5-1.1,3.8-2.9,4.7c-3.2,1.6-6.7,1.4-10.1,0.7c-1.4-0.3-2.4-0.3-3.8,0.5
			c-3.7,2.4-7.8,3.1-12.2,2c-1.7-0.4-3.4,0-5.1-0.2c-3.3-0.4-5.9-2-8.3-4.1c-1.1-0.9-2.1-1.3-3.5-1.3c-3.4,0.1-6.7,0-9.7-2.1
			c-2.4-1.7-2.7-3-2-5.8c1.9-6.9,4.5-13.6,7.3-20.1c3.5-8.3,7.5-16.5,12-24.4c2.7-4.6,5.1-9.4,8.4-13.7c2.4-3.1,5.4-5.6,8.3-8.1
			c4.4-3.7,6.3-8.7,8.5-13.6c0.1-0.3,0.2-0.7,0.4-1C101.7,190.8,101.8,190.7,102.2,190.2z M96.4,225c-0.7,0.7-0.6,1.1-0.5,1.5
			c0.9,5.1,1.1,10.4,1.7,15.5c0.4,3.2,0.1,6.3,0.5,9.4c0.8,7,0.1,14-0.3,21c-0.2,2.8-0.4,2.8,2.3,2.9c0.5,0,1,0,1.5,0
			c1.3,0.1,1.8-0.3,2.1-1.7c0.9-4.9-0.2-9.7-0.3-14.5c0-1.6-0.2-3.3-0.5-4.9c-0.6-4.5-1.4-8.9-2.2-13.3
			C99.5,235.6,97.7,230.5,96.4,225z M83.2,224c-3.5,5.6-6.3,11.5-8.5,17.6c-3.3,8.9-6,18-7.2,27.5c-0.4,3-0.4,3.1,2.5,3.6
			c0.6,0.1,1.3,0.1,1.9,0.1c0.9,0,1.2-0.4,1.3-1.3c0.2-2.7,0.6-5.4,0.8-8.1c0.8-7.5,2.6-14.8,4.3-22.1
			C79.8,235.5,81.6,229.8,83.2,224z"/>
		<path class="st8" d="M73.8,153.4c-0.2-0.5-0.4-1.1-0.7-1.6c-1.1-2.6-0.8-4,1.3-5.7c1.3-1,2.3-2.4,4.1-2.7c4.1,0.5,8,1.3,11.7,3.2
			c0.6,0.3,1.8,0.6,1.4,1.5c-0.3,0.8-1.3,0.5-2.1,0.3c-1.4-0.4-3.2-1.4-4.2-0.2c-1.1,1.2,0.6,2.6,1.1,3.8c1.2,3,2.4,5.9,3.6,8.9
			c0.3,0.8,1.2,1.9,0,2.5c-1,0.5-1.3-0.8-1.8-1.4c-0.3-0.4-0.4-0.9-1.3-0.8c0.6,1.9,1.8,3.5,1.9,5.5c-0.5,0.2-1.1,0.1-1.6,0
			c-0.2-0.3-0.4-0.5-0.6-0.8c-1.1-2.8-2.3-5.5-4.1-7.9c0.5,2,1.3,3.9,2,5.9c0.3,0.9,1.3,2.2,0.3,2.7c-1.2,0.6-1.5-1.1-2-1.9
			c-0.9-1.6-1.3-3.4-2.8-5c-0.2,1.5,0.7,2.3,0.9,3.3c0.2,0.6,0.9,1.2,0.3,1.8c-0.8,0.7-1.1-0.6-1.7-0.7c0-0.1,0-0.2-0.1-0.2
			C77.5,160.3,75.6,156.8,73.8,153.4z"/>
		<path class="st11" d="M79.4,164c0.6,0.2,0.9,1.5,1.7,0.7c0.6-0.5-0.2-1.2-0.3-1.8c-0.3-1-1.1-1.8-0.9-3.3c1.5,1.6,1.9,3.4,2.8,5
			c0.5,0.9,0.8,2.5,2,1.9c1-0.5,0-1.8-0.3-2.7c-0.7-1.9-1.5-3.8-2-5.9c1.8,2.4,3,5.1,4.1,7.9c-1.4,1.6-2.8,2.5-4.2,0
			c-0.1-0.2-0.6-0.3-0.7-0.2C79.1,167.5,80.1,164.7,79.4,164z"/>
		<path class="st11" d="M73.8,153.4c1.9,3.4,3.7,6.9,5.6,10.3c-1.1-0.1-1.4-1-1.8-1.9c-0.5-0.9-1-1.9-2-2.5c0.2-1.2-0.6-2-1.1-2.9
			C73.9,155.5,73.6,154.5,73.8,153.4z"/>
		<path class="st11" d="M87.2,166.7c0.5,0.1,1.1,0.2,1.6,0c-0.2,0.6-0.6,1.2-1.3,1.1C87,167.8,86.8,167.3,87.2,166.7z"/>
		<path class="st1" d="M108.6,128.8c-1,0.3-1.9,0.5-3,0.5c-8.3,0-16.6-0.1-25,0c-2.1,0-2.9-0.7-2.7-2.7c0.3-3.1,1.3-6,2-9
			c0.8-3.5,1.9-7,1.2-10.8c-0.2-0.8,0.3-1.2,1.1-1.2c1.8-0.1,3.6-0.3,5.3-0.4c7.9-0.3,15.7-0.5,23.6-0.9c2-0.1,2.8,0.4,2.7,2.6
			c-0.2,2.6,0.7,5.1,1.4,7.5c0.3,1,0.3,1.9-0.1,2.9c-0.4,0.4-0.7,0.7-1.1,1.1c-0.2,0.1-0.3,0.2-0.5,0.4c-1,0.6-1.8,1.4-2.4,2.3
			c-1.4,1.4-3.1,2.8-2.3,5C109.4,127.2,109.2,127.9,108.6,128.8z"/>
		<path class="st1" d="M114,70.6c0.1-1.5,0.8-2.2,2.4-1.7c0.5,0,0.9,0,1.4,0c0,1.9-0.3,3.7-0.7,5.5c-0.6,3.5-0.2,6.9,1.3,10.2
			c2.3,4.9,1.1,7.5-2.3,11.6c-3,3.7-6.7,4.3-10.8,4.1c-7.5-0.3-15,0.7-22.5,0.9c-2.7,0.1-4.5-0.8-5.4-3.5c-0.4-1.2-1.1-2.3-1.7-3.5
			c-0.9-1.7-1-3.4-0.1-5.1c1.4-2.7,2.5-5.6,2.5-8.8c0-0.9,0.5-1.8,0.7-2.7c0.3,0.4,0.4,1,1,1.2c0,0,0,0,0,0c0.2,0.4,0.5,0.5,0.9,0.5
			l0,0c0.6,0.8,1.4,0.4,2.1,0.4c0.6,0.2,0.8,0.7,1,1.3c0.5,1.4,1.5,2.2,3,2.1c0.8-0.4,1.6-0.6,1.8,0.7c0.2,0.5,0.3,1.1,1,1.2
			c0.2,0.4,0.5,0.4,0.9,0.5c1.1,0.6,1.9,0.3,2.7-0.5c0.3,0.3,0.5,0.6,0.8,0.8l0,0c0,0.1,0,0.3,0,0.4c1.3,1.4,2.8,1.4,4.2,0.5
			c0.8-0.6,1.3-0.4,2-0.1c1.1,0.4,2.6,2.2,3-0.7c0.1-0.5,0.6-0.1,0.9,0c0.3,0,0.7,0.4,0.7-0.3c0.1-2,1.2,0.7,1.7-0.4
			c1-1.9,0.8,1,1.5,0.4c-0.1-0.7-0.4-1.5,0.8-1.7c1-0.2,1.2-1.1,1-1.8c-0.3-1.1,0.1-1.7,1-2.2c1.8-1,2-2.4,0.9-4
			c0.5-0.8,0.5-1.5-0.6-1.7c-0.6-0.1-1.3,0-1.7-0.7c0.1-0.5,0.2-1,0.3-1.5c0,0,0,0,0,0C111.6,72.9,113,72.7,114,70.6z"/>
		<path class="st1" d="M120.3,118.1c0.8-1.7,1.5-3.3,2.3-5c0.4-1,1.1-1.6,2.3-1.5c3,0.4,6.1,0.8,8.9,2.2c0.9,0.5,1,0.8,0.4,1.6
			c-2.5,3.5-5.2,6.8-8,10c-0.6,0.7-1.4,1.3-2,0c-0.5-1.6-0.7-3.4-2.1-4.7c-0.3-0.8-0.9-1.4-1.5-1.9
			C120.4,118.5,120.4,118.3,120.3,118.1z"/>
		<path class="st12" d="M108.6,128.8c0.6-0.9,0.8-1.6,0.3-2.8c-0.8-2.1,0.9-3.6,2.3-5c0,0,0,0,0,0c-0.3,1.6-2.1,2.6-1.7,4.4
			c0.2,0.9,1.7,1.8,0.2,2.9c-0.1,0.1,0.3,1.1,0.8,1c1.8-0.3,3.8,1.1,5.4-0.7c0.1,0.1,0.1,0.2,0.2,0.2c-1.5,0.9-2.5,2.8-4.9,1.2
			C110.6,129.8,108.9,130.7,108.6,128.8z"/>
		<path class="st12" d="M120.3,118.1c0.1,0.2,0.2,0.4,0.2,0.6c-0.1,0.1-0.2,0.2-0.3,0.3c-1.9-1.9-3.9-1.8-6-0.5l-0.1-0.1
			c0.4-0.4,0.7-0.7,1.1-1.1C117.3,115.4,118.7,116.9,120.3,118.1z"/>
		<path class="st12" d="M122,120.6c1.4,1.3,1.5,3.1,2.1,4.7c-0.3,0.9-0.2,2-1.1,2.7c0,0-0.1-0.1-0.1-0.1
			C123.9,125.4,122.7,123.1,122,120.6L122,120.6z"/>
		<path class="st12" d="M123,128.1c-0.6,1.4-1.9,1.8-3.2,2.2c-1.8,0.7-1.6-0.3-1.1-1.4c0,0,0.2,0,0.2,0s0.2,0,0.2,0
			c0.5,1,1.2,0.4,1.7,0.1c0.6-0.4,1.3-0.9,2.1-1L123,128.1z"/>
		<path class="st12" d="M118.1,127.9c-0.4,0.2-0.8,0.3-1.3,0.5c0,0,0,0,0,0c0.7-2,2.7-2.4,4.2-3.6c0.3,1,0,1.6-0.1,2.1
			C119.9,126.2,119.9,126.2,118.1,127.9z"/>
		<path class="st7" d="M79.8,78.9c-0.6-0.2-0.6-0.8-1-1.2c0.5-1.5-0.7-1.8-1.6-2.3c0.8,0.6,2.1-1.3,2.7,0.5
			C78.6,76.8,80,77.9,79.8,78.9z"/>
		<path class="st13" d="M118.1,127.9c1.8-1.7,1.8-1.7,2.8-1c-0.3,0.9-1.6,1-1.9,2l-0.2,0c0,0-0.2,0-0.2,0
			C118.5,128.6,118.3,128.2,118.1,127.9z"/>
		<path class="st5" d="M117.7,68.9c-0.5,0-0.9,0-1.4,0c0.5-0.5,0.6-1.4,1.4-1.7C118.1,67.8,118.1,68.4,117.7,68.9z"/>
		<path class="st12" d="M116.9,128.4c-0.2,0.2-0.5,0.4-0.7,0.6c-0.1-0.1-0.1-0.2-0.2-0.2C116.3,128.7,116.5,128.5,116.9,128.4
			L116.9,128.4z"/>
		<path class="st12" d="M105.3,31c0.2,0,0.3,0.1,0.5,0.1c0.7,1.6,1.5,3.1,1.3,5c-0.2,0.1-0.4,0.1-0.6,0.2c-2.4-1.3-4.7-1.1-7,0.3
			c0.9,1,1.8,0.7,2.7,0.4c1.2-0.4,2.3-0.6,3.6-0.3c0.7,0.5,1.2,1.3,1.1,2.2c-0.4,2.6-0.1,5.1,0.2,7.6c-0.3,0-0.7,0.1-1,0.1
			c-0.1,0-0.2,0-0.2-0.1c-0.2-0.1-0.3-0.2-0.5-0.4c0,0,0,0,0,0c-1-1.8-3-2.3-4.6-3.2c-3.8-2.1-12.4,0.6-14.3,3.7l0,0
			c-0.6,0-1.2,0-1.9,0.1l0,0c-0.1-0.6-0.3-1.1-0.9-1.4c-0.7-2-0.1-4-0.3-6c0.1-0.2,0.3-0.3,0.4-0.5c1.1-0.1,1.6-0.8,1.8-1.8
			c1.9-0.6,3.6-0.3,5.4,0.3c0.6,0.2,1.5,0.2,1.7-0.4c0.2-0.7-0.8-0.6-1.1-1c-0.3-1.1-1.2-0.7-2-0.8c-0.6-0.1-1.4,0.2-1.7-0.5
			c-0.3-0.7,0.1-1.4,0.5-2c0.5-0.8,1.3-1.4,2.2-1.7c2.8-0.9,5.5-1.3,8.4-0.8c1.9,0.3,3.8,0.4,5.7,0.5c0.2,0,0.3,0,0.4,0.1
			C105,30.7,105.1,30.8,105.3,31z M89.6,38.3c-0.4,0-1.2,0.1-1.9,0.4c-1.1,0.6-1.2,1.6-0.1,1.7c1.2,0.2,2.6,1.1,3.7-0.1
			c0.4-0.4,1.3-0.5,1.1-1.2c-0.2-0.8-1-0.9-1.8-0.9C90.4,38.2,90.2,38.3,89.6,38.3z M102,38.2c-0.4,0-0.9,0-1.5,0.2
			c-0.3,0.1-0.7,0.6-0.7,0.7c0.5,0.6,0.9,1.2,1.5,1.6c0.3,0.3,1,0.5,1.2-0.2c0.2-0.5,0.4-1,0.8-0.2c0.2,0.4,0.3,0.8,0.9,0.5
			c0.5-0.3,1.1-0.6,1.1-1.2c0-0.5-0.5-0.6-0.8-0.9C103.8,38.3,103,38.3,102,38.2z"/>
		<path class="st2" d="M88,79.7c0.6-0.6,1.4-0.5,2-0.4c6,1.1,11.6-0.5,16.9-3c1.1,0.4,1.5-1.1,2.6-0.8c-0.7,3.1-2.3,5.5-5,7.2
			c-3.4,2.1-6.9,2.1-10.5,1c-0.1-0.1-0.3-0.1-0.4,0c-1.4-0.7-2.7-1.4-4.1-2.2c-0.1-0.3-0.4-0.4-0.7-0.5C88.6,80.5,87.9,80.3,88,79.7
			z"/>
		<path class="st5" d="M109.5,75.4c-1-0.3-1.5,1.2-2.6,0.8c-0.3-1.7-1-2.4-2.6-1c-0.2,0.2-0.5,0.4-0.7,0.3
			c-3.6-1.1-7.3,0.3-10.9-0.2c-3.2-0.5-6.3-1.1-8.8-3.5c2.2,0.6,4.3,1.4,6.6,1.6c7.4,0.8,14.3-0.2,19.7-6c1.4-1.5,3-2.8,5.2-2.9
			c0,0.3,0.3,0.7-0.1,0.9c-2.2,1.6-3.6,3.9-5.9,5.4c-1.4,0.2-0.9,1.4-1.2,2.2c-0.1,0.3-0.4,0.5-0.1,0.8c0,0,0.3-0.2,0.4-0.3
			c0.3-0.1,0.5-0.1,0.8-0.2c0.4,0.6,1.1,0.6,1.7,0.7c1.1,0.2,1.2,0.8,0.6,1.7c-0.2-0.1-0.3-0.3-0.5-0.4c-0.1-0.2-0.2-0.5-0.4-0.6
			c-0.3-0.1-0.4,0.3-0.5,0.5C110.1,75.3,109.8,75.4,109.5,75.4z"/>
		<path class="st2" d="M97.2,65.8c-9.2,1.6-15.8-1.6-17.5-8.8C83.2,64.7,91.1,63.4,97.2,65.8z"/>
		<path class="st6" d="M88,79.7c0,0.6,0.6,0.8,0.9,1.2c0,0.3,0,0.6,0,0.9l0,0c-0.7,0.3-1.8,0-2,1.2c-1.6,0.1-2.5-0.6-3-2.1
			c-0.2-0.6-0.4-1.1-1-1.3c-0.6-0.9-1.4-0.3-2.1-0.4c0,0,0,0,0,0c-0.2-0.4-0.5-0.5-0.9-0.5c0,0,0,0,0,0c0.3-1-1.2-2.1,0.1-3
			c1.9,0.1,3,1.8,4.8,2.3C85.8,78.4,86.9,79.1,88,79.7z"/>
		<path class="st11" d="M107.1,36c0.2-1.8-0.6-3.4-1.3-5c0.8-0.1,1.7,0.1,2,1c1.1,3.9,3.1,7.7,2.2,12c-0.3,1.4,0,3.2-1.9,3.7
			c-1.7,0.5-4.5-0.8-5.4-2.5c0.1-0.1,0.1-0.1,0.2-0.2c0.8,0.3,1.6,0.7,2.5,1c0,0,0,0,0,0c0.2,0.1,0.3,0.2,0.5,0.4
			c0.1,0.1,0.1,0.1,0.2,0.1c0.8,0.6,1.5,0.7,2.3-0.1l0,0c1.3-2.4,1-4.8,0.6-7.3c-0.4-0.7-0.8-1.4-1.3-2.2
			C107.5,36.6,107.5,36.2,107.1,36L107.1,36z"/>
		<path class="st14" d="M104.6,30.4c-1.9-0.2-3.8-0.2-5.7-0.5c-2.9-0.5-5.7-0.1-8.4,0.8c-0.9,0.3-1.6,0.9-2.2,1.7
			c-0.4,0.6-0.8,1.2-0.5,2c0.3,0.7,1.1,0.5,1.7,0.5c0.7,0.1,1.7-0.3,2,0.8c-1.6-0.1-3.2-0.8-4.7,0.1c-0.6-1.6,1-2.9,0.8-4.4
			C93,28.2,98.7,28.5,104.6,30.4z"/>
		<path class="st2" d="M75.2,49.3c0.4,5.4,2.2,10.1,5.8,14.2c0.2,0.3,0.5,0.6,0.1,0.9c-0.3,0.3-0.7,0.1-1-0.1
			c-1.7-0.8-2.8-2.3-3.5-4C75.2,56.8,74.9,53.1,75.2,49.3z"/>
		<path class="st2" d="M113.1,57c-0.4,5.2-6,10-11.1,10C106.8,64.6,110.3,61.5,113.1,57z"/>
		<path class="st11" d="M83.2,39.2c0.2,2-0.4,4.1,0.3,6c0.1,0.6,0.2,1.2,0.9,1.4c0,0,0,0,0,0c0.6,0.6,1.3,0.5,1.9-0.1c0,0,0,0,0,0
			c1.3-0.1,2.2-1.2,3.4-1.4l0.1,0.1c-0.9,1.5-4.3,2.9-5.9,2.5c-0.5-0.1-0.8-0.4-0.9-0.8C82.5,44.3,81.6,41.7,83.2,39.2z"/>
		<path class="st9" d="M87.5,31.4c0.2,1.5-1.5,2.8-0.8,4.4c-0.4,0.4-1.1,0.4-1.3,1c-0.1,1-0.6,1.8-1.8,1.8
			C84.1,35.9,84.4,32.9,87.5,31.4z"/>
		<path class="st11" d="M102.6,45.3c-1.5,0.1-2.7-0.8-4.1-1c-2.4-0.3-4.8-0.3-7,0.8c-0.5,0.2-1.1,0.1-1.7,0.2c0,0-0.1-0.1-0.1-0.1
			c4.4-2.8,8.7-3,13.1-0.1C102.7,45.2,102.6,45.2,102.6,45.3z"/>
		<path class="st2" d="M79.1,56.1c-0.1,0-0.2,0-0.3,0c0-0.1,0-0.2,0-0.3c0,0,0.2,0,0.2,0C79,55.9,79.1,56,79.1,56.1z"/>
		<path class="st14" d="M105.3,31c-0.1-0.1-0.2-0.3-0.3-0.4C105,30.7,105.1,30.8,105.3,31z"/>
		<path class="st4" d="M191,17.6c4.4,3.1,9.7,3.5,14.6,5c-0.9,1.2,0.6,2.1,0.3,3.3c-1.7-0.7-3.4-0.7-5.1-0.3c-0.7,0.2-1.9,0.8-1.8,1
			c0.8,1.1,0.1,2.2,0,3.2c0,0.1,0.2,0.2,0.3,0.2c1.5-0.2,3,1.4,4.5-0.2c0.1-0.2,0.7,0.1,0.8-0.4c0-0.5-0.4-0.5-0.7-0.7
			c-0.8-0.4-1.9-0.2-2.9-1.3c1.8-0.3,3.4-0.5,4.9-0.7c0.1,0.2,0.4,0.5,0.4,0.7c-0.6,2.4-0.6,5-1.3,7.4c-0.4,1.3-1.1,3.1,1.3,3.6
			c-0.5,0.9-1.1,1.1-2.3,0.9c-5.8-1.3-11.6-1.2-17.4,0.1c0.1-3.1-0.5-6.2-1.3-9.2c-0.2-0.6-0.2-1.4-0.9-1.5
			c-0.7-0.2-0.7,0.5-0.9,0.9c-0.3,0.5-0.8,0.2-1.2,0.2c0.5-1.5,1.4-2.7,2.6-3.6c0.4,0.9,1.4,0.5,2,1c-0.5,0.5,0.1,1.2-0.2,1.8
			c-0.4,1.3,0.1,1.2,0.9,0.6c1.1,1.9,2.3,1.4,3.7,0.3c0.2-0.1,0.4,0.6,0.9,0.3c0-1-1-1.3-1.5-2c0.2-0.2,0.4-0.4,0.6-0.6
			c1-0.4,1.6-0.8,0.2-1.5c-2.2-1-4.4-1-6.5,0c1.5-2.7,1.8-5.5,1.6-8.5c0.2,0,0.3,0,0.5,0.1c0.1,1-0.2,2.1,0.4,3.4
			c1-1.4,3.6-0.7,3.4-3.2C190.9,17.7,191,17.7,191,17.6z M198.1,37c-1.1-0.6-1.7,0.7-2.6,0.3c-0.4-0.2-1.1-1.1-1.3-0.1
			c-0.2,0.8,0.9,0.7,1.5,0.7C196.5,37.9,197.4,38,198.1,37z"/>
		<path class="st8" d="M206.3,38.4c-2.4-0.5-1.6-2.2-1.3-3.6c0.7-2.4,0.7-4.9,1.3-7.4c0-0.2-0.2-0.5-0.4-0.7c0-0.3,0-0.6,0-0.9
			c0.2-1.1-1.2-2.1-0.3-3.3c0.7,0.1,1.4,0.1,1.9,0.7c0.3,1.5,0.9,3.1,1,4.6c0,2.3,1,2.3,2.6,1.5c1.5,2.5,0.2,8-2.1,9.1
			c-0.1-0.4-0.2-0.9-0.3-1.3c0.3-0.8,0.5-1.7-0.2-2.6C207.7,35.9,207.3,37.3,206.3,38.4z"/>
		<path class="st8" d="M182.4,29.7c0.4,0,0.9,0.3,1.2-0.2c0.2-0.4,0.2-1.1,0.9-0.9c0.7,0.2,0.8,0.9,0.9,1.5c0.8,3,1.4,6,1.3,9.2
			c0,0.1,0,0.2,0,0.3c-0.3,0-0.6,0-0.9,0c-1.4-1.5-2-3.5-3.3-5.4c-0.1,1.6-0.2,2.9-0.3,4.1c-2.1-0.7-1.7-2.9-2.6-4.3
			c0-0.3,0-0.6,0-0.9c0.3-0.6,0.7-1.1,1-1.7C181.2,30.9,181.8,30.3,182.4,29.7z"/>
		<path class="st13" d="M211.1,29.3c-1.6,0.8-2.6,0.9-2.6-1.5c0-1.5-0.6-3.1-1-4.6c1.4-0.2,2.6,0.8,3.9,1
			C212,26,211.1,27.6,211.1,29.3z"/>
		<path class="st13" d="M186.9,27c-0.6-0.5-1.6-0.1-2-1c0,0,0,0,0,0c2.2-1,4.4-1.1,6.5,0c1.4,0.7,0.8,1.1-0.2,1.5
			C189.8,27.3,188.4,27.2,186.9,27z"/>
		<path class="st11" d="M187.1,17.6c-0.2,0-0.3,0-0.5-0.1c0-1,0-2,1.1-2.5c0.7-0.3,1.2,0.2,1.4,0.8c-0.2,0.1-0.5,0.3-0.7,0.4
			c-0.1,0.1-0.3,0.3-0.4,0.4c-0.1,0.2-0.3,0.3-0.4,0.5c0,0,0,0,0,0C187.4,17.3,187.2,17.5,187.1,17.6
			C187.1,17.6,187.1,17.6,187.1,17.6z"/>
		<path class="st4" d="M188.4,16.2c0.2-0.1,0.5-0.3,0.7-0.4c0.7,0.2,1.1,0.8,1.5,1.4l-0.1,0.1C189.7,17.1,188.9,17,188.4,16.2z"/>
		<path class="st3" d="M180.7,31.4c-0.3,0.6-0.7,1.1-1,1.7C179.1,32,179.4,31.4,180.7,31.4z"/>
		<path class="st4" d="M190.5,17.2c0.2,0.1,0.3,0.2,0.5,0.4c-0.1,0-0.1,0.1-0.2,0.1c-0.1-0.1-0.3-0.3-0.4-0.4L190.5,17.2z"/>
		<path class="st9" d="M185.8,39.6c0.3,0,0.6,0,0.9,0c0.5,1.3,1.6,0.1,2.3,0.6c-0.3,0.5-0.6,1.1-0.9,1.6c-0.1,0.1-0.1,0.3-0.2,0.4
			c-0.1,0.1-0.2,0.3-0.3,0.4c1.2,2.3,3.4,3.4,5.6,4.4c0.2,0.1,0.4,0.2,0.6,0.3c0,0,0.2,0,0.2,0c0.1,0.7,0.4,1.2,1.2,1.3
			c1,0.1,1,0.8,1,1.6c-0.6,0.2-1.2,0.2-1.8-0.2c-1.9-1.6-4.6-1.5-6.4-3.1c0,0,0,0,0,0c0-0.9-0.6-1-1.3-0.8c-0.2,0-0.3,0-0.5,0
			c-1.2-2.3-2.9-4.3-3.3-7C183.9,39.2,184.8,39.8,185.8,39.6z"/>
		<path class="st10" d="M185.8,39.6c-1,0.3-1.9-0.4-2.9-0.4c-0.2-0.3-0.4-0.6-0.7-0.9c0.1-1.3,0.2-2.5,0.3-4.1
			C183.8,36.1,184.4,38.1,185.8,39.6z"/>
		<path class="st6" d="M188.6,11.3c2,0,4,0,6,0C192.5,12.5,190.5,11.8,188.6,11.3z"/>
		<path class="st7" d="M203.9,11.1c-1.7,0.7-3.5,0.6-5.3,0.6C200.3,10.9,202.1,11.3,203.9,11.1L203.9,11.1z"/>
		<path class="st7" d="M203.9,11.2c0.5-0.4,1.1-0.5,2.2,0C205.1,11.1,204.5,11.1,203.9,11.2C203.9,11.1,203.9,11.2,203.9,11.2z"/>
		<path class="st7" d="M109.4,73.5c-0.3,0.1-0.5,0.1-0.8,0.2c-0.1-0.2-0.2-0.3-0.4-0.5c0.3-0.8-0.2-2,1.2-2.2
			c0.1,0.4,0.1,0.7,0.2,1.1C109.6,72.5,109.5,73,109.4,73.5z"/>
		<path class="st7" d="M114,70.6c-0.9,2-2.4,2.3-4.2,1.3C111.4,72.3,112.6,71.4,114,70.6z"/>
		<path class="st10" d="M196.2,50.2c0-0.8-0.1-1.4-1-1.6c-0.7-0.1-1.1-0.6-1.2-1.3c0.8,0,1.7,0.1,2.5,0.1c0.3,1.1,1.1,1.3,2.1,1.3
			c0.7,0,1.6-0.2,2,0.8c-0.1,0.1-0.3,0.2-0.4,0.2C198.8,49.9,197.5,50,196.2,50.2z"/>
		<path class="st10" d="M187.9,47c1.9,1.6,4.6,1.5,6.4,3.1C191.9,49.6,189.2,49.8,187.9,47z"/>
		<path class="st10" d="M186.6,46.2c0.7-0.2,1.2-0.1,1.3,0.8C187.3,47,187,46.6,186.6,46.2z"/>
		<path class="st12" d="M196.5,47.4c-0.8,0-1.7-0.1-2.5-0.1c0,0-0.2,0-0.2,0c-0.2-0.1-0.4-0.2-0.6-0.3c-2.2-1-4.4-2.2-5.6-4.4
			c0.1-0.1,0.2-0.3,0.3-0.4c0.1-0.1,0.1-0.3,0.2-0.4c0.8,0.2,1.3-0.5,2-0.9c3,3.2,6.1,3.7,9.6,1.4c0.5-0.3,1.1-0.6,1.6-1
			c1.1,0.1,1.2,1.1,1.4,1.9l-0.1,0c-0.5,0.2-0.5,0.6-0.5,1c-0.1,0.2-0.2,0.4-0.2,0.6C200.4,46,198.6,47.1,196.5,47.4z"/>
		<path class="st10" d="M202,44.7c0.1-0.2,0.2-0.4,0.2-0.6c0.3-0.2,0.7-0.5,0.5-1c0,0,0.1,0,0.1,0c0.8-1.8-0.2-3.6-2.2-3.5
			c-3.3,0.1-6.7,0.2-10,0c-0.5,0-1.1,0.3-1.6,0.5c-0.7-0.4-1.8,0.7-2.3-0.6c0-0.1,0-0.2,0-0.3c5.8-1.3,11.6-1.4,17.4-0.1
			c1.1,0.3,1.8,0.1,2.3-0.9c1-1.1,1.4-2.5,2.2-3.9c0.7,0.9,0.5,1.8,0.2,2.6c-1,0.1-1.3,0.8-1.3,1.6c-0.1,1.5-0.8,2-2.3,1.5
			c-1.2-0.4-1.8-0.1-1.3,1.4C204.5,43.4,204.1,44.5,202,44.7z"/>
		<path class="st1" d="M96.4,225c1.3,5.5,3.2,10.6,4.2,15.9c0.9,4.4,1.6,8.9,2.2,13.3c0.2,1.6,0.5,3.3,0.5,4.9
			c0,4.8,1.2,9.7,0.3,14.5c-0.3,1.4-0.8,1.8-2.1,1.7c-0.5,0-1,0-1.5,0c-2.7,0-2.5-0.1-2.3-2.9c0.4-7,1.1-14,0.3-21
			c-0.4-3.1-0.1-6.3-0.5-9.4c-0.6-5.2-0.9-10.4-1.7-15.5C95.7,226.1,95.7,225.7,96.4,225z"/>
		<path class="st1" d="M83.2,224c-1.7,5.8-3.4,11.5-4.8,17.4c-1.7,7.3-3.5,14.6-4.3,22.1c-0.3,2.7-0.6,5.4-0.8,8.1
			c-0.1,0.9-0.4,1.3-1.3,1.3c-0.6,0-1.3,0-1.9-0.1c-2.9-0.4-2.9-0.6-2.5-3.6c1.2-9.5,3.9-18.6,7.2-27.5
			C76.9,235.5,79.7,229.5,83.2,224z"/>
		<path class="st12" d="M111.2,121.1c0.6-1,1.4-1.8,2.4-2.3c0.1,0.1,0.1,0.1,0.2,0.2C113,119.7,112.5,120.8,111.2,121.1L111.2,121.1
			z"/>
		<path class="st12" d="M113.6,118.7c0.2-0.1,0.3-0.2,0.5-0.4c0,0,0.1,0.1,0.1,0.1c-0.1,0.1-0.3,0.3-0.4,0.4
			C113.8,118.9,113.7,118.8,113.6,118.7z"/>
		<path class="st6" d="M109.5,75.4c0.3,0,0.5-0.1,0.8-0.1c0.3,0,0.6,0.1,0.9,0.1c0.2,0.1,0.3,0.3,0.5,0.4c1.1,1.6,0.9,3-0.9,4
			c-0.9,0.5-1.3,1.1-1,2.2c0.2,0.7,0,1.6-1,1.8c-1.1,0.2-0.9,1-0.8,1.7c-0.7,0.6-0.6-2.3-1.5-0.4c-0.5,1.1-1.6-1.7-1.7,0.4
			c0,0.7-0.4,0.3-0.7,0.3c-0.3,0-0.9-0.4-0.9,0c-0.4,2.9-1.9,1.2-3,0.7c-0.7-0.3-1.2-0.5-2,0.1c-1.4,0.9-2.9,0.9-4.2-0.5
			c0.1-0.1,0.2-0.2,0.3-0.3c-0.1,0-0.2,0-0.3-0.1c0,0,0,0,0,0c0-0.7,0-1.4,0-2.2c3.6,1.2,7.1,1.1,10.5-1
			C107.3,80.9,108.9,78.5,109.5,75.4z"/>
		<path class="st7" d="M86.8,83.1c0.2-1.2,1.3-0.9,2-1.2c0,0.6,0,1.1,0,1.7c-0.1,0.1-0.2,0.1-0.2,0.2C88.4,82.5,87.6,82.7,86.8,83.1
			z"/>
		<path class="st7" d="M93.2,84.9c-0.8,0.8-1.7,1.1-2.7,0.5l0.1-0.1c0.8-0.1,1.6-0.2,2.3-0.7C93,84.7,93.1,84.8,93.2,84.9z"/>
		<path class="st7" d="M94,83.6c0,0.7,0,1.4,0,2.2c-0.3-0.3-0.5-0.6-0.8-0.8c-0.1-0.1-0.2-0.2-0.3-0.3c0.2-0.3,0.5-0.7,0.7-1
			C93.7,83.5,93.9,83.5,94,83.6z"/>
		<path class="st7" d="M80.6,79.3c0.7,0.1,1.6-0.5,2.1,0.4C82,79.7,81.2,80.1,80.6,79.3z"/>
		<path class="st7" d="M89.6,85c-0.7-0.1-0.8-0.7-1-1.2c0.1-0.1,0.2-0.1,0.2-0.2C89.4,83.9,89.6,84.3,89.6,85L89.6,85z"/>
		<path class="st7" d="M79.8,78.8c0.4-0.1,0.7,0,0.9,0.5C80.2,79.4,79.9,79.2,79.8,78.8z"/>
		<path class="st7" d="M90.5,85.5c-0.4,0-0.7-0.1-0.9-0.5c0,0,0.1-0.1,0.1-0.1c0.4,0,0.7,0.1,0.9,0.4L90.5,85.5z"/>
		<path class="st7" d="M94,85.7c0.1,0,0.2,0,0.3,0.1c-0.1,0.1-0.2,0.2-0.3,0.3C94,86,94,85.9,94,85.7z"/>
		<path class="st12" d="M120.5,118.7c0.7,0.5,1.3,1.1,1.5,1.9c0,0,0,0,0,0c-1-0.2-1.5-0.8-1.7-1.7
			C120.3,118.9,120.4,118.8,120.5,118.7z"/>
		<path class="st8" d="M120.3,119c0.2,0.9,0.8,1.5,1.7,1.7c0.7,2.4,1.9,4.7,0.9,7.3c-0.8,0.1-1.4,0.6-2.1,1
			c-0.6,0.4-1.2,0.9-1.7-0.1c0.3-1,1.6-1,1.9-2c0.2-0.6,0.4-1.2,0.1-2.2c-1.5,1.2-3.5,1.6-4.2,3.6c-0.3,0.1-0.6,0.3-0.9,0.4
			c-1.6,1.7-3.6,0.4-5.4,0.7c-0.5,0.1-0.8-1-0.8-1c1.5-1.1,0-2-0.2-2.9c-0.4-1.9,1.5-2.8,1.7-4.4c1.2-0.3,1.8-1.4,2.6-2.2
			c0.1-0.1,0.3-0.3,0.4-0.4C116.4,117.2,118.4,117.1,120.3,119z"/>
		<path class="st14" d="M102.7,45.1c-4.4-2.9-8.7-2.8-13.1,0.1c-1.2,0.3-2.1,1.4-3.4,1.4c1.9-3.1,10.5-5.8,14.3-3.7
			c1.6,0.9,3.6,1.4,4.6,3.2C104.4,45.8,103.6,45.4,102.7,45.1z"/>
		<path class="st8" d="M107.5,37c0.4,0.7,0.8,1.4,1.3,2.2c-0.2,2.4-0.4,4.9-0.6,7.3c0,0,0,0,0,0c-0.4,0-0.8,0-1.2,0
			c-0.3-2.5-0.6-5-0.2-7.6c0.1-0.9-0.3-1.6-1.1-2.2c0.3-0.1,0.7,0,0.8-0.5c0.2-0.1,0.4-0.1,0.6-0.2c0,0-0.1,0-0.1,0
			C107,36.5,107.1,36.8,107.5,37z"/>
		<path class="st13" d="M89.6,38.3c0.6,0,0.8,0,1,0c0.7,0,1.6,0.1,1.8,0.9c0.2,0.7-0.8,0.8-1.1,1.2c-1.1,1.1-2.5,0.2-3.7,0.1
			c-1.1-0.1-1-1.2,0.1-1.7C88.4,38.3,89.2,38.3,89.6,38.3z"/>
		<path class="st13" d="M102,38.2c1,0,1.8,0,2.5,0.4c0.4,0.2,0.8,0.4,0.8,0.9c0,0.7-0.6,0.9-1.1,1.2c-0.5,0.3-0.6,0-0.9-0.5
			c-0.4-0.8-0.6-0.3-0.8,0.2c-0.3,0.7-0.9,0.4-1.2,0.2c-0.6-0.4-1-1-1.5-1.6c0,0,0.4-0.6,0.7-0.7C101.1,38.3,101.6,38.3,102,38.2z"
			/>
		<path class="st13" d="M106.4,36.2c-0.1,0.4-0.5,0.4-0.8,0.5c-1.2-0.3-2.4-0.1-3.6,0.3c-0.9,0.3-1.8,0.6-2.7-0.4
			C101.8,35.1,104,34.9,106.4,36.2z"/>
		<path class="st13" d="M85.4,36.9c0.2-0.7,0.9-0.6,1.3-1c1.6-0.9,3.2-0.3,4.7-0.1c0.3,0.4,1.4,0.3,1.1,1c-0.2,0.6-1.1,0.6-1.7,0.4
			C89,36.6,87.2,36.3,85.4,36.9z"/>
		<path class="st14" d="M107,46.4c0.4,0,0.8,0,1.2,0c-0.7,0.8-1.5,0.6-2.3,0.1C106.3,46.5,106.6,46.5,107,46.4z"/>
		<path class="st14" d="M84.5,46.6c-0.7-0.2-0.8-0.8-0.9-1.4C84.1,45.6,84.3,46.1,84.5,46.6z"/>
		<path class="st14" d="M86.3,46.6c-0.6,0.6-1.2,0.6-1.9,0.1C85.1,46.6,85.7,46.6,86.3,46.6z"/>
		<path class="st14" d="M105.7,46.5c-0.2-0.1-0.3-0.2-0.5-0.4C105.4,46.2,105.5,46.3,105.7,46.5z"/>
		<path class="st6" d="M90.5,85.3c-0.2-0.4-0.5-0.4-0.9-0.4c-0.1-0.6-0.3-1-0.8-1.3c0-0.6,0-1.1,0-1.7c0,0,0,0,0,0
			c0.2-0.1,0.4-0.3,0.7-0.4c1.4,0.7,2.7,1.4,4.1,2.2c-0.2,0.3-0.5,0.7-0.7,1C92.2,85.1,91.4,85.2,90.5,85.3z"/>
		<path class="st7" d="M89.5,81.4c-0.2,0.1-0.4,0.3-0.7,0.4c0-0.3,0-0.6,0-0.9C89.1,81,89.4,81.1,89.5,81.4z"/>
		<path class="st1" d="M111.2,75.4c-0.3,0-0.6-0.1-0.9-0.1c0.1-0.3,0.2-0.6,0.5-0.5C111,74.8,111.1,75.2,111.2,75.4z"/>
		<path class="st1" d="M108.3,73.1c0.1,0.2,0.2,0.3,0.4,0.5c-0.1,0.1-0.4,0.3-0.4,0.3C107.9,73.6,108.2,73.4,108.3,73.1z"/>
		<path class="st14" d="M108.2,46.5c0.2-2.4,0.4-4.9,0.6-7.3C109.2,41.6,109.5,44.1,108.2,46.5z"/>
		<path class="st12" d="M107.5,37c-0.4-0.1-0.5-0.5-0.5-0.9C107.5,36.2,107.5,36.6,107.5,37z"/>
		<path class="st13" d="M206,25.8c0,0.3,0,0.6,0,0.9c-1.5,0.2-3.1,0.4-4.9,0.7c1,1.1,2.1,0.9,2.9,1.3c0.3,0.1,0.7,0.2,0.7,0.7
			c0,0.5-0.6,0.3-0.8,0.4c-1.5,1.6-3,0-4.5,0.2c-0.1,0-0.3-0.1-0.3-0.2c0.1-1.1,0.7-2.1,0-3.2c-0.1-0.2,1.1-0.8,1.8-1
			C202.7,25.1,204.4,25.2,206,25.8z"/>
		<path class="st8" d="M190.4,17.4c0.1,0.1,0.3,0.3,0.4,0.4c0.2,2.6-2.4,1.8-3.4,3.2c-0.6-1.3-0.3-2.3-0.4-3.4c0,0,0,0,0,0
			c0.1-0.2,0.3-0.3,0.4-0.5c0,0,0,0,0,0c0.1-0.2,0.3-0.3,0.4-0.5c0.1-0.1,0.3-0.3,0.4-0.4C188.9,17,189.7,17.1,190.4,17.4z"/>
		<path class="st13" d="M190.7,28.1c0.5,0.6,1.4,1,1.5,2c-0.5,0.3-0.7-0.4-0.9-0.3c-1.4,1-2.6,1.6-3.7-0.3c-0.8,0.6-1.3,0.6-0.9-0.6
			C188.1,28.5,189.3,28,190.7,28.1z"/>
		<path class="st14" d="M190.7,28.1c-1.4-0.1-2.7,0.4-4,0.7c0.3-0.6-0.4-1.2,0.2-1.8c1.5,0.2,2.9,0.3,4.4,0.5
			C191.1,27.7,190.9,27.9,190.7,28.1z"/>
		<path class="st8" d="M198.1,37c-0.7,1-1.6,0.9-2.4,0.9c-0.6,0-1.6,0.2-1.5-0.7c0.2-0.9,0.9-0.1,1.3,0.1
			C196.4,37.7,197,36.4,198.1,37z"/>
		<path class="st4" d="M187.9,16.7c-0.1,0.2-0.3,0.3-0.4,0.5C187.7,17,187.8,16.9,187.9,16.7z"/>
		<path class="st4" d="M187.5,17.2c-0.1,0.2-0.3,0.3-0.4,0.5C187.2,17.5,187.4,17.3,187.5,17.2z"/>
		<path class="st14" d="M189,40.1c0.5-0.2,1.1-0.5,1.6-0.5c3.3,0.2,6.7,0.1,10,0c2-0.1,3,1.8,2.2,3.5c-0.3-0.8-0.3-1.7-1.4-1.9
			c-0.3-0.3-0.6-0.5-0.9-0.8c-1,0.1-2.1-0.3-3.1,0.4c-1.1-0.4-2.3-0.4-3.4,0c-1-0.4-1.9-1-3-0.5c-0.3,0.2-0.6,0.3-0.9,0.5
			c-0.6,0.3-1.1,1-2,0.9C188.4,41.2,188.7,40.7,189,40.1z"/>
		<path class="st10" d="M193.2,47c0.2,0.1,0.4,0.2,0.6,0.3C193.6,47.2,193.4,47.1,193.2,47z"/>
		<path class="st14" d="M188,42.2c-0.1,0.1-0.2,0.3-0.3,0.4C187.7,42.5,187.9,42.3,188,42.2z"/>
		<path class="st8" d="M190.1,40.9c0.3-0.2,0.6-0.3,0.9-0.5c0.8,1.5,1.9,1.1,3,0.5c1.1-0.3,2.3-0.4,3.4,0c1,0,2.2,1.3,3.1-0.4
			c0.3,0.3,0.6,0.5,0.9,0.8c-0.5,0.3-1.1,0.6-1.6,1C196.2,44.6,193.1,44.1,190.1,40.9z"/>
		<path class="st14" d="M202.8,43.1c0.2,0.5-0.2,0.7-0.5,1C202.2,43.7,202.3,43.3,202.8,43.1z"/>
		<path class="st12" d="M194,40.9c-1.1,0.6-2.2,1.1-3-0.5C192.1,39.8,193,40.5,194,40.9z"/>
		<path class="st12" d="M200.5,40.5c-0.8,1.7-2,0.4-3.1,0.4C198.4,40.2,199.5,40.5,200.5,40.5z"/>
	</g>
</g>
</svg>
