<?xml version="1.0" encoding="utf-8"?>
<!-- Generator: Adobe Illustrator 23.0.1, SVG Export Plug-In . SVG Version: 6.00 Build 0)  -->
<svg version="1.1" id="Layer_1" xmlns="http://www.w3.org/2000/svg" xmlns:xlink="http://www.w3.org/1999/xlink" x="0px" y="0px"
	 viewBox="0 0 286.9 243.5" style="enable-background:new 0 0 286.9 243.5;" xml:space="preserve">
<style type="text/css">
	.st0{fill:#F7BB3A;}
	.st1{fill:#F5F3EC;}
	.st2{fill:#E4C570;}
	.st3{fill:#729D27;}
	.st4{fill:#D44E50;}
	.st5{fill:#462E82;}
	.st6{fill:#F4D601;}
	.st7{fill:#3A2C78;}
	.st8{fill:#DAA909;}
	.st9{fill:#EDEDED;}
</style>
<g id="qgvpOV_1_">
	<g>
		<path class="st0" d="M230.9,207.1L230.9,207.1c4.7-0.6,4.4-4.4,3.9-7.4c-2.8-13.7-0.9-27.5-1.6-41.2c-0.4-6.4,1.1-11.4,5.7-16.5
			c8-9.2,5.4-27-3.9-31.5v0.1c0.1-2.4,0-4.8-2.7-5.6c-6.9-2-5.6-7.2-4.3-11.8c3-10.7-4.4-22.3-15.5-23.3
			c-17.5-1.6-24.2,4.2-25.8,21.8c-0.1,1.6-0.1,3.3-2,3.9c-6.5-1.9-11.4-7-18.2-8.6c-20.4-4.8-40-6.7-59.2,5.7
			c-12,7.6-23.4,15.1-30.3,27.9c-1.6,2.9-4.5,6.1-0.4,9.4c-0.6,1.4-1.1,2.9-1.6,4.4c-6.9,1.5-4.2-9.2-10.6-8.3
			c0-1.3-0.1-2.6-0.1-3.9c4.2-0.6,6.7-3.1,5.4-7.3c-2-6.2-7.4-6.9-13.1-7.4c-5.1-0.4-9.6,0.5-10.4,5.8c-1.3,7.4-2.9,15.1,0.9,22.4
			c0.8,1.6,1.6,3.3,2.4,4.9c2,5.9-1.4,12.9,3.1,18.4c-0.1,2.5-0.1,5-0.1,7.5c-0.2,0.2-0.6,0.4-0.6,0.6c0.1,0.5,0.3,1,0.5,1.5
			c-0.1,1.2-0.1,2.4-0.1,3.6c-5.7,10.9-4.3,22-0.9,33.2c0.2,0.9,0.4,1.8,0.6,2.7c-0.7,2.8-1.4,6,2.6,6.4c4.1,0.4,4.1-2.7,3.8-5.7
			v-0.1c6.9-1.1,6.7-6.3,5.7-11c-3.6-15.9,2.6-32-1.4-47.9c-0.5-1.9-0.6-5.2,2.6-5.2c2.6,0,3.1,2.9,3.3,5.2
			c0.6,10.2,1.4,20.5,1.9,30.7c0.6,11.4,10.1,18.2,14.5,27.6c0.7,1.6,3.6,0.9,5.4,0.3l0.2,0.2c0.9,10.3,8.7,13.5,16.7,17.5
			c17,8.5,33.9,12.2,52.9,6.8c13.9-3.9,26.8-8,34.8-21.1c0.5-0.8,1.4-1.4,2.2-1.9c6.2-3,7.9-8,6.6-14.4l0.1-0.3
			c5.5-0.4,5.9-5.3,7.6-8.9c5.9-12.8,4.7-26.4,4-39.9c-0.2-3.3-1.5-6.5,3.1-7.5c0.5,0.6,0.9,1.2,1.4,1.9c3.1,9-0.5,19,3.9,27.9
			c-0.1,1.2-0.1,2.4-0.2,3.6c-1.6,0.4-3.4,1.1-3.5,2.8c-0.6,11.1-1.1,22.3,1.6,33.1c0.6,2.7,1.5,6.3,5.1,6
			C230.8,214,231.2,210.5,230.9,207.1z"/>
		<path class="st1" d="M75,134.2c0.6-1.4,1.1-2.9,1.6-4.4c5.7-10.4,13.5-18.2,23-25.7c20.4-16.2,41.5-20.4,65.8-12.2
			c16.5,5.5,28.1,17,38.6,30.1l0.1,0.1c11.5,24.4,12.7,48.8-0.3,73.1l-0.1,0.3c-17.2,23.4-39.6,35.8-69.3,33.1
			c-17-1.6-30.9-9.6-43.8-20l-0.2-0.2C72.1,186.3,67.5,161.5,75,134.2z M93.9,172.3c-0.4,0.7-0.6,1.4-1,2.1
			c-5.4,9.4,4.8,14.7,6.9,22c1,3.5,12.1,3.3,18.8,1.1l0.2,0.2c-0.6,12,11.2,7.8,16.3,12.5c2.1,2,5,1.3,6.7-1c2.9-4,7.3-3,11.2-3.8
			c0.4,1.5,0.6,4.3,2,3.9c8.4-2.9,18.2-4.6,24.5-10.2c2.6-2.2,6.9-1.6,9.2-6.6c5.2-11.5-0.5-25.5,9.3-35.4c1.6-1.6-0.8-1.9-0.8-2.8
			c-0.5-7.7-4.2-12.2-12.5-11.7c0.9-4.2,5.2-6.7,2.5-10.4c-4.2-6.1-7.4-12.2-7.7-20.1c-0.1-3.4-4.2-6.1-8.6-7.8
			c-6.7-2.6-11.5,1.8-17.2,2.1c-4.3-7.2-10.8-5.2-17.7-6.2c-9.8-1.4-11.5,2.7-13.5,9.5c-4.7,1.1-8.5,5.7-14.4,2.6
			c-2.1-1.1-3.6,2-4.6,4c-2.1,4.3-1,8.8-0.9,13.2c-4.2,0.9-9.5-0.7-11.3,5.3l-0.6,0.5c-7,5.9-7.7,12-2.4,21.6
			C90.8,161.9,88,168.6,93.9,172.3z"/>
		<path class="st2" d="M203.7,195.2c13-24.3,11.9-48.7,0.3-73.1c8.9,5.8,7.9-3,10.2-6.9c1-1.6,1.7-3.6,0.3-5.4
			c-1.7-1.9-4.1-1.5-6.3-1.1c-9.1,1.9-2.7,8.9-4.3,13.2c-10.4-13.2-22-24.6-38.6-30.1c-24.3-8.2-45.4-4-65.8,12.2
			c-9.4,7.6-17.2,15.4-22.9,25.8c-4.1-3.3-1.1-6.4,0.5-9.4c6.8-12.8,18.2-20.3,30.2-27.9c19.1-12.3,38.7-10.4,59.2-5.7
			c6.8,1.6,11.7,6.7,18.2,8.6c2-0.6,1.9-2.4,2-3.9c1.6-17.6,8.3-23.3,25.8-21.8c10.9,1,18.4,12.5,15.5,23.3
			c-1.3,4.6-2.6,9.8,4.3,11.8c2.6,0.8,2.9,3.2,2.7,5.6c-12.2-2.9-19.1,2.8-19.3,15.5c-0.1,4.7,2.2,8.5,2.9,12.9
			c-4.7,1-3.3,4.2-3.1,7.5c0.7,13.5,1.9,27.1-4,39.9C209.6,189.9,209.1,194.8,203.7,195.2z M223.2,89.7C223,81,217,74.6,208.9,74.4
			c-8.7-0.1-16.7,8.2-16.4,16.8c0.4,8,7.6,15,15.1,14.6C217.2,105.4,223.4,99,223.2,89.7z"/>
		<path class="st1" d="M218.4,138.9c-0.6-4.4-2.9-8.3-2.9-12.9c0.1-12.7,7.1-18.3,19.3-15.5v-0.1c6.9,11.5,6.9,22.3-2.9,32.1
			c-2.1,2.1-3.1,4.9-2.7,7.9c2.4,18.8,1.1,37.7,1.6,56.5l0,0c-6.4,2.9-7.2-1.2-7.3-5.9c-0.1-9.7-0.1-19.3-0.1-28.9
			c0.1-1.2,0.1-2.4,0.2-3.6c3.2-6.9,1.3-14.2,1.7-21.4c0.2-3.6-1.9-5.8-5.5-6.6C219.4,140.1,219,139.5,218.4,138.9z"/>
		<path class="st2" d="M90.5,208.6c12.9,10.4,26.8,18.5,43.8,20c29.7,2.7,52.1-9.7,69.3-33.1c1.3,6.4-0.4,11.5-6.6,14.4
			c-0.9,0.4-1.7,1.1-2.2,1.9c-7.9,13.1-20.9,17.2-34.8,21.1c-19,5.4-35.9,1.7-52.9-6.8C99.1,222.1,91.4,218.9,90.5,208.6z"/>
		<path class="st2" d="M75,134.2c-7.4,27.3-2.9,52.2,15.3,74.1c-1.9,0.6-4.7,1.3-5.4-0.3c-4.4-9.4-13.9-16.2-14.5-27.6
			c-0.6-10.2-1.2-20.5-1.9-30.7c-0.1-2.3-0.6-5.2-3.3-5.2c-3.1,0-3.1,3.3-2.6,5.2c3.9,15.9-2.2,32,1.4,47.9c1.1,4.7,1.2,9.9-5.7,11
			c3.1-6.5,0.6-13.2,0.6-19.9c-0.1-21.2-2.3-42.5,5.7-62.9C70.7,125,68.1,135.6,75,134.2z"/>
		<path class="st1" d="M64.4,125.9c-7.9,20.4-5.8,41.8-5.7,62.9c0.1,6.7,2.6,13.3-0.6,19.9v0.1c-2.1-0.2-4.2-0.5-6.4-0.7
			c-0.2-0.9-0.4-1.8-0.6-2.7c1.1-11,2.8-22,0.9-33.2c0.1-1.2,0.1-2.4,0.1-3.6c0.1-0.7,0.1-1.4,0.1-2.1c0.1-2.5,0.1-5,0.1-7.5
			c0.1-6.3,3.6-13.2-3.1-18.4c-0.8-1.6-1.6-3.3-2.4-4.9c-0.2-5.2,0.2-8.9,7.2-10.2c2.9-0.6,8,1.1,10.1-3.4
			C64.3,123.3,64.3,124.6,64.4,125.9z"/>
		<path class="st2" d="M64.3,122c-2.1,4.5-7.2,2.9-10.1,3.4c-6.9,1.3-7.4,5-7.2,10.2c-3.8-7.3-2.2-15-0.9-22.4
			c0.9-5.3,5.4-6.2,10.4-5.8c5.7,0.5,11.1,1.2,13.1,7.4C70.9,118.9,68.5,121.4,64.3,122z"/>
		<path class="st2" d="M230.9,207.1c-0.6-18.8,0.7-37.8-1.6-56.5c-0.4-3,0.5-5.7,2.7-7.9c9.9-9.9,9.9-20.8,2.9-32.2
			c9.2,4.5,11.9,22.4,3.9,31.5c-4.5,5.1-6,10.1-5.7,16.5c0.7,13.7-1.2,27.6,1.6,41.2C235.3,202.7,235.6,206.4,230.9,207.1z"/>
		<path class="st2" d="M223.5,172.3c0,9.7,0,19.3,0.1,28.9c0.1,4.7,0.9,8.8,7.3,5.9c0.3,3.4-0.1,6.9-4.2,7.2c-3.6,0.2-4.4-3.4-5.1-6
			c-2.8-10.9-2.2-22-1.6-33.1C220.1,173.4,221.9,172.7,223.5,172.3z"/>
		<path class="st2" d="M219.9,140.7c3.6,0.7,5.7,2.9,5.5,6.6c-0.4,7.2,1.6,14.5-1.7,21.4C219.4,159.7,223,149.8,219.9,140.7z"/>
		<path class="st2" d="M52.2,172.1c1.9,11.1,0.1,22.2-0.9,33.2C47.8,194.2,46.5,183.1,52.2,172.1z"/>
		<path class="st2" d="M49.4,140.5c6.7,5.2,3.2,12.1,3.1,18.4C48,153.4,51.4,146.4,49.4,140.5z"/>
		<path class="st2" d="M51.8,208.1c2.1,0.2,4.2,0.5,6.4,0.7c0.4,3,0.3,6.1-3.8,5.7C50.3,214.1,51.1,210.8,51.8,208.1z"/>
		<path class="st2" d="M52.4,166.5c0,0.7-0.1,1.4-0.1,2.1c-0.1-0.5-0.4-1-0.5-1.5C51.8,166.9,52.2,166.7,52.4,166.5z"/>
		<path class="st3" d="M153.8,106.4c5.7-0.4,10.5-4.8,17.2-2.1c4.4,1.7,8.5,4.4,8.6,7.8c0.1,7.9,3.4,14,7.7,20.1
			c2.6,3.8-1.6,6.4-2.5,10.4c8.4-0.4,12,4,12.5,11.7c0.1,0.8,2.4,1.1,0.8,2.8c-9.7,9.9-4.1,23.8-9.3,35.4c-2.3,5-6.7,4.3-9.2,6.6
			c-6.3,5.5-16,7.3-24.5,10.2c-1.5,0.5-1.6-2.4-2-3.8c-3.3-2.4,2.9-9.2-2.8-8.9c-6.8,0.2-8.4-3.9-11.3-8c-3.1-4.4-7.4-7.9-12.9-9.3
			c0.1-4.1,2.4-6.4,6.2-7.3c4.3,4.8,7.9,5.8,13.2,0.4c3.9-4,6.3-8.4,8.2-13.4c2.9,0.6,4.3,2.9,5.7,5.2c-3.5,0.9-7.5,2.4-5.2,6.7
			c1.9,3.6,5.9,4.3,9.6,1.3c4.2,0.9,3.6,4.2,2.7,6.9c-1.6,5,2.4,6,5,6.1c5.6,0.3,9.7-3.2,12.7-7.8c2.9-4.3,3-9.9-0.7-12.3
			c-8.3-5.2-9.9-17.7-21.5-19c-3.8-0.4-2.1-4.7-2.6-7.4c4.2-5.5,0.9-10.6-0.5-17c-5,4.9-9,11.5-16,4.7c6.2-4.9,10-10.1-1.4-17
			C147.7,109.4,150.9,108.3,153.8,106.4z M167.5,132.1c-2.8,1.7-3.8,4.3-3.7,7.2c0,3.9,3.1,5.6,6.1,6c3.1,0.4,6.4-3.4,6.2-4.8
			C175.4,136.1,170.6,134.8,167.5,132.1z"/>
		<path class="st2" d="M126.1,179.1c5.5,1.4,9.7,4.8,12.9,9.3c2.9,4.1,4.5,8.2,11.3,8c5.8-0.1-0.5,6.6,2.8,8.9
			c-3.9,0.8-8.3-0.2-11.2,3.8c-1.6,2.3-4.5,3-6.7,1c-5.1-4.7-17-0.4-16.3-12.5c3.1-0.1,6.4,0.1,9.5-0.4c2.7-0.4,6.6-0.5,6.4-4.2
			c-0.2-3.1-2.9-5.7-6.3-6.3c-6.2-1.1-10.7,3.8-9.8,10.5c-6.7,2.1-17.8,2.4-18.8-1.1c-2.1-7.3-12.2-12.6-6.9-22
			c4.1,0.5,8.1,5.2,12.2,0.1l0.1-0.1c0.6-0.4,1.1-0.8,1.7-1.1c0-2.6-15.2-17.1-17.7-16.8c-0.3,0-0.5,0.4-0.8,0.5
			c-5.4-9.6-4.7-15.7,2.4-21.5c0.4,9.9,2.4,17.2,14.6,10.2c1-0.6,2.5-0.2,3.7-0.3c1.8,0.4,2.9,1.6,3.5,3.4
			c-1.1,7.7,4.9,9.7,9.8,12.7c-1.9,3.6-3.9,7.2-5.9,10.9c-1.1,0.1-2.3,0.1-3.4,0.2c-3.5,1-4.6,3.6-4.5,6.9c-3,2.6-6.5,5.8-2.8,9.4
			c3.5,3.4,6.7,0.6,9.2-2.9c1.6-2.3,4.3-3.7,6.5-5.5C123.1,179.9,124.6,179.4,126.1,179.1z"/>
		<path class="st3" d="M109.3,145.3c-1.3,0.1-2.8-0.3-3.7,0.3c-12.2,7.1-14.2-0.4-14.6-10.2l0.6-0.5c4.2-0.9,8.1-2.3,11.3-5.3
			c-0.2-4.4-1.3-8.9,0.9-13.2c1-2.1,2.5-5.2,4.6-4c5.8,3.1,9.7-1.5,14.3-2.6c8.2,3.3,4.5,11.5,7.3,17.1c-4.8,0-9.7-0.6-13.6,3.1
			c-5.1-3.9-7.6-2.4-7.6,3.8C108.7,137.6,109.1,141.4,109.3,145.3z"/>
		<path class="st2" d="M129.9,126.8c-2.7-5.6,0.9-13.8-7.3-17.1c1.9-6.8,3.6-10.9,13.5-9.5c6.9,0.9,13.3-1,17.7,6.2
			c-2.9,2-6.1,3-12.2,2.9c11.4,6.9,7.6,12,1.4,17c-2,0.4-2.9,2-3.6,3.6C135.9,129.9,132.9,128.4,129.9,126.8z"/>
		<path class="st4" d="M88.6,157c0.3-0.1,0.5-0.5,0.8-0.5c2.4-0.3,17.6,14.2,17.7,16.8c-1.9-1.6-1.4,0.4-1.7,1.1l-0.1,0.1
			c-3.6-1.4-7-3.8-11.2-2.1C88,168.6,90.8,161.9,88.6,157z"/>
		<path class="st3" d="M93.9,172.3c4.2-1.6,7.6,0.7,11.2,2.1c-4.2,5-8.2,0.4-12.2-0.1C93.3,173.6,93.6,173,93.9,172.3z"/>
		<path class="st2" d="M102.9,129.6c-3.2,3-7.1,4.4-11.3,5.3C93.3,128.9,98.7,130.5,102.9,129.6z"/>
		<path class="st1" d="M223.2,89.7c0.1,9.4-5.9,15.7-15.6,16.2c-7.5,0.4-14.7-6.6-15.1-14.6c-0.4-8.7,7.7-17,16.4-16.8
			C217,74.5,223,81,223.2,89.7z"/>
		<path class="st0" d="M203.9,122c1.5-4.4-4.9-11.4,4.3-13.2c2.2-0.4,4.6-0.9,6.3,1.1c1.5,1.7,0.7,3.7-0.3,5.4
			C211.9,119,212.9,127.8,203.9,122C204,122.1,203.9,122,203.9,122z"/>
		<path class="st2" d="M159.4,163.9c-1.4-2.2-2.7-4.6-5.7-5.2c-0.6-8.4-7.1-11-13.6-13.6c0.2-2.4,0.4-4.9,0.7-7.4
			c5-0.4,11.2,4.2,14.4-3.4c1.4,1.4,2.8,2.7,4.2,4c0.4,2.6-1.2,6.9,2.6,7.4c11.7,1.4,13.2,13.8,21.5,19c3.7,2.4,3.6,7.9,0.7,12.3
			c-3.1,4.6-7.2,8-12.7,7.8c-2.6-0.1-6.7-1.1-5-6.1c0.9-2.6,1.5-5.9-2.7-6.9C169.4,165.3,162.2,165.8,159.4,163.9z"/>
		<path class="st1" d="M140.1,145.2c6.5,2.6,13,5.2,13.6,13.6c-1.9,5-4.2,9.4-8.2,13.4c-5.3,5.4-8.9,4.4-13.2-0.4
			c1.1-4.6-1.4-8.5-2.4-12.7C129.1,151.4,133.4,147.4,140.1,145.2z M147.7,160.7c-1.1-2.9-2.9-5.9-6.4-5.6c-3.5,0.4-6.7,3-7,6.7
			c-0.3,3.4,2.4,6.4,5.8,6.4C144.2,168.2,146.8,165.1,147.7,160.7z"/>
		<path class="st4" d="M129.9,159.1c1.1,4.2,3.5,8.1,2.4,12.7c-3.8,0.9-6.1,3.2-6.2,7.3c-1.5,0.4-2.9,0.8-4.4,1.2
			c-2.4-2.2-4.6-4.6-4.9-8c1.9-3.6,3.9-7.2,5.9-10.9C125,160.5,127.4,159.8,129.9,159.1z"/>
		<path class="st0" d="M159.4,138.4c-1.4-1.4-2.8-2.7-4.2-4c-4.8-3.4-12.7,4.5-15.8-4.6c0.7-1.7,1.6-3.3,3.6-3.6
			c7,6.8,11,0.2,16-4.7C160.3,127.8,163.6,132.9,159.4,138.4z"/>
		<path class="st1" d="M167.5,132.1c3.1,2.8,7.9,4.1,8.5,8.4c0.2,1.4-3.1,5.2-6.2,4.8c-3-0.4-6.1-2.1-6.1-6
			C163.8,136.3,164.8,133.8,167.5,132.1z"/>
		<path class="st4" d="M159.4,163.9c2.8,1.9,10,1.4,4.4,8c-3.6,3-7.7,2.3-9.6-1.3C151.9,166.3,155.9,164.8,159.4,163.9z"/>
		<path class="st3" d="M129.9,159.1c-2.4,0.7-4.9,1.5-7.3,2.2c-4.9-3-10.9-5.1-9.8-12.7c3.1,0.4,5.9,0.6,8.9,2.1
			c3.7,1.9,5.3-0.4,4.7-5.4c-0.5-1.4-1-2.9-1.5-4.4c5-2.5,11.2,1.2,15.8-3.1c-0.2,2.4-0.4,4.9-0.7,7.4
			C133.4,147.4,129.1,151.4,129.9,159.1z"/>
		<path class="st1" d="M126.5,145.3c0.6,5.1-1,7.3-4.7,5.4c-3-1.5-5.9-1.6-8.9-2.1c-0.6-1.7-1.7-2.9-3.5-3.4
			c-0.2-3.9-0.5-7.7-0.5-11.6c0-6.2,2.5-7.7,7.6-3.8c0.1,1.1,0.3,2.3,0.4,3.4c-2.6,2.2-4.4,4.8-2.1,8
			C117.6,145.4,121.9,145.9,126.5,145.3z"/>
		<path class="st0" d="M118.6,197.4c-0.9-6.7,3.5-11.6,9.8-10.5c3.4,0.6,6.1,3.2,6.3,6.3c0.3,3.6-3.6,3.8-6.4,4.2
			c-3.1,0.4-6.3,0.2-9.5,0.4C118.9,197.6,118.6,197.4,118.6,197.4z"/>
		<path class="st3" d="M116.7,172.2c0.4,3.4,2.6,5.8,4.9,8c-2.2,1.8-4.9,3.3-6.5,5.5c-2.5,3.6-5.7,6.4-9.2,2.9
			c-3.7-3.6-0.2-6.9,2.8-9.4c1.5-2.3,3-4.6,4.5-6.9C114.5,172.3,115.5,172.3,116.7,172.2z"/>
		<path class="st0" d="M113.3,172.4c-1.5,2.3-3,4.6-4.5,6.9C108.7,176,109.8,173.3,113.3,172.4z"/>
		<path class="st3" d="M105.3,174.3c0.4-0.8-0.1-2.8,1.7-1.1C106.4,173.6,105.9,174,105.3,174.3z"/>
		<path class="st4" d="M116.8,133.3c-0.1-1.1-0.3-2.3-0.4-3.4c3.9-3.7,8.8-3.1,13.6-3.1c2.9,1.6,5.9,3.1,9.4,3
			c3.1,9.1,11.1,1.2,15.8,4.6c-3.2,7.6-9.4,3.1-14.4,3.5c-4.7,4.3-10.8,0.6-15.8,3.1C123.3,137.2,119.5,135.8,116.8,133.3z"/>
		<path class="st0" d="M147.7,160.7c-0.9,4.4-3.6,7.5-7.7,7.6c-3.4,0.1-6.1-2.9-5.8-6.4c0.3-3.7,3.4-6.4,7-6.7
			C144.9,154.7,146.6,157.8,147.7,160.7z"/>
		<path class="st0" d="M116.8,133.3c2.9,2.4,6.5,3.8,8.2,7.5c0.5,1.5,1,2.9,1.5,4.4c-4.6,0.6-8.9,0.1-11.8-3.9
			C112.3,138.1,114.2,135.6,116.8,133.3z"/>
	</g>
</g>
<g id="_x37_XFt07.tif">
	<g>
		<path class="st5" d="M93.8,39.3c-1,5.1,4.9,6.2,5.8,10.2c1.8,4.3,1,7.5-3.8,9c0,3.2,2.4,1.9,4,2.1c0.1,0.4,0.1,0.7,0.2,1.1
			c-1,4.4,1.7,10-4.1,12.8c-0.1,0.3-0.1,0.6-0.1,1c-0.6,3.5,1.2,4.1,4.3,4.1c26.5-0.1,53,0,79.4-0.1c1.4,0,3.6,0.7,3.8-1.2
			c0.4-2.6-2.6-1.2-3.6-2.3c1.3-0.6,3.2,0.5,4-1.5c-5.3-2.5-3.5-7.4-3.9-11.5c-0.1-0.5-0.2-0.9-0.3-1.4c0.1-0.4,0.2-0.7,0.2-1.1
			c1.2,0.2,2.7,1.9,3.1-0.8c2.2-1.6,1.1-2.4-0.7-2.9c-1.2-0.3-2.6-0.3-2.2-2c1.3-5-0.7-11.2,5.3-14.6c1.5-0.9,1.9-2.7,0.9-4.4
			c-0.9-1.6-2.3-2.6-4.1-2.1c-1.9,0.5-3.7,2-3.1,3.9c2.1,7.1-4.8,8.1-7.3,13.4c-1.8-6.6-3.2-11.7-4.6-16.8c-0.9-3.1-2.7-6.2,0.5-9.3
			c1.4-1.4,0.9-3.5-0.7-4.9c-1.2-1.1-2.7-1.3-4.2-0.6c-1.9,0.9-2.4,2.6-1.9,4.6c0.3,1.2,1.8,2,1,3.6c-2.9,5.7-5.7,11.4-9,18.2
			c-3.9-10.2-7.2-19.2-10.7-28.2c-0.6-1.5-0.1-2.4,0.9-3.6c1.6-1.9,1.1-3.8-0.6-5.3c-1.4-1.2-3.1-1.3-4.6-0.1
			c-1.8,1.4-2.4,3.3-0.9,5.2c1,1.3,1.5,2.4,0.8,4c-3.4,8.7-6.6,17.4-10.2,26.9c-2.4-4.9-4.6-9-6.6-13.1c-1.2-2.6-3.4-4.9-1.1-8.2
			c1-1.4-0.1-3.3-1.7-4.2c-1.6-0.9-3.2-0.8-4.6,0.6c-1.3,1.4-1.4,2.9-0.6,4.6c0.6,1.3,2.6,1.7,2,3.7c-1.9,7.1-3.8,14.3-5.9,22.5
			c-3.3-4.1-6-7.3-8.6-10.4c1.6-1.9,1.9-3.9,0-5.8c-1.1-1.1-2.5-1.6-4.1-0.8C94,35,93.4,36.9,93.8,39.3z"/>
		<path class="st6" d="M100.4,40.5c2.6,3.2,5.2,6.4,8.6,10.4c2.1-8.2,4-15.3,5.9-22.5c0.5-2-1.4-2.4-2-3.7c-0.8-1.7-0.7-3.2,0.6-4.6
			c1.3-1.4,3-1.5,4.6-0.6c1.6,0.9,2.8,2.8,1.7,4.2c-2.3,3.3-0.1,5.6,1.1,8.2c2,4.1,4.1,8.2,6.6,13.1c3.6-9.5,6.9-18.2,10.2-26.9
			c0.6-1.6,0.2-2.7-0.8-4c-1.5-1.9-1-3.8,0.9-5.2c1.5-1.2,3.2-1.1,4.6,0.1c1.8,1.5,2.2,3.4,0.6,5.3c-0.9,1.1-1.4,2.1-0.9,3.6
			c3.4,9,6.8,17.9,10.7,28.2c3.4-6.8,6.2-12.5,9-18.2c0.8-1.6-0.7-2.4-1-3.6c-0.5-2,0-3.7,1.9-4.6c1.4-0.7,3-0.6,4.2,0.6
			c1.6,1.4,2.1,3.6,0.7,4.9c-3.2,3.1-1.4,6.1-0.5,9.3c1.4,5.1,2.8,10.2,4.6,16.8c2.6-5.3,9.4-6.4,7.3-13.4c-0.6-1.9,1.2-3.4,3.1-3.9
			c1.8-0.5,3.2,0.5,4.1,2.1c1,1.7,0.6,3.6-0.9,4.4c-6,3.4-4,9.6-5.3,14.6c-0.4,1.6,1,1.7,2.2,2c1.8,0.4,2.9,1.3,0.7,2.9
			c-2.4-2.4-5.4-1.2-8.1-1.2c-26.3-0.1-52.7-0.1-79-0.1c4.8-1.5,5.6-4.7,3.8-9c-0.4-2.3-0.7-4.5-1.1-6.8
			C98.7,41.6,99,40.6,100.4,40.5z"/>
		<path class="st6" d="M95.9,74.4c5.8-2.8,3.1-8.4,4.1-12.8c26.5,0,53,0,79.5,0c0.1,0.5,0.3,0.9,0.3,1.4c0.5,4.1-1.4,9,3.9,11.5
			c-7.2-1.1-14.5-0.4-21.6-0.3c-7.7,0.1-15.4-0.1-23.1,0c-6.1,0.1-12.5-0.2-18.6-0.2C112.3,74.1,104,73.3,95.9,74.4z"/>
		<path class="st7" d="M179.7,76c1.1,1.1,4-0.4,3.6,2.3c-0.3,1.9-2.5,1.2-3.8,1.2c-26.5,0-53,0-79.4,0.1c-3.1,0-4.9-0.7-4.3-4.1
			c0.7,0.2,1.4,0.4,2.1,0.6c0.9,0.6,1.8,0.6,2.7,0c2.1-0.4,4.2-0.4,6.3,0c0.6,0.5,1.1,0.5,1.7,0c3.8-0.4,7.5-0.4,11.3,0l0.4,0.2
			l0.4-0.2c4.8-0.4,9.5-0.4,14.3,0c0.6,0.5,1.1,0.5,1.7,0c3.8-0.4,7.5-0.4,11.3,0l0.4,0.2l0.4-0.2c5.1-0.4,10.2-0.4,15.2,0l0.4,0.2
			l0.4-0.2c3.8-0.4,7.5-0.4,11.3,0c0.6,0.5,1.1,0.5,1.7,0C178.3,76,179,76,179.7,76z"/>
		<path class="st8" d="M95.8,58.4c26.3,0,52.7,0,79,0.1c2.7,0,5.7-1.1,8.1,1.2c-0.4,2.7-2,1-3.1,0.8c-26.6,0-53.3,0-79.9,0
			C98.2,60.3,95.8,61.7,95.8,58.4z"/>
		<path class="st8" d="M97.9,76c-0.7-0.2-1.4-0.4-2.1-0.6c-0.1-0.3,0-0.6,0.1-1c8.2-1.1,16.4-0.3,24.6-0.4
			c6.1-0.1,12.5,0.2,18.6,0.2c7.7-0.1,15.4,0.1,23.1,0c7.1-0.1,14.4-0.8,21.6,0.3c-0.8,2-2.7,0.9-4,1.5c-0.7,0-1.4,0-2.1,0.1
			c-0.6,0-1.1,0-1.7,0c-3.8-0.4-7.5-0.4-11.3,0c-0.3-0.2-0.5-0.2-0.8,0c-5.1-0.4-10.2-0.4-15.2,0c-0.3-0.2-0.5-0.2-0.8,0
			c-3.8-0.4-7.5-0.4-11.3,0c-0.6,0-1.1,0-1.7,0c-4.8-0.4-9.5-0.4-14.3,0c-0.3-0.2-0.5-0.2-0.8,0c-3.8-0.4-7.5-0.4-11.3,0
			c-0.6,0-1.1,0-1.7,0c-2.1-0.4-4.2-0.4-6.3,0C99.7,76,98.8,76,97.9,76z"/>
		<path class="st9" d="M99.8,60.5c26.6,0,53.3,0,79.9,0c-0.1,0.4-0.2,0.7-0.2,1.1c-26.5,0-53,0-79.5,0
			C99.9,61.2,99.9,60.9,99.8,60.5z"/>
		<path class="st8" d="M100.4,40.5c-1.4,0.1-1.7,1.1-1.8,2.1c-1.6-1.1-3.1-2.3-4.7-3.4c-0.5-2.4,0.2-4.3,2.5-5.4
			c1.6-0.8,3-0.3,4.1,0.8C102.3,36.6,102,38.6,100.4,40.5z"/>
		<path class="st7" d="M93.8,39.3c1.6,1.1,3.1,2.3,4.7,3.4c0.4,2.3,0.7,4.5,1.1,6.8C98.7,45.5,92.8,44.4,93.8,39.3z"/>
		<path class="st5" d="M97.9,76c0.9,0,1.8,0,2.7,0C99.7,76.6,98.8,76.6,97.9,76z"/>
		<path class="st5" d="M175.9,76c0.6,0,1.1,0,1.7,0C177,76.5,176.4,76.5,175.9,76z"/>
		<path class="st5" d="M134.9,76c0.6,0,1.1,0,1.7,0C136,76.5,135.5,76.5,134.9,76z"/>
		<path class="st5" d="M106.9,76c0.6,0,1.1,0,1.7,0C108,76.5,107.5,76.5,106.9,76z"/>
		<path class="st5" d="M163.9,76c0.3-0.2,0.5-0.2,0.8,0c0,0-0.4,0.2-0.4,0.2L163.9,76z"/>
		<path class="st5" d="M147.8,76c0.3-0.2,0.5-0.2,0.8,0c0,0-0.4,0.2-0.4,0.2L147.8,76z"/>
		<path class="st5" d="M119.9,76c0.3-0.2,0.5-0.2,0.8,0c0,0-0.4,0.2-0.4,0.2L119.9,76z"/>
	</g>
</g>
</svg>
